<svg id="Capa_1" data-name="Capa 1" xmlns="http://www.w3.org/2000/svg" viewBox="0 0 507 405.07"><defs><style>.cls-1,.cls-6{fill:none;}.cls-1{stroke:#dca742;stroke-linecap:round;stroke-width:2.24px;}.cls-1,.cls-5,.cls-6{stroke-miterlimit:22.93;}.cls-1,.cls-2,.cls-3,.cls-4,.cls-5,.cls-6{fill-rule:evenodd;}.cls-2{fill:#dca742;}.cls-3{fill:#9d7b3c;}.cls-4,.cls-5{fill:#231f20;}.cls-5,.cls-6{stroke:#231f20;stroke-width:0.45px;}</style></defs><path class="cls-1" d="M280.24,113H266V32.1a32.48,32.48,0,0,1,10.69-13.43C267.08,13.46,263,1.12,252.82,1.12c-10.44,0-14.72,12.61-25,17.55,6.13,4,9.78,8.65,11.52,13.43V113H226.22c7.67-27.27,14.48-42-6.31-42H186.73c-7.6-2.27-23-11.23-24.41-3.84C84.45,42.25,93.5,69.4,38.1,35.12,40.69,42.31,44,48.77,48.8,53.77,27.46,49.43,13.46,35.63,1.63,18.12,3.29,32.45,2.55,65,58.4,76.8c4.84,7.13,10.51,12.07,19.74,14.81l-31.81,3c9.16,8.89,28.14,13.7,59.23,12.35a187.36,187.36,0,0,1-43.05,8.5c17.67,10.14,40.29,11.33,65.26,4.66-9.66,10.13-21.59,18.38-35.65,26.32,17.93-.44,35.19-4.49,50.19-13.71a105.24,105.24,0,0,1-18.1,24.41,61,61,0,0,0,29.34-11.79l-5.48,18.92,19.47-23,18.09-1.37a38,38,0,0,1,3.57,11c2.16-5.49,4.87-10.14,8.5-13.44,9.2,4.83,20.05,6.33,32.91,3.84-3.12,2.85-2.65,8.49.82,16.46-74.16-26-104.53,68.77-23.86,130-.17,3.86,1.63,6.41,4.11,8.5-2.06,15.75,5.89,19.85,15.63,10.43-1.69,22-1.54,31.88,10.7,27.9-.5,3.38-.79,8.75,1.37,12.13-5.34,2.76-8.64,19.9,4.87,21.19a18.43,18.43,0,0,0,7.92,9.47c-1.1.41-2.49.54-2.65,1.49-2.49,6.1-4.43,8.76-4.91,14.33-.7,8.3,4,11.34,10,10.78,7.05-.69,8.47-4.36,8.85-9.22.36-6-.9-10.55-3.88-14a9,9,0,0,0-5-3.33c5-3.45,10.07-14.09,12.61-33.48,1.09-.36,2.82-1.77,3.91-2.14.38,3.87-2.32,5.92-2.4,13.09,1,4.59,4.1,7.08,7.89,6.61,6.94-.87,7.3-3.45,8.34-10.8,2.21-15.58-8.43-26.72,4.38-43.26,2.28-2.95.42-7.46.31-11.19,90.62-65.7,64.29-164.91-15.7-139.21,3-7.65,7.05-10.89,1.31-15.67,11.51,2.77,23.18.85,33.76-4.33a44.12,44.12,0,0,1,8.17,13.22,18.09,18.09,0,0,1,3.64-9.17l17.83,1.1c6.56,8,13.21,15.66,20.24,21.78-2-6.68-5.14-12.67-7.19-19.35,8.07,6,17.36,11,29.64,12.77A68.15,68.15,0,0,1,364.15,133c15.23,8.64,32.14,12.83,50.18,14-13.37-7.51-25.67-15.73-34.82-26,27.71,8.74,48.19,4,66.08-5.48-14.8-1.28-34.46-3.44-45-8.48,24.74,1.29,45.65.38,59.92-12.54a219.27,219.27,0,0,1-30.59-2.51c7.33-3.42,14.39-8.56,18.43-14.32,43-10.29,53.24-30,57-59.23-11.82,16.73-25.49,30-46.77,34.76,4.48-6,8.12-12.18,9.8-17.75-51.29,32.8-43.12,5.54-124.08,31.84.7-8.11-14.33-.29-25.64,3L287.09,71C262.18,71.69,275.51,97.93,280.24,113Z"/><path class="cls-2" d="M242.51,42.61a16.15,16.15,0,0,0,9.3,4.11V56h2.13V46.68a18,18,0,0,0,9.1-4.07v68a22.48,22.48,0,0,0-3.69-3.41L258,84.4l-.94,21.46a10.53,10.53,0,0,0-3.14-.94l-1.2-23-.94,23a10.49,10.49,0,0,0-2.91.78L247.42,84.4l-.54,22.36a21.77,21.77,0,0,0-4.37,3.88Z"/><path class="cls-3" d="M242.51,32.34a16.11,16.11,0,0,0,9.29,4.12v7.93a17.64,17.64,0,0,1-9.3-3.77Z"/><path class="cls-3" d="M254,36.41A17.91,17.91,0,0,0,263,32.34v8.28A17.83,17.83,0,0,1,254,44.38Z"/><path class="cls-2" d="M219.54,92.31c-3.4,11.89-4.4,19.06,2.15,21.52-.44-10.23,3.86-17.4,5.3-21.19,4.18-11-1-16.86-9.43-16.89H185.11c3.15,5.08,8.67,9.17,24.67,8.12C216.38,83.43,221.69,84.81,219.54,92.31Z"/><path class="cls-2" d="M203.57,113.08h13.08c-2.17-6.13-3.5-12.17-.83-17.88,2.37-5,1.18-8.82-5.3-8.44-11.19.66-20.85-1.28-28.8-11.25-.54-2.46-10.11-4.12-15.73-6.62-1.1,2,.19,4.18,3.5,6.6l10.57,4.65c-3.53-.66-7.22-1.16-10.76-1.82.53,3.79,2.74,6.74,6.79,8.77l13.74.5c-6.84,1.84-6.53,15.65,13.91,14.4l-2.88,1.66C198.25,105.15,200.67,107.83,203.57,113.08Z"/><path class="cls-2" d="M104.79,74.06c18.84-2.63,37.78-4.62,57.77-.33-15.49-9.65-47-14.65-71.18-15.07S61,53.37,46.36,45.42c6.16,7.35,15.91,13,30.46,16.39l-18.54.5,3.81-3c-22.89-1.49-41.23-10-54-26.49C11.89,43.22,16.48,53,28,60.65,44.11,71.41,66.56,79.39,104.79,74.06Z"/><path class="cls-2" d="M126.16,82.87c10.77-2.72,24-2.51,42.11-1.33-.83-7.58-16.18-10.13-38-8.28-28.08,2.38-47.23,8.6-67.42,2.61C76.27,96.39,106.41,87.87,126.16,82.87Z"/><path class="cls-2" d="M175.23,89.14,169.52,84c-33.55-2.91-53.75,4.67-85.9,11.85-7,1.56-17.07,1.42-24.14.74,7.67,9.5,53.34,6.16,66.72,1.75C142,93.17,158.43,87.5,175.23,89.14Z"/><path class="cls-2" d="M154.74,104.22c9.2-4.36,17.27-6.24,28.39-9.81l-.44-2.63a119.61,119.61,0,0,0-35,3.36c-8.11,1.19-18.14,6.23-29,12.88a154.8,154.8,0,0,1-39.66,9.51C100.83,125.1,134.81,113.64,154.74,104.22Z"/><path class="cls-2" d="M187.08,101.14l-2.34-5-47.41,18.44c-6.54,9.54-15.86,17.67-25.91,24.87,8-1.4,17.08-5,26.64-9.95C159.48,114.16,173.06,103.79,187.08,101.14Z"/><path class="cls-2" d="M188.25,106l.29-3.51c-12.08,2.32-27.31,13.19-37,20.34a164.27,164.27,0,0,1-13.75,25.9,86.47,86.47,0,0,0,20.63-14.48C171.19,119,174.24,107.49,188.25,106Z"/><path class="cls-2" d="M158.4,144.31l17.41-20.78,1-9.07-14,17.12A75,75,0,0,1,158.4,144.31Z"/><polygon class="cls-2" points="168.2 136.7 181.96 136.12 176.1 127.34 168.2 136.7"/><path class="cls-2" d="M238,132.75q-18.13,10.4-38,.29Z"/><path class="cls-2" d="M191.24,105A34.24,34.24,0,0,0,202,112.7c-3.16-4.21-5.86-7.12-5.19-9.49L191.9,103C190.41,102.56,190.67,103.64,191.24,105Z"/><path class="cls-2" d="M285.26,92.31c3.41,11.89,4.41,19.06-2.15,21.52.44-10.23-3.86-17.4-5.3-21.19-4.18-11,1-16.86,9.44-16.89h32.44c-3.15,5.08-8.66,9.17-24.66,8.12C288.42,83.43,283.11,84.81,285.26,92.31Z"/><path class="cls-2" d="M301.23,113.08H288.16c2.17-6.13,3.5-12.17.83-17.88-2.37-5-1.19-8.82,5.29-8.44,11.19.66,20.86-1.28,28.8-11.25.55-2.46,10.11-4.12,15.73-6.62,1.1,2-.18,4.18-3.49,6.6l-10.58,4.65c3.53-.66,7.23-1.16,10.76-1.82-.53,3.79-2.73,6.74-6.79,8.77l-13.74.5c6.84,1.84,6.53,15.65-13.9,14.4l2.88,1.66C306.56,105.15,304.14,107.83,301.23,113.08Z"/><path class="cls-2" d="M400,74.06c-18.84-2.63-37.78-4.62-57.77-.33,15.49-9.65,47-14.65,71.18-15.07s30.42-5.29,45-13.24c-6.16,7.35-15.9,13-30.45,16.39l18.54.5-3.81-3c22.88-1.49,41.23-10,54-26.49-3.77,10.38-8.36,20.13-19.86,27.81C460.7,71.41,438.25,79.39,400,74.06Z"/><path class="cls-2" d="M378.65,82.87c-10.78-2.72-24-2.51-42.12-1.33.83-7.58,16.18-10.13,38-8.28,28.08,2.38,47.23,8.6,67.42,2.61C428.54,96.39,398.4,87.87,378.65,82.87Z"/><path class="cls-2" d="M329.58,89.14l5.7-5.12c33.56-2.91,53.76,4.67,85.9,11.85,7,1.56,17.08,1.42,24.15.74-7.67,9.5-53.34,6.16-66.73,1.75C362.83,93.17,346.38,87.5,329.58,89.14Z"/><path class="cls-2" d="M350.06,104.22c-9.2-4.36-17.27-6.24-28.38-9.81l.44-2.63a119.67,119.67,0,0,1,35,3.36c8.1,1.19,18.14,6.23,29,12.88a154.9,154.9,0,0,0,39.66,9.51C404,125.1,370,113.64,350.06,104.22Z"/><path class="cls-2" d="M317.72,101.14l2.35-5,47.41,18.44c6.53,9.54,15.86,17.67,25.9,24.87-8-1.4-17.07-5-26.63-9.95C345.32,114.16,331.74,103.79,317.72,101.14Z"/><path class="cls-2" d="M316.56,106l-.3-3.51c12.08,2.32,27.31,13.19,37,20.34A164.33,164.33,0,0,0,367,148.7a86.47,86.47,0,0,1-20.63-14.48C333.62,119,330.57,107.49,316.56,106Z"/><path class="cls-2" d="M346.41,144.31,329,123.53l-1-9.07,14,17.12A73.32,73.32,0,0,0,346.41,144.31Z"/><polygon class="cls-2" points="336.6 136.7 322.85 136.12 328.7 127.34 336.6 136.7"/><path class="cls-2" d="M266.8,132.75q18.15,10.4,38.05.29Z"/><path class="cls-2" d="M313.56,105a34.31,34.31,0,0,1-10.7,7.72c3.16-4.21,5.85-7.12,5.19-9.49l4.85-.22C314.4,102.56,314.13,103.64,313.56,105Z"/><path class="cls-2" d="M242.51,132.19a17.71,17.71,0,0,0,6.72,3.68l3.56,3.69,3.24-3.69a19.57,19.57,0,0,0,7-3.68v6.55q-10.28,7.6-20.53,0Z"/><path class="cls-2" d="M261.39,206.48c-1.76-7-1.43-12.48,4.37-13.83-1-18.81,2.95-30,7.63-47.46l-4-2.87c-3-2.19-4.31-1.77-7.44,0a19,19,0,0,1-18.67,0c-3.81-2.07-5.19-1.6-7.32,0l-3.83,2.89c7.44,19.69,8.62,29.45,8.67,50.75l7.45,5.16c3.5,2.42,1.06,7.4-1.34,7.82,6.71,10.14-5.84,6.8-2.09,14.31.85,1.71,3.51,1.53,4.61,0,1.23-1.7,1.84-3.92,1.18-7.2l1.35-1.58,0-64.41,1.86,3.13.65,57.28A12.62,12.62,0,0,1,261.39,206.48Z"/><path class="cls-2" d="M250.61,226.72c-2.76-1.25-6.33-1.5-9.09.78q.72-6.41-3.87-10.16c10.79-1.29,8.48-5.48,4-9.27,4-2.72,6.15-5.47,2.21-7.5-2.78-1.43-5.23,0-7.18,4.3l-1.32,1.44-.8-4.14-6.71-4-4.11-.2,3.12-1c17.73,5.45,15.89.51-4.63-14.35l13,6.1-4.71-7.6,6.57,5.62a60.65,60.65,0,0,0-1.89-21.33c-44.79-31.4-118.89,28.17-28.15,117.14,3.32-5.17,5-4.38,5.42,7.4.07,1.9,4.18,2.94,3.32,4.64-6.66,13.08,9.87,16.42,3.72,5.26-.78-1.43-.11-2.55.14-2.62l2.65-.66c-1.56,9.16,8.08,4.5,3.42-1.54l2.42.77,3.21,7.39c-.3,8.1-.37,16.08-.67,24.17.47,5.91,7.11,2.47,5.85-2.1-2-7.23-2.09-6.55-1.21-20.08.19,10.56,3.86,13.49,10.81,7.28.07,7.66,1.42,10.39,2.65,16.33,1.55,2.7,8.35,1.37,5.85-1.76-2.93-3.67-2.22-4.11-1.57-8.83,1.78-12.76,7.55-17.19,7.39-12.69a49,49,0,0,0-.25,15.09c-.07,1.24,1.28,1.51,2.52,1.61.64-2.06,2.94-2.81,3.5-.34,1.17,0,3.48,1.26,3.53.08l.44-12.14c.22-6,7.59-3.4,5.74,1.77-8.78,24.47,2,26.17-2.43,38.07-3.19,8.52,7.55,10.19,7.06.77-1.36-26.28-8.9-22.66,4.31-44.91,0-8.24-.44-8.66,2.41-14C387.38,209,331.22,134.07,271.13,163.39a43.93,43.93,0,0,0-2,14.45l9.61-7.51c-18,20.35-7.86,12.12,10.84,4.21l2.4.1c-11.88,5.71-20.62,10.77-24.84,16.19l1.89.25,6.06-3.42-4.29,4.82-1,4.4-1.61.05c1.89-3.91,1-4.52-1.76-3.2-4.12,2-4.7,6.18-2.61,13.46C253.33,209.59,252.66,217.74,250.61,226.72Z"/><path class="cls-3" d="M250.61,226.72c-2.76-1.25-6.33-1.5-9.09.78q.72-6.41-3.87-10.16c10.79-1.29,8.48-5.48,4-9.27,4-2.72,6.15-5.47,2.21-7.5-2.78-1.43-5.23,0-7.18,4.3l-1.32,1.44-.8-4.14-6.71-4-4.11-.2,3.12-1c17.73,5.45,15.89.51-4.63-14.35l13,6.1-4.71-7.6,6.57,5.62a61.51,61.51,0,0,0-.82-16.7c-5.91-.28-6.94-2.35-3.8-6.41a45.08,45.08,0,0,0-55.76,6.72c21.83,3.61,17.49-6.08,32.11-6.69,17-.71,23.66,7.61,19.18,7.33l-8.1-.51c7,4.28,8.95,11.27.56,9.44s-18.9-1.85-15.58,1.2c4.12,3.79,8.39.65,12.64,1.84a26,26,0,0,1,11.52,6.55c2.35,2.41,3.57,4,4,6.62-5.21,0-10.43.24-15.64.21l-4.73.85c3.24.45,9.43.25,12.4,1.64,9,4.25,7.2,12.72,13.39,7,1.37-1.26,2.7-5,4.11-3.79,1.64,3.62-1.71,7.24-7.71,10.86,1.68,3,3.37,6.4,3.76,9.13.61,4.3,1,6.85,6.16,6.05,4-.61,6.93,6,8.12,7.56-.55-14.88,3.48-22.58,10.42-24.45l1.61-3.85c.47-1.13-2.05-7.31-1.37-8.47a24.56,24.56,0,0,1,3.28-4.31c.36-.37-1,4.41-.67,4.81,1.13,1.3,2.37,2.68,2.88,1.1,3.17-9.72,19.22-24.61,26.83-26.53a2.5,2.5,0,0,0-3.13-1.21c-5.1,1.46-10.66,3-15.85,2.52,1.07-2.56,4.72-7,2.55-7.08-3.88-.12-6.44,4.2-9.88,2a41.46,41.46,0,0,0-.45,7.56l9.61-7.51c-18,20.35-7.86,12.12,10.84,4.21l2.4.1c-11.88,5.71-20.62,10.77-24.84,16.19l1.89.25,6.06-3.42-4.29,4.82-1,4.4-1.61.05c1.89-3.91,1-4.52-1.76-3.2-4.12,2-4.7,6.18-2.61,13.46C253.33,209.59,252.66,217.74,250.61,226.72Z"/><path class="cls-3" d="M330.62,171c-13.21-14.56-36.05-19-59.49-7.56l-1,4c11-.16,26.54-2.32,36.48,2.14,4.4,2,7.79,3.15,11.36,3.48,8.91,8.24,11.68,17.43,11.56,27-.05,3.39,3.12-1.17,3.26-1.86,1.33-7.73-2.86-16.19-11.75-25.07A31.42,31.42,0,0,0,330.62,171Z"/><path class="cls-4" d="M288,215.15c-2-5-6.23-7.7-11.7-7.73,3.29-.58,7.19-4.24,10.59-8.72a39.13,39.13,0,0,1-3.53,7.18C287.06,208.6,288.67,210.66,288,215.15Z"/><path class="cls-2" d="M212.15,115.72H239c-3.33,4.27-3.38,8.68,0,13.25H212.15a17.17,17.17,0,0,1-1.42-6.57H215V121h-4.19A17.21,17.21,0,0,1,212.15,115.72Z"/><path class="cls-3" d="M209.7,122.39a20.08,20.08,0,0,0,1.2,6.58h-7.82v-6.58Z"/><path class="cls-3" d="M203.08,115.72h7.82a18.44,18.44,0,0,0-1.16,5.26h-6.66Z"/><path class="cls-2" d="M293.41,115.72H266.57c3.32,4.27,3.38,8.68,0,13.25h26.84a17,17,0,0,0,1.42-6.57h-4.25V121h4.19A16.65,16.65,0,0,0,293.41,115.72Z"/><path class="cls-3" d="M295.87,122.39a20.08,20.08,0,0,1-1.2,6.58h7.82v-6.58Z"/><path class="cls-3" d="M302.49,115.72h-7.82a18.43,18.43,0,0,1,1.15,5.26h6.67Z"/><path class="cls-4" d="M211.93,178.35a6.12,6.12,0,0,1,5.47,3.21,7.69,7.69,0,0,0-5.52-2.46,8.1,8.1,0,0,0-5.81,2A6.5,6.5,0,0,1,211.93,178.35Z"/><path class="cls-4" d="M210,196.82c3.38.9,6.67,0,8.44-2a10.43,10.43,0,0,1-8.2,1,11,11,0,0,1-6.78-5C204.1,193.5,206.6,195.91,210,196.82Z"/><path class="cls-5" d="M251.38,262.32c2.35-1.61,5.59-5.77,8.94-17.63,2.71,10.72,6.72,14.52,6.46,22.74-.17,5.33-2.45,11.18-13.61,6.64-5-2-6.69-8.4-1.79-11.75Zm1.77,1.83c-3.12,2.14-2.05,6.2,1.14,7.49,7.12,2.9,10.59-1.9,10.7-5.3.17-5.24-2.39-7.66-4.11-14.5C258.74,259.41,254.64,263.13,253.15,264.15Z"/><path class="cls-2" d="M245.12,315.74a8,8,0,0,1-3.75,1.76c-.63,6.57.67,27.13,1.91,33.47,5.93,30.48,13.5,29.7,19.41,0,1.72-8.59,1.75-17.37,1.54-26.06-8.08-.22-5.89-11.82-4.89-17.27-1.76,1.76-3.5,6.08-3.8,10.37-.22,3.22,1.17,4.74,2.24,8.42.81,2.77-1.42,5.78-3.52,6.66L254,343.15c1.68,2.28,3.13,5,2.61,7.82-.44,2.51-1.49,3.86-2.88,4.66v4.72l-1.24-.94-.23-3.16a12.69,12.69,0,0,1-1.56.38c-2.57.5-5.9-2.58-6.13-7.19-.27-5.2,4.7-17.18,7.7-8.43l-.25-7.74c-1.75.18-3.35-1-4.35-3.29C245.7,325.55,244.43,321.8,245.12,315.74Z"/><path class="cls-2" d="M266.49,328.51a27.1,27.1,0,0,1,0,7.84c-.91,3.38-.18,4.22,2.71,1.14a4.66,4.66,0,0,0,1.42-4.13c.27-3.36.69-7.15-1.42-7.84C266.92,325.37,266.49,326.76,266.49,328.51Z"/><path class="cls-2" d="M242.34,354.14a22.89,22.89,0,0,0,.46,6.61c1,2.8.4,3.55-2.21,1.13a4,4,0,0,1-1.45-3.41c-.42-2.81-1-6,.74-6.69C241.8,351.51,242.24,352.66,242.34,354.14Z"/><path class="cls-2" d="M253.26,349.25c-.09-2.54-1.46-8-4-8.12-2.33-.14-2.93,6.21-3.13,7.26-.43,2.25,1.56,5.57,3.84,5.7C252.07,354.21,253.34,351.34,253.26,349.25Z"/><path class="cls-2" d="M231.6,361.43c-4.95-7.35.85-13-5.7-12.4-8.85.09-11.28,5.76-12,12.68-.56,5.71,1,11.37,8.41,11.83,5.55.34,12.93-6.67,9.26-12.11Zm-2.09.07c3,4.41-2.5,10-7,9.72-6-.37-7.28-5-6.82-9.59.55-5.61,2.52-10.21,9.71-10.29,4.73-.41,1,3.27,3.09,8.27A10.38,10.38,0,0,0,229.51,361.5Z"/><path class="cls-2" d="M226.05,362.13c-2.78-4.13,1.73-8.06-2-7.74-5,.05-5.41,3.24-5.79,7.13-.32,3.21.58,6.39,4.72,6.65C226.14,368.36,228.11,365.19,226.05,362.13Z"/><path class="cls-6" d="M251.64,389.28c3-1.51-1.29-7.54,2.08-7.24,2.86,1.89,3.68,5.82,4,9.38.29,2.94-1,6-4.76,6.24C250.13,397.83,248.62,390.8,251.64,389.28Z"/><path class="cls-2" d="M249.85,389.54c2.14-3,0-8.53,3.85-8.62s6.41,7.27,6.62,11.83c.25,5.23-1.6,7.85-7.55,8.07C249.13,401,247.18,393.3,249.85,389.54Z"/><path class="cls-2" d="M252.78,4.76a14,14,0,0,1,9.92,4.12c3.3,3.32,4.19,5.63,8.73,9.92-4.59,4.22-3.92,3.75-7.55,8.47a14,14,0,0,1-22.16.06c-3.84-4.94-3.21-4.39-8-8.59,5.15-4.48,5.28-5.83,9-9.73a14,14,0,0,1,10.05-4.25Zm0,13.85a3.15,3.15,0,1,0,3.15,3.15,3.15,3.15,0,0,0-3.15-3.15Zm0-5.24a8.39,8.39,0,1,0,8.39,8.39,8.38,8.38,0,0,0-8.39-8.39Zm0,1.5a6.89,6.89,0,1,0,6.89,6.89,6.88,6.88,0,0,0-6.89-6.89Zm0-6A9.91,9.91,0,0,0,243.64,15a11.45,11.45,0,0,1,18.29,0A9.91,9.91,0,0,0,252.78,8.86Z"/><path class="cls-2" d="M252.77,108.48a12.86,12.86,0,1,1-12.86,12.86,12.86,12.86,0,0,1,12.86-12.86Zm0,2.12a9.4,9.4,0,0,0-8.68,5.81,10.86,10.86,0,0,1,17.37,0,9.4,9.4,0,0,0-8.69-5.81Zm0,3.35a8.39,8.39,0,1,0,8.39,8.39,8.39,8.39,0,0,0-8.39-8.39Zm0,1.5a6.9,6.9,0,1,0,6.89,6.89,6.9,6.9,0,0,0-6.89-6.89Zm0,3.75a3.15,3.15,0,1,0,3.15,3.14A3.15,3.15,0,0,0,252.77,119.2Z"/><path class="cls-3" d="M323.38,240.26a167.88,167.88,0,0,0,6.15-33.34c.11-1.47,4.15-4.07,4.11-2.6a86.21,86.21,0,0,1-10,36.84C322,244.29,322.8,242.24,323.38,240.26Z"/><path class="cls-3" d="M270.51,147.06c-5.59-8.28-9.76-1.42-15,2.21,3.34-.88,6.7-2.15,9.9-1.06a13.4,13.4,0,0,1,.23,5.51A13.79,13.79,0,0,0,270.51,147.06Z"/><path class="cls-3" d="M235,147.06c5.6-8.28,11.91-.44,17.11,3.19-3.33-.88-8.84-3.13-12-2a13.58,13.58,0,0,0-.24,5.51A13.92,13.92,0,0,1,235,147.06Z"/><path class="cls-2" d="M179.14,122.16a11.28,11.28,0,0,1,3.32-8c2.67-2.66,4.54-3.38,8-7,3.41,3.69,3,3.15,6.84,6.08a11.29,11.29,0,0,1,0,17.87c-4,3.09-3.54,2.58-6.92,6.48-3.61-4.15-4.71-4.26-7.85-7.3a11.26,11.26,0,0,1-3.42-8.1Zm11.28-1.51a2.67,2.67,0,1,0,2.67,2.67,2.67,2.67,0,0,0-2.67-2.67Zm0-4.45a7.12,7.12,0,1,0,7.12,7.12,7.13,7.13,0,0,0-7.12-7.12Zm0,1.27a5.85,5.85,0,1,0,5.85,5.85,5.85,5.85,0,0,0-5.85-5.85Zm0-4.12a8,8,0,0,0-7.38,4.93,9.24,9.24,0,0,1,14.76,0A8,8,0,0,0,190.42,113.35Z"/><path class="cls-2" d="M303.86,122.16a11.25,11.25,0,0,1,3.33-8c2.67-2.66,4.54-3.38,8-7,3.41,3.69,3,3.15,6.83,6.08a11.28,11.28,0,0,1,.05,17.87c-4,3.09-3.54,2.58-6.92,6.48-3.62-4.15-4.71-4.26-7.85-7.3a11.26,11.26,0,0,1-3.43-8.1Zm11.29-1.51a2.67,2.67,0,1,0,2.67,2.67,2.67,2.67,0,0,0-2.67-2.67Zm0-4.45a7.12,7.12,0,1,0,7.12,7.12,7.13,7.13,0,0,0-7.12-7.12Zm0,1.27a5.85,5.85,0,1,0,5.85,5.85,5.84,5.84,0,0,0-5.85-5.85Zm0-4.12a8,8,0,0,0-7.38,4.93,9.23,9.23,0,0,1,14.75,0A8,8,0,0,0,315.15,113.35Z"/></svg>