<svg id="Layer_1" data-name="Layer 1" xmlns="http://www.w3.org/2000/svg" viewBox="0 0 136.41 143.53"><defs><style>.cls-1,.cls-2{fill:#363636;}.cls-10,.cls-11,.cls-12,.cls-13,.cls-14,.cls-2,.cls-3,.cls-4,.cls-5,.cls-6,.cls-7,.cls-8,.cls-9{fill-rule:evenodd;}.cls-3{fill:#716f70;}.cls-4{fill:#b6b481;}.cls-5{fill:#e4e4e4;}.cls-6{fill:#d1ae71;}.cls-7{fill:#6d6b4b;}.cls-8{fill:#fdfdfd;}.cls-9{fill:#433d3b;}.cls-10{fill:#928f63;}.cls-11{fill:#fff;}.cls-12{fill:#cb353a;}.cls-13{fill:#503c30;}.cls-14{fill:#f5dcad;}</style></defs><path class="cls-1" d="M110.17,83.06c5-6.81,7.19-13.38,7.2-19.09a17.14,17.14,0,0,0-5.1-12.66A18.91,18.91,0,0,0,99,46.46c-8.28,0-18.4,4-28.92,13.47-9.41,8.43-16.55,13.86-22.21,17.49a67.54,67.54,0,0,1-10.57,5.65C32.91,84.9,29.57,85.62,26,87a35.6,35.6,0,0,0-11.81,7.65,22,22,0,0,0-4.78,6A12.32,12.32,0,0,0,8,106.25a10.43,10.43,0,0,0,1.25,4.94,13.18,13.18,0,0,0,5.06,5.12,13.13,13.13,0,0,0,6.46,1.88,8.56,8.56,0,0,0,2.53-.37,5.89,5.89,0,0,0,3.06-2.2,7,7,0,0,0,1.17-4.1,11.81,11.81,0,0,0-.16-1.91,6.15,6.15,0,0,0-.51-1.67,4,4,0,0,0-1.58-1.75,4.22,4.22,0,0,0-2.18-.56,8.34,8.34,0,0,0-4.1,1.29,17.63,17.63,0,0,0-5.53,5.35,14.23,14.23,0,0,0-2.59,7.79,10.36,10.36,0,0,0,.92,4.31,13.31,13.31,0,0,0,5.37,5.69A33,33,0,0,0,28,133.92c.29.05.57.07,1,.1,1.1.07,2.85.09,4.76.09,3.34,0,7.16-.06,8.43-.06v-2.59c-1.32,0-5.11.07-8.43.07-1.26,0-2.45,0-3.39,0l-1.21-.05c-.31,0-.56-.05-.61-.06-5.93-1.16-9.74-3-12-5a9.38,9.38,0,0,1-2.37-3.1,7.67,7.67,0,0,1-.69-3.23,10.56,10.56,0,0,1,1-4.32,15.83,15.83,0,0,1,4.18-5.42,11.58,11.58,0,0,1,2.45-1.58,5.09,5.09,0,0,1,2-.53,1.8,1.8,0,0,1,.63.1,1.22,1.22,0,0,1,.63.46,3,3,0,0,1,.46,1.26,9.2,9.2,0,0,1,.13,1.49,5.21,5.21,0,0,1-.33,1.94,3.18,3.18,0,0,1-1.41,1.6,5.12,5.12,0,0,1-2.44.55,9.78,9.78,0,0,1-3.42-.69,11.69,11.69,0,0,1-4.74-3.35,8.25,8.25,0,0,1-2-5.32,9.78,9.78,0,0,1,1.19-4.46A19.55,19.55,0,0,1,16,96.54a34.12,34.12,0,0,1,9.9-6.7c2.19-.94,4.37-1.57,6.88-2.38a63.19,63.19,0,0,0,14.39-6.55c6.15-3.71,14-9.5,24.65-19.06C82,52.71,91.57,49,99,49c4.86,0,8.78,1.55,11.5,4.14A14.55,14.55,0,0,1,114.78,64c0,5-2,11.09-6.7,17.58Z"/><path class="cls-2" d="M87.49,108.87l8.14,3C98.52,102.82,115.13,85,110.17,82c-2.66-1.63-8-2.72-6.31,3,1.39,4.64-7.82-3.34-5.42,6.71.32,1.37-8.13-1.67-4.65,4.73-.68,1.38-1.24.47-2.13.73-1.82.53-3.86,2.14-.91,5.31C91.46,103.27,88,107.37,87.49,108.87Z"/><path class="cls-3" d="M93.73,130.31l-52.61-1.82S29.2,104.68,40,104.68c8.24,0,56.65-1.88,56.9,2.62C97.68,120.56,93.73,125.25,93.73,130.31Z"/><path class="cls-4" d="M58.1,110a103.79,103.79,0,0,1,21.72.22c23.76,1.6,25.51,22.23,28.1,33-25.61.15-51.49-.26-77.11-.11C30.81,129.87,38.5,111.51,58.1,110Z"/><path class="cls-5" d="M72.23,113.91,59,111.52c-.5,7.54,4.17,20.91,9.47,20.26,3.57-.43,10-15.27,8.2-20.24Z"/><path class="cls-6" d="M75.15,94l-15.87-.79c-.07.35.84,17.3,1.22,19.35,1.33,5.74,13.35,7.24,14.56-.92Z"/><path class="cls-7" d="M46.32,143l-3.22-.05c.73-4.48,1.4-9.57,2.65-8.5Z"/><path class="cls-7" d="M93.26,143.17l3.21,0c-.72-4.36-1.35-9.75-2.59-8.71Z"/><path class="cls-8" d="M75.86,109.53c-3,1.38-13.23,2.48-15.8.18-2.76,1.32-2.27,7.82,9,8.13C76.81,118.06,78.38,111.83,75.86,109.53Z"/><path class="cls-9" d="M53.64,110.46c1.52-.07,1.6.08,1.33.68-.8,2.13-.52,16.18-.37,19.34.32,6.34,1.76,10.53,1.9,12.34,0,.45-4.46-.07-7.83.2-1.1.09-2.63-25.2-.69-30.94C48.38,110.89,52,110.76,53.64,110.46Z"/><path class="cls-9" d="M84,110.07c-1.52-.07-1.6.07-1.34.7.81,2.19.53,16.62.37,19.87-.32,6.52-1.75,10.82-1.89,12.68,0,.46,4.46-.07,7.83.21,1.1.09,2.62-25.9.69-31.8C89.24,110.51,85.64,110.38,84,110.07Z"/><path class="cls-10" d="M66.63,131.14c-2.54-.23-10.57-17.27-6.74-21.39,1-1-.51-.72-.57-.85-8.76,1.91-10.29,7.68-11.78,14.9-.32,1.58-.69,6.35,1.56,5.86C59.46,127.4,58.54,130.59,66.63,131.14Z"/><path class="cls-10" d="M69.18,131.28c2.55-.05,11-16.72,7.32-21.16-.94-1.12.53-.7.6-.82,8.72,2.55,10.1,8.5,11.4,15.9.28,1.62.52,6.48-1.72,5.82C76.47,128,77.3,131.3,69.18,131.28Z"/><path class="cls-11" d="M37.53,129.64c2.09.5,3.2,3.32,2.49,6.3s-3,5-5.06,4.5-3.2-3.32-2.49-6.3S35.45,129.14,37.53,129.64Z"/><path class="cls-12" d="M37.6,128.79c2.45.58,3.78,3.81,3,7.22s-3.46,5.69-5.91,5.11-3.78-3.82-3-7.23S35.15,128.2,37.6,128.79Zm-.32,1.33c-1.92-.46-4,1.33-4.63,4s.41,5.2,2.33,5.66,4-1.33,4.63-4S39.2,130.58,37.28,130.12Z"/><polygon class="cls-12" points="32.63 138.81 32.1 137.27 39.8 131.51 40.3 133.5 32.63 138.81"/><path class="cls-7" d="M65.14,130.71l4.13.81c1.75-.29,2.44,11.6,1.65,11.6-.23,0-1,0-1.06-.43-.11-2.23-.59-9-.74-9.53s-1.3-1-3.62-2.07C65.34,131,65.27,130.87,65.14,130.71Z"/><path class="cls-7" d="M66.77,135.39a1,1,0,1,0-1.08-1A1,1,0,0,0,66.77,135.39Z"/><path class="cls-7" d="M67.38,141.35a1,1,0,1,0-1.08-1A1,1,0,0,0,67.38,141.35Z"/><path class="cls-13" d="M75.25,17.93c-1.74-4.34-12.18-7-18.81-3-14.73,8.86-20.27,22.86-26.6,33.7-3.73,6.4,3.38,3.38,0,12.34-2.44,6.39,8.17,8.42,9.46,14.75.63,3.09,25.26-4.44,30.23-5,22.45-2.73,7.36,7.12,23.39,6,4.64-.32-.61-3,7.86-5.39,1.47-.41,4.76-5.58,2.06-11.44-.35-.75,1-1.26,1.29-1.91,2.69-5.23-4.62-8.48-5.7-16.43s-6.91-9-11.75-18.31c-.49-.94-3.06-2.84-5.65-3.59S75.77,19.23,75.25,17.93Z"/><path class="cls-14" d="M78.42,27.44C78.42,36,75,35.94,66,35.31c-.57,0-3.51-.54-3.59-1-3.8-1-8.21,2.56-8.65-6.31l-.15-.46C49.31,28.67,39.83,36.2,39.83,43c0,7.35,4.46,1.21-.19,11.1C37.52,58.6,42,84.84,37,71.45c-.29-.78-.71-5.4-1.51-5.59C35,63.47,24.94,84.47,38.82,83.8c2.79-.13-1.11,19.88,23.89,22.48a45.77,45.77,0,0,0,15.17-1.11c15.35-3.87,13.8-20.67,20-24.07,7.07-3.9,3.48-21.5-.59-15-.5.79-.06,2.48-.62,4-4.83,13.52.24-13.86-3.84-19C91,48.88,99.94,33.49,78.42,27.44Z"/></svg>