<svg id="Layer_1" data-name="Layer 1" xmlns="http://www.w3.org/2000/svg" viewBox="0 0 206.54 281.37"><defs><style>.cls-1{fill:#f2c08d;}.cls-2{fill:#f8a72f;}.cls-3{fill:#fbbb40;}.cls-4{fill:#fff;}.cls-5{fill:#29282a;}.cls-6{fill:#b6b7b8;}</style></defs><title>Vector_Beach_1_3</title><path class="cls-1" d="M132.81,96c-1.24,0-2.47,0-3.7.08a91.14,91.14,0,0,0-10.82,1.08V55.92c0-19.18-15-35.38-34.19-35.91A35.19,35.19,0,0,0,47.92,55.18v1.68H23.74A3.75,3.75,0,0,0,20,60.6v2a3.75,3.75,0,0,0,3.74,3.74H47.92V151a63.38,63.38,0,0,0,58.65,63.19v59.39H89a3.91,3.91,0,1,0,0,7.82h36v-67h69.81c4,0,7.9.93,11.73,0v-48C206.54,133.63,173.53,96,132.81,96Zm-15.07,177.6h-3.91v-59.2h3.91Z"/><path class="cls-2" d="M86.57,178.16v75.39H69a3.91,3.91,0,0,0,0,7.82H93.83V178.16Z"/><path class="cls-3" d="M97.74,178.16v75.39H80.14a3.91,3.91,0,1,0,0,7.82H105V178.16Z"/><path class="cls-4" d="M112.81,76a92.09,92.09,0,0,0-14.52,1.16V35.92C98.29,16.74,83.26.54,64.1,0A35.19,35.19,0,0,0,27.92,35.18V131a63.39,63.39,0,0,0,63.39,63.38h95.23v-48C186.54,113.63,153.53,76,112.81,76Z"/><rect class="cls-3" y="36.86" width="32.39" height="9.49" rx="3.74" ry="3.74"/><path class="cls-5" d="M64.23,31.69a7,7,0,1,1-14,0H46.91a10.34,10.34,0,1,0,20.67,0Z"/><path class="cls-6" d="M186.54,146.32c0-32.69-33-70.37-73.73-70.37a90.54,90.54,0,0,0-14.49,1.16c1,65,34.83,117.24,76.49,117.24,4,0,7.9.93,11.73,0Z"/></svg>