<svg id="Layer_1" data-name="Layer 1" xmlns="http://www.w3.org/2000/svg" viewBox="0 0 276.15 163.01"><defs><style>.cls-1{fill:#7cb5db;}.cls-2{fill:#fff200;}.cls-3{fill:#edca05;}.cls-4{fill:#29282a;}.cls-5{fill:#121112;}.cls-6{fill:#dba109;}.cls-7{fill:#fff;}.cls-8{fill:#dbdbdb;}</style></defs><title>Vector_Beach_3_2</title><path class="cls-1" d="M156,103.34a11.14,11.14,0,0,1,2.82,6.19l4.49,24.78a30.2,30.2,0,0,0,.51,3,33.11,33.11,0,0,0,1.25,4.33,31.88,31.88,0,0,0,1.81,4,32.31,32.31,0,0,0,5.09,7.09c.66.7,1.35,1.37,2.08,2s1.47,1.25,2.25,1.83c.39.29.78.57,1.19.84A32.38,32.38,0,0,0,195.64,163h65.59a14.89,14.89,0,0,0,5.79-1.17,16,16,0,0,0,2.54-1.38c.39-.27.78-.56,1.15-.86a15.5,15.5,0,0,0,2-2,14.87,14.87,0,0,0,3.42-9.48V72.24L217.3,25.16c-3.24-2.61-8.75-5.75-14.41-5.07a17.27,17.27,0,0,0-15,15.11,17,17,0,0,0,0,4,4.7,4.7,0,0,0,4.69,4.09h.11a4.79,4.79,0,0,0,4.67-5.41q0-.37,0-.75v-.1a5.11,5.11,0,0,1,8.34-3.75l48.66,38.92H41.76L90.42,33.32a5.11,5.11,0,0,1,8.34,3.75v.1q0,.38,0,.75a4.79,4.79,0,0,0,4.67,5.41h.11a4.7,4.7,0,0,0,4.69-4.09,17.57,17.57,0,0,0,0-4,17.27,17.27,0,0,0-15-15.11c-5.66-.68-11.17,2.46-14.41,5.07L20,72.24v75.85A15,15,0,0,0,34.92,163h65.59a32.6,32.6,0,0,0,32.37-28.7l4.49-24.78A10.91,10.91,0,0,1,148,99.82h.21c.34,0,.68,0,1,.05a8,8,0,0,1,1,.15,10.7,10.7,0,0,1,4.38,2A10.89,10.89,0,0,1,156,103.34Z"/><path class="cls-2" d="M140.72,52.24H0v75.85A15,15,0,0,0,14.92,143H80.51a32.6,32.6,0,0,0,32.37-28.7l4.49-24.78A10.91,10.91,0,0,1,128,79.82h.21a10.91,10.91,0,0,1,10.6,9.71l4.49,24.78A32.6,32.6,0,0,0,175.64,143h65.59a15,15,0,0,0,14.92-14.92V52.24Z"/><path class="cls-3" d="M134.29,52.24h-6.21V79.82h.1a10.91,10.91,0,0,1,10.6,9.71l4.49,24.78A32.6,32.6,0,0,0,175.64,143h65.59a15,15,0,0,0,14.92-14.92V52.24H134.29Z"/><path class="cls-4" d="M75.56,131.82H24.94a11.9,11.9,0,0,1-12.06-11.68V63.43H109l-7.25,45.91C100.13,122.17,88.9,131.82,75.56,131.82Z"/><path class="cls-5" d="M180.59,131.82h50.62a11.9,11.9,0,0,0,12.06-11.68V63.43h-96.1l7.25,45.91C156,122.17,167.25,131.82,180.59,131.82Z"/><path class="cls-3" d="M78.76,17.07v.1q0,.38,0,.75a4.79,4.79,0,0,0,4.67,5.41h.11a4.7,4.7,0,0,0,4.69-4.09,17,17,0,0,0,0-4A17.27,17.27,0,0,0,73.26.09C67.6-.59,62.09,2.55,58.85,5.16L0,52.24H21.76L70.42,13.32A5.11,5.11,0,0,1,78.76,17.07Z"/><path class="cls-6" d="M177.39,17.07v.1q0,.38,0,.75a4.79,4.79,0,0,1-4.67,5.41h-.11A4.7,4.7,0,0,1,168,19.24a17.57,17.57,0,0,1,0-4,17.27,17.27,0,0,1,15-15.11c5.66-.68,11.17,2.46,14.41,5.07l58.85,47.08H234.39L185.73,13.32A5.11,5.11,0,0,0,177.39,17.07Z"/><polygon class="cls-7" points="12.88 109.29 58.73 63.43 42.9 63.43 12.88 93.46 12.88 109.29"/><path class="cls-7" d="M72.74,63.43l-59.5,59.5a11.7,11.7,0,0,0,4.58,6.61L83.93,63.43Z"/><polygon class="cls-8" points="147.62 66.27 153.64 104.39 194.6 63.43 150.46 63.43 147.62 66.27"/><path class="cls-8" d="M243.27,63.43H240l-67.23,67.22a27.07,27.07,0,0,0,7.83,1.17h16.34l46.34-46.34Z"/><polygon class="cls-8" points="243.27 108.36 243.27 100 211.44 131.82 219.81 131.82 243.27 108.36"/></svg>