<svg xmlns="http://www.w3.org/2000/svg" viewBox="0 0 274.97 333.44"><defs><style>.cls-1{isolation:isolate;}.cls-2{fill:#f9efef;}.cls-14,.cls-3{opacity:0.3;}.cls-10,.cls-13,.cls-14,.cls-16,.cls-18,.cls-19,.cls-21,.cls-24,.cls-25,.cls-3,.cls-5,.cls-7{mix-blend-mode:multiply;}.cls-13,.cls-14,.cls-23,.cls-4{fill:#bcadad;}.cls-5{fill:#a09595;}.cls-25,.cls-6{fill:#3a3438;}.cls-16,.cls-7{opacity:0.5;}.cls-15,.cls-8{fill:#fff;}.cls-24,.cls-8{opacity:0.8;}.cls-11,.cls-9{fill:#b4a98b;}.cls-10{opacity:0.7;}.cls-11,.cls-22,.cls-23{mix-blend-mode:screen;}.cls-12{fill:#564626;}.cls-13{opacity:0.6;}.cls-16{fill:#894416;}.cls-17,.cls-21,.cls-22{fill:#f9bbae;}.cls-19{fill:#e08475;}.cls-20{fill:none;}</style></defs><title>goat</title><g class="cls-1"><g id="Layer_1" data-name="Layer 1"><path class="cls-2" d="M69.49,235.18s8.73,5.82,13.38,7.76A21.06,21.06,0,0,0,79,247.8l3.87-.78a6.16,6.16,0,0,0,2.53,3.87c2.13,1.37,7.18,19.61,10.67,27.75s5,11.26.78,14.35c-3.5,3.69-3.88,4.08,2.13,7.57-3.68,6.6-4.66,12.41,2.13,14.93s20.37,6.21,29.49,3.11c7.57-2.32,9.31-7.18,8-12.23S129.82,298,124,296.68c-3.88-1.36-3.1-3.49-10.66-6.4-3.88-1.95-7.18-10.48-9.51-23.08s-1.36-20.77,4.46-25.61c.19,2.91,1,3.87,1,3.87a33.22,33.22,0,0,1,5.63-8.53c3.3-3.3,3.68-22.5-11.64-29.3s-18.24-8-21-.77S69.49,235.18,69.49,235.18Z"/><g class="cls-3"><path class="cls-4" d="M138.55,306.37c-1.36-5-8.73-8.33-14.55-9.69a8.15,8.15,0,0,1-2.35-1.25c-10.29,3-15,16.36-18.73,11.95-4-4.69,3.35-8.38-.34-11.06s2.34-3.69-2-17.08C95.21,264.83,90.85,245.4,87.51,238c-2.24-4.92,2-14.74,2-14.74L92.2,228s.67-6,4-9.72c5.41-6.37,13.26-2.28,19,2.32a22,22,0,0,0-11.91-13c-15.33-6.78-18.24-8-21-.77s-12.8,28.32-12.8,28.32,8.73,5.82,13.38,7.76A21.06,21.06,0,0,0,79,247.8l3.87-.78a6.16,6.16,0,0,0,2.53,3.87c2.13,1.37,7.18,19.61,10.67,27.75s5,11.26.78,14.35c-3.5,3.69-3.88,4.08,2.13,7.57-3.68,6.6-4.66,12.41,2.13,14.93s20.37,6.21,29.49,3.11C138.17,316.28,139.91,311.42,138.55,306.37Z"/></g><path class="cls-5" d="M69.49,235.18s8.73,5.82,13.38,7.76A21.06,21.06,0,0,0,79,247.8l3.87-.78a6.16,6.16,0,0,0,2.53,3.87c2.13,1.37,7.18,19.61,10.67,27.75s5,11.26.78,14.35c-3.5,3.69-3.88,4.08,2.13,7.57-3.68,6.6-4.66,12.41,2.13,14.93s20.37,6.21,29.49,3.11c7.57-2.32,9.31-7.18,8-12.23S129.82,298,124,296.68c-3.88-1.36-3.1-3.49-10.66-6.4-3.88-1.95-7.18-10.48-9.51-23.08s-1.36-20.77,4.46-25.61c.19,2.91,1,3.87,1,3.87a33.22,33.22,0,0,1,5.63-8.53c3.3-3.3,3.68-22.5-11.64-29.3s-18.24-8-21-.77S69.49,235.18,69.49,235.18Z"/><path class="cls-6" d="M138.55,306.37c-1.24-4.6-7.5-7.76-13-9.29-14.45,1.85-15.3,15.41-15,21.22,6.55,1.49,14.21,2.3,20,.3C138.17,316.28,139.91,311.42,138.55,306.37Z"/><path d="M117.1,300.23a9.12,9.12,0,0,1,1-.31,12.86,12.86,0,0,1,2.65-.4,13.74,13.74,0,0,1,1.81,0,12.55,12.55,0,0,1,2,.33,10.26,10.26,0,0,1,2.08.76,10.47,10.47,0,0,1,1.93,1.22,11,11,0,0,1,1.61,1.66c.23.29.43.62.64.92l.51,1c.14.33.29.65.41,1s.21.63.31.94a12.73,12.73,0,0,1,.37,1.77c0,.27.08.53.11.79s0,.48,0,.71c0,.45,0,.84,0,1.16,0,.65-.05,1-.05,1s-.09-.36-.22-1c0-.31-.15-.69-.26-1.12s-.23-.9-.38-1.4c-.08-.26-.16-.52-.27-.79s-.19-.54-.31-.83-.25-.55-.37-.83-.29-.58-.45-.86l-.51-.83c-.21-.26-.4-.54-.6-.79a8.79,8.79,0,0,0-1.44-1.42,7.81,7.81,0,0,0-1.68-1.12,12,12,0,0,0-1.82-.78,16.94,16.94,0,0,0-3.51-.71,23.21,23.21,0,0,0-2.59-.09Z"/><g class="cls-7"><path class="cls-6" d="M120.17,316.75c-9.55-.5-6.7-12.21-6.7-12.21l0-.09c-2.87,4.73-3.06,10.54-2.88,13.85,6.55,1.49,14.21,2.3,20,.3,6.66-2.05,8.81-6.05,8.31-10.41-3.15-.07-6.07-.81-7.85-2.15C132.73,310.9,129.72,317.25,120.17,316.75Z"/></g><path class="cls-2" d="M185.66,209.22s-7,6-6.7,12.06c2.68-2.68,4.7-2.35,4.7-2.35S177.29,223.62,177,230a16,16,0,0,1,5.24-2.54c-2.11,3.84-1.37,13.12,6.31,18a5.57,5.57,0,0,1,.75-3.34s.43,4.52,7.47,8.36c4.69,3,4.36,10.22,5.19,24.46.67,10.06,2.35,23.29,2.35,23.29s-5-1-4.86.66,3.18,3.53.17,6a13.86,13.86,0,0,0-4.86,10.88c.17,4.19,5.53,7,14.41,9.39s23.95,4.19,24.62-1.52c5.7,1.68,9-1,8.71-3.34s-1.34-16.25-22.78-18.42c-4.36-.85-3.52-2.51-2.35-4.36s1-3.69-.83-5.37-1.51-4-.84-10.05,2.18-24.29,3.52-24.95,3-.84,2.51-3.18-3.52-6.54-3.52-6.54,3.35,1.5,4.86-.17c0,0-7-2.51-1.84-10.05s13.57-5,15.24-9.21-3.35-8.88-3.35-8.88a5.19,5.19,0,0,0,3.85-1.85c-3,.18-5.09-2.76-1.34-8.87,5.86-9.55,9.38-14.74,9.55-17.92S247,177.72,244,173.2C244,173.2,207.44,190.13,185.66,209.22Z"/><g class="cls-3"><path class="cls-4" d="M244,173.2s-36.52,16.93-58.3,36c0,0-7,6-6.7,12.06,2.68-2.68,4.7-2.35,4.7-2.35S177.29,223.62,177,230a16,16,0,0,1,5.24-2.54c-2.11,3.84-1.37,13.12,6.31,18a5.57,5.57,0,0,1,.75-3.34s.43,4.52,7.47,8.36c4.69,3,4.36,10.22,5.19,24.46.67,10.06,2.35,23.29,2.35,23.29s-5-1-4.86.66,3.18,3.53.17,6a13.86,13.86,0,0,0-4.86,10.88c.17,4.19,5.53,7,14.41,9.39s23.95,4.19,24.62-1.52c5.7,1.68,9-1,8.71-3.34-.31-2.16-1.2-14.19-18.24-17.74-15.16.66-17.5,12.69-20.35,8.69-3.15-4.4.31-9.75,4.41-11s.31-3.46-1.89-21.09,3.46-29.27-3.15-35.88c-7.55-7.56-3.78-17.31-3.78-17.31s-4.09,2.2-5,5.67C190,223.74,196,216.18,203.86,214s10.39-7.56,10.39-7.56.94,2.19,7.24,2.19c-6-8.8,9.12-20.44,15.42-17.3,5.05,2.52,3.42,8.48,2.58,10.75,3.49-5.68,5.51-9.22,5.64-11.61C245.3,187.27,247,177.72,244,173.2Z"/></g><path class="cls-5" d="M185.66,209.22s-7,6-6.7,12.06c2.68-2.68,4.7-2.35,4.7-2.35S177.29,223.62,177,230a16,16,0,0,1,5.24-2.54c-2.11,3.84-1.37,13.12,6.31,18a5.57,5.57,0,0,1,.75-3.34s.43,4.52,7.47,8.36c4.69,3,4.36,10.22,5.19,24.46.67,10.06,2.35,23.29,2.35,23.29s-5-1-4.86.66,3.18,3.53.17,6a13.86,13.86,0,0,0-4.86,10.88c.17,4.19,5.53,7,14.41,9.39s23.95,4.19,24.62-1.52c5.7,1.68,9-1,8.71-3.34s-1.34-16.25-22.78-18.42c-4.36-.85-3.52-2.51-2.35-4.36s1-3.69-.83-5.37-1.51-4-.84-10.05,2.18-24.29,3.52-24.95,3-.84,2.51-3.18-3.52-6.54-3.52-6.54,3.35,1.5,4.86-.17c0,0-7-2.51-1.84-10.05s13.57-5,15.24-9.21-3.35-8.88-3.35-8.88a5.19,5.19,0,0,0,3.85-1.85c-3,.18-5.09-2.76-1.34-8.87,5.86-9.55,9.38-14.74,9.55-17.92S247,177.72,244,173.2C244,173.2,207.44,190.13,185.66,209.22Z"/><path class="cls-2" d="M45.57,49.17s-5,5-8.26,4-6.15-5-6.54-6.91c-1.92,3.07-2.3,6-.57,7.87-9-1.33-13.65.59-15,5.77,4.23-.19,5.38.58,5.38.58S5,65.89,3.68,70.7s2.5,15.18,2.5,15.18A4.29,4.29,0,0,1,10,82.22c-3.27,5.19-4.23,13.27-1.35,18.46C18.86,85.68,45.19,52.05,45.57,49.17Z"/><g class="cls-3"><path class="cls-4" d="M37.31,53.2c-3.27-1-6.15-5-6.54-6.91a16.3,16.3,0,0,0-.88,1.62,11.48,11.48,0,0,0,2.63,5.49c4.76,5.8,4.76,5.18-.41,8.28s-12,11-13.46,13.25,4.56-2.69,6-3.32-6.41,7-10.14,12.84-3.31-.84-.41-5.38S4.78,85.9,3.54,73.69c0-.4-.08-.77-.13-1.14-.24,5.2,2.77,13.33,2.77,13.33A4.29,4.29,0,0,1,10,82.22c-3.27,5.19-4.23,13.27-1.35,18.46,10.19-15,36.52-48.63,36.9-51.51C45.57,49.17,40.57,54.16,37.31,53.2Z"/></g><path class="cls-6" d="M217.81,306.51c-9.85,3.19-9.26,14.62-8.73,18.62h0c8.88,2.34,23.95,4.19,24.62-1.52,5.7,1.68,9-1,8.71-3.34-.26-1.82-.93-10.51-11.09-15.39C227.77,304.26,223.48,304.69,217.81,306.51Z"/><path d="M217.81,306.51h.29a6.87,6.87,0,0,1,.82,0,11.25,11.25,0,0,1,1.28.11,10.58,10.58,0,0,1,1.63.32,15.12,15.12,0,0,1,1.89.6c.33.13.65.29,1,.44a7,7,0,0,1,1,.53l1,.62c.32.23.64.49,1,.75a14.32,14.32,0,0,1,1.79,1.7c.54.63,1,1.31,1.49,2s.79,1.42,1.13,2.1.53,1.41.78,2.07.32,1.33.46,1.92c.06.3.12.59.18.85s.05.54.08.79c0,.48.07.91.1,1.27,0,.7.05,1.09.05,1.09l-.32-1.05c-.09-.34-.21-.74-.34-1.21-.06-.23-.11-.48-.2-.74s-.2-.51-.3-.8c-.21-.54-.4-1.16-.66-1.78s-.6-1.23-.89-1.89-.78-1.25-1.15-1.91-.91-1.21-1.41-1.8a15.18,15.18,0,0,0-1.62-1.59l-.85-.74-.9-.61a8.06,8.06,0,0,0-.9-.58c-.3-.17-.59-.35-.89-.5a18,18,0,0,0-1.72-.77c-.54-.23-1.05-.4-1.5-.56l-1.21-.35-.78-.17Z"/><path class="cls-2" d="M143.45,20.26s-18.76-3.57-35.28-6.69-20.55-1.33-32.61,6.69S47,45.73,23.29,78.34C7.22,100.68-.83,109.17.07,124.8s14.29,42,24.12,54l-1.79,4,4.46-.79s.85,7,2,7.8,1.18-3.22,1.18-3.22,3.22,7.29,5.09,12.2S35,204,25.33,216.32c-8.47,10.36-11.19,12.72-5.25,10.86a36,36,0,0,0-6.95,11.7l4.06-1.19s-2.88,5.93-2,8.82c.17,1.52,4.07-1,4.07-1s-5.76,12.65,6.07,39.45c3.8,9.82,2.69,12.5-.22,15.41s-2,4.24,2.68,8.47a13.19,13.19,0,0,0-2.23,14.53c1.34,2.45,15.41,7.14,27,8,10.28.89,12.51-.67,12.73-2.91,5.59.45,7.15-.89,7.15-3.12s-3.57-14.51-16.08-19C48.09,303,43.84,299,45.85,297s2.24-2.91-.89-4-4.24-2.91-6-10.05-4.92-24.35,6.7-32.39c11.17-7.15,26.13-11.17,27-16.08A4.12,4.12,0,0,1,74,237.8s6.28-5.35,6.56-13L83,228.63s3.84-7.15.82-12.09c3.56,1.1,3.84,2.21,3.84,2.21s1.37-8-1.92-13.45c14.27,4.38,22.23,6.31,23.88,11.52,1.09,3.29-5,7.13-4.4,11.81a34.1,34.1,0,0,0,7.69-3s-3.84,5.22-2.2,10.42c1.92-3,3.29-3.28,3.29-3.28s-1.92,7.4,2.2,8.23,14.82,7.13,15.64,12.89,2.47,22,3.57,31.56,2.19,11,0,13.45-5.49,4.12-3,8.51c2.47,3.84.55,4.11-.82,7.14s-2.2,10.15-.55,12.34,12.35,6.58,25.79,6.58c12.08-.27,16.19-1.63,15.37-4.11,5.22-.55,7.69-3.29,4.67-8.5A26,26,0,0,0,161.22,309c-3.84-1.37-3-3.29-2.46-5.49s-.83-3.28-2.48-4.93-2.74-5.49-5.21-17.57-8.51-35.13-1.92-42.54c7.13-6.31,8.51-5.75,6.59-9.59s-2.75-5.22-2.75-5.22a8.35,8.35,0,0,0,3.84,1.65c-2.46-3.3-3-8.23,1.65-11.53,6.31,1.1,27.07,1.89,34.3-8.46-.25,3.63-1.54,5.18-1.54,5.18s18.1-5.44,22.5-11.13a8.7,8.7,0,0,0,3.1,3.63,8.62,8.62,0,0,1,5.44-9.05c6.46-2.86,12.93-5.44,13.45-16.05,2.33,2.86,1.54,4.66,1.54,4.66a15.47,15.47,0,0,1,6.22-7.24c4.65-2.85,5.94-4.92,5.94-8,3.11-1.29,12.94-12.92,13.46-22.75,1.55,4.14,1.29,5.95,1.29,5.95s5.69-8.54,4.13-15.26c2.85,4.13,3.11,5.68,3.11,5.68s2.59-11.11-.51-16.55c2.84-4.14,4.13-13.19,2.32-15.51,2.85.51,2.85-13.71-4.92-26.39-7.49-15.53-12.93-26.12-29.22-45S213.48,6.69,197.44,2,159.57,5.67,143.45,20.26Z"/><path class="cls-2" d="M237.29,182.55l0,0Z"/><path class="cls-8" d="M197.44,4.64c-16-4.65-37.87,3.64-54,18.25,0,0-18.76-3.59-35.28-6.71s-20.55-1.34-32.61,6.71C63.81,30.72,47.82,47.45,25.12,78.45c2-2.13,34-35.87,48.88-40.71,15.41-5,17.22,9.53,34,30.39S142.88,62,163.08,41.7c19.82-19.9,52.08-32.5,91,17.64a209,209,0,0,0-15-19.26C222.79,21.2,213.48,9.3,197.44,4.64Z"/><g class="cls-3"><path class="cls-4" d="M237.29,182.55l0,0Z"/><path class="cls-4" d="M273.23,108.87c2.85.51,2.85-13.71-4.92-26.39-2.74-5.7-5.22-10.74-8.06-15.76C258.88,76.67,246,89,234.72,90.14c17.29,12,28.23,1.06,31.4,11.64S265.77,123,261.54,123c4.94,9.88,2.82,14.46,2.82,14.46s-.71-3.16-4.59-7.39c2.12,20.1-9.88,29.63-9.88,29.63s-.35-4.94-2.11-5.64c-.36,10.58-10.95,17.63-10.95,17.63s-.34-1.76-2.82-5.63c-1.76,14.81-36.7,30.34-36.7,30.34s3.53-4.59,1.42-7.42c-14.82,15.89-28.94,12-30.7,2.83s-9.89-13-9.89-13c5.3,13,3.53,15.88-4.23,28.22C136.27,235.52,119,221.4,102,195.29s6-45.87,6-45.87-2.47-1.41-7.06,1.76c2.82-6,12.35-14.81,12.35-14.81a73.6,73.6,0,0,0-26.46,19.4c-12.35,14.11-21.18,31.76-42.7-1.76-24-42.35,10.59-61,10.59-61s-2.83-2.12-7.77-.35c3.18-4.23,10.59-6,10.59-6C46.29,85.19,37.81,93,37.81,93L41.35,94c-8.47,2.12-16.59,17.29-16.59,17.29l3.88-1.06c-3.17,3.54-5.29,13.07-5.29,13.07l3.88-2.47s-7.76,7.76,3.88,32.46-4.58,22.93-20.11-12c-8.73-19.64-4.41-36.49,1.05-47.49-8.52,12-12.63,19.57-12,31,.89,15.63,14.29,42,24.12,54l-1.79,4,4.46-.79s.85,7,2,7.8,1.18-3.22,1.18-3.22,3.22,7.29,5.09,12.2S35,204,25.33,216.32c-8.47,10.36-11.19,12.72-5.25,10.86a36,36,0,0,0-6.95,11.7l4.06-1.19s-2.88,5.93-2,8.82c.17,1.52,4.07-1,4.07-1s-5.76,12.65,6.07,39.45c3.8,9.82,2.69,12.5-.22,15.41s-2,4.24,2.68,8.47a13.19,13.19,0,0,0-2.23,14.53c1.34,2.45,15.41,7.14,27,8,10.28.89,12.51-.67,12.73-2.91,5.59.45,7.15-.89,7.15-3.12s-3.57-14.51-16.08-19C48.09,303,43.84,299,45.85,297s2.24-2.91-.89-4-4.24-2.91-6-10.05-4.92-24.35,6.7-32.39c11.17-7.15,26.13-11.17,27-16.08A4.12,4.12,0,0,1,74,237.8s6.28-5.35,6.56-13L83,228.63s3.84-7.15.82-12.09c3.56,1.1,3.84,2.21,3.84,2.21s1.37-8-1.92-13.45c14.27,4.38,22.23,6.31,23.88,11.52,1.09,3.29-5,7.13-4.4,11.81a34.1,34.1,0,0,0,7.69-3s-3.84,5.22-2.2,10.42c1.92-3,3.29-3.28,3.29-3.28s-1.92,7.4,2.2,8.23,14.82,7.13,15.64,12.89,2.47,22,3.57,31.56,2.19,11,0,13.45-5.49,4.12-3,8.51c2.47,3.84.55,4.11-.82,7.14s-2.2,10.15-.55,12.34,12.35,6.58,25.79,6.58c12.08-.27,16.19-1.63,15.37-4.11,5.22-.55,7.69-3.29,4.67-8.5A26,26,0,0,0,161.22,309c-3.84-1.37-3-3.29-2.46-5.49s-.83-3.28-2.48-4.93-2.74-5.49-5.21-17.57-8.51-35.13-1.92-42.54c7.13-6.31,8.51-5.75,6.59-9.59s-2.75-5.22-2.75-5.22a8.35,8.35,0,0,0,3.84,1.65c-2.46-3.3-3-8.23,1.65-11.53,6.31,1.1,27.07,1.89,34.3-8.46-.25,3.63-1.54,5.18-1.54,5.18s18.1-5.44,22.5-11.13a8.7,8.7,0,0,0,3.1,3.63,8.62,8.62,0,0,1,5.44-9.05c6.46-2.86,12.93-5.44,13.45-16.05,2.16,2.64,1.64,4.39,1.56,4.63a15.4,15.4,0,0,1,6.2-7.21c4.65-2.85,5.94-4.92,5.94-8,3.11-1.29,12.94-12.92,13.46-22.75,1.55,4.14,1.29,5.95,1.29,5.95s5.69-8.54,4.13-15.26c2.85,4.13,3.11,5.68,3.11,5.68s2.59-11.11-.51-16.55C273.75,120.24,275,111.19,273.23,108.87Z"/></g><path class="cls-9" d="M178.52,50.42s4-28.59,39.53-48.24c14.52-5.14,41.54-4,55.17,35.51,5.58,26.35-1.79,62.54-34.4,53.15,10.73-1.1,31.05-19.87,19.43-43.78C247.31,25,220.06,28.75,209.12,44.4a54.37,54.37,0,0,0-5.7,15.24Z"/><g class="cls-10"><path class="cls-9" d="M261.16,78.34C273,61.82,266.07,38.69,252,28c-16.15-12.3-36.07-7.37-47.91,9.71-9.88,14.26-22,11.4-18-.22,6-17.21,26.36-31.95,26.36-31.95h0c-30.36,19.39-33.95,44.91-33.95,44.91l24.9,9.22a54.37,54.37,0,0,1,5.7-15.24c10.94-15.65,38.19-19.45,49.13,2.66,11.62,23.91-8.7,42.68-19.43,43.78.74.22,1.45.4,2.17.56C251,89.92,255,85.06,261.16,78.34Z"/></g><path class="cls-11" d="M204.28,18.59S237.89-13,261.34,23.88c9,15.74,3.52-11.33-15.18-19C217.68-6.86,196.23,22.72,204.28,18.59Z"/><g class="cls-7"><path class="cls-12" d="M181,41.73a7.64,7.64,0,0,1,1.16-.31c.37-.08.83-.16,1.36-.23.27,0,.55-.08.85-.1s.61,0,.94-.06c.67,0,1.38,0,2.14,0a20.25,20.25,0,0,1,2.36.26l1.25.21c.41.12.82.22,1.24.33.86.2,1.67.55,2.5.83s1.61.75,2.4,1.11,1.47.9,2.18,1.33,1.29,1,1.89,1.43,1.08,1,1.58,1.44a9.89,9.89,0,0,1,1.25,1.27l.9,1,.76.93-.86-.84-1-1c-.37-.39-.85-.75-1.34-1.18s-1-.9-1.62-1.32L199,45.59l-2.15-1.24c-.78-.35-1.54-.76-2.35-1.06s-1.59-.64-2.42-.84l-1.21-.33-1.21-.25-.59-.13a5.73,5.73,0,0,1-.58-.07l-1.13-.15a19.29,19.29,0,0,0-2.09-.1c-.65,0-1.25,0-1.77,0s-1,.07-1.37.11C181.38,41.63,181,41.73,181,41.73Z"/><path class="cls-12" d="M188.37,28.38s.46-.06,1.26-.1,1.93-.06,3.3,0a38.3,38.3,0,0,1,4.64.55c.84.18,1.71.36,2.57.62s1.74.56,2.6.89c.42.17.84.37,1.25.56s.83.4,1.22.62A18.24,18.24,0,0,1,207.45,33a11.24,11.24,0,0,1,1,.81c.31.27.6.54.88.83a8.79,8.79,0,0,1,.77.86,5.67,5.67,0,0,1,.67.83,13.36,13.36,0,0,1,1,1.58c.27.49.48.93.64,1.29l.45,1.16s-.21-.4-.56-1.1c-.2-.35-.44-.76-.73-1.22s-.68-1-1.11-1.48a8.26,8.26,0,0,0-.7-.77A6.55,6.55,0,0,0,209,35a9.68,9.68,0,0,0-.9-.78l-.47-.38-.51-.36a19.29,19.29,0,0,0-2.2-1.35c-.38-.22-.79-.4-1.18-.6L202.48,31c-.83-.33-1.67-.63-2.52-.88s-1.69-.49-2.51-.66-1.62-.34-2.39-.47-1.49-.22-2.17-.3A43,43,0,0,0,188.37,28.38Z"/><path class="cls-12" d="M190.17,25.9a10.39,10.39,0,0,1,1.26-.14,24.48,24.48,0,0,1,3.37-.07c.69,0,1.45.1,2.24.18s1.64.2,2.49.39,1.74.4,2.62.67a25.84,25.84,0,0,1,2.61,1c.86.38,1.69.81,2.49,1.26a22.68,22.68,0,0,1,2.24,1.54,19.31,19.31,0,0,1,1.89,1.68l.8.84c.24.29.48.58.7.83A18.25,18.25,0,0,1,214,35.62c.3.49.57.89.76,1.26l.59,1.12s-.26-.38-.7-1.06c-.22-.33-.52-.72-.85-1.17s-.75-.94-1.2-1.45l-.73-.78c-.27-.25-.55-.53-.83-.8-.59-.52-1.23-1.05-1.91-1.55-.34-.26-.71-.5-1.07-.74s-.75-.46-1.13-.71c-.79-.43-1.6-.86-2.44-1.22s-1.69-.68-2.54-1-1.71-.52-2.54-.72a37.57,37.57,0,0,0-4.64-.77,30.2,30.2,0,0,0-3.33-.17C190.63,25.87,190.17,25.9,190.17,25.9Z"/><path class="cls-12" d="M201.26,14s.49,0,1.32.13a23.73,23.73,0,0,1,3.42.78,24.23,24.23,0,0,1,4.57,2,22.23,22.23,0,0,1,2.36,1.55c.39.27.76.59,1.14.89s.73.65,1.08,1,.68.7,1,1.08l.48.54.44.59a21.64,21.64,0,0,1,1.55,2.35,19.52,19.52,0,0,1,1.14,2.36c.34.76.56,1.53.79,2.21s.38,1.35.47,1.94.22,1.07.27,1.49c.1.85.16,1.32.16,1.32s-.11-.47-.29-1.29c-.08-.42-.23-.9-.38-1.46s-.38-1.19-.59-1.87a22.47,22.47,0,0,0-.88-2.13c-.18-.38-.34-.76-.56-1.14s-.39-.77-.64-1.14a20.18,20.18,0,0,0-1.54-2.27l-.43-.54-.47-.54c-.31-.35-.65-.68-1-1s-.69-.64-1-1-.72-.62-1.1-.89a21.61,21.61,0,0,0-2.27-1.54,26.64,26.64,0,0,0-4.4-2.1,29.76,29.76,0,0,0-3.32-1C201.74,14.06,201.26,14,201.26,14Z"/><path class="cls-12" d="M221,1.31a12,12,0,0,1,1.45.6,23.36,23.36,0,0,1,3.56,2.15,26.34,26.34,0,0,1,2.15,1.77,23.05,23.05,0,0,1,2.17,2.23,26.08,26.08,0,0,1,2,2.67,28.32,28.32,0,0,1,1.7,3c.25.51.45,1.06.69,1.57l.58,1.62c.16.55.34,1.08.48,1.62s.27,1.07.38,1.6.2,1,.29,1.56.12,1,.18,1.5.07,1,.11,1.44.06.92.06,1.35c0,.86,0,1.65,0,2.33s-.06,1.31-.12,1.81c-.11,1-.17,1.56-.17,1.56s0-.57,0-1.57c0-.49,0-1.11,0-1.8s-.05-1.47-.1-2.32c0-.43-.06-.86-.11-1.32s-.08-.93-.17-1.42-.15-1-.23-1.48-.21-1-.31-1.52-.27-1-.4-1.56-.33-1.05-.49-1.58-.39-1-.59-1.57-.45-1-.7-1.54a25.25,25.25,0,0,0-1.61-2.94,28.2,28.2,0,0,0-1.91-2.63c-.68-.82-1.38-1.58-2.06-2.27s-1.39-1.29-2.05-1.81A25.55,25.55,0,0,0,222.43,2C221.57,1.54,221,1.31,221,1.31Z"/><path class="cls-12" d="M227.58.28a14,14,0,0,1,1.28.84A26,26,0,0,1,232,3.77a28.77,28.77,0,0,1,3.68,4.46,30,30,0,0,1,1.66,2.83c.25.5.48,1,.72,1.52s.44,1.05.62,1.59.37,1.06.51,1.62.29,1.09.4,1.64a27.1,27.1,0,0,1,.5,3.22,22.86,22.86,0,0,1,.08,3.07c0,1-.11,1.88-.18,2.73s-.22,1.6-.38,2.26-.26,1.26-.41,1.74l-.42,1.47s.11-.54.29-1.5c.12-.48.19-1.08.29-1.75s.15-1.44.25-2.27.11-1.73.08-2.69c0-.48,0-1-.06-1.47s0-1-.12-1.52a25.42,25.42,0,0,0-.53-3.16c-.11-.54-.25-1.07-.41-1.6s-.34-1-.52-1.57-.39-1-.59-1.55-.44-1-.69-1.49a26,26,0,0,0-1.57-2.8c-.57-.86-1.14-1.71-1.73-2.45S232.26,4.65,231.69,4a33.6,33.6,0,0,0-2.9-2.81C228,.59,227.58.28,227.58.28Z"/><path class="cls-12" d="M251.83,6.54a9.33,9.33,0,0,1,.71,1.15c.21.39.45.85.7,1.39A18.53,18.53,0,0,1,254,11c.27.69.46,1.48.7,2.3.11.41.18.84.28,1.29a9.75,9.75,0,0,1,.22,1.35c.05.46.1.93.16,1.42s0,1,0,1.44a22.69,22.69,0,0,1-.11,3,10.9,10.9,0,0,1-.21,1.49c-.09.49-.18,1-.28,1.45-.22,1-.53,1.88-.78,2.77s-.7,1.69-1,2.48a8.31,8.31,0,0,1-.55,1.12c-.2.34-.39.69-.57,1a12.55,12.55,0,0,1-1.06,1.72c-.35.49-.66.92-.92,1.26-.51.71-.8,1.09-.8,1.09l.7-1.16.81-1.32a17.57,17.57,0,0,0,.94-1.76c.16-.33.34-.67.51-1a7.6,7.6,0,0,0,.5-1.12c.29-.79.62-1.61.92-2.47s.52-1.78.73-2.71c.08-.47.16-.94.24-1.43a11.34,11.34,0,0,0,.19-1.44,23.42,23.42,0,0,0,.15-2.89c0-.49,0-1,0-1.42s-.08-.93-.13-1.39-.12-.89-.18-1.34-.12-.86-.21-1.26c-.2-.81-.35-1.6-.59-2.29s-.43-1.35-.63-1.91-.41-1-.58-1.43S252.1,7,252,6.84,251.83,6.54,251.83,6.54Z"/><path class="cls-12" d="M267.41,24.41a9.22,9.22,0,0,1,0,1,23.31,23.31,0,0,1-.15,2.72c-.06.56-.13,1.16-.26,1.79a19.21,19.21,0,0,1-.41,2c-.15.69-.39,1.39-.61,2.09s-.5,1.42-.83,2.11a20,20,0,0,1-1,2l-.56.94c-.2.32-.42.6-.63.89l-.62.85c-.22.26-.44.5-.67.74a12,12,0,0,1-1.28,1.29c-.43.38-.82.71-1.18,1l-1,.66-.87.55s.29-.23.79-.66l.91-.73,1.07-1.08a11.51,11.51,0,0,0,1.18-1.35c.2-.24.41-.48.61-.76s.38-.54.57-.84.4-.56.58-.88.35-.61.52-.93a20,20,0,0,0,1-2c.31-.66.55-1.38.82-2s.48-1.36.65-2,.38-1.32.51-1.93.26-1.22.36-1.77c.19-1.1.33-2,.39-2.66S267.41,24.41,267.41,24.41Z"/><path class="cls-12" d="M274.22,42.49a5.74,5.74,0,0,1-.48.55,16,16,0,0,1-1.41,1.26c-.31.26-.66.5-1,.76s-.78.51-1.22.74a14.24,14.24,0,0,1-1.35.71c-.46.23-1,.41-1.44.61s-1,.33-1.5.5-1,.25-1.47.38-1,.17-1.4.24a10.13,10.13,0,0,1-1.27.13c-.39,0-.75.07-1.07.07h-.83c-.45,0-.72,0-.72,0l.72-.11.81-.12c.31,0,.66-.13,1-.18s.8-.13,1.22-.25l1.36-.33L265.6,47c.48-.17,1-.32,1.45-.52s1-.36,1.41-.57.92-.4,1.35-.63c.86-.43,1.64-.89,2.3-1.29A18.84,18.84,0,0,0,274.22,42.49Z"/><path class="cls-12" d="M260,51.31s.24,0,.66.07,1,.06,1.75.06l1.16,0c.41,0,.84-.06,1.28-.07s.91-.1,1.37-.19a11.36,11.36,0,0,0,1.39-.27l.7-.16.67-.2a12.24,12.24,0,0,0,1.29-.46,11.62,11.62,0,0,0,1.18-.5c.18-.1.37-.17.54-.26s.33-.18.49-.27.6-.33.85-.49l.63-.43.56-.37-.48.47-.56.53a9.79,9.79,0,0,1-.8.6l-.46.35-.54.3a10.88,10.88,0,0,1-1.18.62c-.42.18-.86.38-1.33.53l-.69.21-.72.19c-.48.11-1,.19-1.45.26s-1,.08-1.42.11a11.62,11.62,0,0,1-1.32,0,10.5,10.5,0,0,1-1.18-.09,15.77,15.77,0,0,1-1.75-.31A4.35,4.35,0,0,1,260,51.31Z"/><path class="cls-12" d="M261.83,59.7s.8,0,2,0h2.05c.75,0,1.55,0,2.35,0s1.59-.07,2.34-.13l1.06-.1,1-.14.8-.14c.25-.05.45-.12.61-.15.35-.1.55-.14.55-.14l-.5.26a7.94,7.94,0,0,1-1.37.54l-1,.26c-.35.07-.7.14-1.09.2s-.77.12-1.17.14l-1.21.08c-.81,0-1.63,0-2.39-.06a18.74,18.74,0,0,1-2.06-.23c-.6-.09-1.1-.2-1.45-.27Z"/><path class="cls-12" d="M260.71,69.63l.53.12c.33.09.81.17,1.39.29s1.24.23,2,.33c.35.07.73.1,1.1.15s.77.08,1.15.1.77.06,1.15.06.75,0,1.11,0,.71,0,1-.06.65,0,.93-.1l.79-.1.6-.13.54-.1-.5.23-.58.25-.77.24a6.36,6.36,0,0,1-.95.2,6.92,6.92,0,0,1-1.06.16c-.38,0-.76,0-1.15.06s-.8,0-1.2,0a15.48,15.48,0,0,1-2.31-.33,14.15,14.15,0,0,1-2-.54A12.65,12.65,0,0,1,260.71,69.63Z"/><path class="cls-12" d="M256.35,79a3.48,3.48,0,0,1,.51-.13,10.51,10.51,0,0,1,1.38-.17,9.9,9.9,0,0,1,2,.13c.36.07.73.13,1.1.24l.55.18.54.21a9.21,9.21,0,0,1,1.05.5c.34.18.63.42.94.62s.55.46.81.66a8.09,8.09,0,0,1,.65.67,7.57,7.57,0,0,1,.5.62l.33.5.28.43-.38-.36-.42-.41c-.16-.16-.38-.32-.58-.5a15,15,0,0,0-1.52-1.12,10.63,10.63,0,0,0-.93-.53,7.28,7.28,0,0,0-1-.46l-.51-.22-.52-.17c-.34-.11-.68-.19-1-.29-.68-.14-1.31-.25-1.87-.31a13.46,13.46,0,0,0-1.36-.09C256.54,79,256.35,79,256.35,79Z"/><path class="cls-12" d="M252.33,83.47a10.26,10.26,0,0,1,1.47.47c.42.18.91.41,1.42.68a15,15,0,0,1,1.53,1,12.3,12.3,0,0,1,1.38,1.19,8,8,0,0,1,1,1.24c.13.18.23.37.33.54a3.31,3.31,0,0,1,.2.45c.1.24.15.38.15.38l-.26-.33c-.09-.1-.18-.23-.3-.35l-.42-.46-.51-.51c-.18-.17-.4-.34-.6-.53s-.44-.35-.66-.54-.47-.36-.71-.55c-1-.7-2-1.34-2.73-1.83Z"/><path class="cls-12" d="M250.33,85.26a7.58,7.58,0,0,1,1.26.48,9.39,9.39,0,0,1,1.22.66,10.66,10.66,0,0,1,1.31.91,11.12,11.12,0,0,1,1.15,1.12,7.41,7.41,0,0,1,.81,1.15,4.66,4.66,0,0,1,.25.5,1.93,1.93,0,0,1,.14.4l.11.36-.22-.3c-.08-.09-.14-.21-.26-.33s-.21-.26-.33-.42l-.43-.45-.5-.51c-.36-.33-.74-.67-1.15-1s-.82-.66-1.21-1-.77-.57-1.09-.81Z"/></g><path class="cls-11" d="M202.55,20.91c.42.49,0,1.55-.92,2.37s-2,1.09-2.45.61,0-1.55.91-2.36S202.12,20.44,202.55,20.91Z"/><path class="cls-9" d="M166.91,52s.22-40.65-27.25-43.1C115.31,8,96.55,35,109.5,59.8c9.17,12.06,17.42,18.54,16.53,24.79s-8.93,8.27-15.19,6.71c-1.78-.23,5.81,6.25,17.43,2.67s11.16-21.21,7.81-29-8.71-25.24-2-28.15C137.64,35.46,145,47.74,145.46,56A170.49,170.49,0,0,1,166.91,52Z"/><g class="cls-10"><path class="cls-9" d="M149,11.59c5.92,7.73,18.12,26.13,9.21,32.46-8.88,4.35-7-6.36-17.85-14.62-8.17-6.25-29.41,1.85-16.48,31.21,9.75,18.16,7.88,36-11.4,32.31,2.79,1.55,8.5,3.27,15.81,1,11.61-3.57,11.16-21.21,7.81-29s-8.71-25.24-2-28.15C137.64,35.46,145,47.74,145.46,56a170.49,170.49,0,0,1,21.45-4S167.07,21.17,149,11.59Z"/></g><path class="cls-11" d="M139.64,12.65S110,12,109.5,47.17c.23,6-7.13-11.05,5.52-26.69S145.62,10.82,139.64,12.65Z"/><g class="cls-7"><path class="cls-12" d="M143.44,48.23a7.08,7.08,0,0,1,.34-1.08,10.23,10.23,0,0,1,.54-1.17c.12-.22.23-.46.38-.71l.5-.73c.16-.26.39-.5.59-.76a6.15,6.15,0,0,1,.69-.77l.78-.78c.28-.23.59-.46.9-.7.15-.11.31-.24.47-.34s.34-.22.51-.32c.35-.2.69-.42,1.05-.6l1.14-.5.56-.25.6-.18a15.81,15.81,0,0,1,2.4-.58,13.88,13.88,0,0,1,2.36-.27,20.88,20.88,0,0,1,2.22,0l2,.15a10.59,10.59,0,0,1,1.66.25l1.26.24,1.1.23-1.12-.1-1.27-.13a16.1,16.1,0,0,0-1.66-.1l-1.95-.06c-.69,0-1.42.12-2.17.15a17.11,17.11,0,0,0-2.3.31,15.53,15.53,0,0,0-2.3.59c-.19.06-.39.1-.58.17l-.54.23-1.1.46-1,.56-.51.29c-.16.1-.3.21-.45.31l-.9.65-.79.7a6,6,0,0,0-.71.72c-.21.24-.44.46-.61.7a14.63,14.63,0,0,0-1,1.33c-.28.41-.46.79-.64,1.11a7.88,7.88,0,0,0-.34.74A2.65,2.65,0,0,0,143.44,48.23Z"/><path class="cls-12" d="M141.66,44a10.05,10.05,0,0,1,.27-1.21,20.93,20.93,0,0,1,1.11-3,19,19,0,0,1,1-1.93,16.09,16.09,0,0,1,1.37-2,15.14,15.14,0,0,1,1.77-1.92,15.65,15.65,0,0,1,2.12-1.68A16.25,16.25,0,0,1,151.73,31,9.84,9.84,0,0,1,153,30.5c.42-.14.84-.21,1.26-.31a13.08,13.08,0,0,1,2.42-.32,8.62,8.62,0,0,1,1.13,0c.36,0,.72,0,1.05,0,.68.06,1.29.1,1.82.2s1,.18,1.39.28c.76.18,1.19.3,1.19.3s-.44-.08-1.21-.18c-.38-.07-.86-.1-1.39-.14s-1.15-.06-1.81-.08c-.33,0-.68,0-1,0a6.89,6.89,0,0,0-1.1.09,17,17,0,0,0-2.33.4,14.64,14.64,0,0,0-2.4.79,16.13,16.13,0,0,0-2.29,1.2,19.33,19.33,0,0,0-6.31,7.16,27.07,27.07,0,0,0-1.32,2.92C141.78,43.57,141.66,44,141.66,44Z"/><path class="cls-12" d="M140.54,42a12.25,12.25,0,0,1,.31-1.22A21.51,21.51,0,0,1,142,37.69c.29-.63.65-1.29,1.05-2a20.5,20.5,0,0,1,1.42-2,16.67,16.67,0,0,1,1.84-1.93,15.14,15.14,0,0,1,2.21-1.68,15.43,15.43,0,0,1,2.5-1.19l.65-.23.65-.17a12.07,12.07,0,0,1,1.3-.28,14.35,14.35,0,0,1,2.49-.17h.59l.57.05c.37,0,.73,0,1.07.11a16,16,0,0,1,1.84.34c.54.15,1,.25,1.39.39l1.19.4L161.58,29c-.39-.11-.87-.17-1.41-.27s-1.16-.15-1.83-.22c-.34,0-.69,0-1.06-.05a5.24,5.24,0,0,1-.55,0l-.57,0a9.67,9.67,0,0,0-1.18.09,10.57,10.57,0,0,0-1.22.18,9.26,9.26,0,0,0-1.24.29l-.62.17-.61.23a15,15,0,0,0-2.38,1.16,15.88,15.88,0,0,0-2.13,1.58A17.5,17.5,0,0,0,145,34.06a22.12,22.12,0,0,0-2.6,3.78,30.42,30.42,0,0,0-1.4,3C140.68,41.56,140.54,42,140.54,42Z"/><path class="cls-12" d="M134.08,36.8a4.13,4.13,0,0,1-.23-.36c-.12-.23-.31-.59-.51-1.06-.08-.25-.17-.52-.28-.8s-.18-.62-.26-1-.16-.73-.2-1.11a10.57,10.57,0,0,1-.09-1.28,13.1,13.1,0,0,1,.26-2.84,13.37,13.37,0,0,1,1-3c.26-.49.47-1,.78-1.5s.63-1,.94-1.44l1.1-1.37a14.43,14.43,0,0,1,1.19-1.29l.62-.63c.24-.24.46-.37.69-.57a15.6,15.6,0,0,1,1.39-1,16.39,16.39,0,0,1,1.45-1l.73-.43c.24-.13.5-.24.75-.37a15.93,15.93,0,0,1,3-1.11,14,14,0,0,1,2.83-.38,9.5,9.5,0,0,1,2.4.21,8.81,8.81,0,0,1,1.75.56,6,6,0,0,1,.62.3l.42.27.34.23-.36-.2a6.1,6.1,0,0,0-1.07-.47,8.84,8.84,0,0,0-1.75-.45,11.78,11.78,0,0,0-2.34-.07,12.1,12.1,0,0,0-2.71.48,17.51,17.51,0,0,0-2.86,1.16c-.23.11-.48.23-.72.37s-.47.27-.7.42a14,14,0,0,0-1.39.93,15.85,15.85,0,0,0-1.36,1,5.91,5.91,0,0,0-.64.55l-.59.62c-.39.41-.84.78-1.19,1.23s-.72.87-1.07,1.32l-.93,1.39c-.31.46-.51,1-.77,1.43a13.8,13.8,0,0,0-1.05,2.89,12.23,12.23,0,0,0-.37,2.72,15.09,15.09,0,0,0,.16,2.34c.05.34.14.67.19,1l.24.81a10.13,10.13,0,0,0,.42,1.1A3.79,3.79,0,0,0,134.08,36.8Z"/><path class="cls-12" d="M130.89,42.55a4.63,4.63,0,0,1-.47-.12,13.32,13.32,0,0,1-1.31-.44,18.59,18.59,0,0,1-1.93-1,13,13,0,0,1-2.25-1.67l-.58-.53c-.18-.21-.35-.42-.54-.62s-.38-.42-.55-.65l-.5-.73a12,12,0,0,1-.92-1.57,14,14,0,0,1-.73-1.77,17.6,17.6,0,0,1-.82-3.88c0-.35-.1-.68-.1-1V26.52a6.89,6.89,0,0,1,.08-1.05,15.6,15.6,0,0,1,.29-2,15,15,0,0,1,.45-2,17.74,17.74,0,0,1,.62-1.91c.12-.31.24-.61.37-.91s.28-.61.42-.89a16.14,16.14,0,0,1,2-3.13c.38-.44.77-.87,1.16-1.28s.78-.75,1.2-1.06a10,10,0,0,1,1.19-.87,10.93,10.93,0,0,1,1.15-.69,13.92,13.92,0,0,1,2-.86,6.28,6.28,0,0,1,.76-.23,4.65,4.65,0,0,1,.57-.14l.48-.09-.47.13a9.76,9.76,0,0,0-1.3.45,13.15,13.15,0,0,0-1.89,1,10.21,10.21,0,0,0-1.09.72,12.71,12.71,0,0,0-1.13.9,14.15,14.15,0,0,0-1.14,1.08c-.36.4-.72.83-1.08,1.27A19.06,19.06,0,0,0,122.93,18c-.14.28-.28.55-.41.86l-.33.9a14.38,14.38,0,0,0-.59,1.86,17.58,17.58,0,0,0-.42,1.94c-.14.63-.18,1.32-.26,2a9.09,9.09,0,0,0-.09,1v2c0,.33.06.66.08,1a16.49,16.49,0,0,0,.75,3.76,15.38,15.38,0,0,0,.68,1.72,10.33,10.33,0,0,0,.83,1.54l.46.72c.16.23.34.43.51.65s.33.41.5.6l.55.54a13.82,13.82,0,0,0,2.13,1.74,15.19,15.19,0,0,0,1.84,1.06c.54.26,1,.43,1.26.54Z"/><path class="cls-12" d="M120.5,14.57a9.41,9.41,0,0,0-1,1.35,14.7,14.7,0,0,0-.89,1.71c-.16.33-.28.71-.44,1.09s-.25.81-.39,1.24-.23.91-.33,1.4-.17,1-.23,1.49-.1,1.06-.12,1.6l0,1.67c0,.57.05,1.14.08,1.73s.13,1.18.2,1.76.2,1.19.3,1.78l.17.89.24.89a14.9,14.9,0,0,0,.57,1.71c.21.54.49,1.07.75,1.6a20.64,20.64,0,0,0,1.92,2.91c.19.22.36.45.54.66s.37.4.55.62c.36.42.75.77,1.12,1.15a23,23,0,0,0,2.25,1.89c.36.27.73.5,1.08.74l1,.61.93.47c.29.13.56.23.82.33a6.16,6.16,0,0,0,1.19.32l.44,0-.45,0a4.73,4.73,0,0,1-1.23-.21c-.25-.09-.54-.17-.85-.29l-1-.41c-.34-.19-.69-.38-1.07-.56s-.75-.45-1.13-.72a22.56,22.56,0,0,1-2.36-1.83c-.4-.36-.81-.74-1.19-1.14l-.59-.61c-.17-.23-.36-.45-.55-.68a20.38,20.38,0,0,1-2-3c-.27-.54-.57-1.09-.81-1.67a15.46,15.46,0,0,1-.61-1.77l-.23-.9-.16-.92c-.1-.62-.24-1.22-.29-1.82l-.18-1.81c0-.6,0-1.19-.06-1.76s0-1.16.06-1.72.13-1.09.19-1.62.2-1,.3-1.54.26-.94.38-1.39.3-.86.46-1.26.33-.74.5-1.09a14.05,14.05,0,0,1,1-1.66,7.46,7.46,0,0,1,.79-1C120.39,14.67,120.5,14.57,120.5,14.57Z"/><path class="cls-12" d="M112.8,21.61s-.12.56-.26,1.57a32,32,0,0,0-.28,4.17,25,25,0,0,0,.63,5.82c.09.52.26,1,.41,1.58s.33,1,.57,1.55a17.84,17.84,0,0,0,1.58,3c.34.45.64.94,1,1.35l.55.65.59.6a16.85,16.85,0,0,0,2.55,2,26.07,26.07,0,0,0,2.7,1.49c.44.23.9.37,1.33.55a11.24,11.24,0,0,0,1.26.45c.82.25,1.58.49,2.26.63a16.46,16.46,0,0,0,1.78.39l1.57.29-1.59-.16a15.66,15.66,0,0,1-1.81-.27c-.34-.06-.72-.1-1.11-.2l-1.21-.32c-.43-.1-.86-.26-1.3-.4s-.92-.3-1.37-.52a18.79,18.79,0,0,1-2.82-1.44,17.54,17.54,0,0,1-2.68-2.1l-.62-.6-.58-.67c-.4-.43-.71-.94-1.07-1.41a17.63,17.63,0,0,1-1.61-3.11c-.23-.53-.38-1.09-.57-1.62s-.31-1.09-.4-1.63a20.9,20.9,0,0,1-.42-3.13,26.8,26.8,0,0,1,0-2.83,26,26,0,0,1,.52-4.17C112.62,22.16,112.8,21.61,112.8,21.61Z"/><path class="cls-12" d="M105.43,46.74a2.36,2.36,0,0,0,.17.27c.11.18.31.43.55.74a13.25,13.25,0,0,0,.95,1c.38.39.87.76,1.38,1.2a13.21,13.21,0,0,0,1.82,1.15,16.21,16.21,0,0,0,2.18,1c.39.14.8.25,1.21.37a8.63,8.63,0,0,0,1.26.33l1.3.23c.43.1.88.08,1.33.14l1.33.1c.44,0,.88,0,1.32,0l1.31,0,1.27-.14L124,53c.2,0,.4-.05.6-.06l.57-.12,2.14-.43a18.07,18.07,0,0,0,1.79-.44l1.38-.37c.77-.19,1.21-.32,1.21-.32l-1.17.45c-.37.12-.82.3-1.35.48a11.2,11.2,0,0,1-1.77.56l-2.13.55-.58.14-.6.1-1.25.19c-.42.06-.85.13-1.29.17l-1.34.06-1.36,0-1.37-.1c-.46-.06-.92,0-1.37-.14l-1.34-.26a8.35,8.35,0,0,1-1.3-.36c-.42-.14-.84-.26-1.25-.42a16.33,16.33,0,0,1-2.21-1.13,15.58,15.58,0,0,1-1.81-1.29A13.7,13.7,0,0,1,106.92,49a11.11,11.11,0,0,1-.88-1.14A8.8,8.8,0,0,1,105.43,46.74Z"/><path class="cls-12" d="M114.48,66a5.82,5.82,0,0,1,.64-.68l.8-.73a12.32,12.32,0,0,1,1.11-.84c.21-.16.43-.31.66-.46l.72-.46c.5-.32,1.07-.59,1.63-.89s1.2-.55,1.84-.75a18.7,18.7,0,0,1,2-.56c.34-.07.67-.15,1-.2l1-.13a14.88,14.88,0,0,1,2-.07,11.09,11.09,0,0,1,1.85.15,9.63,9.63,0,0,1,1.63.31,10,10,0,0,1,1.35.37l1,.39.86.35-.9-.22c-.29-.09-.63-.17-1-.27s-.86-.15-1.36-.25a12.48,12.48,0,0,0-1.6-.2,15.26,15.26,0,0,0-1.8,0A14,14,0,0,0,126,61l-1,.13c-.33,0-.65.14-1,.21a15.52,15.52,0,0,0-1.92.52c-.63.19-1.22.46-1.81.67s-1.13.49-1.63.78l-.74.39-.67.41c-.44.24-.82.52-1.17.73s-.63.45-.86.62C114.73,65.78,114.48,66,114.48,66Z"/><path class="cls-12" d="M121.34,73.71a5.33,5.33,0,0,1,.5-.56c.17-.17.38-.36.63-.59a7.73,7.73,0,0,1,.88-.69c.32-.26.71-.47,1.11-.73a12.5,12.5,0,0,1,1.32-.67,10.18,10.18,0,0,1,1.49-.56,12.51,12.51,0,0,1,1.6-.41c.54-.12,1.09-.12,1.63-.2s1.08,0,1.6,0a13.39,13.39,0,0,1,1.47.19,8,8,0,0,1,1.3.29,6.82,6.82,0,0,1,1.07.31l.79.32c.45.17.69.29.69.29s-.26-.08-.73-.18c-.22,0-.5-.11-.82-.2s-.69-.11-1.08-.18S134,70,133.51,70s-.94,0-1.43-.07-1,0-1.53.06-1.05.09-1.56.21a12.63,12.63,0,0,0-1.53.36A13.13,13.13,0,0,0,126,71c-.46.18-.9.38-1.32.57s-.79.4-1.13.62a14.8,14.8,0,0,0-1.62,1.06A7,7,0,0,0,121.34,73.71Z"/><path class="cls-12" d="M125.87,81.41s.12-.16.37-.43a8.36,8.36,0,0,1,1.13-1,6.67,6.67,0,0,1,.83-.56c.31-.2.65-.36,1-.55s.74-.31,1.14-.43a8.44,8.44,0,0,1,1.23-.28c.22,0,.42-.08.63-.09h.64a6.06,6.06,0,0,1,1.21.07,9.21,9.21,0,0,1,1.12.24,4.25,4.25,0,0,1,1,.35,4.64,4.64,0,0,1,.77.35l.56.35a5,5,0,0,1,.48.31l-.54-.2c-.16-.05-.37-.14-.6-.23s-.51-.14-.79-.23a7.47,7.47,0,0,0-.95-.21,8.49,8.49,0,0,0-1.06-.14,7.19,7.19,0,0,0-1.14,0l-.59,0a5.81,5.81,0,0,0-.58.09,8.36,8.36,0,0,0-1.15.24c-.38.1-.74.24-1.1.36s-.68.27-1,.43-.6.3-.87.44c-.52.3-1,.58-1.25.78S125.87,81.41,125.87,81.41Z"/><path class="cls-12" d="M126,84.59a4.76,4.76,0,0,1,.45-.16,8.14,8.14,0,0,1,1.2-.34,12.62,12.62,0,0,1,3.79-.33,6,6,0,0,1,1,.13,5.5,5.5,0,0,1,1,.24,6.6,6.6,0,0,1,.89.36c.27.13.51.31.73.44a3.83,3.83,0,0,1,.54.51,2.13,2.13,0,0,1,.34.43c.17.25.25.4.25.4L135.9,86a2.1,2.1,0,0,0-.41-.33c-.18-.1-.36-.24-.57-.36s-.47-.21-.73-.31a8.54,8.54,0,0,0-.85-.26c-.3-.06-.61-.13-.93-.17s-.65-.09-1-.1c-.66-.06-1.33,0-2,0s-1.22,0-1.72.09C126.72,84.52,126,84.59,126,84.59Z"/></g><path class="cls-11" d="M148.34,15.66c-.42.78-2,.72-3.56-.1s-2.47-2.13-2.05-2.91,2-.73,3.55.1S148.75,14.89,148.34,15.66Z"/><path class="cls-4" d="M146.16,84s-12.06,7.37-23.45,29c-2.51,6,3,14.92,11.73,22.29-2.68,4.86-4.35,8.21,9,10.55-4.18,5.19-3.68,7.87,1.68,7.7a54.25,54.25,0,0,0,10.89-1.66s3.18,9.2-1.34,12.71a35.86,35.86,0,0,0-6.37,6s9.22-.67,11.06-1.85c-3,4.7-1.17,10.9-1.17,10.9s.67-4.86,10.55-9.72c7.2-3.34,9.71-6.2,11.05-7.53.5,4.85-1.84,5.35-1.84,5.35s14.74-8.38,13.07-13.06-3.69-8.55,1.34-10.06,27.13-10.05,24.62-18.42a6.36,6.36,0,0,1,1.67,4.69s5-12.74.51-21.61c2.68,3.18,2.68,4.53,2.68,4.53s1.68-12.56-3.52-19.6a12.27,12.27,0,0,1,4.52,2.68s-1.34-11.73-11.22-18.6c13.06,1.68,19.26,1,22.11-5.69s4.69-16.25,6.36-18.26c-3.85-4.35-15.24-9.72-23.78-6-7,3.51-7,8.54-9.55,14.24-.16-2.51-5.86-6.2-10.05-5.7,2.68-1.67,3.86-1.67,3.86-1.67s-9.39-4.69-15.75-1L186,51a15.72,15.72,0,0,0-14.4,3.35,14.32,14.32,0,0,1,.33-3.85s-4.19,2-5.36,5.19a7.21,7.21,0,0,0-4.52-4.52l1.51,2.68s-9.05-2.35-11.73-.67l2.35.83s-14.58,5.54-10.73,15.92A87.71,87.71,0,0,1,146.16,84Z"/><path class="cls-2" d="M142.78,81.08s-12.06,7.37-23.45,29c-2.51,6,3,14.91,11.73,22.28-2.68,4.85-4.36,8.2,9,10.54-4.18,5.2-3.68,7.88,1.68,7.71a54.7,54.7,0,0,0,10.89-1.67s3.18,9.21-1.34,12.73a35.44,35.44,0,0,0-6.37,6s9.22-.66,11.06-1.84c-3,4.69-1.18,10.89-1.18,10.89s.68-4.85,10.56-9.71c7.2-3.35,9.71-6.19,11-7.54.5,4.86-1.84,5.36-1.84,5.36s14.74-8.37,13.07-13.06S184,143.22,189,141.72s27.14-10.06,24.63-18.43a6.35,6.35,0,0,1,1.67,4.69s5-12.73.51-21.61c2.68,3.18,2.68,4.52,2.68,4.52S220.17,98.33,215,91.3A12.36,12.36,0,0,1,219.5,94s-1.34-11.72-11.22-18.59c13.06,1.68,19.26,1,22.11-5.7s4.69-16.25,6.36-18.26c-3.85-4.36-15.24-9.7-23.78-6-7,3.51-7,8.53-9.55,14.24-.17-2.52-5.86-6.21-10-5.71,2.68-1.66,3.85-1.66,3.85-1.66s-9.38-4.69-15.74-1l1.17-3.17a15.69,15.69,0,0,0-14.4,3.34,14.27,14.27,0,0,1,.33-3.84s-4.19,2-5.36,5.19a7.27,7.27,0,0,0-4.52-4.53l1.51,2.68s-9.05-2.34-11.73-.67l2.34.84S136.25,56.61,140.1,67A88.83,88.83,0,0,1,142.78,81.08Z"/><path class="cls-13" d="M146.26,82s14-5.45,32.53,3.8a10.12,10.12,0,0,0-2.49-1.69s1.92-11-3.26-11c-2.59,0-3.5,6.09-2.37,8,0,0-11.16-3.6-16.58-1.8,1.13-6.65-1.8-9.36-3.94-8.57s-2.82,7-1.47,9.36A7,7,0,0,0,146.26,82Z"/><path class="cls-14" d="M213,45.4c-7,3.51-7,8.53-9.55,14.24-.17-2.52-5.86-6.21-10-5.71,2.68-1.66,3.85-1.66,3.85-1.66s-9.38-4.69-15.74-1l1.17-3.17a15.69,15.69,0,0,0-14.4,3.34,14.27,14.27,0,0,1,.33-3.84s-4.19,2-5.36,5.19a7.27,7.27,0,0,0-4.52-4.53l1.51,2.68s-9.05-2.34-11.73-.67l2.34.84s-.44.18-1.13.49c4.4.39,10.17,1.55,12.53,4.88l-.68-2.35,2,2.68L166.91,52l-.34,4.48s3.35-4.36,10.72-4.69a7.7,7.7,0,0,0-2.68,5.35s4.35-4.35,14.74-3.34c-4.36,1.33-4.69,4-4.69,4s15.08,1.35,16.42,15.42c1,10.38-11,16.79-23.08,12.24,22.74,10.54,20.73,21.92,11.68,28.29-8.37,5.69-7.36-2-7.36-3.68s-5,1.33-3.36,6.36-.67,6-8.37,7.7-4.35,13.41-18.09,15.42c-10.39,1.67-12.4-3-7.37-5.37s19.09-13.73,17.42-20.1-12.73-8.7-24.46-8.37c-9.8.28-13.75-3-10.27-9.32a109.84,109.84,0,0,0-8.49,13.68c-2.51,6,3,14.91,11.73,22.28-2.68,4.85-4.36,8.2,9,10.54-4.18,5.2-3.68,7.88,1.68,7.71a54.7,54.7,0,0,0,10.89-1.67s3.18,9.21-1.34,12.73a35.44,35.44,0,0,0-6.37,6s9.22-.66,11.06-1.84c-3,4.69-1.18,10.89-1.18,10.89s.68-4.85,10.56-9.71c7.2-3.35,9.71-6.19,11-7.54.31,3-.47,4.36-1.11,4.93,2.94-1.76,13.79-8.57,12.34-12.63-1.68-4.69-3.69-8.55,1.33-10.05s27.14-10.06,24.63-18.43a6.35,6.35,0,0,1,1.67,4.69s5-12.73.51-21.61c2.68,3.18,2.68,4.52,2.68,4.52S220.17,98.33,215,91.3A12.36,12.36,0,0,1,219.5,94s-1.34-11.72-11.22-18.59c13.06,1.68,19.26,1,22.11-5.7s4.69-16.25,6.36-18.26C232.9,47.06,221.51,41.72,213,45.4Z"/><path class="cls-13" d="M229.72,57.22s-.36-6.86-6.5-4.25-13.59,8-14.3,10.87C213.77,68.1,223.34,73.06,229.72,57.22Z"/><path d="M153,76.35c.06,2.62-.77,4.74-1.86,4.74s-2-2.13-2.08-4.76.76-4.75,1.85-4.75S153,73.71,153,76.35Z"/><path class="cls-15" d="M152.42,74.81c.09,1-.22,1.89-.7,1.92s-.95-.76-1-1.79.22-1.88.7-1.91S152.33,73.79,152.42,74.81Z"/><path d="M175.29,78.54c.06,2.62-.76,4.76-1.85,4.76s-2-2.14-2.09-4.76.76-4.75,1.86-4.75S175.23,75.91,175.29,78.54Z"/><path class="cls-15" d="M174.69,77c.1,1-.22,1.88-.7,1.92s-1-.77-1-1.79.22-1.88.7-1.92S174.6,76,174.69,77Z"/><path class="cls-14" d="M147.29,68.36s1.8-5,6.47-1.44C151.33,62.69,149.09,61.43,147.29,68.36Z"/><path class="cls-14" d="M170.39,67.28s3.69-3.51,8.37,1.08C175.7,62.69,172.64,59.37,170.39,67.28Z"/><path class="cls-4" d="M147.15,67.31s1.8-5,6.48-1.45C151.2,61.65,149,60.39,147.15,67.31Z"/><path class="cls-4" d="M170.26,66.22s3.69-3.5,8.36,1.09C175.57,61.65,172.51,58.32,170.26,66.22Z"/><path class="cls-16" d="M141.48,84.8a4.29,4.29,0,0,1,.38-.32,10.89,10.89,0,0,1,1.17-.84l.89-.51c.33-.19.69-.36,1.08-.55a13.56,13.56,0,0,1,1.26-.56c.45-.17.93-.38,1.44-.53l1.6-.47c.56-.14,1.14-.24,1.75-.37.3-.06.6-.13.91-.18l.95-.11,2-.2,2,0,1,0c.35,0,.69.06,1.05.07l2.11.18c.71,0,1.4.2,2.11.3s1.4.23,2.1.36l2.05.51,2,.52c.66.18,1.29.44,1.92.66l1.84.64c.6.22,1.19.43,1.74.69L178,85.45a25.11,25.11,0,0,1,2.56,1.33l1.93,1.09,1.67,1-1.79-.73-2-.89c-.78-.33-1.66-.73-2.66-1.08s-2-.74-3.16-1.19a15.58,15.58,0,0,0-1.75-.57l-1.83-.57c-.63-.19-1.26-.42-1.9-.58s-1.32-.3-2-.47l-2-.47L163,82c-.69-.1-1.36-.28-2-.32l-2.05-.19-1-.08-1,0-2,0c-.64,0-1.27.08-1.89.11l-.93.06c-.3,0-.6.08-.89.13l-1.72.24-1.58.36a11,11,0,0,0-1.43.39,10.32,10.32,0,0,0-1.29.4c-.4.15-.77.28-1.11.43s-.64.28-.92.41c-.54.28-1,.49-1.26.66Z"/><path class="cls-16" d="M137.93,142.39s3.68,1,2-2.18a13.47,13.47,0,0,1-1.68-5.71s2.33,9,10.72,8.38c8.22-.6,13.57-2,15.91-7.2s2-7.87,9.39-9.71,8.71-3.35,8.71-5.53-3.19-3.52-1.51-6.53c.84-1.34,0,5.35,3.85,3.52s6.53-4,6.7-2.68-7.54,3.35-7.54,5.36.17,5-6.7,6.52-7.87,2.68-10.22,7.21-3.35,8-9.21,9.38S145,146.58,137.93,142.39Z"/><path class="cls-17" d="M209.59,63.68s1.81-3,8.61-6.69c7.26-4,7.83-4,8.73-2.83a29.31,29.31,0,0,1,2,3.17S222.74,73.88,209.59,63.68Z"/><path class="cls-2" d="M175.34,164.4l-.73.43A1.71,1.71,0,0,0,175.34,164.4Z"/><g class="cls-18"><path class="cls-14" d="M208.78,72.2c-5.69-2-5.36.67-.33,6s7.37,11.06,1,7.37c4,5,6.37,14.74,5.36,16.77S208.45,97,208.45,97s4.68,14.4,2.68,17.76-4.69-2.36-4.69-2.36S203.76,128.48,188,134.5c-9,3.36-10.39,9.05-7.37,11.73s2.35,6.37-.33,9.38c-.68-3.68-2.69-5-2.69-5A18.39,18.39,0,0,1,167.57,162c-5.69,3.35-9,5.69-9,5.69s1-3,5-6.35-6.7,3-10.72,3.34c7-5.69,4.69-9,3.35-13.39s3.36-2.69,8.71-6.37c3.13-1.56-13.33,5.89-27.56,3.21-.1,1.72,1.37,2.58,4.45,2.48a54.7,54.7,0,0,0,10.89-1.67s3.18,9.21-1.34,12.73a35.44,35.44,0,0,0-6.37,6s9.22-.66,11.06-1.84c-3,4.69-1.18,10.89-1.18,10.89s.68-4.85,10.56-9.71c7.2-3.35,9.71-6.19,11-7.54.31,3-.47,4.36-1.11,4.93,2.94-1.76,13.79-8.57,12.34-12.63-1.68-4.69-3.69-8.55,1.33-10.05s27.14-10.06,24.63-18.43a6.35,6.35,0,0,1,1.67,4.69s5-12.73.51-21.61c2.68,3.18,2.68,4.52,2.68,4.52S220.17,98.33,215,91.3A12.36,12.36,0,0,1,219.5,94s-1.34-11.72-11.22-18.59c13.06,1.68,19.26,1,22.11-5.7.27-.65.54-1.32.8-2C227.18,71.6,220.1,75.41,208.78,72.2Z"/></g><path class="cls-17" d="M125.53,108.71a65.56,65.56,0,0,1,24.46.51c10.55,3.35,12.06,5,10.38,8.71s-15.74,18.6-25.46,16.07c-8.88-2.51-16.58-12.21-18.43-16.4S116.48,110.06,125.53,108.71Z"/><path class="cls-19" d="M149.82,122.12s-5.19-1.68-5.53,4.68c0,3.69,0,5-2.68,5.7-1.79.48-1.24-2-.28-4.18S144.45,120.58,149.82,122.12Z"/><path class="cls-19" d="M121.57,120.84s4.8,1.92,6.11,5.62c.82,3.37,1.51,4.75,3,4.75S128.84,122.34,121.57,120.84Z"/><path class="cls-20" d="M150.05,109.24c1,.33,2,.64,2.89,1A24.4,24.4,0,0,0,150.05,109.24Z"/><path class="cls-17" d="M150,109.22h-.07a.31.31,0,0,1,.13,0A.07.07,0,0,0,150,109.22Z"/><path class="cls-21" d="M152.94,110.2c9.19,3.73-.7,8.67-6,9-6.33.42-6.33,9.17-11.31,9.31S127,120,119.74,117.6a6.53,6.53,0,0,1-3.9-2.75,6.84,6.84,0,0,0,.64,2.75c1.85,4.19,9.55,13.89,18.43,16.4,9.72,2.53,23.79-12.39,25.46-16.07C161.88,114.62,160.81,112.92,152.94,110.2Z"/><path class="cls-22" d="M119.22,112.79s9.56-4,24.28-1.11c5,1.11,1-3.13-9.55-3.34S115.84,113.47,119.22,112.79Z"/><path class="cls-22" d="M150.9,112.31c-.17.53-1.23.64-2.38.28s-2-1.07-1.79-1.6,1.24-.65,2.38-.27S151.06,111.79,150.9,112.31Z"/><path class="cls-16" d="M229,57.33s-.18-.33-.54-.9c-.17-.27-.39-.62-.65-1a9.86,9.86,0,0,0-1-1.18,1.53,1.53,0,0,0-.64-.4H226l-.22.06-.47.11c-.6.23-1.24.43-1.89.72l-1,.4-1,.47c-.33.18-.67.33-1,.49s-.66.38-1,.55c-.65.38-1.34.7-1.95,1.12L215.64,59c-.59.37-1.12.81-1.66,1.19l-1.48,1.07c-.85.76-1.59,1.35-2.1,1.78l-.81.67.72-.76c.47-.47,1.13-1.17,1.95-2l1.43-1.17a19.94,19.94,0,0,1,1.62-1.29l1.83-1.25c.62-.43,1.32-.76,2-1.16.34-.17.67-.37,1-.55s.7-.31,1-.48.69-.3,1-.46l1-.39a20.86,20.86,0,0,1,2-.63l.48-.09.23,0a1.69,1.69,0,0,1,.32,0,2,2,0,0,1,.82.57,6.65,6.65,0,0,1,.92,1.3c.23.41.41.77.56,1.07C228.84,57,229,57.33,229,57.33Z"/><g class="cls-18"><path class="cls-17" d="M218.83,64.49c-7.53-.51,1-7,5.7-9a3.46,3.46,0,0,1,3.31,0,14.18,14.18,0,0,0-.91-1.28C226,53,225.46,53,218.2,57c-6.8,3.74-8.61,6.69-8.61,6.69,8.31,6.46,13.86,2.21,16.82-1.79A9.4,9.4,0,0,1,218.83,64.49Z"/></g><path class="cls-2" d="M140.83,69.91s-15.05,4.59-20.26-8.41-4.47-12.74-4.47-12.74,22.69-5.35,28.93,5.47C141.84,57.8,138.27,61,140.83,69.91Z"/><path class="cls-20" d="M119.6,59.08c-1.25-3.17-2.06-5.36-2.59-6.88A43.34,43.34,0,0,0,119.6,59.08Z"/><path class="cls-14" d="M145,54.23c-3.14-5.44-10.43-6.79-16.91-6.79,4.72.53,10.38,1.88,11.49,5.23,2,5.77-3.59,2.52-8.27-.36a6.18,6.18,0,0,0-9.54,3.42c-.73,1.8,5,9.9,9.72,10.26,3.93.3-5.15,7-11.92-6.91.29.75.61,1.55,1,2.42,5.21,13,20.26,8.41,20.26,8.41C138.27,61,141.84,57.8,145,54.23Z"/><path class="cls-2" d="M117,52.2c-.31-1.08-.62-2.22-.91-3.44C116.1,48.76,115.78,48.66,117,52.2Z"/><path class="cls-14" d="M140.83,69.91s-15.05,4.59-20.26-8.41-4.47-12.74-4.47-12.74,22.69-5.35,28.93,5.47C141.84,57.8,138.27,61,140.83,69.91Z"/><path class="cls-17" d="M138.54,63.07s-9.07-11-12-10.38c-1.79.35-3,4.11-3,4.11a15.11,15.11,0,0,0,6.8,7.16A7.42,7.42,0,0,0,138.54,63.07Z"/><path class="cls-16" d="M123.52,56.8a8.34,8.34,0,0,1,.21-.9,7.39,7.39,0,0,1,1.06-2.24,3.1,3.1,0,0,1,1.34-1.1,2.17,2.17,0,0,1,1-.15,2.27,2.27,0,0,1,.52.09,4.27,4.27,0,0,1,.46.16,12.29,12.29,0,0,1,3.36,2.25,37.32,37.32,0,0,1,2.8,2.84c.84.94,1.58,1.88,2.22,2.65s1.14,1.46,1.5,1.92l.57.75s-.25-.23-.66-.66-1-1-1.69-1.77-1.5-1.59-2.38-2.49S132,56.3,131,55.41c-.5-.43-1-.86-1.53-1.25a8.87,8.87,0,0,0-1.61-.94A2.11,2.11,0,0,0,126.3,53a2.64,2.64,0,0,0-1.21.86,8.53,8.53,0,0,0-1.23,2C123.63,56.49,123.52,56.8,123.52,56.8Z"/><g class="cls-18"><path class="cls-17" d="M126.57,52.69a3.27,3.27,0,0,0-1.81,1.54c1.77-.5,4.14,0,6.8,3.39,4.36,4.86-1.34,7.54-6.37,1.85l0,.07A14.13,14.13,0,0,0,130.32,64a7.42,7.42,0,0,0,8.22-.89S129.47,52.11,126.57,52.69Z"/></g><path class="cls-2" d="M229,49.3a17,17,0,0,0-12.5,4.25c-6.26,5.36-10.05,1.79-5.36-3.35S224.75,45.06,229,49.3Z"/><path class="cls-15" d="M121.49,50.25s8-2.57,14.19,2.36C138,55,134.17,44.45,121.49,50.25Z"/><path class="cls-15" d="M172.51,84.91s-18-5.22-27.46,7.62c-8.25,12.87-20.37,11.4-13.1.74S154.39,77.29,172.51,84.91Z"/><path class="cls-15" d="M146.66,57.16s-8.28,3.76-1.76,17.55C140.64,69.19,136.37,60.92,146.66,57.16Z"/><path class="cls-4" d="M237.29,182.55l0,0Z"/><path class="cls-4" d="M43.84,53.47S24.26,78.7,17,87.66C23.93,75,38.53,57.12,43.84,53.47Z"/><path class="cls-23" d="M230.12,306.13s6.46,2.64,10.28,11.74C242.16,320.81,239.22,307.29,230.12,306.13Z"/><g class="cls-24"><path class="cls-4" d="M272.43,132.65a18.35,18.35,0,0,1-1.51,2.7,14.16,14.16,0,0,0-3.34-4.53c-.17,10.05-3.19,13.23-3.19,13.23a27.2,27.2,0,0,0-2.34-5.69c.84,16.25-12,26.5-12.36,26s0,0-1.3-2.42c-.32,8.59-10.69,14.9-10.69,14.9s-.16-1.62-3.09-3.4c.65,7.94-8.1,15.71-13.93,18s-6.32,6.65-6.32,6.65a8.26,8.26,0,0,1-1.13-4.37c-1.79,3.4-5.45,7.47-18.18,10.48,1.67-4.34,1-6.36,1-6.36s-10.83,10.95-21.55,10.95-8.49-8.27-8.71-13.85-5.36-12.29-5.36-12.29,4.91,8.72,2.23,15.63c-3.12,8.93-10.5,15.2-11.17,22.34-2-1.79-2-6.93-2.23,1.12s-6.25,19.2-14.74,18.54-14.07-11-14.07-11-1.12.91-2,6c-2.24-6-.67-17-.67-17a9.2,9.2,0,0,1-3.8,2.47c1.57-4.92-10.5-17.21-21.66-31.72-13.86-18,8.26-35.52,8.26-35.52l-3.57.45s1.34-4.46,8.48-11.62c-9.6,5.15-13.4,15.65-13.4,15.65h2.68c-6.69,5.58-14.51,17.42-8.93,27.69s10.72,15.41-1.11,11.38S66,196.26,46.3,164.77c-25-37.52-12.51-50.47-12.51-50.47l-4,2.24c1.57-4.92,7.59-13,7.59-13L34,105.14A29,29,0,0,1,49.55,93.59l-4.1-1.49s.56-1.3,4.85-3.17c-6.72.56-9.33,3.73-9.33,3.73l4.29,1.12c-8.76,1-16.6,14.56-16.6,14.56l4.11-.75c-2.62,2.42-6.72,11.94-6.72,11.94l3.73-.37c-7.84,13.06-.14,24,7.85,40.77S59.3,199.46,49,196.81s-30.79-26.62-30.79-26.62h-.18a88.72,88.72,0,0,0,6.13,8.65l-1.79,4,4.46-.79s.85,7,2,7.8,1.18-3.22,1.18-3.22,3.22,7.29,5.09,12.2S35,204,25.33,216.32c-8.47,10.36-11.19,12.72-5.25,10.86a36,36,0,0,0-6.95,11.7l4.06-1.19s-2.88,5.93-2,8.82c.17,1.52,4.07-1,4.07-1s-5.76,12.65,6.07,39.45c3.8,9.82,2.69,12.5-.22,15.41s-2,4.24,2.68,8.47a13.19,13.19,0,0,0-2.23,14.53c1.34,2.45,15.41,7.14,27,8,10.28.89,12.51-.67,12.73-2.91,5.59.45,7.15-.89,7.15-3.12s-3.57-14.51-16.08-19c-.87-.34-1.68-.7-2.45-1.07-12.62,2.05-19.51,12.47-19.89,8-.44-5.37,9.83-7.14,2.68-7.6s.9-8.94-1.78-13.39C25.08,271.76,21.06,249,32.23,228S71.54,202.51,76,213.24s-3.58,15.63-3.58,15.63,1.78-4.9-.89-8c.89,8-5.81,17.41-21.45,26.35a19.57,19.57,0,0,0-4.46,3.35h0c11.17-7.15,26.13-11.17,27-16.08A4.12,4.12,0,0,1,74,237.8s6.28-5.35,6.56-13L83,228.63s3.84-7.15.82-12.09c3.56,1.1,3.84,2.21,3.84,2.21s1.37-8-1.92-13.45c14.27,4.38,22.23,6.31,23.88,11.52,1.09,3.29-5,7.13-4.4,11.81a34.1,34.1,0,0,0,7.69-3s-3.84,5.22-2.2,10.42c1.92-3,3.29-3.28,3.29-3.28s-1.92,7.4,2.2,8.23,14.82,7.13,15.64,12.89,2.47,22,3.57,31.56,2.19,11,0,13.45-5.49,4.12-3,8.51c2.47,3.84.55,4.11-.82,7.14s-2.2,10.15-.55,12.34,12.35,6.58,25.79,6.58c12.08-.27,16.19-1.63,15.37-4.11,5.22-.55,7.69-3.29,4.67-8.5a25.82,25.82,0,0,0-13.13-11c-9.28,1.09-17.69,4.6-20.73-.56-3.16-5.36,2.68-3.58,0-16.09-3.13-17.86-7.15-46.9-3.13-47.34,2.6-.29,6,11.77,8.6,22.87-2.29-11.59-4-24.91.67-30.23,7.13-6.31,8.51-5.75,6.59-9.59s-2.75-5.22-2.75-5.22a8.35,8.35,0,0,0,3.84,1.65c-2.46-3.3-3-8.23,1.65-11.53,6.31,1.1,27.07,1.89,34.3-8.46-.25,3.63-1.54,5.18-1.54,5.18s18.1-5.44,22.5-11.13a8.7,8.7,0,0,0,3.1,3.63,8.62,8.62,0,0,1,5.44-9.05c6.46-2.86,12.93-5.44,13.45-16.05,2.16,2.64,1.64,4.39,1.56,4.63a15.4,15.4,0,0,1,6.2-7.21c4.65-2.85,5.94-4.92,5.94-8,3.11-1.29,12.94-12.92,13.46-22.75,1.55,4.14,1.29,5.95,1.29,5.95s5.69-8.54,4.13-15.26c2.85,4.13,3.11,5.68,3.11,5.68A45.27,45.27,0,0,0,272.43,132.65Z"/></g><path class="cls-6" d="M44.1,311.58c-6.76,3.21-7.58,12.36-7.57,16.77a83,83,0,0,0,16,3c10.28.89,12.51-.67,12.73-2.91,5.59.45,7.15-.89,7.15-3.12,0-1.92-2.64-11.23-11.28-16.65C56.08,307.42,50,308.77,44.1,311.58Z"/><path d="M43.22,312.14s.48-.09,1.32-.19a29,29,0,0,1,3.52-.17c.72,0,1.52,0,2.36.1a18.39,18.39,0,0,1,2.63.39c.46.11.92.2,1.39.35l.69.22.69.3a4.37,4.37,0,0,1,.69.33l.69.4c.39.29.78.55,1.18.89a17.54,17.54,0,0,1,2.09,2.14,20.33,20.33,0,0,1,1.69,2.31,20.69,20.69,0,0,1,1.31,2.3,20.32,20.32,0,0,1,.93,2.18,15.12,15.12,0,0,1,.58,1.94,10.69,10.69,0,0,1,.27,1.52,5.89,5.89,0,0,1,0,1v.34s0-.11-.07-.34a6.91,6.91,0,0,0-.23-.95c-.1-.4-.29-.87-.48-1.42s-.5-1.13-.8-1.76a30.32,30.32,0,0,0-2.52-4.15c-.5-.73-1.09-1.42-1.68-2.12a16.3,16.3,0,0,0-2-1.93,12.84,12.84,0,0,0-1.1-.88l-.56-.31a3.28,3.28,0,0,0-.58-.32,14.43,14.43,0,0,0-2.51-.89c-.85-.21-1.68-.41-2.49-.54s-1.57-.25-2.28-.33c-1.43-.17-2.63-.26-3.47-.33S43.22,312.14,43.22,312.14Z"/><path class="cls-23" d="M58.71,310.73s7.18,2.94,11.43,13.06C72.1,327.05,68.83,312,58.71,310.73Z"/><path class="cls-8" d="M112.8,153.2s-22,17.4,2.32,47.54c21.44,22.59-5.8,1.73-12.75-10.44S98.88,161.91,112.8,153.2Z"/><path class="cls-8" d="M58.89,98.73s-23.18,16.8-5.21,52.74C60.05,166.54,19.48,123.06,58.89,98.73Z"/><path class="cls-15" d="M15.25,96.89s-10.07,19.4,2.86,48.5c11.14,24.79-3.59,2.51-8.26-10.77S6.26,108.39,15.25,96.89Z"/><path class="cls-16" d="M236.75,51.42c-.62,1.74-1.23,3.46-1.83,5.19s-1.19,3.47-1.78,5.21c-.31.86-.55,1.75-.82,2.62l-.77,2.63a19.53,19.53,0,0,1-.84,2.66,10.78,10.78,0,0,1-1.42,2.46l-.44.56c-.16.17-.34.33-.51.48l-.52.49-.58.42c-.2.13-.38.28-.59.4l-.62.33-.63.34-.66.25a18.54,18.54,0,0,1-2.7.8c-.46.09-.93.14-1.39.2a9.25,9.25,0,0,1-1.39.16,26,26,0,0,1-2.79.07c-.93,0-1.86,0-2.78-.12s-1.85-.12-2.76-.28l-2.74-.4.41-.91,1.08.91a12.86,12.86,0,0,1,1,.94c.34.33.69.65,1,1l.94,1.05.89,1.09c.29.37.55.76.83,1.15s.52.77.77,1.16.51.79.73,1.2.47.82.68,1.23.44.84.62,1.25.41.85.59,1.28.37.86.53,1.3c.69,1.72,1.24,3.53,1.79,5.25l.52,1.64-1.44-1L217,93.05l-1.1-.65a4.08,4.08,0,0,0-.55-.28L215,92c-.11-.06-.14-.06-.18-.09l.6-1a9.32,9.32,0,0,1,.76,1.13,11.82,11.82,0,0,1,.64,1.16,20.54,20.54,0,0,1,1,2.41c.16.4.28.82.41,1.24a13,13,0,0,1,.34,1.26,10.48,10.48,0,0,1,.29,1.26c.08.43.18.86.24,1.29l.17,1.29c.07.43.08.86.11,1.29s.08.86.08,1.29v1.31c0,.86-.07,1.72-.1,2.58,0,.43-.09.86-.14,1.29l-.15,1.29-.27,2.35-1-2.19-.46-1c-.15-.33-.29-.67-.46-1l-.51-1c-.08-.16-.17-.3-.26-.45s-.19-.3-.27-.41l1.12-.63c.15.46.27.87.38,1.3s.2.86.29,1.29.17.88.23,1.31.13.87.17,1.3.1.88.12,1.32.06.88.07,1.32l0,1.32,0,1.32c0,.43,0,.87-.09,1.3s0,.88-.13,1.32l-.18,1.31c-.06.43-.17.86-.25,1.29s-.15.86-.28,1.27l-.34,1.28a13.15,13.15,0,0,1-.39,1.26l-.42,1.25-1.14,3.41v-3.67a3.16,3.16,0,0,0,0-.44,3.12,3.12,0,0,0-.09-.46,4,4,0,0,0-.41-.92,6.41,6.41,0,0,0-.6-.87,4.71,4.71,0,0,0-.35-.41,4.25,4.25,0,0,0-.36-.37l.94-.62a4.51,4.51,0,0,1,0,2,5.63,5.63,0,0,1-.23.92,9.14,9.14,0,0,1-.33.87l-.41.82c-.16.26-.32.51-.49.76a11,11,0,0,1-1.11,1.42l-.29.34-.31.32-.64.61a13.54,13.54,0,0,1-1.35,1.16,29.84,29.84,0,0,1-2.85,2.06c-1,.61-2,1.19-3,1.76l-3.13,1.56-3.2,1.38c-1.07.46-2.16.83-3.25,1.25-.54.2-1.07.41-1.63.6s-1.1.36-1.63.56a10.52,10.52,0,0,0-3,1.53,3.11,3.11,0,0,0-1.22,2.81,10.84,10.84,0,0,0,.88,3.26,9.64,9.64,0,0,1,.82,3.41,5.37,5.37,0,0,1-1.4,3.21,20.24,20.24,0,0,1-2.48,2.42c-.89.75-1.81,1.45-2.73,2.16.9-.74,1.79-1.48,2.64-2.26a20,20,0,0,0,2.39-2.48,5.09,5.09,0,0,0,1.24-3.05,9.58,9.58,0,0,0-.87-3.26,11.25,11.25,0,0,1-1-3.38,3.72,3.72,0,0,1,1.35-3.31,10.93,10.93,0,0,1,3.11-1.72l1.64-.59c.53-.19,1.08-.42,1.61-.62,1.06-.43,2.15-.83,3.2-1.29l3.13-1.42,3.07-1.57c1-.59,2-1.17,2.92-1.78a32.84,32.84,0,0,0,2.73-2,15.13,15.13,0,0,0,1.26-1.13l.6-.59.3-.3.26-.33a11.45,11.45,0,0,0,1-1.32l.44-.69.35-.74a5.28,5.28,0,0,0,.29-.75,3.84,3.84,0,0,0,.19-.76,6.7,6.7,0,0,0,.08-.77,4.19,4.19,0,0,0-.07-.68l-.54-2,1.48,1.36a6.16,6.16,0,0,1,.44.45l.4.45a7.89,7.89,0,0,1,.7,1,6.17,6.17,0,0,1,.53,1.17,4.81,4.81,0,0,1,.13.66,3.34,3.34,0,0,1,0,.71L215.1,127l.4-1.2a12.3,12.3,0,0,0,.37-1.22l.32-1.22c.12-.41.18-.83.26-1.25s.18-.83.23-1.24l.17-1.27c.07-.41.08-.83.12-1.26s.08-.84.08-1.26l0-1.28,0-1.26c0-.43-.05-.84-.08-1.26s-.08-.85-.12-1.28-.12-.83-.18-1.24-.14-.83-.22-1.25-.17-.82-.28-1.22-.23-.82-.35-1.19l-1.26-3.76,2.37,3.13c.15.2.26.37.36.53a5.39,5.39,0,0,1,.3.52l.55,1c.18.34.32.68.48,1l.47,1-1.26.17.14-1.25c0-.41.1-.83.13-1.24,0-.84.12-1.67.1-2.5v-1.25c0-.41-.05-.83-.07-1.24s0-.84-.1-1.24l-.16-1.24c0-.41-.14-.82-.21-1.22s-.17-.82-.27-1.22a12.34,12.34,0,0,0-.33-1.19c-.12-.4-.23-.8-.38-1.18a19.22,19.22,0,0,0-1-2.28c-.18-.37-.38-.73-.58-1.07a10,10,0,0,0-.65-1l-1.15-1.51,1.75.5a3.73,3.73,0,0,1,.43.16l.32.16c.22.1.42.2.61.31l1.17.69,2.22,1.47-.93.7c-.55-1.79-1.07-3.51-1.73-5.21-.16-.43-.35-.84-.52-1.26s-.37-.83-.55-1.25-.4-.8-.6-1.21-.43-.79-.65-1.2-.45-.77-.7-1.16-.47-.77-.74-1.13-.51-.74-.79-1.1l-.84-1.06-.89-1c-.29-.35-.62-.65-.94-1s-.64-.64-1-.93l-1-.87-1.38-1.21,1.79.3,2.7.43c.89.17,1.8.22,2.7.33s1.81.13,2.72.17,1.81,0,2.71,0a12.08,12.08,0,0,0,1.35-.11l1.33-.19a16.22,16.22,0,0,0,2.59-.7l.63-.23.59-.32.59-.3a6.65,6.65,0,0,0,.56-.36l.54-.38c.18-.13.33-.29.49-.43l.49-.46.43-.5a10.45,10.45,0,0,0,1.39-2.29,19.15,19.15,0,0,0,.88-2.55l.86-2.64c.29-.87.56-1.75.89-2.61.64-1.72,1.25-3.44,1.92-5.16S236.06,53.13,236.75,51.42Z"/><path class="cls-25" d="M63.34,322.1c2,4.06-.79,6.86-7.18,6.55s-15.76-1.56-15.92-8.9a11.93,11.93,0,0,1,2.88-7.63c-5.85,3.6-6.6,12.05-6.59,16.23a83,83,0,0,0,16,3c10.28.89,12.51-.67,12.73-2.91,5.59.45,7.15-.89,7.15-3.12a5.79,5.79,0,0,0-.08-.79C70.62,326.68,66.32,325.18,63.34,322.1Z"/><path class="cls-6" d="M154.69,313.71c-12.63,3.83-15.58,12.89-16.27,16.92a60.11,60.11,0,0,0,18.41,2.81c12.08-.27,16.19-1.63,15.37-4.11,5.22-.55,7.69-3.29,4.67-8.5a24.76,24.76,0,0,0-6.09-7C166.88,312.15,161.94,311.92,154.69,313.71Z"/><path d="M154.28,313.86a9,9,0,0,1,1.14-.09,18.37,18.37,0,0,1,3,.17c.61.09,1.28.22,2,.39a18,18,0,0,1,2.16.7,15.18,15.18,0,0,1,2.2,1.05,17.87,17.87,0,0,1,2.08,1.43,16,16,0,0,1,1.81,1.77,7.8,7.8,0,0,1,.77,1,8.82,8.82,0,0,1,.66,1,7.34,7.34,0,0,1,.57,1c.17.34.32.69.45,1a15.27,15.27,0,0,1,.63,1.92,16.47,16.47,0,0,1,.33,1.68c.06.5.12.93.13,1.29,0,.73,0,1.13,0,1.13l-.3-1.08c-.07-.35-.23-.76-.36-1.23s-.36-1-.56-1.55-.49-1.15-.81-1.75a10.25,10.25,0,0,0-.51-.9c-.18-.3-.37-.62-.59-.92a10.75,10.75,0,0,0-.66-.89c-.23-.3-.49-.59-.74-.87a13.37,13.37,0,0,0-1.69-1.59,15.7,15.7,0,0,0-1.91-1.35,18.54,18.54,0,0,0-2-1.09,25.2,25.2,0,0,0-3.82-1.41A26.66,26.66,0,0,0,154.28,313.86Z"/><path class="cls-23" d="M165.86,313.71s6.46,2.64,10.28,11.75C177.9,328.4,175,314.89,165.86,313.71Z"/><g class="cls-18"><path class="cls-6" d="M170.63,322.29c4.84,7.66-26.29,10.22-25.61,2.62s10.4-11.14,10.4-11.14l.11-.26-.84.2c-12.63,3.83-15.58,12.89-16.27,16.92a60.11,60.11,0,0,0,18.41,2.81c12.08-.27,16.19-1.63,15.37-4.11,4-.42,6.38-2.14,5.9-5.28C176.17,324.83,173.38,324.18,170.63,322.29Z"/></g><g class="cls-7"><path class="cls-6" d="M242.45,320.28c-.06-.43-.14-1.25-.37-2.29-1.36,3.45-7.51,2.33-9.21-.29.67,2.92.21,7.66-12.16,6.05-12.07-1.58-8.62-13-8.44-13.61-4,4.75-3.59,12-3.19,15h0c8.88,2.34,23.95,4.19,24.62-1.52C239.44,325.3,242.78,322.62,242.45,320.28Z"/></g></g></g></svg>