<svg id="Layer_1" data-name="Layer 1" xmlns="http://www.w3.org/2000/svg" viewBox="0 0 194.95 317.33"><defs><style>.cls-1{fill:#d1d3d4;}.cls-2{fill:#d39d56;}.cls-3{fill:#3c2415;}.cls-4{fill:#bcbec0;}.cls-5{fill:#fff200;}.cls-6{fill:#ffcf01;}.cls-7{fill:#fcb963;}</style></defs><title>mousetrap</title><rect class="cls-1" x="6" width="188.95" height="317.33" rx="21.36" ry="21.36"/><rect class="cls-2" x="2.12" y="2.12" width="184.71" height="313.1" rx="19.24" ry="19.24"/><path class="cls-3" d="M167.59,317.33H21.36A21.38,21.38,0,0,1,0,296V21.36A21.38,21.38,0,0,1,21.36,0H167.59A21.38,21.38,0,0,1,189,21.36V296A21.38,21.38,0,0,1,167.59,317.33ZM21.36,4.23A17.16,17.16,0,0,0,4.23,21.36V296A17.16,17.16,0,0,0,21.36,313.1H167.59A17.15,17.15,0,0,0,184.71,296V21.36A17.15,17.15,0,0,0,167.59,4.23Z"/><path class="cls-4" d="M151.6,152.61H37.35A13.64,13.64,0,0,1,23.73,139V51.27A13.64,13.64,0,0,1,37.35,37.65H151.6a13.64,13.64,0,0,1,13.62,13.62V139A13.64,13.64,0,0,1,151.6,152.61ZM37.35,45.51a5.77,5.77,0,0,0-5.76,5.76V139a5.77,5.77,0,0,0,5.76,5.76H151.6a5.77,5.77,0,0,0,5.76-5.76V51.27a5.77,5.77,0,0,0-5.76-5.76Z"/><path class="cls-3" d="M151.6,154.3H37.35A15.33,15.33,0,0,1,22,139V51.27A15.33,15.33,0,0,1,37.35,36H151.6a15.33,15.33,0,0,1,15.31,15.31V139A15.33,15.33,0,0,1,151.6,154.3ZM37.35,39.35A11.93,11.93,0,0,0,25.43,51.27V139a11.92,11.92,0,0,0,11.92,11.92H151.6A11.93,11.93,0,0,0,163.52,139V51.27A11.94,11.94,0,0,0,151.6,39.35ZM151.6,146.44H37.35A7.46,7.46,0,0,1,29.9,139V51.27a7.46,7.46,0,0,1,7.45-7.45H151.6a7.46,7.46,0,0,1,7.45,7.45V139A7.46,7.46,0,0,1,151.6,146.44ZM37.35,47.21a4.06,4.06,0,0,0-4.06,4.06V139a4.06,4.06,0,0,0,4.06,4.06H151.6a4.06,4.06,0,0,0,4.06-4.06V51.27a4.06,4.06,0,0,0-4.06-4.06Z"/><path class="cls-3" d="M40.19,161.33h0a2.71,2.71,0,0,1-2.71-2.71V137.75a2.71,2.71,0,0,1,5.42,0v20.87A2.71,2.71,0,0,1,40.19,161.33Z"/><path class="cls-3" d="M48.54,161.33h0a2.71,2.71,0,0,1-2.71-2.71V137.75a2.71,2.71,0,0,1,5.42,0v20.87A2.71,2.71,0,0,1,48.54,161.33Z"/><path class="cls-3" d="M56.89,161.33h0a2.72,2.72,0,0,1-2.71-2.71V137.75a2.71,2.71,0,0,1,5.42,0v20.87A2.71,2.71,0,0,1,56.89,161.33Z"/><path class="cls-3" d="M65.24,161.33h0a2.72,2.72,0,0,1-2.71-2.71V137.75a2.71,2.71,0,0,1,5.42,0v20.87A2.71,2.71,0,0,1,65.24,161.33Z"/><path class="cls-3" d="M73.6,161.33h0a2.71,2.71,0,0,1-2.71-2.71V137.75a2.71,2.71,0,0,1,5.41,0v20.87A2.71,2.71,0,0,1,73.6,161.33Z"/><path class="cls-3" d="M82,161.33h0a2.71,2.71,0,0,1-2.71-2.71V137.75a2.71,2.71,0,0,1,5.42,0v20.87A2.72,2.72,0,0,1,82,161.33Z"/><path class="cls-3" d="M90.3,161.33h0a2.71,2.71,0,0,1-2.71-2.71V137.75a2.71,2.71,0,0,1,5.42,0v20.87A2.72,2.72,0,0,1,90.3,161.33Z"/><path class="cls-3" d="M98.65,161.33h0a2.71,2.71,0,0,1-2.71-2.71V137.75a2.71,2.71,0,0,1,5.42,0v20.87A2.71,2.71,0,0,1,98.65,161.33Z"/><path class="cls-3" d="M107,161.33h0a2.71,2.71,0,0,1-2.71-2.71V137.75a2.71,2.71,0,0,1,5.42,0v20.87A2.71,2.71,0,0,1,107,161.33Z"/><path class="cls-3" d="M115.35,161.33h0a2.72,2.72,0,0,1-2.71-2.71V137.75a2.71,2.71,0,0,1,5.42,0v20.87A2.71,2.71,0,0,1,115.35,161.33Z"/><path class="cls-3" d="M123.7,161.33h0a2.72,2.72,0,0,1-2.71-2.71V137.75a2.71,2.71,0,0,1,5.42,0v20.87A2.71,2.71,0,0,1,123.7,161.33Z"/><path class="cls-3" d="M132.06,161.33h0a2.71,2.71,0,0,1-2.71-2.71V137.75a2.71,2.71,0,0,1,5.41,0v20.87A2.71,2.71,0,0,1,132.06,161.33Z"/><path class="cls-3" d="M140.41,161.33h0a2.71,2.71,0,0,1-2.71-2.71V137.75a2.71,2.71,0,0,1,5.42,0v20.87A2.72,2.72,0,0,1,140.41,161.33Z"/><path class="cls-3" d="M148.76,161.33h0a2.71,2.71,0,0,1-2.71-2.71V137.75a2.71,2.71,0,0,1,5.42,0v20.87A2.72,2.72,0,0,1,148.76,161.33Z"/><path class="cls-4" d="M94.47,220.89h0a3.31,3.31,0,0,1-3.31-3.31v-201a3.32,3.32,0,0,1,6.63,0v201A3.32,3.32,0,0,1,94.47,220.89Z"/><path class="cls-3" d="M94.47,222.59a5,5,0,0,1-5-5v-201a5,5,0,0,1,10,0v201A5,5,0,0,1,94.47,222.59ZM94.47,15a1.63,1.63,0,0,0-1.62,1.62v201a1.63,1.63,0,0,0,3.25,0v-201A1.63,1.63,0,0,0,94.47,15Z"/><rect class="cls-4" x="78.57" y="12.6" width="31.81" height="11.42"/><path class="cls-3" d="M110.38,25.72H78.57a1.7,1.7,0,0,1-1.7-1.7V12.6a1.69,1.69,0,0,1,1.7-1.69h31.81a1.69,1.69,0,0,1,1.69,1.69V24A1.7,1.7,0,0,1,110.38,25.72ZM80.26,22.33h28.42v-8H80.26Z"/><path class="cls-5" d="M139.85,229.82a12,12,0,0,1-2.52,6.49l-5.26,6.8L104,279.23a12.1,12.1,0,0,1-19.07,0l-5.89-7.59L64.31,252.7,51.62,236.31a11.83,11.83,0,0,1-2-11,12,12,0,0,1,11.52-8.45h66.61A12.1,12.1,0,0,1,139.85,229.82Z"/><path class="cls-3" d="M94.47,286a14.13,14.13,0,0,1-11.2-5.47L49.94,237.61a14,14,0,0,1-2.3-13,14.15,14.15,0,0,1,13.53-9.91h66.61a13.93,13.93,0,0,1,10.35,4.47A14.11,14.11,0,0,1,139,237.6l-33.33,42.92A14.13,14.13,0,0,1,94.47,286Zm-33.3-67A10,10,0,0,0,53.29,235l33.33,42.91a9.95,9.95,0,0,0,15.71,0L135.66,235a9.81,9.81,0,0,0,2.08-5.34h0a10.14,10.14,0,0,0-2.71-7.58,9.78,9.78,0,0,0-7.25-3.12Z"/><path class="cls-6" d="M84.49,232.88a6.06,6.06,0,1,1-6.06-6.06A6.06,6.06,0,0,1,84.49,232.88Z"/><path class="cls-3" d="M78.43,241.06a8.18,8.18,0,1,1,8.17-8.18A8.19,8.19,0,0,1,78.43,241.06Zm0-12.12a3.95,3.95,0,1,0,3.94,3.94A3.95,3.95,0,0,0,78.43,228.94Z"/><path class="cls-6" d="M82.51,263.19a12.13,12.13,0,0,1-3.46,8.45L64.31,252.7a11.79,11.79,0,0,1,6.09-1.65A12.12,12.12,0,0,1,82.51,263.19Z"/><path class="cls-3" d="M79.05,273.76h-.11a2.12,2.12,0,0,1-1.56-.81L62.64,254a2.14,2.14,0,0,1-.41-1.69,2.1,2.1,0,0,1,1-1.43,13.91,13.91,0,0,1,7.18-1.95,14.24,14.24,0,0,1,10.17,24.18A2.14,2.14,0,0,1,79.05,273.76Zm-11.4-20.22L79,268.18a10,10,0,0,0-8.64-15A10.09,10.09,0,0,0,67.65,253.54Z"/><circle class="cls-6" cx="101.43" cy="257.32" r="6.96"/><path class="cls-3" d="M101.43,266.4a9.08,9.08,0,1,1,9.08-9.08A9.08,9.08,0,0,1,101.43,266.4Zm0-13.92a4.84,4.84,0,1,0,4.85,4.84A4.84,4.84,0,0,0,101.43,252.48Z"/><circle class="cls-6" cx="109.46" cy="234.11" r="9.09"/><path class="cls-3" d="M109.46,245.32a11.21,11.21,0,1,1,11.2-11.21A11.22,11.22,0,0,1,109.46,245.32Zm0-18.18a7,7,0,1,0,7,7A7,7,0,0,0,109.46,227.14Z"/><path class="cls-6" d="M139.85,229.82a12,12,0,0,1-2.52,6.49l-5.26,6.8a7.79,7.79,0,0,1,7.78-13.29Z"/><path class="cls-3" d="M132.07,245.22a2.09,2.09,0,0,1-1.35-.48A9.91,9.91,0,0,1,137,227.16a9.82,9.82,0,0,1,3.67.7A2.12,2.12,0,0,1,142,230a14.16,14.16,0,0,1-3,7.63l-5.27,6.8a2.08,2.08,0,0,1-1.44.81ZM137,231.39a5.67,5.67,0,0,0-5,8.36l3.67-4.74a10,10,0,0,0,1.79-3.6Z"/><path class="cls-6" d="M63.21,218.15a8.69,8.69,0,0,1-8.68,8.69,8.33,8.33,0,0,1-4.88-1.54,12,12,0,0,1,11.52-8.45h1.92A7.23,7.23,0,0,1,63.21,218.15Z"/><path class="cls-3" d="M54.53,229A10.45,10.45,0,0,1,48.42,227a2.14,2.14,0,0,1-.79-2.37,14.17,14.17,0,0,1,13.54-9.92h1.92a2.12,2.12,0,0,1,2.09,1.74,9.43,9.43,0,0,1,.15,1.67A10.81,10.81,0,0,1,54.53,229Zm-2.2-4.61a6.4,6.4,0,0,0,2.2.38A6.57,6.57,0,0,0,61,219,9.78,9.78,0,0,0,52.33,224.34Z"/><path class="cls-7" d="M182.57,22.87C182.36,8.52,170,7.05,170,7.05l-.48,60.58V309.69c12.85-2.38,12.3-19.18,12.3-19.18Z"/></svg>