<svg xmlns="http://www.w3.org/2000/svg" viewBox="0 0 1311.34 894.2"><defs><style>.cls-1,.cls-5{fill:#fde5d2;}.cls-1,.cls-3,.cls-4{fill-rule:evenodd;}.cls-2,.cls-3{fill:#fff;}.cls-4,.cls-6{fill:#e6e7e8;}.cls-7{fill:#ffc98f;}.cls-8{fill:#f15a29;}.cls-9{fill:#fff200;}.cls-10{fill:#f05a28;}.cls-11{fill:#d96282;}.cls-12{fill:#26a9e0;}.cls-13{fill:none;stroke:#231f20;stroke-linecap:round;stroke-linejoin:round;stroke-width:10px;}</style></defs><g id="Layer_2" data-name="Layer 2"><path class="cls-1" d="M526.29,456.31S590.08,296.44,427.13,246c-79.27-24.52-177.85-16.76-254.1-25.46C92.49,211.36,36.4,186.39,36.4,186.39S28.19,255,117.8,290.31c46.11,18.17,121,21.42,121,21.42s-30.9,9.6-55.71,9.1-58.23-8.22-58.23-8.22,14.61,62.7,86.24,72.74,123.3-9.24,123.3-9.24-12.27,17.1-37.81,26.63-55.5,4.13-55.5,4.13,13.65,39.65,79.32,33.37c34.61-3.31,96.27-22.8,140.85-17.67C501.25,427.18,526.29,456.31,526.29,456.31Z"/><path d="M296.69,350.29l.25-.2.6-.77A8.08,8.08,0,0,1,296.69,350.29Z"/><path d="M524.65,261.87C482,221,423.75,203.82,366.44,196.77c-63.69-7.84-128.12-4.63-191.82-12.05a495.84,495.84,0,0,1-92.49-19.54c-7.76-2.46-15.47-5.09-23.08-8-6.68-2.56-13.82-5.52-21-6-14.23-1-27.38,6.29-33.23,19.51-10.89,24.61-1.37,56.11,11,78.46a160.16,160.16,0,0,0,52.07,55.91c5.3,3.49,11.38,6.17,16.43,10,4,3,6.35,7.66,7.87,12.4a126.29,126.29,0,0,0,18.21,36.12c16.84,23.24,41.45,41.77,68.7,51a163.41,163.41,0,0,0,20.28,5.08c5.79,1.18,10.24,3.84,13.21,9.06a87.56,87.56,0,0,0,28.94,30.4c25.71,16.46,56.34,19.47,86.14,16.35,31.45-3.3,61.79-13.18,93.24-16.51,13.69-1.45,28.11-2.82,41.71,0,12.51,2.63,26.16,9.51,35,18.92,5.07,5.39,9.85,10.65,17.24,12.72a38.06,38.06,0,0,0,19.07.8A37.43,37.43,0,0,0,552.31,481c4.87-5.26,7.41-11.95,9.74-18.61a226.1,226.1,0,0,0,11.82-88.94C570.64,332,555.13,291.06,524.65,261.87ZM299,347.32a4.56,4.56,0,0,1-1.51,2.37l0,0,0,0c-.19.17-.39.34-.6.5a4.91,4.91,0,0,1-1.24.9l-.1,0a4.53,4.53,0,0,1-.86.34,4.8,4.8,0,0,1-1.19.16l-.14,0c-.12,0-.23,0-.34,0l-.47-.05-.49-.11c-.16-.05-.32-.09-.47-.15a3.3,3.3,0,0,1-.43-.19l-.33-.15-.13-.1c-.13-.08-.24-.17-.36-.26s-.27-.21-.39-.32l-.13-.11c-.08-.07-.13-.17-.21-.25s-.21-.24-.3-.37a3.34,3.34,0,0,1-.25-.4c-.09-.15-.17-.3-.25-.46s-.1-.26-.15-.4-.09-.21-.12-.32-.05-.21-.07-.31a.64.64,0,0,0,0-.07,5.64,5.64,0,0,1-.09-.93v0a4.53,4.53,0,0,1,.49-2.2,3.63,3.63,0,0,1,1-1.32L290,343a5.82,5.82,0,0,1,.45-.4,13.16,13.16,0,0,1,1.21-.93,5,5,0,0,1,6.06.78A5.11,5.11,0,0,1,299,347.32Zm187.2,34a181.19,181.19,0,0,0-34.41-5.27c-21.93-1-43.63,1.78-65.16,5.73-3.23.59-6.24-1.37-6.33-4.82-.6-21.13-14-39.93-34.81-45.53a40.58,40.58,0,0,0-13.77-1.55c-5.26.41-9.87,2.36-14.85,3.91a172.49,172.49,0,0,1-33.55,7.05c-4,.4-5.94-4.49-4.31-7.53a45.32,45.32,0,0,0-7.23-52.92c-2.89-3-1-8.73,3.54-8.53,46,2,92.76,4,137.09,17.51,19.79,6,39.59,14.74,54.52,29.47,15.56,15.35,24.25,35.86,25.59,57.66C492.71,379.86,489.17,382.1,486.18,381.35Z"/><path class="cls-2" d="M302,351.72l.07-.09-1.56,2,.56-.45-2,1.57a1.39,1.39,0,0,1,.19-.15l-14.69-11.29h0l2.57-4.41a10.56,10.56,0,0,1-.82.68l-1.57,2a10,10,0,0,0,8.64,15.05l2.66-.36a10,10,0,0,0,4.41-2.57,9.32,9.32,0,0,0,3.4-5.09,10.2,10.2,0,0,0-2.57-9.73,10.08,10.08,0,0,0-12.12-1.57c-.72.44-2.38,1.84-2.22,1.71a11.76,11.76,0,0,0-2.2,2.56c-.33.8-.67,1.6-1,2.39a10.21,10.21,0,0,0,0,5.32,10,10,0,0,0,12.31,7l2.38-1A10,10,0,0,0,302,351.72Z"/><path class="cls-2" d="M395.28,377c-.73-25.89-15.35-47.59-39.21-57.62a55.31,55.31,0,0,0-33.86-3.07c-6.23,1.4-12.23,4-18.46,5.63a140.87,140.87,0,0,1-20.45,3.94l8.64,15a60.75,60.75,0,0,0-9.57-71.09q-3.54,8.54-7.07,17.07c42.29,1.84,84.74,3.8,125.81,14.88,18,4.87,37.48,11.6,51.62,24.35a77.93,77.93,0,0,1,16.84,21.14c4.7,8.58,7.33,19.55,7.93,29.27l12.66-9.64c-35.77-9-71.64-6.13-107.54.45-5.37,1-8.34,7.4-7,12.31,1.54,5.59,6.95,8,12.31,7,32.27-5.92,64.76-8.55,96.91-.46,6,1.51,13.07-3,12.65-9.64-1.42-23.12-10.53-44.9-27.06-61.2-15.54-15.33-36.11-24.46-56.72-30.75-44.74-13.66-92-15.67-138.42-17.69-9-.39-12.86,11-7.07,17.07a40.18,40.18,0,0,1,6.44,46.86c-3.24,6.08.65,15.86,8.63,15.05a179,179,0,0,0,34.88-7.23c4.49-1.39,8.78-3.36,13.52-3.73a36,36,0,0,1,12.44,1.37c18.63,5,30.6,21.78,31.14,40.71C375.64,389.86,395.64,389.89,395.28,377Z"/><path class="cls-3" d="M526.29,456.31S590.08,296.44,427.13,246c-79.27-24.52-177.85-16.76-254.1-25.46C92.49,211.36,36.4,186.39,36.4,186.39S28.19,255,117.8,290.31c46.11,18.17,121,21.42,121,21.42s-30.9,9.6-55.71,9.1-58.23-8.22-58.23-8.22,14.61,62.7,86.24,72.74,123.3-9.24,123.3-9.24-12.27,17.1-37.81,26.63-55.5,4.13-55.5,4.13,13.65,39.65,79.32,33.37c34.61-3.31,96.27-22.8,140.85-17.67C501.25,427.18,526.29,456.31,526.29,456.31Z"/><path class="cls-4" d="M427.13,246c-79.27-24.52-177.85-16.76-254.1-25.46C92.49,211.36,36.4,186.39,36.4,186.39s-2.28,19.06,8.67,42.25a546,546,0,0,0,117.8,26.88c76.25,8.7,174.84.94,254.1,25.46,114.12,35.31,117,124.3,108.54,174.46l.78.87S590.08,296.44,427.13,246Z"/><path class="cls-1" d="M785.1,456.31S721.31,296.44,884.26,246c79.26-24.52,177.85-16.76,254.1-25.46,80.53-9.19,136.63-34.16,136.63-34.16s8.21,68.65-81.4,103.92c-46.12,18.17-121,21.42-121,21.42s30.9,9.6,55.72,9.1,58.23-8.22,58.23-8.22-14.61,62.7-86.25,72.74S977,376.11,977,376.11s12.27,17.1,37.81,26.63,55.49,4.13,55.49,4.13-13.65,39.65-79.31,33.37c-34.61-3.31-96.28-22.8-140.86-17.67C810.13,427.18,785.1,456.31,785.1,456.31Z"/><path d="M1235.53,309.84A189.06,189.06,0,0,0,1251.87,299c22.45-16.8,41-39.23,51.24-65.53,9-23.09,15.16-57.54-6.56-75.71-19.19-13.68-40.51-1.39-60.07,5.13A478.41,478.41,0,0,1,1168.86,180c-63.48,11.21-128.08,8.74-192.11,13.76-59.36,4.65-124.71,15-172.8,53-22.11,17.48-41.14,39-52.25,65.18-11.76,27.67-16.28,58.69-14.3,88.61a236.68,236.68,0,0,0,7.6,47.31c3.14,11.27,6,24.71,14.63,33.17,7.28,7.09,17.28,11.71,27.58,11.35a31.67,31.67,0,0,0,15.42-4.3c5.56-3.39,9.3-8.68,14.19-12.85a69.68,69.68,0,0,1,37.5-16.76c15-2,30.36-.55,45.32,1.62,31.12,4.52,61.49,13.73,93,15.58,28.78,1.69,57.95-1.78,81.72-19.41a91.77,91.77,0,0,0,15.92-14.9,82.85,82.85,0,0,0,6.14-8.4c1.62-2.57,2.94-5.72,5-8,4.45-4.76,10.73-5.16,16.74-6.57a141.62,141.62,0,0,0,20-6.14A143.54,143.54,0,0,0,1204,359.4a130.94,130.94,0,0,0,11.47-20.48c2.55-5.82,3.48-12.4,6.26-18.05C1224.64,314.91,1230.18,313.05,1235.53,309.84Zm-189.1-22.33a34.5,34.5,0,0,0-7.74,13.11,35.48,35.48,0,0,0-.74,19.06c1.33,5.1,5.06,10,5.08,15.36a16.18,16.18,0,0,1-6,13.21c-4.72,3.62-10.2,2.56-15.69,1.81a167.19,167.19,0,0,1-24.08-4.93c-6.79-2-13.71-5.19-20.91-5a36.48,36.48,0,0,0-29.79,17.79,39.13,39.13,0,0,0-5.45,16.59c-.39,5.4-1,10-5.15,13.85-4.46,4.12-10.32,4.06-15.9,3.09-7.78-1.36-15.58-2.61-23.43-3.5-15.81-1.79-31.94-2.87-47.8-1.08-4.55.51-9.08,1.19-13.55,2.14-3.25.69-6.61,1.92-9.93,2.11a16,16,0,0,1-13.22-5.54c-4.22-4.89-3.25-11.11-2.45-17A98.14,98.14,0,0,1,813.87,350,96.3,96.3,0,0,1,833,316.43c18.89-21,45.77-32.32,72.61-39.28,30.7-8,62.32-11.48,93.91-13.42q12.42-.76,24.84-1.32c5.7-.26,13.09-1.9,18.37,1,8.68,4.81,9.89,15.79,4.29,23.29A5.78,5.78,0,0,1,1046.43,287.51Z"/><path class="cls-3" d="M785.1,456.31S721.31,296.44,884.26,246c79.26-24.52,177.85-16.76,254.1-25.46,80.53-9.19,136.63-34.16,136.63-34.16s8.21,68.65-81.4,103.92c-46.12,18.17-121,21.42-121,21.42s30.9,9.6,55.72,9.1,58.23-8.22,58.23-8.22-14.61,62.7-86.25,72.74S977,376.11,977,376.11s12.27,17.1,37.81,26.63,55.49,4.13,55.49,4.13-13.65,39.65-79.31,33.37c-34.61-3.31-96.28-22.8-140.86-17.67C810.13,427.18,785.1,456.31,785.1,456.31Z"/><path class="cls-4" d="M893.29,284.37c79.26-24.53,177.85-16.77,254.1-25.47a545.35,545.35,0,0,0,117.12-26.64c13-24.79,10.48-45.87,10.48-45.87s-56.09,25-136.63,34.16c-76.25,8.7-174.83.94-254.1,25.46-148.68,46-108.6,183.12-100.44,206.78C776.65,401.81,783.62,318.3,893.29,284.37Z"/><path class="cls-5" d="M796.33,729.81a800,800,0,0,1-40.52-69.43c-20.64-39.77-34.9-76.92-34.9-76.92l-65.25,36.37-65.24-36.37s-14.26,37.15-34.9,76.92A798.38,798.38,0,0,1,515,729.81a21.51,21.51,0,0,0,1.88,22.51c8.26,11.26,24.39,11.26,24.39,11.26s-5.81,22.33,7.69,32.09,31,8.81,31,8.81-7.5,18,9.38,28.52a31.7,31.7,0,0,0,31.9,1.5s5.62,24,34.42,24,34.53-24,34.53-24A31.68,31.68,0,0,0,722,833c16.89-10.5,9.39-28.52,9.39-28.52s17.44.94,31-8.81,7.69-32.09,7.69-32.09,16.14,0,24.4-11.26A21.52,21.52,0,0,0,796.33,729.81Z"/><path d="M800.84,802c1.4-3.1,2-6.52,3.56-9.55,2.94-5.78,8.76-8.12,13.25-12.46a52.28,52.28,0,0,0,10.74-14.32,57.92,57.92,0,0,0,4.71-36.36c-1.37-7-3.23-13.32-7-19.51-3.3-5.48-7.11-10.64-10.5-16.06-8.2-13.11-15.87-26.57-23.15-40.2-8.63-16.28-16.59-32.91-24.09-49.74q-5.82-13.05-11.39-26.23c-2.81-6.65-5.53-13.6-10.62-18.91a35,35,0,0,0-36-9.39c-7.58,2.42-14.51,7.1-21.42,11-6.58,3.7-13.34,7.18-19.76,11.14-5.43,3.35-11.87,7-18.4,4.39s-12.25-6.46-18.23-9.8c-7.46-4.16-14.87-8.44-22.4-12.48-6.34-3.41-13.43-5.91-20.73-5.71-14.74.4-25.36,9-31.63,21.94-6.93,14.32-12.3,29.34-19.09,43.73-13.45,28.52-27.93,57.25-45.38,83.57-7.71,11.62-15.39,22.75-16.16,37.13-.79,14.6,1.88,29.74,11.78,41.07a55.34,55.34,0,0,0,8.25,8.3,40.5,40.5,0,0,1,6.89,5.84c3.75,4.4,4.35,10.86,7.16,15.85a61,61,0,0,0,15,17.62c5.39,4.34,11.76,6.93,17.23,11,5.19,3.86,7.41,10.12,11.14,15.2a55.41,55.41,0,0,0,14.19,13.55,66.23,66.23,0,0,0,19.72,8.71c6.12,1.58,13,1.27,18.42,4.8,6,3.87,11.42,8.37,18,11.25a81.26,81.26,0,0,0,19.26,5.75c13.59,2.21,28.38,1.07,41-4.71,6.36-2.9,11.52-6.93,17.31-10.72,5.52-3.61,10.91-4.54,17.19-6.09,12.89-3.19,26.44-10,35.31-20.08,4-4.59,5.82-10.68,9.91-15.09s10.66-6.08,15.6-9.43A52.55,52.55,0,0,0,796,810.86,77.72,77.72,0,0,0,800.84,802Zm-55.41-63.91A37.91,37.91,0,0,0,737,751.31c-1.52,4.32-1.86,9.35-4.8,13-3.2,4-7.53,4.53-12.06,6.19a37,37,0,0,0-12.76,7.58,45.14,45.14,0,0,0-8.53,11.71c-2,3.67-4.59,7.13-8.68,8.57-4.54,1.6-9.33,1.74-13.82,3.45,6.2,4.65,8.87,11.76,6,19a5,5,0,0,1-.72,1.62,5.11,5.11,0,0,1-1.14,1.5c-4.82,5.73-13.27,8.15-20,3.64-5-3.38-8.83-9.71-7.5-16-6.81-1.61-12.27-8.06-19.45-10.32-4.54-1.43-10.64-1.08-14.61-3.89-4.21-3-5.51-6.73-8.15-10.91-5.84-9.26-13.77-13.84-23.87-17.24-4.34-1.47-8.61-4.51-10-9.1-1.57-5-2.51-10-5.31-14.56-3.34-5.47-9.11-9.51-10-16.18s3.37-12.13,6.6-17.73C576,698,583.6,684.1,590.71,670c3.67-7.27,6.75-15.06,10.8-22.11a14.35,14.35,0,0,1,12.2-7.35c6.58-.06,11.51,4,17,7,6.12,3.33,12.58,6.6,19.55,7.67,15.1,2.3,27.22-6.91,39.94-13.24a15.67,15.67,0,0,1,15.42,1.29c5.15,3.51,7.15,11.25,9.75,16.6,6.91,14.2,14.17,28.24,21.91,42,6.09,10.84,17.83,23.52,8.72,35.44A5.5,5.5,0,0,1,745.43,738.13Z"/><path class="cls-2" d="M796.33,729.81a800,800,0,0,1-40.52-69.43c-20.64-39.77-34.9-76.92-34.9-76.92l-65.25,36.37-65.24-36.37s-14.26,37.15-34.9,76.92A798.38,798.38,0,0,1,515,729.81a21.51,21.51,0,0,0,1.88,22.51c8.26,11.26,24.39,11.26,24.39,11.26s-5.81,22.33,7.69,32.09,31,8.81,31,8.81-7.5,18,9.38,28.52a31.7,31.7,0,0,0,31.9,1.5s5.62,24,34.42,24,34.53-24,34.53-24A31.68,31.68,0,0,0,722,833c16.89-10.5,9.39-28.52,9.39-28.52s17.44.94,31-8.81,7.69-32.09,7.69-32.09,16.14,0,24.4-11.26A21.52,21.52,0,0,0,796.33,729.81Z"/><path d="M731,228.69c-5.87-30.2,24.54-34.69,26-84.89,1-34.64-5.5-107.56-101.26-107.56S553.47,109.16,554.44,143.8c1.41,50.2,31.82,54.69,25.95,84.89-8,41-67.28,125.41-64.3,197.08,2.75,66.4,48.42,133.73,138.75,133.73h1.72c90.33,0,136-67.33,138.75-133.73C798.28,354.1,739,269.73,731,228.69Z"/><path d="M773.06,242.56c-3.83-8.36-8.42-18.79-3-27.51,12.43-19.89,21-41.24,22.42-64.84,1.7-29.48-2-60.83-16.63-87-13.75-24.59-35.62-42.69-62-52.45C668-6.15,609-4.44,568.47,25.18,546.76,41.05,532.11,64.87,525,90.6c-7.72,27.91-9.84,59.38-1.36,87.37a128.78,128.78,0,0,0,9.07,22.45c3.13,6,8.36,11.92,10.32,18.36,2.08,6.8-.5,13.13-3,19.48-2.63,6.77-5.52,13.44-8.56,20.05-13.16,28.62-27.26,57-37.33,86.93s-15.8,61.17-13,92.69a178.13,178.13,0,0,0,29.11,82.68,167.78,167.78,0,0,0,125.14,73.75c51.8,4.3,107.14-8.77,144.33-47s55.36-92.77,50.77-145.51c-4.37-45.53-24.3-87.36-43.37-128.28C782.33,263.27,777.78,252.87,773.06,242.56ZM749,433.26c0,.23-.06.45-.1.67s0,.43-.08.65A158.32,158.32,0,0,1,744.28,453,89.34,89.34,0,0,1,722,489.71a5.87,5.87,0,0,1-.36.81,5.12,5.12,0,0,1-.87,1.1,52.77,52.77,0,0,1-5.25,4.17c-.14.11-.29.21-.44.31a3.64,3.64,0,0,1-1.06.48,75.63,75.63,0,0,1-24.09,12.24c-28.58,8.49-61.29,6.93-87.17-8.63a4.12,4.12,0,0,1-2-.77c-1.06-.76-2.08-1.59-3.12-2.39a5.14,5.14,0,0,1-.88-.86c-20.26-15.1-33.25-41.88-34.53-66.7-.82-15.8,1.22-30.45,5.48-45.64a313.86,313.86,0,0,1,15.18-43c12.49-28,27.45-55.11,37.21-84.27,4.76-14.21,8.77-29.88,6.35-45-2.23-13.93-8.06-27.73-15.48-39.66-4.18-6.72-8.12-12.71-9.85-20.54-1.54-7-1.11-14.86-.69-22,.8-13.38,4.25-27.9,14.63-37.12C625.1,83.28,641.9,82,654.73,82c8,0,15.92.3,23.74,2.32,5,1.29,10.73,2.8,15.23,5.78a5,5,0,0,1,2.14.65,5.37,5.37,0,0,1,1.75,1.67,4.91,4.91,0,0,1,.43.48c.09.12.17.24.25.37l.11.16h0c0,.06.11.11.15.17s.15.19.23.29a4.91,4.91,0,0,1,.39.51c.4.52.81,1,1.2,1.57a3.45,3.45,0,0,1,.59,1.4c7.15,9.6,9.77,21.84,10.2,33.88.29,8,.5,16.06-1.7,23.81-2,7.08-6.39,13.07-10.15,19.32-7.59,12.63-13.18,26.13-14,41a107.78,107.78,0,0,0,6.38,42.4c10.53,29.36,26.26,56.6,38,85.47a351.58,351.58,0,0,1,15.05,44c2,7.61,4,15.39,4.48,23.26A167.4,167.4,0,0,1,749,433.26Z"/><path class="cls-2" d="M703.11,91.46c-.4-.48-.79-1-1.18-1.45l-12.12,15.71.14.09-2-1.57c.08.1.15.2.23.29l-1.56-2,.81,1.07,1.57,2a9.94,9.94,0,0,0,4.41,2.57,10,10,0,0,0,12.3-7l.36-2.66a9.94,9.94,0,0,0-1.37-5l-.7-.93c-1.57-2-1.89-2.68-4.06-4.11a10,10,0,0,0-15,8.63l.36,2.66a10,10,0,0,0,2.57,4.41l1.18,1.46,2,1.56a9.94,9.94,0,0,0,5,1.36,10,10,0,0,0,10-10l-.36-2.65A10,10,0,0,0,703.11,91.46Z"/><path class="cls-2" d="M699.11,87.36l-.18-.14,2,1.57-.3-.39,1.56,2c-.08-.12-.18-.23-.26-.36.34.8.67,1.6,1,2.39h0l-14.69,11.3h0l-2-1.56a8,8,0,0,1,.74.88l2,1.56a9.94,9.94,0,0,0,5,1.36,10,10,0,0,0,10-10l-.36-2.65a9.94,9.94,0,0,0-2.57-4.42,7.6,7.6,0,0,0-2.77-2.44,10,10,0,0,0-13.68,3.58c-.34.8-.67,1.6-1,2.39a10.21,10.21,0,0,0,0,5.32,10.42,10.42,0,0,0,1.2,2.66c.6.79,1.21,1.57,1.83,2.35a11.52,11.52,0,0,0,2.31,1.85l2.39,1a10.21,10.21,0,0,0,5.32,0,10,10,0,0,0,7-12.3c-.33-.8-.67-1.6-1-2.39A9.94,9.94,0,0,0,699.11,87.36Z"/><path class="cls-2" d="M596,502.13q2.38,1.81.08,0l12.12-15.71c-.33-.23-1.23-.92-.08,0-4.31-3.33-9.93-4.22-14.14,0-3.49,3.48-4.32,10.8,0,14.14,1.37,1.06,2.72,2.16,4.13,3.16,9.21,6.58,21-8.69,12.12-15.7-1.37-1.08-2.75-2.12-4.14-3.17-4.36-3.29-11.16-.7-13.68,3.59C589.45,493.57,591.7,498.86,596,502.13Z"/><path class="cls-2" d="M707.9,482.84l-.44.31,12.12,15.7c1.4-1.14,2.8-2.29,4.23-3.4l-2,1.56a2.55,2.55,0,0,1,.53-.38l-2.39,1h0l-2.66.36h0L708.64,493h0c-.34-2.57-.67-5.14-1-7.71h0c.34-.8.67-1.6,1-2.39h0l1.57-2a7,7,0,0,1-1.05.91c-.67.56-1.36,1.11-2,1.65l2-1.56c-.4.31-.8.61-1.22.91l-2,1.56a10,10,0,0,0-1.56,12.12,10.06,10.06,0,0,0,6,4.6l2.66.35a9.94,9.94,0,0,0,5-1.36c1.53-1.1,3-2.28,4.49-3.46.6-.49,1.21-1,1.77-1.5a9,9,0,0,0,1.65-2.11,10,10,0,0,0,0-10.1,10.34,10.34,0,0,0-6-4.59,10,10,0,0,0-5.32,0,7.11,7.11,0,0,0-2.87,1.36q-3.19,2.44-6.31,5a10,10,0,0,0,4.42,16.72,9.76,9.76,0,0,0,7.7-1l.45-.31,2-1.56a9.94,9.94,0,0,0,2.57-4.42,10,10,0,0,0-7-12.3l-2.66-.36A10.07,10.07,0,0,0,707.9,482.84Z"/><path class="cls-2" d="M720.12,469.24c-7.79,9.58-16.88,19.13-28.87,23.37-6.58,2.34-14.06,5-21,5.54a183.42,183.42,0,0,1-25.14.27c-7.27-.38-14.34-2.45-21.27-4.6a49,49,0,0,1-9.31-4.13c-1.58-.87-3.13-1.8-4.67-2.73q-1.54-.94-3.06-1.92-2.58-1.83-.84-.42c-9.91-8.34-18.69-19.09-23-31.47a158.37,158.37,0,0,1-5.53-20.79c-1.5-7.47-.57-16.18,0-23.73.49-6.92,2.92-14.15,4.74-20.82,2.11-7.71,4.63-15.31,7.32-22.84,10.3-28.84,25.45-55.68,37.29-83.89,11.68-27.85,20.64-57.81,10.56-87.57a179.55,179.55,0,0,0-8.14-19.81c-3.33-7-7.94-13.32-11.82-20-3.28-5.67-2.26-14.29-2.1-20.52.17-7,.85-15.69,4.16-22a24.46,24.46,0,0,1,4-6.14c.13-.14,3.67-2.81,1.67-1.54,1.32-.84,2.7-1.59,4.07-2.34,6.17-3.37,14.88-3.78,21.72-4,7.28-.25,14.8-.32,21.92,1.3,5.37,1.22,13.68,3.62,16.21,7.41a44,44,0,0,1,6.83,19.81c.62,7.58,1.44,16.22-.36,23.67-1.69,7-6.39,13-10.08,19.16a119.37,119.37,0,0,0-10.22,21.66c-7.93,22.38-5.91,47.8,1.49,70,8.08,24.2,20.31,47.29,31,70.43s19.81,46.68,25.23,71.56c5.25,24.1-.76,48.89-14.27,69.16C711.38,482,728.71,492,735.83,481.35c8.59-12.89,13.84-26.58,17.08-41.7,3.39-15.85,1.63-32.7-2-48.31-7.24-30.9-20.78-59.55-34-88.22-12.17-26.34-26.75-53-26.71-82.71,0-13.71,4-26.7,10.6-38.61,3.65-6.55,7.86-12.77,11.43-19.37,4.09-7.55,4.11-17.15,4.1-25.47,0-15.17-2.27-33.25-13-44.91s-27.77-14.43-42.77-14.94c-15.62-.54-31.92.88-45.59,9.08-12.27,7.36-18.1,24-19.22,37.56a173,173,0,0,0-.4,22.65c.43,8.8,3.82,16.19,8.38,23.53,7.44,12,13.68,24.35,16.92,38.18s.38,28.66-3.75,42c-4.45,14.33-10.37,28.14-16.63,41.75-24.62,53.57-62.37,118-32.12,177,6.13,12,14.87,24,26,31.76,13,9,27,14,42.46,17,7.72,1.48,16.11,1.2,23.93,1a109.83,109.83,0,0,0,25.25-3.48,87.13,87.13,0,0,0,39.15-21.31,110.34,110.34,0,0,0,9.32-10.49c3.44-4.23,4.15-10,0-14.14C730.71,465.68,723.57,465,720.12,469.24Z"/><path class="cls-2" d="M731,228.69c-5.87-30.2,24.54-34.69,26-84.89,1-34.64-5.5-107.56-101.26-107.56S553.47,109.16,554.44,143.8c1.41,50.2,31.82,54.69,25.95,84.89-8,41-67.28,125.41-64.3,197.08,2.75,66.4,48.42,133.73,138.75,133.73h1.72c90.33,0,136-67.33,138.75-133.73C798.28,354.1,739,269.73,731,228.69Z"/><path class="cls-6" d="M529.62,425.77c-3-71.67,56.33-156,64.3-197.08,5.87-30.2-24.53-34.69-25.94-84.89-1-33.8,5.2-104,94.49-107.42-2.21-.08-4.46-.14-6.77-.14-95.77,0-102.23,72.92-101.26,107.56,1.41,50.2,31.82,54.69,25.95,84.89-8,41-67.28,125.41-64.3,197.08,2.75,66.4,48.42,133.73,138.75,133.73h1.72q3,0,5.91-.11C576.05,556.52,532.31,490.7,529.62,425.77Z"/><path class="cls-6" d="M781.77,425.77c3-71.67-56.32-156-64.3-197.08C711.6,198.49,742,194,743.42,143.8c1-33.8-5.2-104-94.49-107.42,2.21-.08,4.45-.14,6.77-.14,95.76,0,102.23,72.92,101.26,107.56-1.41,50.2-31.82,54.69-26,84.89,8,41,67.27,125.41,64.3,197.08-2.75,66.4-48.42,133.73-138.75,133.73h-1.72q-3,0-5.91-.11C735.34,556.52,779.08,490.7,781.77,425.77Z"/><path class="cls-5" d="M556.12,601a5.2,5.2,0,0,1-5.21,5.2h0a5.2,5.2,0,0,1-5.2-5.2V577.79a5.2,5.2,0,0,1,5.2-5.21h0a5.21,5.21,0,0,1,5.21,5.21Z"/><path d="M571.42,551.34c-7.46-6.23-18.69-7.86-28-5.55-10.48,2.59-18.72,8.59-23.13,18.67-2.21,5-2.31,11.15-2.49,16.56-.23,6.9-.44,13.94-.09,20.84a35.92,35.92,0,0,0,14,26.61c7.52,5.85,19.36,6.72,28.32,4.18,9.47-2.69,18.46-8.92,21.79-18.67,3.85-11.26,2.47-23.61,2.47-35.33A35.82,35.82,0,0,0,571.42,551.34Z"/><path class="cls-5" d="M583.26,601a5.2,5.2,0,0,1-5.21,5.2h0a5.2,5.2,0,0,1-5.2-5.2V577.79a5.2,5.2,0,0,1,5.2-5.21h0a5.21,5.21,0,0,1,5.21,5.21Z"/><path d="M598.56,551.34c-7.46-6.23-18.7-7.85-28-5.55-10.48,2.59-18.73,8.59-23.13,18.66-2.21,5.06-2.31,11.16-2.49,16.57-.23,6.9-.44,13.94-.09,20.84a35.92,35.92,0,0,0,14,26.61c7.52,5.85,19.36,6.72,28.32,4.18,9.47-2.69,18.46-8.92,21.79-18.67,3.85-11.26,2.47-23.61,2.47-35.33A35.82,35.82,0,0,0,598.56,551.34Z"/><path class="cls-7" d="M575.45,601V577.79a5.21,5.21,0,0,1,3.9-5,5.51,5.51,0,0,0-1.3-.17,5.2,5.2,0,0,0-5.2,5.21V601a5.2,5.2,0,0,0,5.2,5.2,5,5,0,0,0,1.3-.17A5.2,5.2,0,0,1,575.45,601Z"/><path class="cls-8" d="M580.65,601V577.79a5.2,5.2,0,0,0-3.9-5,5.65,5.65,0,0,1,1.3-.17,5.21,5.21,0,0,1,5.21,5.21V601a5.2,5.2,0,0,1-5.21,5.2,5.15,5.15,0,0,1-1.3-.17A5.19,5.19,0,0,0,580.65,601Z"/><path class="cls-7" d="M548.31,601V577.79a5.21,5.21,0,0,1,3.9-5,5.51,5.51,0,0,0-1.3-.17,5.2,5.2,0,0,0-5.2,5.21V601a5.2,5.2,0,0,0,5.2,5.2,5,5,0,0,0,1.3-.17A5.2,5.2,0,0,1,548.31,601Z"/><path class="cls-8" d="M553.51,601V577.79a5.2,5.2,0,0,0-3.9-5,5.58,5.58,0,0,1,1.3-.17,5.21,5.21,0,0,1,5.21,5.21V601a5.2,5.2,0,0,1-5.21,5.2,5.09,5.09,0,0,1-1.3-.17A5.19,5.19,0,0,0,553.51,601Z"/><path class="cls-5" d="M738.59,601a5.2,5.2,0,0,1-5.21,5.2h0a5.2,5.2,0,0,1-5.2-5.2V577.79a5.2,5.2,0,0,1,5.2-5.21h0a5.21,5.21,0,0,1,5.21,5.21Z"/><path d="M753.89,551.34c-7.46-6.23-18.69-7.86-28-5.55-10.49,2.59-18.73,8.59-23.13,18.66-2.22,5.06-2.32,11.16-2.5,16.57-.22,6.9-.43,13.94-.08,20.84a35.92,35.92,0,0,0,14,26.61c7.52,5.85,19.36,6.72,28.32,4.18,9.47-2.69,18.46-8.92,21.79-18.67,3.85-11.26,2.47-23.61,2.47-35.33A35.82,35.82,0,0,0,753.89,551.34Z"/><path class="cls-5" d="M765.73,601a5.2,5.2,0,0,1-5.21,5.2h0a5.2,5.2,0,0,1-5.2-5.2V577.79a5.2,5.2,0,0,1,5.2-5.21h0a5.21,5.21,0,0,1,5.21,5.21Z"/><path d="M781,551.34c-7.46-6.23-18.7-7.86-28-5.55-10.49,2.59-18.73,8.59-23.13,18.67-2.22,5-2.32,11.15-2.5,16.56-.22,6.9-.43,13.94-.08,20.84a35.92,35.92,0,0,0,14,26.61c7.52,5.85,19.36,6.72,28.32,4.18C779,630,788,623.73,791.33,614c3.85-11.26,2.47-23.61,2.47-35.33A35.82,35.82,0,0,0,781,551.34Z"/><path class="cls-7" d="M757.92,601V577.79a5.21,5.21,0,0,1,3.9-5,5.51,5.51,0,0,0-1.3-.17,5.2,5.2,0,0,0-5.2,5.21V601a5.2,5.2,0,0,0,5.2,5.2,5,5,0,0,0,1.3-.17A5.2,5.2,0,0,1,757.92,601Z"/><path class="cls-8" d="M763.12,601V577.79a5.21,5.21,0,0,0-3.9-5,5.58,5.58,0,0,1,1.3-.17,5.21,5.21,0,0,1,5.21,5.21V601a5.2,5.2,0,0,1-5.21,5.2,5.09,5.09,0,0,1-1.3-.17A5.2,5.2,0,0,0,763.12,601Z"/><path class="cls-7" d="M730.78,601V577.79a5.21,5.21,0,0,1,3.9-5,5.51,5.51,0,0,0-1.3-.17,5.2,5.2,0,0,0-5.2,5.21V601a5.2,5.2,0,0,0,5.2,5.2,5,5,0,0,0,1.3-.17A5.2,5.2,0,0,1,730.78,601Z"/><path class="cls-8" d="M736,601V577.79a5.21,5.21,0,0,0-3.9-5,5.58,5.58,0,0,1,1.3-.17,5.21,5.21,0,0,1,5.21,5.21V601a5.2,5.2,0,0,1-5.21,5.2,5.09,5.09,0,0,1-1.3-.17A5.2,5.2,0,0,0,736,601Z"/><path class="cls-9" d="M555.78,601.4a4.8,4.8,0,0,1-4.79,4.79h0a4.79,4.79,0,0,1-4.79-4.79V577.56a4.78,4.78,0,0,1,4.79-4.79h0a4.79,4.79,0,0,1,4.79,4.79Z"/><path class="cls-9" d="M582.74,601.4a4.79,4.79,0,0,1-4.79,4.79h0a4.79,4.79,0,0,1-4.78-4.79V577.56a4.78,4.78,0,0,1,4.78-4.79h0a4.78,4.78,0,0,1,4.79,4.79Z"/><path class="cls-9" d="M738.21,601.4a4.8,4.8,0,0,1-4.79,4.79h0a4.8,4.8,0,0,1-4.79-4.79V577.56a4.79,4.79,0,0,1,4.79-4.79h0a4.79,4.79,0,0,1,4.79,4.79Z"/><path class="cls-9" d="M765.28,601.4a4.79,4.79,0,0,1-4.78,4.79h0a4.8,4.8,0,0,1-4.8-4.79V577.56a4.79,4.79,0,0,1,4.8-4.79h0a4.78,4.78,0,0,1,4.78,4.79Z"/><path d="M676.15,162.49l-12.76-15a9.57,9.57,0,0,0-.88-1,8.38,8.38,0,0,0-6.77-2.78,8.48,8.48,0,0,0-6.76,2.78,12.53,12.53,0,0,0-.83,1l-12.91,15.05a10,10,0,0,0-2.8,6.76,9.64,9.64,0,0,0,2.8,6.77L649,189.91a9.64,9.64,0,0,0,13.53,0L676.15,176a9.65,9.65,0,0,0,2.81-6.77A10.06,10.06,0,0,0,676.15,162.49Z"/><path d="M685.13,153.51c-5.42-6.35-10.82-15.32-18.16-19.62a22.52,22.52,0,0,0-25,2c-6.56,5.45-12.66,13.31-17.68,20.2a22,22,0,0,0,0,26.34c10.59,13.89,24.65,28.37,42.94,19.81,3.35-1.57,6.29-5.41,8.81-8,3.78-3.85,7.81-7.54,11.08-11.84a22,22,0,0,0,0-26.34c-4.05-5.59-11-8.31-17.36-4.55-5.53,3.23-8.62,11.75-4.55,17.36l1.48,2q-2.16-3.5-4,.75l-9.09,9.26q7.59,1.58,2.13-2.32-2.29-2.31-4.58-4.63l-4.59-4.63q-3.51,3.33-.13-.41l6.45-7.51c1.43-1.68,2.87-3.35,4.3-5,1.47-1.42,1-1.44-1.38,0-2.4-1.41-2.84-1.37-1.33.09l4.26,5,8.51,10C677.81,183.94,695.68,165.89,685.13,153.51Z"/><polygon class="cls-10" points="655.75 153.24 642 169.25 655.75 183.15 669.39 169.25 655.75 153.24"/><polygon class="cls-9" points="655.75 153.24 655.75 169.33 642 169.33 655.75 153.24"/><path class="cls-11" d="M608.82,143.26c0,3.2-5.92,5.8-13.22,5.8s-13.22-2.6-13.22-5.8,5.92-5.81,13.22-5.81S608.82,140.05,608.82,143.26Z"/><path class="cls-11" d="M729,143.26c0,3.2-5.92,5.8-13.22,5.8s-13.22-2.6-13.22-5.8,5.92-5.81,13.22-5.81S729,140.05,729,143.26Z"/><rect class="cls-12" x="593.18" y="108.97" width="19.57" height="95.6"/><line class="cls-13" x1="582.96" y1="108.97" x2="619.56" y2="108.97"/><rect class="cls-12" x="698.59" y="108.97" width="19.57" height="95.6"/><line class="cls-13" x1="728.38" y1="108.97" x2="691.78" y2="108.97"/></g></svg>