<svg id="Layer_1" data-name="Layer 1" xmlns="http://www.w3.org/2000/svg" viewBox="0 0 291.8 289.73"><defs><style>.cls-1{fill:#fff;}.cls-2{fill:#a0a0a4;}.cls-3{fill:#aaa;}.cls-4{fill:#333;}.cls-5{fill:#6e7073;}.cls-6{fill:none;stroke:#000;stroke-linejoin:round;stroke-width:0.25px;}.cls-7{fill:#939;}.cls-8{fill:#cccce4;}.cls-9{fill:#96c;}.cls-10{fill:red;}.cls-11{fill:#ffc;}.cls-12{fill:#ff9;}.cls-13{fill:#ff0;}.cls-14{fill:#99cc80;}</style></defs><path d="M97.37,189.62S60.55,208.4,60.55,226.45c2.12,15.92,74.75,40.31,74.75,40.31l.83-.83s3.4,2.67,1.38,4.7l-12.15,10.68-20.62,2,.37.92s9,5.48,16,5.48,20.44-1.06,20.44-1.06,9.39-12.89,10.49-11.78-.37,10.86-.37,10.86l1.66-.18s8.84-16.94,8.84-20.25S150.58,255,150.58,255l2-2.58-37.55-21.72s4-3,4-4-4.69-2.12-4.69-2.12l.18-1.47s24.92-12.81,38-7.65c.23.09.45.19.66.29l-7.73,10.49s-4.42,5.16,3,10.31c0,0-4.42,13.07,8.47,15.47,7.36.92,10.86-6.26,10.86-6.26s5.15,2.76,7.36.55,8.07-10.81,16.82-18.38c61.43-40,41.36-77.36,35.65-78.28-4.42-.92-16.38,4.06-16.38,4.06s2.76-23.94,0-38.48c0,0,4.3,4.58,9.88,9.94,10.5,10.08,25.51,23.56,24.91,46l-.83.83s1.94-12.42-7.45-12.42a2.41,2.41,0,0,0-1.47,3.49c1.1,2.77,4.23,7.55,4.23,16.21,0,0,6.07,5.34,7.18,8.1s9.66,6.16,14.18,1.65c0,0,2.11-1.56,4.41.74s12.15,1.1,13.26-19.33C283,160.91,290.86,153,290.86,153s2.12-3.22,0-5.34-7.18,2.76-12.7,12l-.92-2.77s1.47-5.15,3.68-7.36S286.26,139,282.21,137,273.38,148,273.38,148l-1.48-4.42s4.79-12,.92-13.81-6.26,6.08-6.26,6.08S252.2,104.75,208,80.27c0,0,8.65-8.65,1.29-26,0,0,7.91,3.87,10.31,11.78,0,0,2.21-11.41.18-17.12-2-9.39-19.7-16.2-19.7-16.2V32s4.88-.09,7.18-2.39c0,0-14,1-19.51-10.86-6.64-14.26-26.14-21-36.82-12,0,0-.37-3.13,4.51-4.51,0,0-5.8-1.2-9.85,2.85,0,0-.92-3.12,4-5.15,0,0-15.28,4.23-8.47,9.21,0,0-5-.19-6.44,3.12l3.31.19-3.68,5.89A15.24,15.24,0,0,0,125,24.49s5.34-4.79,8.84-4.79l-1.11,2.39s-7.18,3.13-8.74,8.75c0,0,4.69-6.35,8.19-7.28,0,0-2.76,3.87-2.76,5.71a4,4,0,0,0-1.48,3.5l-.36,1.29-2.21,2.21,2.94-.55s-.73,4.78,1.11,6.62c0,0,0,5.53-4,7.18s-15.28,6.82-15.28,16.76c0,0,2.57-5.16,6.44-7.18,0,0-5.34,17.85,4.23,29.64,0,0-2.39-8.1,1.85-15.28,0,0,3.31,10.86,11.78,15.28,0,0-17.12,18.22-94.26,16.2l-.74,2.21H35.33v8.28H34.22s-.55-15.83-1.47-18.59A46.33,46.33,0,0,1,29.43,79.9c-.73-7.18-9,2.95-5.33,12.15a16.45,16.45,0,0,1,2.48,8S19.49,87.63,18.3,83.12,15.81,73.55,12,73.55s-2,12,1.93,15.92l-2.21-1.1s-3.68-9.57-6.07-9-2.86,8,2.57,13.44a15.58,15.58,0,0,1,4.05,6.81S3.84,89.47.9,90.58s1.66,9.75,9.3,13.34c0,0,.18,9.21,4.14,13.17,0,0,3.68,4.79,1.84,6.63,0,0-11.35,7.44-3.8,10.94,5.15.74,4.9-7.63,11.16-3.95,5,2.92,9.58,6.44,13.63-.92L38,129s1.84,7.74,4,6.91l1.84-.74s2.77,7.36,5.71,7.36,17.12-8.1,30.75-8.1,37.37-3.86,49-15.46l.13.87s-20.94,17.73-18.91,32.82l-1.29.92v2.4s-1.84,2-.92,9c0,0-4,2.94-4,3.86s1.29,1.84,1.29,1.84-15.28,14.55-15.28,19.7Z"/><path class="cls-1" d="M149,236l-2.79-3.61h3.64s28.89-60.75,71.77-80.53c0,0,5.45-3.31,7.77,1.82-1.49,2.37-6.28,6.86-9.53,9.09-24.37,16.7-42.23,42.17-42.23,42.17S156.41,216.59,149,236Z"/><path class="cls-2" d="M171.33,241.27l-3.06,3.06s3.22,2.72,4.22,1.73S171.33,241.27,171.33,241.27Z"/><path class="cls-1" d="M179.1,232.67l6.45-15.21s43.32-44,46.8-53.42l1.32-1.32s2,8.6-1.16,15.05C221.1,198.44,179.1,232.67,179.1,232.67Z"/><path class="cls-3" d="M155.46,226.22s12.73-16.21,29.76-24.47c0,0,3.8-1.16,2.81,2.81s-7.11,29.93-15.71,33.73C172.32,238.29,152.62,230.05,155.46,226.22Z"/><path class="cls-4" d="M154.46,230l16.37,9.43-8.27,5a12.63,12.63,0,0,0-9.59-4.8Z"/><path class="cls-5" d="M153.3,240.94a7.8,7.8,0,0,1,7.94,4s-4,5.13-6.78,4.14S153.3,240.94,153.3,240.94Z"/><path class="cls-6" d="M122.22,188.85l6.12-7.94-6.87,6.86s-20.57,0-23.56,1.08Z"/><path class="cls-1" d="M115.6,188.85h6.62l1.9-1.9h1.07s-3.44,9.48,8.77,23.89l-.75.75a59.37,59.37,0,0,0-14.13-1.41s6,.41,7.44,1.82c0,0-24.14,6.12-26.63,16.37,0,0,5,0,5,5,0,0,8.35,6.2,40.76,21.25,0,0,1.07,1.24-1.16,3.47l-2.23,2.24s-57.79-20.76-52.83-36.13c2.48-9.1,27.45-21.5,27.45-21.5S114.78,192.82,115.6,188.85Z"/><path class="cls-1" d="M135.44,265.83l.82-.05h0L137,265l-.43-1.27S75.23,242.93,72.91,224.9c-2.31-12.56,29.77-33.56,29.77-33.56l.49-1.82-4.46.16L97.13,191C90.77,194.4,64,210.21,61.76,226.29,65.11,242.21,135.44,265.83,135.44,265.83Z"/><path class="cls-1" d="M142.36,195.11l14.55-3s1.51,7.1,4.89,10.47l-8,12.54S146.5,211.2,142.36,195.11Z"/><path class="cls-1" d="M201.62,157.51s-1.11-19.43-2.87-21.18c0,0,.32,24.21-37.91,33,0,0-2.07,2.55,0,4.62,0,0,5.82-1.67,7.49,0a8.08,8.08,0,0,0-6.05.8s.12,8.78,6,13.65l1.46,1.46s-5.27,6.87-6.87,11.49A201.54,201.54,0,0,1,180,179.26c-3.73-6-4.76-14.67-4.76-14.67l1.84,1.84,11.31-8.6,2.39,8.13c-3.92,2.3-7,7.51-8.67,11,7.91-8.57,17.59-17.34,27.7-22.51v-2.15Z"/><path class="cls-1" d="M183.62,143.18s7.65,1.75,9.88,5.57c0,0,4-5.41,4.94-19.11a15.71,15.71,0,0,0-11.95,0A31.31,31.31,0,0,1,183.62,143.18Z"/><path class="cls-1" d="M184.74,115.62l9.08-4s-2.55-10-3.35-15.93c0,0-5.57,2.39-7,5.42a44.67,44.67,0,0,1,.8,7.48C184.26,112.12,183.46,114.35,184.74,115.62Z"/><path class="cls-1" d="M192.22,96.35l18.93,17.36S216,101,227.58,94.76L212.77,84.4s-12.58,9.24-11.31,19.44Z"/><path class="cls-1" d="M222.65,125.34l9.95,9.95s10.12-13,22.86-13.93l-11.15-12.91S232,108.77,222.65,125.34Z"/><path class="cls-7" d="M151.13,99.85l3.5,8.29h-3.18l-1.12,1.11L151,112v6.69s-14.66,12.9-17.84,21.66h8.28s-8.92,15.13-8.92,30.58h-1.43s-10.67-11.3-8.13-24.68,18.48-26.61,18.48-26.61a41.74,41.74,0,0,0,9.08-19.75Z"/><path class="cls-7" d="M147.9,100.5l3.55-8.61-2.55-.8S147.5,98.35,147.9,100.5Z"/><polygon class="cls-7" points="153.99 92.69 157.58 96.27 161.64 90.93 154.47 91.57 153.99 92.69"/><polygon class="cls-7" points="152.88 99.38 152.88 93.64 159.73 99.46 158.69 107.82 155.75 107.82 152.88 99.38"/><polygon class="cls-7" points="173.27 85.68 161 100.17 159.09 108.93 171.68 98.1 173.59 91.73 170.08 93 173.27 85.68"/><path class="cls-7" d="M174.06,81.06l1.28,7.8s4.14-1.75,7.64-7.64V76.76S178.21,80.1,174.06,81.06Z"/><path class="cls-7" d="M186.49,84.72l-11.31,6.21-1.91,12.43S186.49,90.3,186.49,84.72Z"/><path class="cls-8" d="M162.76,90.93l-3.83,5.58L161,98.74a84.43,84.43,0,0,0,9.72-11.47S163.87,93.8,162.76,90.93Z"/><path class="cls-7" d="M171.52,99.69l-9.4,9.4,1.19,1.2s-12.5,12-14.25,25.72c0,0,10.83,1.12,10.83,3,0,0-8.92,7.8-10,29.31,0,0,29.15-8.76,33.45-28,3.19-16.56-2.86-37.75.16-46.67l-12.9,14,1.91-8.13Z"/><path class="cls-1" d="M161.16,165s8.68-4.06,12.9-8.28c0,0,5.63,2.6,6.72,5,0,0-11,5.63-17.07,5.63C163.71,167.39,161.16,167.39,161.16,165Z"/><path class="cls-1" d="M101.43,130.28s10.27-.56,14.5-4.78c0,0-1.36-17.76-7.17-23.58,0,0-9.29,1.69-14.66,1.44A54.71,54.71,0,0,1,101.43,130.28Z"/><path class="cls-1" d="M59.86,105.91l14.33-.32s8.29,6,8.29,27.39c0,0-10.2.8-16.09,2.71C66.39,135.69,68.46,112.91,59.86,105.91Z"/><path class="cls-1" d="M123.41,96.35s7.17,8.28,8,18.79L141.25,104s-1.54-9.41-5.57-13.22C135.68,90.77,130.61,93.29,123.41,96.35Z"/><path class="cls-8" d="M39.43,115a35.34,35.34,0,0,1-5.21,2.63c-1.67.49-2-6.67-2-6.67s.74-13.32-2.81-20.08c-.09-.16-.14-.33-.22-.49a11.14,11.14,0,0,1-5-1,9.39,9.39,0,0,0,1,2.86,17.1,17.1,0,0,1,2.16,6.57,28.77,28.77,0,0,0,.75,10.88H26.48c-1.13-2.81-6.1-3.09-6.1-3.09l-1.22-2.26c-.66-5.72-3.94-12.85-5.87-13.56A5.05,5.05,0,0,1,11,88.87a7.31,7.31,0,0,0-3.56,1.51,44.22,44.22,0,0,0,5.27,6.38c1.79,2.35,2.63,9.39,2.63,9.39l.38,1.59-1-1-.37-.66c0-4.69-2.91-7.32-4.32-7.69A3.54,3.54,0,0,1,7.9,96.67l-.52-.61L4.6,98.84a35.84,35.84,0,0,0,5.55,4.21,28,28,0,0,0,2.44,4.41c-.66,5.35,3.19,9.85,3.19,9.85s3.94,6.27.56,7.7c-.28.12-.55.26-.83.41a7,7,0,0,1,3.7,3.18c5.74-1.79,7.21,4.2,11.49,4.2s5.63-3.85,6.47-6.1,4.89-3,4.89-3C42.51,117,39.43,115,39.43,115ZM17,114.47l-.62-1.37s8.73-.25,11.48,2.5A20,20,0,0,0,17,114.47Zm5.74,8.24c-2.37,0-3.62-3.62-3.62-3.62l1.62-.25A5.31,5.31,0,0,0,22.76,122.71Zm1.62,2.09c-3.58.39-5.24-1.22-5.24-1.22s4.93.69,5.62,0c2.62-.69,5.11-6.49,5.11-6.49S28.36,124.36,24.38,124.8Z"/><path class="cls-7" d="M36.73,114.72l2.37-.62a17.32,17.32,0,0,0-2.49-3.74C36.12,110.36,36.73,114.72,36.73,114.72Z"/><path class="cls-7" d="M39.12,127.84l2.48-2.76s-.19,4,1.12,5.36v2.75S40.13,134.09,39.12,127.84Z"/><path class="cls-7" d="M36.61,108.48s9,7,6.74,25.08l5.86-.75s2-14.84-8.23-25.07h-4.5Z"/><path class="cls-9" d="M45.34,134.81l3.37-.62s.13,6.11-.75,6.11S45.34,134.81,45.34,134.81Z"/><path class="cls-1" d="M147.15,95.38v8.11l2.74-5.11.13,1s-1.25,7.23-2.37,7.23L142,103.24Z"/><path class="cls-1" d="M123.69,128.07s5.66-8.27,10-12.6l6.24,3.74s-8.21,7.69-8.86,9.86A25.44,25.44,0,0,0,123.69,128.07Z"/><path class="cls-1" d="M114.09,139.67h10.23s-2.25,4.49-2.25,8c0,0-6.65,1-10.85,4.49A18.79,18.79,0,0,1,114.09,139.67Z"/><path class="cls-1" d="M119.51,165.44s2.75.12,3.44.81,6.48,5.36,6.48,5.36v-1.12l-6.24-9.36s-3-.62-3,3h-.75l-9-10.36s-1-.13-.38,1.75a16,16,0,0,0-1,9.1s-4,3.25-4,4,1.3,2,1.3,2-11.86,11.5-14.77,18.42l11-1.75a24.75,24.75,0,0,1,5.61-14.47,9.65,9.65,0,0,1,2.62-7.36l1.13-7Z"/><path class="cls-1" d="M241.09,146.28l4.24,10.23,4.74-4.11s3.87-15.35,9.73-15.35c4.35,0-.25,12.11-.25,12.11l2.87-1.38,3.75-10.85v-1.25S255.31,133.43,241.09,146.28Z"/><path class="cls-8" d="M282.72,154.12c-3.59,4.56-7.07,10.17-7.07,10.17l-1.19.79a4.26,4.26,0,0,0,2.38,1l.5,2.38A2.18,2.18,0,0,0,275.4,167a1.24,1.24,0,0,1-1.34-1.34,7.29,7.29,0,0,1-3.78-1.09h2.49c.79,0,1.39-4.08,1.39-4.08,1.11-1.11,2.5-5.35,2.88-6.54l-3.13-1.75.64-.65a7.23,7.23,0,0,0,3,1.59,21.41,21.41,0,0,0,2.31-4.18,16.44,16.44,0,0,1-4.87-2.39c-.23.56-.36.91-.36.91-2.38,2.38-6.95,15.1-6.95,15.1s0,1.09-3.08,1.09a12.65,12.65,0,0,1-4.27-.49,19.62,19.62,0,0,0,4.67-.5c1.29-.5,1-5,1-5,.94-.94,1.89-7.15,1.89-7.65s-3.68-.49-3.68-.49v-.5a18.52,18.52,0,0,1,4.27-.1,28.08,28.08,0,0,0,3.42-6.59,11.29,11.29,0,0,1-6.5-1.42c-1.41,4.17-2.38,8-2.38,8-1.39,0-4.87,14.5-4.87,14.5-2.78-.79-5,1.5-5,1.5.6-1.79,2.88-2.89,2.88-2.89a31.06,31.06,0,0,0,0-8.64,14.8,14.8,0,0,0,1.51-2.58,24.94,24.94,0,0,1-5.73-.95c-.62,2.25-.94,3.93-.94,3.93-2.69,5.56-.5,12.91-.5,12.91v5c-1.29,1.29-.89,3.88-.89,3.88,10.83.39,12.42,7.25,12.42,7.25-2.71-6-13.42-6-13.42-6l-4.07-4.28a19.42,19.42,0,0,0,.3-4.13,12.16,12.16,0,0,1-4.33,2.71,59.52,59.52,0,0,1,1.25,7.49l6.46,6.65s2.28,4.87,6.06,4.87c6.45,0,5.16-1.89,7.65-3,3.67-1.09,4,3.58,8.44,2,7.16-2,8.25-19.18,8.25-19.18l1.09-1.89c.76-3.13,3.71-7.2,6.56-10.87.13-.17.27-.34.4-.52Zm-18.37,28.16,5.56-5.36C268.7,180.3,264.35,182.28,264.35,182.28Zm-8.84-10-.8-.8c14.68-2.82,17.79,3.68,17.79,3.68C265.84,170,255.51,172.25,255.51,172.25Z"/><path class="cls-10" d="M271.4,130.42c-2,0-4.22,5.14-5.9,10A15.43,15.43,0,0,0,272,142C274.06,136.12,274.09,130.42,271.4,130.42Zm10.24,7.06c-2.37-.87-5.43,5.91-6.59,8.73,1.29.69,3.3,1.75,4.9,2.47C282.11,146.36,284.57,138.55,281.64,137.48Zm7.94,10.92c-1.24-.72-3.76,1.72-6.33,4.88,1,.9,2.42,2,3.64,2.92C289.67,152.63,291.91,149.59,289.58,148.4Zm-52.35,12.12c-2.16.69,1.78,7.86,2.82,9.92a20,20,0,0,0,4.61-2.35C244.26,161.07,239.16,159.91,237.23,160.52ZM258,149.78c2.14-4.54,4.74-11.71,1.5-11.71-3.53,0-6,6.12-7.4,10.72A9,9,0,0,0,258,149.78Z"/><path class="cls-11" d="M135.53,18.61l5.92-5.92a13.31,13.31,0,0,1,4,2.92s9.63-8.52,16.25-8.52L157.62,9l.47.63s8.68-.63,11,1.73c0,0-4.89-1.26-7.89,0,0,0,13.73,6,15.94,27.93C178.13,47.8,171,54.9,171,54.9v1.42s5.21-6.78,6-6-4.66,10.18,5.36,20.2c7.1,10-3.47,17.2-3.47,17.2s12.78-3.16,11.68-23.2c0,0,3.47,10.1-1.74,17.2,0,0-.79,7.1-2.52,10.26,0,0,12.93-4.74,15-26.35,0,0,2.06,12.3,1.11,20.35,0,0,18.92-12.21,1.42-41l4.57,6.31s9.24,5.6,10.65,10.65c0,0,6.87-19.25-21.53-29.15l-.16-1.38a5.08,5.08,0,0,0,3.16-1.1s-9.79-.48-14.68-12.15-24.3-20.51-35.34-9.47c0,0-3.55-.87.63-5,0,0-2-.55-5.52,3,0,0-2.68-.16-.79-3.79,0,0-3.49.77-3.94,4S145.16,10,145.16,10s-6.63-.18-8.37,1.56l3.87.39S137.58,13.25,135.53,18.61Z"/><path class="cls-12" d="M130.48,43.54s3.63,5.52,2.21,9.94S119.84,67,140.11,85l1.1,7.1c-5.41-4.57-23-11.51-15.62-30.45,0,0-2.37,3.47-2.68,9.94,0,0-3.79,2.53-3.79,12.63,0,0-8.5-16.08.41-28.16a24.87,24.87,0,0,0-6.4,4.33,24.7,24.7,0,0,1,11.2-8.83C130.48,50,130.48,43.54,130.48,43.54Z"/><path class="cls-6" d="M154.31,18.93s8.52-3.32,13.41,4.41C167.72,23.34,163.14,13.4,154.31,18.93Z"/><path class="cls-8" d="M131,27.92s7.41-3.31,9.31.79l-1.9,1.89s7.42,5.21,5.84,18.46c0,0-1.42,2-1.42,3.31s-6.47,6.31-6.47,10.1c0,0,7.89-.63,8.68,1.9h-1.42s-4.42-1.58-7.89,0c0,0-.63-3.16,1.58-7.89,0,0-3.63.15-4.1-1.42,0,0-10.57,13.48,4.57,26,13.85,13.84,26.82,10.19,35,0,0,0,9.15-3.28,10.57-6.44l-.71-.71a2.51,2.51,0,0,0-.87-2.44c-1.26-1.27-8.52-9.79-5.84-18.78a34.44,34.44,0,0,0-6.47,9.47s-.94-4.26,2.69-10.73c7.81-11,2.67-37.87-16.73-40.08,0,0-4.26-.16-9.94,5.52L142.4,13.8S134.63,19.93,131,27.92Z"/><path d="M145.31,60.89s6.72-.37,5.68,2.53C149.92,65.34,148.47,60.89,145.31,60.89Z"/><path class="cls-1" d="M120.35,166.69v2a3.92,3.92,0,0,0-1,2.64s4.63,2.31,4.63,3.83l-.48.48s-3.27-3.12-5.27-2.64c0,0-1.35,3.51,0,6.31,0,0,6,.8,6.87-1,0,0,.32,2.72-7.11,2.24a2.93,2.93,0,0,0-2.31,3c0,2.63,0,3.67,3.35,3.67s8.15-6.46,8.15-6.46-2.2-5.55-.48-7.27l1.35.4v-1.84s-4.46-2.23-5.42-4.31C122.19,166.21,120.35,165.57,120.35,166.69Z"/><path class="cls-1" d="M145.42,175.87s12.85-3.36,14.45-1.76c0,0-7.15.2-8.54,1.6S145.42,175.87,145.42,175.87Z"/><path class="cls-8" d="M17.66,84.21a14.27,14.27,0,0,0-4.86,1.57c.34,1.22,1.1,3.44,2.42,4.51,1.86,1.51,3.66,7.6,3.66,7.6,1,8.63,7.13,9.29,7.13,9.29v-5.44C22.17,98.74,19.75,90.79,17.66,84.21Z"/><path d="M155.8,72.17c4.13-4.13,13-8.58,16.8-4.78l-.42.42s-1.39-.63-2,0v3s-3.47,1.22-4.6-.94h-1.31A3.1,3.1,0,0,1,161.9,73s.94,3.1-1.12,4.22a3.2,3.2,0,0,1-3.71-.51L156,77.81s-.57,2.11-2.11,2.11h-1.55v.79s-3.76.94-4.22-.75h-2V78A26.21,26.21,0,0,0,155.8,72.17Z"/><path d="M148.85,26.71s7.5-7.39,14.13-4,8.34,8.88,8.34,8.88a10.72,10.72,0,0,0-3-1.18c-.86,0,7.06,8.67,2.57,13.16,0,0,.53,3.53-.86,6s-5.14,6.74-9.2,4.6h-1.93a9.45,9.45,0,0,1-10.36-8.09c-1-8.28,3-15.67,3-15.67Z"/><path class="cls-9" d="M127.93,34.06s2.76-4.44,5.37-5.36C133.3,28.7,127.93,27.82,127.93,34.06Z"/><path class="cls-9" d="M138.15,29.38s-2-2.14-3.1-1.07-6.21,6-5,11.24c1.18,3.44,2.25,3.85,2.25,3.85s-1.28-7.17,3.85-9.95a2.59,2.59,0,0,0-.75-2.25s4.71.21,8,8a18.84,18.84,0,0,0-5.46-8.56S138.85,30.08,138.15,29.38Z"/><path class="cls-9" d="M134.3,50.68s-.85,4.49,1,4.49a12.63,12.63,0,0,0,4.06-1A16.62,16.62,0,0,1,134.3,50.68Z"/><path class="cls-13" d="M140.4,35.59c2.69,2.95,4.44,15.78.08,17.2s-7.25-6.61-7.25-9.07C132,34.73,137.71,32.64,140.4,35.59Z"/><path d="M141.31,49.84a1,1,0,1,1-1-1.06A1,1,0,0,1,141.31,49.84Z"/><path class="cls-10" d="M11.79,74.42c-3,1.4.65,10.51.65,10.51l.06.24a16.3,16.3,0,0,1,4.79-1.66C15.48,77.86,13.89,73.43,11.79,74.42Z"/><path class="cls-10" d="M28.76,89.69c-1.89-5.47,1.58-12.11-1.39-11.24C24,80.26,23.29,85,23.85,88.63A8,8,0,0,0,28.76,89.69Zm-22,5.82C5,93.5,1.35,89.71.71,91.68.35,94,2,96.44,4.07,98.46A12.29,12.29,0,0,0,6.77,95.51Zm3.63-7.34c-.07-.14-.11-.24-.11-.24-3-9.48-5.07-7.51-5.07-7.51C3.64,81.25,4.44,86.69,7,90A15.13,15.13,0,0,1,10.4,88.17Zm4.44,37.54c-2.73,1.72-4.71,4.79-3.43,7.27,1.39,2.66,6.35-3.26,7.05-4.12A8.27,8.27,0,0,0,14.84,125.71Z"/><path class="cls-1" d="M191.19,95.68a48.38,48.38,0,0,0,4.4,16.54c3.86,7.67,5.21,17.59,4.53,23.14a33.09,33.09,0,0,0,.35-13.37c-1.27-7.93-9-15.73-8-25.45l7.75,7.11L193,94.52l.06,1.23Z"/><path class="cls-14" d="M148.75,79.35l3.58-2.67s2.25,1.55,1.66,2.14-1.39-.22-1.39-.22S151.79,81.49,148.75,79.35Z"/><path class="cls-14" d="M154.21,76l2.3-2.31s1.39,1,.69,2c-.13,1-1.28.43-1.28.43s.43.59-.64.59S154.21,76,154.21,76Z"/><path class="cls-14" d="M158.27,73.47s.86.43.86,3.21a1.93,1.93,0,0,0,2.14-1.29,5.67,5.67,0,0,0-1.39-3.31C158.59,70.79,157.73,72.61,158.27,73.47Z"/><path class="cls-14" d="M160.2,70.58s1.23.11,1.23,1.23H163s.43-3.16,0-3.16-1.18.75-1.18.75S159.05,69.81,160.2,70.58Z"/><rect class="cls-14" x="164.05" y="67.58" width="1.28" height="1.71"/><path class="cls-14" d="M166.3,67.69s.2,2,2,2,.33-1.5.33-1.5l-.49-.48Z"/><path class="cls-9" d="M149.8,27.48a1.53,1.53,0,0,0-1.69.51,7.24,7.24,0,0,1,1,7.38c-1.71,4.5-1,11.61.53,13.17,0,0-3.63-13.38,5.46-16.06l.54-1.6s9.84,1.39,10.37,12.84c-.42,10.49-10.16,10.49-10.16,10.49s3.21,2.56,8.24,0,6.74-9.31,6.74-9.31h.64s2.25-8.88-9.52-18.84C154.27,20.71,151.8,28.31,149.8,27.48Z"/><path class="cls-13" d="M157.17,33.48c-4.1,0-7.38,3.4-7.38,8.74a14.06,14.06,0,0,0,1.92,7.51,1.22,1.22,0,0,1,1.23-1.17,1.24,1.24,0,1,1,0,2.48,1.7,1.7,0,0,1-.22,0,6.16,6.16,0,0,0,4.45,1.82c4.09,0,7.41-4.33,7.41-9.67S161.26,33.48,157.17,33.48Z"/><path class="cls-1" d="M127.26,175.67c0,.92.81.1.81.1s-.18,3.73.58,4.49,11.58,10.93,13.1,11.41,6.26.28,6.62-.08-3-5.59-3.43-8.7c0,0,12.17,1.16,15.57-2.23,0,0-10.54,2.65-18,1v-.79s2.48.23,2-2-3.23-.68-3.23-.68-.8-1.28,1.75-1.76l.24-3.51a27.61,27.61,0,0,0-11.41,2.64s.08-2.56,11.33-3.76v-2s-8.18-.52-12.77,4.07C130.41,174,127.26,174.75,127.26,175.67Z"/><path d="M141.17,181.42c-.56,1.84-3,2.73-5.4,2s-3.93-2.82-3.37-4.66,3-2.73,5.4-2S141.73,179.58,141.17,181.42Z"/><path d="M128.34,180.91l13.15,13.16s22.69-1.51,31-6.93c0,0-22,7-31.06,5.26Z"/></svg>