<svg xmlns="http://www.w3.org/2000/svg" viewBox="0 0 110.03 100"><defs><style>.cls-1{isolation:isolate;}.cls-2{fill:#ba6700;}.cls-18,.cls-3,.cls-5{fill:#efac6f;}.cls-3{opacity:0.2;}.cls-4{fill:#e29d55;}.cls-11,.cls-6,.cls-8{fill:#a14801;}.cls-15,.cls-18,.cls-6{opacity:0.5;}.cls-10,.cls-11,.cls-14,.cls-15,.cls-16,.cls-17,.cls-6,.cls-7,.cls-8{mix-blend-mode:multiply;}.cls-14,.cls-15,.cls-17,.cls-7,.cls-9{fill:#692e02;}.cls-16,.cls-7,.cls-8{opacity:0.4;}.cls-10{fill:#b79f51;}.cls-11{opacity:0.7;}.cls-12,.cls-16{fill:#582e02;}.cls-13{fill:#fff;}.cls-14{opacity:0.3;}</style></defs><title>zoo animals 2_16</title><g class="cls-1"><g id="Layer_1" data-name="Layer 1"><path class="cls-2" d="M108.69,83h0a3.07,3.07,0,0,0,.06-1.41,2,2,0,0,0-1.28-1.46c.55-1.49-.08-3.48-1.86-3.45a4.21,4.21,0,0,0-.06-3.44c-1-1.79-3.58-1.41-5.08-.68a5.86,5.86,0,0,0-2.63,2.53c-.35.23-.7.46-1,.7a18,18,0,0,0,.58-4.62,16.76,16.76,0,0,0-.9-6,14,14,0,0,0-3-4.81c-1-1.06-2.24-2.47-3.75-2.85a4.19,4.19,0,0,1,2.1.42s.07,0,0-.07l-.18-.17,0,0a4.5,4.5,0,0,0-3.12-1.27,5.34,5.34,0,0,0-2.75.41,53.14,53.14,0,0,0-.07-6.8c-.26-3.77-.87-7.5-1.43-11.23a52.88,52.88,0,0,0-1-5.28,42.31,42.31,0,0,0-1.82-5.25s0,0,0,0c-.48-1.68-1-3.35-1.6-5a30.07,30.07,0,0,0-6.44-10,22.74,22.74,0,0,0-9.86-6.22,57.65,57.65,0,0,0-6.34-1.47A60.47,60.47,0,0,0,50.9,4.36c-4.71-.4-9.11,1.4-12.85,4.13a45.85,45.85,0,0,0-19,34.9,43.83,43.83,0,0,0,1.13,13.36c.24.88.53,1.73.85,2.57a5.43,5.43,0,0,0-4.17.8s0,.08,0,.06l.45-.13a4.19,4.19,0,0,1,.79.12,2.25,2.25,0,0,1,.51.2,1.85,1.85,0,0,0-.58.06,8.81,8.81,0,0,0-1.55.66,9.34,9.34,0,0,0-2.66,2.39,23.7,23.7,0,0,0-3.6,6.17,3.25,3.25,0,0,0-1.11.09,2.91,2.91,0,0,0-2.27,2.5c-.66-.24-1.31.26-1.8.68A3.27,3.27,0,0,0,4,75.08a2.24,2.24,0,0,0-2.1.71,3.05,3.05,0,0,0-.51,2.7c0,.05,0,.09,0,.14-1.32.1-1.59,1.9-1.37,3C.38,83,2.25,83.25,3.48,83c-.73,2.36,1.85,4.8,3.52,6.18a20.79,20.79,0,0,1,3.53,3.42,38,38,0,0,0,2.55,3.62,6.9,6.9,0,0,0,7.59,1.93A4.45,4.45,0,0,0,22.32,97a.17.17,0,0,0,.24.09A13.29,13.29,0,0,0,26,94.72a.09.09,0,0,0,.1,0,25.18,25.18,0,0,1,2.22-1.48c.62-.31,1.37-.54,2-.92a1.87,1.87,0,0,0,.19,1,2.62,2.62,0,0,0,2.88,1l.1,0a1.77,1.77,0,0,0,.41.31,3.26,3.26,0,0,0,2.58,0h0a3.85,3.85,0,0,0,3.69.27.21.21,0,0,0,.1-.08c1.76,1,4.23,0,5.42-1.23a8.23,8.23,0,0,0,1-1.47,13.27,13.27,0,0,0,1-2.27,8.3,8.3,0,0,1,3.14-.19,10.25,10.25,0,0,1,1.45.26,9.83,9.83,0,0,0,1.39.37,7.88,7.88,0,0,0,2.75,4.55,5.62,5.62,0,0,0,2,.93,4.35,4.35,0,0,0,2.83.1,2.08,2.08,0,0,0,.3-.13c1.25.46,3.31.95,4.64.23l0,.05c.44.4,1.28.11,1.73-.15l.07,0h0a2.49,2.49,0,0,0,3.11-1.19,1.68,1.68,0,0,0,0-1.71c1.09.51,2.29.83,3.39,1.3s2.19,1,3.24,1.53a25.49,25.49,0,0,0,2.42,2.06,4.26,4.26,0,0,0,3.2,2.11,16.22,16.22,0,0,0,5.89-.3,17.73,17.73,0,0,0,4.44-1.76c1.23-.45,2.47-.89,3.72-1.3a20.73,20.73,0,0,0,5.5-2.61,9.73,9.73,0,0,0,3.43-3.8,4.51,4.51,0,0,0,.36-2.29,2.71,2.71,0,0,0,3-1.51A2.35,2.35,0,0,0,108.69,83Z"/><path class="cls-3" d="M89.67,57.46a4.19,4.19,0,0,1,2.1.42s.07,0,0-.07l-.18-.17,0,0a3.94,3.94,0,0,0-1.8-1.06,3,3,0,0,0-2.5,2,11.13,11.13,0,0,0-.13,4.15A14.91,14.91,0,0,1,87,66.81c-.81,3.78-2.8,7.2-3.22,11.08A4.35,4.35,0,0,0,83.84,80a1.57,1.57,0,0,0,2.29.51c1.51-.77,2.33-2.35,3.71-3.3,1.64-1.13,3.75-1.5,5.25-2.84a7,7,0,0,0,2.16-4c0-.25.07-.5.1-.75a16.66,16.66,0,0,0-.88-4.44,14,14,0,0,0-3-4.81C92.4,59.25,91.18,57.84,89.67,57.46Z"/><path class="cls-3" d="M82.09,37.79c-.24-1.09-.55-2.67-1.58-3.31a6.82,6.82,0,0,0-.46,1.66,27.94,27.94,0,0,1-2.23,9.33,31.42,31.42,0,0,1-3.07,5.26c-1.22,1.84-2.32,3.76-3.54,5.61A83.73,83.73,0,0,0,65,66.65c-1,2-2.16,4.33-2.19,6.61,0,1,.34,2,1.45,2.13a8.06,8.06,0,0,0,4.85-1.3c3.13-1.83,5.33-4.85,7.33-7.79A37.51,37.51,0,0,0,81.89,55a33.59,33.59,0,0,0,.77-13.09C82.49,40.5,82.37,39.13,82.09,37.79Z"/><path class="cls-3" d="M33.33,59.41c-.62-2-1.22-3.93-2-5.83a31.27,31.27,0,0,0-3-5.41c-2-3.11-4-6.38-4.24-10.21a64,64,0,0,1,.36-6.63A2.4,2.4,0,0,0,24.36,30c-.38-.61-.86-.25-1.09.22s-.4,1.15-.64,1.71a.16.16,0,0,1-.25.06,30.37,30.37,0,0,0-2,9.25,38.21,38.21,0,0,0,.55,10.41,30.41,30.41,0,0,0,3.77,9.92A20.57,20.57,0,0,0,28,65.71,18.67,18.67,0,0,0,30,67.43a4,4,0,0,0,2.44,1c2.16-.19,2.29-3,2-4.58A28.73,28.73,0,0,0,33.33,59.41Z"/><path class="cls-3" d="M26.31,21.19c.27,2.35,4.08-1.21,4.68-1.75,1.66-1.49,3.14-3.21,4.86-4.63a21.51,21.51,0,0,1,4.45-2.6,32.57,32.57,0,0,1,5.78-2.14,26.56,26.56,0,0,1,11.73-.54A27.43,27.43,0,0,1,74.93,21.2a17.67,17.67,0,0,1,1.24,2.09,9.07,9.07,0,0,0,1.09,1.86c.62.7,1.64.72,1.85-.39a7.26,7.26,0,0,0,0-2.28L79,21.29a30.92,30.92,0,0,0-5.64-8.16,22.74,22.74,0,0,0-9.86-6.22,57.65,57.65,0,0,0-6.34-1.47A60.47,60.47,0,0,0,50.9,4.36c-4.71-.4-9.11,1.4-12.85,4.13A46.87,46.87,0,0,0,26.3,20.89C26.3,21,26.3,21.09,26.31,21.19Z"/><path class="cls-4" d="M78.72,22.83c-2.4-5-5.5-10-10.32-13.14a27.62,27.62,0,0,0-7.8-3.21,42.5,42.5,0,0,0-9.43-1.61C40.32,4.53,31.62,14.47,26,22.6c0,.07,0,.15.1.08,6.28-7.3,13.26-17,23.94-17.34A37.31,37.31,0,0,1,59.5,6.71a30.73,30.73,0,0,1,8.2,3.12c5.11,2.94,7.87,8.27,10.91,13.05C78.65,22.94,78.75,22.89,78.72,22.83Z"/><path class="cls-3" d="M16.91,60.18l.45-.13a4.19,4.19,0,0,1,.79.12,2.25,2.25,0,0,1,.51.2,1.85,1.85,0,0,0-.58.06,8.81,8.81,0,0,0-1.55.66,7,7,0,0,0-.68.43c-.47.56-.94,1.1-1.39,1.67-1,1.26-2.19,2.86-2.2,4.53,0,2,1.91,2.76,3.26,3.89a18.11,18.11,0,0,1,3.56,4.1A8.93,8.93,0,0,0,20.83,78c.38.29.93.65,1.43.46a2.22,2.22,0,0,0,1.15-1.22c.8-1.8.57-4.11.37-6a41.09,41.09,0,0,0-1.43-7.11,8.27,8.27,0,0,0-2-4,2.84,2.84,0,0,0-2.12-.71,4.3,4.3,0,0,0-1.39.69S16.86,60.2,16.91,60.18Z"/><path class="cls-5" d="M10.6,71A2.14,2.14,0,0,0,7.39,72.7c-.33,3.66,6.85,5.19,5.44,1A4.81,4.81,0,0,0,10.6,71Z"/><path class="cls-5" d="M4.76,77.05a1.93,1.93,0,0,0,1.14,1c.77.24,2.14-.44,1.91-1.46A4,4,0,0,0,6,74.13c-1.52-.84-1.72,1.38-1.47,2.31A3.16,3.16,0,0,0,4.76,77.05Z"/><path class="cls-5" d="M16.92,84c-.19-1-.28-2-.47-3.08a3.36,3.36,0,0,0-2.24-2.8c-1.88-.69-4,.81-6.11,3.07-1.12,1.17-3,1.17-3.43,2.26-.73,1.67.2,2.7,1.68,3.77s3,1.64,4,3.18c.92,1.35,1.39,3,2.29,4.37a5.12,5.12,0,0,0,4.1,2.44c1.9-.08,2.65-2.37,2.61-4.23a17,17,0,0,0-1.64-5.79A17.39,17.39,0,0,1,16.92,84Z"/><path class="cls-5" d="M1.34,82.34c.45.22,1.22.53,1.63,0s0-1-.3-1.31A2.49,2.49,0,0,0,.78,80C-.19,80.3.59,82,1.34,82.34Z"/><path class="cls-5" d="M3.28,80.63c1.54.57,2-1.55,1-2.86a3.14,3.14,0,0,0-1.73-1.33c-1.8-.24-.55,3.39.15,3.87A2.68,2.68,0,0,0,3.28,80.63Z"/><path class="cls-5" d="M105.35,74.17c-1.11-1.5-3.58-.36-4.6.72a3.82,3.82,0,0,0-1.23,3.36,1.71,1.71,0,0,0,1.59,1.4,5.19,5.19,0,0,0,3.61-1.83c.71-.78,1.52-2.61.86-3.62A.16.16,0,0,1,105.35,74.17Z"/><path class="cls-5" d="M109.17,84.81a2.05,2.05,0,0,0-1.8.63c-.51.51-.83,1.51.15,1.74C108.73,87.48,110.28,85.6,109.17,84.81Z"/><path class="cls-5" d="M93,82.33A6.42,6.42,0,0,0,90,86.81a10.74,10.74,0,0,1-1.76,4.46,8,8,0,0,1-3.7,2.63c-1.1.46-2.06,1.25-1.72,2.59a2.57,2.57,0,0,0,1.87,1.84,12.16,12.16,0,0,0,5.2,0c2-.3,3.91-1.51,5.81-2.26,3.34-1.33,7.66-1.94,9.26-5.5.43-.94,1-2.45.39-3.41-.51-.78-1.43-.87-2.21-1.23-1.7-.78-2.31-2.75-3.85-3.69A6.56,6.56,0,0,0,93,82.33Z"/><path class="cls-5" d="M107.44,81.85c-.94-.1-2.42.84-2.39,1.82,0,1.32,2,.94,2.6.34a1.62,1.62,0,0,0,.55-1.2A.82.82,0,0,0,107.44,81.85Z"/><path class="cls-5" d="M106.5,78.49a2.1,2.1,0,0,0-1.55.37c-.7.46-1.67,1.27-1.62,2.22.07,1.34,1.91.89,2.62.38a3.47,3.47,0,0,0,1.15-1.37,2.29,2.29,0,0,0,.18-.56A1,1,0,0,0,106.5,78.49Z"/><path class="cls-6" d="M109.12,86.41c-.62.21-1.6.27-1.67-.63s1.1-1.64,1.08-2.7c0-.1.08-.14.16-.14a4.85,4.85,0,0,0,.09-.55c-.4,1.2-1.17,2.35-2.35,2-2.76-.72.7-3,.92-4.28a.13.13,0,0,1,.14-.11,3.59,3.59,0,0,0,.12-.47,4.48,4.48,0,0,1-.56,1,2.28,2.28,0,0,1-3,.69c-.78-.52,0-1.57.31-2.12s.63-1.06.91-1.6c.06-.11.25-.58.38-.86h-.06l.09-.26a.14.14,0,0,1,.07-.25,4.45,4.45,0,0,0,.1-2,6.22,6.22,0,0,1-4.13,4.18c-1.24.37-3.33.42-3.77-1.15a4,4,0,0,1,.24-2.58,2.29,2.29,0,0,1,.14-.27,5.92,5.92,0,0,0-.51.79c-.35.23-.7.46-1,.7a10.36,10.36,0,0,0,.3-1.34,4.36,4.36,0,0,1-.79,1c-.65.56-1.38,1-2,1.57a10.44,10.44,0,0,0-3.12,3.86.15.15,0,0,1-.29-.08c.15-.82.41-1.62.54-2.45a12.83,12.83,0,0,0-2.7,4.41c-.06.14-.27.06-.27-.08a19.87,19.87,0,0,1,0-2.44,28.3,28.3,0,0,0-1.63,4,6.74,6.74,0,0,1-2.4,3.46c-1.07.63-2.64.87-3.42-.33a4.65,4.65,0,0,1-.5-3.36,7.55,7.55,0,0,0-1.89,2.81.15.15,0,0,1-.29,0,12,12,0,0,1,.89-5c.6-1.26,1.48-2.36,2.17-3.58A9.29,9.29,0,0,0,79,79.65a.15.15,0,0,1-.23-.18c1.32-2.31,3.26-4.28,4.41-6.7a25.21,25.21,0,0,0,1.9-7.7c0-.15.26-.13.29,0A18,18,0,0,1,85.63,67a20.06,20.06,0,0,0,.3-4,31.93,31.93,0,0,1,0-4.15,4.15,4.15,0,0,1,1-2.45,3.07,3.07,0,0,0-1.22.37,53.14,53.14,0,0,0-.07-6.8c0-.57-.09-1.14-.14-1.7.07,3.2.31,6.43-.65,9.53,0,.16-.2-.18-.29,0-1.4,2.21-.74-5.82-1.22-9.68-.59,7.88-2.86,15.88-8.27,21.86a24.3,24.3,0,0,1-8.8,6.45c-1.88.75-5.36,2-6.94,0-1.11-1.39-.75-3.62-.41-5.2a38.51,38.51,0,0,1,2.47-7.3,77.4,77.4,0,0,1,8.76-15.47,51.13,51.13,0,0,1,5.92-7.5,18.85,18.85,0,0,0-1.93.76c-.12,0-.23-.12-.17-.22a12.66,12.66,0,0,0,2.28-6.34c.07-1.77.23-3.86-.73-5.44a.15.15,0,0,1,.23-.18,4.69,4.69,0,0,1,.55.66,8,8,0,0,0-2.79-5.81.14.14,0,0,1-.22-.08c-.38-1.82-.34-3.91-1.42-5.5a8.38,8.38,0,0,0-4.3-3.17,2.75,2.75,0,0,1,.17,1.45C67.32,20.33,64,21.94,61.16,23a80.92,80.92,0,0,1-11.62,3.39,74.28,74.28,0,0,1-13.29,1.47,39.19,39.19,0,0,1-6.59-.23c-1.23-.19-3.09-.34-4-1.28-1.23,1.12-1.33,3.46-.94,4.93a2.69,2.69,0,0,0,.76,1.34,5,5,0,0,1,.85.87,3,3,0,0,1-.05,2.19,13.71,13.71,0,0,0,.31,7A14.17,14.17,0,0,0,28,46a23.66,23.66,0,0,0,2.12,2.85.16.16,0,0,1-.1.26A2.74,2.74,0,0,1,29,48.89a34.25,34.25,0,0,1,4.19,3.69,20.53,20.53,0,0,1,3.72,6.31,23.18,23.18,0,0,1,1.61,9.6c-.12,1.79-.5,4.72-2.81,4.91-2,.17-4.09-1.41-5.57-2.63A39.27,39.27,0,0,1,25.26,66,32.46,32.46,0,0,1,22,61c-.39-.68-.78-1.36-1.13-2.05l.14.38h0c.2.59.32,1.21.51,1.85a21.3,21.3,0,0,0,2,3.88c.69,1.22,1.22,2.53,2,3.71a10.21,10.21,0,0,1,1.62,3,.15.15,0,0,1-.25.15,9.33,9.33,0,0,0-2.07-1.6,25.61,25.61,0,0,0,1.89,3.33,13.13,13.13,0,0,1,1.2,3.63A16.1,16.1,0,0,1,28,84c-.28,1.25-1,3.31-2.62,3.23-1.46-.08-2.05-1.66-2.23-3a5.8,5.8,0,0,0-.86,2.37.15.15,0,0,1-.29,0,13.74,13.74,0,0,1-.63-4,7.18,7.18,0,0,0-.78,1.74.14.14,0,0,1-.28,0c-.33-1.65-.34-3.35-.68-5a11.14,11.14,0,0,0-2.27-4.64,15.55,15.55,0,0,0-3.9-3.82A8.24,8.24,0,0,0,11.2,70a5.31,5.31,0,0,1,1.63,1.86,2.83,2.83,0,0,1-1,4,2.66,2.66,0,0,1-3.63-.56,5.58,5.58,0,0,1-1-2.26,5,5,0,0,1,.22-2.12,3.17,3.17,0,0,0-.55,1.37l-.18,0a3.9,3.9,0,0,0-.23,2.07,5,5,0,0,0,1,1.83,1.28,1.28,0,0,1,.33,1.22c-.18.45-.87.63-1.29.68-2,.29-2.46-1.86-2.41-3.57v0a3.24,3.24,0,0,0-.12.62l-.17,0a2.37,2.37,0,0,0-.07,2.22c.32.51,1,.92,1.17,1.52a1.51,1.51,0,0,1-1.55,1.81c-1.19-.08-1.72-.93-2-2H1.35a2.3,2.3,0,0,0,.43,1.5,14.79,14.79,0,0,1,1.06,1.19,1.06,1.06,0,0,1-.33,1.56c-.74.33-1.77-.41-2.41-1.2C.48,83,2.28,83.24,3.48,83c-.73,2.36,1.85,4.8,3.52,6.18a20.79,20.79,0,0,1,3.53,3.42,38,38,0,0,0,2.55,3.62,6.9,6.9,0,0,0,7.59,1.93A4.45,4.45,0,0,0,22.32,97a.17.17,0,0,0,.24.09A13.29,13.29,0,0,0,26,94.72a.09.09,0,0,0,.1,0,25.18,25.18,0,0,1,2.22-1.48c.62-.31,1.37-.54,2-.92a1.87,1.87,0,0,0,.19,1,2.62,2.62,0,0,0,2.88,1l.1,0a1.77,1.77,0,0,0,.41.31,3.26,3.26,0,0,0,2.58,0h0a3.85,3.85,0,0,0,3.69.27.21.21,0,0,0,.1-.08c1.76,1,4.23,0,5.42-1.23a8.23,8.23,0,0,0,1-1.47,13.27,13.27,0,0,0,1-2.27,8.3,8.3,0,0,1,3.14-.19,10.25,10.25,0,0,1,1.45.26,9.83,9.83,0,0,0,1.39.37,7.88,7.88,0,0,0,2.75,4.55,5.62,5.62,0,0,0,2,.93,4.35,4.35,0,0,0,2.83.1,2.08,2.08,0,0,0,.3-.13c1.25.46,3.31.95,4.64.23l0,.05c.44.4,1.28.11,1.73-.15l.07,0h0a2.49,2.49,0,0,0,3.11-1.19,1.68,1.68,0,0,0,0-1.71c1.09.51,2.29.83,3.39,1.3s2.19,1,3.24,1.53a25.49,25.49,0,0,0,2.42,2.06,4.26,4.26,0,0,0,3.2,2.11,16.22,16.22,0,0,0,5.89-.3,17.73,17.73,0,0,0,4.44-1.76c1.23-.45,2.47-.89,3.72-1.3a20.73,20.73,0,0,0,5.5-2.61,9.73,9.73,0,0,0,3.43-3.8,4.51,4.51,0,0,0,.36-2.29,2.71,2.71,0,0,0,3-1.51,1.88,1.88,0,0,0,.12-.3A2,2,0,0,1,109.12,86.41Zm-88.4,7c-.18,1.31-1.76.81-2.65-2.2-.73-2.51-1.59-4.77-5-6a20.37,20.37,0,0,0-4.92-.78c-.62,0-3.18.83-3.67-1-.31-1.18,1-2.19,1.77-2.41a5,5,0,0,0,3-2.06c2.41-3.34,7.54-2.88,8.3,1.23.38,2,.59,4.43,1.69,6.27A13.68,13.68,0,0,1,20.72,93.39ZM32.3,91.8A1.84,1.84,0,0,1,32,92.89a.8.8,0,0,1-1.4-.28c-.6-1.7,1.41-3,2.88-2.74l.07,0a.15.15,0,0,1,0,.27A2.45,2.45,0,0,0,32.3,91.8Zm2.79.62a1.06,1.06,0,0,1-1.45,1A1.46,1.46,0,0,1,33,91.5l.11-.18a2.41,2.41,0,0,1,.8-1.15c.74-.59,1.86-1.11,2.74-.54a.15.15,0,0,1,0,.26c-.25.19-.52.35-.8.53C35.18,90.85,35.15,91.7,35.09,92.42Zm3.17-.51c-.12.68-.26,1.39-1,1.69-1.29.56-1.84-1.33-1.51-2.22a3.13,3.13,0,0,1,3.1-1.77.14.14,0,0,1,.12.06c.57-.08,1.19-.08.92.34-.15.23-.4.28-.63.41A2.07,2.07,0,0,0,38.26,91.91Zm6.21-.55a4.73,4.73,0,0,1-4,1.88c-1.65-.17-1.38-1.78-.48-2.69a3.88,3.88,0,0,1,3.71-1.21c.42,0,.9.12,1.06.48A1.48,1.48,0,0,1,44.47,91.36ZM56.84,48.61a5.74,5.74,0,0,0,1-1.94,27,27,0,0,1-5,4.11c-.72.44-1.49.81-2.2,1.28S49,53.1,48.94,54c0,.14-.2.22-.28.08-1-1.74-3.06-2.36-4.75-3.15A9.11,9.11,0,0,1,40,47.58a4.34,4.34,0,0,0,1,2.1c.1.13,0,.33-.18.23-3.14-2-7.06-2.54-10-4.87A7.06,7.06,0,0,1,28,40.59c-.22-1.44-.33-3.37.57-4.5-.42.52-1,.37-1.35,1.82-.6-2.14,1.62-3.24,3.34-2.53a22.65,22.65,0,0,1,2.4,1.35,5.62,5.62,0,0,1,2.15,1.71c.62,1,1,2.17,1.91,2.91a9.23,9.23,0,0,0,3.62,1.78c2.27.55,4.61.51,6.9.84a.15.15,0,0,1,0,.27,6.69,6.69,0,0,1-1.46.32c.79.54,2.15.12,3-.14a16,16,0,0,0,3-1.31,8.27,8.27,0,0,0,3.15-2.8,7.4,7.4,0,0,1,1.68-2.43c.09-.08.21,0,.22.12a6.92,6.92,0,0,1,0,1.44A6.08,6.08,0,0,0,58.78,37a11.82,11.82,0,0,1,1.57-2.63,14.36,14.36,0,0,1,3.44-2.5c.37-.22.75-.42,1.13-.63a14.57,14.57,0,0,1,2.86-2.09,5.41,5.41,0,0,1,2.48-.82c3.12,0,2.25,4.8,1.65,6.64a.15.15,0,0,1-.28,0A6.69,6.69,0,0,0,71,33.14a10.47,10.47,0,0,1-.68,3.8,14.12,14.12,0,0,1-2.37,3.6c-.11.12-.27,0-.25-.15A8.94,8.94,0,0,0,67.39,36a22.15,22.15,0,0,1-1,4.09,14.3,14.3,0,0,1-2.26,3.54A21.32,21.32,0,0,1,57,48.81C56.92,48.87,56.75,48.74,56.84,48.61Zm3.71,45.47c-1.17-.08-2.93-.49-3.33-1.81s1.34-1.79,2.33-1.59a3.1,3.1,0,0,1,3.08,1.57C63.31,93.72,61.73,94.15,60.55,94.08Zm4.9.62a1.81,1.81,0,0,1-1.24-.43,1.53,1.53,0,0,1-.44-.77c-.11-.34-.32-.63-.43-1-.36-1.08.72-1.47,1.6-1.14l0,0a2.36,2.36,0,0,1,2,1.81A1.43,1.43,0,0,1,65.45,94.7Zm3.23-.26a.45.45,0,0,1-.25.09.64.64,0,0,1-.64-.44,5.31,5.31,0,0,0-.44-1.65c-.13-.21-.61-.54-.56-.82s.23-.19.42-.18h.06a.09.09,0,0,1,.1,0h.11a1.61,1.61,0,0,1,.53.25,2.09,2.09,0,0,1,1,.92,1.48,1.48,0,0,1,.26.57C69.34,93.67,69.15,94.37,68.68,94.44Zm2.54-1.06c.08.59-.39,1.79-1.17,1.33-.38-.22-.2-.8-.18-1.13,0-.66-.32-.94-.67-1.4-.12-.16-.27-.49,0-.6s.65.1.9.24h0A2,2,0,0,1,71.22,93.38ZM104,89.72c-3,.39-5.51-1.68-8.46-1.3-3.41.43-5.47,3.36-7.93,5.44-.83.7-2.79,2.25-3.88,2.26-4.07.06.07-3.8,1.39-4.5a6,6,0,0,0,3.38-3.73,14.52,14.52,0,0,1,2.12-4.71,8.38,8.38,0,0,1,3.81-2.92,5.52,5.52,0,0,1,5.64.76c1.19,1,1.21,2.73,2.19,3.85s3,1.34,3.49,2.42S105,89.6,104,89.72Z"/><path class="cls-6" d="M48.39,77.4a19.12,19.12,0,0,1-.69,4A9.79,9.79,0,0,1,44,87.05c-3.13,2-8.76,1.34-10.45-2.09a1.17,1.17,0,0,0-.05.11,5.28,5.28,0,0,1,.05,3.12c-.5,1.13-1.66,1.68-2.6,2.39h0a.46.46,0,0,1-.07.07,5.79,5.79,0,0,1,.64-.36,2.91,2.91,0,0,1,1.9-.43l.07,0a.15.15,0,0,1,.07.24c0,.19-.24.36-.32.54a2.11,2.11,0,0,0-.17.73l0-.08a2.41,2.41,0,0,1,.8-1.15c.74-.59,1.86-1.11,2.74-.54a.15.15,0,0,1,0,.26l-.26.18a1.77,1.77,0,0,0-.59,1.15v.12a3.13,3.13,0,0,1,3.08-1.73.14.14,0,0,1,.12.06c.57-.08,1.19-.08.92.34a.91.91,0,0,1-.17.17,5,5,0,0,1-.35.4A1.63,1.63,0,0,0,39,91.91a3,3,0,0,1,1.48-1.78,3.81,3.81,0,0,1,3-.85c1.51-.06,3.18.58,2.77,2.41a5.64,5.64,0,0,1-1.07,2.19,4,4,0,0,0,.43-.38,8.23,8.23,0,0,0,1-1.47,11.66,11.66,0,0,0,.78-1.65.14.14,0,0,1,0-.09c.33-1.23.79-2.39,1-3.64a20.59,20.59,0,0,0,.41-3.75A27.38,27.38,0,0,0,48.39,77.4Z"/><path class="cls-6" d="M55.66,91.08a5.47,5.47,0,0,1,3.5-.52c.22,0,.45.06.69.11a3,3,0,0,1,2.78,1.58c0,.07,0,.13.07.19a1.5,1.5,0,0,1,.18.5,2.44,2.44,0,0,0,0-.27,1.46,1.46,0,0,1,.28-1.07,1.92,1.92,0,0,1,2-.27,2.76,2.76,0,0,1,2.18,3,2,2,0,0,0,.09-1.18A6.39,6.39,0,0,0,67,92c-.12-.14-.23-.29-.2-.42a.19.19,0,0,1,.11-.15c.2-.27,1.13.13,1.26.22A2.33,2.33,0,0,1,69.35,94a1.44,1.44,0,0,0,0-1.38,1.59,1.59,0,0,1-.27-.66c0-.15,0-.31.12-.38s.65.1.9.24h0a1.54,1.54,0,0,1,.58.41,8,8,0,0,1-.6-.95,4.66,4.66,0,0,1-.42-2.57,13.82,13.82,0,0,1,.79-2.88c.26-.76.64-1.47,1-2.2-.07.1-.13.19-.21.29C69.63,86,67.61,88.24,65,89.08A7.15,7.15,0,0,1,58.52,88a8.4,8.4,0,0,1-2.68-5.49,27.45,27.45,0,0,1,.48-9.2l-.13,0a17.85,17.85,0,0,0-1.11,3.86c-.34,1.6-.72,3.18-1,4.79a37.52,37.52,0,0,0-.5,5.07c0,.78-.08,1.57-.08,2.35a4,4,0,0,0,.09.78h0a9.19,9.19,0,0,0,1.41,3.18A1.81,1.81,0,0,1,55.66,91.08Z"/><path class="cls-6" d="M30.26,92.36a5.49,5.49,0,0,1,.2-.57,2.14,2.14,0,0,1,1.12-1.52c.82-.73,1.85-1.34,2.13-2.4A8.27,8.27,0,0,0,33.58,84c-.11-.47-.24-1-.39-1.42a9.43,9.43,0,0,1,.2,1.9,3.3,3.3,0,0,1-1.25,3.06.14.14,0,0,1-.2,0c-1-2.13-.52-4.7-1-7s-1.26-4.68-3-6.28a14.26,14.26,0,0,1,2.11,6.86A20,20,0,0,1,28.5,89a9.52,9.52,0,0,1-1.85,3.15c-.36.37-1.06,1.2-1.69,1s-.65-.73-.75-1.17a11.45,11.45,0,0,0-.53-2A14.12,14.12,0,0,0,23,92.54a7.31,7.31,0,0,1-1,2.41,5.57,5.57,0,0,1-3.39,2.52,5.74,5.74,0,0,1-4.15-.68,20.59,20.59,0,0,1-2-1.39,8,8,0,0,0,.65.79,6.9,6.9,0,0,0,7.59,1.93A4.45,4.45,0,0,0,22.32,97a.17.17,0,0,0,.24.09A13.29,13.29,0,0,0,26,94.72a.09.09,0,0,0,.1,0,25.18,25.18,0,0,1,2.22-1.48c.62-.31,1.37-.54,2-.92Z"/><path class="cls-6" d="M85.15,99.44c-2-.49-3.94-1.66-4.3-3.85a7.42,7.42,0,0,1,.6-4.17c-.72,1-1.33,2.11-2.07,3.14-1.6,2.22-3.55-3.49-3.92-4.44-1.45-3.72-.38-7.71,1.86-10.88,4.24-6,7.39-12.83,7.93-20.18a36.31,36.31,0,0,1-1.08,4.86A23.26,23.26,0,0,1,82.07,69c-.89,1.49-1.9,2.89-2.81,4.36a.15.15,0,0,1-.25-.15,40.6,40.6,0,0,0,3.36-8.69c.33-1.4.63-2.83.83-4.25a12.07,12.07,0,0,0,.1-1.69c-.13.71-.26,1.41-.38,2.1a30.52,30.52,0,0,1-4.2,11.18c-2.18,3.42-5,6.38-7,9.92a13,13,0,0,0-2,6.08A11.44,11.44,0,0,0,70.47,92a2,2,0,0,1,.59.8l.13,0s0,0,0,0c1.09.51,2.29.83,3.39,1.3s2.19,1,3.24,1.53a25.49,25.49,0,0,0,2.42,2.06,4.26,4.26,0,0,0,3.2,2.11,15.65,15.65,0,0,0,5.15-.15A11.55,11.55,0,0,1,85.15,99.44Z"/><path class="cls-6" d="M54.2,82.28a43.52,43.52,0,0,1,2-8.5c.37-1,.77-2,1.18-3q.85-2.49,1.93-4.89a88.3,88.3,0,0,1,4.39-8.27c1.69-2.92,3.59-5.69,5.54-8.44,1.39-2,2.49-4.12,4-6a11.24,11.24,0,0,0-2.77,2.9c-.08.13-.32,0-.26-.12a44.63,44.63,0,0,1,2.73-5.66,17.41,17.41,0,0,0,2.23-6A12.25,12.25,0,0,0,75,31.05c-.15,2.53-1.36,4.86-2.21,7.21a.15.15,0,0,1-.29,0,6.38,6.38,0,0,0-.19-1.39,9.06,9.06,0,0,1-1.18,3.83,13.43,13.43,0,0,1-2.21,2.82c-.78.74-1.89,1-2.65,1.77-.1.1-.31,0-.25-.14a5.9,5.9,0,0,0,.36-1.52A10.6,10.6,0,0,1,64.72,46a20.92,20.92,0,0,1-5.07,3.79c-3.45,2-9.17,4-9.17,8.63,0,1.19,0,.72-.07.59A16.45,16.45,0,0,0,43.5,52.9c-2.58-1.17-5.22-2.19-7.82-3.29S30.59,47.18,29,44.82a10.76,10.76,0,0,1-1.91-6c-.81,3.38,1.21,6.88,3.37,9.43A26.91,26.91,0,0,0,34.21,52c.67.52,1.35,1,2,1.54a.17.17,0,0,1,.12,0c3.13,2,4.85,5.7,6.51,8.87A52.15,52.15,0,0,1,47.55,74c1,4,1.7,8.32.76,12.38-.25,1.09-.37,2.21-.57,3.32a8.3,8.3,0,0,1,3.06-.17,10.25,10.25,0,0,1,1.45.26,10.47,10.47,0,0,0,1.33.36A39.06,39.06,0,0,1,54.2,82.28Z"/><path class="cls-6" d="M70.42,46.11c-.08.13-.32,0-.26-.12a44.63,44.63,0,0,1,2.73-5.66,18.63,18.63,0,0,0,2.18-5.58,19.55,19.55,0,0,1-2.44,5.37c-1.07,1.65-2.27,3.22-3.37,4.84a49.15,49.15,0,0,1-3.19,6.71,20.58,20.58,0,0,1-4.1,5,22.34,22.34,0,0,1-5,3.77c-3.43,1.6-8.19,2.06-11.61.18-2.59-1.42-4.59-4.06-7.15-5.48,2,2,3.35,4.86,4.64,7.33A52.15,52.15,0,0,1,47.55,74c1,4,1.7,8.32.76,12.38-.25,1.09-.37,2.21-.57,3.32a8.3,8.3,0,0,1,3.06-.17,10.25,10.25,0,0,1,1.45.26,10.47,10.47,0,0,0,1.33.36,39.06,39.06,0,0,1,.62-7.91,43.52,43.52,0,0,1,2-8.5c.37-1,.77-2,1.18-3q.85-2.49,1.93-4.89a88.3,88.3,0,0,1,4.39-8.27c1.69-2.92,3.59-5.69,5.54-8.44,1.39-2,2.49-4.12,4-6A11.24,11.24,0,0,0,70.42,46.11ZM55.49,70.71a64.35,64.35,0,0,0-1.6,6.89c-.35,1.62-.44,6.66-2,7.65s-1.6-2.35-1.69-3.55c-.35-4.57-1.1-10.9-3.06-15-1.21-2.58,1.71-2,4.87-2s6.54-.57,5.67,1.18A48.2,48.2,0,0,0,55.49,70.71Z"/><path class="cls-7" d="M91.81,57.81l-.18-.17,0,0a4.5,4.5,0,0,0-3.12-1.27,5.34,5.34,0,0,0-2.75.41,53.14,53.14,0,0,0-.07-6.8c-.14-2-.37-3.94-.64-5.9a50.44,50.44,0,0,1,.28,7.57,45.43,45.43,0,0,1-.4,8.72A43.58,43.58,0,0,1,82,70.15a.09.09,0,0,0,.17.08A31,31,0,0,0,85.7,57.34l.08,0a4.92,4.92,0,0,1,2.69-.49,5.79,5.79,0,0,1,1.77.26,3.79,3.79,0,0,0-1.45.12,5,5,0,0,1,1.11.27,4,4,0,0,1,1.87.42S91.84,57.84,91.81,57.81Z"/><path class="cls-7" d="M108.69,83h0a3.07,3.07,0,0,0,.06-1.41,2,2,0,0,0-1.28-1.46c.55-1.49-.08-3.48-1.86-3.45a4.21,4.21,0,0,0-.06-3.44c-1-1.79-3.58-1.41-5.08-.68a5.86,5.86,0,0,0-2.63,2.53c-.35.23-.7.46-1,.7a12.7,12.7,0,0,0,.43-2.21,7.24,7.24,0,0,1-1,2.47,1.16,1.16,0,0,0,0,.18c-.47.34-.93.68-1.37,1a10,10,0,0,0-2.05,2.65s0,.06,0,0a16.1,16.1,0,0,1,2.44-2.51c.71-.51,1.55-1,2.23-1.54a8,8,0,0,0-.51,2.3s0,0,0,0c.52-2.06,1.21-3.77,3.08-5,1.46-.92,4-1.49,5.1.25.73,1.17.16,2.85-.41,3.94A5.22,5.22,0,0,1,101,80.06a6.17,6.17,0,0,0-3-1,0,0,0,1,0,0,.06c1.92.29,3.31,1.61,4.62,2.94.08.07.17,0,.13-.11a5.65,5.65,0,0,0-1.45-1.68,5.12,5.12,0,0,0,3.84-2.66c.09-.17.18-.35.26-.53a1.72,1.72,0,0,1,1.84,1.55,3.27,3.27,0,0,1-.58,2.1c-.73,1.26-2.15,1.46-3.47,1.52,0,0,0,.07,0,.08a3.7,3.7,0,0,0,4.06-1.84,1.65,1.65,0,0,1,1.1,1.38,3.38,3.38,0,0,1-.35,1.74A2.45,2.45,0,0,1,105.47,85c-.06,0-.07.1,0,.1a2.73,2.73,0,0,0,3-1.5,1.22,1.22,0,0,0,.07-.17,1.91,1.91,0,0,1,.81,2.7,2.76,2.76,0,0,1-2.62,1.44,2.56,2.56,0,0,0-.91-1.61c-.06,0-.16,0-.1.09,1.23,1.44.67,3.54-.31,4.94a12.24,12.24,0,0,1-3.56,3.12,29.73,29.73,0,0,1-5.3,2.31L95.11,97h0l-.4.19c-.81.34-1.62.68-2.42,1a19.33,19.33,0,0,1-2,.68,19.1,19.1,0,0,1-5.33.61c-1.88,0-3.63-.48-4.47-2.33s0-3.59.54-5.3c0-.07-.08-.12-.11-.05-.72,1.67-1.46,3.25-1,5.09,0,.1,0,.19.09.29a22.1,22.1,0,0,1-3.4-3.83,13.22,13.22,0,0,1-1.92-6.08c-.3-4.39,2-8.89,5.17-11.84,0,0,0-.09,0-.06a15.74,15.74,0,0,0-4,5c0-.31,0-.62.09-.93a7.23,7.23,0,0,1,.42-1.58,8.71,8.71,0,0,1,1.42-2.45c.05-.06,0-.13-.09-.08A9,9,0,0,0,75.89,78a4.31,4.31,0,0,0-.41,2.7.12.12,0,0,0,.12.08,14.2,14.2,0,0,0-1.44,6.34,13.43,13.43,0,0,0,1.78,6.17,9.25,9.25,0,0,0,.88,1.3c-.59-.29-1.23-.51-1.8-.76a19.29,19.29,0,0,0-4-1.32c-.21-.31-.46-.6-.69-.89a.23.23,0,0,0,0-.14c-1.43-2.93.42-6.4,1.67-9.1,1.44-3.11,3.65-5.76,5.58-8.57a33.32,33.32,0,0,0,4.34-9.13A32.5,32.5,0,0,0,83.55,54a.7.7,0,0,1,0-.39c0-.07,0-.13,0-.19a.41.41,0,0,0,0-.11s-.06,0-.06,0a42.46,42.46,0,0,1-2.16,11.76,35.6,35.6,0,0,1-2.05,5,37.3,37.3,0,0,1-2.92,4.54A43.16,43.16,0,0,0,71,83.22c-1,2.46-2.86,5.91-1.13,8.46a.18.18,0,0,0,.09.06,5.63,5.63,0,0,1,.9,1.82,1.78,1.78,0,0,1-.84,1.56,1.87,1.87,0,0,1-1.51.25,2.33,2.33,0,0,0,.82-1.26,2.36,2.36,0,0,0-2.46-2.76c-.05,0-.06.1,0,.11A2.17,2.17,0,0,1,69,93.85a2.36,2.36,0,0,1-2.4,1.77,2.22,2.22,0,0,0,.49-.6c1-1.86-.87-4-2.79-3.75,0,0,0,0,0,.06a2.69,2.69,0,0,1,2.19,1.16A2.12,2.12,0,0,1,66.56,95c-1,1.19-3.14.75-4.5.29a2.42,2.42,0,0,0,.9-1.76,3,3,0,0,0-1.48-2.64,4.86,4.86,0,0,0-3.26-.14s0,0,0,0c1.92-.27,4.07.27,4.32,2.52A2,2,0,0,1,61,95.42a3.43,3.43,0,0,1-1.8,0,3.83,3.83,0,0,1-.56-.22,6.74,6.74,0,0,1-1.15-.38,5.94,5.94,0,0,1-2.76-3,11.28,11.28,0,0,1-.92-4.12,24.33,24.33,0,0,1,.6-5.17c.38-2.29.77-4.58,1.36-6.83a58.2,58.2,0,0,1,2.4-6.79,86.24,86.24,0,0,1,6.48-13c2.59-4.22,5.51-8.24,8.39-12.27,0-.06,0-.13-.08-.08-1.32,1.68-2.62,3.38-3.88,5.11.07-.25.14-.5.2-.73.31-1.12.5-2.27.89-3.36,0-.06-.06-.09-.08,0a16.11,16.11,0,0,0-1,2.61c-.26.91-.65,1.82-.9,2.74-1.15,1.6-2.26,3.21-3.33,4.86a81.42,81.42,0,0,0-6.38,12.12A60,60,0,0,0,54.3,79.94c-.57,3.21-1.44,6.53-.77,9.78a13.36,13.36,0,0,0-3.15-.65,5.92,5.92,0,0,0-2.65.47,27.63,27.63,0,0,0,.77-3c.86-3.9.3-8.2-.63-12a58.88,58.88,0,0,0-4.08-11.2,33.66,33.66,0,0,0-3.65-6.27c1,.91,2,1.9,3.12,2.77a11.5,11.5,0,0,0,7.67,2.31,12.79,12.79,0,0,0,4.17-.63,16.21,16.21,0,0,0,3.81-2.18s0-.1-.06-.08a23.59,23.59,0,0,1-3.63,1.89,12.38,12.38,0,0,1-4.32.56,15.11,15.11,0,0,1-4.18-.51A10.23,10.23,0,0,1,43,59c-.95-.8-1.84-1.67-2.78-2.48s-1.69-1.38-2.55-2l-.26-.21h0L37,54a29.59,29.59,0,0,1-6.19-5.68s-.09,0-.06.05a25,25,0,0,0,6,6l1.52,1.17c.79,1,1.57,1.92,2.29,3a37.3,37.3,0,0,1,2.76,4.84,63.14,63.14,0,0,1,4,10.34,29.61,29.61,0,0,1,.91,11.88,16.54,16.54,0,0,1-.63,2.7,15.21,15.21,0,0,1-.9,2.64c-1.25,2.46-3.57,4.51-6.43,3.3-1.52-.65-.7-2.63.09-3.51a3.32,3.32,0,0,1,3.58-1,0,0,0,1,0,0-.06c-2.25-1.34-6.28,2-4.76,4.25a3,3,0,0,0,.6.66c-1.55.57-3.45.36-3.85-1.54a2.57,2.57,0,0,1,.5-2.18,4,4,0,0,1,2.06-.93,0,0,0,0,0,0-.09,3.4,3.4,0,0,0-2.26.84,2.94,2.94,0,0,0-.64,2.57,2.4,2.4,0,0,0,.48,1.06c-1.25.32-2.45.25-2.87-1.2a2.78,2.78,0,0,1,1.46-3.08s0-.11,0-.08a2.85,2.85,0,0,0-1.8,3.3,3.1,3.1,0,0,0,.31.78,2.68,2.68,0,0,1-1.62-.25c-.92-.44-.76-1.44-.35-2.2.68-1.29,2.31-1.68,2.91-3a3,3,0,0,0,.15-1.48c-.07-.94-.22-1.88-.38-2.81-.09-.46-.19-.91-.3-1.36A17.06,17.06,0,0,0,33,80.54a30,30,0,0,0-2.66-5.61c-1.1-2-2.22-4-3.43-5.93s-2.43-3.6-3.47-5.53a32.24,32.24,0,0,1-2.7-6.76A29.45,29.45,0,0,1,19,46.56,66.13,66.13,0,0,1,20.09,36c0-.17.05-.34.08-.51a47.3,47.3,0,0,0-1.11,7.94,43.83,43.83,0,0,0,1.13,13.36c.24.88.53,1.73.85,2.57a5.43,5.43,0,0,0-4.17.8s0,.08,0,.06l.45-.13a4.19,4.19,0,0,1,.79.12,2.25,2.25,0,0,1,.51.2,1.85,1.85,0,0,0-.58.06,8.81,8.81,0,0,0-1.55.66c-.16.09-.31.18-.47.29a7.09,7.09,0,0,1,2.52-.78l.46-.06,0,0a.07.07,0,0,0,.08,0l.34,0a0,0,0,0,0,0-.07l-.4,0A1.81,1.81,0,0,0,17.68,60,10.24,10.24,0,0,1,19,59.64a10.72,10.72,0,0,1,2.26.12,46,46,0,0,0,4.56,8.37C27,70,28.16,72,29.27,74a47.58,47.58,0,0,1,3.06,6,26.37,26.37,0,0,1,1.25,5.08c0,.12,0,.24.05.36a6.26,6.26,0,0,1,0,2.79c-.29.77-1.17,1.15-1.77,1.62a4.57,4.57,0,0,0-1.47,1.9,10.55,10.55,0,0,0-2.52,1.19l-.55.34c.15-.17.29-.35.42-.53A16.85,16.85,0,0,0,30.32,87a16,16,0,0,0-2.39-13.22s-.1,0-.07,0a17.61,17.61,0,0,1,2,12.85,16.48,16.48,0,0,1-2.53,5.77A12.06,12.06,0,0,1,25,94.77c-.7.58-1.49,1-2.22,1.6A8.5,8.5,0,0,0,24,92.06c0-.06-.1-.06-.11,0-.6,2.44-1.13,4.86-3.78,5.79s-5.57-.51-7.3-2.65c-.77-1-1.4-2-2.13-3A16.54,16.54,0,0,0,8,89.47c-1.75-1.48-4.79-4-4.25-6.58a.08.08,0,0,0,0-.08,3.16,3.16,0,0,1,.2-.59s0-.09-.07,0a3.65,3.65,0,0,0-.29.55c-1,0-2.58,0-3-1.12a2.07,2.07,0,0,1,1-2.74,3.81,3.81,0,0,0,1.26,1.86,1.77,1.77,0,0,0,1.68.47c-.11.19-.22.39-.32.59,0,0,0,.07.06,0C5.82,79.28,8.6,78.06,11.29,77a.08.08,0,0,0,.05,0,5.37,5.37,0,0,0,3-2.17.06.06,0,0,0-.1-.08,5.41,5.41,0,0,1-3.13,1.86,3.63,3.63,0,0,1-3.28-1.77,3.22,3.22,0,0,1-.2-3.29c.88-1.72,3.26-1.44,4.56-.61A14.72,14.72,0,0,1,16,75a18.08,18.08,0,0,1,1.15,1.79,12.89,12.89,0,0,1,1.48,3,11.09,11.09,0,0,0-.42-1.88,15.5,15.5,0,0,0-2.54-4.19c-1.05-1.4-2.61-3.22-4.43-3.83-.56,0-1.11-.1-1.66-.18a3.14,3.14,0,0,0-.4.08,2.91,2.91,0,0,0-2.27,2.5c-.66-.24-1.31.26-1.8.68A3.27,3.27,0,0,0,4,75.08a2.24,2.24,0,0,0-2.1.71,3.05,3.05,0,0,0-.51,2.7c0,.05,0,.09,0,.14-1.32.1-1.59,1.9-1.37,3C.38,83,2.25,83.25,3.48,83c-.73,2.36,1.85,4.8,3.52,6.18a20.79,20.79,0,0,1,3.53,3.42,38,38,0,0,0,2.55,3.62,6.9,6.9,0,0,0,7.59,1.93A4.45,4.45,0,0,0,22.32,97a.17.17,0,0,0,.24.09A13.29,13.29,0,0,0,26,94.72a.09.09,0,0,0,.1,0,25.18,25.18,0,0,1,2.22-1.48c.62-.31,1.37-.54,2-.92a1.87,1.87,0,0,0,.19,1,2.62,2.62,0,0,0,2.88,1l.1,0a1.77,1.77,0,0,0,.41.31,3.26,3.26,0,0,0,2.58,0h0a3.85,3.85,0,0,0,3.69.27.21.21,0,0,0,.1-.08c1.76,1,4.23,0,5.42-1.23a8.23,8.23,0,0,0,1-1.47,13.27,13.27,0,0,0,1-2.27,8.3,8.3,0,0,1,3.14-.19,10.25,10.25,0,0,1,1.45.26,9.83,9.83,0,0,0,1.39.37,7.88,7.88,0,0,0,2.75,4.55,5.62,5.62,0,0,0,2,.93,4.35,4.35,0,0,0,2.83.1,2.08,2.08,0,0,0,.3-.13c1.25.46,3.31.95,4.64.23l0,.05c.44.4,1.28.11,1.73-.15l.07,0h0a2.49,2.49,0,0,0,3.11-1.19,1.68,1.68,0,0,0,0-1.71c1.09.51,2.29.83,3.39,1.3s2.19,1,3.24,1.53a25.49,25.49,0,0,0,2.42,2.06,4.26,4.26,0,0,0,3.2,2.11,16.22,16.22,0,0,0,5.89-.3,17.73,17.73,0,0,0,4.44-1.76c1.23-.45,2.47-.89,3.72-1.3a20.73,20.73,0,0,0,5.5-2.61,9.73,9.73,0,0,0,3.43-3.8,4.51,4.51,0,0,0,.36-2.29,2.71,2.71,0,0,0,3-1.51A2.35,2.35,0,0,0,108.69,83ZM5,73.67c.32-.45,1.21-1.26,1.81-1h.07a4.29,4.29,0,0,0,.94,2.8,4,4,0,0,0,2.37,1.39,10.37,10.37,0,0,0-2.88,1.44l0,0a2.7,2.7,0,0,1-2.85-2.67A3.17,3.17,0,0,1,5,73.67ZM4,75.5a3.13,3.13,0,0,0,.9,2.25A2.5,2.5,0,0,0,7,78.52,8.38,8.38,0,0,0,4.59,81c-1.3.42-2.44-1.13-2.76-2.21C1.36,77.22,2.09,75.13,4,75.5Z"/><path class="cls-7" d="M73.48,26.12c.45.34.89.7,1.33,1.05l0,0s0,0,0,0a.06.06,0,0,0,.07-.08L74.84,27a3.94,3.94,0,0,0-2.69-2.63.05.05,0,0,0,0,.1,4.43,4.43,0,0,1,1.62,1.19,5.78,5.78,0,0,1,.55.75,5,5,0,0,0-1.74-.9s0,0,0,0l.37.21a8.57,8.57,0,0,1,1.72,6.42,14.21,14.21,0,0,1-.88,3.68,22.7,22.7,0,0,1-1.08,2.29,2.92,2.92,0,0,0-.29-1.62v-.06s0,0,0-.05a.75.75,0,0,1-.07-.12.06.06,0,0,0-.1,0,2.24,2.24,0,0,1,.11.34,6.63,6.63,0,0,1-.84,2.95,11.73,11.73,0,0,1-1.67,2.69,9.78,9.78,0,0,1-2.43,1.9,5.94,5.94,0,0,0-1.08.78l-.06.08a12.19,12.19,0,0,0,.74-3s-.07-.08-.09,0-.07.2-.1.29,0,0,0,0a16.26,16.26,0,0,1-1.94,3.29A11.53,11.53,0,0,1,62,48.05c-2,1.27-4.21,2.08-6.23,3.26A14.08,14.08,0,0,0,51.55,55a5.13,5.13,0,0,0-1.22,3.32,12.24,12.24,0,0,0-4.08-4.17c-2.8-1.72-6-2.58-9-3.94s-5.93-2.69-8-5.17c-1.85-2.23-2.74-5.24-1.17-7.87,0-.07-.06-.13-.11-.08a6.58,6.58,0,0,0-.4.57,6.87,6.87,0,0,0-.84,1.09,11.77,11.77,0,0,1,.87-4.28c0-.07-.08-.15-.12-.08a6.46,6.46,0,0,0-.94,4.85,1.21,1.21,0,0,0,0,.62.07.07,0,0,0,.13,0A3.88,3.88,0,0,1,27,39a6.72,6.72,0,0,0,.9,4.91c1.49,2.64,4.05,4.19,6.67,5.52a52.27,52.27,0,0,0,4.89,2.21c1.61.63,3.25,1.2,4.81,1.95a12.67,12.67,0,0,1,6.49,6.38,5.08,5.08,0,0,1-.12-1.69,6.71,6.71,0,0,1,2-3.89,16.48,16.48,0,0,1,4.94-3.49,33.94,33.94,0,0,0,5.79-3.19,9.84,9.84,0,0,0,2.48-2.92c-.15.44-.29.89-.43,1.33l-.12.19s0,.07,0,0l.11-.09s.06,0,.07,0l.1-.15a10.46,10.46,0,0,1,.84-.79A13.43,13.43,0,0,1,68,44.31a8.12,8.12,0,0,0,2.36-2.08,9.3,9.3,0,0,0,2-4.87c0,.41,0,.83,0,1.24q-.15.32-.27.63c0,.05,0,.11.08.06l.22-.33s0,0,0,0l0,0A15.55,15.55,0,0,0,74.09,36,15,15,0,0,0,75,32,7.65,7.65,0,0,0,73.48,26.12Z"/><path class="cls-7" d="M100.62,89.79a12.75,12.75,0,0,0-5.5,0,12.18,12.18,0,0,0-4.51,2,0,0,0,0,0,0,0,16.46,16.46,0,0,1,4.51-1.63,26.84,26.84,0,0,1,5.45-.24A.07.07,0,0,0,100.62,89.79Z"/><path class="cls-7" d="M67.1,49.26c-1.71,3-3.44,6.24-6.48,8.15,0,0,0,.1.05.08,3-1.63,5.36-5,6.49-8.2C67.17,49.25,67.12,49.22,67.1,49.26Z"/><path class="cls-7" d="M18,90.91c-1.32-3-4.9-6.25-8.39-5.73a0,0,0,0,0,0,.08c3.55.15,6.48,2.85,8.27,5.71C18,91,18.05,91,18,90.91Z"/><path class="cls-2" d="M32.36,3.11A7.28,7.28,0,0,0,28,5.68a6.1,6.1,0,0,0-1.34,3,4.94,4.94,0,0,0-.25,1.84,3.66,3.66,0,0,0,1.4,2.45c1.76,1.46,4.59.93,6.55.17l.08,0c.39,0,.78-.47,1-.72a4.82,4.82,0,0,0,.51-.79l.07-.11a.19.19,0,0,0,.12-.16C36.37,8.8,36.29,2.76,32.36,3.11Z"/><path class="cls-8" d="M33.7,3.27A3.79,3.79,0,0,1,34,3.7,5.45,5.45,0,0,1,34.79,8a.15.15,0,0,1-.24.06C34.09,7.58,33.62,6.65,33,6a2,2,0,0,0-2.73.18A7.73,7.73,0,0,0,28.6,9c-.33,1-.6,2.44.14,3.06.09.07-.57.19-.68.17C26.81,12,26.68,11.05,26.43,10a4.17,4.17,0,0,0,0,.5,3.66,3.66,0,0,0,1.4,2.45c1.76,1.46,4.59.93,6.55.17l.08,0c.39,0,.78-.47,1-.72a4.82,4.82,0,0,0,.51-.79l.07-.11a.19.19,0,0,0,.12-.16C36.34,9.12,36.3,4.26,33.7,3.27Z"/><path class="cls-9" d="M34.37,11.75A17.79,17.79,0,0,0,33.44,9a3.3,3.3,0,0,0-1.35-1.7c-1.62-.8-2.33,1-2.52,2.22,0,0,.07.07.09,0a4.78,4.78,0,0,1,.7-1.62,1.29,1.29,0,0,1,2,.18c1,1.1,1,2.57,1.6,3.83A.22.22,0,0,0,34.37,11.75Z"/><path class="cls-6" d="M34.37,11.75A17.79,17.79,0,0,0,33.44,9a3.3,3.3,0,0,0-1.35-1.7C29.46,6,28,12.52,31.49,12.59a8.38,8.38,0,0,0,2.69-.52C34.47,12,34.43,12,34.37,11.75Z"/><path class="cls-4" d="M29.62,5.4a3.3,3.3,0,0,0-2.38,2.48s0,0,0,0A8,8,0,0,1,30.1,5.24Z"/><path class="cls-4" d="M31.27,4.68a2.46,2.46,0,0,0-2.56.79,1.43,1.43,0,0,0-.23.31,5,5,0,0,1,3.17-1Z"/><path class="cls-4" d="M33.79,4.13C33,2.85,31.47,3.42,30.47,4c-.21.14-.56.39-.53.38,1.27-.31,2.88-.87,3.92-.09C33.89,4.36,33.81,4.17,33.79,4.13Z"/><path class="cls-2" d="M54.6,10.73c0,.07.11.09.2.06l.11.05a2.83,2.83,0,0,0,1.06.31A5.56,5.56,0,0,0,58.28,11a1.15,1.15,0,0,0,.24,0c2.4-.35,5.92-1,7.06-3.41A3.73,3.73,0,0,0,65.7,4.6,5.38,5.38,0,0,0,64.53,3c-2-2-4.72-3.8-7.75-2.62C54.23,1.36,54.06,8.7,54.6,10.73Z"/><path class="cls-8" d="M55.61,1.15a2.33,2.33,0,0,0-.13.55,9.69,9.69,0,0,0,.62,4.56c0,.07.15.07.21-.06.38-.8.4-1.86.77-2.76a2.25,2.25,0,0,1,2.73-1.08,9.4,9.4,0,0,1,2.8,1.87c.84.76,2,2,1.58,2.9,0,.11.69-.08.79-.15,1.12-.8.76-1.73.47-2.85a3.5,3.5,0,0,1,.25.47,3.73,3.73,0,0,1-.12,3C64.44,10,60.92,10.61,58.52,11a1.15,1.15,0,0,1-.24,0,5.56,5.56,0,0,1-2.31.17,2.83,2.83,0,0,1-1.06-.31l-.11-.05c-.09,0-.18,0-.2-.06C54.14,8.57,54.37,3.39,55.61,1.15Z"/><path class="cls-9" d="M57.41,9.83a8.61,8.61,0,0,1,.12-3.3,4.74,4.74,0,0,1,.77-2.28c1.32-1.51,2.61-.11,3.46.93,0,0,0,.1-.08.06A8.56,8.56,0,0,0,60.2,4c-.83-.4-1.63.34-1.87,1.1-.46,1.48-.12,3-.07,4.51C58.27,10,57.47,10.12,57.41,9.83Z"/><path class="cls-6" d="M57.41,9.83a8.61,8.61,0,0,1,.12-3.3c.15-.77.24-1.82.77-2.28,2.05-1.81,5.89,3,3.6,4.63-1.08.76-2.68.69-3.92,1.09C57.41,10.15,57.47,10.12,57.41,9.83Z"/><path class="cls-4" d="M60.27,1.28A3.37,3.37,0,0,1,63.6,2.54s0,0,0,0a8.35,8.35,0,0,0-3.83-1.2S60.25,1.29,60.27,1.28Z"/><path class="cls-4" d="M58.39,1.37a2.61,2.61,0,0,1,2.8-.44l.33.18a5.42,5.42,0,0,0-3.47.53S58.37,1.39,58.39,1.37Z"/><path class="cls-4" d="M55.84,2C56.08.43,57.74.26,59,.39c.25,0,.68.11.66.11-1.35.3-3.13.5-3.76,1.72C55.84,2.26,55.84,2.05,55.84,2Z"/><path class="cls-2" d="M69.84,16.49A10.85,10.85,0,0,0,64,13.68a22.76,22.76,0,0,0-4.44-3.62A23.87,23.87,0,0,0,54.32,7.2a45.18,45.18,0,0,0-5.7-1.52C47,5.33,43.89,4.84,44.2,2.6a2.4,2.4,0,0,0,.11-.23,0,0,0,0,0-.07-.06c-.94.86-1.6,2.06-.79,3a4.58,4.58,0,0,0-1.86-.44,4.81,4.81,0,0,0-2.91.78s0,.06,0,0l.37-.09A6.17,6.17,0,0,1,41,6.33a4.08,4.08,0,0,0-1.38.19h-.06l-.3.1s0,.06,0,.06a3.87,3.87,0,0,0,.68,0,3.52,3.52,0,0,1,.45.18,19.92,19.92,0,0,0-7.23,5.47A30.67,30.67,0,0,0,30,16.6c-.49.81-.91,1.67-1.36,2.51a8.88,8.88,0,0,0-.93,2.31l-.57.34a7.5,7.5,0,0,0-2,2,8.92,8.92,0,0,0-1.8,5.48,1.23,1.23,0,0,0-.05.39c0,.06.07.05.09,0l0-.1s.05,0,.05,0,.05-.15.07-.22a3,3,0,0,1,.68-.82,2.38,2.38,0,0,1,.4-.31c-.9,1.4.93,3.38,2.06,4.19a20.94,20.94,0,0,0,3.62,2,25.8,25.8,0,0,0,3.48,1.45,1.93,1.93,0,0,0,.22.87,2.9,2.9,0,0,0,1.56,1.09h0a4.43,4.43,0,0,0,1.16.4,6.24,6.24,0,0,0,4.28,2.26,14,14,0,0,0,5.94-.37,10.35,10.35,0,0,0,5.29-2.89A29.1,29.1,0,0,1,55,34.32c.26-.23.53-.45.8-.67a55.49,55.49,0,0,1,5.24-3,44.57,44.57,0,0,1,5.28-1.84,8.6,8.6,0,0,0,4.06-3.16,3.74,3.74,0,0,0,.73-3.6l.13.17A4.55,4.55,0,0,1,72,23.7a.09.09,0,0,0,.08.05.1.1,0,0,0,.11-.06A7.35,7.35,0,0,0,69.84,16.49Z"/><path class="cls-3" d="M43.21,7.22c0,.13-.11.23-.22.17a5.28,5.28,0,0,0-2.71-.82,2.31,2.31,0,0,1,1.88,1.3c.05.11,0,.27-.16.22a5.26,5.26,0,0,0-1.89-.3h0a6.33,6.33,0,0,0-3.67,2,5.55,5.55,0,0,0-1.25,1.52c-.42.86.32,1,1,1.24a3.6,3.6,0,0,1,2.05,2.95c.14.81.16,1.62.22,2.44s0,2.18.8,2.58a4.9,4.9,0,0,0,2.71.23,4.68,4.68,0,0,0,2.28-.69c1.26-.95,1.44-2.69,1.76-4.11.52-2.22,1.29-5.47,4-5.87,1.64-.24,3.16.84,4.55,1.54.75.38,2.34,1.23,3.19.67.63-.41,0-1.37-.35-1.77a13.65,13.65,0,0,0-4.93-3.44c-1.26-.56-2.63-.87-3.9-1.43-1.48-.32-4.17-.79-4.32-2.6a2.78,2.78,0,0,0,.75,3,.15.15,0,0,1-.18.23,13.76,13.76,0,0,0-3.11-1.39h-.06a5.48,5.48,0,0,0-2.21.38A3.31,3.31,0,0,1,43.21,7.22Z"/><path class="cls-3" d="M69.51,17.36a14.3,14.3,0,0,0-5.46-2.88.14.14,0,0,1-.08-.23,5.23,5.23,0,0,0-2.23-.11,7.82,7.82,0,0,0-2.84,1.1,8.89,8.89,0,0,0-3.15,3.67A5.15,5.15,0,0,0,55.11,21c0,.93.74,1.3,1.59,1a21.28,21.28,0,0,0,2.43-1.23,12.57,12.57,0,0,1,2.51-1,14,14,0,0,1,3-.37,4,4,0,0,1,1.09.1c.23.06,1.72.43,1.35-.21-.19-.35-.45-.7-.19-1.07a.86.86,0,0,1,.89-.27,17.46,17.46,0,0,1,1.72.74,1.6,1.6,0,0,0,.37.12c.26,0,.94,0,.56-.63A3.52,3.52,0,0,0,69.51,17.36Z"/><path class="cls-3" d="M24.36,26.83c.4.55,1.24-.45,1.53-.73s1.26-1.17,1.66-.48c.08.14.13.81.36.73A10.4,10.4,0,0,0,30,25a11,11,0,0,1,4.14-1.68c.53-.1,2.88-.65,1.86-1.39a.14.14,0,0,1-.06-.11,6.44,6.44,0,0,0-4-1.44,8.36,8.36,0,0,0-5.19,2.07,11.65,11.65,0,0,0-2,2.69C24.5,25.57,24,26.39,24.36,26.83Z"/><path class="cls-5" d="M55.25,27.52a6.82,6.82,0,0,0-2.64-3.08c-2.48-1.66-5.35-2.07-8.12-3.09a47.21,47.21,0,0,0-6.7.75c-2.82,1.22-6.46,4.77-7.5,8.09a5,5,0,0,0,1.36,2.68c.56.61,1.47.82,2,1.42s0,1.56.34,2.31l.06.12a2.9,2.9,0,0,0,1.56,1.09h0a4.43,4.43,0,0,0,1.16.4,1.71,1.71,0,0,1,.11.14c6.33,1.86,13.29-1,17.19-6.32C55.08,30.73,55.86,29.14,55.25,27.52Z"/><path class="cls-10" d="M49.6,28.07A2.19,2.19,0,0,0,50.7,30a.1.1,0,0,1,.07.07.14.14,0,0,1,0,.21c-1,1.19-1.23,2.82-2.13,4.09a5.65,5.65,0,0,1-3,2.1c-1.88.59-4.85,1.34-6.32-.49-.12-.15.09-.36.21-.21l0,0A9.88,9.88,0,0,0,43.43,34c1-.67,3.09-2.17,2.74-3.58a5.91,5.91,0,0,0-2.78-3.15,15,15,0,0,0-2.91-1.17A9.79,9.79,0,0,0,37,26a11.76,11.76,0,0,0-2.64.9,9.23,9.23,0,0,0-4.05,3.35,4.9,4.9,0,0,0,1.36,2.67c.56.61,1.47.82,2,1.42a1.17,1.17,0,0,1,.28.84,3.53,3.53,0,0,0,2.94.81A.22.22,0,0,1,37,36a.11.11,0,0,1,.1,0,3.87,3.87,0,0,0,1.26,1.09.15.15,0,0,1,0,.29,10.27,10.27,0,0,1-2.64.44,4.16,4.16,0,0,0,1.08.36,1.71,1.71,0,0,1,.11.14c.38.11.76.2,1.15.28a3.37,3.37,0,0,0,1.45-.3,3,3,0,0,1,.77-.24,2.11,2.11,0,0,1,1,.15,4.05,4.05,0,0,0,1.38.2,13.32,13.32,0,0,0,3-.34A6.65,6.65,0,0,0,50.05,35c.69-1.29,1.05-2.71,1.62-4-.05-.09,0-.18.12-.2a.14.14,0,0,1,.19.07c1.24.89,3-.71,3.33-2C53.69,30.38,50.63,30.18,49.6,28.07Z"/><path class="cls-8" d="M69.84,16.49A10.85,10.85,0,0,0,64,13.68a22.76,22.76,0,0,0-4.44-3.62A23.87,23.87,0,0,0,54.32,7.2c-.89-.33-1.8-.59-2.72-.83C53,7,54.32,7.87,55.69,8.64a33.5,33.5,0,0,1,4.1,2.67,10.93,10.93,0,0,1,2.61,2.16c0,.07-.21-.05-.28,0s-1.55.26-1.72.29c1,.18,2.71.3,3.69.54C67,15,70.66,17.21,71,20.52c-.12-1.41-3-2.39-4.09-2.45.43,0,1.08,2.55,1,3-.32,1.41-2.3,1.85-3.46,2.14a26.39,26.39,0,0,1-3.73.62,20.84,20.84,0,0,1-7.78-.72c-2.42-.7-4.74-1.56-7.28-1.33,1.55.64,5.5,1.39,3.61,2.89a12.53,12.53,0,0,1-4.46,1.81,6,6,0,0,1-2.18-.31c-.55-.16-1.13-.24-1.7-.37A12.68,12.68,0,0,1,42.7,27.2c.47.47,1.12,1.18.74,1.89a.15.15,0,0,1-.25,0,9.15,9.15,0,0,1-1.55.27c-.65,0-1.29,0-2,0-1.33,0-2.66.13-4,.11-1.17,0-2.79.54-3.86-.07-1.35-.76.56-2.66,1.12-3.32a18,18,0,0,1,4.15-3.68,14,14,0,0,0-4,2.18c-.81.62-1.6,1.28-2.39,1.93A6.89,6.89,0,0,1,29,27.72c-.7.27-2.46.85-2.71-.3A2,2,0,0,1,26.62,26a7.72,7.72,0,0,1-2.27,1.28.15.15,0,0,1-.19-.14c-.12-2,1.2-3.72,2.62-4.93a17.09,17.09,0,0,1,4.06-2.14c-.24,0-1.25.13-1.48.19s-.23-.07-.18-.18a42.45,42.45,0,0,1,5.6-9.43c-.58.56-1.13,1.13-1.65,1.72A30.67,30.67,0,0,0,30,16.6c-.49.81-.91,1.67-1.36,2.51a8.88,8.88,0,0,0-.93,2.31l-.57.34a7.5,7.5,0,0,0-2,2,8.92,8.92,0,0,0-1.8,5.48,1.23,1.23,0,0,0-.05.39c0,.06.07.05.09,0l0-.1s.05,0,.05,0,.05-.15.07-.22a3,3,0,0,1,.68-.82,2.38,2.38,0,0,1,.4-.31c-.9,1.4.93,3.38,2.06,4.19a20.94,20.94,0,0,0,3.62,2,25.8,25.8,0,0,0,3.48,1.45,1.93,1.93,0,0,0,.22.87,2.9,2.9,0,0,0,1.56,1.09h0a4.43,4.43,0,0,0,1.16.4,6.24,6.24,0,0,0,4.28,2.26,14,14,0,0,0,5.94-.37,10.35,10.35,0,0,0,5.29-2.89A29.1,29.1,0,0,1,55,34.32c.26-.23.53-.45.8-.67a55.49,55.49,0,0,1,5.24-3,44.57,44.57,0,0,1,5.28-1.84,8.6,8.6,0,0,0,4.06-3.16,3.74,3.74,0,0,0,.73-3.6l.13.17A4.55,4.55,0,0,1,72,23.7a.09.09,0,0,0,.08.05.1.1,0,0,0,.11-.06A7.35,7.35,0,0,0,69.84,16.49Z"/><path class="cls-11" d="M36,16.82A2.45,2.45,0,0,0,35.2,18a5,5,0,0,0-.26,2.66,4.23,4.23,0,0,1,.72-2.9c.27-.3,0,.28,0,.43-.35,1.64,0,3.27.77,2.82s.49-2.28.45-2.8S36.7,16.46,36,16.82Z"/><path class="cls-8" d="M36,13.52a.4.4,0,0,0-.3-.1c-.57.06-.88,1.1-1.17,1.91,0,.19-.23.73-.27.93,0,0,.28-.44.28-.44.37-.42.59-.72,1-.76a1.52,1.52,0,0,1,1.24.47A5.89,5.89,0,0,0,36,13.52Z"/><path class="cls-12" d="M35.9,13.61a.36.36,0,0,0-.25-.08c-.47,0-.7.75-.92,1.32,0,.13-.18.5-.2.64s.21-.3.22-.3c.29-.29.47-.49.82-.51a1.4,1.4,0,0,1,1,.34A4.13,4.13,0,0,0,35.9,13.61Z"/><path class="cls-12" d="M36.88,19.16c0,1.35-.27,1.74-.56,1.73s-.55-.4-.53-1.36.33-2.14.62-2.13S36.86,18.2,36.88,19.16Z"/><path class="cls-13" d="M36.39,18.34c-.08.66-.22.87-.36.87s-.12-.32-.08-.62a1.76,1.76,0,0,1,.34-.92C36.41,17.6,36.43,18,36.39,18.34Z"/><path class="cls-11" d="M51.9,15.61c.48.14.82.64,1.12,1a4.43,4.43,0,0,1,.68,2.59c-.27-1.8-.89-2.5-1.25-2.75s0,.28,0,.42c.64,1.57.43,3.25-.48,2.93s-.9-2.17-.91-2.69S51.06,15.37,51.9,15.61Z"/><path class="cls-8" d="M49.6,11.08a.91.91,0,0,1,.48-.24c1-.12,1.61,1,2.21,1.92.1.22.49.81.58,1l-.52-.44a2.53,2.53,0,0,0-1.8-.55,3.37,3.37,0,0,0-2,1A7.46,7.46,0,0,1,49.6,11.08Z"/><path class="cls-12" d="M49.75,11.15a1,1,0,0,1,.4-.18c.77-.12,1.26.67,1.71,1.28.07.15.36.56.43.71l-.41-.29a2.11,2.11,0,0,0-1.42-.32,3.16,3.16,0,0,0-1.62.79A5.46,5.46,0,0,1,49.75,11.15Z"/><path class="cls-12" d="M51.25,18.08c.16,1.33.57,1.67.89,1.61s.58-.49.42-1.44-.7-2.05-1-2S51.13,17.12,51.25,18.08Z"/><path class="cls-13" d="M51.32,17c-.08.66,0,.9.19.94s.21-.28.24-.58a1.67,1.67,0,0,0-.16-1C51.47,16.31,51.36,16.67,51.32,17Z"/><path class="cls-14" d="M69.84,16.49A10.85,10.85,0,0,0,64,13.68a22.76,22.76,0,0,0-4.44-3.62A23.87,23.87,0,0,0,54.32,7.2a45.18,45.18,0,0,0-5.7-1.52C47,5.33,43.89,4.84,44.2,2.6a2.4,2.4,0,0,0,.11-.23,0,0,0,0,0-.07-.06c-.94.86-1.6,2.06-.79,3a4.58,4.58,0,0,0-1.86-.44,4.81,4.81,0,0,0-2.91.78s0,.06,0,0l.37-.09A6.17,6.17,0,0,1,41,6.33a4.08,4.08,0,0,0-1.38.19h-.06l-.3.1s0,.06,0,.06a3.87,3.87,0,0,0,.68,0,3.52,3.52,0,0,1,.45.18,19.92,19.92,0,0,0-7.23,5.47A30.67,30.67,0,0,0,30,16.6c-.49.81-.91,1.67-1.36,2.51a8.88,8.88,0,0,0-.93,2.31l-.57.34a7.5,7.5,0,0,0-2,2,8.92,8.92,0,0,0-1.8,5.48,1.23,1.23,0,0,0-.05.39c0,.06.07.05.09,0l0-.1s.05,0,.05,0,.05-.15.07-.22a3,3,0,0,1,.68-.82,2.38,2.38,0,0,1,.4-.31c-.9,1.4.93,3.38,2.06,4.19a20.94,20.94,0,0,0,3.62,2,25.8,25.8,0,0,0,3.48,1.45,1.93,1.93,0,0,0,.22.87,2.9,2.9,0,0,0,1.56,1.09h0a4.43,4.43,0,0,0,1.16.4,6.24,6.24,0,0,0,4.28,2.26,14,14,0,0,0,5.94-.37,10.35,10.35,0,0,0,5.29-2.89A29.1,29.1,0,0,1,55,34.32c.26-.23.53-.45.8-.67a55.49,55.49,0,0,1,5.24-3,44.57,44.57,0,0,1,5.28-1.84,8.6,8.6,0,0,0,4.06-3.16,3.74,3.74,0,0,0,.73-3.6l.13.17A4.55,4.55,0,0,1,72,23.7a.09.09,0,0,0,.08.05.1.1,0,0,0,.11-.06A7.35,7.35,0,0,0,69.84,16.49Zm1,4.8a.08.08,0,0,0,0-.05s0,0-.07,0l-.15-.15s-.09,0-.07.05.14.25.21.37a3.37,3.37,0,0,1,0,2.86A8.13,8.13,0,0,1,69,26.5a9.38,9.38,0,0,1-4.41,2.3A23.19,23.19,0,0,0,58,31.89s0-.07-.07,0a28.45,28.45,0,0,0-4.82,3.93A15.37,15.37,0,0,1,50.78,38a12.07,12.07,0,0,1-2.89,1.34c-3.39,1.18-7.81,1.39-10.7-1.05a4.14,4.14,0,0,0,3-.79,7.36,7.36,0,0,0,1.52.62,6.5,6.5,0,0,0,4-.5,18.62,18.62,0,0,0,1.85-.71,4.93,4.93,0,0,0,1.86-1.53c1.16-1.55.9-3.71,2.33-5.11h0a3.12,3.12,0,0,0,.39.15,2.75,2.75,0,0,0,3.14-1.26.06.06,0,0,0-.09-.08,4.5,4.5,0,0,1-1.27.83,3.17,3.17,0,0,1-1.7.08,3.92,3.92,0,0,1-2.46-2.06s-.07,0,0,0a3.66,3.66,0,0,0,1.9,2.24c-1.46,1.17-1.46,2.9-2.29,4.46a5.4,5.4,0,0,1-3,2.32,10,10,0,0,1-4,.78,8.34,8.34,0,0,1-2.31-.85A3.2,3.2,0,0,1,38,35.07c0-.08-.14,0-.12,0a2.4,2.4,0,0,0,1.18,1.7c.21.15.43.29.65.42a5.91,5.91,0,0,1-1.9.63,5,5,0,0,1-2.31-.43,5,5,0,0,1-1-.81c-.4-.51-.31-1.49-.51-2.11a.06.06,0,0,0-.12,0c0,.25,0,.54,0,.84a37.92,37.92,0,0,1-5.59-2.52c-1.68-.95-4.38-2.95-2.92-5.14,0-.06,0-.13-.08-.09l-.07.05-.06,0c-.41-.11-.9.4-1.16.67l-.19.24a12.9,12.9,0,0,1,.37-1.83,10.77,10.77,0,0,1,1.39-2.67,12.93,12.93,0,0,1,4.13-3.51s0-.13-.05-.1c-.44.2-.88.41-1.31.64a23.87,23.87,0,0,1,2-4.08,28.68,28.68,0,0,1,3.15-4.35A25,25,0,0,1,36.75,9.5,33.2,33.2,0,0,1,40.55,7c.34.17.67.35,1,.49,0,0,.07,0,0,0a3.33,3.33,0,0,0-1-.8l.65-.14.41.23s.06,0,0-.05A2.72,2.72,0,0,0,40,5.43a7,7,0,0,1,1.15-.13,7.15,7.15,0,0,1,2.78.56c.09,0,.16-.07.09-.13a.71.71,0,0,0-.14-.1,2.3,2.3,0,0,1-.34-1.85A4.18,4.18,0,0,1,44,2.87c-.15,1.24.74,2.06,1.91,2.51A63.45,63.45,0,0,0,52.19,7a22.11,22.11,0,0,1,6.2,2.81c.91.6,1.82,1.23,2.69,1.89s1.52,1.35,2.33,2c-.41,0-.83-.06-1.25-.06a0,0,0,0,0,0,.07,13.27,13.27,0,0,1,7.24,3.05,7.42,7.42,0,0,1,2.16,3A9,9,0,0,1,72,22.58,5.55,5.55,0,0,0,70.79,21.29Z"/><path class="cls-15" d="M36.86,38.25l.36,0,0,0a4.14,4.14,0,0,0,3-.79,7.36,7.36,0,0,0,1.52.62,6.5,6.5,0,0,0,4-.5,18.62,18.62,0,0,0,1.85-.71,4.93,4.93,0,0,0,1.86-1.53c1.16-1.55.9-3.71,2.33-5.11h0a3.12,3.12,0,0,0,.39.15,2.75,2.75,0,0,0,3.14-1.26.06.06,0,0,0-.09-.08,4.5,4.5,0,0,1-1.27.83,3.17,3.17,0,0,1-1.7.08,3.92,3.92,0,0,1-2.46-2.06s-.07,0,0,0a3.66,3.66,0,0,0,1.9,2.24c-1.46,1.17-1.46,2.9-2.29,4.46a5.4,5.4,0,0,1-3,2.32,10,10,0,0,1-4,.78,8.34,8.34,0,0,1-2.31-.85A3.2,3.2,0,0,1,38,35.07c0-.08-.14,0-.12,0a2.4,2.4,0,0,0,1.18,1.7c.21.15.43.29.65.42a5.91,5.91,0,0,1-1.9.63,5,5,0,0,1-2.31-.43,5,5,0,0,1-1-.81c-.4-.51-.31-1.49-.51-2.11a.06.06,0,0,0-.12,0,5.58,5.58,0,0,0,.22,2.17,2.9,2.9,0,0,0,1.56,1.09h0a4.43,4.43,0,0,0,1.16.4Z"/><path class="cls-16" d="M43.19,21.4a28.2,28.2,0,0,0-4.67.54,3.59,3.59,0,0,0-1.59.54c-.67.43-1.31.9-1.94,1.39-2.14,1.66-4.11,3.85-4.7,6.57a0,0,0,1,0,.09,0,16.55,16.55,0,0,1,4.88-6.21A9.38,9.38,0,0,1,39,22.12c1.39-.26,3.47-.52,4.86-.74Z"/><path class="cls-12" d="M45.56,30a.59.59,0,0,0,0-.13c-.2-.74-1-1.36-1.57-1.85s-1.35-1.21-2.06-1.75A7.63,7.63,0,0,0,39.84,25,5.5,5.5,0,0,0,37.35,25a9.18,9.18,0,0,0-4.6,1.7,8.7,8.7,0,0,0-1.88,2.13A12.13,12.13,0,0,0,30.18,30c-.52,1,.45,1.84,1.08,2.57a7.91,7.91,0,0,0,5,2.95,7.62,7.62,0,0,0,4.8-.69,12.72,12.72,0,0,0,3-2.41C44.59,31.86,45.67,30.83,45.56,30Z"/><path class="cls-7" d="M45.56,30a.59.59,0,0,0,0-.13,3.54,3.54,0,0,0-1.17-1.49c.33.65.46,1.34-.25,1.36a5.42,5.42,0,0,1-2.52-.61,2.41,2.41,0,0,0-2.23-.1,12.67,12.67,0,0,0-1.16.74,3.67,3.67,0,0,1-2.65.89c-1.21-.21-2.18-.94-3.44-1-.57,0-.63.17-1,.54a2.16,2.16,0,0,1-.67.53.57.57,0,0,1-.44,0c.06.72.74,1.33,1.23,1.89a7.91,7.91,0,0,0,5,2.95,7.62,7.62,0,0,0,4.8-.69,12.72,12.72,0,0,0,3-2.41C44.59,31.86,45.67,30.83,45.56,30Z"/><path class="cls-7" d="M45.56,30a.59.59,0,0,0,0-.13c-.2-.74-1-1.36-1.57-1.85s-1.35-1.21-2.06-1.75A7.63,7.63,0,0,0,39.84,25,5.5,5.5,0,0,0,37.35,25a9.18,9.18,0,0,0-4.6,1.7,8.7,8.7,0,0,0-1.88,2.13A12.13,12.13,0,0,0,30.18,30c-.52,1,.45,1.84,1.08,2.57a7.91,7.91,0,0,0,5,2.95,7.62,7.62,0,0,0,4.8-.69,12.72,12.72,0,0,0,3-2.41C44.59,31.86,45.67,30.83,45.56,30Zm-3.84,4A6.78,6.78,0,0,1,37,35.25a7.59,7.59,0,0,1-4.54-2,10.43,10.43,0,0,1-1.64-1.87,1.66,1.66,0,0,1,0-1.79,17.56,17.56,0,0,1,1.77-2.18,7.9,7.9,0,0,1,4.55-2.14,5.65,5.65,0,0,1,4.66,1.46A15.39,15.39,0,0,1,45,29.79C45.33,30.82,43.1,32.79,41.72,33.91Z"/><path class="cls-17" d="M41.65,30.3A1.79,1.79,0,0,0,40,29c-.61.06-1,.85-1.28,1.38s-1,2.11-.67,2.72c-.31-.51,3-2.41,3.38-2.49A.24.24,0,0,0,41.65,30.3Z"/><path class="cls-17" d="M32.08,29.65a.18.18,0,0,0-.21.19,9,9,0,0,0,0,1.37c0,.06.1.07.1,0s0-.15,0-.22c.11.22.33.32.74.5a9.37,9.37,0,0,1,2.85,1.41c.08.12.17.24.25.37s.09,0,.07,0A5.45,5.45,0,0,0,32.08,29.65Z"/><path class="cls-13" d="M39.07,26.26c-.68-.78-1.84-.6-2.77-.39a5.71,5.71,0,0,0-3.54,2.24c0,.06,0,.15.1.1A11.68,11.68,0,0,1,39,26.48C39.06,26.47,39.14,26.34,39.07,26.26Z"/><path class="cls-13" d="M40.81,26.29c-.48-.36-2.43-.83-1.82-.39s.77.76,1.5.86S41.72,27,40.81,26.29Z"/><path class="cls-4" d="M30.84,21.43a9.49,9.49,0,0,0-4,1.5c-1.12.88-1.48,2.11-2.1,3.32,0,0,0,.07.07,0,.89-.91,1.33-2.11,2.3-3a10.91,10.91,0,0,1,3.73-1.75C30.94,21.54,30.92,21.42,30.84,21.43Z"/><path class="cls-4" d="M32.38,20.55a5.78,5.78,0,0,0-4,1.18,0,0,0,0,0,0,0,27.2,27.2,0,0,1,4-1.08C32.44,20.67,32.46,20.56,32.38,20.55Z"/><path class="cls-4" d="M69.78,18.18a8.25,8.25,0,0,0-3.28-2.6,6.88,6.88,0,0,0-4-.26c-.05,0-.05.1,0,.09a8.52,8.52,0,0,1,3.87.74,10.53,10.53,0,0,1,3.36,2.1C69.74,18.3,69.82,18.23,69.78,18.18Z"/><path class="cls-4" d="M64.1,14.74a4.37,4.37,0,0,0-4.57.93c-.05.05,0,.11.07.08a10.34,10.34,0,0,1,4.49-.93S64.14,14.75,64.1,14.74Z"/><path class="cls-4" d="M47.67,6.21c-1.39-.53-3.56-1-3.67-2.83,0-.06-.09-.06-.1,0-.38,2.13,2.12,2.71,3.72,3C47.71,6.37,47.76,6.24,47.67,6.21Z"/><path class="cls-4" d="M43.77,6.26c-.52-1.08-2.2-.87-3.16-.78a0,0,0,0,0,0,0,6.84,6.84,0,0,1,3.07.83S43.8,6.31,43.77,6.26Z"/><path class="cls-4" d="M40.93,6.58s-.1,0,0,.08a4.75,4.75,0,0,0,.82.39,2.62,2.62,0,0,1,.82.62c.07.07.16,0,.14-.09C42.5,6.84,41.47,6.85,40.93,6.58Z"/><path class="cls-18" d="M16.92,84c-.19-1-.28-2-.47-3.08a3.36,3.36,0,0,0-2.24-2.8c-1.88-.69-4,.81-6.11,3.07-1.12,1.17-3,1.17-3.43,2.26-.73,1.67.2,2.7,1.68,3.77s3,1.64,4,3.18c.92,1.35,1.39,3,2.29,4.37a5.12,5.12,0,0,0,4.1,2.44c1.9-.08,2.65-2.37,2.61-4.23a17,17,0,0,0-1.64-5.79A17.39,17.39,0,0,1,16.92,84Z"/><path class="cls-18" d="M93,82.33A6.42,6.42,0,0,0,90,86.81a10.74,10.74,0,0,1-1.76,4.46,8,8,0,0,1-3.7,2.63c-1.1.46-2.06,1.25-1.72,2.59a2.57,2.57,0,0,0,1.87,1.84,12.16,12.16,0,0,0,5.2,0c2-.3,3.91-1.51,5.81-2.26,3.34-1.33,7.66-1.94,9.26-5.5.43-.94,1-2.45.39-3.41-.51-.78-1.43-.87-2.21-1.23-1.7-.78-2.31-2.75-3.85-3.69A6.56,6.56,0,0,0,93,82.33Z"/><path class="cls-4" d="M27.32,62.43C26.24,60.18,25,58,24.08,55.67a31,31,0,0,1-1.81-7.61A40.37,40.37,0,0,1,23.4,32.71c0-.08-.1-.11-.14,0-2.19,4.57-2.44,10-2,14.94A32.68,32.68,0,0,0,27.2,62.5.07.07,0,0,0,27.32,62.43Z"/><path class="cls-4" d="M93.57,61.68c-1.08-1.33-2.47-2.91-4.35-2.58a.12.12,0,0,0,0,.23c2.11,0,3.08,1.93,4.16,3.46a21.94,21.94,0,0,1,2.51,5.4.1.1,0,0,0,.19,0A10.25,10.25,0,0,0,93.57,61.68Z"/><path class="cls-4" d="M19.16,61.65c-1.68-.75-3.32,1.05-4.24,2.24a13.3,13.3,0,0,0-2.57,5.53c0,.08.11.12.14,0,1.39-3,3.36-6.4,6.66-7.56A.14.14,0,0,0,19.16,61.65Z"/><path class="cls-4" d="M82.39,38.56a20.93,20.93,0,0,0-2.87-9.21s0,0,0,0c1.59,3,2,6.37,2.35,9.71a87.28,87.28,0,0,1,.36,9.7c-.14,7.82-3.13,14.51-7.88,20.58-.09.11-1.79,1.94.16.14,5.32-4.92,8-12.55,8.26-19.7A82.74,82.74,0,0,0,82.39,38.56Z"/></g></g></svg>