<svg id="Layer_1" data-name="Layer 1" xmlns="http://www.w3.org/2000/svg" viewBox="0 0 156.34 282.79"><defs><style>.cls-1{fill:#fbbb40;}.cls-2{fill:#fbd2a6;}.cls-2,.cls-3{stroke:#231f20;stroke-miterlimit:10;stroke-width:2px;}.cls-3{fill:#77badc;}.cls-4{fill:#fff;}</style></defs><title>Vector_Beach_2_1</title><path class="cls-1" d="M142.92,108h-5.21a57,57,0,1,0-97.08,0H35.42a14.42,14.42,0,0,0,0,28.84H39.9l49.27,147,49.27-147h4.48a14.42,14.42,0,1,0,0-28.84Z"/><polygon class="cls-2" points="69.17 263.79 19.9 116.8 118.44 116.8 69.17 263.79"/><path class="cls-3" d="M122.92,88h-5.21a57,57,0,1,0-97.08,0H15.42a14.42,14.42,0,0,0,0,28.84h107.5a14.42,14.42,0,0,0,0-28.84Z"/><path class="cls-4" d="M34.09,36.15a24.41,24.41,0,0,0,.08,11.66,5,5,0,0,0,9.71.08c0-.09,0-.18.08-.27a24.19,24.19,0,0,1,21.39-17c.59,0,1.18-.06,1.77,0,5.08,0,7.25-6.55,2.92-9.21A24,24,0,0,0,34.09,36.15Z"/><path class="cls-4" d="M41.56,64.77A6.89,6.89,0,1,1,37.4,56,6.89,6.89,0,0,1,41.56,64.77Z"/></svg>