<svg id="Layer_1" data-name="Layer 1" xmlns="http://www.w3.org/2000/svg" viewBox="0 0 355.65 418.66"><defs><style>.cls-1{fill:#e9e6e4;}.cls-2{fill:#93572e;}.cls-3{fill:#ff8c3e;}.cls-4{fill:#ffa364;}.cls-5{fill:#81b731;}.cls-6{fill:#9ad449;}.cls-7{fill:#f57c27;}</style></defs><title>orange</title><path class="cls-1" d="M186.05,24h-.8a18.6,18.6,0,0,0-18.6,18.6V64.69a87.44,87.44,0,0,0-9.84-.55,86,86,0,0,0-78,49.74A170.82,170.82,0,1,0,204.65,78.16V42.6A18.6,18.6,0,0,0,186.05,24"/><rect class="cls-2" x="152.65" width="38" height="108" rx="18.6" ry="18.6"/><path class="cls-3" d="M341.65,223.83A170.83,170.83,0,1,1,170.83,53,170.82,170.82,0,0,1,341.65,223.83Z"/><path class="cls-4" d="M272.7,166.29a34.48,34.48,0,1,1-34.48-34.48A34.48,34.48,0,0,1,272.7,166.29Z"/><path class="cls-5" d="M170,44.49A86.06,86.06,0,0,0,58.8,144.59l.77.22L170.11,45.28C170.06,45,170,44.75,170,44.49Z"/><path class="cls-6" d="M143.48,126.85a86,86,0,0,0,26.63-81.57L59.57,144.81A86,86,0,0,0,143.48,126.85Z"/><path class="cls-7" d="M77.91,219.12a18.36,18.36,0,1,1-18.35-18.35A18.36,18.36,0,0,1,77.91,219.12Z"/><path class="cls-7" d="M170.51,219.12a18.36,18.36,0,1,1-18.35-18.35A18.36,18.36,0,0,1,170.51,219.12Z"/><path class="cls-7" d="M121.26,305.81a18.36,18.36,0,1,1-18.36-18.35A18.36,18.36,0,0,1,121.26,305.81Z"/><path class="cls-7" d="M221.73,305.81a18.36,18.36,0,1,1-18.35-18.35A18.36,18.36,0,0,1,221.73,305.81Z"/><path class="cls-7" d="M290.69,256.56a18.36,18.36,0,1,1-18.36-18.36A18.36,18.36,0,0,1,290.69,256.56Z"/></svg>