<svg id="Layer_1" data-name="Layer 1" xmlns="http://www.w3.org/2000/svg" viewBox="0 0 60.33 96.06"><title>pied piper</title><path d="M7.6,69.62c0-.1.1-.1,0,0a7.47,7.47,0,0,1,1.8-1.4,6.37,6.37,0,0,1-1.8-1Z"/><path d="M44.9,27.72c1.1,0,1-1.3,1-1.3v-1.8s0-.9-1.1-.9-.9,1.8-.9,2.7S44.2,27.72,44.9,27.72Z"/><path d="M37.6,24.82s0-.9-1.2-1-1,1.9-.9,2.9.4,1.4,1.1,1.4c1.2,0,1.1-1.4,1.1-1.4Z"/><path d="M60.2,91a1.62,1.62,0,0,0-1.6-1.2,6.64,6.64,0,0,0-1.3.1c-2.2.3-3.8-3.1-3.7-5.4.8-4.6,2.9-18.3,1.9-20.5s-7.5-5-10.6-6.2a11.24,11.24,0,0,0,3.1-5.2c1.5-4.9,1.4-11.5.3-13.6a10.82,10.82,0,0,0-4.1-4.2,10.11,10.11,0,0,0,2.8-2.2,8,8,0,0,0,1.3-2.1,3.75,3.75,0,0,0,1,.1,3.57,3.57,0,0,0,2.3-.8,3.29,3.29,0,0,0,1-2.7.55.55,0,0,0-.3-.5.64.64,0,0,0-.6,0,.64.64,0,0,1-.6,0c-.9-.5-1.7-2.7-2.1-4.1a24.59,24.59,0,0,1,.6-2.7,4.39,4.39,0,0,0,1.8-3.5,9,9,0,0,0-.2-1.8c1.3-.3,6.9-2,5.8-4.3-1.3-2.5-11.7-2.8-13.5-4.4s-10.1-7.6-13-5.3c-1.9,1.6-2.7,5.4-3.7,8.4A24.48,24.48,0,0,0,22.2,7c-3.4-.8-6.4-.1-9.1.5a17.56,17.56,0,0,1-4.9.7.67.67,0,0,0-.7.6c0,.4.2.7.6.7l8.6,1.2a8.93,8.93,0,0,1,2.4.9,15.92,15.92,0,0,0,5.1,1.7c-2.7,3.2-7.1,7.9-5.4,9.2,1.3,1.1,3.9,1.2,5.7,1.1-.2,1.5-.4,6.6,2.6,7.3a5.18,5.18,0,0,0,2.1.4,22,22,0,0,0,1.4,1.8c.2.2.2.3.3.3l.2.2-10.6,3.8c-.6-3.4-1.2-3.6-1.5-3.7a.62.62,0,0,0-.7.1c-.2.1-.8.5-1.3,3.9a3.57,3.57,0,0,0-2.3.5,2.48,2.48,0,0,0-.8,1.5,30.65,30.65,0,0,1-5.5,0H8.1a1.72,1.72,0,0,0-1.2.2c-1.5.9-1,3.7.4,6.1,1.1,2,2.8,3.7,4.2,3.7a2.35,2.35,0,0,0,.8-.2,1.78,1.78,0,0,0,.7-.8c.1-.1.2-.2.2-.3a20.81,20.81,0,0,1,1.7-2.8c-.3,2.3-.6,6,.9,8.3a4.8,4.8,0,0,0,3.3,2,3.4,3.4,0,0,0,1,.1c3.4,0,5.7-2.6,7.1-4.8a41.24,41.24,0,0,0,.6,6.5,13,13,0,0,0-.6,2,24.62,24.62,0,0,0-5.3-.6h-.5c-3.1.1-4.5,1.3-6.3,1.6s-3.3.6-6,3.1c0,0-1.5.9-1.2,2s2.3,1.9,3.7,2.1a3.38,3.38,0,0,1,.7-3.4,6.07,6.07,0,0,1,2.8-1.9c.4-.1.8-.3,1.4-.5a14.28,14.28,0,0,1,6-1.5,5.7,5.7,0,0,1,1.3.1c.3,0,.5.1.8.1a20,20,0,0,1,2.4.4c-.1.3-.1.6-.2,1V62l-2.4-.3c-.3,0-.6-.1-.8-.1a4.48,4.48,0,0,0-1.1-.1A14.08,14.08,0,0,0,16.8,63c-.5.2-1,.4-1.4.6a4.38,4.38,0,0,0-2.3,1.6l-.1.1c-1,.9-.6,2.8.1,4.1.5.9,1.2,1,2.7,1.3a12,12,0,0,1,2.3.5,13.31,13.31,0,0,0,4,.5c.8,0,1.7,0,2.9-.1.6,0,1.3-.1,2.1-.1,3.2-.1,3.6-.6,4.1-1.2h0a15.52,15.52,0,0,0,2.1.4c.8.7.7,1.3.7,1.3h0v.8c0,.4.1,5.6.1,8.4a10.32,10.32,0,0,0,.4,3c.1,0,.3-.1.4-.1a1.27,1.27,0,0,1,.6.1c1.9.7,1,2.4,2.4,2.4h.2c1.2-.4,2-2.7,2-2.7-.1-1.1-.4-3.8-.5-4.6-.1-.5-.2-5-.4-8.3h.2l.7,2.1c.1,3,.2,5.7.3,6.1s.2,1.4.3,2.4.2,1.8.3,2.3v.2l-.1.2v.1a33,33,0,0,1,3.5,1.5,8.16,8.16,0,0,1-.2,1.8,2.85,2.85,0,0,0,.9,3.4c1.4,1.1,5.1,6.3,7.8,4.6,1.1-.7,1.3-1.4,1.2-2C57.2,94.32,61.1,94.52,60.2,91ZM47.1,39.72c.9,1.7,1.1,7.8-.3,12.6a5,5,0,0,1-.5,1.3c-1.2-.5-3.9-1.7-5-2.1s-3.3,1.4-4.3,2.2A54.59,54.59,0,0,1,32,45a10.85,10.85,0,0,0,4.4-1.9.22.22,0,0,0,.2-.2h0a2.7,2.7,0,0,0,.7-.8l7.8,6.1a.71.71,0,1,0,.9-1.1l-3.4-2.7.6-1.9a.7.7,0,1,0-1.3-.5l-.5,1.4-3.9-3a.66.66,0,0,0-.6-.1,1,1,0,0,0-.5.4,1.61,1.61,0,0,1-.4.7,27.33,27.33,0,0,1-2-2.5,15.58,15.58,0,0,0-1.6-2c1-.4,1.9-.8,2.7-1.1.2,0,.4.1.7.1.3.8.8,2.2,1.8,2.6a1.85,1.85,0,0,0,.7.2,1.27,1.27,0,0,0,.6-.1,6.51,6.51,0,0,0,2.7-2.8c.4-.1.8-.3,1.3-.4a1.38,1.38,0,0,0,.3.4A9.12,9.12,0,0,1,47.1,39.72Zm-9.6-3.6a8.17,8.17,0,0,0,1.4.1h0a2.77,2.77,0,0,0,.9-.1,4.74,4.74,0,0,1-1.3,1.2h-.1C38,37.22,37.7,36.72,37.5,36.12Zm13.1-8.3a1.85,1.85,0,0,0,.7.2,1.37,1.37,0,0,1-.5.8,2.71,2.71,0,0,1-2,.4,8.08,8.08,0,0,0,.1-1.6,13.4,13.4,0,0,1-.1-2A4.41,4.41,0,0,0,50.6,27.82ZM50,14.22a12.48,12.48,0,0,1,.2,2.1c0,.1.1,2.2-3.1,3.3.6-1.4,1.2-3.5.1-4.8a.48.48,0,0,0-.6-.2.85.85,0,0,0-.5.3c-.6,1-2.4,3.8-3.9,4.7a19.86,19.86,0,0,1-8,2,4.08,4.08,0,0,0-.1-2.2.66.66,0,0,0-.5-.4c-.2,0-.5,0-.6.2a19.39,19.39,0,0,1-5.6,4.1h0c-.1-.5-.1-.9-.2-1.2l.7-1C27.9,20.92,39.3,10.92,50,14.22ZM16.9,9.42l-3.8-.5a.37.37,0,0,0,.3-.1c2.7-.6,5.5-1.2,8.5-.5a19.49,19.49,0,0,1,7.4,3.8c-5.2.5-7.6-.7-9.5-1.7A12.52,12.52,0,0,0,16.9,9.42Zm10.7,20.2c-2-.3-2-4.4-1.8-6h.3l.5.1V24c.2.5,2,4.9,4.2,5.6a1.09,1.09,0,0,0,.5.1h0c-.6.5-2.5.3-3.3.1A.76.76,0,0,0,27.6,29.62Zm5,3.4c-.5-.2-.5-.3-.6-.4a2.74,2.74,0,0,1-.4-.5,5.5,5.5,0,0,1-.7-.9c.4-.1.7-.2,1-.3a1.92,1.92,0,0,0,.9-2.3.66.66,0,0,0-.4-.5.47.47,0,0,0-.6.1.9.9,0,0,1-.5.1c-1-.3-2.3-2.4-3-4A18.33,18.33,0,0,0,33.1,21a1.14,1.14,0,0,1-.3.8.66.66,0,0,0-.2.7.55.55,0,0,0,.6.4,23.08,23.08,0,0,0,9.8-2.1A13,13,0,0,0,46.6,17a8.42,8.42,0,0,1-1.3,3.3.85.85,0,0,0,0,.7.91.91,0,0,0,.7.3q1.2-.3,2.1-.6a24.7,24.7,0,0,0-.6,7.1,4.84,4.84,0,0,1-1.5,3.9,10.06,10.06,0,0,1-7.2,3.2,5.38,5.38,0,0,1-1.1-.1c3.6-1.5,4.2-1.9,4.3-2.4a1.39,1.39,0,0,0-.1-1.3,1.71,1.71,0,0,0-1.4-.8h-.3L32.6,33Zm8-1.3c.1,0,.2.1.3.2h0c-.8.6-5.1,2.3-9.4,4.1a2.38,2.38,0,0,0-1.1-.6Zm-10.9,4.9c1.2.2,2.3,1.8,3.3,3.2a16.86,16.86,0,0,0,2,2.5,14.17,14.17,0,0,1-1.8.8c-.4-.8-1.4-2.2-2.7-2.2-.7,0-2.3-1.5-2.7-2.2a1.91,1.91,0,0,0,.7-1.4C28.7,36.62,28.8,36.42,29.7,36.62Zm-2.5.5a1.07,1.07,0,0,1-.2.6h0c-1.2.5-2.4.9-3.4,1.4h0c-1.3.5-2.4,1-3.4,1.4a1.68,1.68,0,0,0-.3-1.1l-.1-.1,7.6-2.7C27.3,36.72,27.3,36.92,27.2,37.12ZM19.7,44a2.82,2.82,0,0,1-1.5.4,3,3,0,0,1-1.7-.9c.4-.2,1.5-.7,2.9-1.3Zm1.4-.8-.1.1-.3-1.6c.4-.2.8-.3,1.2-.5C21.6,41.92,21.3,42.72,21.1,43.22Zm-2.5-7.5c.2.6.3,1.4.5,2.2l-.6.2c-.1-.1-.2-.1-.4-.2C18.3,37.12,18.5,36.32,18.6,35.72Zm-3.3,3.6a2.77,2.77,0,0,1,1.8-.2,2.33,2.33,0,0,1,1.7,1,.1.1,0,0,0,.1.1,5,5,0,0,1-3.4,0l-.5-.3A3.33,3.33,0,0,1,15.3,39.32Zm-3.9,8.9c-.3.2-1.8-.6-3.1-2.9s-1.2-4-.9-4.2h.1c.5,0,1.8.8,3,3C11.9,46.32,11.7,48,11.4,48.22Zm1.4-2.3a8.49,8.49,0,0,0-1.1-2.6,11.26,11.26,0,0,0-1.5-2.1,18.19,18.19,0,0,0,4-.2l.6.4a5.18,5.18,0,0,0,2.1.4,6.88,6.88,0,0,0-1.3.7A10.43,10.43,0,0,0,12.8,45.92Zm15.8,1.7c.2-1.7.4-2.7.4-2.8a.67.67,0,0,0-1.3-.3,34.19,34.19,0,0,0-.5,3.4,14.54,14.54,0,0,1-3.7,5.3c-.5-.1-1.3-.3-2.3-.5a7,7,0,0,0-4,.8,2.18,2.18,0,0,1-.4-.5c-1.4-2.2-1-6.1-.6-8a3.67,3.67,0,0,0,1.9.8,3.78,3.78,0,0,0,2.8-.9H21l1.3,1.7,1.2,2.6a.62.62,0,0,0,.6.4.37.37,0,0,0,.3-.1.69.69,0,0,0,.3-.9l-2.3-5c.5-1.6,1.3-3.2,1.7-3.4.8-.3,1.7-.7,2.5-1,.6,1.2,2.6,3,3.9,3,.5,0,1,.6,1.4,1.2-.3.1-.6.1-.9.2a.85.85,0,0,0-.5.3.64.64,0,0,0,0,.6c.2.4,3.9,9.1,8.2,12.8-3.1,1.1-8.3,0-9.8-.3a35.83,35.83,0,0,1-.4-8.9c0-.1.1-.1.1-.2Zm-2.4,17.1a3.75,3.75,0,0,0,.1,1,6,6,0,0,0-2.7-.6c-2,0-3.3.7-3.3,1.2s1.3,1.2,3.3,1.2a5.25,5.25,0,0,0,3-.7c.1.2.2.5.3.7v.1a5.94,5.94,0,0,1-3.3.8c-2.4,0-4.1-.9-4.1-2s1.8-2,4.1-2A5.34,5.34,0,0,1,26.2,64.72Zm-2.6,5.5c-4.4,0-7.8-1.7-7.8-3.9s3.4-3.9,7.8-3.9a21.3,21.3,0,0,1,2.7.2c0,.3-.1.6-.1.8a21.3,21.3,0,0,0-2.7-.2c-4.2,0-7,1.6-7,3s2.8,3,7,3a12.87,12.87,0,0,0,4.2-.6,7,7,0,0,0,.9.6A12.35,12.35,0,0,1,23.6,70.22Zm16.3-.6a41.53,41.53,0,0,1-10.2-1.4,2.48,2.48,0,0,1-1.6-1.4c-1.2-2.4.1-6.8.7-8.4a29,29,0,0,0,6.5.8,12.32,12.32,0,0,0,4.4-.7l.3-.3a3.55,3.55,0,0,0,.9.4,3.93,3.93,0,0,0,1.4.3,2.77,2.77,0,0,0,1.3-.3c3.9,1.5,10.1,4.4,10.7,5.9s-.8,12.2-1.9,19.4a6.54,6.54,0,0,1-2.3-.6c.3-2.7-.6-19.3-3.5-20.7-2.3-1.1-6.1-2.4-6.3-2.5a.7.7,0,0,0-.5,1.3,60.55,60.55,0,0,1,6.1,2.4c1.7.9,3.3,17.1,2.7,19.4,0,.1-.1.2-.2.3-.7.4-2.4.1-3.6-.2L40.5,70c0-.2-.3-.4-.6-.4Z"/><path d="M2,81.62c1.5.2,1.1,1.3,3.4,1.3a1.61,1.61,0,0,0,.3-.9c.3-1.5.6-3.9.9-6.1a14.15,14.15,0,0,1-4.7,4.2C-.2,80.92.4,81.32,2,81.62Z"/><path d="M6.8,74.32c.2-1.7.4-3.1.4-3.4a1.7,1.7,0,0,1,.1-.7v-.1h0c.1-.2.1-.3.2-.5a25.82,25.82,0,0,0-2.2-3.1,5.18,5.18,0,0,1-.7-1.8,8.48,8.48,0,0,1,1.5-2.8A14.91,14.91,0,0,0,7.8,58a7.87,7.87,0,0,1,2.2-2.5l.1-.1c.1-.2-.2-.5-.4-.4s-.2.1-.3.2A14.23,14.23,0,0,0,7.5,57a4.75,4.75,0,0,0,.2-3,6,6,0,0,0-2.1-3,5,5,0,0,0-.8-.6s-.2.6-.3,1A6.53,6.53,0,0,0,4.7,55a5.32,5.32,0,0,0,2.4,2.4,5.07,5.07,0,0,0-.7,1.5,9.32,9.32,0,0,1-2.3,3.6v-2.2a.54.54,0,0,0-.5-.5.5.5,0,0,0-.5.6c.2,2.7,0,7,1.4,8.2C5.2,69.22,6.1,71.82,6.8,74.32Z"/><path d="M11.3,73.52a9.79,9.79,0,0,0,3.4.7h1.5a5.38,5.38,0,0,1,2.2.4,1.48,1.48,0,0,0,.7.1h.3a2.2,2.2,0,0,0,.8-.1,7.61,7.61,0,0,1,2.1-.3,8.75,8.75,0,0,1,1.6.2,15.84,15.84,0,0,0,3.4.3,12.75,12.75,0,0,0,1.9-.1c5.3-.4,3.6-3.3,3.2-3.9-.1-.2-.3-.3-.5-.5l-.3.3c-.7.9-1.3,1.4-4.7,1.6-.8,0-1.4.1-2.1.1-1.2,0-2.1.1-2.9.1a11.88,11.88,0,0,1-4.2-.6c-.8-.2-1.6-.4-2.2-.5-1.5-.3-2.7-.5-3.3-1.7l-.6-1.5a14.21,14.21,0,0,0-3,2C8,70.52,7.3,72,11.3,73.52Z"/><path d="M33,80.92c0-1.9,0-4.9-.1-6.7a5.78,5.78,0,0,1-3.7,1.2,12.75,12.75,0,0,1-1.9.1,20.16,20.16,0,0,1-3.6-.3,7.08,7.08,0,0,0-1.4-.1,5.23,5.23,0,0,0-1.8.3,3.4,3.4,0,0,1-1,.1h-.3a2.92,2.92,0,0,1-.9-.2,7.47,7.47,0,0,0-2-.3h-.6c-.3,0-.6.1-.9.1a10.07,10.07,0,0,1-3.7-.7A7.45,7.45,0,0,1,8,72.62c-.3,2.4-.9,7.2-1.3,9.6-.7,3.3-5.2,4.5-6.7,6.9a4.09,4.09,0,0,0,2,1.2,4.68,4.68,0,0,0,1.7.2,5.28,5.28,0,0,0,1.3-.1,2.67,2.67,0,0,0,1.4-.7,7.05,7.05,0,0,1,3.1-1.9c1.1-.2,2.6-.1,3.9-.2,1.8-2,2-6.9,2-6.9.1-.6.8-2.7.8-2.7s-.3,2.4-.5,5.8-1.4,4.6-1.4,4.6h0a6.39,6.39,0,0,1-1.3,1.5s1.4,2,5.1,2.2,6.4-1.8,10.7-1.1a8.9,8.9,0,0,0,7.3-2.4C34.3,87.52,33,83.72,33,80.92Z"/></svg>