<svg id="Layer_1" data-name="Layer 1" xmlns="http://www.w3.org/2000/svg" viewBox="0 0 333.3 342.1"><defs><style>.cls-1{fill:#62310b;}.cls-2{fill:#dd6618;}.cls-3{fill:#4c4c4b;}.cls-4{fill:#ecbc2c;}</style></defs><title>Flat Water Sport Vectors_10</title><path class="cls-1" d="M248.18,8.92a2.85,2.85,0,0,0-4.94-2.39A101.65,101.65,0,0,1,166.54,41c-40.11,0-65.3-21.67-76.7-34.49A2.85,2.85,0,0,0,84.9,8.92C120,206.46,8.36,216.55,8.36,216.55l129,61.26a7.43,7.43,0,0,0,1.67.55l26.13,5.11a7.21,7.21,0,0,0,2.7,0L194,278.36a7.52,7.52,0,0,0,1.66-.55l129-61.26S213.09,206.46,248.18,8.92Z"/><path class="cls-2" d="M78.29,1.2,44.12,30.71a10.8,10.8,0,0,0-2,14C198.69,289.13,8.4,216.55,8.4,216.55l-8,32.37a13.79,13.79,0,0,0,11.67,17C245.92,295.75,108.5,42,85.77,2.47A4.92,4.92,0,0,0,78.29,1.2Z"/><path class="cls-2" d="M324.9,216.55S134.61,289.13,291.23,44.71a10.81,10.81,0,0,0-2-14L255,1.2a4.92,4.92,0,0,0-7.48,1.27C224.8,42,87.38,295.75,321.23,265.9a13.8,13.8,0,0,0,11.67-17Z"/><rect class="cls-3" x="108.04" y="168.62" width="117" height="17.57" rx="5.87" ry="5.87"/><rect class="cls-3" x="161" y="225.1" width="17.57" height="117" rx="5.87" ry="5.87"/><rect class="cls-4" x="146.15" y="163.84" width="40.47" height="27.12" rx="4.39" ry="4.39"/></svg>