<svg id="Layer_1" data-name="Layer 1" xmlns="http://www.w3.org/2000/svg" viewBox="0 0 967.42 354.16"><defs><style>.cls-1{fill:#d0d2d3;}.cls-2{fill:#e3e3e5;}.cls-3{fill:#3b2314;}.cls-4,.cls-9{fill:none;stroke:#3b2314;stroke-miterlimit:10;stroke-width:6px;}.cls-4{stroke-linecap:round;}.cls-5{fill:#f8b3a0;}.cls-6{fill:#e36d43;}.cls-7{fill:#fff;}.cls-8{fill:#fbcec5;}</style></defs><title>3 blind mice</title><path class="cls-1" d="M312.86,288.25A41.49,41.49,0,0,0,299.94,273c-10.72-7.86-23.27-11.06-34.48-14.11a92,92,0,0,1-15.6-5.52,37.94,37.94,0,0,1-7.12-4.45A83.87,83.87,0,0,0,245,234.79c.05-.8,5-78.7-23.58-129.66,9.64-.73,36.35-4.29,50-21.72,7.75-9.91,9.91-22.62,6.42-37.78a79.72,79.72,0,0,0-15.41-31.39c-12-14.68-32.91-18.57-48.68-9-13,7.83-25,23.12-35.81,45.48a63.55,63.55,0,0,0-70.37,0C96.71,28.32,84.67,13,71.71,5.2,55.93-4.33,35-.44,23,14.24A79.42,79.42,0,0,0,7.63,45.6C4.13,60.77,6.28,73.49,14,83.41c13.63,17.43,40.34,21,50,21.72C35.47,156.09,40.38,234,40.44,234.8c2.21,30.44,18.65,48.48,37.72,59.19-4.92,3.25-13.78,10.08-13.06,16.68.41,3.79,3.67,6.67,9.55,8.5a25.22,25.22,0,0,0,8.31,1.4,20.19,20.19,0,0,0,9.45-2.22c5-2.63,8.55-7.45,10.58-14.32a153.36,153.36,0,0,0,38.75,5.51h.9a150.77,150.77,0,0,0,39.78-5.5c2,6.87,5.58,11.69,10.57,14.32a20.2,20.2,0,0,0,9.47,2.22,24.65,24.65,0,0,0,8.17-1.36c6-1.87,9.27-4.75,9.68-8.54.71-6.6-8.15-13.43-13.07-16.69,12.47-7,23.81-17.13,30.78-31.81a54,54,0,0,0,6.39,3.23,104.06,104.06,0,0,0,18,5.44c5.91,1.3,11.38,2.45,16.73,4.13a56.81,56.81,0,0,1,14.65,6.65,31.56,31.56,0,0,1,10.38,11A17.87,17.87,0,0,1,306,306.24c-1.29,4.52-4.63,8.54-8.9,11.59a54.3,54.3,0,0,1-15,6.89c-22,7-45.72,8.3-69.21,8-5.89,0-11.75-.35-17.76-.23a90.12,90.12,0,0,0-17.78,2.08,51.51,51.51,0,0,0-16.59,6.57,32.78,32.78,0,0,0-11.85,13,32.22,32.22,0,0,1,12.31-12.26,50.29,50.29,0,0,1,16.48-5.61,87.65,87.65,0,0,1,17.43-1.16c5.8.17,11.72.79,17.63,1.11,23.58,1.46,47.78,1.41,71.3-4.76a61.39,61.39,0,0,0,17.42-7.06c5.47-3.49,10.55-8.67,12.89-15.49a25.39,25.39,0,0,0,1.28-10.59A29.35,29.35,0,0,0,312.86,288.25Z"/><path class="cls-2" d="M269.72,46.08a78,78,0,0,0-15-30.5C243.51,1.81,224-2.17,208.79,7c-11.15,6.74-23.72,20.52-36.09,46.89a61.09,61.09,0,0,0-72,0C88.33,27.53,75.77,13.75,64.61,7,49.4-2.17,29.9,1.81,18.67,15.58a78,78,0,0,0-15,30.5C-9.22,102,61.59,103.2,61.59,103.2c-30.52,50.86-25,131.45-25,131.45C42,310.15,136.7,307.41,136.7,307.41s94.68,2.74,100.16-72.76c0,0,5.47-80.59-25-131.45C211.82,103.2,282.63,102,269.72,46.08Z"/><path class="cls-3" d="M135.74,309.54c-9.79,0-96-2.14-101.3-74.74-.06-.81-5-78.71,23.58-129.67-9.64-.73-36.35-4.29-50-21.72C.28,73.49-1.87,60.77,1.63,45.6A79.42,79.42,0,0,1,17,14.24C29-.44,49.93-4.33,65.71,5.2c13,7.83,25,23.12,35.81,45.48a63.55,63.55,0,0,1,70.37,0C182.69,28.32,194.73,13,207.7,5.2c15.77-9.53,36.71-5.64,48.68,9a79.72,79.72,0,0,1,15.41,31.39c3.49,15.16,1.33,27.87-6.42,37.78-13.63,17.43-40.34,21-50,21.72C243.94,156.09,239,234,239,234.79c-5.56,76.65-101.36,74.78-102.33,74.74ZM46.87,4.23A34.36,34.36,0,0,0,20.31,16.92,76.26,76.26,0,0,0,5.77,46.49c-3.22,13.92-1.33,25.44,5.59,34.3,15.21,19.46,49.92,20.28,50.27,20.29a2.12,2.12,0,0,1,1.77,3.21C33.58,154,38.61,233.7,38.66,234.5c5.27,72.64,97.07,70.84,98,70.8s92.84,1.79,98.1-70.81c.06-.79,5.08-80.51-24.74-130.2a2.11,2.11,0,0,1,0-2.12,2.09,2.09,0,0,1,1.81-1.09c.35,0,35.06-.83,50.26-20.29,6.92-8.86,8.81-20.38,5.61-34.24a.15.15,0,0,0,0-.06A76.68,76.68,0,0,0,253.1,16.92C242.45,3.86,223.87.38,209.89,8.82c-12.68,7.66-24.55,23.13-35.28,46a2.11,2.11,0,0,1-3.27.73,58.94,58.94,0,0,0-69.27,0,2.11,2.11,0,0,1-1.82.44A2.07,2.07,0,0,1,98.8,54.8C88.07,32,76.2,16.48,63.52,8.82A32.15,32.15,0,0,0,46.87,4.23Z"/><line class="cls-4" x1="114" y1="176" x2="114" y2="326"/><path class="cls-5" d="M90.54,63.68S74.27,83.15,66.68,95.37c0,0-25,2.32-44.37-13.52C13.89,75,9,64.63,10,53.82a43.77,43.77,0,0,1,5.45-17.13s18-33.64,42.25-18C57.68,18.69,78.8,31.21,90.54,63.68Z"/><path class="cls-3" d="M63,97.62c-8,0-26.54-1.5-42-14.13C11.74,76,6.84,64.8,7.87,53.62a46.31,46.31,0,0,1,5.7-17.95c.39-.73,10.07-18.55,25.26-22.49,6.73-1.74,13.45-.49,20,3.73.82.49,21.84,13.25,33.7,46.05A2.1,2.1,0,0,1,92.16,65c-.16.19-16.26,19.5-23.69,31.45a2.12,2.12,0,0,1-1.6,1C66.64,97.5,65.24,97.62,63,97.62ZM44.65,16.67a18.8,18.8,0,0,0-4.74.61C26.52,20.74,17.38,37.52,17.29,37.69A42.13,42.13,0,0,0,12.09,54c-.9,9.77,3.42,19.56,11.56,26.2C40,93.53,60.67,93.52,65.46,93.32c6.87-10.78,19.39-26.08,22.67-30C76.74,32.81,56.8,20.63,56.6,20.51A22,22,0,0,0,44.65,16.67Z"/><path class="cls-6" d="M76.23,294s-28.72,16.39-6.82,23.23c0,0,20.42,7.83,26.06-15.64C95.47,301.55,80.93,296.54,76.23,294Z"/><path class="cls-3" d="M77,320.57a25.22,25.22,0,0,1-8.31-1.4c-5.88-1.83-9.14-4.71-9.55-8.5-.93-8.58,14.33-17.56,16.08-18.55a2.09,2.09,0,0,1,2.07,0c4.48,2.47,18.76,7.4,18.91,7.45A2.11,2.11,0,0,1,97.53,302c-1.91,7.94-5.65,13.43-11.12,16.31A20.19,20.19,0,0,1,77,320.57Zm-.66-24.2c-6,3.61-13.42,9.89-13,13.85.26,2.44,3.81,4,6.73,4.95.2.07,7.86,2.89,14.43-.58,3.91-2.08,6.75-6,8.44-11.69C89.14,301.56,80.64,298.5,76.3,296.37Z"/><path class="cls-2" d="M85.45,206c5.85,3.32,20.19-13.09,15-17.31a50.32,50.32,0,0,1,17.7,9.95,30.09,30.09,0,0,1,3.65,3.83,17.84,17.84,0,0,1,2.9,5,13.51,13.51,0,0,1,.75,6,10.4,10.4,0,0,1-2.63,6.15,10.59,10.59,0,0,1-5.91,2.91,18.61,18.61,0,0,1-5.77,0,28.76,28.76,0,0,1-10.06-3.65A57.06,57.06,0,0,1,85.45,206Z"/><path class="cls-3" d="M85.45,206a151.53,151.53,0,0,0,17.5,9,29.51,29.51,0,0,0,8.8,2.31c2.86.27,5.83-.14,7-1.55,1.25-1.16,1.67-4.17.88-6.56a12.89,12.89,0,0,0-1.81-3.74c-.87-1.26-1.82-2.49-2.82-3.69-4.11-4.78-9.34-8.82-14.56-13a50.32,50.32,0,0,1,17.7,9.95,30.09,30.09,0,0,1,3.65,3.83,17.84,17.84,0,0,1,2.9,5,13.51,13.51,0,0,1,.75,6,10.4,10.4,0,0,1-2.63,6.15,10.59,10.59,0,0,1-5.91,2.91,18.61,18.61,0,0,1-5.77,0,28.76,28.76,0,0,1-10.06-3.65A57.06,57.06,0,0,1,85.45,206Z"/><path class="cls-3" d="M91.71,137.23c-2.58-.15-5.35-.14-8,0s-5.43.36-8.13.72a66.21,66.21,0,0,0-15.91,4,67.26,67.26,0,0,1,15.44-6.31c2.69-.76,5.43-1.4,8.19-1.91a81.85,81.85,0,0,1,8.45-1.17,2.35,2.35,0,0,1,.39,4.69h-.39Z"/><path class="cls-3" d="M97.45,142.6a83.38,83.38,0,0,0-9.51,1.23,88.57,88.57,0,0,0-9.43,2.27,53.37,53.37,0,0,0-17.41,8.64,48.92,48.92,0,0,1,7.76-6.17,72.21,72.21,0,0,1,8.83-4.67,94.75,94.75,0,0,1,9.41-3.49,87.75,87.75,0,0,1,9.83-2.48,2.35,2.35,0,0,1,.86,4.63,1.24,1.24,0,0,1-.27,0Z"/><path class="cls-3" d="M100.46,149.83a58.74,58.74,0,0,0-7.36,1.1,68.6,68.6,0,0,0-7.31,2,45.82,45.82,0,0,0-13.54,7,47,47,0,0,1,12.62-9.17,73.27,73.27,0,0,1,7.24-3.2,64.83,64.83,0,0,1,7.68-2.37,2.35,2.35,0,0,1,1.08,4.58,2,2,0,0,1-.34.06Z"/><path class="cls-5" d="M182.87,63.68s16.27,19.47,23.86,31.69c0,0,25,2.32,44.37-13.52,8.42-6.86,13.32-17.22,12.33-28A44.11,44.11,0,0,0,258,36.69s-18-33.64-42.25-18C215.73,18.69,194.6,31.21,182.87,63.68Z"/><path class="cls-3" d="M210.41,97.62c-2.25,0-3.64-.12-3.87-.14a2.13,2.13,0,0,1-1.61-1C197.51,84.54,181.41,65.23,181.24,65a2.12,2.12,0,0,1-.36-2.08c11.85-32.8,32.88-45.56,33.77-46.09,6.47-4.17,13.19-5.43,19.92-3.69,15.19,3.94,24.87,21.76,25.28,22.51a46.26,46.26,0,0,1,5.69,17.93c1,11.18-3.87,22.34-13.1,29.87C237,96.12,218.35,97.62,210.41,97.62Zm-2.47-4.3c4.79.21,25.5.21,41.82-13.11,8.14-6.64,12.46-16.43,11.56-26.2a41.94,41.94,0,0,0-5.2-16.3c-.1-.19-9.24-17-22.62-20.43-5.53-1.42-11.12-.36-16.62,3.19-.27.16-20.22,12.34-31.6,42.8C188.56,67.24,201.07,82.54,207.94,93.32Z"/><path class="cls-6" d="M197.18,294s28.72,16.39,6.82,23.23c0,0-20.42,7.83-26.06-15.64C177.94,301.55,192.48,296.54,197.18,294Z"/><path class="cls-3" d="M196.46,320.57a20.2,20.2,0,0,1-9.47-2.22c-5.46-2.88-9.2-8.37-11.11-16.31a2.11,2.11,0,0,1,1.37-2.49c.15-.05,14.42-5,18.91-7.45a2.12,2.12,0,0,1,2.07,0c1.74,1,17,10,16.08,18.55-.41,3.79-3.67,6.67-9.68,8.54A24.65,24.65,0,0,1,196.46,320.57Zm-16-17.67c1.7,5.68,4.53,9.61,8.45,11.69,6.57,3.48,14.23.65,14.3.62,3-.95,6.59-2.55,6.86-5,.46-4.3-8-10.8-13-13.85C192.77,298.5,184.27,301.56,180.49,302.9Z"/><path class="cls-3" d="M144.09,131.48a16.72,16.72,0,0,0-7.39-2.07,16.71,16.71,0,0,0-7.38,2.07,5.58,5.58,0,0,0-2,7c3.84,8.68,9.35,9.7,9.35,9.7s5.52-1,9.36-9.7A5.59,5.59,0,0,0,144.09,131.48Z"/><path class="cls-3" d="M188,206a57,57,0,0,1-15.59,12.91,28.81,28.81,0,0,1-10.07,3.65,18.54,18.54,0,0,1-5.76,0,10.59,10.59,0,0,1-5.91-2.91,10.42,10.42,0,0,1-2.64-6.15,13.8,13.8,0,0,1,.75-6,18.34,18.34,0,0,1,2.9-5,30.8,30.8,0,0,1,3.65-3.83A50.36,50.36,0,0,1,173,188.68c-5.23,4.22-10.45,8.26-14.56,13-1,1.2-2,2.43-2.83,3.69a12.85,12.85,0,0,0-1.8,3.74c-.8,2.39-.37,5.4.88,6.56,1.15,1.41,4.11,1.82,7,1.55a29.58,29.58,0,0,0,8.8-2.31A151.41,151.41,0,0,0,188,206Z"/><path class="cls-3" d="M181.69,137.23c2.59-.15,5.36-.14,8.05,0s5.42.36,8.13.72a66,66,0,0,1,15.9,4,67.19,67.19,0,0,0-15.43-6.31q-4.05-1.14-8.2-1.91a81.47,81.47,0,0,0-8.45-1.17,2.35,2.35,0,1,0-.38,4.69h.38Z"/><path class="cls-3" d="M176,142.6a83.21,83.21,0,0,1,9.5,1.23,87.42,87.42,0,0,1,9.43,2.27,53.32,53.32,0,0,1,17.42,8.64,48.92,48.92,0,0,0-7.76-6.17,72.34,72.34,0,0,0-8.84-4.67,93.66,93.66,0,0,0-9.4-3.49,88.3,88.3,0,0,0-9.83-2.48,2.35,2.35,0,1,0-.86,4.63,1.15,1.15,0,0,0,.26,0Z"/><path class="cls-3" d="M173,149.83a58.74,58.74,0,0,1,7.36,1.1,69.25,69.25,0,0,1,7.31,2,46,46,0,0,1,13.54,7,47,47,0,0,0-12.62-9.17,74.32,74.32,0,0,0-7.24-3.2,64.83,64.83,0,0,0-7.68-2.37,2.35,2.35,0,1,0-1.09,4.58,2.14,2.14,0,0,0,.35.06Z"/><path class="cls-3" d="M309.7,298.34a29.35,29.35,0,0,0-2.84-10.09A41.49,41.49,0,0,0,293.94,273c-10.72-7.86-23.27-11.06-34.48-14.11a92,92,0,0,1-15.6-5.52,36.72,36.72,0,0,1-8.92-6,69.52,69.52,0,0,1-4.7,13.67,52.73,52.73,0,0,0,8.17,4.34,104.06,104.06,0,0,0,18,5.44c5.91,1.3,11.38,2.45,16.73,4.13a56.81,56.81,0,0,1,14.65,6.65,31.56,31.56,0,0,1,10.38,11A17.87,17.87,0,0,1,300,306.24c-1.29,4.52-4.63,8.54-8.9,11.59a54.3,54.3,0,0,1-15,6.89c-22,7-45.72,8.3-69.21,8-5.89,0-11.75-.35-17.76-.23a90.12,90.12,0,0,0-17.78,2.08,51.51,51.51,0,0,0-16.59,6.57,32.78,32.78,0,0,0-11.85,13,32.22,32.22,0,0,1,12.31-12.26,50.29,50.29,0,0,1,16.48-5.61,87.65,87.65,0,0,1,17.43-1.16c5.8.17,11.72.79,17.63,1.11,23.58,1.46,47.78,1.41,71.3-4.76a61.39,61.39,0,0,0,17.42-7.06c5.47-3.49,10.55-8.67,12.89-15.49A25.39,25.39,0,0,0,309.7,298.34Z"/><path class="cls-7" d="M126.84,51.76a42.05,42.05,0,0,1,20.82-1.28,54.87,54.87,0,0,1,19.48,8.21C179,66.6,188.34,77.61,196,89.36a211.11,211.11,0,0,1,19.43,37.38,225.44,225.44,0,0,1,11.74,40.51,238.58,238.58,0,0,1,3.83,42,180.19,180.19,0,0,1-1.38,21.13A102.76,102.76,0,0,1,225,251.12a65.69,65.69,0,0,1-9.84,19,62.46,62.46,0,0,1-15.75,14.34,79.6,79.6,0,0,1-39.93,11.85c13.78-1.65,27.29-6.11,38.37-14.14a59.58,59.58,0,0,0,14.34-14.26,63.72,63.72,0,0,0,8.62-18.16c3.93-13,5-26.82,4.9-40.51a239.6,239.6,0,0,0-4-41,226,226,0,0,0-29.33-76.58C185.16,80.07,176.57,69.08,165.57,61a52.56,52.56,0,0,0-18.23-9A44,44,0,0,0,126.84,51.76Z"/><path class="cls-7" d="M99.2,191.23c2.09,1.19,4,2.58,6,4a62.76,62.76,0,0,1,5.57,4.61,33.28,33.28,0,0,1,4.89,5.52,11.52,11.52,0,0,1,1.73,3.61,4.8,4.8,0,0,1-1.08,4.62l.11-.11a5.18,5.18,0,0,1-2.35,1.45,8.7,8.7,0,0,1-2.3.43,16,16,0,0,1-4.35-.34,32.73,32.73,0,0,1-7.77-2.9,65.61,65.61,0,0,1-13.26-9.22c2.4,1.23,4.67,2.62,7.07,3.77s4.73,2.37,7.14,3.38a35.91,35.91,0,0,0,7.33,2.3,13.11,13.11,0,0,0,3.61.23,5.9,5.9,0,0,0,1.62-.32,4,4,0,0,0,1.07-.52l.11-.12a2,2,0,0,0,.4-2,11.11,11.11,0,0,0-1.26-2.84,41.85,41.85,0,0,0-4.22-5.44C106.09,197.83,102.68,194.51,99.2,191.23Z"/><path class="cls-7" d="M173.65,191.23c-2.09,1.19-4,2.58-6,4a62.76,62.76,0,0,0-5.57,4.61,32.84,32.84,0,0,0-4.89,5.52,11.52,11.52,0,0,0-1.73,3.61,4.8,4.8,0,0,0,1.08,4.62l-.11-.11a5.18,5.18,0,0,0,2.35,1.45,8.7,8.7,0,0,0,2.3.43,16,16,0,0,0,4.35-.34,32.73,32.73,0,0,0,7.77-2.9,65.61,65.61,0,0,0,13.26-9.22c-2.4,1.23-4.67,2.62-7.07,3.77s-4.73,2.37-7.14,3.38a35.81,35.81,0,0,1-7.34,2.3,13,13,0,0,1-3.6.23,5.9,5.9,0,0,1-1.62-.32,3.83,3.83,0,0,1-1.07-.52l-.11-.12a2,2,0,0,1-.4-2,11.11,11.11,0,0,1,1.26-2.84,41.85,41.85,0,0,1,4.22-5.44C166.75,197.83,170.17,194.51,173.65,191.23Z"/><path class="cls-7" d="M177.77,55a98.77,98.77,0,0,1,10-21,75.86,75.86,0,0,1,15.12-17.95c6-5.07,13.44-9,21.47-9.73a34.59,34.59,0,0,1,11.79,1.14,41.1,41.1,0,0,1,10.58,5c-7-3.24-14.68-5-22.11-3.94a41.46,41.46,0,0,0-19.92,9.74,90.54,90.54,0,0,0-15.13,17c-2.23,3.12-4.29,6.36-6.24,9.68S179.53,51.57,177.77,55Z"/><path class="cls-8" d="M196.46,51.39a76.36,76.36,0,0,1,9.2-16c3.81-4.89,8.39-9.59,14.62-12.18a18.83,18.83,0,0,1,10-1.4,22.77,22.77,0,0,1,9.52,3.49c5.66,3.66,9.76,9,12.82,14.66A36.59,36.59,0,0,1,256,49.2a28.07,28.07,0,0,1,.19,10,34,34,0,0,1-8.65,17.4,34.92,34.92,0,0,1-16.17,10A47.27,47.27,0,0,1,213,87.92a56.91,56.91,0,0,0,17.55-3.86,34.16,34.16,0,0,0,13.83-10.22,31.11,31.11,0,0,0,6.75-15.35,24,24,0,0,0-.3-8.2,31.82,31.82,0,0,0-3-7.85A34.58,34.58,0,0,0,237,29.6a16.75,16.75,0,0,0-15.25-2.43c-5.24,1.78-10,5.61-14.07,9.92A108.89,108.89,0,0,0,196.46,51.39Z"/><circle class="cls-3" cx="107.91" cy="103.75" r="26.25"/><circle class="cls-3" cx="165.49" cy="103.75" r="26.25"/><line class="cls-9" x1="127.2" y1="103.75" x2="148.2" y2="103.75"/><path class="cls-1" d="M638.67,288.25A41.52,41.52,0,0,0,625.74,273c-10.71-7.86-23.27-11.06-34.47-14.11a91.35,91.35,0,0,1-15.6-5.52,37.62,37.62,0,0,1-7.12-4.45,82.89,82.89,0,0,0,2.22-14.13c.06-.8,5-78.7-23.58-129.66,9.65-.73,36.36-4.29,50-21.72,7.75-9.91,9.91-22.62,6.41-37.78a79.46,79.46,0,0,0-15.4-31.39c-12-14.68-32.91-18.57-48.68-9-13,7.83-25,23.12-35.82,45.48a63.53,63.53,0,0,0-70.36,0C422.52,28.32,410.48,13,397.51,5.2c-15.77-9.53-36.7-5.64-48.68,9a79.75,79.75,0,0,0-15.4,31.36c-3.5,15.17-1.34,27.89,6.42,37.81,13.63,17.43,40.33,21,50,21.72-28.55,51-23.64,128.86-23.58,129.67,2.2,30.44,18.65,48.48,37.72,59.19-4.92,3.25-13.78,10.08-13.06,16.68.41,3.79,3.66,6.67,9.55,8.5a25.13,25.13,0,0,0,8.3,1.4,20.23,20.23,0,0,0,9.46-2.22c5-2.63,8.54-7.45,10.58-14.32a153.3,153.3,0,0,0,38.75,5.51h.9a150.77,150.77,0,0,0,39.78-5.5c2,6.87,5.58,11.69,10.57,14.32a20.2,20.2,0,0,0,9.47,2.22,24.72,24.72,0,0,0,8.17-1.36c6-1.87,9.26-4.75,9.67-8.54.72-6.6-8.14-13.43-13.07-16.69,12.48-7,23.81-17.13,30.79-31.81a53.19,53.19,0,0,0,6.39,3.23,104.06,104.06,0,0,0,18,5.44c5.91,1.3,11.38,2.45,16.73,4.13a57,57,0,0,1,14.65,6.65,31.62,31.62,0,0,1,10.37,11,17.78,17.78,0,0,1,1.83,13.66c-1.28,4.52-4.62,8.54-8.89,11.59a54.44,54.44,0,0,1-15,6.89c-22,7-45.73,8.3-69.21,8-5.89,0-11.75-.35-17.76-.23a90.12,90.12,0,0,0-17.78,2.08,51.51,51.51,0,0,0-16.59,6.57,32.71,32.71,0,0,0-11.85,13,32.19,32.19,0,0,1,12.3-12.26,50.37,50.37,0,0,1,16.48-5.61A87.75,87.75,0,0,1,521,335.13c5.8.17,11.72.79,17.63,1.11,23.58,1.46,47.78,1.41,71.3-4.76a61.39,61.39,0,0,0,17.42-7.06c5.47-3.49,10.54-8.67,12.89-15.49a25.55,25.55,0,0,0,1.28-10.59A29.57,29.57,0,0,0,638.67,288.25Z"/><path class="cls-2" d="M595.52,46.08a77.91,77.91,0,0,0-15-30.5C569.32,1.81,549.81-2.17,534.6,7c-11.16,6.74-23.72,20.52-36.1,46.89a61.08,61.08,0,0,0-72,0C414.14,27.53,401.58,13.75,390.42,7c-15.21-9.18-34.72-5.2-45.95,8.57a77.91,77.91,0,0,0-15,30.5C316.59,102,387.4,103.2,387.4,103.2c-30.52,50.86-25,131.45-25,131.45,5.48,75.5,100.15,72.76,100.15,72.76s94.68,2.74,100.15-72.76c0,0,5.48-80.59-25-131.45C537.62,103.2,608.43,102,595.52,46.08Z"/><path class="cls-3" d="M461.55,309.54c-9.8,0-96-2.14-101.3-74.74-.06-.81-5-78.71,23.58-129.67-9.65-.73-36.35-4.29-50-21.72-7.76-9.92-9.92-22.64-6.42-37.81a79.75,79.75,0,0,1,15.4-31.36c12-14.68,32.91-18.57,48.68-9,13,7.83,25,23.12,35.82,45.48a63.53,63.53,0,0,1,70.36,0C508.5,28.32,520.54,13,533.51,5.2c15.77-9.53,36.7-5.64,48.68,9a79.46,79.46,0,0,1,15.4,31.39c3.5,15.16,1.34,27.87-6.41,37.78-13.63,17.43-40.34,21-50,21.72,28.55,51,23.64,128.86,23.58,129.66-5.55,76.65-101.36,74.78-102.32,74.74ZM372.68,4.23a34.37,34.37,0,0,0-26.57,12.69,76.43,76.43,0,0,0-14.54,29.57c-3.21,13.92-1.32,25.44,5.6,34.3,15.21,19.46,49.91,20.28,50.26,20.29a2.12,2.12,0,0,1,1.78,3.21C359.38,154,364.42,233.7,364.47,234.5c5.27,72.64,97.07,70.84,98,70.8s92.84,1.79,98.1-70.81c.05-.79,5.07-80.51-24.74-130.2a2.12,2.12,0,0,1,1.78-3.21c.35,0,35-.83,50.26-20.29,6.92-8.86,8.81-20.38,5.61-34.24,0,0,0,0,0-.06a76.68,76.68,0,0,0-14.54-29.57C568.26,3.86,549.68.38,535.69,8.82,523,16.48,511.15,32,500.42,54.8a2.12,2.12,0,0,1-3.27.73,59,59,0,0,0-69.28,0,2.12,2.12,0,0,1-3.27-.73C413.88,32,402,16.48,389.33,8.82A32.15,32.15,0,0,0,372.68,4.23Z"/><line class="cls-4" x1="439.81" y1="176" x2="439.81" y2="326"/><path class="cls-5" d="M416.35,63.68s-16.28,19.47-23.87,31.69c0,0-25,2.32-44.37-13.52-8.41-6.86-13.32-17.22-12.32-28a43.9,43.9,0,0,1,5.44-17.13s18-33.64,42.25-18C383.48,18.69,404.61,31.21,416.35,63.68Z"/><path class="cls-3" d="M388.8,97.62c-7.94,0-26.54-1.5-42-14.13-9.23-7.53-14.13-18.69-13.1-29.87a46.29,46.29,0,0,1,5.69-17.95c.4-.73,10.08-18.55,25.27-22.49,6.73-1.74,13.45-.49,20,3.73.82.49,21.85,13.25,33.71,46.05A2.15,2.15,0,0,1,418,65c-.16.19-16.26,19.5-23.69,31.45a2.12,2.12,0,0,1-1.6,1C392.45,97.5,391.05,97.62,388.8,97.62ZM370.46,16.67a18.68,18.68,0,0,0-4.74.61c-13.39,3.46-22.53,20.24-22.62,20.41A41.8,41.8,0,0,0,337.9,54c-.9,9.77,3.42,19.56,11.55,26.2,16.33,13.32,37,13.31,41.82,13.11,6.87-10.78,19.39-26.08,22.67-30-11.39-30.46-31.33-42.64-31.54-42.76A21.93,21.93,0,0,0,370.46,16.67Z"/><path class="cls-6" d="M402,294s-28.72,16.39-6.81,23.23c0,0,20.42,7.83,26-15.64C421.27,301.55,406.73,296.54,402,294Z"/><path class="cls-3" d="M402.76,320.57a25.13,25.13,0,0,1-8.3-1.4c-5.89-1.83-9.14-4.71-9.55-8.5-.93-8.58,14.33-17.56,16.07-18.55a2.09,2.09,0,0,1,2.07,0c4.49,2.47,18.77,7.4,18.91,7.45a2.1,2.1,0,0,1,1.37,2.49c-1.9,7.94-5.64,13.43-11.11,16.31A20.23,20.23,0,0,1,402.76,320.57Zm-.66-24.2c-6,3.61-13.41,9.89-13,13.85.26,2.44,3.8,4,6.73,4.95.2.07,7.85,2.89,14.43-.58,3.91-2.08,6.75-6,8.44-11.69C415,301.56,406.45,298.5,402.1,296.37Z"/><path class="cls-2" d="M411.26,206c5.84,3.32,20.19-13.09,15-17.31a50.36,50.36,0,0,1,17.71,9.95,30.8,30.8,0,0,1,3.65,3.83,18.08,18.08,0,0,1,2.9,5,13.51,13.51,0,0,1,.75,6,10.42,10.42,0,0,1-2.64,6.15,10.54,10.54,0,0,1-5.9,2.91,18.61,18.61,0,0,1-5.77,0,28.89,28.89,0,0,1-10.07-3.65A57,57,0,0,1,411.26,206Z"/><path class="cls-3" d="M411.26,206a150.73,150.73,0,0,0,17.5,9,29.45,29.45,0,0,0,8.79,2.31c2.87.27,5.84-.14,7-1.55,1.25-1.16,1.67-4.17.88-6.56a13.15,13.15,0,0,0-1.81-3.74c-.87-1.26-1.82-2.49-2.83-3.69-4.11-4.78-9.33-8.82-14.56-13a50.36,50.36,0,0,1,17.71,9.95,30.8,30.8,0,0,1,3.65,3.83,18.08,18.08,0,0,1,2.9,5,13.51,13.51,0,0,1,.75,6,10.42,10.42,0,0,1-2.64,6.15,10.54,10.54,0,0,1-5.9,2.91,18.61,18.61,0,0,1-5.77,0,28.89,28.89,0,0,1-10.07-3.65A57,57,0,0,1,411.26,206Z"/><path class="cls-3" d="M417.52,137.23c-2.58-.15-5.35-.14-8,0s-5.42.36-8.12.72a66,66,0,0,0-15.91,4,67.37,67.37,0,0,1,15.43-6.31c2.7-.76,5.44-1.4,8.2-1.91a81.85,81.85,0,0,1,8.45-1.17,2.35,2.35,0,0,1,.39,4.69h-.39Z"/><path class="cls-3" d="M423.26,142.6a83.09,83.09,0,0,0-9.51,1.23,88,88,0,0,0-9.43,2.27,53.27,53.27,0,0,0-17.41,8.64,48.92,48.92,0,0,1,7.76-6.17,71.49,71.49,0,0,1,8.83-4.67,93.66,93.66,0,0,1,9.4-3.49,87.92,87.92,0,0,1,9.84-2.48,2.35,2.35,0,0,1,.86,4.63,1.24,1.24,0,0,1-.27,0Z"/><path class="cls-3" d="M426.27,149.83a59.16,59.16,0,0,0-7.37,1.1,69.91,69.91,0,0,0-7.31,2,45.89,45.89,0,0,0-13.53,7,47,47,0,0,1,12.62-9.17,74.15,74.15,0,0,1,7.23-3.2,65,65,0,0,1,7.69-2.37,2.35,2.35,0,0,1,1.08,4.58,2,2,0,0,1-.34.06Z"/><path class="cls-5" d="M508.67,63.68S525,83.15,532.54,95.37c0,0,25,2.32,44.37-13.52,8.41-6.86,13.32-17.22,12.32-28a43.9,43.9,0,0,0-5.44-17.13s-18-33.64-42.25-18C541.54,18.69,520.41,31.21,508.67,63.68Z"/><path class="cls-3" d="M536.22,97.62c-2.25,0-3.65-.12-3.88-.14a2.12,2.12,0,0,1-1.6-1C523.31,84.54,507.21,65.23,507.05,65a2.15,2.15,0,0,1-.37-2.08c11.86-32.8,32.89-45.56,33.78-46.09,6.46-4.17,13.19-5.43,19.92-3.69,15.19,3.94,24.87,21.76,25.27,22.51a46.09,46.09,0,0,1,5.69,17.93c1,11.18-3.87,22.34-13.1,29.87C562.76,96.12,544.16,97.62,536.22,97.62Zm-2.47-4.3c4.79.21,25.49.21,41.82-13.11C583.7,73.57,588,63.78,587.12,54a41.75,41.75,0,0,0-5.19-16.3c-.1-.19-9.24-17-22.63-20.43-5.52-1.42-11.12-.36-16.62,3.19-.26.16-20.21,12.34-31.6,42.8C514.36,67.24,526.88,82.54,533.75,93.32Z"/><path class="cls-6" d="M523,294s28.72,16.39,6.81,23.23c0,0-20.42,7.83-26-15.64C503.75,301.55,518.29,296.54,523,294Z"/><path class="cls-3" d="M522.27,320.57a20.2,20.2,0,0,1-9.47-2.22c-5.46-2.88-9.2-8.37-11.11-16.31a2.11,2.11,0,0,1,1.37-2.49c.14-.05,14.42-5,18.91-7.45a2.12,2.12,0,0,1,2.07,0c1.74,1,17,10,16.07,18.55-.41,3.79-3.66,6.67-9.68,8.54A24.56,24.56,0,0,1,522.27,320.57Zm-16-17.67c1.69,5.68,4.53,9.61,8.44,11.69,6.57,3.48,14.23.65,14.31.62,3.05-.95,6.59-2.55,6.85-5,.47-4.3-8-10.8-13-13.85C518.57,298.5,510.07,301.56,506.3,302.9Z"/><path class="cls-3" d="M469.9,131.48a14.23,14.23,0,0,0-14.78,0,5.59,5.59,0,0,0-2,7c3.84,8.68,9.36,9.7,9.36,9.7s5.52-1,9.36-9.7A5.59,5.59,0,0,0,469.9,131.48Z"/><path class="cls-3" d="M513.76,206a57,57,0,0,1-15.59,12.91,28.89,28.89,0,0,1-10.07,3.65,18.54,18.54,0,0,1-5.76,0,10.53,10.53,0,0,1-5.91-2.91,10.42,10.42,0,0,1-2.64-6.15,13.51,13.51,0,0,1,.75-6,18.08,18.08,0,0,1,2.9-5,30.8,30.8,0,0,1,3.65-3.83,50.36,50.36,0,0,1,17.71-9.95c-5.23,4.22-10.45,8.26-14.56,13-1,1.2-2,2.43-2.83,3.69a13.15,13.15,0,0,0-1.81,3.74c-.79,2.39-.37,5.4.88,6.56,1.15,1.41,4.12,1.82,7,1.55a29.58,29.58,0,0,0,8.8-2.31A151.41,151.41,0,0,0,513.76,206Z"/><path class="cls-3" d="M507.5,137.23c2.58-.15,5.35-.14,8,0s5.42.36,8.12.72a66,66,0,0,1,15.91,4,67.37,67.37,0,0,0-15.43-6.31q-4-1.14-8.2-1.91a81.85,81.85,0,0,0-8.45-1.17,2.35,2.35,0,1,0-.39,4.69h.39Z"/><path class="cls-3" d="M501.76,142.6a83.09,83.09,0,0,1,9.51,1.23,87.42,87.42,0,0,1,9.43,2.27,53.27,53.27,0,0,1,17.41,8.64,48.47,48.47,0,0,0-7.76-6.17,71.49,71.49,0,0,0-8.83-4.67,93.66,93.66,0,0,0-9.4-3.49,87.92,87.92,0,0,0-9.84-2.48,2.35,2.35,0,0,0-.86,4.63,1.24,1.24,0,0,0,.27,0Z"/><path class="cls-3" d="M498.76,149.83a59,59,0,0,1,7.36,1.1,69.91,69.91,0,0,1,7.31,2,45.89,45.89,0,0,1,13.53,7,47,47,0,0,0-12.62-9.17,74.15,74.15,0,0,0-7.23-3.2,65,65,0,0,0-7.69-2.37,2.35,2.35,0,1,0-1.08,4.58l.34.06Z"/><path class="cls-3" d="M635.51,298.34a29.57,29.57,0,0,0-2.84-10.09A41.52,41.52,0,0,0,619.74,273c-10.71-7.86-23.27-11.06-34.47-14.11a91.35,91.35,0,0,1-15.6-5.52,36.72,36.72,0,0,1-8.92-6A69.53,69.53,0,0,1,556,261.06a52.82,52.82,0,0,0,8.18,4.34,104.06,104.06,0,0,0,18,5.44c5.91,1.3,11.38,2.45,16.73,4.13a57,57,0,0,1,14.65,6.65,31.62,31.62,0,0,1,10.37,11,17.78,17.78,0,0,1,1.83,13.66c-1.28,4.52-4.62,8.54-8.89,11.59a54.44,54.44,0,0,1-15,6.89c-22,7-45.73,8.3-69.21,8-5.89,0-11.75-.35-17.76-.23a90.12,90.12,0,0,0-17.78,2.08,51.51,51.51,0,0,0-16.59,6.57,32.71,32.71,0,0,0-11.85,13,32.19,32.19,0,0,1,12.3-12.26,50.37,50.37,0,0,1,16.48-5.61A87.75,87.75,0,0,1,515,335.13c5.8.17,11.72.79,17.63,1.11,23.58,1.46,47.78,1.41,71.3-4.76a61.39,61.39,0,0,0,17.42-7.06c5.47-3.49,10.54-8.67,12.89-15.49A25.55,25.55,0,0,0,635.51,298.34Z"/><path class="cls-7" d="M452.65,51.76a42.05,42.05,0,0,1,20.82-1.28A54.87,54.87,0,0,1,493,58.69c11.83,7.91,21.19,18.92,28.89,30.67a211.16,211.16,0,0,1,19.44,37.38A224.6,224.6,0,0,1,553,167.25a237.63,237.63,0,0,1,3.83,42,176,176,0,0,1-1.38,21.13,102.74,102.74,0,0,1-4.67,20.75,65.69,65.69,0,0,1-9.84,19,62.33,62.33,0,0,1-15.76,14.34,79.57,79.57,0,0,1-39.93,11.85c13.79-1.65,27.3-6.11,38.38-14.14A59.72,59.72,0,0,0,538,267.93a63.75,63.75,0,0,0,8.63-18.16c3.93-13,5-26.82,4.9-40.51a240.61,240.61,0,0,0-4-41,226,226,0,0,0-29.33-76.58C511,80.07,502.37,69.08,491.38,61a52.56,52.56,0,0,0-18.23-9A44,44,0,0,0,452.65,51.76Z"/><path class="cls-7" d="M425,191.23c2.09,1.19,4,2.58,6,4a65.78,65.78,0,0,1,5.57,4.61,33.74,33.74,0,0,1,4.89,5.52,11.52,11.52,0,0,1,1.73,3.61,4.8,4.8,0,0,1-1.08,4.62l.1-.11a5.13,5.13,0,0,1-2.35,1.45,8.62,8.62,0,0,1-2.3.43,16,16,0,0,1-4.35-.34,32.82,32.82,0,0,1-7.76-2.9,65.61,65.61,0,0,1-13.26-9.22c2.4,1.23,4.66,2.62,7.07,3.77S424,209,426.4,210a35.72,35.72,0,0,0,7.33,2.3,13.11,13.11,0,0,0,3.61.23,5.9,5.9,0,0,0,1.62-.32,4,4,0,0,0,1.07-.52l.11-.12a2,2,0,0,0,.39-2,10.77,10.77,0,0,0-1.26-2.84,41,41,0,0,0-4.22-5.44C431.9,197.83,428.49,194.51,425,191.23Z"/><path class="cls-7" d="M499.45,191.23c-2.08,1.19-4,2.58-6,4a64.1,64.1,0,0,0-5.56,4.61,33.34,33.34,0,0,0-4.9,5.52,11.74,11.74,0,0,0-1.73,3.61,4.83,4.83,0,0,0,1.08,4.62l-.1-.11a5.18,5.18,0,0,0,2.35,1.45,8.62,8.62,0,0,0,2.3.43,16,16,0,0,0,4.35-.34,33.06,33.06,0,0,0,7.77-2.9,65.82,65.82,0,0,0,13.25-9.22c-2.4,1.23-4.66,2.62-7.06,3.77s-4.74,2.37-7.14,3.38a36,36,0,0,1-7.34,2.3,13,13,0,0,1-3.6.23,5.9,5.9,0,0,1-1.62-.32,3.94,3.94,0,0,1-1.08-.52l-.1-.12a2,2,0,0,1-.4-2,11.11,11.11,0,0,1,1.26-2.84,41,41,0,0,1,4.22-5.44C492.56,197.83,496,194.51,499.45,191.23Z"/><path class="cls-7" d="M503.58,55a99.22,99.22,0,0,1,10-21,75.91,75.91,0,0,1,15.13-17.95c6-5.07,13.44-9,21.46-9.73A34.63,34.63,0,0,1,562,7.47a41.1,41.1,0,0,1,10.58,5c-7-3.24-14.69-5-22.12-3.94a41.43,41.43,0,0,0-19.91,9.74,90.59,90.59,0,0,0-15.14,17c-2.22,3.12-4.29,6.36-6.23,9.68S505.34,51.57,503.58,55Z"/><path class="cls-8" d="M522.27,51.39a75.93,75.93,0,0,1,9.2-16c3.81-4.89,8.39-9.59,14.62-12.18a18.83,18.83,0,0,1,10-1.4,22.82,22.82,0,0,1,9.52,3.49c5.65,3.66,9.76,9,12.82,14.66a37.37,37.37,0,0,1,3.37,9.29,28.3,28.3,0,0,1,.19,10,34,34,0,0,1-8.65,17.4,35,35,0,0,1-16.18,10,47.21,47.21,0,0,1-18.43,1.31,56.91,56.91,0,0,0,17.55-3.86,34.23,34.23,0,0,0,13.83-10.22,31.11,31.11,0,0,0,6.75-15.35,24.25,24.25,0,0,0-.3-8.2,32.22,32.22,0,0,0-3-7.85A34.58,34.58,0,0,0,562.82,29.6a16.77,16.77,0,0,0-15.26-2.43c-5.23,1.78-10,5.61-14.06,9.92A107.23,107.23,0,0,0,522.27,51.39Z"/><circle class="cls-3" cx="433.72" cy="103.75" r="26.25"/><circle class="cls-3" cx="491.3" cy="103.75" r="26.25"/><line class="cls-9" x1="453.01" y1="103.75" x2="474.01" y2="103.75"/><path class="cls-1" d="M964.48,288.25A41.52,41.52,0,0,0,951.55,273c-10.71-7.86-23.27-11.06-34.48-14.11a91.54,91.54,0,0,1-15.59-5.52,37.7,37.7,0,0,1-7.13-4.45,82.87,82.87,0,0,0,2.23-14.13c.06-.8,5-78.7-23.58-129.66,9.64-.73,36.35-4.29,50-21.72,7.75-9.91,9.91-22.62,6.42-37.78A79.62,79.62,0,0,0,914,14.24c-12-14.68-32.91-18.57-48.69-9-13,7.83-25,23.12-35.81,45.48a63.55,63.55,0,0,0-70.37,0C748.33,28.32,736.29,13,723.32,5.2c-15.78-9.53-36.71-5.64-48.68,9a79.42,79.42,0,0,0-15.4,31.36c-3.5,15.17-1.34,27.89,6.41,37.81,13.63,17.43,40.34,21,50,21.72C687.08,156.09,692,234,692.05,234.8c2.21,30.44,18.65,48.48,37.73,59.19-4.93,3.25-13.78,10.08-13.07,16.68.41,3.79,3.67,6.67,9.56,8.5a25.06,25.06,0,0,0,8.3,1.4,20.26,20.26,0,0,0,9.46-2.22c5-2.63,8.54-7.45,10.57-14.32a153.36,153.36,0,0,0,38.76,5.51h.9A150.72,150.72,0,0,0,834,304c2,6.87,5.58,11.69,10.58,14.32a20.17,20.17,0,0,0,9.47,2.22,24.56,24.56,0,0,0,8.16-1.36c6-1.87,9.27-4.75,9.68-8.54.72-6.6-8.14-13.43-13.07-16.69,12.47-7,23.81-17.13,30.79-31.81A53.19,53.19,0,0,0,896,265.4a104.06,104.06,0,0,0,18,5.44c5.91,1.3,11.38,2.45,16.72,4.13a56.81,56.81,0,0,1,14.65,6.65,31.56,31.56,0,0,1,10.38,11,17.78,17.78,0,0,1,1.83,13.66c-1.28,4.52-4.62,8.54-8.9,11.59a54.17,54.17,0,0,1-15,6.89c-22,7-45.72,8.3-69.2,8-5.89,0-11.76-.35-17.77-.23A90.2,90.2,0,0,0,829,334.57a51.55,51.55,0,0,0-16.58,6.57,32.64,32.64,0,0,0-11.85,13,32.19,32.19,0,0,1,12.3-12.26,50.37,50.37,0,0,1,16.48-5.61,87.7,87.7,0,0,1,17.43-1.16c5.81.17,11.73.79,17.64,1.11,23.58,1.46,47.78,1.41,71.3-4.76a61.39,61.39,0,0,0,17.42-7.06c5.46-3.49,10.54-8.67,12.88-15.49a25.56,25.56,0,0,0,1.29-10.59A29.8,29.8,0,0,0,964.48,288.25Z"/><path class="cls-2" d="M921.33,46.08a78.07,78.07,0,0,0-15-30.5C895.13,1.81,875.62-2.17,860.41,7c-11.16,6.74-23.72,20.52-36.1,46.89a61.08,61.08,0,0,0-72,0C740,27.53,727.38,13.75,716.23,7c-15.21-9.18-34.72-5.2-46,8.57a78,78,0,0,0-15,30.5C642.39,102,713.2,103.2,713.2,103.2c-30.51,50.86-25,131.45-25,131.45,5.47,75.5,100.15,72.76,100.15,72.76s94.67,2.74,100.15-72.76c0,0,5.48-80.59-25-131.45C863.43,103.2,934.24,102,921.33,46.08Z"/><path class="cls-3" d="M787.36,309.54c-9.8,0-96-2.14-101.31-74.74,0-.81-5-78.71,23.58-129.67-9.64-.73-36.35-4.29-50-21.72-7.75-9.92-9.91-22.64-6.41-37.81a79.42,79.42,0,0,1,15.4-31.36c12-14.68,32.9-18.57,48.68-9,13,7.83,25,23.12,35.81,45.48a63.55,63.55,0,0,1,70.37,0C834.31,28.32,846.35,13,859.31,5.2,875.09-4.33,896-.44,908,14.24a79.62,79.62,0,0,1,15.4,31.39c3.49,15.16,1.33,27.87-6.42,37.78-13.63,17.43-40.34,21-50,21.72,28.55,51,23.64,128.86,23.58,129.66-5.56,76.65-101.36,74.78-102.32,74.74ZM698.48,4.23a34.36,34.36,0,0,0-26.56,12.69,76.26,76.26,0,0,0-14.54,29.57c-3.21,13.92-1.32,25.44,5.6,34.3,15.2,19.46,49.91,20.28,50.26,20.29a2.09,2.09,0,0,1,1.81,1.09,2.11,2.11,0,0,1,0,2.12C685.19,154,690.22,233.7,690.28,234.5c5.27,72.64,97.06,70.84,98,70.8s92.83,1.79,98.1-70.81c0-.79,5.07-80.51-24.74-130.2a2.12,2.12,0,0,1,1.78-3.21c.34,0,35.05-.83,50.26-20.29,6.92-8.86,8.81-20.38,5.61-34.24,0,0,0,0,0-.06a76.85,76.85,0,0,0-14.54-29.57C894.06,3.86,875.49.38,861.5,8.82,848.82,16.48,837,32,826.23,54.8a2.12,2.12,0,0,1-3.27.73,59,59,0,0,0-69.28,0,2.12,2.12,0,0,1-3.27-.73c-10.73-22.85-22.6-38.32-35.28-46A32.09,32.09,0,0,0,698.48,4.23Z"/><line class="cls-4" x1="765.61" y1="176" x2="765.61" y2="326"/><path class="cls-5" d="M742.15,63.68s-16.27,19.47-23.86,31.69c0,0-24.95,2.32-44.37-13.52-8.41-6.86-13.32-17.22-12.33-28A44.11,44.11,0,0,1,667,36.69s18-33.64,42.25-18C709.29,18.69,730.42,31.21,742.15,63.68Z"/><path class="cls-3" d="M714.61,97.62c-7.94,0-26.54-1.5-42-14.13C663.35,76,658.46,64.8,659.49,53.62a46.29,46.29,0,0,1,5.69-17.95c.4-.73,10.08-18.55,25.27-22.49,6.72-1.74,13.45-.49,20,3.73.82.49,21.85,13.25,33.7,46.05a2.12,2.12,0,0,1-.36,2.08c-.16.19-16.27,19.5-23.69,31.45a2.12,2.12,0,0,1-1.61,1C718.25,97.5,716.86,97.62,714.61,97.62ZM696.27,16.67a18.82,18.82,0,0,0-4.75.61C678.14,20.74,669,37.52,668.91,37.69A42,42,0,0,0,663.7,54c-.9,9.77,3.42,19.56,11.56,26.2,16.32,13.32,37,13.31,41.82,13.11,6.87-10.78,19.38-26.08,22.67-30-11.39-30.46-31.34-42.64-31.54-42.76A22,22,0,0,0,696.27,16.67Z"/><path class="cls-6" d="M727.84,294s-28.72,16.39-6.82,23.23c0,0,20.42,7.83,26.06-15.64C747.08,301.55,732.54,296.54,727.84,294Z"/><path class="cls-3" d="M728.57,320.57a25.06,25.06,0,0,1-8.3-1.4c-5.89-1.83-9.15-4.71-9.56-8.5-.93-8.58,14.34-17.56,16.08-18.55a2.09,2.09,0,0,1,2.07,0c4.49,2.47,18.77,7.4,18.91,7.45a2.11,2.11,0,0,1,1.37,2.49c-1.91,7.94-5.65,13.43-11.11,16.31A20.26,20.26,0,0,1,728.57,320.57Zm-.66-24.2c-5.95,3.61-13.42,9.89-13,13.85.27,2.44,3.81,4,6.74,4.95.19.07,7.85,2.89,14.42-.58,3.92-2.08,6.75-6,8.45-11.69C740.75,301.56,732.25,298.5,727.91,296.37Z"/><path class="cls-2" d="M737.07,206c5.84,3.32,20.19-13.09,15-17.31a50.36,50.36,0,0,1,17.71,9.95,30.8,30.8,0,0,1,3.65,3.83,18.34,18.34,0,0,1,2.9,5,13.8,13.8,0,0,1,.75,6,10.42,10.42,0,0,1-2.64,6.15,10.59,10.59,0,0,1-5.91,2.91,18.54,18.54,0,0,1-5.76,0,28.81,28.81,0,0,1-10.07-3.65A57,57,0,0,1,737.07,206Z"/><path class="cls-3" d="M737.07,206a151.41,151.41,0,0,0,17.49,9,29.58,29.58,0,0,0,8.8,2.31c2.87.27,5.83-.14,7-1.55,1.25-1.16,1.68-4.17.89-6.56a13.15,13.15,0,0,0-1.81-3.74c-.87-1.26-1.82-2.49-2.83-3.69-4.11-4.78-9.33-8.82-14.56-13a50.36,50.36,0,0,1,17.71,9.95,30.8,30.8,0,0,1,3.65,3.83,18.34,18.34,0,0,1,2.9,5,13.8,13.8,0,0,1,.75,6,10.42,10.42,0,0,1-2.64,6.15,10.59,10.59,0,0,1-5.91,2.91,18.54,18.54,0,0,1-5.76,0,28.81,28.81,0,0,1-10.07-3.65A57,57,0,0,1,737.07,206Z"/><path class="cls-3" d="M743.33,137.23c-2.58-.15-5.36-.14-8.05,0s-5.42.36-8.12.72a66,66,0,0,0-15.91,4,67.19,67.19,0,0,1,15.43-6.31q4.05-1.14,8.2-1.91a81.47,81.47,0,0,1,8.45-1.17,2.35,2.35,0,0,1,.39,4.69h-.39Z"/><path class="cls-3" d="M749.06,142.6a83.21,83.21,0,0,0-9.5,1.23,87.42,87.42,0,0,0-9.43,2.27,53.32,53.32,0,0,0-17.42,8.64,48.92,48.92,0,0,1,7.76-6.17,72.34,72.34,0,0,1,8.84-4.67,93.66,93.66,0,0,1,9.4-3.49,87.92,87.92,0,0,1,9.84-2.48,2.35,2.35,0,0,1,.85,4.63,1.15,1.15,0,0,1-.26,0Z"/><path class="cls-3" d="M752.07,149.83a58.74,58.74,0,0,0-7.36,1.1,69.25,69.25,0,0,0-7.31,2,46,46,0,0,0-13.54,7,47.19,47.19,0,0,1,12.62-9.17,74.32,74.32,0,0,1,7.24-3.2,64.83,64.83,0,0,1,7.68-2.37,2.35,2.35,0,1,1,1.09,4.58,2.14,2.14,0,0,1-.35.06Z"/><path class="cls-5" d="M834.48,63.68s16.27,19.47,23.87,31.69c0,0,24.94,2.32,44.36-13.52C911.13,75,916,64.63,915,53.82a43.77,43.77,0,0,0-5.45-17.13s-18-33.64-42.25-18C867.34,18.69,846.22,31.21,834.48,63.68Z"/><path class="cls-3" d="M862,97.62c-2.24,0-3.64-.12-3.87-.14a2.12,2.12,0,0,1-1.6-1C849.12,84.54,833,65.23,832.86,65a2.1,2.1,0,0,1-.37-2.08c11.86-32.8,32.88-45.56,33.77-46.09,6.47-4.17,13.2-5.43,19.93-3.69,15.19,3.94,24.87,21.76,25.27,22.51a46.09,46.09,0,0,1,5.69,17.93c1,11.18-3.87,22.34-13.1,29.87C888.57,96.12,870,97.62,862,97.62Zm-2.46-4.3c4.79.21,25.49.21,41.81-13.11,8.14-6.64,12.46-16.43,11.56-26.2a42.08,42.08,0,0,0-5.19-16.3c-.1-.19-9.24-17-22.63-20.43-5.53-1.42-11.12-.36-16.62,3.19-.27.16-20.21,12.34-31.6,42.8C840.17,67.24,852.69,82.54,859.56,93.32Z"/><path class="cls-6" d="M848.79,294s28.72,16.39,6.82,23.23c0,0-20.42,7.83-26.06-15.64C829.55,301.55,844.09,296.54,848.79,294Z"/><path class="cls-3" d="M848.08,320.57a20.17,20.17,0,0,1-9.47-2.22c-5.47-2.88-9.21-8.37-11.11-16.31a2.1,2.1,0,0,1,1.37-2.49c.14-.05,14.42-5,18.9-7.45a2.12,2.12,0,0,1,2.07,0c1.75,1,17,10,16.08,18.55-.41,3.79-3.67,6.67-9.68,8.54A24.56,24.56,0,0,1,848.08,320.57Zm-16-17.67c1.69,5.68,4.53,9.61,8.44,11.69,6.57,3.48,14.23.65,14.31.62,3-.95,6.59-2.55,6.85-5,.47-4.3-8-10.8-13-13.85C844.38,298.5,835.88,301.56,832.11,302.9Z"/><path class="cls-3" d="M795.7,131.48a14.21,14.21,0,0,0-14.77,0,5.59,5.59,0,0,0-2,7c3.84,8.68,9.36,9.7,9.36,9.7s5.51-1,9.35-9.7A5.58,5.58,0,0,0,795.7,131.48Z"/><path class="cls-3" d="M839.57,206A57.06,57.06,0,0,1,824,218.9a28.76,28.76,0,0,1-10.06,3.65,18.61,18.61,0,0,1-5.77,0,10.59,10.59,0,0,1-5.91-2.91,10.4,10.4,0,0,1-2.63-6.15,13.51,13.51,0,0,1,.75-6,17.84,17.84,0,0,1,2.9-5,30.09,30.09,0,0,1,3.65-3.83,50.41,50.41,0,0,1,17.7-9.95c-5.22,4.22-10.45,8.26-14.56,13-1,1.2-1.95,2.43-2.82,3.69a12.89,12.89,0,0,0-1.81,3.74c-.79,2.39-.37,5.4.88,6.56,1.15,1.41,4.12,1.82,7,1.55a29.51,29.51,0,0,0,8.8-2.31A151.53,151.53,0,0,0,839.57,206Z"/><path class="cls-3" d="M833.31,137.23c2.58-.15,5.35-.14,8,0s5.43.36,8.13.72a66,66,0,0,1,15.91,4A67.37,67.37,0,0,0,850,135.62c-2.7-.76-5.44-1.4-8.2-1.91a81.85,81.85,0,0,0-8.45-1.17,2.35,2.35,0,1,0-.39,4.69h.39Z"/><path class="cls-3" d="M827.57,142.6a83.38,83.38,0,0,1,9.51,1.23,88.57,88.57,0,0,1,9.43,2.27,53.37,53.37,0,0,1,17.41,8.64,48.92,48.92,0,0,0-7.76-6.17,72.21,72.21,0,0,0-8.83-4.67,95.51,95.51,0,0,0-9.4-3.49,88.47,88.47,0,0,0-9.84-2.48,2.35,2.35,0,0,0-.86,4.63,1.24,1.24,0,0,0,.27,0Z"/><path class="cls-3" d="M824.56,149.83a58.74,58.74,0,0,1,7.36,1.1,68.6,68.6,0,0,1,7.31,2,45.82,45.82,0,0,1,13.54,7,47,47,0,0,0-12.62-9.17,73.27,73.27,0,0,0-7.24-3.2,64.83,64.83,0,0,0-7.68-2.37,2.35,2.35,0,1,0-1.08,4.58,2,2,0,0,0,.34.06Z"/><path class="cls-3" d="M961.32,298.34a29.8,29.8,0,0,0-2.84-10.09A41.52,41.52,0,0,0,945.55,273c-10.71-7.86-23.27-11.06-34.48-14.11a91.54,91.54,0,0,1-15.59-5.52,36.78,36.78,0,0,1-8.93-6,68.88,68.88,0,0,1-4.7,13.67A52.82,52.82,0,0,0,890,265.4a104.06,104.06,0,0,0,18,5.44c5.91,1.3,11.38,2.45,16.72,4.13a56.81,56.81,0,0,1,14.65,6.65,31.56,31.56,0,0,1,10.38,11,17.78,17.78,0,0,1,1.83,13.66c-1.28,4.52-4.62,8.54-8.9,11.59a54.17,54.17,0,0,1-15,6.89c-22,7-45.72,8.3-69.2,8-5.89,0-11.76-.35-17.77-.23A90.2,90.2,0,0,0,823,334.57a51.55,51.55,0,0,0-16.58,6.57,32.64,32.64,0,0,0-11.85,13,32.19,32.19,0,0,1,12.3-12.26,50.37,50.37,0,0,1,16.48-5.61,87.7,87.7,0,0,1,17.43-1.16c5.81.17,11.73.79,17.64,1.11,23.58,1.46,47.78,1.41,71.3-4.76a61.39,61.39,0,0,0,17.42-7.06c5.46-3.49,10.54-8.67,12.88-15.49A25.56,25.56,0,0,0,961.32,298.34Z"/><path class="cls-7" d="M778.46,51.76a42,42,0,0,1,20.81-1.28,54.84,54.84,0,0,1,19.49,8.21C830.59,66.6,840,77.61,847.65,89.36a211.11,211.11,0,0,1,19.43,37.38,223.82,223.82,0,0,1,11.74,40.51,238.58,238.58,0,0,1,3.83,42,176,176,0,0,1-1.38,21.13,102.74,102.74,0,0,1-4.67,20.75,66,66,0,0,1-9.85,19A62.29,62.29,0,0,1,851,284.48a79.6,79.6,0,0,1-39.93,11.85c13.78-1.65,27.3-6.11,38.38-14.14a59.72,59.72,0,0,0,14.33-14.26,63.45,63.45,0,0,0,8.62-18.16c3.94-13,5-26.82,4.9-40.51a238.59,238.59,0,0,0-4-41,225.54,225.54,0,0,0-29.33-76.58C836.77,80.07,828.18,69.08,817.19,61a52.69,52.69,0,0,0-18.24-9A43.92,43.92,0,0,0,778.46,51.76Z"/><path class="cls-7" d="M750.82,191.23c2.08,1.19,4,2.58,6,4a64.1,64.1,0,0,1,5.56,4.61,33.34,33.34,0,0,1,4.9,5.52,11.74,11.74,0,0,1,1.73,3.61,4.83,4.83,0,0,1-1.08,4.62l.1-.11a5.18,5.18,0,0,1-2.35,1.45,8.62,8.62,0,0,1-2.3.43A16,16,0,0,1,759,215a33.06,33.06,0,0,1-7.77-2.9A65.82,65.82,0,0,1,738,202.87c2.4,1.23,4.66,2.62,7.06,3.77S749.8,209,752.2,210a36,36,0,0,0,7.34,2.3,13,13,0,0,0,3.6.23,5.9,5.9,0,0,0,1.62-.32,3.94,3.94,0,0,0,1.08-.52l.1-.12a2,2,0,0,0,.4-2,11.11,11.11,0,0,0-1.26-2.84,41,41,0,0,0-4.22-5.44C757.71,197.83,754.3,194.51,750.82,191.23Z"/><path class="cls-7" d="M825.26,191.23c-2.09,1.19-4,2.58-6,4a65.78,65.78,0,0,0-5.57,4.61,33.74,33.74,0,0,0-4.89,5.52,11.52,11.52,0,0,0-1.73,3.61,4.8,4.8,0,0,0,1.08,4.62l-.1-.11a5.13,5.13,0,0,0,2.35,1.45,8.62,8.62,0,0,0,2.3.43,16,16,0,0,0,4.35-.34,32.82,32.82,0,0,0,7.76-2.9,65.61,65.61,0,0,0,13.26-9.22c-2.4,1.23-4.66,2.62-7.07,3.77s-4.73,2.37-7.14,3.38a35.72,35.72,0,0,1-7.33,2.3,13.11,13.11,0,0,1-3.61.23,5.75,5.75,0,0,1-1.61-.32,3.94,3.94,0,0,1-1.08-.52l-.11-.12a2,2,0,0,1-.39-2,10.77,10.77,0,0,1,1.26-2.84,41,41,0,0,1,4.22-5.44C818.37,197.83,821.78,194.51,825.26,191.23Z"/><path class="cls-7" d="M829.38,55a99.26,99.26,0,0,1,10-21,75.86,75.86,0,0,1,15.12-17.95c6-5.07,13.45-9,21.47-9.73a34.63,34.63,0,0,1,11.8,1.14,40.88,40.88,0,0,1,10.57,5c-7-3.24-14.68-5-22.11-3.94a41.43,41.43,0,0,0-19.91,9.74,90.24,90.24,0,0,0-15.14,17c-2.23,3.12-4.29,6.36-6.23,9.68S831.14,51.57,829.38,55Z"/><path class="cls-8" d="M848.07,51.39a76.41,76.41,0,0,1,9.21-16c3.81-4.89,8.39-9.59,14.61-12.18a18.88,18.88,0,0,1,10.05-1.4,22.72,22.72,0,0,1,9.51,3.49c5.66,3.66,9.77,9,12.83,14.66a37.37,37.37,0,0,1,3.37,9.29,28.3,28.3,0,0,1,.19,10,34,34,0,0,1-8.66,17.4,34.87,34.87,0,0,1-16.17,10,47.22,47.22,0,0,1-18.43,1.31,56.91,56.91,0,0,0,17.55-3.86A34.19,34.19,0,0,0,896,73.84a31.13,31.13,0,0,0,6.76-15.35,24.51,24.51,0,0,0-.3-8.2,32.22,32.22,0,0,0-3-7.85A34.58,34.58,0,0,0,888.63,29.6a16.77,16.77,0,0,0-15.26-2.43c-5.24,1.78-10,5.61-14.07,9.92A108.89,108.89,0,0,0,848.07,51.39Z"/><circle class="cls-3" cx="759.53" cy="103.75" r="26.25"/><circle class="cls-3" cx="817.11" cy="103.75" r="26.25"/><line class="cls-9" x1="778.82" y1="103.75" x2="799.82" y2="103.75"/></svg>