<svg xmlns="http://www.w3.org/2000/svg" xmlns:xlink="http://www.w3.org/1999/xlink" viewBox="0 0 333.58 383.89"><defs><style>.cls-1{fill:#fff;}.cls-11,.cls-12,.cls-2,.cls-3,.cls-4,.cls-8,.cls-9{fill:none;stroke:#000;}.cls-11,.cls-12,.cls-2,.cls-3,.cls-8,.cls-9{stroke-linecap:round;}.cls-2,.cls-3,.cls-4,.cls-8,.cls-9{stroke-miterlimit:10;}.cls-2{stroke-width:2px;}.cls-3{stroke-width:6px;}.cls-12,.cls-4,.cls-8{stroke-width:3px;}.cls-5{fill:url(#New_Gradient_Swatch_34);}.cls-6{fill:#f7e276;}.cls-7{fill:url(#New_Gradient_Swatch_34-2);}.cls-9{stroke-width:8px;}.cls-10{fill:#ab8ebf;}.cls-11,.cls-12{stroke-linejoin:bevel;}.cls-11{stroke-width:4px;}.cls-13{fill:#abafd7;}.cls-14{fill:#513690;}</style><radialGradient id="New_Gradient_Swatch_34" cx="156.23" cy="74.17" r="48.35" gradientTransform="matrix(0.92, 0.38, -0.38, 0.92, 112.36, 121.38)" gradientUnits="userSpaceOnUse"><stop offset="0.01" stop-color="#fff"/><stop offset="0.25" stop-color="#f9f9f9"/><stop offset="0.56" stop-color="#eaeaea"/><stop offset="0.91" stop-color="#d0d0d0"/><stop offset="1" stop-color="#c8c8c8"/></radialGradient><radialGradient id="New_Gradient_Swatch_34-2" cx="190.46" cy="74.17" r="46.53" xlink:href="#New_Gradient_Swatch_34"/></defs><g id="OBJECTS"><path class="cls-1" d="M149.5,229.73a18.81,18.81,0,0,0,18.38,22.76,18.72,18.72,0,0,0,12.42-4.72,17.34,17.34,0,0,0,33-5.41A15.09,15.09,0,1,0,223.92,215a22.62,22.62,0,0,0-38.32-19.91,17.32,17.32,0,0,0-26.48,6.37,14.91,14.91,0,0,0-6.94-1.71,15.09,15.09,0,0,0-2.68,29.95Z"/><path d="M150.18,229.27a2.2,2.2,0,0,1,0,1.32l-.1.7c-2,16.26,17.15,26.55,29.48,15.62l1.13-1,.67,1.4c4.71,10.16,18.74,12.55,26.4,4.28a17.72,17.72,0,0,0,4.59-11.37l1.66,1.17c7.12,5.21,17.85,1.92,21-6.32,3.53-8.32-2.13-18.25-11.16-19.27l-.78-.11a25.07,25.07,0,0,0,.44-4.22,23.66,23.66,0,0,0-2.68-10.78,31.52,31.52,0,0,0-3.36-5.06,17.67,17.67,0,0,0-5.54-4.27,22,22,0,0,0-25.77,4.3l-.45.47-.53-.41c-8.82-6.79-21.48-2.9-25.52,7.32A14.12,14.12,0,0,0,144,226.56c1.84,1.39,4,1.86,6.14,2.71Zm-1.36.91a1.76,1.76,0,0,1-1.13,0A16.08,16.08,0,0,1,138.4,223c-8.07-14,6.82-29.66,21.24-22.49l-1.54.53a18.16,18.16,0,0,1,28-6.48l-1,.06a23.34,23.34,0,0,1,20.3-6.3c4.88.74,9.17,3.33,12.82,6.57a18.76,18.76,0,0,1,4.51,5.82,22.61,22.61,0,0,1,2.37,10.79,23.83,23.83,0,0,1-.42,3.68l-.64-.88c10,1.24,16.68,12.11,13,21.55-3.42,9.69-16.06,13.53-24.37,7.52l1.9-.86c-1.25,12.91-15.77,20.65-27.17,14.44a18.75,18.75,0,0,1-8.07-8.68l1.79.38c-13.78,11.95-35.07.54-32.63-17.57l.12-.75.07-.38s0-.2,0,0a.38.38,0,0,0,.17.28Z"/><path d="M169.29,200.54a13,13,0,0,1,16.12,1.67,5.82,5.82,0,0,1,.71.82l.68.84s0,.12.08.06l.09-.1.18-.21.35-.4.43-.5.37-.37a10,10,0,0,1,.76-.7,15.89,15.89,0,0,1,3.42-2.19,23.9,23.9,0,0,1,7.32-2.05,24.89,24.89,0,0,1,6.56,0,10.53,10.53,0,0,1,4.7,1.85,7.58,7.58,0,0,1,2.22,2.47,5.8,5.8,0,0,1,.38.81l.11.29-.08-.3a5.77,5.77,0,0,0-.32-.85,7.81,7.81,0,0,0-2.1-2.68,10.71,10.71,0,0,0-4.8-2.2,23.76,23.76,0,0,0-6.77-.24,23.38,23.38,0,0,0-7.67,2,15.78,15.78,0,0,0-3.65,2.33c-.28.24-.56.49-.82.76l-.39.4-.19.21-.08.11h0s0,0,0,0a6.85,6.85,0,0,0-.74-.82,12.82,12.82,0,0,0-8.32-3.62A12.12,12.12,0,0,0,169.29,200.54Z"/><path d="M143.36,213.18a12.57,12.57,0,0,1,5.06-5.13,11.22,11.22,0,0,1,6.27-1.4,21,21,0,0,1,4.78.95c1.16.36,1.82.61,1.82.61s-.6-.38-1.7-.92a16.18,16.18,0,0,0-4.81-1.53,10.36,10.36,0,0,0-6.86,1.42,10.42,10.42,0,0,0-2.88,2.58,9.33,9.33,0,0,0-1,1.64A9.79,9.79,0,0,0,143.36,213.18Z"/><path d="M219.93,219.74a9.7,9.7,0,0,1,6.2,2.43,10.65,10.65,0,0,1,3.22,5.05,14.67,14.67,0,0,1,.61,4.48c0,.56,0,1-.07,1.31l0,.47L230,233a11,11,0,0,0,.31-1.3,11.88,11.88,0,0,0-.08-4.74,10.29,10.29,0,0,0-1.15-3,9.22,9.22,0,0,0-2.29-2.64,8.89,8.89,0,0,0-3.26-1.61A7.36,7.36,0,0,0,219.93,219.74Z"/><path d="M151.59,230.39a2.33,2.33,0,0,0,2.41-.18A2.35,2.35,0,0,0,151.59,230.39Z"/><path d="M151.58,232.31a10.76,10.76,0,0,0,5.33-.38A10.7,10.7,0,0,0,151.58,232.31Z"/><path d="M151.75,234.43a8.58,8.58,0,0,0,3.52-.08,9.76,9.76,0,0,0,1.63-.47,11.35,11.35,0,0,0-1.71-.12A8.87,8.87,0,0,0,151.75,234.43Z"/><path d="M152.23,236.84a23.71,23.71,0,0,0,6.62-.79,27.27,27.27,0,0,0,3.07-1s-1.32.12-3.19.39A46.75,46.75,0,0,0,152.23,236.84Z"/><path d="M153.36,239.57a12.88,12.88,0,0,0,4.2-.59,16.3,16.3,0,0,0,1.93-.72,15.39,15.39,0,0,0-2.05.13A12.77,12.77,0,0,0,153.36,239.57Z"/><path d="M154.17,241.67a14.18,14.18,0,0,0,4.42-.7,16.39,16.39,0,0,0,2-.77,18.44,18.44,0,0,0-2.17.19A14,14,0,0,0,154.17,241.67Z"/><path d="M156.43,244.12a25,25,0,0,0,5.85-1.13c1.62-.5,2.71-1,2.71-1a27.13,27.13,0,0,0-2.85.39A24.45,24.45,0,0,0,156.43,244.12Z"/><path d="M160,246a41.16,41.16,0,0,0,10-3.09A41,41,0,0,0,160,246Z"/><path d="M164.34,247.82a60.86,60.86,0,0,0,7-2.54c2-.83,3.29-1.47,3.29-1.47a33.07,33.07,0,0,0-3.5.91A28.55,28.55,0,0,0,164.34,247.82Z"/><path d="M169.14,248.85a24.14,24.14,0,0,0,5.49-1.91c1.49-.71,2.48-1.32,2.48-1.32a26.75,26.75,0,0,0-2.7.77A23.75,23.75,0,0,0,169.14,248.85Z"/><path d="M182.76,246.73a7.2,7.2,0,0,0,2.86-1.44,8.4,8.4,0,0,0,1.13-1.06,9,9,0,0,0-1.46.56A7.37,7.37,0,0,0,182.76,246.73Z"/><path d="M184.38,248.33a15.34,15.34,0,0,0,3.86-2.62,19.2,19.2,0,0,0,1.59-1.61,18.18,18.18,0,0,0-2,1.13A15.73,15.73,0,0,0,184.38,248.33Z"/><path d="M185.64,250.87c1.85-1.46,3.73-3,5.25-4.13s2.63-1.89,2.63-1.89-.32.11-.85.33a16.13,16.13,0,0,0-2.11,1.07A15.08,15.08,0,0,0,185.64,250.87Z"/><path d="M188,251.49a26.88,26.88,0,0,0,5.28-3.14c1.4-1,2.3-1.87,2.3-1.87s-1.13.51-2.63,1.38A26.27,26.27,0,0,0,188,251.49Z"/><path d="M191.11,253a12.39,12.39,0,0,0,4.53-2.55,13.49,13.49,0,0,0,1.76-1.81s-.89.54-2.11,1.33A40,40,0,0,0,191.11,253Z"/><path d="M195.49,253.94a48.85,48.85,0,0,0,4.55-4.6c1.21-1.38,2-2.39,2-2.39a23,23,0,0,0-2.45,2A21.33,21.33,0,0,0,195.49,253.94Z"/><path d="M200.81,252.65a33.66,33.66,0,0,0,3.51-4.59c.89-1.37,1.45-2.38,1.45-2.38a20.17,20.17,0,0,0-1.93,2A18.41,18.41,0,0,0,200.81,252.65Z"/><path d="M205.17,250.55a18.42,18.42,0,0,0,3.38-6.14A18.42,18.42,0,0,0,205.17,250.55Z"/><path d="M209.2,246.35a10.58,10.58,0,0,0,1.55-3.52,12,12,0,0,0,.33-1.82,12.28,12.28,0,0,0-.89,1.64A10.13,10.13,0,0,0,209.2,246.35Z"/><path d="M214.27,239.84a21,21,0,0,0,1.91-1.56l.92-.79a2.69,2.69,0,0,0-1.25.3A2.73,2.73,0,0,0,214.27,239.84Z"/><path d="M215.8,241a24.13,24.13,0,0,0,3.26-2.71c.86-.83,1.44-1.46,1.44-1.46a9.83,9.83,0,0,0-1.82,1A8.92,8.92,0,0,0,215.8,241Z"/><path d="M217.74,241.82a10.23,10.23,0,0,0,3.72-2.18,11.45,11.45,0,0,0,1.45-1.51s-.77.39-1.8,1A17.87,17.87,0,0,0,217.74,241.82Z"/><path d="M221,242.33a11.21,11.21,0,0,0,4.53-3.05A11.26,11.26,0,0,0,221,242.33Z"/><path d="M140.13,218.49a2.5,2.5,0,0,0,2.5,0A2.47,2.47,0,0,0,140.13,218.49Z"/><path d="M140.47,220.36a15.93,15.93,0,0,0,6.5-.4A15.8,15.8,0,0,0,140.47,220.36Z"/><path d="M142.3,222.19a14.42,14.42,0,0,0,5.3.38,15.77,15.77,0,0,0,2.53-.46s-1.06-.09-2.55-.14A31.51,31.51,0,0,0,142.3,222.19Z"/><path d="M145.63,224.66a10.08,10.08,0,0,0,5.17,0A10,10,0,0,0,145.63,224.66Z"/><path d="M149.47,226.87a7.22,7.22,0,0,0,4.34-.53A7.28,7.28,0,0,0,149.47,226.87Z"/><path class="cls-1" d="M31.54,297.61a11.9,11.9,0,0,1,4.51.33c0-.15-.06-.29-.07-.44a15.28,15.28,0,0,1,18.93-16.67,20.3,20.3,0,0,1,40.24.5c.08.66.12,1.32.14,2a15.28,15.28,0,0,1,24.24,10.46,14.89,14.89,0,0,1-.1,4.38A11.86,11.86,0,1,1,117.1,317a18.93,18.93,0,0,1-25.17,12.49,11.8,11.8,0,0,1-22.77,1.91,18.23,18.23,0,0,1-28.73-12.6c0-.09,0-.18,0-.26a11.84,11.84,0,1,1-8.87-20.95Z"/><path d="M31.47,297a17.2,17.2,0,0,1,4.8.13l-1,.91a16,16,0,0,1,19.82-17.85l-.79.53c1.12-10.68,11.26-19.13,22-18.33,10.79.43,20.06,10,19.93,20.87l-1.5-.74c11.57-8.29,27.73,1.61,25.33,15.71l-.94-.66c6.09-3.65,14.69-.83,17.52,5.67a12.67,12.67,0,0,1-20.21,14.49s1.63-.45,1.63-.46c-2.85,11.28-15.82,17.72-26.56,13.33l1.61-.9a13.16,13.16,0,0,1-4,7.39c-6.67,6.37-18.17,3.44-21.12-5.27l1.91.6c-11.86,8.65-29.24,1-30.36-13.74v-.05l1.44.6c-6.24,5.24-16.58,2.6-19.55-5a12.56,12.56,0,0,1,10-17.25Zm.14,1.18a11.25,11.25,0,0,0-8.89,15.52c2.69,6.65,11.72,8.89,17.13,4.14l1.28-1.06.17,1.66c1.69,12.73,16.62,19.54,27.13,12l1.35-1a11.77,11.77,0,0,0,4.79,6.93c7.05,4.47,15.78-.31,16.45-8.51a18.11,18.11,0,0,0,21.59-4.58,20.68,20.68,0,0,0,4-8l1.17,1.07A10.87,10.87,0,0,0,129,318.84a11.12,11.12,0,1,0-9.22-20.14l-1.18.68.24-1.34c2-14-13.86-22.3-24.38-12.92.29-10.54-7.63-19.83-18.25-20.48-10-.91-19.47,7.06-20.75,17-7.22-2.24-15.59,1.95-17.93,9.18a15.08,15.08,0,0,0-.41,8.34,11.09,11.09,0,0,0-5.47-.93Z"/><path d="M77.24,270.59a15.24,15.24,0,0,0-1.8-.16,14,14,0,0,0-1.83.11,13.52,13.52,0,0,0-3.56,1,14.33,14.33,0,0,0-3.21,1.87A14,14,0,0,0,64.2,276a16.13,16.13,0,0,0-3,6.59,13.23,13.23,0,0,0-.27,1.75,14.62,14.62,0,0,0-.1,1.74,16.08,16.08,0,0,0,.07,1.71l0,.42c0,.07,0,0,0,0v0l-.24-.09a9.79,9.79,0,0,0-1.19-.4,16.66,16.66,0,0,0-2.34-.46,23.77,23.77,0,0,0-4.42-.16c-.7.05-1.38.14-2,.25l-.95.2-.92.28a8.46,8.46,0,0,0-1.63.78c-.49.3-.91.63-1.33.93a9.45,9.45,0,0,0-3.2,3.59,4.7,4.7,0,0,0-.37,1.24l0,.45.08-.44a5.11,5.11,0,0,1,.45-1.19A9.52,9.52,0,0,1,46.16,290c.42-.27.87-.58,1.35-.84a7.74,7.74,0,0,1,1.55-.64l.87-.22.92-.16a17.51,17.51,0,0,1,2-.15,23.21,23.21,0,0,1,4.25.28,17.37,17.37,0,0,1,2.2.49,8.47,8.47,0,0,1,1.07.37l.13.06.24.15.54.36c.37.23.72.52,1.08.79l-.23-1.58c0-.25-.09-.58-.11-.78l0-.4c0-.53-.07-1.07-.06-1.61a15.19,15.19,0,0,1,.1-1.64,13.43,13.43,0,0,1,.25-1.65,15.9,15.9,0,0,1,2.69-6.25A12.83,12.83,0,0,1,66,275.18,14.88,14.88,0,0,1,70.29,272a14.27,14.27,0,0,1,3.38-1.18,14.78,14.78,0,0,1,1.77-.25A15.44,15.44,0,0,1,77.24,270.59Z"/><path d="M111,287.43a17.25,17.25,0,0,1,3.05,7.45,17,17,0,0,1-.61,7.86l-.16.46-.13.37-.2.46c-.26.61-.52,1.22-.77,1.83l1.75-.89,1.25-.62a26.64,26.64,0,0,1,3.48-1.4,12.05,12.05,0,0,1,6.74-.36,7.26,7.26,0,0,1,4.5,3.39,5.35,5.35,0,0,1,.7,2.32,5.24,5.24,0,0,1-.31,2.07,4.87,4.87,0,0,1-1.77,2.39,3.58,3.58,0,0,1-.71.41l-.26.11.27-.09a4,4,0,0,0,.75-.34,5.05,5.05,0,0,0,2-2.36,5.52,5.52,0,0,0,.48-2.2,6,6,0,0,0-.62-2.6,7.88,7.88,0,0,0-4.82-4,12.52,12.52,0,0,0-7.28.22,25,25,0,0,0-3.63,1.45l-.45.22c-.11.06,0,0-.06,0h0l0-.12.16-.49a16.62,16.62,0,0,0,.33-8.29A15.9,15.9,0,0,0,111,287.43Z"/><path d="M112.63,314.87a6.64,6.64,0,0,0-4.63-2.09A6.62,6.62,0,0,0,112.63,314.87Z"/><path d="M111.86,317.86a23.3,23.3,0,0,0-8.41-4.77A23.16,23.16,0,0,0,111.86,317.86Z"/><path d="M109.47,320.87a8.75,8.75,0,0,0-5.39-2.31A8.75,8.75,0,0,0,109.47,320.87Z"/><path d="M107.5,322.92a6.19,6.19,0,0,0-3.22-2.49,6.78,6.78,0,0,0-2-.42,16,16,0,0,0,1.54,1.21A10.64,10.64,0,0,0,107.5,322.92Z"/><path d="M103.94,325.21a13.39,13.39,0,0,0-5.77-4,14.9,14.9,0,0,0-2.37-.68c-.59-.11-.94-.15-.94-.15L97.8,322C99.52,322.94,101.68,324.19,103.94,325.21Z"/><path d="M97.88,325.22a7.12,7.12,0,0,0-4.48-2.78A7.13,7.13,0,0,0,97.88,325.22Z"/><path d="M88.39,326.1a3.93,3.93,0,0,0-3-2.41A3.92,3.92,0,0,0,88.39,326.1Z"/><path d="M87.56,328.66a3.13,3.13,0,0,0-2.84-1.88A3.14,3.14,0,0,0,87.56,328.66Z"/><path d="M87,331.58a8.7,8.7,0,0,0-3.72-3,9.72,9.72,0,0,0-2.21-.7,18.92,18.92,0,0,0,1.77,1.47A13.71,13.71,0,0,0,87,331.58Z"/><path d="M85.35,334a7.24,7.24,0,0,0-3.1-2.39,8.5,8.5,0,0,0-1.82-.58,9,9,0,0,0,1.37,1.35A7.36,7.36,0,0,0,85.35,334Z"/><path d="M81.74,334.84a5.23,5.23,0,0,0-2.11-1.69,9.54,9.54,0,0,0-1.27-.49,3.39,3.39,0,0,0,.74,1.2A2.94,2.94,0,0,0,81.74,334.84Z"/><path d="M68.66,324.58a12.13,12.13,0,0,0-5.53-4.18A12.15,12.15,0,0,0,68.66,324.58Z"/><path d="M66.62,327.93a15.12,15.12,0,0,0-5.27-4.34,16.36,16.36,0,0,0-3.07-1.25s1.06.87,2.6,2A38,38,0,0,0,66.62,327.93Z"/><path d="M63.51,329.92a22.1,22.1,0,0,0-7.76-5.34A22.17,22.17,0,0,0,63.51,329.92Z"/><path d="M59.89,330.29a33.56,33.56,0,0,0-5.11-3.6c-1.52-.89-2.65-1.47-2.65-1.47a14.22,14.22,0,0,0,2.13,2.2A13,13,0,0,0,59.89,330.29Z"/><path d="M53.9,329.69a9.63,9.63,0,0,0-4.66-4A9.63,9.63,0,0,0,53.9,329.69Z"/><path d="M34,317.44a15.16,15.16,0,0,0-3.12-3.82A20.24,20.24,0,0,0,29,312.08a10.47,10.47,0,0,0,1.18,2.12A9.33,9.33,0,0,0,34,317.44Z"/><path d="M29.8,316.77c-1.25-1.77-2.66-3.36-3.75-4.66l-1.88-2.22a7.49,7.49,0,0,0,.25.79,10.78,10.78,0,0,0,.9,1.94A10,10,0,0,0,29.8,316.77Z"/><path d="M41.63,313.64a1.77,1.77,0,0,0-1.94-1.52A1.77,1.77,0,0,0,41.63,313.64Z"/><path d="M39.57,314.77a6.83,6.83,0,0,0-2.8-3,7.89,7.89,0,0,0-1.83-.82,12.82,12.82,0,0,0,1.28,1.52A9.49,9.49,0,0,0,39.57,314.77Z"/><path d="M37.86,316.71a15.58,15.58,0,0,0-3.34-3c-1-.72-1.85-1.17-1.85-1.17a7.66,7.66,0,0,0,1.26,1.83A7,7,0,0,0,37.86,316.71Z"/><path class="cls-1" d="M303,307.18a11.7,11.7,0,0,0-4.51.33c0-.15.05-.29.07-.44a15.26,15.26,0,0,0-18.93-16.67,20.3,20.3,0,0,0-40.24.5c-.08.66-.12,1.32-.14,2a15.27,15.27,0,0,0-24.14,14.84,11.86,11.86,0,1,0,2.32,18.88,19,19,0,0,0,25.17,12.49A11.81,11.81,0,0,0,265.42,341a18.23,18.23,0,0,0,28.73-12.61c0-.08,0-.17,0-.26a11.72,11.72,0,0,0,6,2.58A11.85,11.85,0,1,0,303,307.18Z"/><path d="M303,307.76a11.25,11.25,0,0,0-5.48.94,15,15,0,0,0-.4-8.35,14.7,14.7,0,0,0-17.93-9.17c-1.28-9.91-10.73-17.88-20.75-17-10.63.65-18.54,9.93-18.25,20.48-10.51-9.38-26.39-1.05-24.38,12.92L216,309l-1.18-.68a11.26,11.26,0,0,0-15.63,5.14c-2.7,5.67.44,13.09,6.42,15a10.89,10.89,0,0,0,11.17-2.54L218,324.8l.48,1.52a18.07,18.07,0,0,0,25.13,11.11c1.33,12.66,18,13.89,21.23,1.58a17.42,17.42,0,0,0,28.49-11l.16-1.66,1.29,1.06c5.39,4.75,14.46,2.51,17.13-4.14A11.27,11.27,0,0,0,303,307.76Zm.14-1.17a12.56,12.56,0,0,1,10.05,17.24c-3,7.59-13.3,10.24-19.56,5l1.45-.6v0C293.92,343,276.56,350.66,264.69,342l1.9-.6c-2.94,8.7-14.44,11.64-21.11,5.27a13.19,13.19,0,0,1-4-7.39l1.61.9c-10.74,4.39-23.72-2.05-26.56-13.33,0,0,1.66.45,1.63.46A12.7,12.7,0,0,1,205.06,330c-6.81-2.31-10.22-10.7-7.12-17.13,2.83-6.5,11.42-9.32,17.52-5.67l-1,.66c-2.38-14.1,13.75-24,25.34-15.71l-1.5.74a21.57,21.57,0,0,1,1.52-7.72c8.47-19.92,37.42-16.35,40.43,5.18l-.79-.53a15.72,15.72,0,0,1,7.77-.06,16.11,16.11,0,0,1,12.05,17.91l-1-.91a17.19,17.19,0,0,1,4.8-.13Z"/><path d="M257.34,280.16a15.44,15.44,0,0,1,1.8,0,15.08,15.08,0,0,1,1.77.25,14.72,14.72,0,0,1,6.35,3.12,14.64,14.64,0,0,1,1.28,1.21,14.2,14.2,0,0,1,1.11,1.35,16,16,0,0,1,2.69,6.25,13.43,13.43,0,0,1,.25,1.65c.06.55.09,1.1.1,1.64s0,1.08-.06,1.61l0,.4c0,.2-.06.53-.1.78l-.23,1.58c.36-.27.71-.56,1.08-.79l.54-.36.24-.16.13-.05a9,9,0,0,1,1.07-.38,17.32,17.32,0,0,1,2.2-.48,24.11,24.11,0,0,1,4.25-.29c.68,0,1.33.08,2,.16l.92.15.87.23a7.2,7.2,0,0,1,1.55.64c.48.26.93.56,1.35.84a9.52,9.52,0,0,1,3.34,3.28,4.8,4.8,0,0,1,.45,1.19l.08.43-.05-.44a4.6,4.6,0,0,0-.36-1.24,9.45,9.45,0,0,0-3.2-3.59c-.42-.3-.84-.63-1.33-.93a8.55,8.55,0,0,0-1.64-.78l-.91-.28-1-.21c-.65-.1-1.33-.19-2-.24a22.91,22.91,0,0,0-4.42.16,16.66,16.66,0,0,0-2.34.46,7.93,7.93,0,0,0-1.19.4l-.25.09v0s0,0,0,0l0-.42a16.08,16.08,0,0,0,.07-1.71,14.62,14.62,0,0,0-.1-1.74,17.64,17.64,0,0,0-.27-1.75,16.13,16.13,0,0,0-3-6.59,12.47,12.47,0,0,0-1.23-1.39,13.8,13.8,0,0,0-1.41-1.23,14.91,14.91,0,0,0-3.21-1.86,14,14,0,0,0-3.56-1,16,16,0,0,0-1.83-.1A13.38,13.38,0,0,0,257.34,280.16Z"/><path d="M223.62,297a15.77,15.77,0,0,0-3.72,7.32,16.54,16.54,0,0,0,.33,8.3l.16.49,0,.11h0l-.06,0-.45-.22a25.43,25.43,0,0,0-3.63-1.45,12.55,12.55,0,0,0-7.29-.22,7.86,7.86,0,0,0-4.81,4,5.82,5.82,0,0,0-.62,2.59,5.53,5.53,0,0,0,.47,2.21,5,5,0,0,0,2,2.35,3.56,3.56,0,0,0,.75.35l.27.09-.26-.12a3.43,3.43,0,0,1-.71-.4,5,5,0,0,1-1.78-2.39,5.21,5.21,0,0,1,.4-4.39,7.26,7.26,0,0,1,4.5-3.39,12,12,0,0,1,6.73.36,26.76,26.76,0,0,1,3.49,1.4l1.25.62,1.75.89-.77-1.83-.2-.46-.13-.37-.16-.46A17.25,17.25,0,0,1,223.62,297Z"/><path d="M222,324.44a6.67,6.67,0,0,0,4.63-2.09A6.62,6.62,0,0,0,222,324.44Z"/><path d="M222.71,327.43a23.41,23.41,0,0,0,8.42-4.77A23.39,23.39,0,0,0,222.71,327.43Z"/><path d="M225.11,330.44a8.75,8.75,0,0,0,5.39-2.31A8.75,8.75,0,0,0,225.11,330.44Z"/><path d="M227.08,332.49a10.5,10.5,0,0,0,3.62-1.7,14.67,14.67,0,0,0,1.55-1.22,7,7,0,0,0-1.95.43A6.19,6.19,0,0,0,227.08,332.49Z"/><path d="M230.64,334.78c2.26-1,4.42-2.27,6.14-3.21l2.94-1.64a9.18,9.18,0,0,0-.94.15,14.9,14.9,0,0,0-2.37.68A13.39,13.39,0,0,0,230.64,334.78Z"/><path d="M236.7,334.79a7.13,7.13,0,0,0,4.48-2.78A7.12,7.12,0,0,0,236.7,334.79Z"/><path d="M246.19,335.67a3.94,3.94,0,0,0,3-2.41A3.93,3.93,0,0,0,246.19,335.67Z"/><path d="M247,338.23a3.12,3.12,0,0,0,2.83-1.88A3.12,3.12,0,0,0,247,338.23Z"/><path d="M247.54,341.15a13.71,13.71,0,0,0,4.16-2.21,18.92,18.92,0,0,0,1.77-1.47,9.87,9.87,0,0,0-2.22.7A8.67,8.67,0,0,0,247.54,341.15Z"/><path d="M249.23,343.55a7.36,7.36,0,0,0,3.55-1.62,9,9,0,0,0,1.37-1.35,8.31,8.31,0,0,0-1.82.58A7.24,7.24,0,0,0,249.23,343.55Z"/><path d="M252.84,344.41a3,3,0,0,0,2.64-1,3.39,3.39,0,0,0,.74-1.2,9.54,9.54,0,0,0-1.27.49A5.23,5.23,0,0,0,252.84,344.41Z"/><path d="M265.92,334.15a12.15,12.15,0,0,0,5.53-4.18A12.13,12.13,0,0,0,265.92,334.15Z"/><path d="M268,337.5a38.49,38.49,0,0,0,5.74-3.59c1.54-1.13,2.59-2,2.59-2a15.93,15.93,0,0,0-3.06,1.24A15.27,15.27,0,0,0,268,337.5Z"/><path d="M271.07,339.49a22.17,22.17,0,0,0,7.76-5.34A22,22,0,0,0,271.07,339.49Z"/><path d="M274.69,339.86a13.06,13.06,0,0,0,5.63-2.87,14.22,14.22,0,0,0,2.13-2.2s-1.13.57-2.65,1.47A32.87,32.87,0,0,0,274.69,339.86Z"/><path d="M280.67,339.26a9.62,9.62,0,0,0,4.67-4A9.68,9.68,0,0,0,280.67,339.26Z"/><path d="M300.61,327a9.44,9.44,0,0,0,3.8-3.24,10.47,10.47,0,0,0,1.18-2.12,20.24,20.24,0,0,0-1.85,1.54A15.4,15.4,0,0,0,300.61,327Z"/><path d="M304.78,326.34a9.9,9.9,0,0,0,4.47-4.15,10.56,10.56,0,0,0,.91-1.94,7.49,7.49,0,0,0,.25-.79l-1.88,2.22C307.44,323,306,324.57,304.78,326.34Z"/><path d="M292.94,323.21a1.77,1.77,0,0,0,1.94-1.52A1.77,1.77,0,0,0,292.94,323.21Z"/><path d="M295,324.34a9.4,9.4,0,0,0,3.35-2.3,12.41,12.41,0,0,0,1.29-1.52,8.05,8.05,0,0,0-1.84.82A7,7,0,0,0,295,324.34Z"/><path d="M296.72,326.27a7,7,0,0,0,3.93-2.29,7.41,7.41,0,0,0,1.25-1.83s-.81.45-1.84,1.17A15.79,15.79,0,0,0,296.72,326.27Z"/><path class="cls-1" d="M158.78,353.88a12.67,12.67,0,0,0,.3-2.78,13.19,13.19,0,0,0-21.93-9.89A12.19,12.19,0,0,0,114,345a10.6,10.6,0,1,0-7.45,19.2,15.88,15.88,0,0,0,26.91,14,12.17,12.17,0,0,0,18.6-4.47,10.6,10.6,0,1,0,6.75-19.84Z"/><path d="M158.24,354.25a1.59,1.59,0,0,1,0-1c1.9-11.52-11.75-19.2-20.52-11.41l-.83.74-.52-1a11.56,11.56,0,0,0-21.91,3.49l-.11.82-.65-.47a10.16,10.16,0,0,0-12.77.76c-2.43,2-3.13,5.35-2.89,8.34a10.3,10.3,0,0,0,8.56,9.11l.59.13-.09.56c-2.14,14.38,15.21,23.57,25.63,13.18l.62-.62a11.34,11.34,0,0,0,17.82-3.55l.48-.88.81.44a9.79,9.79,0,0,0,13.72-5.41,9.91,9.91,0,0,0-5.47-12.32c-.77-.36-1.69-.48-2.47-.9Zm1.09-.73a1,1,0,0,1,.75,0,11.72,11.72,0,0,1,3.28,1.54c7.41,5,6.12,16.62-2.18,19.9a11.52,11.52,0,0,1-9.59-.4l1.29-.44c-3.2,7.67-13.7,10.13-20.06,4.85l1.31-.08a16.9,16.9,0,0,1-19.72,3,16.47,16.47,0,0,1-8.48-17.8l.51.7a11.17,11.17,0,0,1-4.76-1.69c-12.23-8.48.28-26.29,12.57-18.5l-.76.35a12.91,12.91,0,0,1,3.3-7.44c6-6.72,17.61-5,21.14,3.33l-1.35-.28a14,14,0,0,1,7.95-3.41c9-1,16.74,7.48,15,16.33l-.05.26s0,.15,0,0a.32.32,0,0,0-.13-.24Z"/><path d="M105.23,354.31a4.33,4.33,0,0,1,1.84-3.54,6.78,6.78,0,0,1,3.93-1,5.78,5.78,0,0,1,3.76,1.31,10.53,10.53,0,0,1,1.48,1.44c.22.24.44.51.65.77l.33.39.08.1,0,0s0,0,0,0v-1.27c0-.16,0-.36,0-.48v-.26a17.1,17.1,0,0,1,2.16-7.49,8.5,8.5,0,0,1,3.93-3.51l.81-.25a3.81,3.81,0,0,1,.81-.19,9.44,9.44,0,0,1,3.18,0,9.21,9.21,0,0,1,2.71,1,10.8,10.8,0,0,1,3.41,3.35,11.48,11.48,0,0,1,.89,1.58,10,10,0,0,1,.52,1.25,6,6,0,0,1,.25.81l.08.28-.06-.29c0-.19-.1-.46-.21-.82a10.62,10.62,0,0,0-.45-1.28,12.73,12.73,0,0,0-.83-1.65,10.82,10.82,0,0,0-3.38-3.58,9.57,9.57,0,0,0-2.83-1.16,9.8,9.8,0,0,0-3.38-.05,3.85,3.85,0,0,0-.87.18c-.29.09-.59.16-.88.26a8.51,8.51,0,0,0-1.65.89,8.67,8.67,0,0,0-2.64,2.84,17,17,0,0,0-2.24,7.81V352s0,0,0,0a12.05,12.05,0,0,0-1.56-1.45,6.37,6.37,0,0,0-2-1,6.71,6.71,0,0,0-2.17-.28,7.05,7.05,0,0,0-4.09,1.3,4.25,4.25,0,0,0-1.32,1.68A4.92,4.92,0,0,0,105.23,354.31Z"/><path d="M143.54,349a7.66,7.66,0,0,1,7.23,2.83,7.41,7.41,0,0,1,1.39,3.59,7.87,7.87,0,0,1,0,1.88,8.79,8.79,0,0,1-.19.89l-.08.28c0,.15-.12.31-.17.46l-.34.88c.46-.19,1-.45,1.41-.59a5.28,5.28,0,0,1,.66-.16,5.91,5.91,0,0,1,1.32-.09,8.21,8.21,0,0,1,2.48.47,5,5,0,0,1,1.91,1.14,4.29,4.29,0,0,1,1.05,1.63,5,5,0,0,1,.22,2.8,3.63,3.63,0,0,1-.24.73l-.11.25.14-.23a4.4,4.4,0,0,0,.3-.73,4.94,4.94,0,0,0,0-2.92,4.77,4.77,0,0,0-1-1.83,5.52,5.52,0,0,0-2-1.35,8.5,8.5,0,0,0-2.64-.59,6.56,6.56,0,0,0-1.46.07,4.67,4.67,0,0,0-.74.17h0l.06-.19a6.58,6.58,0,0,0,.21-1,7.47,7.47,0,0,0,0-2.06,7.61,7.61,0,0,0-1.61-3.88,7.47,7.47,0,0,0-3.53-2.37A7.32,7.32,0,0,0,143.54,349Z"/><path d="M110.33,369.13a10.83,10.83,0,0,0,4-1.76A12.18,12.18,0,0,0,116,366s-.83.29-1.94.82A17.07,17.07,0,0,0,110.33,369.13Z"/><path d="M111.6,370.64a3.19,3.19,0,0,0,1.58-.22c.5-.19,1-.41,1.42-.63.91-.45,1.75-.93,2.47-1.36a27.81,27.81,0,0,0,2.36-1.61s-1.12.38-2.64,1.08c-.76.35-1.63.79-2.5,1.3-.44.25-.88.54-1.31.81A4.55,4.55,0,0,1,111.6,370.64Z"/><path d="M113.71,373.9a33.72,33.72,0,0,0,4.14-2.36c1.13-.73,1.92-1.29,1.92-1.29a11.8,11.8,0,0,0-6.06,3.65Z"/><path d="M116.87,375.62a12.56,12.56,0,0,0,4.83-3.21A12.61,12.61,0,0,0,116.87,375.62Z"/><path d="M121.15,377a40.71,40.71,0,0,0,5-3.19c1.36-1,2.28-1.73,2.28-1.73a19,19,0,0,0-2.6,1.23A17.93,17.93,0,0,0,121.15,377Z"/><path d="M125.27,377.44a14,14,0,0,0,3.23-1.94c.84-.65,1.4-1.17,1.4-1.17a8.8,8.8,0,0,0-1.72.67A7.94,7.94,0,0,0,125.27,377.44Z"/><path d="M135,375.09a9.63,9.63,0,0,0,3.81-3.29A9.5,9.5,0,0,0,135,375.09Z"/><path d="M137.28,376.44a15.77,15.77,0,0,0,3.56-3.2,18.27,18.27,0,0,0,1.39-1.85,19.9,19.9,0,0,0-1.82,1.44A16.44,16.44,0,0,0,137.28,376.44Z"/><path d="M141.63,375.79a18.68,18.68,0,0,0,4.21-4.48,20,20,0,0,0,1.51-2.55s-.85.88-2,2.19A45.43,45.43,0,0,0,141.63,375.79Z"/><path d="M146.19,375a20.27,20.27,0,0,0,2.5-2.93c.63-.88,1.05-1.54,1.05-1.54a7.62,7.62,0,0,0-1.5,1.15A7.3,7.3,0,0,0,146.19,375Z"/><path class="cls-1" d="M135.52,246.65a6.53,6.53,0,0,0-2.57,0l.06-.25a8.67,8.67,0,0,0-10.14-10.12,11.52,11.52,0,0,0-22.81-1.14,10.56,10.56,0,0,0-.15,1.11,8.68,8.68,0,0,0-14.11,5.06,8.72,8.72,0,0,0-.09,2.49,6.88,6.88,0,0,0-2.42-1,6.73,6.73,0,1,0,3.06,11.75,10.75,10.75,0,0,0,13.82,8A6.7,6.7,0,0,0,113,264.47a10.36,10.36,0,0,0,16.73-6.12c0-.05,0-.1,0-.15a6.65,6.65,0,0,0,3.31,1.67,6.72,6.72,0,1,0,2.46-13.22Z"/><path d="M135.43,247.11a7,7,0,0,0-3.37.48l.25-1.05c1.41-5.76-4.15-11.1-9.88-9.63-1.82-14.13-21-13.44-22,.82a8.12,8.12,0,0,0-14.22,6.05l.08,1.05a6.21,6.21,0,0,0-10.3,5A6,6,0,0,0,79.64,255a5.92,5.92,0,0,0,6.2-1l1-.78.31,1.22A10.07,10.07,0,0,0,101,261.3c0,4.67,4.38,7.76,8.64,5.53a7,7,0,0,0,3-4A9.71,9.71,0,0,0,129,258.08l.24-1.34.95.93A6.08,6.08,0,0,0,139.8,256a6.26,6.26,0,0,0-4.37-8.9Zm.17-.93a7.31,7.31,0,0,1,5.21,10.34,7.44,7.44,0,0,1-11.55,2.2l1.19-.4c-1,8.53-11.58,12.4-18.08,6.92l1.55-.38a7.69,7.69,0,0,1-14.7-2.18l1.24.81c-6.31,2.17-13.74-2.11-14.88-8.71l1.28.44,0,0A7.41,7.41,0,0,1,75.59,246,7.34,7.34,0,0,1,86,243.4l-.78.49v0a9.33,9.33,0,0,1,15.21-8.16l-1.24.52c1.44-15.07,23-15.08,24.22.05,0,0-.63-.47-.59-.46a9.26,9.26,0,0,1,10.8,11l-.77-.77a11.69,11.69,0,0,1,2.78.14Z"/><path d="M110.59,229.72a8.21,8.21,0,0,1,6.73,3.83,9,9,0,0,1,1.28,3.63,9.73,9.73,0,0,1,.08,1.86c0,.31-.05.61-.09.91,0,.08-.08.49-.14.77l-.19.88c.22-.14.43-.29.67-.43l.34-.2a.75.75,0,0,1,.27-.13,6.13,6.13,0,0,1,.61-.18,11,11,0,0,1,1.26-.19,13.91,13.91,0,0,1,2.41,0c.38,0,.74.09,1.1.15a8.88,8.88,0,0,1,1,.28,4.79,4.79,0,0,1,.85.41c.26.16.51.35.74.52a5.41,5.41,0,0,1,1.78,2,2.68,2.68,0,0,1,.21.69l0,.25v-.26a3.2,3.2,0,0,0-.16-.72,5.31,5.31,0,0,0-1.68-2.15c-.22-.19-.45-.39-.71-.58a5.25,5.25,0,0,0-.9-.51,8.08,8.08,0,0,0-1-.35c-.37-.08-.75-.16-1.14-.21a12.31,12.31,0,0,0-2.52-.08A10.83,10.83,0,0,0,120,240a4.43,4.43,0,0,0-.69.19l-.08,0v0s0,.08,0-.15.08-.65.1-1a10.37,10.37,0,0,0-.08-2,9.41,9.41,0,0,0-1.47-3.86,8.31,8.31,0,0,0-3.19-2.75A7.28,7.28,0,0,0,110.59,229.72Z"/><path d="M90.89,238.06a9,9,0,0,0-2.41,4,9.48,9.48,0,0,0-.12,4.73l.06.23h0l-.18-.1a13.2,13.2,0,0,0-2-1,7.21,7.21,0,0,0-4.15-.38,4.51,4.51,0,0,0-2.88,2.1,3.15,3.15,0,0,0-.24,2.74,2.79,2.79,0,0,0,1.08,1.4,1.87,1.87,0,0,0,.56.28,2.17,2.17,0,0,1-.52-.33,2.77,2.77,0,0,1-.91-1.42,2.9,2.9,0,0,1,.39-2.45,4.05,4.05,0,0,1,2.65-1.74,6.86,6.86,0,0,1,3.77.45,14.61,14.61,0,0,1,1.92.92l.8.46,1,.56-.37-1.06c0-.17-.14-.37-.18-.55l-.09-.32A9.82,9.82,0,0,1,90.89,238.06Z"/><path d="M89,253.55a3.28,3.28,0,0,0,2.7-1A3.26,3.26,0,0,0,89,253.55Z"/><path d="M89.29,255.27a11.3,11.3,0,0,0,4.94-2.4A11.36,11.36,0,0,0,89.29,255.27Z"/><path d="M90.54,257.06a4.31,4.31,0,0,0,3.14-1.12A4.29,4.29,0,0,0,90.54,257.06Z"/><path d="M91.59,258.29a4.89,4.89,0,0,0,2.13-.79,7.51,7.51,0,0,0,.9-.68,3.76,3.76,0,0,0-1.14.13A3.13,3.13,0,0,0,91.59,258.29Z"/><path d="M93.52,259.72a29.24,29.24,0,0,0,3.61-1.57l1.71-.86a7.28,7.28,0,0,0-1.92.31A7,7,0,0,0,93.52,259.72Z"/><path d="M97,259.94a3.52,3.52,0,0,0,2.64-1.42A3.51,3.51,0,0,0,97,259.94Z"/><path d="M102.3,260.77a2,2,0,0,0,1.79-1.26A2,2,0,0,0,102.3,260.77Z"/><path d="M102.68,262.25a1.56,1.56,0,0,0,1.67-1A1.55,1.55,0,0,0,102.68,262.25Z"/><path d="M102.87,263.92a6.32,6.32,0,0,0,2.46-1.06,8.82,8.82,0,0,0,1-.81,4.79,4.79,0,0,0-1.3.28A4.36,4.36,0,0,0,102.87,263.92Z"/><path d="M103.74,265.34a3.54,3.54,0,0,0,2.09-.75,4.92,4.92,0,0,0,.81-.75,4.45,4.45,0,0,0-1.08.22A3.59,3.59,0,0,0,103.74,265.34Z"/><path d="M105.76,266a1.53,1.53,0,0,0,1.55-.42,1.77,1.77,0,0,0,.44-.7,5.14,5.14,0,0,0-.76.2A2.42,2.42,0,0,0,105.76,266Z"/><path d="M113.53,260.61a5.88,5.88,0,0,0,3.28-2.17A5.88,5.88,0,0,0,113.53,260.61Z"/><path d="M114.57,262.58a16.59,16.59,0,0,0,3.4-1.79c.9-.6,1.52-1.08,1.52-1.08a8.19,8.19,0,0,0-1.8.56A7.79,7.79,0,0,0,114.57,262.58Z"/><path d="M116.26,263.82a10.82,10.82,0,0,0,4.59-2.75A10.71,10.71,0,0,0,116.26,263.82Z"/><path d="M118.3,264.16a6.75,6.75,0,0,0,3.31-1.39,7.24,7.24,0,0,0,1.26-1.21s-.68.26-1.57.7A14,14,0,0,0,118.3,264.16Z"/><path d="M121.71,264a4.73,4.73,0,0,0,2.79-2.12A4.72,4.72,0,0,0,121.71,264Z"/><path d="M133.44,257.8a4.78,4.78,0,0,0,2.3-1.67,5.62,5.62,0,0,0,.71-1.19,9.6,9.6,0,0,0-1.14.77A7.15,7.15,0,0,0,133.44,257.8Z"/><path d="M135.82,257.56a5.17,5.17,0,0,0,2.72-2.16,5.52,5.52,0,0,0,.72-1.53s-.51.48-1.18,1.16A23.66,23.66,0,0,0,135.82,257.56Z"/><path d="M129.23,255.37c1,.28,1.15-.79,1.15-.79S129.32,254.35,129.23,255.37Z"/><path d="M130.36,256.09a4.52,4.52,0,0,0,2-1.15,6.11,6.11,0,0,0,.76-.85,4.24,4.24,0,0,0-1.1.36A3.42,3.42,0,0,0,130.36,256.09Z"/><path d="M131.26,257.24a3.58,3.58,0,0,0,2.33-1.12,4,4,0,0,0,.75-1s-.49.21-1.11.56A7.1,7.1,0,0,0,131.26,257.24Z"/><path class="cls-2" d="M187.62,354c-2.73,6.58-.84,13.62,4.22,15.72s11.38-1.54,14.1-8.13l3.15-7.58L237.28,286"/><path class="cls-3" d="M187.62,354c-2.73,6.58-.84,13.62,4.22,15.72s11.38-1.54,14.1-8.13l3.15-7.58,4.65-11.23"/><path d="M270.2,201.27l5.24-10.08a1,1,0,0,1,1.89.78L273.9,202.8a2,2,0,1,1-3.7-1.53Z"/><path class="cls-4" d="M273.55,198.42C219.76,237.63,183.06,301,183.06,301c6.94-1.44,14.81-.4,21.95,1.47-2.11,4-3.26,6.27-3.26,6.27,12-6.59,23.69,5.85,23.69,5.85s17.09-.51,20.89,12.61c0,0,.8-2.41,2.13-6.73,6.37,3.72,12.67,8.55,16.56,14.48C265,334.92,283.86,264.19,273.55,198.42Z"/><path class="cls-5" d="M273.55,198.42,226.9,311S201.64,297.12,183.06,301C183.06,301,219.76,237.63,273.55,198.42Z"/><path d="M273.61,198.34c-4.32,10.76-24.34,60.91-28.39,70.41-5.34,12.6-12.77,29.78-18,42.41a.32.32,0,0,1-.43.15,102.93,102.93,0,0,0-10.37-4.71c-10.45-4-22-7-33.16-4.89a.76.76,0,0,1-.81-1.12,381,381,0,0,1,40.39-55.78,298.63,298.63,0,0,1,37-36.08c4.27-3.67,9.4-7.06,13.84-10.39Zm-.12.16c-27,21.24-50.11,46.94-70.52,74.47-6.65,9.11-13.41,18.77-19.25,28.38l-.81-1.12c11.55-1.94,23.09,1.54,33.73,5.72a105.54,105.54,0,0,1,10.41,4.83l-.43.15c5.13-12.46,11.9-29.58,16.95-42.06,3.63-9.07,25.62-60.27,29.92-70.37Z"/><path class="cls-6" d="M273.55,198.42,226.9,311s27.71,8,38.12,23.88C265,334.92,283.86,264.19,273.55,198.42Z"/><path d="M273.54,198.52c-4.24,10.52-24.67,61.7-28.6,70.91-5.25,12.4-12.58,29.3-17.76,41.73l-.2-.41a110.12,110.12,0,0,1,10.78,3.94c10.48,4.58,21.1,10.27,27.89,19.81l-1.36.22C267,323.8,269,312.18,270.74,301c5-33.89,6.86-68.42,2.8-102.52Zm0-.2c4.05,22.54,4.69,46,3.07,68.79a380.68,380.68,0,0,1-10.88,68,.76.76,0,0,1-1.36.22c-6.39-9.43-16.68-15.44-26.91-20a104.44,104.44,0,0,0-10.66-4,.3.3,0,0,1-.2-.4c5.21-12.66,12.09-30.06,17.23-42.75,3.76-9.36,25.3-59.52,29.71-69.86Z"/><path class="cls-6" d="M273.55,198.42,225.44,314.56s-11.72-12.44-23.69-5.85C201.75,308.71,234.38,243.69,273.55,198.42Z"/><path d="M273.6,198.34c-6.87,16.9-16.49,41.22-23.28,57.88-8,19.56-16.71,38.91-24.55,58.48a.36.36,0,0,1-.59.11c-5.86-5.83-15.33-10-23.11-5.48a.7.7,0,0,1-.94-.93Q214,282.54,229.39,258c13.08-21,27.53-41.44,44.21-59.69Zm-.1.17a631.36,631.36,0,0,0-46.64,67.63c-8.57,14.05-16.78,28.35-24.48,42.88l-1-.92c6.14-3.36,13.62-1.8,19.14,2a32.3,32.3,0,0,1,5.14,4.2l-.59.1c8.2-19.14,15.5-38.51,23.56-57.66,7.8-18.48,17-39.7,24.83-58.25Z"/><path class="cls-7" d="M273.55,198.42,225.44,314.56s17.09-.51,20.89,12.61C246.33,327.17,269.24,258.13,273.55,198.42Z"/><path d="M273.53,198.52c-7.61,18.66-16.08,40.15-23.64,58.75-7.84,19.24-16.38,38.09-24.12,57.43l-.34-.5a33.06,33.06,0,0,1,6.6.67c6.61,1.21,13,5.4,15,12.11l-1.33,0c4.83-15.72,9.13-31.63,13-47.62a634.86,634.86,0,0,0,14.85-80.81Zm0-.19c-1.11,24.69-5.38,49.4-10.94,73.47q-6.5,28.14-15.64,55.59a.7.7,0,0,1-1.32,0c-2.29-8.71-11.95-12.44-20.22-12.47a.36.36,0,0,1-.34-.5c8.3-19.38,15.8-39.23,24-58.7,7-16.51,17.42-40.71,24.47-57.39Z"/><path d="M195,296.57l7.53,2.16,3.61,1.13a22.18,22.18,0,0,0-3.41-1.69A21.81,21.81,0,0,0,195,296.57Z"/><path d="M198.66,294.31c1.81.61,3.71,1.06,5.2,1.43l2.53.62a12.75,12.75,0,0,0-2.35-1.19A12.29,12.29,0,0,0,198.66,294.31Z"/><path d="M202.1,291.54a22.75,22.75,0,0,0,4.19,1c1.2.2,2.07.28,2.07.28a9.74,9.74,0,0,0-1.93-.85A9.33,9.33,0,0,0,202.1,291.54Z"/><path d="M204.49,287.62a12.91,12.91,0,0,0,5.58,1.81A12.81,12.81,0,0,0,204.49,287.62Z"/><path d="M207.06,283.58a19.16,19.16,0,0,0,6.69,2.59A19.39,19.39,0,0,0,207.06,283.58Z"/><path d="M210.94,279.69a5.87,5.87,0,0,0,3.07,1.6,6.19,6.19,0,0,0,1.68.13s-.62-.32-1.5-.7A15.17,15.17,0,0,0,210.94,279.69Z"/><path d="M213.77,275.33a8.43,8.43,0,0,0,4.29,2A8.42,8.42,0,0,0,213.77,275.33Z"/><path d="M216.11,272.17a5.74,5.74,0,0,0,3.67,1.3A5.78,5.78,0,0,0,216.11,272.17Z"/><path d="M217.85,268.9a3.43,3.43,0,0,0,2,1.37,4.06,4.06,0,0,0,1.21.14,9,9,0,0,0-1-.68A5.53,5.53,0,0,0,217.85,268.9Z"/><path d="M220.43,266.33a2.89,2.89,0,0,0,2.37,1.3A2.87,2.87,0,0,0,220.43,266.33Z"/><path d="M215.24,303.79c.36.1.72.16,1.06.29s.7.23,1,.35.67.27,1,.44.64.32.95.49a28.72,28.72,0,0,1,3.28,2.19c.94.71,1.72,1.35,2.28,1.79l.89.71s-.26-.33-.73-.87a26.22,26.22,0,0,0-2.07-2.09,15,15,0,0,0-3.34-2.32,8.39,8.39,0,0,0-1-.44,8.07,8.07,0,0,0-1.09-.33,8.43,8.43,0,0,0-1.12-.18A8.28,8.28,0,0,0,215.24,303.79Z"/><path d="M219.58,302.28c1.37.49,2.72.9,3.79,1.29s1.81.71,1.81.71a4.34,4.34,0,0,0-.39-.4,7.61,7.61,0,0,0-1.17-.85A6.07,6.07,0,0,0,219.58,302.28Z"/><path d="M221.09,298.44a11.8,11.8,0,0,0,5.2,2.11A11.77,11.77,0,0,0,221.09,298.44Z"/><path d="M223.26,293.65a30.58,30.58,0,0,0,3.58,1.71c1,.43,1.79.72,1.79.72a7.42,7.42,0,0,0-1.51-1.25A7.08,7.08,0,0,0,223.26,293.65Z"/><path d="M225.62,290a10.66,10.66,0,0,0,5,2A10.61,10.61,0,0,0,225.62,290Z"/><path d="M228.19,286.18a5.46,5.46,0,0,0,3.28,1.87A5.45,5.45,0,0,0,228.19,286.18Z"/><path d="M229.28,283.36a15.08,15.08,0,0,0,2.9.76c.83.15,1.45.23,1.45.23a4.34,4.34,0,0,0-1.27-.8A4.39,4.39,0,0,0,229.28,283.36Z"/><path d="M230.79,279.69a9.38,9.38,0,0,0,2.71,1,13.5,13.5,0,0,0,1.4.26,5,5,0,0,0-1.19-.81A4.51,4.51,0,0,0,230.79,279.69Z"/><path d="M233.82,275.34a3.72,3.72,0,0,0,3,.61A3.72,3.72,0,0,0,233.82,275.34Z"/><path d="M234.47,271.89a1.63,1.63,0,0,0,1.94.41A1.63,1.63,0,0,0,234.47,271.89Z"/><path d="M234,312.38a17.71,17.71,0,0,1,4.28.67,15.63,15.63,0,0,1,1.93.67,17.32,17.32,0,0,1,1.67.82,14.62,14.62,0,0,1,2.35,1.65c.28.22.47.42.62.55l.22.2-.18-.24a7.52,7.52,0,0,0-.5-.67,10.39,10.39,0,0,0-2.2-2,10.27,10.27,0,0,0-1.71-1,10.26,10.26,0,0,0-6.48-.71Z"/><path d="M237.7,309a33.27,33.27,0,0,1,4.73,1,16.49,16.49,0,0,1,1.59.57l.62.26a5.83,5.83,0,0,0-.5-.45,7.79,7.79,0,0,0-3.81-1.62A6.33,6.33,0,0,0,237.7,309Z"/><path d="M239,304.53c1.49.57,3,1,4.23,1.4l2.06.65a8.72,8.72,0,0,0-6.29-2.05Z"/><path d="M240.29,301.41a30,30,0,0,0,3.3,1.12l1.64.48a5.6,5.6,0,0,0-1.41-1A5.34,5.34,0,0,0,240.29,301.41Z"/><path d="M241.14,297.39a17.14,17.14,0,0,0,3.88,1.72c1.15.37,2,.55,2,.55a10.86,10.86,0,0,0-1.76-1.09A10.17,10.17,0,0,0,241.14,297.39Z"/><path d="M243.52,292.84a12.73,12.73,0,0,0,3.42,1.24c1,.23,1.74.32,1.74.32a7.9,7.9,0,0,0-1.55-.88A7.5,7.5,0,0,0,243.52,292.84Z"/><path d="M245.25,289.6a6.63,6.63,0,0,0,3.88,1.51A6.61,6.61,0,0,0,245.25,289.6Z"/><path d="M246.13,286.07a6,6,0,0,0,3.84,1A6,6,0,0,0,246.13,286.07Z"/><path d="M247.19,281.61a7.73,7.73,0,0,0,4.31,1.3A7.65,7.65,0,0,0,247.19,281.61Z"/><path d="M250,278.14a7.5,7.5,0,0,0,3.91,2.11A7.5,7.5,0,0,0,250,278.14Z"/><path d="M251.1,317.05a19.61,19.61,0,0,1,3.55,1.57,17,17,0,0,1,2.83,2,15.23,15.23,0,0,1,1.78,1.85c.41.49.62.79.62.79a6.73,6.73,0,0,0-.43-.92,10,10,0,0,0-1.55-2.14A10.42,10.42,0,0,0,255,318,9.15,9.15,0,0,0,251.1,317.05Z"/><path d="M253.48,313.61c1.57.78,3.2,1.45,4.47,2l2.18,1a9.88,9.88,0,0,0-1.9-1.48A9.7,9.7,0,0,0,253.48,313.61Z"/><path d="M253.66,309.23c1.62.73,3.21,1.49,4.42,2.19.61.35,1.11.67,1.47.91l.56.38s-.14-.21-.42-.55a8.39,8.39,0,0,0-1.27-1.23,8.8,8.8,0,0,0-2.13-1.21A7.14,7.14,0,0,0,253.66,309.23Z"/><path d="M255.82,306c1.25.56,2.5,1,3.49,1.43s1.69.73,1.69.73a5.89,5.89,0,0,0-1.41-1.26A5.6,5.6,0,0,0,255.82,306Z"/><path d="M256.73,301.81a15.63,15.63,0,0,0,5.77,2.9A15.65,15.65,0,0,0,256.73,301.81Z"/><path d="M257.55,298.21a11.48,11.48,0,0,0,3,1.06c.87.19,1.53.27,1.53.27a6.31,6.31,0,0,0-1.34-.84A5.4,5.4,0,0,0,257.55,298.21Z"/><path d="M259.07,293.22a18.48,18.48,0,0,0,3.14,1.72c.92.41,1.61.67,1.61.67a6.72,6.72,0,0,0-1.32-1.18A6.2,6.2,0,0,0,259.07,293.22Z"/><path d="M259.7,289.82a40.5,40.5,0,0,0,3.92,1.33l1.92.58a7.6,7.6,0,0,0-1.7-1.13A7.41,7.41,0,0,0,259.7,289.82Z"/><path d="M261.43,285.91c1.12.45,2.18.81,3,1.15s1.46.63,1.46.63a3,3,0,0,0-.28-.37,4.4,4.4,0,0,0-.9-.78A4.17,4.17,0,0,0,261.43,285.91Z"/><path d="M262.71,282.08a14.71,14.71,0,0,0,2.76,1.47c.81.34,1.42.56,1.42.56a5,5,0,0,0-1.12-1.08A4.82,4.82,0,0,0,262.71,282.08Z"/><path d="M228.82,248.32a209,209,0,0,0,15-18.56A210,210,0,0,0,228.82,248.32Z"/><path d="M250.32,239.12a129.62,129.62,0,0,0,6.59-11.87c.86-1.72,1.58-3.18,2.1-4.21l.79-1.65-1,1.54c-.61,1-1.5,2.36-2.44,4A129.66,129.66,0,0,0,250.32,239.12Z"/><path d="M254.48,268.21a115.13,115.13,0,0,0,6-17.17c1.36-5,2.18-8.47,2.18-8.47s-1.2,3.39-2.75,8.3Z"/><path d="M272.79,231.88c-.11,5.17-.52,10.63-.86,14.84s-.54,7.15-.54,7.15.58-2.89,1.13-7.09c.26-2.1.51-4.53.59-7.09A48.66,48.66,0,0,0,272.79,231.88Z"/><path class="cls-8" d="M134.87,301.41c0,11.46,7.14,20.75,16,20.75s16-9.29,16-20.75V169.62"/><path class="cls-9" d="M134.87,301.41c0,11.46,7.14,20.75,16,20.75s16-9.29,16-20.75V268.64"/><path d="M165.29,94.76,166,76.55a.77.77,0,0,1,1.54,0l.73,18.21a1.5,1.5,0,1,1-3,0Z"/><path class="cls-1" d="M49.79,169.62c13.75,0,25.25,5.43,28.38,12.74h1.74c3.12-7.31,14.63-12.74,28.38-12.74s25.25,5.43,28.38,12.74h1.74c3.13-7.31,14.63-12.74,28.38-12.74s25.25,5.43,28.38,12.74h1.74c3.13-7.31,14.63-12.74,28.38-12.74s25.25,5.43,28.38,12.74h1.74c3.13-7.31,14.63-12.74,28.38-12.74s25.25,5.43,28.38,12.74h.28c-21.39-51.06-78.52-87.6-145.66-87.6S42.51,131.3,21.12,182.36h.29C24.53,175.05,36,169.62,49.79,169.62Z"/><path class="cls-10" d="M166.79,94.76S91,104.89,78.86,182.36h1c3.12-7.31,14.63-12.74,28.38-12.74s25.25,5.43,28.38,12.74h.83C137.5,120.84,166.79,94.76,166.79,94.76Z"/><path class="cls-1" d="M166.79,94.76c-67.14,0-124.28,36.54-145.67,87.6h.29c3.12-7.31,14.63-12.74,28.38-12.74S75,175.05,78.17,182.36h.69C91,104.89,166.79,94.76,166.79,94.76Z"/><path class="cls-1" d="M166.79,94.76h0s-29.29,26.08-29.29,87.6h.91c3.13-7.31,14.63-12.74,28.38-12.74s25.25,5.43,28.38,12.74h.91C196.08,120.84,166.79,94.76,166.79,94.76Z"/><path class="cls-1" d="M166.79,94.76s75.84,10.13,87.93,87.6h.69c3.13-7.31,14.63-12.74,28.38-12.74s25.25,5.43,28.38,12.74h.28C291.06,131.3,233.93,94.76,166.79,94.76Z"/><path class="cls-10" d="M166.79,94.76h0s29.29,26.08,29.29,87.6h.83c3.13-7.31,14.63-12.74,28.38-12.74s25.25,5.43,28.38,12.74h1.05C242.63,104.89,166.79,94.76,166.79,94.76Z"/><line class="cls-11" x1="254.69" y1="182.18" x2="254.69" y2="185.22"/><line class="cls-12" x1="312.45" y1="182.18" x2="313.92" y2="186.23"/><line class="cls-11" x1="196.04" y1="182.18" x2="196.04" y2="185.22"/><line class="cls-11" x1="78.89" y1="182.18" x2="78.89" y2="185.22"/><line class="cls-12" x1="21.12" y1="182.18" x2="19.66" y2="186.23"/><line class="cls-11" x1="137.54" y1="182.18" x2="137.54" y2="185.22"/><path d="M166.7,94.8c-34.86,7.52-67.48,29.81-81,63.69a107.62,107.62,0,0,0-6.46,23.93l-.36-.43h1l-.35.23c2.31-5.2,7.43-8.38,12.51-10.4,13.26-5.4,38.26-4.18,45.54,10.15l-.94-.62h.83l-1,1c.1-4,.15-7.93.37-11.88.35-3.54.67-8.38,1.23-11.83.19-1.14,1-6.34,1.13-7.35.56-2.67,1.32-6.06,1.92-8.71,3.42-12.9,8.54-25.53,16-36.59a76.87,76.87,0,0,1,8.48-10.3l.53-.51a1.74,1.74,0,0,1,.53-.39Zm.18-.08C154.55,108.13,147.37,125.56,143,143c-.53,2.64-1.23,6-1.79,8.63-.15,1-.93,6.18-1.09,7.26-.53,3.38-.83,8.23-1.16,11.68-.16,3.45-.28,8.27-.41,11.75a1,1,0,0,1-1,1h-.83a1,1,0,0,1-.94-.62,15.37,15.37,0,0,0-4.83-5.8c-10.68-7.51-26.26-8.15-38.41-4.05-4.92,1.79-9.93,4.73-12.24,9.61a.38.38,0,0,1-.34.22h-1a.36.36,0,0,1-.37-.43c.5-2.47,1-5.77,1.63-8.16.9-3.9,2.19-8.19,3.41-12,.86-2.24,2-5.61,3.06-7.75a94.29,94.29,0,0,1,27.27-36.48,112.34,112.34,0,0,1,48.8-22.59c1.17-.24,2.41-.41,3.6-.57l.26,0a.9.9,0,0,1,.36,0Z"/><path d="M166.69,94.77C122.11,96,76.94,112.45,45.83,145.14a122.17,122.17,0,0,0-24.29,37.39l-.42-.62h.29l-.42.27c7-14.18,31.87-15.75,45.12-10.67,5.25,2,10.48,5.13,13,10.47l-.9-.6h.69l-1,.83A113.4,113.4,0,0,1,84.36,158c9-23.6,28-42.68,50.72-53.37a114.18,114.18,0,0,1,30.66-9.79l.52-.08.26,0c.09,0,0,0,.17.07Zm.2,0c-26.83,5.59-52.51,20-68.78,42.41-9.75,13.31-15.6,29.11-18.28,45.34a1,1,0,0,1-1,.83c-.57,0-1.35.07-1.59-.6-2.14-4.73-7-7.7-11.79-9.53-12.51-5-36.69-4-43.66,9.33a.45.45,0,0,1-.41.28h-.29a.44.44,0,0,1-.45-.45c24.12-56.48,86-89.79,146.22-87.6Z"/><path d="M166.75,94.86c.2,0,.05,0,.09,0l0,0c-.67.68-1.33,1.42-1.94,2.14-11.32,13.57-18.14,30.42-22.29,47.45a187,187,0,0,0-4.19,26.12c-.29,3.92-.4,7.85-.55,11.78l-.35-.36h.91l-.33.21c7.13-13.81,31.86-15.54,45-10.61,5.24,1.94,10.48,5,13,10.38l-.87-.57h.91l-1,1c-.18-5.64-.36-12-1-17.6-.22-4-1.17-9.13-1.73-13.09-.42-2.06-1.09-5.11-1.52-7.18-.14-.72-.47-2.15-.69-2.85-4.38-16.89-11.46-33.84-23.41-46.78Zm.07-.19c13.34,12.77,21,30.33,25.68,47.9.58,2.67,1.33,6.06,1.9,8.73.18,1,.95,6.23,1.13,7.35a182.43,182.43,0,0,1,1.5,23.71.92.92,0,0,1-.9.95c-.64,0-1.53.16-1.83-.58-4.73-9.45-17.75-12.23-27.51-12.56-9.92,0-23.27,2.58-28.06,12.33a.36.36,0,0,1-.32.21h-.91a.35.35,0,0,1-.36-.36c.11-3.55.12-8.36.24-11.85.35-3.52.44-8.38,1-11.82.13-1.14.86-6.35,1-7.36.42-2.08,1.09-5.18,1.52-7.27,3.4-14.43,9.17-28.51,18-40.5a60.14,60.14,0,0,1,7.73-8.75l.07-.06,0,0v0c.06,0-.09,0,.12,0Z"/><path d="M166.89,94.77c.12,0,.08-.11.17-.07l.26,0c1.2.18,2.41.36,3.59.6,25.84,5.21,50.41,19.26,66.08,40.73,9.92,13.5,15.69,29.78,18.12,46.24l-.39-.33h.69l-.36.24c2.39-5.15,7.53-8.22,12.62-10.14,12.46-4.43,28.5-4,39.65,3.66a16.77,16.77,0,0,1,5.45,6.37l-.6-.39h.28l-.6.91a130.72,130.72,0,0,0-24.53-37.07c-30.78-32.94-75.86-49.66-120.43-50.77Zm-.2,0c37.6-1,75.78,10.76,105.47,34.09,17.72,14,32.37,32.27,40.9,53.27a.66.66,0,0,1-.61.91h-.28a.65.65,0,0,1-.6-.39c-2.16-4.87-7.1-7.92-11.94-9.81-12.68-5.1-36.92-4-43.87,9.7a.38.38,0,0,1-.35.24h-.69a.4.4,0,0,1-.39-.33,111.92,111.92,0,0,0-10.12-31.32,102.28,102.28,0,0,0-19.43-26.41c-15.9-15.32-36.59-25.37-58.09-29.94Z"/><path d="M166.88,94.81a4.92,4.92,0,0,1,1.07.89A74.29,74.29,0,0,1,176.44,106a113.46,113.46,0,0,1,13.9,29.47c.3,1,1.78,6.2,2,7.15.47,2.08,1.15,5.16,1.58,7.26.17.72.43,2.19.52,2.93.5,3.42,1.32,8.36,1.48,11.78.56,5.71.58,12.08.65,17.78l-.52-.52.83,0-.47.3a17,17,0,0,1,5.42-6.3c12.83-9.64,44.36-9.53,52.49,6.21l-.68-.45h1.05l-.75.87a114.15,114.15,0,0,0-10-31.29c-14.86-29.94-45-49.57-77.13-56.38Zm-.18-.09a3.7,3.7,0,0,1,1.14.08,113,113,0,0,1,30.71,9.7c31.63,14.91,52.12,43.16,56.92,77.74a.76.76,0,0,1-.75.88c-.57-.07-1.47.19-1.73-.47-6.71-13.54-31-15-43.59-10-4.88,1.88-9.89,4.94-12,9.88a.5.5,0,0,1-.46.3c-.44,0-1.34.22-1.35-.5-.25-5.66-.45-12-1.19-17.62-.33-4-1.23-9.13-1.85-13.1-.58-2.63-1.3-6-1.84-8.62-4.46-17.48-11.72-34.84-24-48.3Z"/><path d="M49.79,168.12c10.56.11,24.67,3.19,29.76,13.65l-1.38-.91h1.74l-1.38.91c8.61-18.19,50.86-18.23,59.52,0l-1.38-.91h1.74l-1.38.91c5.06-10.44,19.19-13.55,29.76-13.65,10.57.1,24.69,3.2,29.76,13.65l-1.38-.91h1.74l-1.38.91c7.19-14.61,32.77-16.11,46.3-10.82,5.36,2.07,10.72,5.28,13.22,10.82l-1.38-.91h1.74l-1.38.91c2.5-5.54,7.86-8.75,13.22-10.82,12.88-4.57,29.21-4,40.63,4a17.33,17.33,0,0,1,5.67,6.8l-1.38-.91h.27c.05,0-1.38,2.08-1.37,2.08C261.59,66.71,72,66.72,22.51,182.94l-1.39-2.08h.29l-1.38.91c5.08-10.46,19.17-13.54,29.76-13.65Zm0,3c-9.47.1-22.42,2.74-27,11.83l-.39.91H18.85C55.64,96.17,174.79,70.72,253.33,116.31c26.9,15.21,49.58,38.71,61.39,67.53-1.07,0-2.55,0-3.53,0a14.39,14.39,0,0,0-5.1-6.48c-10.58-7.35-25.88-7.84-37.78-3.62-4.59,1.76-9.49,4.63-11.52,9.19l-.4.91h-3.7l-.4-.91c-6.51-12.83-30.5-14-42.48-9.19-4.94,1.87-10.07,5-11.92,10.1h-1c-.67,0-2.09,0-2.73,0l-.39-.91c-7.75-15.76-46.23-15.78-54,0l-.4.91c-.69,0-2,0-2.72,0h-1a14.26,14.26,0,0,0-5.1-6.48c-10.59-7.36-25.85-7.84-37.77-3.62-5,1.87-10.06,5-11.92,10.1H77.18c-4-9.82-17.75-12.66-27.39-12.74Z"/><path d="M32.61,168.13c.63-.26,1.27-.51,1.92-.73s1.31-.41,2-.58a35.33,35.33,0,0,1,4-.8c2.64-.39,5.18-.55,7.4-.66s4.09-.2,5.41-.12a15.07,15.07,0,0,1,2.09.23,12,12,0,0,0-2.06-.45,39.14,39.14,0,0,0-5.46-.25,44.43,44.43,0,0,0-7.49.59,27.62,27.62,0,0,0-4,1c-.65.23-1.3.49-1.93.78S33.2,167.78,32.61,168.13Z"/><path d="M34.75,164.41c3.13-.66,6.43-1.26,9-1.54,1.29-.16,2.38-.25,3.16-.3l1.23-.08s-.45-.07-1.23-.14a24.7,24.7,0,0,0-7.58.49A22.14,22.14,0,0,0,34.75,164.41Z"/><path d="M37.49,161.6c1.66-.27,3.29-.64,4.6-.88l2.24-.39a8.57,8.57,0,0,0-2.31-.2A8.35,8.35,0,0,0,37.49,161.6Z"/><path d="M40.11,157.39A17.09,17.09,0,0,0,46.74,156,17.13,17.13,0,0,0,40.11,157.39Z"/><path d="M42.33,154.45a21.33,21.33,0,0,0,3.93-.42c1.1-.21,1.88-.41,1.88-.41a8,8,0,0,0-1.93-.18A7.71,7.71,0,0,0,42.33,154.45Z"/><path d="M85.11,170.37a53.26,53.26,0,0,1,7.06-3c1.19-.4,2.36-.73,3.49-1s2.23-.5,3.24-.68a43,43,0,0,1,5-.58c.62-.05,1.12-.05,1.45-.06l.52,0-.52,0c-.33,0-.82-.08-1.45-.09a29.21,29.21,0,0,0-5.12.21,31.49,31.49,0,0,0-3.32.59A30.23,30.23,0,0,0,92,166.79,28.8,28.8,0,0,0,85.11,170.37Z"/><path d="M86.48,166.76a22.61,22.61,0,0,1,4.18-2.26,41.9,41.9,0,0,1,4.07-1.43L99,161.81l-1.23.14c-.77.1-1.87.26-3.15.54a20.8,20.8,0,0,0-4.19,1.4,13.79,13.79,0,0,0-2.09,1.23A10.9,10.9,0,0,0,86.48,166.76Z"/><path d="M87.81,162.37c2.33-.8,4.73-1.64,6.63-2.19,1-.29,1.77-.5,2.34-.65l.92-.24s-.35,0-1,0a17.87,17.87,0,0,0-2.45.29A15.86,15.86,0,0,0,87.81,162.37Z"/><path d="M89.87,157.82a19.46,19.46,0,0,0,6.2-.89,21.5,21.5,0,0,0,2.84-1.05s-1.24.16-3,.47A44.77,44.77,0,0,0,89.87,157.82Z"/><path d="M91.68,153.86a18.62,18.62,0,0,0,5-.57,24,24,0,0,0,2.36-.71,20.35,20.35,0,0,0-2.45.12A18.14,18.14,0,0,0,91.68,153.86Z"/><path d="M94.09,149.65a9.76,9.76,0,0,0,5-.79A9.74,9.74,0,0,0,94.09,149.65Z"/><path d="M57.34,140c5.21-4,10.68-8,16-11.66s10.55-7,15.15-9.78,8.53-5.06,11.38-6.53c1.42-.74,2.57-1.27,3.36-1.62l1.23-.53-1.25.47c-.81.31-2,.8-3.44,1.48-2.92,1.37-6.93,3.53-11.59,6.22s-9.9,6-15.22,9.75A195.77,195.77,0,0,0,57.34,140Z"/><path d="M112.84,124.85c1-.87,2-1.79,3.09-2.65s2.1-1.73,3.17-2.58,2.15-1.67,3.24-2.47,2.18-1.59,3.27-2.34,2.2-1.47,3.27-2.19,2.15-1.39,3.22-2c2.11-1.3,4.19-2.44,6.13-3.49s3.77-1.92,5.4-2.7l2.32-1c.72-.34,1.4-.6,2-.87,1.21-.52,2.18-.89,2.84-1.16l1-.41-1,.35c-.68.23-1.67.55-2.9,1-.62.23-1.31.47-2,.77l-2.37,1c-1.67.72-3.53,1.56-5.5,2.56s-4.08,2.11-6.22,3.41c-1.08.62-2.15,1.33-3.25,2s-2.19,1.44-3.26,2.23-2.17,1.58-3.25,2.42-2.12,1.71-3.17,2.59-2.07,1.8-3.06,2.74S113.8,123.91,112.84,124.85Z"/><path d="M140.33,172.63a34.9,34.9,0,0,1,4.42-2.61c.76-.39,1.56-.72,2.34-1.05s1.58-.6,2.37-.86a55.34,55.34,0,0,1,9.06-2.05c2.75-.41,5.1-.65,6.76-.83l2.62-.29-2.64.07c-1.66.06-4,.15-6.81.46a42.5,42.5,0,0,0-9.21,2c-.8.28-1.59.6-2.39,1s-1.56.74-2.31,1.19A26.54,26.54,0,0,0,140.33,172.63Z"/><path d="M140.78,168.83a25.55,25.55,0,0,1,6.51-3.14,52.48,52.48,0,0,1,6.37-1.69c1.93-.38,3.59-.58,4.76-.7s1.87-.15,1.87-.15-.69-.06-1.88-.07a32.34,32.34,0,0,0-11.34,2A17.7,17.7,0,0,0,140.78,168.83Z"/><path d="M141.89,165c.39-.28.78-.55,1.18-.79s.83-.45,1.25-.65a20,20,0,0,1,2.62-.94,46.65,46.65,0,0,1,5-1c3-.47,5.14-.91,5.14-.91s-2.15,0-5.22.32a25.13,25.13,0,0,0-5.13,1,13.42,13.42,0,0,0-2.63,1.18,11.08,11.08,0,0,0-1.19.84A10.83,10.83,0,0,0,141.89,165Z"/><path d="M142.1,161.79c2.46-.91,5-1.77,7.07-2.29,1-.27,1.89-.46,2.51-.59l1-.2s-.37,0-1,0a17.15,17.15,0,0,0-2.62.23,16.72,16.72,0,0,0-3.48,1A14.14,14.14,0,0,0,142.1,161.79Z"/><path d="M142.44,158.87a42.74,42.74,0,0,0,4.48-1.28c1.25-.41,2.13-.73,2.13-.73a9.82,9.82,0,0,0-2.27.15A9.72,9.72,0,0,0,142.44,158.87Z"/><path d="M142.62,155.62a8.72,8.72,0,0,0,2.61-.54c.7-.24,1.21-.47,1.21-.47a3.92,3.92,0,0,0-1.33-.11A3.75,3.75,0,0,0,142.62,155.62Z"/><path d="M142.62,152.6a8.12,8.12,0,0,0,2.89-.45,12.9,12.9,0,0,0,1.34-.52,5.48,5.48,0,0,0-1.45-.06A5.06,5.06,0,0,0,142.62,152.6Z"/><path d="M142.83,149a4,4,0,0,0,3.21,0A4,4,0,0,0,142.83,149Z"/><path d="M150.54,129.79c.22-.81.41-1.62.67-2.43s.52-1.6.78-2.4.56-1.59.88-2.36.6-1.55.92-2.31c1.26-3,2.58-5.89,3.81-8.31s2.37-4.44,3.24-5.82c.44-.68.79-1.23,1.06-1.57l.4-.56-.45.51c-.3.33-.7.84-1.2,1.49a54.28,54.28,0,0,0-3.58,5.67,70.39,70.39,0,0,0-3.9,8.34c-.3.77-.58,1.56-.85,2.36s-.51,1.61-.76,2.42-.45,1.64-.6,2.48S150.66,129,150.54,129.79Z"/><path d="M301,168.13c-.58-.35-1.19-.67-1.82-1a20.47,20.47,0,0,0-1.93-.78,27,27,0,0,0-4-1,44.32,44.32,0,0,0-7.48-.59,39.14,39.14,0,0,0-5.46.25,12,12,0,0,0-2.06.45,15,15,0,0,1,2.08-.23c1.32-.08,3.2,0,5.42.12s4.76.27,7.4.66a35.33,35.33,0,0,1,4,.8c.66.17,1.32.37,2,.58S300.33,167.87,301,168.13Z"/><path d="M298.82,164.41a21.85,21.85,0,0,0-4.57-1.57,24.74,24.74,0,0,0-7.59-.49c-.78.07-1.23.14-1.23.14l1.24.08c.77.05,1.87.14,3.16.3C292.4,163.15,295.69,163.75,298.82,164.41Z"/><path d="M296.09,161.6a8.36,8.36,0,0,0-4.54-1.47,8.53,8.53,0,0,0-2.3.2l2.24.39C292.8,161,294.43,161.33,296.09,161.6Z"/><path d="M293.47,157.39a17.13,17.13,0,0,0-6.63-1.36A17.09,17.09,0,0,0,293.47,157.39Z"/><path d="M291.25,154.45a7.73,7.73,0,0,0-3.88-1,8.12,8.12,0,0,0-1.94.18s.79.2,1.88.41A21.54,21.54,0,0,0,291.25,154.45Z"/><path d="M248.47,170.37a28.67,28.67,0,0,0-6.85-3.58,29.53,29.53,0,0,0-3.54-1.06,32.43,32.43,0,0,0-3.32-.59,29.24,29.24,0,0,0-5.12-.21c-.63,0-1.12.06-1.46.09l-.51,0,.52,0c.33,0,.83,0,1.45.06a42.88,42.88,0,0,1,5,.58c1,.18,2.12.39,3.25.68s2.3.61,3.48,1A52.83,52.83,0,0,1,248.47,170.37Z"/><path d="M247.1,166.76a11.32,11.32,0,0,0-1.81-1.64,13.88,13.88,0,0,0-2.1-1.23,20.4,20.4,0,0,0-4.19-1.4c-1.28-.28-2.37-.44-3.15-.54l-1.22-.14,4.22,1.26a41.9,41.9,0,0,1,4.07,1.43A22.61,22.61,0,0,1,247.1,166.76Z"/><path d="M245.76,162.37a15.74,15.74,0,0,0-6.49-2.77,17.58,17.58,0,0,0-2.44-.29c-.6,0-1,0-1,0l.91.24c.58.15,1.4.36,2.34.65C241,160.73,243.43,161.57,245.76,162.37Z"/><path d="M243.71,157.82a44.53,44.53,0,0,0-6.07-1.47c-1.73-.31-3-.47-3-.47a21.5,21.5,0,0,0,2.84,1.05A19.46,19.46,0,0,0,243.71,157.82Z"/><path d="M241.9,153.86a18.23,18.23,0,0,0-5-1.16,20.35,20.35,0,0,0-2.45-.12,24.28,24.28,0,0,0,2.35.71A18.69,18.69,0,0,0,241.9,153.86Z"/><path d="M239.49,149.65a9.74,9.74,0,0,0-5-.79A9.76,9.76,0,0,0,239.49,149.65Z"/><path d="M276.24,140a195.77,195.77,0,0,0-15.65-12.2c-5.32-3.73-10.57-7-15.22-9.75s-8.68-4.85-11.59-6.22c-1.46-.68-2.63-1.17-3.44-1.48l-1.25-.47,1.22.53c.8.35,1.95.88,3.37,1.62,2.85,1.47,6.79,3.76,11.38,6.53s9.8,6.13,15.15,9.78S271,136,276.24,140Z"/><path d="M220.74,124.85c-1-.94-1.91-1.92-2.92-2.84s-2-1.85-3-2.74-2.1-1.76-3.18-2.59-2.15-1.65-3.24-2.42-2.19-1.5-3.26-2.23-2.17-1.4-3.25-2c-2.14-1.3-4.25-2.41-6.22-3.41s-3.84-1.84-5.51-2.56l-2.36-1c-.73-.3-1.42-.54-2-.77-1.23-.47-2.23-.79-2.9-1l-1-.35,1,.41c.66.27,1.63.64,2.84,1.16.6.27,1.28.53,2,.87l2.31,1c1.64.78,3.47,1.67,5.41,2.7s4,2.19,6.13,3.49c1.07.62,2.13,1.33,3.22,2s2.19,1.42,3.27,2.19,2.18,1.54,3.27,2.34,2.16,1.63,3.24,2.47,2.14,1.7,3.17,2.58S219.71,124,220.74,124.85Z"/></g><g id="Layer_3" data-name="Layer 3"><g id="fills"><path class="cls-13" d="M166.79,27.58s-5.92,8.86-5.92,14.34c0,5.9,5.92,5.9,5.92,5.9s5.92,0,5.92-5.9C172.71,36.44,166.79,27.58,166.79,27.58Z"/><path class="cls-13" d="M37.26,103.39s-5.93,8.86-5.93,14.33c0,5.91,5.93,5.91,5.93,5.91s5.92,0,5.92-5.91C43.18,112.25,37.26,103.39,37.26,103.39Z"/><path class="cls-13" d="M77.24,28s-5.92,8.86-5.92,14.34c0,5.9,5.92,5.9,5.92,5.9s5.92,0,5.92-5.9C83.16,36.9,77.24,28,77.24,28Z"/><path class="cls-13" d="M142.44.05s-5.92,8.86-5.92,14.33c0,5.91,5.92,5.91,5.92,5.91s5.92,0,5.92-5.91C148.36,8.91,142.44.05,142.44.05Z"/><path class="cls-13" d="M102.87,66.43S97,75.29,97,80.76c0,5.9,5.92,5.9,5.92,5.9s5.92,0,5.92-5.9C108.79,75.29,102.87,66.43,102.87,66.43Z"/><path class="cls-13" d="M80.05,208.37s-5.92,8.86-5.92,14.33c0,5.9,5.92,5.9,5.92,5.9s5.93,0,5.93-5.9C86,217.23,80.05,208.37,80.05,208.37Z"/><path class="cls-13" d="M146.85,271.49s-5.93,8.86-5.93,14.33c0,5.91,5.93,5.91,5.93,5.91s5.92,0,5.92-5.91C152.77,280.35,146.85,271.49,146.85,271.49Z"/><path class="cls-13" d="M24.17,262.39s-5.92,8.86-5.92,14.34c0,5.9,5.92,5.9,5.92,5.9s5.93,0,5.93-5.9C30.1,271.25,24.17,262.39,24.17,262.39Z"/><path class="cls-13" d="M6.38,196S.46,204.89.46,210.36c0,5.9,5.92,5.9,5.92,5.9s5.92,0,5.92-5.9C12.3,204.89,6.38,196,6.38,196Z"/><path class="cls-13" d="M140.69,61s-4.19,6.28-4.19,10.15c0,4.18,4.19,4.18,4.19,4.18s4.2,0,4.2-4.18C144.89,67.23,140.69,61,140.69,61Z"/><path class="cls-13" d="M68.66,79.5s-4.2,6.27-4.2,10.15c0,4.18,4.2,4.18,4.2,4.18s4.19,0,4.19-4.18C72.85,85.77,68.66,79.5,68.66,79.5Z"/><path class="cls-13" d="M38.13,232.64s-4.19,6.27-4.19,10.15c0,4.18,4.19,4.18,4.19,4.18s4.2,0,4.2-4.18C42.33,238.91,38.13,232.64,38.13,232.64Z"/><path class="cls-13" d="M113.15,188.91s-4.2,6.28-4.2,10.16c0,4.18,4.2,4.18,4.2,4.18s4.19,0,4.19-4.18C117.34,195.19,113.15,188.91,113.15,188.91Z"/><path class="cls-13" d="M48.14,186.9S44,193.18,44,197.05c0,4.19,4.19,4.19,4.19,4.19s4.2,0,4.2-4.19C52.34,193.18,48.14,186.9,48.14,186.9Z"/><path class="cls-13" d="M30.1,331.91s-4.2,6.27-4.2,10.15c0,4.18,4.2,4.18,4.2,4.18s4.19,0,4.19-4.18C34.29,338.18,30.1,331.91,30.1,331.91Z"/><path class="cls-13" d="M8.47,141.69s-4.2,6.28-4.2,10.16c0,4.18,4.2,4.18,4.2,4.18s4.19,0,4.19-4.18C12.66,148,8.47,141.69,8.47,141.69Z"/><path class="cls-13" d="M115.17,28S111,34.28,111,38.15c0,4.19,4.19,4.19,4.19,4.19s4.2,0,4.2-4.19C119.37,34.28,115.17,28,115.17,28Z"/><path class="cls-13" d="M39.69,61.45S35.5,67.73,35.5,71.6c0,4.18,4.19,4.18,4.19,4.18s4.2,0,4.2-4.18C43.89,67.73,39.69,61.45,39.69,61.45Z"/><path class="cls-13" d="M296.32,103.39s5.92,8.86,5.92,14.33c0,5.91-5.92,5.91-5.92,5.91s-5.92,0-5.92-5.91C290.4,112.25,296.32,103.39,296.32,103.39Z"/><path class="cls-13" d="M256.34,28s5.92,8.86,5.92,14.34c0,5.9-5.92,5.9-5.92,5.9s-5.92,0-5.92-5.9C250.42,36.9,256.34,28,256.34,28Z"/><path class="cls-13" d="M191.14.05s5.92,8.86,5.92,14.33c0,5.91-5.92,5.91-5.92,5.91s-5.93,0-5.93-5.91C185.21,8.91,191.14.05,191.14.05Z"/><path class="cls-13" d="M230.71,66.43s5.92,8.86,5.92,14.33c0,5.9-5.92,5.9-5.92,5.9s-5.93,0-5.93-5.9C224.78,75.29,230.71,66.43,230.71,66.43Z"/><path class="cls-13" d="M243.52,187.57s5.92,8.86,5.92,14.33c0,5.91-5.92,5.91-5.92,5.91s-5.92,0-5.92-5.91C237.6,196.43,243.52,187.57,243.52,187.57Z"/><path class="cls-13" d="M180.81,320.18s5.92,8.86,5.92,14.33c0,5.9-5.92,5.9-5.92,5.9s-5.92,0-5.92-5.9C174.89,329,180.81,320.18,180.81,320.18Z"/><path class="cls-13" d="M309.41,272.39s5.92,8.86,5.92,14.33c0,5.9-5.92,5.9-5.92,5.9s-5.93,0-5.93-5.9C303.48,281.25,309.41,272.39,309.41,272.39Z"/><path class="cls-13" d="M327.2,196s5.92,8.87,5.92,14.34c0,5.9-5.92,5.9-5.92,5.9s-5.92,0-5.92-5.9C321.28,204.89,327.2,196,327.2,196Z"/><path class="cls-13" d="M192.88,61s4.2,6.28,4.2,10.15c0,4.18-4.2,4.18-4.2,4.18s-4.19,0-4.19-4.18C188.69,67.23,192.88,61,192.88,61Z"/><path class="cls-13" d="M264.92,79.5s4.2,6.27,4.2,10.15c0,4.18-4.2,4.18-4.2,4.18s-4.2,0-4.2-4.18C260.72,85.77,264.92,79.5,264.92,79.5Z"/><path class="cls-13" d="M295.45,242.63s4.19,6.28,4.19,10.16c0,4.18-4.19,4.18-4.19,4.18s-4.2,0-4.2-4.18C291.25,248.91,295.45,242.63,295.45,242.63Z"/><path class="cls-13" d="M185.51,266.05s4.2,6.28,4.2,10.15c0,4.18-4.2,4.18-4.2,4.18s-4.2,0-4.2-4.18C181.31,272.33,185.51,266.05,185.51,266.05Z"/><path class="cls-13" d="M175.29,368.72s4.19,6.27,4.19,10.15c0,4.18-4.19,4.18-4.19,4.18s-4.2,0-4.2-4.18C171.09,375,175.29,368.72,175.29,368.72Z"/><path class="cls-13" d="M298.19,190s4.2,6.28,4.2,10.16c0,4.18-4.2,4.18-4.2,4.18s-4.2,0-4.2-4.18C294,196.23,298.19,190,298.19,190Z"/><path class="cls-13" d="M229.64,360.42s4.19,6.28,4.19,10.15c0,4.18-4.19,4.18-4.19,4.18s-4.2,0-4.2-4.18C225.44,366.7,229.64,360.42,229.64,360.42Z"/><path class="cls-13" d="M325.11,141.69s4.2,6.28,4.2,10.16c0,4.18-4.2,4.18-4.2,4.18s-4.2,0-4.2-4.18C320.91,148,325.11,141.69,325.11,141.69Z"/><path class="cls-13" d="M293.88,61.45s4.2,6.28,4.2,10.15c0,4.18-4.2,4.18-4.2,4.18s-4.19,0-4.19-4.18C289.69,67.73,293.88,61.45,293.88,61.45Z"/><path class="cls-13" d="M218.4,28s4.2,6.28,4.2,10.15c0,4.19-4.2,4.19-4.2,4.19s-4.19,0-4.19-4.19C214.21,34.28,218.4,28,218.4,28Z"/></g><g id="strokes"><path class="cls-14" d="M166.79,27.63c-2.61,5.43-10.73,18.58,0,19.74,10.74-1.15,2.7-14.32,0-19.74Zm0-.1c4.32,5.49,11.81,19.52,0,20.74-11.82-1.22-4.43-15.28,0-20.74Z"/><path class="cls-14" d="M162.26,40.55a2.47,2.47,0,0,0,2.32-.89A2.45,2.45,0,0,0,162.26,40.55Z"/><path class="cls-14" d="M162.09,42.63a5.26,5.26,0,0,0,3.5-1.24A5.31,5.31,0,0,0,162.09,42.63Z"/><path class="cls-14" d="M162.63,44.58a5.94,5.94,0,0,0,2.76-.92,7.46,7.46,0,0,0,1.14-.85,7.64,7.64,0,0,0-1.38.31A6,6,0,0,0,162.63,44.58Z"/><path class="cls-14" d="M164.31,46.16a6.45,6.45,0,0,0,3.57-2A6.43,6.43,0,0,0,164.31,46.16Z"/><path class="cls-14" d="M167.54,46.21a3.17,3.17,0,0,0,1.94-.85,4.28,4.28,0,0,0,.71-.78,4.64,4.64,0,0,0-1,.28A3.27,3.27,0,0,0,167.54,46.21Z"/><path class="cls-14" d="M162.92,38.41c.54.75,1-.09,1-.09S163.32,37.58,162.92,38.41Z"/><path class="cls-14" d="M37.26,103.44c-2.61,5.43-10.74,18.58,0,19.74,10.74-1.16,2.7-14.33,0-19.74Zm0-.1c4.32,5.48,11.81,19.51,0,20.73-11.82-1.21-4.43-15.27,0-20.73Z"/><path class="cls-14" d="M32.73,116.35a2.47,2.47,0,0,0,2.32-.88A2.46,2.46,0,0,0,32.73,116.35Z"/><path class="cls-14" d="M32.56,118.44a5.26,5.26,0,0,0,3.5-1.24A5.25,5.25,0,0,0,32.56,118.44Z"/><path class="cls-14" d="M33.1,120.39a6,6,0,0,0,2.75-.92,7.28,7.28,0,0,0,1.15-.85,7.21,7.21,0,0,0-1.39.3A6.08,6.08,0,0,0,33.1,120.39Z"/><path class="cls-14" d="M34.78,122a6.46,6.46,0,0,0,3.57-2A6.42,6.42,0,0,0,34.78,122Z"/><path class="cls-14" d="M38,122a3.26,3.26,0,0,0,2-.85,4,4,0,0,0,.7-.78,4.17,4.17,0,0,0-1,.28A3.3,3.3,0,0,0,38,122Z"/><path class="cls-14" d="M33.38,114.22c.55.74,1-.09,1-.09S33.78,113.39,33.38,114.22Z"/><path class="cls-14" d="M77.24,28.09c-2.61,5.43-10.73,18.58,0,19.74,10.74-1.16,2.7-14.33,0-19.74Zm0-.1c4.32,5.48,11.81,19.51,0,20.73-11.82-1.21-4.43-15.27,0-20.73Z"/><path class="cls-14" d="M72.71,41A2.45,2.45,0,0,0,75,40.12,2.46,2.46,0,0,0,72.71,41Z"/><path class="cls-14" d="M72.54,43.09A5.26,5.26,0,0,0,76,41.85,5.25,5.25,0,0,0,72.54,43.09Z"/><path class="cls-14" d="M73.08,45a6.05,6.05,0,0,0,2.76-.92A7.46,7.46,0,0,0,77,43.27a7,7,0,0,0-1.38.3A6.05,6.05,0,0,0,73.08,45Z"/><path class="cls-14" d="M74.76,46.61a6.46,6.46,0,0,0,3.57-2A6.45,6.45,0,0,0,74.76,46.61Z"/><path class="cls-14" d="M78,46.67a3.23,3.23,0,0,0,1.94-.85,4.28,4.28,0,0,0,.71-.78,4.05,4.05,0,0,0-1,.28A3.22,3.22,0,0,0,78,46.67Z"/><path class="cls-14" d="M73.37,38.87c.54.74,1-.09,1-.09S73.77,38,73.37,38.87Z"/><path class="cls-14" d="M142.44.1c-2.61,5.43-10.73,18.58,0,19.74,10.75-1.16,2.7-14.33,0-19.74Zm0-.1c4.32,5.48,11.81,19.51,0,20.73C130.62,19.52,138,5.46,142.44,0Z"/><path class="cls-14" d="M137.91,13a2.45,2.45,0,0,0,2.32-.88A2.47,2.47,0,0,0,137.91,13Z"/><path class="cls-14" d="M137.74,15.1a5.32,5.32,0,0,0,3.5-1.24A5.25,5.25,0,0,0,137.74,15.1Z"/><path class="cls-14" d="M138.28,17.05a6.17,6.17,0,0,0,2.76-.92,7.46,7.46,0,0,0,1.14-.85,7,7,0,0,0-1.38.3A6.05,6.05,0,0,0,138.28,17.05Z"/><path class="cls-14" d="M140,18.62a6.45,6.45,0,0,0,3.57-2.05A6.5,6.5,0,0,0,140,18.62Z"/><path class="cls-14" d="M143.19,18.68a3.29,3.29,0,0,0,1.95-.85,4.43,4.43,0,0,0,.7-.78,4.05,4.05,0,0,0-1,.28A3.17,3.17,0,0,0,143.19,18.68Z"/><path class="cls-14" d="M138.57,10.88c.54.74,1-.09,1-.09S139,10,138.57,10.88Z"/><path class="cls-14" d="M102.87,66.48c-2.61,5.43-10.73,18.58,0,19.74,10.75-1.16,2.7-14.33,0-19.74Zm0-.1c4.33,5.48,11.81,19.51,0,20.73-11.81-1.22-4.42-15.27,0-20.73Z"/><path class="cls-14" d="M98.34,79.39a2.47,2.47,0,0,0,2.33-.88A2.48,2.48,0,0,0,98.34,79.39Z"/><path class="cls-14" d="M98.17,81.48a5.3,5.3,0,0,0,3.5-1.25A5.29,5.29,0,0,0,98.17,81.48Z"/><path class="cls-14" d="M98.72,83.43a6.06,6.06,0,0,0,2.75-.93,7.51,7.51,0,0,0,1.15-.84,7.05,7.05,0,0,0-1.39.3A6,6,0,0,0,98.72,83.43Z"/><path class="cls-14" d="M100.39,85A6.41,6.41,0,0,0,104,83,6.5,6.5,0,0,0,100.39,85Z"/><path class="cls-14" d="M103.62,85.06a3.35,3.35,0,0,0,1.95-.85,4,4,0,0,0,.7-.78,4.05,4.05,0,0,0-1,.28A3.17,3.17,0,0,0,103.62,85.06Z"/><path class="cls-14" d="M99,77.25c.54.75,1-.09,1-.09S99.4,76.42,99,77.25Z"/><path class="cls-14" d="M80.05,208.42c-2.61,5.43-10.73,18.58,0,19.74,10.75-1.16,2.71-14.33,0-19.74Zm0-.1c4.33,5.48,11.81,19.51,0,20.73-11.81-1.22-4.42-15.28,0-20.73Z"/><path class="cls-14" d="M75.52,221.33a2.47,2.47,0,0,0,2.33-.88A2.48,2.48,0,0,0,75.52,221.33Z"/><path class="cls-14" d="M75.35,223.42a5.3,5.3,0,0,0,3.5-1.25A5.29,5.29,0,0,0,75.35,223.42Z"/><path class="cls-14" d="M75.9,225.37a6,6,0,0,0,2.75-.93,8.4,8.4,0,0,0,1.15-.84,7.05,7.05,0,0,0-1.39.3A6,6,0,0,0,75.9,225.37Z"/><path class="cls-14" d="M77.57,226.94a6.41,6.41,0,0,0,3.57-2.05A6.5,6.5,0,0,0,77.57,226.94Z"/><path class="cls-14" d="M80.8,227a3.35,3.35,0,0,0,2-.85,4,4,0,0,0,.7-.78,4.05,4.05,0,0,0-1,.28A3.17,3.17,0,0,0,80.8,227Z"/><path class="cls-14" d="M76.18,219.19c.54.75,1-.09,1-.09S76.58,218.36,76.18,219.19Z"/><path class="cls-14" d="M146.85,271.54c-2.61,5.43-10.74,18.58,0,19.74,10.75-1.16,2.71-14.33,0-19.74Zm0-.1c4.32,5.48,11.81,19.51,0,20.73-11.81-1.21-4.42-15.27,0-20.73Z"/><path class="cls-14" d="M142.31,284.45a2.47,2.47,0,0,0,2.33-.88A2.48,2.48,0,0,0,142.31,284.45Z"/><path class="cls-14" d="M142.14,286.54a5.33,5.33,0,0,0,3.51-1.24A5.29,5.29,0,0,0,142.14,286.54Z"/><path class="cls-14" d="M142.69,288.49a6.13,6.13,0,0,0,2.75-.92,7.28,7.28,0,0,0,1.15-.85,7.05,7.05,0,0,0-1.39.3A6,6,0,0,0,142.69,288.49Z"/><path class="cls-14" d="M144.37,290.06a6.4,6.4,0,0,0,3.56-2.05A6.45,6.45,0,0,0,144.37,290.06Z"/><path class="cls-14" d="M147.59,290.12a3.29,3.29,0,0,0,1.95-.85,4,4,0,0,0,.7-.78,4.17,4.17,0,0,0-1,.28A3.21,3.21,0,0,0,147.59,290.12Z"/><path class="cls-14" d="M143,282.32c.54.74,1-.1,1-.1S143.37,281.48,143,282.32Z"/><path class="cls-14" d="M24.17,262.44c-2.61,5.43-10.73,18.58,0,19.74,10.75-1.16,2.7-14.33,0-19.74Zm0-.1c4.33,5.48,11.81,19.51,0,20.73-11.81-1.21-4.42-15.27,0-20.73Z"/><path class="cls-14" d="M19.64,275.35a2.47,2.47,0,0,0,2.33-.88A2.48,2.48,0,0,0,19.64,275.35Z"/><path class="cls-14" d="M19.47,277.44A5.26,5.26,0,0,0,23,276.2,5.25,5.25,0,0,0,19.47,277.44Z"/><path class="cls-14" d="M20,279.39a6,6,0,0,0,2.75-.92,7.93,7.93,0,0,0,1.15-.85,7.05,7.05,0,0,0-1.39.3A6,6,0,0,0,20,279.39Z"/><path class="cls-14" d="M21.69,281a6.42,6.42,0,0,0,3.57-2A6.45,6.45,0,0,0,21.69,281Z"/><path class="cls-14" d="M24.92,281a3.23,3.23,0,0,0,1.95-.85,4,4,0,0,0,.7-.78,4.05,4.05,0,0,0-1,.28A3.22,3.22,0,0,0,24.92,281Z"/><path class="cls-14" d="M20.3,273.22c.54.74,1-.09,1-.09S20.7,272.39,20.3,273.22Z"/><path class="cls-14" d="M6.38,196.07c-2.61,5.43-10.73,18.59,0,19.74,10.74-1.15,2.7-14.32,0-19.74Zm0-.1c4.32,5.49,11.81,19.52,0,20.74C-5.44,215.49,2,201.43,6.38,196Z"/><path class="cls-14" d="M1.85,209a2.47,2.47,0,0,0,2.32-.89A2.45,2.45,0,0,0,1.85,209Z"/><path class="cls-14" d="M1.68,211.07a5.26,5.26,0,0,0,3.5-1.24A5.31,5.31,0,0,0,1.68,211.07Z"/><path class="cls-14" d="M2.22,213A5.94,5.94,0,0,0,5,212.1a7.46,7.46,0,0,0,1.14-.85,7.64,7.64,0,0,0-1.38.31A6,6,0,0,0,2.22,213Z"/><path class="cls-14" d="M3.9,214.6a6.45,6.45,0,0,0,3.57-2A6.43,6.43,0,0,0,3.9,214.6Z"/><path class="cls-14" d="M7.13,214.65a3.17,3.17,0,0,0,1.94-.85,3.93,3.93,0,0,0,.71-.78,4.64,4.64,0,0,0-1,.28A3.27,3.27,0,0,0,7.13,214.65Z"/><path class="cls-14" d="M2.51,206.85c.54.75,1-.09,1-.09S2.91,206,2.51,206.85Z"/><path class="cls-14" d="M140.69,61c-1.6,3.83-7.43,13,0,13.84,7.45-.82,1.69-10,0-13.84Zm0-.1c3.33,3.87,8.48,14,0,14.83-8.48-.86-3.43-11,0-14.83Z"/><path class="cls-14" d="M137.48,70.13a1.33,1.33,0,0,0,1.65-.62A1.33,1.33,0,0,0,137.48,70.13Z"/><path class="cls-14" d="M137.36,71.61a2.75,2.75,0,0,0,2.48-.88A2.74,2.74,0,0,0,137.36,71.61Z"/><path class="cls-14" d="M137.75,73a3.09,3.09,0,0,0,2-.57,4,4,0,0,0,.78-.68,3.73,3.73,0,0,0-1,.13A3.07,3.07,0,0,0,137.75,73Z"/><path class="cls-14" d="M138.94,74.1a3.31,3.31,0,0,0,2.52-1.45A3.33,3.33,0,0,0,138.94,74.1Z"/><path class="cls-14" d="M141.22,74.15a1.77,1.77,0,0,0,1.43-.53,2.3,2.3,0,0,0,.45-.63,2.44,2.44,0,0,0-.77.13A1.7,1.7,0,0,0,141.22,74.15Z"/><path class="cls-14" d="M138,68.62c.4.76.72-.07.72-.07S138.21,67.8,138,68.62Z"/><path class="cls-14" d="M68.66,79.55c-1.6,3.83-7.43,13,0,13.83,7.44-.81,1.69-10,0-13.83Zm0-.1c3.33,3.87,8.47,14,0,14.83-8.48-.86-3.43-11,0-14.83Z"/><path class="cls-14" d="M65.45,88.68a1.33,1.33,0,0,0,1.65-.63A1.34,1.34,0,0,0,65.45,88.68Z"/><path class="cls-14" d="M65.33,90.16a2.76,2.76,0,0,0,2.48-.88A2.73,2.73,0,0,0,65.33,90.16Z"/><path class="cls-14" d="M65.71,91.54a3.14,3.14,0,0,0,2-.58,4,4,0,0,0,.78-.68,4.09,4.09,0,0,0-1,.14A3.14,3.14,0,0,0,65.71,91.54Z"/><path class="cls-14" d="M66.9,92.65a3.32,3.32,0,0,0,2.53-1.45A3.35,3.35,0,0,0,66.9,92.65Z"/><path class="cls-14" d="M69.19,92.69a1.68,1.68,0,0,0,1.42-.53,2,2,0,0,0,.45-.62,2.52,2.52,0,0,0-.76.12A1.73,1.73,0,0,0,69.19,92.69Z"/><path class="cls-14" d="M65.91,87.17c.41.75.72-.07.72-.07S66.18,86.35,65.91,87.17Z"/><path class="cls-14" d="M38.13,232.69c-1.6,3.83-7.43,13,0,13.83,7.44-.81,1.69-10,0-13.83Zm0-.1c3.33,3.87,8.48,14,0,14.83-8.48-.86-3.43-11,0-14.83Z"/><path class="cls-14" d="M34.92,241.82a1.33,1.33,0,0,0,1.65-.63A1.34,1.34,0,0,0,34.92,241.82Z"/><path class="cls-14" d="M34.8,243.3a2.75,2.75,0,0,0,2.48-.88A2.74,2.74,0,0,0,34.8,243.3Z"/><path class="cls-14" d="M35.19,244.68a3.09,3.09,0,0,0,2-.58,4,4,0,0,0,.78-.68,4.13,4.13,0,0,0-1,.14A3.08,3.08,0,0,0,35.19,244.68Z"/><path class="cls-14" d="M36.38,245.79a3.31,3.31,0,0,0,2.52-1.45A3.32,3.32,0,0,0,36.38,245.79Z"/><path class="cls-14" d="M38.66,245.83a1.71,1.71,0,0,0,1.43-.53,2.19,2.19,0,0,0,.45-.62,2.6,2.6,0,0,0-.77.12A1.76,1.76,0,0,0,38.66,245.83Z"/><path class="cls-14" d="M35.39,240.31c.4.75.71-.07.71-.07S35.65,239.49,35.39,240.31Z"/><path class="cls-14" d="M113.15,189c-1.6,3.84-7.43,13,0,13.84,7.44-.81,1.69-10,0-13.84Zm0-.1c3.33,3.88,8.47,14,0,14.84-8.48-.86-3.43-11,0-14.84Z"/><path class="cls-14" d="M109.94,198.1a1.33,1.33,0,0,0,1.64-.63A1.33,1.33,0,0,0,109.94,198.1Z"/><path class="cls-14" d="M109.82,199.58a2.76,2.76,0,0,0,2.48-.89A2.75,2.75,0,0,0,109.82,199.58Z"/><path class="cls-14" d="M110.2,201a3.14,3.14,0,0,0,2-.58,4.43,4.43,0,0,0,.78-.68,4.09,4.09,0,0,0-1,.14A3.14,3.14,0,0,0,110.2,201Z"/><path class="cls-14" d="M111.39,202.07a3.32,3.32,0,0,0,2.53-1.45A3.35,3.35,0,0,0,111.39,202.07Z"/><path class="cls-14" d="M113.68,202.11a1.68,1.68,0,0,0,1.42-.53,2.35,2.35,0,0,0,.45-.62,2.6,2.6,0,0,0-.77.12A1.72,1.72,0,0,0,113.68,202.11Z"/><path class="cls-14" d="M110.4,196.58c.41.76.72-.06.72-.06S110.67,195.76,110.4,196.58Z"/><path class="cls-14" d="M48.14,187c-1.6,3.84-7.42,13,0,13.84,7.45-.81,1.69-10,0-13.84Zm0-.1c3.33,3.87,8.48,14,0,14.83-8.48-.86-3.43-11,0-14.83Z"/><path class="cls-14" d="M44.93,196.08a1.33,1.33,0,0,0,1.65-.62A1.33,1.33,0,0,0,44.93,196.08Z"/><path class="cls-14" d="M44.81,197.56a2.75,2.75,0,0,0,2.49-.88A2.76,2.76,0,0,0,44.81,197.56Z"/><path class="cls-14" d="M45.2,198.94a3.08,3.08,0,0,0,2-.57,4.13,4.13,0,0,0,.77-.68,3.73,3.73,0,0,0-1,.13A3.07,3.07,0,0,0,45.2,198.94Z"/><path class="cls-14" d="M46.39,200.06a3.37,3.37,0,0,0,2.53-1.45A3.31,3.31,0,0,0,46.39,200.06Z"/><path class="cls-14" d="M48.67,200.1a1.77,1.77,0,0,0,1.43-.53,2.3,2.3,0,0,0,.45-.63,2.44,2.44,0,0,0-.77.13A1.7,1.7,0,0,0,48.67,200.1Z"/><path class="cls-14" d="M45.4,194.57c.4.76.72-.07.72-.07S45.66,193.75,45.4,194.57Z"/><path class="cls-14" d="M30.1,332c-1.6,3.83-7.43,13,0,13.83,7.44-.81,1.69-10,0-13.83Zm0-.1c3.33,3.87,8.47,14,0,14.83-8.48-.86-3.44-11,0-14.83Z"/><path class="cls-14" d="M26.89,341.09a1.32,1.32,0,0,0,1.64-.63A1.32,1.32,0,0,0,26.89,341.09Z"/><path class="cls-14" d="M26.77,342.57a2.76,2.76,0,0,0,2.48-.88A2.73,2.73,0,0,0,26.77,342.57Z"/><path class="cls-14" d="M27.15,344a3.14,3.14,0,0,0,2-.58,4.13,4.13,0,0,0,.77-.68,4,4,0,0,0-1,.14A3.11,3.11,0,0,0,27.15,344Z"/><path class="cls-14" d="M28.34,345.06a3.32,3.32,0,0,0,2.53-1.45A3.35,3.35,0,0,0,28.34,345.06Z"/><path class="cls-14" d="M30.62,345.1a1.69,1.69,0,0,0,1.43-.53,2.19,2.19,0,0,0,.45-.62,2.6,2.6,0,0,0-.77.12A1.76,1.76,0,0,0,30.62,345.1Z"/><path class="cls-14" d="M27.35,339.57c.41.76.72-.06.72-.06S27.62,338.76,27.35,339.57Z"/><path class="cls-14" d="M8.47,141.74c-1.6,3.84-7.43,13,0,13.84,7.44-.81,1.69-10,0-13.84Zm0-.1c3.33,3.88,8.47,14,0,14.84-8.48-.86-3.43-11,0-14.84Z"/><path class="cls-14" d="M5.26,150.87a1.33,1.33,0,0,0,1.65-.62A1.33,1.33,0,0,0,5.26,150.87Z"/><path class="cls-14" d="M5.14,152.35a2.74,2.74,0,0,0,2.48-.88A2.76,2.76,0,0,0,5.14,152.35Z"/><path class="cls-14" d="M5.52,153.74a3.14,3.14,0,0,0,2-.58,4,4,0,0,0,.78-.68,4.09,4.09,0,0,0-1,.14A3.14,3.14,0,0,0,5.52,153.74Z"/><path class="cls-14" d="M6.71,154.85a3.32,3.32,0,0,0,2.53-1.45A3.31,3.31,0,0,0,6.71,154.85Z"/><path class="cls-14" d="M9,154.89a1.68,1.68,0,0,0,1.42-.53,2.35,2.35,0,0,0,.45-.62,2.6,2.6,0,0,0-.77.12A1.72,1.72,0,0,0,9,154.89Z"/><path class="cls-14" d="M5.72,149.36c.41.76.72-.06.72-.06S6,148.54,5.72,149.36Z"/><path class="cls-14" d="M115.17,28.05c-1.6,3.84-7.43,13,0,13.84,7.45-.81,1.69-10,0-13.84Zm0-.1c3.33,3.87,8.48,14,0,14.83-8.48-.86-3.43-11,0-14.83Z"/><path class="cls-14" d="M112,37.18a1.33,1.33,0,0,0,1.65-.62A1.33,1.33,0,0,0,112,37.18Z"/><path class="cls-14" d="M111.84,38.66a2.72,2.72,0,0,0,2.48-.88A2.74,2.74,0,0,0,111.84,38.66Z"/><path class="cls-14" d="M112.23,40a3,3,0,0,0,2-.57,4,4,0,0,0,.78-.68,3.73,3.73,0,0,0-1,.13A3.07,3.07,0,0,0,112.23,40Z"/><path class="cls-14" d="M113.42,41.16a3.34,3.34,0,0,0,2.52-1.45A3.3,3.3,0,0,0,113.42,41.16Z"/><path class="cls-14" d="M115.7,41.2a1.77,1.77,0,0,0,1.43-.53,2.3,2.3,0,0,0,.45-.63,2.44,2.44,0,0,0-.77.13A1.7,1.7,0,0,0,115.7,41.2Z"/><path class="cls-14" d="M112.43,35.67c.4.76.71-.06.71-.06S112.69,34.85,112.43,35.67Z"/><path class="cls-14" d="M39.69,61.5c-1.6,3.84-7.42,13,0,13.84,7.45-.81,1.7-10,0-13.84Zm0-.1c3.34,3.87,8.48,14,0,14.83-8.48-.86-3.43-11,0-14.83Z"/><path class="cls-14" d="M36.48,70.63A1.33,1.33,0,0,0,38.13,70,1.33,1.33,0,0,0,36.48,70.63Z"/><path class="cls-14" d="M36.36,72.11a2.75,2.75,0,0,0,2.49-.88A2.76,2.76,0,0,0,36.36,72.11Z"/><path class="cls-14" d="M36.75,73.49a3.08,3.08,0,0,0,2-.57,4.13,4.13,0,0,0,.77-.68,3.73,3.73,0,0,0-1,.13A3.07,3.07,0,0,0,36.75,73.49Z"/><path class="cls-14" d="M37.94,74.61a3.37,3.37,0,0,0,2.53-1.45A3.31,3.31,0,0,0,37.94,74.61Z"/><path class="cls-14" d="M40.22,74.65a1.77,1.77,0,0,0,1.43-.53,2.3,2.3,0,0,0,.45-.63,2.44,2.44,0,0,0-.77.13A1.7,1.7,0,0,0,40.22,74.65Z"/><path class="cls-14" d="M37,69.12c.41.76.72-.07.72-.07S37.21,68.3,37,69.12Z"/><path class="cls-14" d="M296.32,103.34c4.43,5.45,11.82,19.52,0,20.73-11.81-1.22-4.33-15.24,0-20.73Zm0,.1c-2.7,5.4-10.74,18.59,0,19.74,10.73-1.17,2.61-14.3,0-19.74Z"/><path class="cls-14" d="M300.85,116.35a2.46,2.46,0,0,0-2.32-.88A2.45,2.45,0,0,0,300.85,116.35Z"/><path class="cls-14" d="M301,118.44a5.25,5.25,0,0,0-3.5-1.24A5.26,5.26,0,0,0,301,118.44Z"/><path class="cls-14" d="M300.48,120.39a6.05,6.05,0,0,0-2.52-1.47,7,7,0,0,0-1.38-.3,7.46,7.46,0,0,0,1.14.85A6.05,6.05,0,0,0,300.48,120.39Z"/><path class="cls-14" d="M298.8,122a6.42,6.42,0,0,0-3.57-2A6.46,6.46,0,0,0,298.8,122Z"/><path class="cls-14" d="M295.58,122a3.28,3.28,0,0,0-1.64-1.35,4,4,0,0,0-1-.28,4,4,0,0,0,.7.78A3.23,3.23,0,0,0,295.58,122Z"/><path class="cls-14" d="M300.19,114.22c-.4-.83-1-.09-1-.09S299.65,115,300.19,114.22Z"/><path class="cls-14" d="M256.34,28c4.42,5.45,11.81,19.52,0,20.73-11.81-1.22-4.33-15.24,0-20.73Zm0,.1c-2.7,5.4-10.75,18.59,0,19.74,10.73-1.17,2.61-14.3,0-19.74Z"/><path class="cls-14" d="M260.87,41a2.48,2.48,0,0,0-2.33-.88A2.47,2.47,0,0,0,260.87,41Z"/><path class="cls-14" d="M261,43.09a5.25,5.25,0,0,0-3.5-1.24A5.26,5.26,0,0,0,261,43.09Z"/><path class="cls-14" d="M260.49,45A6,6,0,0,0,258,43.57a7.05,7.05,0,0,0-1.39-.3,7.93,7.93,0,0,0,1.15.85A6.05,6.05,0,0,0,260.49,45Z"/><path class="cls-14" d="M258.82,46.61a6.45,6.45,0,0,0-3.57-2A6.42,6.42,0,0,0,258.82,46.61Z"/><path class="cls-14" d="M255.59,46.67A3.22,3.22,0,0,0,254,45.32a4.05,4.05,0,0,0-1-.28,4,4,0,0,0,.7.78A3.29,3.29,0,0,0,255.59,46.67Z"/><path class="cls-14" d="M260.21,38.87c-.4-.83-1-.09-1-.09S259.67,39.61,260.21,38.87Z"/><path class="cls-14" d="M191.14,0c4.42,5.45,11.81,19.52,0,20.73-11.81-1.22-4.33-15.24,0-20.73Zm0,.1c-2.7,5.4-10.75,18.59,0,19.74,10.73-1.17,2.61-14.3,0-19.74Z"/><path class="cls-14" d="M195.67,13a2.48,2.48,0,0,0-2.33-.88A2.47,2.47,0,0,0,195.67,13Z"/><path class="cls-14" d="M195.84,15.1a5.27,5.27,0,0,0-3.51-1.24A5.36,5.36,0,0,0,195.84,15.1Z"/><path class="cls-14" d="M195.29,17.05a6,6,0,0,0-2.51-1.47,7.05,7.05,0,0,0-1.39-.3,7.93,7.93,0,0,0,1.15.85A6.13,6.13,0,0,0,195.29,17.05Z"/><path class="cls-14" d="M193.61,18.62a6.45,6.45,0,0,0-3.56-2.05A6.4,6.4,0,0,0,193.61,18.62Z"/><path class="cls-14" d="M190.39,18.68a3.17,3.17,0,0,0-1.63-1.35,4.17,4.17,0,0,0-1-.28,4,4,0,0,0,.7.78A3.29,3.29,0,0,0,190.39,18.68Z"/><path class="cls-14" d="M195,10.88c-.4-.84-1-.09-1-.09S194.47,11.62,195,10.88Z"/><path class="cls-14" d="M230.71,66.38c4.42,5.45,11.81,19.52,0,20.73-11.82-1.23-4.33-15.24,0-20.73Zm0,.1c-2.7,5.4-10.75,18.59,0,19.74,10.73-1.17,2.61-14.3,0-19.74Z"/><path class="cls-14" d="M235.24,79.39a2.48,2.48,0,0,0-2.33-.88A2.47,2.47,0,0,0,235.24,79.39Z"/><path class="cls-14" d="M235.41,81.48a5.32,5.32,0,0,0-3.51-1.25A5.31,5.31,0,0,0,235.41,81.48Z"/><path class="cls-14" d="M234.86,83.43A6,6,0,0,0,232.35,82a7.05,7.05,0,0,0-1.39-.3,6.92,6.92,0,0,0,1.15.84A6,6,0,0,0,234.86,83.43Z"/><path class="cls-14" d="M233.18,85a6.45,6.45,0,0,0-3.56-2A6.4,6.4,0,0,0,233.18,85Z"/><path class="cls-14" d="M230,85.06a3.21,3.21,0,0,0-1.63-1.35,4.17,4.17,0,0,0-1-.28,4,4,0,0,0,.7.78A3.35,3.35,0,0,0,230,85.06Z"/><path class="cls-14" d="M234.58,77.25c-.4-.83-1-.09-1-.09S234,78,234.58,77.25Z"/><path class="cls-14" d="M243.52,187.52c4.42,5.45,11.82,19.52,0,20.73-11.81-1.22-4.33-15.24,0-20.73Zm0,.1c-2.7,5.4-10.74,18.59,0,19.74,10.73-1.17,2.61-14.3,0-19.74Z"/><path class="cls-14" d="M248.05,200.53a2.46,2.46,0,0,0-2.32-.88A2.45,2.45,0,0,0,248.05,200.53Z"/><path class="cls-14" d="M248.22,202.62a5.25,5.25,0,0,0-3.5-1.24A5.32,5.32,0,0,0,248.22,202.62Z"/><path class="cls-14" d="M247.68,204.57a6.05,6.05,0,0,0-2.52-1.47,7,7,0,0,0-1.38-.3,7.46,7.46,0,0,0,1.14.85A6.17,6.17,0,0,0,247.68,204.57Z"/><path class="cls-14" d="M246,206.14a6.47,6.47,0,0,0-3.57-2A6.45,6.45,0,0,0,246,206.14Z"/><path class="cls-14" d="M242.77,206.2a3.17,3.17,0,0,0-1.63-1.35,4.05,4.05,0,0,0-1-.28,4.28,4.28,0,0,0,.71.78A3.23,3.23,0,0,0,242.77,206.2Z"/><path class="cls-14" d="M247.39,198.4c-.4-.84-1-.09-1-.09S246.85,199.14,247.39,198.4Z"/><path class="cls-14" d="M180.81,320.13c4.42,5.45,11.81,19.52,0,20.73-11.81-1.23-4.33-15.24,0-20.73Zm0,.1c-2.7,5.4-10.75,18.58,0,19.73,10.73-1.16,2.61-14.29,0-19.73Z"/><path class="cls-14" d="M185.34,333.14a2.47,2.47,0,0,0-2.33-.89A2.5,2.5,0,0,0,185.34,333.14Z"/><path class="cls-14" d="M185.51,335.23A5.29,5.29,0,0,0,182,334,5.3,5.3,0,0,0,185.51,335.23Z"/><path class="cls-14" d="M185,337.18a6.05,6.05,0,0,0-2.52-1.47,7.63,7.63,0,0,0-1.39-.31,7.93,7.93,0,0,0,1.15.85A6.06,6.06,0,0,0,185,337.18Z"/><path class="cls-14" d="M183.29,338.75a6.43,6.43,0,0,0-3.57-2.05A6.41,6.41,0,0,0,183.29,338.75Z"/><path class="cls-14" d="M180.06,338.8a3.27,3.27,0,0,0-1.63-1.35,4.28,4.28,0,0,0-1-.27,3.79,3.79,0,0,0,.7.77A3.23,3.23,0,0,0,180.06,338.8Z"/><path class="cls-14" d="M184.68,331c-.4-.83-1-.09-1-.09S184.14,331.75,184.68,331Z"/><path class="cls-14" d="M309.41,272.34c4.42,5.45,11.81,19.52,0,20.73-11.82-1.23-4.33-15.24,0-20.73Zm0,.1c-2.7,5.4-10.75,18.59,0,19.74,10.73-1.17,2.61-14.3,0-19.74Z"/><path class="cls-14" d="M313.94,285.35a2.48,2.48,0,0,0-2.33-.88A2.47,2.47,0,0,0,313.94,285.35Z"/><path class="cls-14" d="M314.11,287.44a5.32,5.32,0,0,0-3.51-1.25A5.31,5.31,0,0,0,314.11,287.44Z"/><path class="cls-14" d="M313.56,289.39a6,6,0,0,0-2.51-1.47,7.05,7.05,0,0,0-1.39-.3,6.92,6.92,0,0,0,1.15.84A6,6,0,0,0,313.56,289.39Z"/><path class="cls-14" d="M311.88,291a6.45,6.45,0,0,0-3.56-2A6.4,6.4,0,0,0,311.88,291Z"/><path class="cls-14" d="M308.66,291a3.21,3.21,0,0,0-1.63-1.35,4.17,4.17,0,0,0-1-.28,4,4,0,0,0,.7.78A3.35,3.35,0,0,0,308.66,291Z"/><path class="cls-14" d="M313.28,283.21c-.4-.83-1-.09-1-.09S312.74,284,313.28,283.21Z"/><path class="cls-14" d="M327.2,196c4.42,5.45,11.81,19.53,0,20.74-11.81-1.23-4.33-15.24,0-20.74Zm0,.1c-2.7,5.41-10.75,18.59,0,19.74,10.73-1.16,2.61-14.29,0-19.74Z"/><path class="cls-14" d="M331.73,209a2.47,2.47,0,0,0-2.33-.89A2.5,2.5,0,0,0,331.73,209Z"/><path class="cls-14" d="M331.9,211.07a5.31,5.31,0,0,0-3.5-1.24A5.26,5.26,0,0,0,331.9,211.07Z"/><path class="cls-14" d="M331.35,213a5.93,5.93,0,0,0-2.51-1.46,7.63,7.63,0,0,0-1.39-.31,7.93,7.93,0,0,0,1.15.85A5.94,5.94,0,0,0,331.35,213Z"/><path class="cls-14" d="M329.68,214.6a6.43,6.43,0,0,0-3.57-2A6.41,6.41,0,0,0,329.68,214.6Z"/><path class="cls-14" d="M326.45,214.65a3.27,3.27,0,0,0-1.63-1.35,4.64,4.64,0,0,0-1-.28,3.68,3.68,0,0,0,.7.78A3.23,3.23,0,0,0,326.45,214.65Z"/><path class="cls-14" d="M331.07,206.85c-.4-.83-1-.09-1-.09S330.53,207.6,331.07,206.85Z"/><path class="cls-14" d="M192.88,60.9c3.43,3.84,8.48,14,0,14.83-8.47-.87-3.33-11,0-14.83Zm0,.1c-1.68,3.81-7.44,13,0,13.84,7.43-.82,1.61-10,0-13.84Z"/><path class="cls-14" d="M196.09,70.13a1.32,1.32,0,0,0-1.64-.62A1.32,1.32,0,0,0,196.09,70.13Z"/><path class="cls-14" d="M196.21,71.61a2.73,2.73,0,0,0-2.48-.88A2.76,2.76,0,0,0,196.21,71.61Z"/><path class="cls-14" d="M195.83,73a3.11,3.11,0,0,0-1.75-1.12,3.73,3.73,0,0,0-1-.13,4.13,4.13,0,0,0,.77.68A3.14,3.14,0,0,0,195.83,73Z"/><path class="cls-14" d="M194.64,74.1a3.35,3.35,0,0,0-2.53-1.45A3.32,3.32,0,0,0,194.64,74.1Z"/><path class="cls-14" d="M192.36,74.15a1.7,1.7,0,0,0-1.11-1,2.44,2.44,0,0,0-.77-.13,2.3,2.3,0,0,0,.45.63A1.75,1.75,0,0,0,192.36,74.15Z"/><path class="cls-14" d="M195.63,68.62c-.27-.82-.72-.07-.72-.07S195.22,69.38,195.63,68.62Z"/><path class="cls-14" d="M264.92,79.45c3.43,3.83,8.48,14,0,14.83-8.48-.87-3.33-11,0-14.83Zm0,.1c-1.69,3.8-7.44,13,0,13.83,7.43-.82,1.6-10,0-13.83Z"/><path class="cls-14" d="M268.13,88.68a1.34,1.34,0,0,0-1.65-.63A1.33,1.33,0,0,0,268.13,88.68Z"/><path class="cls-14" d="M268.25,90.16a2.74,2.74,0,0,0-2.48-.88A2.75,2.75,0,0,0,268.25,90.16Z"/><path class="cls-14" d="M267.86,91.54a3.08,3.08,0,0,0-1.74-1.12,4.13,4.13,0,0,0-1-.14,4,4,0,0,0,.78.68A3.09,3.09,0,0,0,267.86,91.54Z"/><path class="cls-14" d="M266.67,92.65a3.32,3.32,0,0,0-2.52-1.45A3.31,3.31,0,0,0,266.67,92.65Z"/><path class="cls-14" d="M264.39,92.69a1.73,1.73,0,0,0-1.11-1,2.6,2.6,0,0,0-.77-.12,2.19,2.19,0,0,0,.45.62A1.71,1.71,0,0,0,264.39,92.69Z"/><path class="cls-14" d="M267.66,87.17c-.26-.82-.71-.07-.71-.07S267.26,87.92,267.66,87.17Z"/><path class="cls-14" d="M295.45,242.58c3.43,3.84,8.48,14,0,14.84-8.48-.87-3.34-11,0-14.84Zm0,.1c-1.69,3.81-7.45,13,0,13.84,7.42-.82,1.6-10,0-13.84Z"/><path class="cls-14" d="M298.66,251.82a1.33,1.33,0,0,0-1.65-.63A1.33,1.33,0,0,0,298.66,251.82Z"/><path class="cls-14" d="M298.78,253.29a2.79,2.79,0,0,0-2.49-.88A2.75,2.75,0,0,0,298.78,253.29Z"/><path class="cls-14" d="M298.39,254.68a3.07,3.07,0,0,0-1.75-1.12,4,4,0,0,0-1-.14,4.13,4.13,0,0,0,.77.68A3.14,3.14,0,0,0,298.39,254.68Z"/><path class="cls-14" d="M297.2,255.79a3.31,3.31,0,0,0-2.53-1.45A3.34,3.34,0,0,0,297.2,255.79Z"/><path class="cls-14" d="M294.92,255.83a1.73,1.73,0,0,0-1.11-1,2.6,2.6,0,0,0-.77-.12,2.35,2.35,0,0,0,.45.62A1.71,1.71,0,0,0,294.92,255.83Z"/><path class="cls-14" d="M298.19,250.3c-.26-.82-.72-.06-.72-.06S297.78,251.06,298.19,250.3Z"/><path class="cls-14" d="M185.51,266c3.43,3.84,8.48,14,0,14.83-8.48-.87-3.33-10.95,0-14.83Zm0,.1c-1.69,3.81-7.44,13,0,13.84,7.43-.82,1.6-10,0-13.84Z"/><path class="cls-14" d="M188.72,275.23a1.33,1.33,0,0,0-1.65-.62A1.33,1.33,0,0,0,188.72,275.23Z"/><path class="cls-14" d="M188.84,276.71a2.74,2.74,0,0,0-2.48-.88A2.76,2.76,0,0,0,188.84,276.71Z"/><path class="cls-14" d="M188.45,278.09a3.08,3.08,0,0,0-1.74-1.12,3.78,3.78,0,0,0-1-.13,4,4,0,0,0,.78.68A3.11,3.11,0,0,0,188.45,278.09Z"/><path class="cls-14" d="M187.27,279.21a3.31,3.31,0,0,0-2.53-1.45A3.35,3.35,0,0,0,187.27,279.21Z"/><path class="cls-14" d="M185,279.25a1.68,1.68,0,0,0-1.11-1,2.41,2.41,0,0,0-.77-.13,2.3,2.3,0,0,0,.45.63A1.77,1.77,0,0,0,185,279.25Z"/><path class="cls-14" d="M188.25,273.72c-.26-.82-.71-.07-.71-.07S187.85,274.48,188.25,273.72Z"/><path class="cls-14" d="M175.29,368.67c3.42,3.83,8.47,14,0,14.83-8.48-.87-3.34-11,0-14.83Zm0,.1c-1.69,3.8-7.45,13,0,13.83,7.42-.82,1.6-10,0-13.83Z"/><path class="cls-14" d="M178.49,377.9a1.33,1.33,0,0,0-1.64-.63A1.33,1.33,0,0,0,178.49,377.9Z"/><path class="cls-14" d="M178.62,379.38a2.76,2.76,0,0,0-2.49-.88A2.77,2.77,0,0,0,178.62,379.38Z"/><path class="cls-14" d="M178.23,380.76a3.11,3.11,0,0,0-1.75-1.12,4,4,0,0,0-1-.14,4.13,4.13,0,0,0,.77.68A3.14,3.14,0,0,0,178.23,380.76Z"/><path class="cls-14" d="M177,381.87a3.35,3.35,0,0,0-2.53-1.45A3.34,3.34,0,0,0,177,381.87Z"/><path class="cls-14" d="M174.76,381.91a1.76,1.76,0,0,0-1.11-1,2.6,2.6,0,0,0-.77-.12,2.19,2.19,0,0,0,.45.62A1.69,1.69,0,0,0,174.76,381.91Z"/><path class="cls-14" d="M178,376.39c-.26-.82-.72-.07-.72-.07S177.62,377.14,178,376.39Z"/><path class="cls-14" d="M298.19,189.9c3.43,3.84,8.48,14,0,14.83-8.48-.86-3.33-10.95,0-14.83Zm0,.1c-1.69,3.81-7.44,13,0,13.84,7.43-.82,1.6-10,0-13.84Z"/><path class="cls-14" d="M301.4,199.13a1.33,1.33,0,0,0-1.65-.62A1.33,1.33,0,0,0,301.4,199.13Z"/><path class="cls-14" d="M301.52,200.61a2.77,2.77,0,0,0-2.48-.88A2.74,2.74,0,0,0,301.52,200.61Z"/><path class="cls-14" d="M301.13,202a3.08,3.08,0,0,0-1.74-1.12,4.09,4.09,0,0,0-1-.14,4,4,0,0,0,.78.68A3.11,3.11,0,0,0,301.13,202Z"/><path class="cls-14" d="M299.94,203.11a3.28,3.28,0,0,0-2.52-1.45A3.31,3.31,0,0,0,299.94,203.11Z"/><path class="cls-14" d="M297.66,203.15a1.71,1.71,0,0,0-1.11-1,2.56,2.56,0,0,0-.77-.12,2.35,2.35,0,0,0,.45.62A1.71,1.71,0,0,0,297.66,203.15Z"/><path class="cls-14" d="M300.93,197.62c-.26-.82-.71-.06-.71-.06S300.53,198.38,300.93,197.62Z"/><path class="cls-14" d="M229.64,360.37c3.42,3.84,8.47,14,0,14.83-8.48-.87-3.34-10.95,0-14.83Zm0,.1c-1.69,3.8-7.45,13,0,13.84,7.42-.82,1.6-10,0-13.84Z"/><path class="cls-14" d="M232.85,369.6a1.33,1.33,0,0,0-1.65-.62A1.33,1.33,0,0,0,232.85,369.6Z"/><path class="cls-14" d="M233,371.08a2.76,2.76,0,0,0-2.49-.88A2.77,2.77,0,0,0,233,371.08Z"/><path class="cls-14" d="M232.58,372.46a3.11,3.11,0,0,0-1.75-1.12,3.73,3.73,0,0,0-1-.13,4.13,4.13,0,0,0,.77.68A3.14,3.14,0,0,0,232.58,372.46Z"/><path class="cls-14" d="M231.39,373.57a3.35,3.35,0,0,0-2.53-1.45A3.34,3.34,0,0,0,231.39,373.57Z"/><path class="cls-14" d="M229.11,373.61a1.71,1.71,0,0,0-1.11-1,2.44,2.44,0,0,0-.77-.13,2.3,2.3,0,0,0,.45.63A1.72,1.72,0,0,0,229.11,373.61Z"/><path class="cls-14" d="M232.38,368.09c-.26-.82-.72-.07-.72-.07S232,368.85,232.38,368.09Z"/><path class="cls-14" d="M325.11,141.64c3.43,3.84,8.48,14,0,14.84-8.48-.87-3.33-11,0-14.84Zm0,.1c-1.69,3.81-7.44,13,0,13.84,7.43-.82,1.6-10,0-13.84Z"/><path class="cls-14" d="M328.32,150.87a1.33,1.33,0,0,0-1.65-.62A1.33,1.33,0,0,0,328.32,150.87Z"/><path class="cls-14" d="M328.44,152.35a2.77,2.77,0,0,0-2.48-.88A2.72,2.72,0,0,0,328.44,152.35Z"/><path class="cls-14" d="M328.05,153.74a3.08,3.08,0,0,0-1.74-1.12,4.13,4.13,0,0,0-1-.14,4,4,0,0,0,.78.68A3.09,3.09,0,0,0,328.05,153.74Z"/><path class="cls-14" d="M326.86,154.85a3.28,3.28,0,0,0-2.52-1.45A3.31,3.31,0,0,0,326.86,154.85Z"/><path class="cls-14" d="M324.58,154.89a1.71,1.71,0,0,0-1.11-1,2.6,2.6,0,0,0-.77-.12,2.35,2.35,0,0,0,.45.62A1.71,1.71,0,0,0,324.58,154.89Z"/><path class="cls-14" d="M327.85,149.36c-.26-.82-.71-.06-.71-.06S327.45,150.12,327.85,149.36Z"/><path class="cls-14" d="M293.88,61.4c3.43,3.84,8.48,14,0,14.83-8.47-.87-3.33-11,0-14.83Zm0,.1c-1.68,3.81-7.44,13,0,13.84,7.43-.82,1.61-10,0-13.84Z"/><path class="cls-14" d="M297.09,70.63a1.32,1.32,0,0,0-1.64-.62A1.32,1.32,0,0,0,297.09,70.63Z"/><path class="cls-14" d="M297.21,72.11a2.73,2.73,0,0,0-2.48-.88A2.74,2.74,0,0,0,297.21,72.11Z"/><path class="cls-14" d="M296.83,73.49a3.11,3.11,0,0,0-1.75-1.12,3.78,3.78,0,0,0-1-.13,4.43,4.43,0,0,0,.78.68A3.08,3.08,0,0,0,296.83,73.49Z"/><path class="cls-14" d="M295.64,74.61a3.31,3.31,0,0,0-2.53-1.45A3.35,3.35,0,0,0,295.64,74.61Z"/><path class="cls-14" d="M293.36,74.65a1.7,1.7,0,0,0-1.11-1,2.44,2.44,0,0,0-.77-.13,2.3,2.3,0,0,0,.45.63A1.75,1.75,0,0,0,293.36,74.65Z"/><path class="cls-14" d="M296.63,69.12c-.27-.82-.72-.07-.72-.07S296.22,69.88,296.63,69.12Z"/><path class="cls-14" d="M218.4,28c3.43,3.84,8.48,14,0,14.83-8.47-.87-3.33-11,0-14.83Zm0,.1c-1.68,3.81-7.44,13,0,13.84,7.43-.82,1.61-10,0-13.84Z"/><path class="cls-14" d="M221.61,37.18a1.32,1.32,0,0,0-1.64-.62A1.32,1.32,0,0,0,221.61,37.18Z"/><path class="cls-14" d="M221.73,38.66a2.73,2.73,0,0,0-2.48-.88A2.74,2.74,0,0,0,221.73,38.66Z"/><path class="cls-14" d="M221.35,40a3.11,3.11,0,0,0-1.75-1.12,3.73,3.73,0,0,0-1-.13,4.13,4.13,0,0,0,.77.68A3.08,3.08,0,0,0,221.35,40Z"/><path class="cls-14" d="M220.16,41.16a3.31,3.31,0,0,0-2.53-1.45A3.35,3.35,0,0,0,220.16,41.16Z"/><path class="cls-14" d="M217.88,41.2a1.7,1.7,0,0,0-1.11-1A2.44,2.44,0,0,0,216,40a2.3,2.3,0,0,0,.45.63A1.75,1.75,0,0,0,217.88,41.2Z"/><path class="cls-14" d="M221.15,35.67c-.27-.82-.72-.06-.72-.06S220.74,36.43,221.15,35.67Z"/></g></g></svg>