<svg id="Layer_1" data-name="Layer 1" xmlns="http://www.w3.org/2000/svg" viewBox="0 0 1036.06 1276.21"><defs><style>.cls-1{fill:#d4edee;}.cls-2{fill:#ef9122;}.cls-3{fill:#f9a63a;}.cls-4{fill:#dd4a4a;}.cls-5{fill:#e85f5d;}.cls-6{fill:#fcb854;}.cls-7{fill:#ffcb79;}.cls-8{fill:#f4777b;}.cls-9{fill:#fff;}.cls-10{fill:#d9dada;}.cls-11{fill:#434143;}</style></defs><title>octopus 2</title><path class="cls-1" d="M516.36,91.18C230.46,92.08,0,326.1,0,612v478.45a21,21,0,0,0,21,21h0a21,21,0,0,0,21-21V860.68c0-11.12,14.88-14.95,20.18-5.17a517.59,517.59,0,0,0,40.67,63.57,49.65,49.65,0,0,1,9.94,29.7v59.63a16.26,16.26,0,0,0,16.27,16.27h0a16.26,16.26,0,0,0,16.27-16.27h0c0-14.52,17.16-22.15,28-12.49a522.18,522.18,0,0,0,46,36.6,33.56,33.56,0,0,1,14.27,27.38v187.9a19.12,19.12,0,0,0,19.12,19.12h0a19.12,19.12,0,0,0,19.12-19.12V1118.44c0-24,24.38-40.33,46.5-31.09a513.46,513.46,0,0,0,69.34,23.35,45.36,45.36,0,0,1,33.83,44v17.94a19.9,19.9,0,0,0,19.9,19.9h0a19.9,19.9,0,0,0,19.9-19.9h0a45.41,45.41,0,0,1,46.22-45.46c3.48.07,7,.1,10.48.1a520.2,520.2,0,0,0,108.24-11.33,20.67,20.67,0,0,1,25,20.2V1255.4a20.81,20.81,0,0,0,20.81,20.81h0a20.82,20.82,0,0,0,20.82-20.81v-73.89a20.67,20.67,0,0,1,20.67-20.67h0a20.68,20.68,0,0,1,20.67,20.67v43.84a16.13,16.13,0,0,0,16.13,16.13h0a16.13,16.13,0,0,0,16.13-16.13V1100.11a63.89,63.89,0,0,1,29.69-53.82,521.72,521.72,0,0,0,49.77-36c12.6-10.32,31.53-1.33,31.53,15V1144a16.85,16.85,0,0,0,16.85,16.85h0A16.86,16.86,0,0,0,911.21,1144V950.63a11.23,11.23,0,0,1,2.67-7.26l.24-.28c6.74-8,19.79-3.19,19.79,7.27v31.42a15.56,15.56,0,0,0,15.56,15.55h0A15.56,15.56,0,0,0,965,981.78V894.09a88.19,88.19,0,0,1,10.42-41.52Q983.18,838.07,990,823c4.43-9.77,19-6.64,19,4.08v251.22a13.52,13.52,0,0,0,13.52,13.52h0a13.52,13.52,0,0,0,13.51-13.52V609.21C1036.06,322.56,803.23,90.28,516.36,91.18Z"/><path class="cls-2" d="M554.29,763.52a252.65,252.65,0,0,1-106,122.59c-26.95,15.74-56.61,26.32-84.09,41.12C348.69,935.59,333.58,945.67,321,958a273.51,273.51,0,0,1,19.42-45.32c24.62-45.55,61-83.37,93.51-123.7a856.21,856.21,0,0,0,90.46-137.7c3.21-6.1,6.52-12.38,10-18.58C551.28,674.5,570.57,723.16,554.29,763.52Z"/><path class="cls-3" d="M364.23,927.23c27.48-14.8,57.14-25.38,84.09-41.12a252.65,252.65,0,0,0,106-122.59c16.28-40.36-3-89-19.88-130.85,13.72-24.3,30.48-47.41,56.71-53.9,14.78-3.66,30.29-1,44.3,5.27,16,40.25,15.47,87.49,1.05,128.85C616.93,768.94,575,814.94,526.85,849.7,470.47,890.43,403,919.39,361.77,975.4c-31,42-42.79,94.91-39.87,147.48a226.7,226.7,0,0,1-7.13-23.34c-11.52-46.49-8.62-96,6.23-141.57C333.58,945.67,348.69,935.59,364.23,927.23Z"/><path class="cls-4" d="M195.29,920.14c6.71-20.65,18.32-40,32.6-56.43,24.34-28,55.95-48.75,88.22-67.12,20.75-11.8,42.78-23.52,56.23-43.24,14.12-20.71,16.58-47.69,11.72-72.28s-16.35-47.31-28.4-69.28a61.21,61.21,0,0,1,16-4.37c17.08,35.61,27.45,74.44,28,113.84.74,50.83-15.54,102.49-48.78,141-15.51,17.94-34.41,32.9-49.25,51.31a170.82,170.82,0,0,1-106.37,6.62Z"/><path class="cls-5" d="M182.29,1167c13.65,10.48,34.34,11.89,48,1.44,19.39-14.83,18.09-44.56,10.36-67.72-15.39-46.11-48.64-87-51.5-135.52a122.35,122.35,0,0,1,6.13-45.06,170.82,170.82,0,0,0,106.37-6.62c-1.52,1.88-3,3.78-4.42,5.74-.49.68-1,1.36-1.45,2a71.62,71.62,0,0,0-17.71,21.43c-12.08,22.7-9.69,50.44-2.82,75.23s17.87,48.45,22.39,73.77c5.94,33.23-.59,69.82-22.89,95.15s-61.74,36.22-91.66,20.6-42.67-59.55-21.66-86A54.89,54.89,0,0,0,182.29,1167Z"/><path class="cls-5" d="M487.49,875.88c13.39-8.43,26.66-17,39.36-26.18q2.53-1.83,5-3.71a411.37,411.37,0,0,1,39,73.48c-9.51,4.66-19.12,9.17-28.64,13.81A186.34,186.34,0,0,0,487.49,875.88Z"/><path class="cls-4" d="M636.47,712.89c14.42-41.36,14.92-88.6-1.05-128.85a95.62,95.62,0,0,1,18.77,11.28C672,609,698.26,622.64,701.48,644.9c6.11,42.33,6.45,85.93-3.85,127.45S665.89,853.25,633.35,881c-18.66,15.91-40.31,27.59-62.5,38.47a411.37,411.37,0,0,0-39-73.48C577.88,811.69,617.62,767,636.47,712.89Z"/><path class="cls-4" d="M542.74,1240.73c23.89,5.89,49,6.36,73,.33-56.16,31.38-128.51,35.16-185.9,6.07-34.57-17.53-63.62-44.85-84.64-77.45a255.73,255.73,0,0,0,197.58,71Z"/><path class="cls-4" d="M392.11,942.21c28.34-25.63,62.27-45.51,95.38-66.33a186.34,186.34,0,0,1,54.72,57.4C516,946.05,490.42,959.74,469.66,980a146.52,146.52,0,0,0-28.79,39.82A168.57,168.57,0,0,0,392.11,942.21Z"/><path class="cls-5" d="M361.77,975.4a223.64,223.64,0,0,1,30.34-33.19,168.57,168.57,0,0,1,48.76,77.59c-22.58,45.43-23.14,102.18,1.75,146.69,20.93,37.4,58.63,64,100.12,74.24a255.73,255.73,0,0,1-197.58-71,235,235,0,0,1-23.26-46.8C319,1070.31,330.79,1017.44,361.77,975.4Z"/><path class="cls-6" d="M297.24,919.26c15.36-21.15,36.58-37.28,53.67-57,31.68-36.66,47.95-85.32,48.76-133.81,9-7.61,19.22-13,30.87-12.91,18.71.16,34.15,14.87,44.19,30.66a139.32,139.32,0,0,1,21,63c-7.85,22.27-21.09,42.42-40.27,55.88-27.17,19-61.87,22.35-94.4,28.92-23.17,4.68-47.53,12.57-65.26,27.32C296.26,920.62,296.75,919.94,297.24,919.26Z"/><path class="cls-3" d="M430.54,715.49c-11.65-.1-21.84,5.3-30.87,12.91q.06-3.57,0-7.14c-.58-39.4-10.95-78.23-28-113.84,14.65-1.94,29.75,1.26,43.53,7.87,30.2,14.5,57.33,35.17,80.87,59,6.06,33.89,11.53,68.46,7.23,102.62a155.47,155.47,0,0,1-7.57,32.28,139.32,139.32,0,0,0-21-63C464.69,730.36,449.25,715.65,430.54,715.49Z"/><ellipse class="cls-2" cx="438.28" cy="735.4" rx="48.68" ry="23.81" transform="translate(-379.05 990.08) rotate(-76.51)"/><ellipse class="cls-6" cx="448.07" cy="737.75" rx="39.43" ry="19.28" transform="translate(-373.83 1001.4) rotate(-76.51)"/><path class="cls-2" d="M461.43,741c2.65-11.06,1.35-20.86-2.91-21.88s-9.87,7.12-12.52,18.18-1.35,20.85,2.91,21.87S458.78,752,461.43,741Z"/><ellipse class="cls-2" cx="408.65" cy="828.86" rx="36.26" ry="17.73" transform="translate(-493.23 627.34) rotate(-51.16)"/><ellipse class="cls-6" cx="414.49" cy="833.56" rx="29.37" ry="14.36" transform="translate(-494.72 633.64) rotate(-51.16)"/><path class="cls-2" d="M422.46,840c5.32-6.6,7.56-13.61,5-15.66s-8.91,1.65-14.23,8.25-7.56,13.6-5,15.65S417.15,846.58,422.46,840Z"/><ellipse class="cls-2" cx="453.57" cy="851.43" rx="30.54" ry="14.94" transform="translate(-494.07 670.74) rotate(-51.16)"/><ellipse class="cls-6" cx="458.49" cy="855.4" rx="24.74" ry="12.1" transform="translate(-495.32 676.06) rotate(-51.16)"/><path class="cls-2" d="M465.21,860.8c4.47-5.56,6.36-11.46,4.22-13.18s-7.5,1.38-12,6.94-6.37,11.46-4.22,13.18S460.73,866.36,465.21,860.8Z"/><ellipse class="cls-2" cx="491.64" cy="755.61" rx="32.62" ry="15.95" transform="translate(-357.8 1057.46) rotate(-76.51)"/><ellipse class="cls-6" cx="498.2" cy="757.19" rx="26.42" ry="12.92" transform="translate(-354.3 1065.05) rotate(-76.51)"/><path class="cls-2" d="M507.15,759.33c1.78-7.41.9-14-1.95-14.66s-6.61,4.77-8.39,12.18-.9,14,1.95,14.66S505.37,766.75,507.15,759.33Z"/><path class="cls-5" d="M214.46,540.7c-36.16-20.08-63.81-59-59.8-99.92,4.93-50.31,52.73-85.86,67.91-134.07,4.31-13.68,5.77-28.93.09-42.1a36.57,36.57,0,0,0-8.49-12c-8.48-14.42-27.37-22.14-44.35-19.67-19.7,2.87-38.13,15.93-49.6,32.2,11.85-28.93,40.73-50.88,72-51.82s62.52,20.91,69.93,51.28c6.67,27.38-5.19,55.68-18.71,80.4S214,394.54,211.89,422.64c-2.26,29.63,11.89,59,33.74,79.24A177.74,177.74,0,0,0,214.46,540.7Z"/><path class="cls-4" d="M220.4,543.81q-3-1.47-5.94-3.11a177.74,177.74,0,0,1,31.17-38.82q2.43,2.26,5,4.36c24.64,20.3,56.47,30.35,88.24,33.4q-7,10.79-13.41,21.69C289.28,562.84,252.69,559.5,220.4,543.81Z"/><path class="cls-7" d="M110.47,443.7c11.67-46.83,45.46-85.8,78-119.85,8.48-8.88,17.18-17.77,23.21-28.46s9.19-23.61,5.75-35.39a33.28,33.28,0,0,0-3.23-7.42,36.57,36.57,0,0,1,8.49,12c5.68,13.17,4.22,28.42-.09,42.1-15.18,48.21-63,83.76-67.91,134.07-4,41,23.64,79.84,59.8,99.92a184.34,184.34,0,0,0-26,90.43C169.16,617,152.28,600,140,581.87,114.08,543.67,99.07,489.42,110.47,443.7Z"/><path class="cls-6" d="M220.4,543.81c32.29,15.69,68.88,19,105,17.52-20.17,34-36.87,69.08-52.08,106.09-29.18-3.89-59.19-17.47-84.92-36.29a184.34,184.34,0,0,1,26-90.43Q217.39,542.33,220.4,543.81Z"/><path class="cls-4" d="M757.53,744.87c1.38-3.93,2.64-7.91,3.71-12,11.34-42.58,4.66-89.26-16.55-127.78a356.87,356.87,0,0,0,62.82-12.87c42.43,35.17,68.83,88.16,73.88,142.91A325.52,325.52,0,0,1,757.53,744.87Z"/><path class="cls-5" d="M757.53,744.87a325.52,325.52,0,0,0,123.86-9.69,201.26,201.26,0,0,1-4.58,65.76c-12.66,52.3-47.3,98.34-92.65,127.09q-35.16-57.6-73-113.52A173.92,173.92,0,0,0,757.53,744.87Z"/><path class="cls-4" d="M784.16,928a202,202,0,0,1-64.4,26.81c-23.45-31.93-44.7-68.87-64.31-105.66a174,174,0,0,0,55.73-34.67Q749,870.4,784.16,928Z"/><path class="cls-3" d="M761.24,732.92c-1.07,4-2.33,8-3.71,12a319.8,319.8,0,0,1-93-25,128.9,128.9,0,0,0,0-20.7c-2.83-35.31-17.06-67.53-32-99.63,35.93,8.3,74.52,9.87,112.14,5.61C765.9,643.66,772.58,690.34,761.24,732.92Z"/><path class="cls-6" d="M711.18,814.51Q686.45,778,660.61,742.2a122,122,0,0,0,3.93-22.34,319.8,319.8,0,0,0,93,25A173.92,173.92,0,0,1,711.18,814.51Z"/><path class="cls-3" d="M660.61,742.2q25.83,35.76,50.57,72.31a174,174,0,0,1-55.73,34.67c-10.12-19-19.8-37.91-29.11-56.09C643.74,781.18,655,762.67,660.61,742.2Z"/><path class="cls-5" d="M313.87,389.22c1.77-17.92,8.71-34,18-49.43-8.33,43.72-3.88,90.5,16.64,130s57.87,70.88,101.42,80.09,92.36-5.65,120.35-40.26,38.22-91.81,11.8-127.62c31.43,34.44,35.73,91.86,13.54,132.88,54.76-27.66,110.33-55.87,155.21-97.7a327.56,327.56,0,0,0,91.12-148.87c15.17-53.16,16.34-111.15-2.45-163.14-12-33.13-32.54-63.49-59.22-86.31a332.06,332.06,0,0,1,52.87,23.59c34.19,19,65.85,45.08,83.6,80,25.39,49.91,18.67,110.73-1,163.17A367.26,367.26,0,0,1,783.49,456.33c-53.19,37.26-116,60.1-165.89,101.68C595,576.85,574.83,599.65,548,611.6c-29.58,13.15-64.28,11.31-94.79.5s-57.41-29.9-82.2-50.73c-28.15-23.66-55.23-51.67-65-87a17.76,17.76,0,0,0-4.21-.39c-16.53,0-29.93-29.8-29.93-66.56,0-2.63.08-5.23.21-7.78C286.37,397.72,300.78,394.5,313.87,389.22Z"/><path class="cls-8" d="M839.47,105.17c18.79,52,17.62,110,2.45,163.14A327.56,327.56,0,0,1,750.8,417.18c-44.88,41.83-100.45,70-155.21,97.7,22.19-41,17.89-98.44-13.54-132.88,26.42,35.81,16.18,93-11.8,127.62s-76.8,49.47-120.35,40.26S369,509.29,348.48,469.79s-25-86.28-16.64-130c-9.26,15.44-16.2,31.51-18,49.43-13.09,5.28-27.5,8.5-41.8,10.39,1.74-33.09,14.38-58.77,29.72-58.77,3.6,0,9.95-1.81,16.39-4,12.48-59.38,28.4-118.2,59-170.26,44.17-75.19,118.55-132,202.69-154.95C645.35-6.21,716.15-3.3,780.25,18.86,806.93,41.68,827.49,72,839.47,105.17Z"/><circle class="cls-5" cx="479.79" cy="440.32" r="90.12" transform="translate(-170.83 468.23) rotate(-45)"/><path class="cls-9" d="M421.53,451.56A59.34,59.34,0,0,1,505.73,387c11.4,19.68,13,43.28,7.31,65.57A683.29,683.29,0,0,0,421.53,451.56Z"/><path class="cls-10" d="M505.73,387a59.35,59.35,0,0,1,31.61,67.89q-12.12-1.38-24.3-2.32C518.71,430.23,517.13,406.63,505.73,387Z"/><rect class="cls-11" x="462.87" y="394.69" width="29.31" height="79.13" rx="13.33" ry="13.33" transform="translate(955.04 868.52) rotate(180)"/><path class="cls-8" d="M537.34,454.84a59.34,59.34,0,0,1-115.81-3.28A683,683,0,0,1,537.34,454.84Z"/><path class="cls-5" d="M585.48,557c30.07-13.86,42.78-55.06,74.93-63a72.57,72.57,0,0,0,19.73,21.9c-5.51,9.76-9.22,20.24-10,31.59-1.92,28.73,16.77,56,41.46,70.84s54.4,18.89,83.19,18.88c48.21,0,98-11.48,135.78-41.38,24.26-19.17,42.57-46.86,49.73-76.64a140.25,140.25,0,0,1-.1,21.88c-4.7,55.49-44.7,104.34-95,128.17S776,694.14,721.75,681.42c-26.65-6.26-116.14-37.12-123.47-63.49a22.27,22.27,0,0,0-1.34,4.43c-8.62-20.58-17.67-40.39-25.84-61A58.58,58.58,0,0,0,585.48,557Z"/><path class="cls-8" d="M930.59,595.78c-37.82,29.9-87.57,41.37-135.78,41.38-28.79,0-58.5-4.08-83.19-18.88s-43.38-42.11-41.46-70.84c.76-11.35,4.47-21.83,10-31.59,15.94,11.9,36.6,18.28,56.09,17l1.06-.09c11,1.05,24.1.78,40.22-1.19,34.54-4.22,65.47-27.51,83-57.59s21.49-67.43,12-100.91c-4.64-16.3-12.12-31.31-20.86-45.77,22.17,20.15,44.6,40,64.75,62.15,33.06,36.25,60.48,81.53,64,129.68C973.16,548.92,954.85,576.61,930.59,595.78Z"/><path class="cls-8" d="M708,861c10.2,18.1,20.46,36.36,29.49,55.1-19,28.43-26.19,65.28-32.13,99.81-7.73,44.87-17.68,93.67-52.76,122.69-14,11.57-31.07,18.9-49,22.25-48.51-5.35-96.16-30-122.31-71.16-23.43-36.91-27.7-82.31-39.72-124.34s-37.52-86-80.12-95.78c76.4,5.57,127.13,114.18,137.36,160.94,15.38,70.34,89,66.49,100.32,31.88,17.43-54.46,4.21-112.64-17.91-165.36-20.38-48.55-46.09-94.66-72.54-140.19-16.31-28.08-33-56.13-53.92-81s-46.31-46.6-76.26-59.17c95.06,28.33,199,85,277.38,151.86Z"/><path class="cls-5" d="M705.33,1015.9c5.94-34.53,13.17-71.38,32.13-99.81,10.16,21.08,18.78,42.77,24,65.56,9.89,43,6.22,91.29-20,126.82-30.38,41.2-86.1,57.84-137,52.47l-.87-.1c17.89-3.35,35-10.68,49-22.25C687.65,1109.57,697.6,1060.77,705.33,1015.9Z"/><path class="cls-5" d="M107.46,732a128.56,128.56,0,0,0-.46,40.5c5.84,38.76,30.23,74.29,64.29,93.68,37.53,21.35,84.76,22.57,125.21,7.47a185.38,185.38,0,0,0,52.74-30.75,135.78,135.78,0,0,1-51,49c-39.61,21.4-90.11,21.14-129.5-.66S102.32,826.8,99.43,781.87A113.09,113.09,0,0,1,107.46,732Z"/><path class="cls-8" d="M171.29,866.18c-34.06-19.39-58.45-54.92-64.29-93.68a128.56,128.56,0,0,1,.46-40.5c7.12-17.22,18.82-32.1,35.12-41.06,32.06-17.63,73.13-8,103.35,12.8-4.71-.88-39.39-6.72-64.56,9-27.66,17.21-26.38,67.4,19,90.12,37.24,18.62,65.6-22.33,58.1-67.63-3.45-125.51,40.82-175.63,106.91-178.53,9.79,18.49,14.69,40.08,13.08,60-16.25,23.59-21.05,52.71-17.86,81.18s10.16,56.83,8,85.4a135,135,0,0,1-19.43,59.65,185.38,185.38,0,0,1-52.74,30.75C256.05,888.75,208.82,887.53,171.29,866.18Z"/><path class="cls-5" d="M365.43,556.65c-66.09,2.9-110.36,53-106.91,178.53a93.49,93.49,0,0,0-10.44-29.93c-19.06-43.34-19.18-94.35-.93-138A177.57,177.57,0,0,1,346.36,471c50.64,54.61,123.9,87.34,198.26,91.38,8.81.47,17.83.5,26.48-1,8.17,20.61,17.22,40.42,25.84,61-4.83,24.06,18.38,74.14,29.26,93.45l29.69,52.72C577.56,701.63,473.57,645,378.51,616.67,380.12,596.73,375.22,575.14,365.43,556.65Z"/><path class="cls-6" d="M251.78,743.25c-.25,12.18-3.84,24.69-12.11,33.63s-21.76,13.53-33.19,9.32c-12.73-4.7-20-19.41-18.6-32.9S198.14,727.9,209.2,720s23.16-16.3,36.73-16.3c.73.5,1.45,1,2.15,1.51C251.16,717,252,731.07,251.78,743.25Z"/><path class="cls-7" d="M181.37,712.69c25.17-15.67,59.85-9.83,64.56-9-13.57,0-25.66,8.44-36.73,16.3s-19.88,19.76-21.32,33.26,5.87,28.2,18.6,32.9c11.43,4.21,24.91-.38,33.19-9.32s11.86-21.45,12.11-33.63-.62-26.22-3.7-38c30,54.33-2.23,120.27-47.66,97.56S153.71,729.9,181.37,712.69Z"/><path class="cls-5" d="M569.12,155.83a42.16,42.16,0,1,0,59.6-15.16,51.49,51.49,0,1,1-59.6,15.16Z"/><path class="cls-8" d="M648.19,176.19a42.19,42.19,0,1,1-19.47-35.52A42.15,42.15,0,0,1,648.19,176.19Z"/><path class="cls-5" d="M361,214.17a30.23,30.23,0,1,0,42.74-10.88A36.91,36.91,0,1,1,361,214.17Z"/><path class="cls-8" d="M417.71,228.76a30.23,30.23,0,1,1-14-25.47A30.22,30.22,0,0,1,417.71,228.76Z"/><path class="cls-5" d="M472,197.6A21.27,21.27,0,1,0,502.08,190,26,26,0,1,1,472,197.6Z"/><path class="cls-8" d="M511.9,207.87A21.28,21.28,0,1,1,502.08,190,21.27,21.27,0,0,1,511.9,207.87Z"/><path class="cls-5" d="M406.41,289.88a21.27,21.27,0,1,0,30.08-7.65,26,26,0,1,1-30.08,7.65Z"/><path class="cls-8" d="M446.31,300.15a21.26,21.26,0,1,1-9.82-17.92A21.27,21.27,0,0,1,446.31,300.15Z"/><path class="cls-5" d="M444.39,101.24a33.12,33.12,0,1,0,46.82-11.91,40.45,40.45,0,1,1-46.82,11.91Z"/><path class="cls-8" d="M506.5,117.24a33.12,33.12,0,1,1-15.29-27.91A33.11,33.11,0,0,1,506.5,117.24Z"/><path class="cls-5" d="M507.74,36a33.12,33.12,0,1,0,46.83-11.91A40.44,40.44,0,1,1,507.74,36Z"/><path class="cls-8" d="M569.86,52a33.14,33.14,0,1,1-15.29-27.9A33.12,33.12,0,0,1,569.86,52Z"/><path class="cls-5" d="M657.35,41.2a33.12,33.12,0,1,0,46.82-11.91A40.43,40.43,0,1,1,657.35,41.2Z"/><path class="cls-8" d="M719.47,57.19a33.14,33.14,0,1,1-15.3-27.9A33.12,33.12,0,0,1,719.47,57.19Z"/><path class="cls-5" d="M735.12,124.78a43,43,0,1,0,60.81-15.47,52.53,52.53,0,1,1-60.81,15.47Z"/><path class="cls-8" d="M815.79,145.55a43,43,0,1,1-19.86-36.24A43,43,0,0,1,815.79,145.55Z"/><path class="cls-5" d="M655.44,271.14a23.21,23.21,0,1,0,32.81-8.35,28.34,28.34,0,1,1-32.81,8.35Z"/><path class="cls-8" d="M699,282.34a23.22,23.22,0,1,1-10.72-19.55A23.21,23.21,0,0,1,699,282.34Z"/><path class="cls-5" d="M882.93,526.6a23.21,23.21,0,1,0,17.65-28.89,28.34,28.34,0,1,1-17.65,28.89Z"/><path class="cls-8" d="M921.91,504.21a23.23,23.23,0,1,1-21.33-6.5A23.21,23.21,0,0,1,921.91,504.21Z"/><path class="cls-5" d="M598.48,834.2a23.21,23.21,0,1,0,17.65-28.89,28.34,28.34,0,1,1-17.65,28.89Z"/><path class="cls-8" d="M637.45,811.81a23.22,23.22,0,1,1-21.32-6.5A23.21,23.21,0,0,1,637.45,811.81Z"/><path class="cls-5" d="M629.72,927.09a14.45,14.45,0,0,0,3.63,6.32,14.63,14.63,0,1,0,7.49-24.54,17.88,17.88,0,1,1-11.12,18.22Z"/><path class="cls-8" d="M654.29,913a14.63,14.63,0,0,1-20.94,20.44,14.45,14.45,0,0,1-3.63-6.32A14.63,14.63,0,0,1,654.29,913Z"/><path class="cls-5" d="M664.25,877.88a17.35,17.35,0,1,0,13.2-21.6,21.18,21.18,0,1,1-13.2,21.6Z"/><path class="cls-8" d="M693.39,861.14a17.36,17.36,0,1,1-15.94-4.86A17.35,17.35,0,0,1,693.39,861.14Z"/><path class="cls-5" d="M298,770.14a24.85,24.85,0,1,0,18.89-30.93A30.34,30.34,0,1,1,298,770.14Z"/><path class="cls-8" d="M339.75,746.17a24.87,24.87,0,1,1-22.84-7A24.85,24.85,0,0,1,339.75,746.17Z"/><path class="cls-5" d="M295.63,699A13.6,13.6,0,1,0,306,682.05,16.61,16.61,0,1,1,295.63,699Z"/><path class="cls-8" d="M318.47,685.87a13.58,13.58,0,1,1-12.5-3.82A13.59,13.59,0,0,1,318.47,685.87Z"/><path class="cls-5" d="M162.15,833.13a13.6,13.6,0,1,0,10.34-16.94,16.61,16.61,0,1,1-10.34,16.94Z"/><path class="cls-8" d="M185,820a13.61,13.61,0,1,1-12.5-3.81A13.6,13.6,0,0,1,185,820Z"/><path class="cls-5" d="M834.13,586.08A12.16,12.16,0,1,0,843.38,571a14.84,14.84,0,1,1-9.25,15.13Z"/><path class="cls-8" d="M854.55,574.36A12.16,12.16,0,1,1,843.38,571,12.16,12.16,0,0,1,854.55,574.36Z"/><path class="cls-5" d="M734.93,569.45A18.87,18.87,0,1,0,749.28,546a23.05,23.05,0,1,1-14.35,23.5Z"/><path class="cls-8" d="M766.62,551.24A18.87,18.87,0,1,1,749.28,546,18.88,18.88,0,0,1,766.62,551.24Z"/><path class="cls-5" d="M896.86,444a18.64,18.64,0,0,0,4.68,8.15,18.87,18.87,0,1,0,9.66-31.65A23.06,23.06,0,1,1,896.86,444Z"/><path class="cls-8" d="M928.55,425.76a18.87,18.87,0,0,1-27,26.36,18.64,18.64,0,0,1-4.68-8.15,18.87,18.87,0,0,1,31.69-18.21Z"/><path class="cls-5" d="M631.23,348.51A23.21,23.21,0,1,0,664,340.16a28.34,28.34,0,1,1-32.81,8.35Z"/><path class="cls-8" d="M674.76,359.72A23.22,23.22,0,1,1,664,340.16,23.21,23.21,0,0,1,674.76,359.72Z"/><path class="cls-6" d="M712.81,278.59c-12.65-21.81-21.07-46.56-23.4-71.6,13.6,29.42,35.26,56.25,57.11,80.65,35.53,39.66,74.72,80,87,131.82,7.55,31.94,2.6,65.92-11.65,95.42a104.18,104.18,0,0,1-44.35,16.7c-16.12,2-29.26,2.24-40.22,1.19,28.9-2.3,55.79-21.83,66.83-48.65,14.94-36.32.87-78.46-20.83-111.21S732.53,312.57,712.81,278.59Z"/><path class="cls-7" d="M833.51,419.46c-12.27-51.82-51.46-92.16-87-131.82C724.67,263.24,703,236.41,689.41,207a137.8,137.8,0,0,1,5.52-54.82c13.33-41.75,51.78-76.27,95.56-78.24-33.44,18.13-50.69,59.46-46.15,97.22s25.76,71.62,50.78,100.28c17.43,20,36.86,38,56.49,55.88,8.74,14.46,16.22,29.47,20.86,45.77,9.51,33.48,5.53,70.83-12,100.91a123.72,123.72,0,0,1-38.63,40.89C836.11,485.38,841.06,451.4,833.51,419.46Z"/><ellipse class="cls-3" cx="806.47" cy="459.13" rx="18.7" ry="38.24"/><ellipse class="cls-7" cx="798.56" cy="459.13" rx="15.15" ry="30.97"/><path class="cls-3" d="M787.77,459.13c0,8.94,2.79,16.18,6.23,16.18s6.24-7.24,6.24-16.18S797.45,443,794,443,787.77,450.2,787.77,459.13Z"/><ellipse class="cls-2" cx="721.72" cy="742.2" rx="48.68" ry="23.81" transform="translate(-240.04 1125.28) rotate(-67.52)"/><ellipse class="cls-6" cx="712.41" cy="738.35" rx="39.43" ry="19.28" transform="translate(-242.23 1114.31) rotate(-67.52)"/><ellipse class="cls-2" cx="707.06" cy="736.13" rx="20.59" ry="7.94" transform="translate(-243.49 1107.99) rotate(-67.52)"/><ellipse class="cls-2" cx="673.39" cy="723.9" rx="32.97" ry="16.12" transform="translate(-252.99 1069.33) rotate(-67.52)"/><ellipse class="cls-6" cx="667.08" cy="721.29" rx="26.71" ry="13.06" transform="translate(-254.47 1061.89) rotate(-67.52)"/><path class="cls-2" d="M658.49,717.74c-3,7.12-3.11,13.81-.37,14.94s7.36-3.71,10.3-10.83,3.11-13.81.37-15S661.43,710.62,658.49,717.74Z"/><ellipse class="cls-3" cx="839.15" cy="407.93" rx="18.7" ry="38.24" transform="translate(-70.11 198.57) rotate(-12.96)"/><path class="cls-7" d="M816.68,413.1c3.83,16.67,13.55,28.67,21.7,26.79S850,423,846.2,406.31s-13.55-28.67-21.71-26.79S812.84,396.43,816.68,413.1Z"/><path class="cls-3" d="M820.92,412.12c2,8.71,6.35,15.14,9.71,14.37s4.45-8.45,2.44-17.16-6.34-15.14-9.7-14.37S818.92,403.42,820.92,412.12Z"/><ellipse class="cls-3" cx="191.95" cy="570.85" rx="18.7" ry="38.24" transform="translate(-371.85 359.08) rotate(-50.83)"/><ellipse class="cls-7" cx="186.95" cy="576.99" rx="15.15" ry="30.97" transform="translate(-378.45 357.47) rotate(-50.83)"/><path class="cls-3" d="M180.14,585.35c6.92,5.65,14.3,8.06,16.48,5.39s-1.68-9.41-8.61-15-14.3-8.06-16.48-5.39S173.21,579.71,180.14,585.35Z"/><ellipse class="cls-3" cx="162.71" cy="603.96" rx="15.44" ry="31.57" transform="translate(-408.29 348.62) rotate(-50.83)"/><ellipse class="cls-7" cx="158.59" cy="609.03" rx="12.51" ry="25.57" transform="translate(-413.74 347.28) rotate(-50.83)"/><path class="cls-3" d="M153,615.94c5.72,4.66,11.81,6.65,13.61,4.44s-1.39-7.77-7.11-12.43-11.81-6.65-13.6-4.44S147.24,611.28,153,615.94Z"/><ellipse class="cls-3" cx="114.1" cy="509.64" rx="15.44" ry="31.57" transform="translate(-178.63 77.13) rotate(-21.47)"/><ellipse class="cls-7" cx="108.02" cy="512.03" rx="12.51" ry="25.57" transform="translate(-179.93 75.07) rotate(-21.47)"/><path class="cls-3" d="M99.73,515.29c2.7,6.87,7,11.59,9.68,10.55s2.6-7.45-.1-14.31-7-11.59-9.68-10.55S97,508.43,99.73,515.29Z"/><ellipse class="cls-3" cx="139.68" cy="400.41" rx="31.57" ry="15.44" transform="translate(-266.43 278.29) rotate(-54.03)"/><ellipse class="cls-7" cx="134.4" cy="396.58" rx="25.57" ry="12.51" transform="translate(-265.51 272.42) rotate(-54.03)"/><path class="cls-3" d="M127.19,391.34c-4.34,6-6,12.17-3.68,13.84s7.67-1.82,12-7.79,6-12.16,3.68-13.83S131.52,385.37,127.19,391.34Z"/><ellipse class="cls-3" cx="779.18" cy="365.96" rx="14.47" ry="29.59" transform="translate(-76.57 459.42) rotate(-31.39)"/><ellipse class="cls-7" cx="773.96" cy="369.15" rx="11.72" ry="23.97" transform="matrix(0.85, -0.52, 0.52, 0.85, -79, 457.16)"/><path class="cls-3" d="M766.83,373.49c3.6,5.91,8.36,9.57,10.64,8.18s1.2-7.3-2.41-13.2-8.36-9.56-10.63-8.18S763.23,367.59,766.83,373.49Z"/><ellipse class="cls-3" cx="802.78" cy="332.63" rx="16.98" ry="34.71" transform="matrix(0.85, -0.52, 0.52, 0.85, -55.76, 466.83)"/><ellipse class="cls-7" cx="796.65" cy="336.37" rx="13.75" ry="28.12" transform="translate(-58.61 464.19) rotate(-31.39)"/><ellipse class="cls-3" cx="793.12" cy="338.53" rx="5.66" ry="14.69" transform="translate(-60.25 462.66) rotate(-31.39)"/><path class="cls-3" d="M713.84,292.79c9.1,12.33,21.36,18.71,27.39,14.26s3.54-18.05-5.55-30.38-21.37-18.71-27.4-14.26S704.74,280.46,713.84,292.79Z"/><ellipse class="cls-7" cx="720.14" cy="288.14" rx="10.99" ry="22.47" transform="translate(-30.38 483.97) rotate(-36.43)"/><path class="cls-3" d="M713.84,292.79c3.85,5.21,8.6,8.24,10.61,6.76s.52-6.92-3.33-12.13-8.6-8.25-10.61-6.76S710,287.57,713.84,292.79Z"/><ellipse class="cls-3" cx="691.54" cy="190.2" rx="18.72" ry="9.16" transform="translate(482.65 876.32) rotate(-88.45)"/><ellipse class="cls-7" cx="687.67" cy="190.09" rx="15.16" ry="7.42" transform="translate(478.99 872.35) rotate(-88.45)"/><path class="cls-3" d="M682.39,190c-.12,4.37,1.15,8,2.83,8s3.15-3.46,3.27-7.84-1.15-8-2.84-8S682.51,185.58,682.39,190Z"/><ellipse class="cls-3" cx="747.68" cy="269.6" rx="16.98" ry="34.71" transform="translate(-13.98 496.7) rotate(-36.43)"/><path class="cls-7" d="M730.83,282c9.22,12.49,21.65,19,27.76,14.46s3.59-18.3-5.63-30.79-21.65-19-27.76-14.46S721.61,269.53,730.83,282Z"/><path class="cls-3" d="M734,279.68c4.81,6.53,10.76,10.31,13.27,8.45s.65-8.65-4.17-15.17-10.76-10.32-13.27-8.46S729.2,273.15,734,279.68Z"/><ellipse class="cls-3" cx="714.9" cy="194.09" rx="27.74" ry="13.57" transform="translate(501.48 903.46) rotate(-88.45)"/><ellipse class="cls-7" cx="709.16" cy="193.94" rx="22.47" ry="10.99" transform="translate(496.05 897.57) rotate(-88.45)"/><ellipse class="cls-3" cx="705.86" cy="193.85" rx="11.74" ry="4.52" transform="translate(492.93 894.18) rotate(-88.45)"/><path class="cls-6" d="M494.53,958.62c9.91,14.44,17.76,30.19,27.23,44.92s20.89,28.72,36,37.62c11.1,6.55,24.49,9.94,37.12,8.37q2.26,6.39,4.29,12.85c-11.3,34.61-84.94,38.46-100.32-31.88C491.44,996.79,463,931,419.12,894.73A190.69,190.69,0,0,1,494.53,958.62Z"/><path class="cls-7" d="M437.93,873.2c47.58,15.56,86.16,51.72,114.49,93a359.82,359.82,0,0,1,42.43,83.33c-12.63,1.57-26-1.82-37.12-8.37-15.08-8.9-26.5-22.89-36-37.62s-17.32-30.48-27.23-44.92a190.69,190.69,0,0,0-75.41-63.89c-17-14-36.33-23.61-57.66-25.17C387.57,865.53,412.82,865,437.93,873.2Z"/><ellipse class="cls-3" cx="565.89" cy="1003.35" rx="16.26" ry="33.25" transform="translate(-405.55 384.27) rotate(-28.07)"/><ellipse class="cls-7" cx="571.96" cy="1000.11" rx="13.17" ry="26.94" transform="translate(-403.31 386.75) rotate(-28.07)"/><path class="cls-3" d="M580.24,995.7c-3.66-6.86-8.76-11.27-11.4-9.86s-1.82,8.11,1.83,15,8.76,11.27,11.41,9.87S583.9,1002.56,580.24,995.7Z"/><ellipse class="cls-3" cx="530.46" cy="1019.8" rx="20.55" ry="42.03" transform="translate(-417.45 369.53) rotate(-28.07)"/><path class="cls-7" d="M552.83,1007.88c-8.85-16.59-22.6-26.53-30.71-22.21s-7.52,21.29,1.32,37.87,22.6,26.53,30.71,22.21S561.67,1024.47,552.83,1007.88Z"/><ellipse class="cls-3" cx="542.55" cy="1013.35" rx="6.85" ry="17.78" transform="translate(-413 374.47) rotate(-28.07)"/><path class="cls-3" d="M536,928.07c-8.39-11.9-19.9-18.21-25.71-14.11s-3.74,17.07,4.65,29,19.9,18.21,25.71,14.1S544.37,940,536,928.07Z"/><ellipse class="cls-7" cx="529.91" cy="932.35" rx="10.44" ry="21.34" transform="translate(-440.46 475.77) rotate(-35.19)"/><path class="cls-3" d="M536,928.07c-3.55-5-8-8-9.93-6.64S525.41,928,529,933s8,8,9.93,6.63S539.53,933.1,536,928.07Z"/><path class="cls-3" d="M508.54,938c-10.6-15-25.15-23-32.5-17.83s-4.72,21.57,5.88,36.6,25.15,23,32.5,17.83S519.14,953.06,508.54,938Z"/><ellipse class="cls-7" cx="500.86" cy="943.44" rx="13.19" ry="26.97" transform="matrix(0.82, -0.58, 0.58, 0.82, -452.16, 461.06)"/><path class="cls-3" d="M508.54,938c-4.48-6.36-10.11-10.11-12.56-8.39s-.8,8.29,3.69,14.65,10.1,10.11,12.55,8.38S513,944.39,508.54,938Z"/><ellipse class="cls-3" cx="138.26" cy="489.85" rx="18.7" ry="38.24" transform="translate(-169.71 84.6) rotate(-21.47)"/><ellipse class="cls-7" cx="130.9" cy="492.74" rx="15.15" ry="30.97" transform="translate(-171.28 82.11) rotate(-21.47)"/><path class="cls-3" d="M120.86,496.69c3.27,8.32,8.52,14,11.72,12.78s3.15-9-.12-17.34-8.52-14-11.72-12.77S117.59,488.38,120.86,496.69Z"/></svg>