<svg id="Layer_1" data-name="Layer 1" xmlns="http://www.w3.org/2000/svg" xmlns:xlink="http://www.w3.org/1999/xlink" viewBox="0 0 137.11 143.8"><defs><style>.cls-1{fill:none;clip-rule:evenodd;}.cls-11,.cls-2{fill:#1a1a1a;}.cls-12,.cls-13,.cls-14,.cls-16,.cls-18,.cls-19,.cls-2,.cls-3,.cls-4,.cls-5,.cls-6,.cls-8,.cls-9{fill-rule:evenodd;}.cls-3{fill:#f4c986;}.cls-4{fill:#ffdead;}.cls-5{fill:#7d561f;}.cls-6{fill:#dc0000;}.cls-7{clip-path:url(#clip-path);}.cls-9{fill:#4d4d4d;}.cls-10{clip-path:url(#clip-path-2);}.cls-12{fill:#fef7cb;}.cls-13{fill:#063;}.cls-14{fill:#b3b3b3;}.cls-15{clip-path:url(#clip-path-3);}.cls-16{fill:#666;}.cls-17{clip-path:url(#clip-path-4);}.cls-18{fill:#fff;}.cls-19{fill:#00a859;}</style><clipPath id="clip-path"><path class="cls-1" d="M102.22,144l-11.08.39c-4.24-12.23-12.62-33.49-5.26-35.95C92.91,106.13,102.94,142.45,102.22,144Z"/></clipPath><clipPath id="clip-path-2"><path class="cls-1" d="M35.89,143.6,47.2,144c4.24-12.24,10-33.5,2.65-35.95C42.82,105.7,35.18,142,35.89,143.6Z"/></clipPath><clipPath id="clip-path-3"><path class="cls-1" d="M82.56,115.66c7,4,20,10.45,19.76,13-1.19,2.82-11.37,11.3-19.89,11.91C72,137.59,72.05,121.5,82.56,115.66Z"/></clipPath><clipPath id="clip-path-4"><path class="cls-1" d="M54.13,114.14c-7.22,4.18-20.58,10.78-20.39,13.39,1.24,2.91,11.74,11.66,20.54,12.28C65,136.77,65,120.17,54.13,114.14Z"/></clipPath></defs><path class="cls-2" d="M55.09,105c6.69-.6,15.84-1.38,24-.17,11.34,2.34,12.24,26.53,15,39.34-26.74.18-24.6-.52-51.13-.34C44.2,136.7,39.85,106.75,55.09,105Z"/><path class="cls-3" d="M75.67,91.82l-14-.94c0,.25.48,6.77.81,13.17,0,.61-2.23.7-3.76.88-2.27.27.81-1.28,2,7.45.64,3.34,4.43,20.27,7.58,20.43,2.08-2,6.45-19,10.3-23.92,1.46-2.9.74-4.81-3.89-4.34C74.16,97.87,75.11,98.46,75.67,91.82Z"/><path class="cls-4" d="M91.58,78.35c1.77-5.55,2-28.9-1.85-37.93C88,35,73.89,31.9,67.57,31.9c-19.5,0-29.86,6.07-28,25.9.54,5.62,1.18,25,5.82,28.7,3.89,3.06,13.84,19.16,28,11.15C78.84,94.57,90.78,84.29,91.58,78.35Z"/><path class="cls-5" d="M79.42,70.89a1.31,1.31,0,1,0-1.31-1.31A1.31,1.31,0,0,0,79.42,70.89Z"/><path class="cls-6" d="M69,75.94a3.68,3.68,0,0,0-2.38.64,3.72,3.72,0,0,0-2.39-.64c-1.05,0-3.62,1.16-5.83,2.31-1.27.66-3.77-.26-4.44.16a31.5,31.5,0,0,1,4.93,3.31,10.41,10.41,0,0,0,15.45,0c.78-.72,3.82-1.9,4-3-.52-.33-1.76.51-2.69,0C73.28,77.42,70.16,75.94,69,75.94Z"/><path class="cls-3" d="M102.22,144l-11.08.39c-4.24-12.23-12.62-33.49-5.26-35.95C92.91,106.13,102.94,142.45,102.22,144Z"/><g class="cls-7"><path class="cls-8" d="M102.37,139.29c-.31.07-.63.13-1,.18l0,0-.06.05a34.86,34.86,0,0,1-4.21.43,14.65,14.65,0,0,0,3.26-2.59c.25-.24.43-.42.5-.47l-.22-.36a5,5,0,0,0-.58.53,13.49,13.49,0,0,1-3.28,2.57l-.67.36c-1.68.06-3.37.06-5,0H90.1v.43h1.07c1.35,0,2.76,0,4.18,0-1.67,1-3.74,2.13-5.2,2.13V143a3.51,3.51,0,0,0,.55-.05V143l1.08,0c1.34.05,2.76.1,4.18.12h0c-1.71.89-3.82,2-5.28,2v.42c1.56.06,3.73-1.08,5.48-2l.72-.37a36.11,36.11,0,0,0,6.21-.46l-.07-.42a32.31,32.31,0,0,1-5.26.45,14.59,14.59,0,0,0,3.35-2.48l.42-.37.95-.19Zm-6.11,1.09a40.37,40.37,0,0,0,4.49-.37,13.56,13.56,0,0,1-3.31,2.4c-.21.09-.44.21-.69.33-1.65,0-3.32-.06-4.89-.12a24.05,24.05,0,0,0,3.7-1.84Z"/><path class="cls-9" d="M89.14,139c.83-.39,11.77-3.83,12.09-4.38.83,1.74.24,2.24-1.94,3-1.47.53-9.8,4.47-10,1.82A1.35,1.35,0,0,0,89.14,139Z"/></g><path class="cls-3" d="M35.89,143.6,47.2,144c4.24-12.24,10-33.5,2.65-35.95C42.82,105.7,35.18,142,35.89,143.6Z"/><g class="cls-10"><path class="cls-8" d="M36.19,139.34c.29.07.6.13.91.18l0,0,.06,0a34.43,34.43,0,0,0,4.06.41,13.79,13.79,0,0,1-3.15-2.49c-.24-.24-.41-.41-.48-.46l.21-.35a4.69,4.69,0,0,1,.56.51,13.18,13.18,0,0,0,3.17,2.49l.64.34c1.63.06,3.26.06,4.8,0h1v.41H47c-1.3,0-2.66,0-4,0,1.62.91,3.62,2,5,2v.42a3.26,3.26,0,0,1-.52-.05v.08l-1,0c-1.3,0-2.67.11-4,.12h0c1.65.86,3.69,1.93,5.09,1.88v.41c-1.51,0-3.6-1-5.29-1.93l-.69-.35a34.89,34.89,0,0,1-6-.45l.08-.4a31.2,31.2,0,0,0,5.07.43,14.3,14.3,0,0,1-3.24-2.38c-.17-.16-.3-.29-.4-.37-.31,0-.61-.11-.91-.18Zm5.89,1.06a39.91,39.91,0,0,1-4.33-.36,12.85,12.85,0,0,0,3.2,2.32l.65.32c1.6,0,3.21-.06,4.72-.12a24.24,24.24,0,0,1-3.57-1.78Z"/><path class="cls-9" d="M49,139.11c-.8-.38-11.36-3.7-11.67-4.24-.8,1.68-.23,2.17,1.87,2.93,1.42.51,9.47,4.3,9.7,1.75A1.19,1.19,0,0,1,49,139.11Z"/></g><rect class="cls-11" x="105.15" y="61.01" width="2.13" height="13.35"/><rect class="cls-11" x="101.73" y="64.16" width="9.34" height="2.5"/><path class="cls-8" d="M73.56,13.58c16.69,0,32.34,19,26.65,38.18-.06.17-7.87,25.92-7.27,19.73C94.71,53.15,83.29,31.37,73.56,13.58Z"/><path d="M73.56,13.58v.19c7.09,0,14,3.46,19.14,8.92a30.83,30.83,0,0,1,8.51,20.9A28.46,28.46,0,0,1,100,51.71c0,.07-1.59,5.24-3.27,10.39-.84,2.58-1.7,5.15-2.41,7.07-.36,1-.68,1.76-.93,2.32a6.64,6.64,0,0,1-.33.63l-.1.14h0l.05.08v-.09H93l.05.08v0l.1-.08-.1,0v.12l.1-.08,0,0,.06,0h0l0,0,.06,0h0a1.26,1.26,0,0,1,0-.26,4.26,4.26,0,0,1,0-.54c.12-1.29.18-2.59.18-3.91C93.31,50,82.78,30,73.73,13.49l-.17.09v0l-.17.09C82.45,30.21,92.93,50.2,92.93,67.59c0,1.3-.06,2.6-.18,3.88a4.43,4.43,0,0,0,0,.57,1.23,1.23,0,0,0,0,.36l.07.15a.26.26,0,0,0,.19.09.34.34,0,0,0,.24-.12,2,2,0,0,0,.31-.47,43.18,43.18,0,0,0,1.76-4.47c2.13-6.1,5-15.66,5.07-15.77a28.8,28.8,0,0,0,1.2-8.22c0-16.17-13.6-30.19-28-30.21h-.32l.15.29Z"/><path class="cls-12" d="M87.39,37.81C89.14,33.74,90,25.26,87,21.9c-2.43-2.73-6.74-.32-10.31-2.89-3.19-2.3-4.11-7.87-8.14-8.5C30.54,4.56,45.74,21,43.83,21,36,21,25.49,24.74,35.18,31.62c2.63,1.87-21.28,14.44-3,21.57.93.36-16.66,17.43-.19,24,8.08,3.21-.43-2.83,1.77,7.94,1,5.07,12.54,13.35,19.63,9.19C56,92.78,43.36,87,42.22,76.1a34.76,34.76,0,0,1,6.4-23.2C55.43,43.07,61.78,37.19,74,34.32,80.83,32.71,91.65,42.71,87.39,37.81Z"/><path class="cls-8" d="M100.63,19a5.38,5.38,0,0,1,.26,7.6,5.38,5.38,0,0,1-7.6-.25,5.38,5.38,0,0,1-.26-7.6A5.38,5.38,0,0,1,100.63,19Z"/><path class="cls-13" d="M60.76,113.25a1.78,1.78,0,0,1,1.84,1.82,2,2,0,0,1-2,1.81,1.77,1.77,0,0,1-1.84-1.81A2,2,0,0,1,60.76,113.25Z"/><path class="cls-13" d="M61.73,116.38a1.76,1.76,0,0,1,1.83,1.81,2,2,0,0,1-2,1.82,1.78,1.78,0,0,1-1.84-1.82A2,2,0,0,1,61.73,116.38Z"/><path class="cls-13" d="M62.42,119a1.76,1.76,0,0,1,1.83,1.82,2,2,0,0,1-2,1.81,1.77,1.77,0,0,1-1.83-1.81A2,2,0,0,1,62.42,119Z"/><path class="cls-13" d="M64.3,122a1.76,1.76,0,0,1,1.83,1.81,2,2,0,0,1-2,1.82,1.78,1.78,0,0,1-1.84-1.82A2,2,0,0,1,64.3,122Z"/><path class="cls-13" d="M66.2,124.65A1.76,1.76,0,0,1,68,126.47a2,2,0,0,1-2,1.81,1.77,1.77,0,0,1-1.83-1.81A2,2,0,0,1,66.2,124.65Z"/><path class="cls-13" d="M68.93,126.77a1.76,1.76,0,0,1,1.83,1.82,2,2,0,0,1-2,1.81,1.77,1.77,0,0,1-1.83-1.81A2,2,0,0,1,68.93,126.77Z"/><path class="cls-13" d="M72.12,125.46A1.77,1.77,0,0,1,74,127.27a2,2,0,0,1-2,1.82,1.76,1.76,0,0,1-1.83-1.82A2,2,0,0,1,72.12,125.46Z"/><path class="cls-13" d="M74.64,123.14A1.77,1.77,0,0,1,76.48,125a2,2,0,0,1-2,1.82A1.78,1.78,0,0,1,72.64,125,2,2,0,0,1,74.64,123.14Z"/><path class="cls-13" d="M75.69,120.11a1.76,1.76,0,0,1,1.83,1.82,2,2,0,0,1-2,1.81,1.76,1.76,0,0,1-1.83-1.81A2,2,0,0,1,75.69,120.11Z"/><path class="cls-13" d="M76.33,117.08a1.77,1.77,0,0,1,1.83,1.82,2,2,0,0,1-2,1.82,1.77,1.77,0,0,1-1.83-1.82A2,2,0,0,1,76.33,117.08Z"/><path class="cls-13" d="M76.47,114a1.76,1.76,0,0,1,1.83,1.81,2,2,0,0,1-2,1.82,1.78,1.78,0,0,1-1.84-1.82A2,2,0,0,1,76.47,114Z"/><path class="cls-13" d="M76.62,110.63a1.77,1.77,0,0,1,1.84,1.81,2,2,0,0,1-2,1.82,1.78,1.78,0,0,1-1.84-1.82A2,2,0,0,1,76.62,110.63Z"/><path class="cls-13" d="M60.8,110.12a1.78,1.78,0,0,1,1.84,1.82,2,2,0,0,1-2,1.81,1.77,1.77,0,0,1-1.84-1.81A2,2,0,0,1,60.8,110.12Z"/><path class="cls-13" d="M76.88,107.2A1.76,1.76,0,0,1,78.71,109a2,2,0,0,1-2,1.82A1.76,1.76,0,0,1,74.88,109,2,2,0,0,1,76.88,107.2Z"/><path class="cls-13" d="M60.85,106.79a1.78,1.78,0,0,1,1.84,1.82,2,2,0,0,1-2,1.81,1.77,1.77,0,0,1-1.84-1.81A2,2,0,0,1,60.85,106.79Z"/><path class="cls-13" d="M61.08,104a1.78,1.78,0,0,1,1.84,1.82,2,2,0,0,1-2,1.81,1.77,1.77,0,0,1-1.84-1.81A2,2,0,0,1,61.08,104Z"/><path class="cls-13" d="M76.21,104.17A1.77,1.77,0,0,1,78,106a2,2,0,0,1-2,1.81A1.76,1.76,0,0,1,74.21,106,2,2,0,0,1,76.21,104.17Z"/><path class="cls-8" d="M95.13,27l4.79-3.17c3.88-.17,13.89,1.15,14,6.46.07,3.18-7.62.06-6.24,3.14,2.08,4.66-5,14.94-11.13-2.52C96.42,30.43,95.29,27.1,95.13,27Z"/><path class="cls-8" d="M92,22.73,96.39,19c1.27-3.68,2.86-13.65-2.19-15.28-3-1-2.23,7.29-4.79,5.09-3.88-3.33-15.75.56-.75,11.38C89,20.49,91.89,22.53,92,22.73Z"/><path class="cls-8" d="M104.55,37.78l-1.19.76c0,5.75,2.15,4.68-.26,12.86-2.84,9.63,3.5,11.56,5.43,7.86.48-.92-1.7-1.56-1.7-6.27C106.83,46.87,110.34,43.6,104.55,37.78Zm.25.65c3.25,5.33,1.28,8.33,1.28,13.92,0,4.32,1.34,5.74,1,6.57-.86,2.18-4.61.56-2.62-8.19,1.85-8.08-.34-6.34-.34-11.6Z"/><path d="M104.55,37.78l-.1-.16-1.28.82v.1a16.77,16.77,0,0,0,.44,4,11.28,11.28,0,0,1,.44,2.88,21.61,21.61,0,0,1-1.13,5.92,16,16,0,0,0-.73,4.49,6.55,6.55,0,0,0,1.14,4,3.08,3.08,0,0,0,5.37-.52.77.77,0,0,0,.09-.36,1.58,1.58,0,0,0-.3-.78,8.65,8.65,0,0,1-.92-1.74A9.83,9.83,0,0,1,107,53c0-3.31,1-5.79,1.06-8.38,0-2.14-.75-4.31-3.39-7l-.11-.11-.13.08.1.16-.13.14c2.59,2.61,3.27,4.65,3.27,6.69,0,2.48-1,5-1,8.38a9.37,9.37,0,0,0,.9,4.37c.23.45.46.78.62,1a1.23,1.23,0,0,1,.25.58.31.31,0,0,1,0,.18,2.7,2.7,0,0,1-4.73.47,6.2,6.2,0,0,1-1.06-3.81,15.38,15.38,0,0,1,.72-4.38,22.19,22.19,0,0,0,1.15-6,12.1,12.1,0,0,0-.45-3,16,16,0,0,1-.44-3.91h-.19l.1.16,1.19-.76-.1-.16-.13.14Zm.25.65-.16.1a11.17,11.17,0,0,1,1.84,6.15c0,2.29-.59,4.58-.59,7.67a15.88,15.88,0,0,0,.54,4.3,11.82,11.82,0,0,1,.52,2,.56.56,0,0,1,0,.23,1,1,0,0,1-.92.75c-.38,0-.85-.27-1.23-1a7,7,0,0,1-.67-3.38,20.08,20.08,0,0,1,.57-4.47,23.55,23.55,0,0,0,.74-5.08,8.15,8.15,0,0,0-.55-3,10.55,10.55,0,0,1-.53-3.62h-.19l.14.13.67-.7-.14-.13-.16.1.16-.1-.14-.13-.72.75v.08a11.17,11.17,0,0,0,.55,3.74A8,8,0,0,1,105,45.7a23.64,23.64,0,0,1-.73,5,20.89,20.89,0,0,0-.58,4.56,7.53,7.53,0,0,0,.71,3.56A1.93,1.93,0,0,0,106,60a1.42,1.42,0,0,0,1.28-1,1.15,1.15,0,0,0,.06-.37,11.53,11.53,0,0,0-.53-2.07,15.12,15.12,0,0,1-.53-4.2c0-3,.59-5.31.59-7.67a11.47,11.47,0,0,0-1.9-6.35l-.13-.21-.17.18Z"/><path class="cls-8" d="M54.38,109.42,49.49,107c-2.63-.08-12.07,6.79-9.9,8.91,2,2,12.06,3.47,15.33,3.47Z"/><path class="cls-8" d="M82.27,119.19l-.1-10.64c3.08-5.76,15.69,1,16,3.92,0,.35.11.37.33.64C97.85,117.84,86,119.19,82.27,119.19Z"/><path class="cls-14" d="M82.56,115.66c7,4,20,10.45,19.76,13-1.19,2.82-11.37,11.3-19.89,11.91C72,137.59,72.05,121.5,82.56,115.66Z"/><g class="cls-15"><polygon class="cls-16" points="98.45 122.99 102.67 128.52 77.66 120.57 83.67 116.01 98.45 122.99"/><polygon class="cls-16" points="100.8 132.8 102.25 129.07 78.42 135.22 84.91 141.09 100.8 132.8"/></g><path class="cls-14" d="M54.13,114.14c-7.22,4.18-20.58,10.78-20.39,13.39,1.24,2.91,11.74,11.66,20.54,12.28C65,136.77,65,120.17,54.13,114.14Z"/><g class="cls-17"><polygon class="cls-16" points="37.74 121.7 33.39 127.41 59.2 119.21 52.99 114.5 37.74 121.7"/><polygon class="cls-16" points="35.31 131.83 33.81 127.98 58.41 134.32 51.71 140.38 35.31 131.83"/></g><path class="cls-18" d="M103.13,128.47a54.69,54.69,0,0,1,4.28,6.7,54.84,54.84,0,0,1-5.49-5.76,27.36,27.36,0,0,1-.8,3.43,28.78,28.78,0,0,1,0-3.52,55.61,55.61,0,0,1-6.7,4.29,54.84,54.84,0,0,1,5.76-5.49,29.69,29.69,0,0,1-3.43-.8,29.86,29.86,0,0,1,3.52,0,55.61,55.61,0,0,1-4.29-6.7,54.84,54.84,0,0,1,5.49,5.76,29.69,29.69,0,0,1,.8-3.43,28.78,28.78,0,0,1,0,3.52,54.69,54.69,0,0,1,6.7-4.28,54.06,54.06,0,0,1-5.75,5.49,28.62,28.62,0,0,1,3.43.79A27.44,27.44,0,0,1,103.13,128.47Z"/><path class="cls-18" d="M35.83,128a54.69,54.69,0,0,1,4.28,6.7A55.26,55.26,0,0,1,34.62,129a26.89,26.89,0,0,1-.8,3.42,28.59,28.59,0,0,1,0-3.51,54.69,54.69,0,0,1-6.7,4.28,54.84,54.84,0,0,1,5.76-5.49,29.69,29.69,0,0,1-3.43-.8,28.78,28.78,0,0,1,3.52,0,54.69,54.69,0,0,1-4.28-6.7A56.54,56.54,0,0,1,34.22,126a28.72,28.72,0,0,1,.79-3.42,28.74,28.74,0,0,1,0,3.52,53.76,53.76,0,0,1,6.71-4.29,54.84,54.84,0,0,1-5.76,5.49,29.69,29.69,0,0,1,3.43.8A28.78,28.78,0,0,1,35.83,128Z"/><path class="cls-19" d="M60.17,106.69a1.82,1.82,0,1,0-1.91-1.81A1.87,1.87,0,0,0,60.17,106.69Z"/><path class="cls-19" d="M61.28,109.82A1.82,1.82,0,1,0,59.37,108,1.88,1.88,0,0,0,61.28,109.82Z"/><path class="cls-19" d="M62.09,112.44a1.82,1.82,0,1,0-1.92-1.81A1.87,1.87,0,0,0,62.09,112.44Z"/><path class="cls-19" d="M64.11,115.47a1.82,1.82,0,1,0-1.92-1.82A1.87,1.87,0,0,0,64.11,115.47Z"/><path class="cls-19" d="M66.13,118.09a1.82,1.82,0,1,0-1.92-1.81A1.86,1.86,0,0,0,66.13,118.09Z"/><path class="cls-19" d="M69,120.21A1.82,1.82,0,1,0,67,118.4,1.87,1.87,0,0,0,69,120.21Z"/><path class="cls-19" d="M72.08,118.9a1.82,1.82,0,1,0-1.92-1.82A1.88,1.88,0,0,0,72.08,118.9Z"/><path class="cls-19" d="M74.5,116.58a1.82,1.82,0,1,0-1.92-1.82A1.88,1.88,0,0,0,74.5,116.58Z"/><path class="cls-19" d="M75.41,113.55a1.82,1.82,0,1,0-1.92-1.81A1.87,1.87,0,0,0,75.41,113.55Z"/><path class="cls-19" d="M75.91,110.53A1.82,1.82,0,1,0,74,108.71,1.88,1.88,0,0,0,75.91,110.53Z"/><path class="cls-19" d="M75.91,107.4A1.82,1.82,0,1,0,74,105.58,1.88,1.88,0,0,0,75.91,107.4Z"/></svg>