<svg id="Layer_1" data-name="Layer 1" xmlns="http://www.w3.org/2000/svg" viewBox="0 0 150 150"><defs><style>.cls-1{fill:#723a15;}.cls-2{fill:#efe7df;}.cls-3{fill:#5b290e;}.cls-4{fill:#56514e;}.cls-5{fill:#e5d7ca;}.cls-6{fill:#b36b31;}.cls-7{fill:#b15a51;}.cls-8{fill:#d8c3b0;}.cls-9{fill:#4f342f;}.cls-10{fill:#181619;}.cls-11{fill:#985626;}.cls-12{fill:#4e292c;}.cls-13{fill:#fff;}</style></defs><title>fox</title><path class="cls-1" d="M123.6,97s-9.53-.56-13.13,3.34l1,.16s-5.32,2.21-7.29,7.43l1.36-.38h0a18.88,18.88,0,0,0-1.14,2.1c-.3.56-.61,1.11-.94,1.66a18.18,18.18,0,0,1-10.13,8.11c-4.2,1.38-9.81,1.71-13.48-1.21a14.11,14.11,0,0,1-4.58-7.76l-10.36,1.66c-.57.1.14,3,.19,3.23a24.85,24.85,0,0,0,3,7.43c4,6.29,12.38,8.85,19.37,9.58a42.26,42.26,0,0,0,20.7-2.85,53.56,53.56,0,0,0,7.2-3.58h0l-.46,1.53s6.23-3.12,8.08-7.53a4.9,4.9,0,0,1,0,2.26s3.77-4.36,4.62-9.47a16.52,16.52,0,0,1,0,3.7S133.08,103.21,123.6,97Z"/><path class="cls-2" d="M123.6,97s-9.53-.56-13.13,3.34l1,.16s-5.32,2.21-7.29,7.43l1.36-.38h0a18.88,18.88,0,0,0-1.14,2.1c-.3.56-.61,1.11-.94,1.66a19.06,19.06,0,0,1-3.08,3.89,30.06,30.06,0,0,1,4.41-1.52c-2,2.31-3.41,5-5.43,7.28,2.22-1,4.47-1.89,6.76-2.66a55,55,0,0,1-4.4,6.82c3.41-.6,6.55-2.11,9.76-3.37a58.32,58.32,0,0,1-3.2,7.69,54.09,54.09,0,0,0,7.07-3.52h0l-.46,1.53s6.23-3.12,8.08-7.53a4.9,4.9,0,0,1,0,2.26s3.77-4.36,4.62-9.47a16.52,16.52,0,0,1,0,3.7S133.08,103.21,123.6,97Z"/><path class="cls-3" d="M68.66,101.64H47.11l3,27.92c-1.4,1.51-2.26,3.16-2.26,4,0,1.77,3.85,3.2,8.61,3.2s8.6-1.43,8.6-3.2v-.09Z"/><path class="cls-4" d="M49.49,135.66a.22.22,0,0,1-.22-.19,4,4,0,0,1,1.21-3.27.22.22,0,0,1,.32,0,.23.23,0,0,1,0,.32,3.65,3.65,0,0,0-1.08,2.87.23.23,0,0,1-.18.26Z"/><path class="cls-4" d="M52,136.33a.23.23,0,0,1-.22-.18A4,4,0,0,1,53,132.87a.22.22,0,1,1,.31.32,3.65,3.65,0,0,0-1.08,2.87.23.23,0,0,1-.18.26Z"/><path class="cls-4" d="M55.24,137a.21.21,0,0,1-.21-.18,3.58,3.58,0,0,1,1.07-2.91.22.22,0,1,1,.31.32,3.2,3.2,0,0,0-.95,2.51.21.21,0,0,1-.17.26Z"/><path class="cls-3" d="M73.56,101.64H95.11l-3,27.92c1.4,1.51,2.26,3.16,2.26,4,0,1.77-3.85,3.2-8.61,3.2s-8.6-1.43-8.6-3.2v-.09Z"/><path class="cls-4" d="M92.73,135.66a.22.22,0,0,0,.22-.19,4,4,0,0,0-1.21-3.27.22.22,0,0,0-.32,0,.23.23,0,0,0,0,.32,3.65,3.65,0,0,1,1.08,2.87.23.23,0,0,0,.18.26Z"/><path class="cls-4" d="M90.18,136.33a.23.23,0,0,0,.22-.18,4,4,0,0,0-1.21-3.28.22.22,0,1,0-.31.32A3.65,3.65,0,0,1,90,136.06a.23.23,0,0,0,.18.26Z"/><path class="cls-4" d="M87,137a.22.22,0,0,0,.22-.18,3.58,3.58,0,0,0-1.07-2.91.22.22,0,1,0-.31.32,3.2,3.2,0,0,1,1,2.51.21.21,0,0,0,.17.26Z"/><path class="cls-5" d="M114.59,92.13a1,1,0,1,0,0-1.57A1.13,1.13,0,0,0,114.59,92.13Z"/><path class="cls-5" d="M118.94,90.44a1.27,1.27,0,1,0,0-2A1.46,1.46,0,0,0,118.94,90.44Z"/><path class="cls-5" d="M116.81,92a1.49,1.49,0,0,0,2,.55,1.67,1.67,0,1,0-2-.55Z"/><path class="cls-3" d="M104.19,59.84c6.43.73,13.62,14.6,15.37,20.1.55,1.74,3.42,8,.35,10.41a5.76,5.76,0,0,1-4.4,1.42C113,91.32,108,85,106.86,83.58c-2.21-2.8-4.31-5.71-6.34-8.64-.8-1.14-1.59-2.28-2.36-3.44C93.61,64.72,99.67,59.34,104.19,59.84Z"/><path class="cls-5" d="M113.24,89.78c.35,1.08,1.79,1.57,3.22,1.11s2.32-1.71,2-2.78-1.79-1.58-3.22-1.12S112.89,88.7,113.24,89.78Z"/><path class="cls-5" d="M27.56,92.13A1,1,0,1,1,26,91a1,1,0,1,1,1.54,1.15Z"/><path class="cls-5" d="M23.21,90.44a1.44,1.44,0,0,1-1.94.55,1.65,1.65,0,0,1,1.91-2.56A1.44,1.44,0,0,1,23.21,90.44Z"/><path class="cls-5" d="M25.34,92a1.48,1.48,0,0,1-2,.55,1.68,1.68,0,1,1,2-.55Z"/><path class="cls-3" d="M38,59.84c-6.44.73-13.63,14.6-15.37,20.1-.56,1.74-3.43,8-.36,10.41a5.77,5.77,0,0,0,4.4,1.42c2.51-.45,7.53-6.77,8.65-8.19,2.21-2.8,4.31-5.71,6.34-8.64.8-1.14,1.59-2.28,2.37-3.44C48.54,64.72,42.48,59.34,38,59.84Z"/><path class="cls-5" d="M28.91,89.78c-.35,1.08-1.79,1.57-3.22,1.11s-2.31-1.71-2-2.78S25.51,86.53,27,87,29.26,88.7,28.91,89.78Z"/><path class="cls-1" d="M36.4,57.38a75.14,75.14,0,0,0-4.69,24.94c0,25.57,17.63,39.83,39.38,39.83s39.38-14.26,39.38-39.83a75.16,75.16,0,0,0-4.7-24.94Z"/><path class="cls-6" d="M99.59,94.9c0,17.5-12.77,27.25-28.51,27.25S42.57,112.4,42.57,94.9,55.33,54.23,71.08,54.23,99.59,77.41,99.59,94.9Z"/><path class="cls-1" d="M62.65,30.91S53.08,9.63,47.72,13.44c-5.87,4.18-6.63,32.25-6.63,32.25S49.27,39.75,62.65,30.91Z"/><path class="cls-7" d="M57.3,35.1S49.9,17.86,48,18.16C42.32,19.07,42,45.05,42,45.05S46.54,42.2,57.3,35.1Z"/><path class="cls-1" d="M81.24,30.91S90.81,9.63,96.17,13.44c5.87,4.18,6.63,32.25,6.63,32.25S94.62,39.75,81.24,30.91Z"/><path class="cls-7" d="M86.59,35.1S94,17.86,95.85,18.16c5.72.91,6.07,26.89,6.07,26.89S97.35,42.2,86.59,35.1Z"/><path class="cls-5" d="M106.72,52.36l4.76,1.08c-1.63-3.9-6-5.61-6-5.61a5.38,5.38,0,0,0,3.45-2.08c-7.62-.6-12.38-6.4-12.38-6.4-6.86-9.74-15.74-16.49-25.44-16.49S52.48,29.63,45.61,39.39v0s-4.76,5.8-12.38,6.4a5.38,5.38,0,0,0,3.45,2.08s-4.39,1.71-6,5.61l4.76-1.08a6.39,6.39,0,0,0,1.21,4.35,1.46,1.46,0,0,1-.07.19S42.81,69,67.83,71.12h6.24c25-2.08,31.26-14.22,31.26-14.22h.27a1.8,1.8,0,0,0-.08-.21A6.43,6.43,0,0,0,106.72,52.36Z"/><path class="cls-2" d="M60.87,48s-2.85,5.53-3,7.51l3-1.32A14.77,14.77,0,0,0,70,66.34h2.12a14.77,14.77,0,0,0,9.13-12.13l3,1.32c-.14-2-3-7.51-3-7.51l3,1.43a13.1,13.1,0,0,0-1.42-4.56l.05,0c-2.87-2.63-7.09-4-11.79-4s-8.91,1.33-11.78,3.94a13.18,13.18,0,0,0-1.42,4.56Z"/><path class="cls-8" d="M82.87,44.91l-.05,0a13.1,13.1,0,0,1,1.42,4.56l-3-1.43s2.85,5.53,3,7.51l-3-1.32a14.77,14.77,0,0,1-9.13,12.13H70a14.77,14.77,0,0,1-9.13-12.13l-3,1.32c.14-2,3-7.51,3-7.51l-3,1.43a13.18,13.18,0,0,1,1.42-4.56,12.15,12.15,0,0,0-3.88,9.33c0,8.8,7,20.4,15.66,20.4S86.73,63,86.73,54.22A12.15,12.15,0,0,0,82.87,44.91Z"/><path class="cls-9" d="M67.31,73.54c-1.93,0-3.58-1.84-3.93-4.38a.2.2,0,0,1,.16-.22.19.19,0,0,1,.21.17c.33,2.35,1.82,4,3.56,4s3.22-1.7,3.55-4a.19.19,0,0,1,.21-.17.21.21,0,0,1,.17.22C70.88,71.7,69.23,73.54,67.31,73.54Z"/><path class="cls-9" d="M74.85,73.54c-1.93,0-3.58-1.84-3.93-4.38a.19.19,0,1,1,.37,0c.33,2.35,1.83,4,3.56,4s3.22-1.7,3.55-4a.19.19,0,1,1,.37,0C78.42,71.7,76.77,73.54,74.85,73.54Z"/><path class="cls-10" d="M76,65c0-2.1-2.2-2.41-4.92-2.41s-4.93.31-4.93,2.41a5.32,5.32,0,0,0,4.93,4.85A5.31,5.31,0,0,0,76,65Z"/><path class="cls-11" d="M106.72,52.36l4.76,1.08c-1.63-3.9-6-5.61-6-5.61a5.38,5.38,0,0,0,3.45-2.08c-7.62-.6-12.38-6.4-12.38-6.4-6.86-9.74-15.74-16.49-25.44-16.49S52.48,29.63,45.61,39.39v0s-4.76,5.8-12.38,6.4a5.38,5.38,0,0,0,3.45,2.08s-4.39,1.71-6,5.61l4.76-1.08a6.39,6.39,0,0,0,1.21,4.35,1.46,1.46,0,0,1-.07.19s3.28,6.38,14.62,10.69c0,0-7.13-7-6.83-11.77l2.75-.61-2.76-2.83S52.59,42.17,70.05,41H72.4c17.45,1.22,25.54,11.43,25.54,11.43l-2.76,2.83,2.75.61c.27,4.25-5.36,10.26-6.59,11.52,10.83-4.29,14-10.44,14-10.44h.27a1.8,1.8,0,0,0-.08-.21A6.43,6.43,0,0,0,106.72,52.36Z"/><path class="cls-12" d="M63.87,39.56A2.87,2.87,0,1,1,61,36.7,2.86,2.86,0,0,1,63.87,39.56Z"/><path class="cls-13" d="M60.8,38.67a.9.9,0,1,1-.89-.89A.89.89,0,0,1,60.8,38.67Z"/><path class="cls-13" d="M59.8,40.55a.4.4,0,0,1-.79,0,.4.4,0,1,1,.79,0Z"/><path class="cls-12" d="M84,39.56a2.87,2.87,0,1,1-2.86-2.86A2.86,2.86,0,0,1,84,39.56Z"/><path class="cls-13" d="M80.94,38.67a.89.89,0,1,1-.89-.89A.89.89,0,0,1,80.94,38.67Z"/><path class="cls-13" d="M79.94,40.55a.4.4,0,0,1-.39.39.4.4,0,0,1,0-.79A.4.4,0,0,1,79.94,40.55Z"/></svg>