<svg id="Layer_1" data-name="Layer 1" xmlns="http://www.w3.org/2000/svg" viewBox="0 0 213.57 533.91"><defs><style>.cls-1{fill:#7cb5db;}.cls-2{fill:#404041;}.cls-3{fill:#121112;}.cls-4{fill:#fff;}.cls-5{fill:#b6b7b8;}.cls-6{fill:#929294;}</style></defs><title>Vector_Beach_3</title><path class="cls-1" d="M143.67,41.5l-18.9-15.12h0l-8-6.38-8,6.38h0L89.91,41.5C35.53,85,14.68,152.93,21.14,222.27l19,222.27a77.18,77.18,0,0,0,70.34,67.62l1.89,17.78a4.43,4.43,0,0,0,8.35,1.57,4.62,4.62,0,0,0,.47-1.57l1.88-17.78a77.19,77.19,0,0,0,70.35-67.62l19-222.27C218.9,152.93,198,85,143.67,41.5Z"/><path class="cls-2" d="M96.79,492.43h0a77.2,77.2,0,0,1-76.64-67.89l-19-222.27C-5.32,132.93,15.53,65,69.91,21.5L96.79,0Z"/><path class="cls-3" d="M96.79,492.43h0a77.21,77.21,0,0,0,76.64-67.89l19-222.27C198.9,132.93,178,65,123.67,21.5L96.79,0Z"/><polygon class="cls-4" points="88.81 6.38 88.81 458.24 96.79 458.24 96.79 0 88.81 6.38"/><polygon class="cls-5" points="96.79 0 96.79 458.24 104.77 458.24 104.77 6.38 96.79 0"/><path class="cls-5" d="M96.79,513.91h0a4.43,4.43,0,0,1-4.41-4l-7-66.37a4.43,4.43,0,0,1,4.41-4.9h14.07a4.45,4.45,0,0,1,4.42,4.9l-7,66.37A4.45,4.45,0,0,1,96.79,513.91Z"/><path class="cls-6" d="M103.82,438.67h-7v75.24a4.45,4.45,0,0,0,4.41-4l7-66.37A4.45,4.45,0,0,0,103.82,438.67Z"/><path class="cls-5" d="M150.29,454.23h0a3,3,0,0,1-3.66-1.48l-19.5-39.89a3,3,0,0,1,1.64-4.07l8.8-3.2a3,3,0,0,1,3.88,2.06l10.7,43.09A3,3,0,0,1,150.29,454.23Z"/><path class="cls-6" d="M137.57,405.59l-4.4,1.6,17.12,47a3,3,0,0,0,1.86-3.49l-10.7-43.09A3,3,0,0,0,137.57,405.59Z"/><path class="cls-5" d="M43.28,454.23h0a3,3,0,0,0,3.66-1.48l19.5-39.89a3,3,0,0,0-1.64-4.07l-8.8-3.2a3,3,0,0,0-3.87,2.06l-10.7,43.09A3,3,0,0,0,43.28,454.23Z"/><path class="cls-4" d="M56,405.59l4.4,1.6-17.12,47a3,3,0,0,1-1.85-3.49l10.7-43.09A3,3,0,0,1,56,405.59Z"/></svg>