<svg id="Layer_1" data-name="Layer 1" xmlns="http://www.w3.org/2000/svg" viewBox="0 0 234.64 275.18"><defs><style>.cls-1{fill:#211f18;}.cls-2{fill:#1d1d1b;}.cls-3{fill:#675357;}.cls-4{fill:#421904;}.cls-5{fill:#fff;}.cls-6{fill:#160903;}</style></defs><title>black bear simple</title><path class="cls-1" d="M111.91,191.09H63.62l6.74,62.56c-3.15,3.39-5.07,7.08-5.07,9,0,4,8.63,7.19,19.29,7.19s19.29-3.22,19.29-7.19c0-.06,0-.13,0-.2Z"/><path class="cls-2" d="M68.94,267.31a.51.51,0,0,1-.49-.41c-.74-3.95,2.58-7.21,2.72-7.34a.5.5,0,1,1,.7.71s-3.08,3-2.44,6.45a.49.49,0,0,1-.39.58Z"/><path class="cls-2" d="M74.66,268.82a.49.49,0,0,1-.49-.41c-.74-4,2.58-7.21,2.72-7.35a.5.5,0,1,1,.69.72s-3.07,3-2.43,6.44a.5.5,0,0,1-.4.59Z"/><path class="cls-2" d="M81.84,270.35a.5.5,0,0,1-.49-.4c-.66-3.52,2.29-6.42,2.42-6.54a.5.5,0,0,1,.69.72s-2.69,2.65-2.13,5.63a.51.51,0,0,1-.39.59Z"/><path class="cls-1" d="M122.73,191.09H171l-6.73,62.56c3.14,3.39,5.06,7.08,5.06,9,0,4-8.63,7.19-19.29,7.19s-19.29-3.22-19.29-7.19c0-.06,0-.13,0-.2Z"/><path class="cls-2" d="M165.7,267.31h-.09a.49.49,0,0,1-.4-.58c.64-3.41-2.41-6.42-2.43-6.45a.5.5,0,1,1,.69-.71c.14.13,3.46,3.39,2.72,7.34A.5.5,0,0,1,165.7,267.31Z"/><path class="cls-2" d="M160,268.82h-.09a.51.51,0,0,1-.4-.59c.64-3.41-2.4-6.41-2.43-6.44a.5.5,0,1,1,.69-.72c.14.14,3.46,3.4,2.72,7.35A.49.49,0,0,1,160,268.82Z"/><path class="cls-2" d="M152.8,270.35h-.09a.51.51,0,0,1-.4-.59c.56-3-2.1-5.61-2.13-5.63a.5.5,0,0,1,.69-.72c.13.12,3.08,3,2.42,6.54A.49.49,0,0,1,152.8,270.35Z"/><path class="cls-3" d="M19.8,172c-.92,1.24-2.44,1.66-3.4.95s-1-2.29-.06-3.53,2.45-1.66,3.41-.95S20.73,170.79,19.8,172Z"/><path class="cls-3" d="M10.06,168.24c-1.18,1.59-3.14,2.13-4.36,1.22s-1.26-2.94-.08-4.53,3.14-2.13,4.37-1.21S11.24,166.66,10.06,168.24Z"/><path class="cls-3" d="M14.83,171.63c-1.2,1.61-3.19,2.16-4.43,1.23s-1.27-3-.07-4.59,3.18-2.16,4.42-1.23S16,170,14.83,171.63Z"/><path class="cls-1" d="M43.12,99.67c-14.41,1.62-30.53,32.71-34.44,45-1.24,3.89-7.68,18-.8,23.32,2.86,2.23,6.34,3.8,9.86,3.17,5.62-1,16.88-15.16,19.39-18.33,4.95-6.28,9.65-12.8,14.21-19.37,1.78-2.56,3.56-5.12,5.29-7.71C66.82,110.59,53.24,98.53,43.12,99.67Z"/><path class="cls-3" d="M22.83,166.75c-.78,2.42-4,3.53-7.22,2.49s-5.18-3.83-4.41-6.24,4-3.52,7.23-2.49S23.61,164.34,22.83,166.75Z"/><path class="cls-3" d="M214.84,172c.92,1.24,2.44,1.66,3.4.95s1-2.29.06-3.53-2.45-1.66-3.41-.95S213.91,170.79,214.84,172Z"/><path class="cls-3" d="M224.58,168.24c1.18,1.59,3.14,2.13,4.36,1.22s1.26-2.94.08-4.53-3.14-2.13-4.37-1.21S223.4,166.66,224.58,168.24Z"/><path class="cls-3" d="M219.81,171.63c1.2,1.61,3.19,2.16,4.43,1.23s1.27-3,.07-4.59-3.18-2.16-4.42-1.23S218.61,170,219.81,171.63Z"/><path class="cls-1" d="M191.52,99.67c14.42,1.62,30.53,32.71,34.44,45,1.24,3.89,7.68,18,.8,23.32-2.86,2.23-6.34,3.8-9.86,3.17-5.62-1-16.88-15.16-19.39-18.33-4.95-6.28-9.65-12.8-14.21-19.37-1.78-2.56-3.56-5.12-5.29-7.71C167.82,110.59,181.4,98.53,191.52,99.67Z"/><path class="cls-3" d="M211.81,166.75c.78,2.42,4,3.53,7.22,2.49s5.18-3.83,4.41-6.24-4-3.52-7.23-2.49S211,164.34,211.81,166.75Z"/><path class="cls-1" d="M100.1,25.2c.77,11.84-6.19,21.92-15.53,22.53S67,39.22,66.28,27.38,72.47,5.46,81.81,4.86,99.34,13.36,100.1,25.2Z"/><path class="cls-4" d="M93.69,25.62c.48,7.35-3.84,13.61-9.64,14S73.16,34.32,72.69,27s3.84-13.61,9.64-14S93.22,18.26,93.69,25.62Z"/><path class="cls-1" d="M134.54,25.2c-.77,11.84,6.19,21.92,15.53,22.53s17.53-8.51,18.29-20.35S162.17,5.46,152.83,4.86,135.3,13.36,134.54,25.2Z"/><path class="cls-4" d="M141,25.62c-.48,7.35,3.84,13.61,9.64,14S161.48,34.32,162,27s-3.84-13.61-9.64-14S141.42,18.26,141,25.62Z"/><path class="cls-1" d="M205.57,147.78c0,57.32-39.51,89.26-88.25,89.26S29.07,205.1,29.07,147.78,68.58,14.54,117.32,14.54,205.57,90.47,205.57,147.78Z"/><path class="cls-3" d="M181.21,188.7c0,31-28.61,48.34-63.89,48.34s-63.89-17.3-63.89-48.34S82,116.54,117.32,116.54,181.21,157.66,181.21,188.7Z"/><path d="M105.25,49.46A6.42,6.42,0,1,1,98.83,43,6.41,6.41,0,0,1,105.25,49.46Z"/><circle class="cls-5" cx="96.38" cy="47.46" r="2"/><circle class="cls-5" cx="95.25" cy="51.67" r="0.87"/><path d="M142.22,49.46A6.42,6.42,0,1,1,135.81,43,6.41,6.41,0,0,1,142.22,49.46Z"/><circle class="cls-5" cx="133.35" cy="47.46" r="2"/><path class="cls-5" d="M133.1,51.67a.88.88,0,1,1-.87-.88A.87.87,0,0,1,133.1,51.67Z"/><path class="cls-3" d="M145.75,89c0,18.67-12.73,21.51-28.43,21.51S88.89,107.62,88.89,89s12.73-43.33,28.43-43.33S145.75,70.27,145.75,89Z"/><path class="cls-2" d="M107.41,103.87c-5,0-9.39-4.84-10.32-11.51a.49.49,0,0,1,.42-.56.51.51,0,0,1,.57.42c.86,6.17,4.78,10.65,9.33,10.65s8.48-4.48,9.34-10.65a.5.5,0,0,1,.56-.42.49.49,0,0,1,.43.56C116.81,99,112.47,103.87,107.41,103.87Z"/><path class="cls-2" d="M127.23,103.87c-5.06,0-9.4-4.84-10.33-11.51a.49.49,0,0,1,.43-.56.5.5,0,0,1,.56.42c.86,6.17,4.79,10.65,9.34,10.65s8.47-4.48,9.33-10.65a.51.51,0,0,1,.57-.42.49.49,0,0,1,.42.56C136.62,99,132.28,103.87,127.23,103.87Z"/><path class="cls-6" d="M131.91,87.57c0,6.2-6.53,7.14-14.59,7.14s-14.59-.94-14.59-7.14,6.53-14.36,14.59-14.36S131.91,81.38,131.91,87.57Z"/><path d="M113.2,88.58c0,2-1,3.71-2.25,3.71s-2.25-1.66-2.25-3.71,1-3.71,2.25-3.71S113.2,86.53,113.2,88.58Z"/><path d="M126,88.58c0,2-1,3.71-2.25,3.71s-2.25-1.66-2.25-3.71,1-3.71,2.25-3.71S126,86.53,126,88.58Z"/></svg>