<svg id="Layer_1" data-name="Layer 1" xmlns="http://www.w3.org/2000/svg" viewBox="0 0 136.41 143.07"><defs><style>.cls-1{fill:#513d1b;}.cls-1,.cls-2,.cls-3,.cls-4,.cls-5,.cls-6,.cls-7{fill-rule:evenodd;}.cls-2{fill:#9db251;}.cls-4{fill:#3a6639;}.cls-5{fill:#b7cf51;}.cls-6{fill:#c6a569;}.cls-7{fill:#936f31;}</style></defs><path class="cls-1" d="M52.32,104.23a192.16,192.16,0,0,1,31.71.26c34.71,1.85,36.87,25.15,40.67,37.61l-112.24.5C12.46,127.26,23.69,106,52.32,104.23Z"/><path class="cls-2" d="M87.59,93.92l-37.9-.74c-.18.33,2,15.95,2.9,17.84,3.19,5.28,31.88,6.67,34.78-.85Z"/><path class="cls-3" d="M29.72,142.7,26,142.64c.84-5.21,1.63-11.11,3.07-9.87Z"/><path class="cls-4" d="M101,71.43c2.35-.11,12.39-8.61-4.48-9.34C94.29,62,96.6,51,88.33,50.53c-3.39-.21,2.61-5.07-8.88-5.61-5.67-.26-3.34-6.84-15.38-1.75-1.68.71,1-2-5.85.92-5.61,2.39-3.57-4.23-5.66,2.17-.92,2.83-7.75-1.86-4.68,3.35.32.55-8.12,5.17-8.33,5.26-.36,6.63-5.22,7.3-7.25,13.53-1.87,5.71-10-4.94-.12,7,1.18,1.42,5.49,12.76,5.81,12.89.32,2.74-10.44,6.48-.34,6.48-.15,0-6.29,2.39,1.51,3,.4,0-.79,4.44,3.32,2.07.83,3,8.1-1.68,16.64-1.68,6.51,0,22.31-2.47,24.85-.86,8,5.08,9.57-.54,14.33,1.19,4.49,1.62,4.76-2.77.44-3.88.16-.26,7.85-2.89,3.05-3.93C109.35,86.69,98.61,82.18,101,71.43Z"/><path class="cls-5" d="M68.85,45c-2.54-1.86-13.65.29-15.17,3.64C53,50.15,45.6,50.69,45,55c0,.06-9.64,8.43-10.13,11.78-1.46,9.89-3.59,15.42,6.91,28.56,8.59,10.73,24.77,13.26,37.8,11.8,9.38-1.05,15.6-18,15.85-18,19.71,0,18-12.83,30.09-17.55,6.48-2.51-2.22-5.28-2.69-5.52-9.79-5-24.28,14.15-27.45-1.39C93.47,55.59,77.4,39.48,69.52,44.91Z"/><path class="cls-5" d="M40.65,87.42c-19.71,0-18-12.83-30.09-17.54-6.48-2.52,2.22-5.29,2.69-5.53C23,59.32,37.53,78.51,40.7,63Z"/><path class="cls-6" d="M44,104.08c-.7,7.36,8.76,7.43,8.83,9.35.34,9.63,0,18.59,13.28,27.5,1.94,1.3,1.34,1.69,3,1.19,19-5.55,9.55-22,15.6-26.61,4.44-3.36,9.95-7.49,10.39-10.93C81.87,109.56,56.16,112.91,44,104.08Z"/><path class="cls-7" d="M86.94,114.25c1.41-.72,2.72-3.44,6.77-5.73,11.76-6.61,20.39,1.53,12.09,7.91a2.15,2.15,0,0,1,2.3,1.53c3.78,8.43-11.44-3.52-21,17.64-2.21,4.85-12.71,9.9-17.17,6.18-1.1-.91,9.18-3.35,8.81-14.15C78.44,120.21,85.52,115,86.94,114.25Z"/><path class="cls-7" d="M54.05,113.55c-1.41-.72-2.72-3.45-6.77-5.73-11.75-6.61-20.39,1.53-12.09,7.91a2.16,2.16,0,0,0-2.3,1.53c-3.78,8.43,11.44-3.52,21.06,17.64,2.2,4.84,12.7,9.89,17.17,6.18,1.09-.91-9.18-3.35-8.81-14.16C62.56,119.5,55.47,114.27,54.05,113.55Z"/><path class="cls-2" d="M34.29,82.84c-12.32,0-11.32-9-18.9-11.9-4.05-1.57,1.48-2.37,1.78-2.52,4.33-2.23,10.13,3.14,13.85,3s4-.73,4.22,2.63C35.83,77.09,37.07,83.05,34.29,82.84Z"/><path class="cls-2" d="M96.9,85.63c12.32,0,11.32-8.95,18.9-11.9,4-1.57-1.48-2.37-1.78-2.52-4.33-2.23-10.13,3.13-13.86,3s-4-.72-4.21,2.64C95.35,79.89,94.12,85.84,96.9,85.63Z"/></svg>