<svg id="Layer_1" data-name="Layer 1" xmlns="http://www.w3.org/2000/svg" viewBox="0 0 235.85 345.65"><defs><style>.cls-1{fill:#414241;}.cls-2{fill:#282928;}.cls-3{fill:#ffff61;}</style></defs><title>Flat Water Sport Vectors_6</title><path class="cls-1" d="M214.14,23.52C215.28,12.31,205.73,6,196.9,2.6a38.82,38.82,0,0,0-28,0c-8.83,3.4-18.38,9.71-17.24,20.92,2.08,20.4,4.16,99.2-10.4,131.66s-11.89,151.79-9.16,163c2.77,11.38,13.5,27.47,25.71,27.47,13.89,0,20.07-5.34,25.07-5.34s11.17,5.34,25.06,5.34c12.21,0,22.94-16.09,25.71-27.47,2.73-11.21,5.41-130.54-9.16-163S212.06,43.92,214.14,23.52Z"/><path class="cls-2" d="M182.93,3.27c-14.18.23-25.6,9.91-25.6,21.82s-9,55.42,25.6,55.86c34.55-.44,25.59-43.86,25.59-55.86S197.11,3.5,182.93,3.27Z"/><path class="cls-2" d="M175.84,310.1c-7.55,8.92-19.15,23.36-24.63,34a15.79,15.79,0,0,0,6.65,1.55c13.89,0,20.07-5.34,25.07-5.34s11.17,5.34,25.06,5.34a15.76,15.76,0,0,0,6.65-1.55c-5.48-10.64-17.08-25.08-24.63-34A9.28,9.28,0,0,0,175.84,310.1Z"/><path class="cls-3" d="M154.58,270.11c-4-5.17-8.4-18-10.1-27.47a.74.74,0,0,0-1.35-.27c-5.29,8.48-11.52,34.47-7.93,68.89a12.64,12.64,0,0,0,1.22,4.29c2.14,4.43,7.33,14.47,10.67,15.12,4.3.83,21.94-31.81,21.11-39.16S157.93,274.44,154.58,270.11Z"/><path class="cls-3" d="M221.37,242.64c-1.7,9.46-6.11,22.3-10.1,27.47-3.35,4.33-12.79,14-13.62,21.4s16.81,40,21.11,39.16c3.34-.65,8.53-10.69,10.68-15.12a13.11,13.11,0,0,0,1.22-4.29c3.58-34.42-2.65-60.41-7.94-68.89A.74.74,0,0,0,221.37,242.64Z"/><path class="cls-1" d="M84.14,23.52C85.29,12.31,75.74,6,66.9,2.6A38.82,38.82,0,0,0,39,2.6C30.12,6,20.57,12.31,21.71,23.52c2.09,20.4,4.17,99.2-10.4,131.66S-.58,307,2.15,318.18c2.78,11.38,13.51,27.47,25.71,27.47,13.9,0,20.07-5.34,25.07-5.34S64.1,345.65,78,345.65c12.21,0,22.94-16.09,25.71-27.47,2.74-11.21,5.41-130.54-9.15-163S82.06,43.92,84.14,23.52Z"/><path class="cls-2" d="M52.93,3.27c-14.18.23-25.59,9.91-25.59,21.82S18.37,80.51,52.93,81c34.55-.44,25.59-43.86,25.59-55.86S67.11,3.5,52.93,3.27Z"/><path class="cls-2" d="M45.84,310.1c-7.55,8.92-19.15,23.36-24.63,34a15.79,15.79,0,0,0,6.65,1.55c13.9,0,20.07-5.34,25.07-5.34S64.1,345.65,78,345.65a15.8,15.8,0,0,0,6.66-1.55C79.16,333.46,67.56,319,60,310.1A9.28,9.28,0,0,0,45.84,310.1Z"/><path class="cls-3" d="M24.59,270.11c-4-5.17-8.4-18-10.11-27.47a.74.74,0,0,0-1.35-.27c-5.29,8.48-11.52,34.47-7.93,68.89a12.87,12.87,0,0,0,1.22,4.29C8.56,320,13.75,330,17.09,330.67c4.31.83,21.94-31.81,21.11-39.16S27.93,274.44,24.59,270.11Z"/><path class="cls-3" d="M91.38,242.64c-1.71,9.46-6.11,22.3-10.11,27.47-3.34,4.33-12.78,14-13.62,21.4s16.81,40,21.11,39.16c3.35-.65,8.53-10.69,10.68-15.12a13.11,13.11,0,0,0,1.22-4.29c3.59-34.42-2.64-60.41-7.94-68.89A.73.73,0,0,0,91.38,242.64Z"/></svg>