<svg id="Layer_1" data-name="Layer 1" xmlns="http://www.w3.org/2000/svg" viewBox="0 0 221.62 171.73"><defs><style>.cls-1{fill:#fff;}.cls-2{fill:#fbe157;}.cls-3{fill:#f8cc0f;}.cls-4{fill:#edc310;}.cls-5{fill:#f1d12f;}.cls-6{fill:#fbdd80;}</style></defs><title>cheese</title><path class="cls-1" d="M2.31,167l.77-8.72c.37-4.15.59-9.11.66-14.72l.09-8.22,8.37.12a4.83,4.83,0,0,0,2.7-3.51,2.8,2.8,0,0,0,0-.36,2.15,2.15,0,0,0-.3-.14,5.1,5.1,0,0,0-1.9-.45l-.27,0-8.74,1-.35-8.79C2.56,102.33.59,83.21.57,83L0,77.5l4.92-2.58c.94-.49,1.83-.91,2.71-1.33.69-.32,1.38-.64,2.11-1L147.94,0l3,.75c33.87,8.38,57.52,33,70.28,73.27l.38,1.21V76.5c0,7.27-.15,14.82-.44,22.42l-.29,7.78-7.78.1a4,4,0,0,0-1.57.3c-1.73.79-3.39,4.17-2.78,6.68a4.05,4.05,0,0,0,3.37,3.06l8.12.69-.65,8.13c-1.85,23.19-4.28,38.39-4.38,39l-1.14,7Z"/><path class="cls-2" d="M200.8,115.71c-1.48-6.1,1.84-13.55,7.34-16.06a12,12,0,0,1,4.86-1c.27-7.06.43-14.47.43-22.11L8.72,82.18s2,19.3,2.85,40.66a12.63,12.63,0,0,1,6.25,1,8.58,8.58,0,0,1,4.59,3.86,9.21,9.21,0,0,1,.54,5.71c-.95,5-5,9.4-9.59,10.11a8.69,8.69,0,0,1-1.44.07c-.06,5.46-.26,10.69-.68,15.36l195.89,4.41s2.47-15.24,4.31-38.38A12.21,12.21,0,0,1,200.8,115.71Z"/><path class="cls-3" d="M213.43,76.5C153.12,81.87,69.26,81.92,8.72,82.18c1.67-.88,3.15-1.49,4.82-2.36L149,8.7C183.36,17.2,202.73,42.75,213.43,76.5Z"/><path class="cls-4" d="M65.15,105.82A12.72,12.72,0,0,0,61.61,98c-2.39-2.29-5.79-3.19-9.08-3.52C47.46,94,42,94.8,38,97.92c-5.94,4.59-7.33,14-3.21,20.24s13,8.81,19.91,5.89S66,113.28,65.15,105.82Z"/><path class="cls-5" d="M65.15,105.82A12.72,12.72,0,0,0,61.61,98c-2.39-2.29-5.79-3.19-9.08-3.52a28.28,28.28,0,0,0-4.87,0,14.68,14.68,0,0,0-3.91,2.12c-5.51,4.27-6.8,13-3,18.79s12,8.17,18.48,5.46l.62-.29A18.25,18.25,0,0,0,65.15,105.82Z"/><path class="cls-4" d="M112.57,135.35a9.19,9.19,0,0,0-.11-6.21,10.87,10.87,0,0,0-5-4.95c-3.23-1.79-7.07-2.81-10.64-1.89a11.34,11.34,0,0,0-8,12.55,12.13,12.13,0,0,0,11.56,9.63A13.05,13.05,0,0,0,112.57,135.35Z"/><path class="cls-5" d="M112.57,135.35a9.19,9.19,0,0,0-.11-6.21,10.87,10.87,0,0,0-5-4.95,18.62,18.62,0,0,0-3.23-1.42A10,10,0,0,0,93.61,134.7a11.26,11.26,0,0,0,10.72,9l.5,0A13.22,13.22,0,0,0,112.57,135.35Z"/><path class="cls-4" d="M135.09,106.3a6.19,6.19,0,0,0-.08-4.14,7.29,7.29,0,0,0-3.35-3.3,9.92,9.92,0,0,0-7.09-1.25,7.54,7.54,0,0,0-5.29,8.35,8.08,8.08,0,0,0,7.69,6.42A8.7,8.7,0,0,0,135.09,106.3Z"/><path class="cls-5" d="M135.09,106.3a6.19,6.19,0,0,0-.08-4.14,7.29,7.29,0,0,0-3.35-3.3,13.72,13.72,0,0,0-2.15-.94,6.69,6.69,0,0,0-7,8,7.49,7.49,0,0,0,7.14,5.95h.33A8.82,8.82,0,0,0,135.09,106.3Z"/><path class="cls-4" d="M190.54,142.06a8.91,8.91,0,0,0-.82-6,10.52,10.52,0,0,0-5.41-4.18c-3.32-1.35-7.13-1.89-10.46-.6a11,11,0,0,0-6.22,13,11.76,11.76,0,0,0,12.23,7.95A12.65,12.65,0,0,0,190.54,142.06Z"/><path class="cls-5" d="M190.54,142.06a8.91,8.91,0,0,0-.82-6,10.52,10.52,0,0,0-5.41-4.18,19.6,19.6,0,0,0-3.27-1,10.32,10.32,0,0,0-3.06.65,10.2,10.2,0,0,0-5.77,12.05A10.94,10.94,0,0,0,183.56,151l.48-.08A12.8,12.8,0,0,0,190.54,142.06Z"/><path class="cls-6" d="M122.94,30.32c5.47-3.39,11-6.8,17.15-9s13.09-3.25,19.5-1.66a20.18,20.18,0,0,1,11.07,6.92c1.08,1.41-.63,3.16-2.34,2.39a38.65,38.65,0,0,0-22.39-2.76c-5.5,1-10.64,3.17-15.71,5.32l-8.07,3.43c-1.93.82-3.59-1.48-2-2.73A31,31,0,0,1,122.94,30.32Z"/></svg>