<svg id="Vector_Graphics" data-name="Vector Graphics" xmlns="http://www.w3.org/2000/svg" viewBox="0 0 353.7 428.01"><defs><style>.cls-1{fill:#fff;}</style></defs><path d="M170.92,111.05a4.74,4.74,0,0,1,2.61-.92c1.19.11-.11.92-.11.92s-.87.43-.54.6.76.65-.06,1c0,0,.54.33.76.22,0,0,.11.92.71,0s2.44-.16,2.06,1.9a1.53,1.53,0,0,1,1.14-.06c.65.22,1.24.44,1.24.44s-.54-3.31,3.26-4.56a4.49,4.49,0,0,1,3.09.16s.06-1.08,1.47-.75c0,0,.7.27,1.35,1.68,0,0,.22-1.3.71-1.14s.81.21,3.63,3.42a21.09,21.09,0,0,0,2.88,2.71s.76.54,1,3.09a9.14,9.14,0,0,0,1.63,4.29l.7,0a11.19,11.19,0,0,1,1.2-3.09c.65-.82.38-2.77.32-3.15s.54-.27.76-.87a1.21,1.21,0,0,0-.7-1s-1-3.47,0-4.07c0,0,.54-.43,1.41.76l.38-.16s1-4.45-.76-11.83S197,90,196.53,89.3s-4-12.32-12.15-12.21c0,0-.87,0,.32,1.19s1.2,1.25.76,1.41-1.73.33-2,1c0,0-.59.33-.86-.16s-1.25-2.72-3.31-3.26c0,0-.84-1.73-.44-2.71a1,1,0,0,0-1.05.24s-.74.25-.49.65-.57,1.39-.49.17a1.2,1.2,0,0,0-.9-1.39s-2.27-.16-2.84.82c0,0-2-.49-2.36,1.14,0,0-.74.81-2.12-.9s-1.87.33-1.87.33-2.36-.49-2.85-.17-.41,1.14-.41,1.14a3.75,3.75,0,0,0-2.11,2l-2.44-.17s-1.22-2.52-2.2-2.44-.49,1.22-.49,1.22a17.52,17.52,0,0,0-1.79-.48V116s4.39-1.14,5.29-.32,1.87-.49,1.87-.49,1.22-1,1.55-.49a6.55,6.55,0,0,1,2.28-1.06,2.49,2.49,0,0,1,2.44,2,5.6,5.6,0,0,0,1.22-1.71A22.75,22.75,0,0,1,170.92,111.05Z"/><path class="cls-1" d="M170.54,82.6s-1.3-.33-1.38.4a.94.94,0,0,0,1.71.57s1.46.33,2-1.54c0,0-.73-.82-1.46-.33Z"/><path class="cls-1" d="M175.26,85.69s-.32-.49.49-1.22,1.55-1.06,2.28-.17.65,1.31-.33,1.06l-.81-.4S176.24,86.42,175.26,85.69Z"/><path class="cls-1" d="M168.51,85.61s.08-1.31-1.38-.49l-.41.49s-1.95-.08-1.47.89,1.47,0,2-.4A1.49,1.49,0,0,0,168.51,85.61Z"/><path class="cls-1" d="M162.57,80.56s.89-.24.57-.65-1.3-1-1.39-.32S162.57,80.56,162.57,80.56Z"/><path class="cls-1" d="M159.88,79.59s-1.38-.41-1.38.56.81.66,1.22.57S159.88,79.59,159.88,79.59Z"/><path class="cls-1" d="M170.06,87.89s-.66.65-.25,1,1-.16.81-.49A1.19,1.19,0,0,0,170.06,87.89Z"/><path d="M198.66,134.76s.32-3.26,1.91-1.06a2.91,2.91,0,0,0,2,1.3c.56.08,3.74,2.93,2.76,4.23,0,0-.4,3.58-1.38,5a7.21,7.21,0,0,0-1.14,3.17c-.08.33-1.63,5.45-2.28,7.24s-1.87,17.91-3.82,20.27c0,0-1.31-1.06-2.53,1.62s-8.54,16.36-9.35,17.82S177.54,208,174.61,208.4c0,0-1.3.65-2-.16a43.22,43.22,0,0,1-3.66-7.24c-.09-.65-.82-7.9.73-7,0,0,1.06.24-.08-2.93s-2.2-3-2.12-7.49-.73-6.59,1.22-7.16c0,0-.24-3,.33-3s1.3-.08,1.14-.65-1.47-2.2-2.45-.49-3.41,11.88-3.74,12-.73,0-.49-1.3a204.8,204.8,0,0,0,2.85-24.33s-.16-1.55-1.79-.24c0,0-1.63,1.3-2.28,1.79,0,0-.65,1.87-1.54.73s-1.55,1.63-1.55,1.63a1.26,1.26,0,0,1-1.63,1,2.65,2.65,0,0,1-2,.74,11.37,11.37,0,0,0-3.42,1.79s-8.22,3.09-11.64,7.08c0,0-1.46,1.7-2,13.75s-.41,33-.89,36.78.08,30.68.08,31.9,1,79.83.89,82.43-1.14,8.55,1.47,8.14a2.64,2.64,0,0,1,2.44-2.36,33.21,33.21,0,0,1,7.48.16s1.47.17.25,2.69c0,0,.24,1.22.65,1.54s.16,6.92.41,8.3.32,11.56.73,12.21,2.85,2.52,10.66,2.52c0,0,.73,0,1,1.79s6.91,52.25,7,52.57-171,.33-171,.33V117.54l158.68-2.07s.9,1.3-.08,1.63.57.65.57.65,1.71.33-.65,1.55c0,0-1.06.81.81,1,0,0,1.06.33,1.47-1.38,0,0,.16,1.71.65,2,0,0,2.23,3.2,8.87,3.42,0,0,2.12-.32,2.69-1a30.45,30.45,0,0,0,1.22,5.21,15.69,15.69,0,0,1,.81,5.29,5.12,5.12,0,0,1,.08,2.12c-.24.73-.16,7.08,1.79,6.83s2.52-.48,3.5,1.87a3,3,0,0,1-2.44.17s-.16,2.36-3.09,2.44c0,0-1.3.41-1.06,1.14s1.71-.25,2.12-.82,2.27,0,2.93.25a2.8,2.8,0,0,0,2.27-.33,6.07,6.07,0,0,1,2.85-.57s.33.41-.81.57a5.21,5.21,0,0,0-2.36.82,7.68,7.68,0,0,1-2.2.81,4.07,4.07,0,0,0-1.79,1.14,1.78,1.78,0,0,0,0,1.14c0,.11-.37-.53-.69-.86s-.45-.08-1,0c0,0-.65.24.37,1.42a2,2,0,0,0,1.63,0,13.18,13.18,0,0,1,1.26-.57,55.93,55.93,0,0,1,6-.85l.32-.33s.52-.11.66,0,2.11.81,2.93-.65,1.38-1,1.7-.81a8.93,8.93,0,0,0,5.29-5.78,3.79,3.79,0,0,0-.48-3.91A4.82,4.82,0,0,0,198.66,134.76Z"/><path d="M211.66,198.18s-1.84,5-1.51,5.31a2.4,2.4,0,0,0,2.27.22c1.09-.33,6.84-1.85,7.49-2.06s1.19-.22,1.19-1.74-.21-6.83-.21-6.83a1.84,1.84,0,0,0-2.17-1.41c-2,.1-4.45.21-5.32,2.27S211.66,198.18,211.66,198.18Z"/><path class="cls-1" d="M170.54,196.68s-1,.09-.81.41.24.65.57.65.73-.4.49-.73Z"/><path class="cls-1" d="M178.27,172.11a4.64,4.64,0,0,0-2.11.08c-.73.33-2.36-.08-2.12.57s1.39,1,2,1.22,2.44,1.3,2.68.08S178.6,172.35,178.27,172.11Z"/><path class="cls-1" d="M190.35,152.61a2.38,2.38,0,0,0,.21-1.52,2.22,2.22,0,0,0-.32-1.12c-.33.17-2,.85-2.28.41-.56-.74-2.28-.65-1.55.16s.25,1-.81,1.14-5.45,2.85-5.45,2.85c-1,.25-1.47-.73-2.12-1.06s0-.65-1.63-.32-.81,1.14-.81,1.14a6.25,6.25,0,0,0,4,2.68c1,.19,3,.25,3-.4s.32-.66.81-.33,2.93,0,2.93,0S187.85,156.13,190.35,152.61Z"/><path d="M183.85,125.68c-1.13-.13-.25,1-1.51.9s-1.46.41-1.83.41a9.31,9.31,0,0,1-3.38-1.47c-1.26-.89-3.64-3.09-2.9-3.13,0,0,2.77.65,4.29-.71s3.52-2.38,5-2a3.93,3.93,0,0,1,3.53-1.74,13.87,13.87,0,0,1,4.12.87,3.15,3.15,0,0,0,1.25,0s.87,0-.43,1.36a4.26,4.26,0,0,0-.82.65,19,19,0,0,1-2.22,3.8,14.38,14.38,0,0,0-2.06-.76s-.6,1.57.59,1.35c0,0,1.41-.16,0,1,0,0-3.63,2.39-4.44,2.33a10,10,0,0,0-1.9-.21s-1.17-.17-1.2-.87c0,0,1.13-.35,1.25-.35s.71-.25,1.11-.07a.88.88,0,0,0,1.14-.21S185.14,125.83,183.85,125.68Z"/><path class="cls-1" d="M162.57,139.88a20.28,20.28,0,0,0,4.15,4.48,5.23,5.23,0,0,1,1.79,1.71c.49.81,1.46,1.87,1.06.57a2.16,2.16,0,0,1,.4-2.12c1.55.41,1.71-2.19,1.71-2.19a18,18,0,0,0,.17-2.69,26.41,26.41,0,0,0-.82-3.5,9.08,9.08,0,0,1,.08-3.17l-1-.41s-.25-.57-.57-.33-.24.56-.92.38a3.09,3.09,0,0,0-1.55.15,3.52,3.52,0,0,0-1.28.53,14.65,14.65,0,0,1-4.15-.32c-.57-.25-.89.24-1.38.89s.24,1.3.24,1.3,1.22.41.17.66.13,1.43.13,1.43Z"/><path d="M247.85,339.9c.33-.23,1.38-.32,3.58.09s8.71.81,9.28.81a2.73,2.73,0,0,1,3.09,1.63s1.06,1.3,1.3,1.3a3.75,3.75,0,0,0,.57,2,1,1,0,0,0,1.79-.57s-.57-2.6-1.06-2.93c0,0,1.06-.73.41-1.54s-8.06-5.21-23.76-4.88c0,0-3.34.4-2,3.82a16.48,16.48,0,0,0-2.77,5.29c-.73,2.77-2,3.17-2.52,4s-.74,2.52-.08,4.72a51.77,51.77,0,0,1,1.87,8.79c0,1.62.89,1.22,1.22.57a2.75,2.75,0,0,0-.49-2.2s-.63-3.15-1.28-5.1-1.3-2.23-.92-3,2.28-4.07,2.93-1.38a4.25,4.25,0,0,1-.16,3.34s-.08.48,1.3.48c0,0,0,5.7.08,6.11a3.26,3.26,0,0,0,1.3,1.87c.9.65.57,0,.57-.41s-.57-3.5.9-4.31,1.38-1.3,1.06-1.63c0,0-1.75-4.11.16-6.27.19-.22,1.14-.4,1.06-2.6,0,0-.08-.57-1.39-.49,0,0,.25-1.79,1.55-.65,0,0,.33,1,1.06,1s.32-.57-.08-.9-3.18-2.52-3-2.93.73-.24,1.7.57,1.31.49,1.31.49.16,1.79,1.46,1.14c0,0,.71-.3-.41-1.63C247.52,344.54,245.21,341.78,247.85,339.9Z"/><path d="M246,339.5s-.41,1,.57,1.22c0,0,.65-.41.4-.82S246,339.5,246,339.5Z"/><path d="M245.9,343.16s-.65,0-.49.49.65.57.73.24S246.14,343.16,245.9,343.16Z"/><path d="M239.55,367a6.38,6.38,0,0,0,1.63,1c.49.08,1,2,1.95,2.2s.08-.9.08-.9l-.81-1.3s-1.55-.82-1.87-.9S239.06,366.51,239.55,367Z"/><path d="M258.59,362a.6.6,0,0,1-.89-.57c0-.57-.25-.33-.09-1a4.31,4.31,0,0,0-.32-2.28,3.81,3.81,0,0,1,.41-3.82c.32-.44,1.87-2.52.73-2.28s-1.46,2.1-1.63,2.28c-2.52,2.77-1.1,4.11-1.1,4.11,1.51,1.55,1.1,2.24,1.1,2.24,0,.32-.57,2.19-1.06,2.19s-.38-.39-.4-.73c-.08-1.34-1.79-1.22-1.79-1.22-1.22.65-.33,1.47-.41,1.87s-1.25.54-1.47-.16a10.74,10.74,0,0,1-.16-3s-.08-3.26-1.46-.73c0,0-.34,2.19-.41,3a6,6,0,0,1-2.36,4.72,1.81,1.81,0,0,1-2.2.4c-.57-.48-1.46-1.54-1.79-1.62s-.65-.17-.65.32a25.43,25.43,0,0,0,2.93,3.26c.49.16.9-.73,1.3-1.22s1.31-.19,1.75-.29a6,6,0,0,0,2.49-1.91,14,14,0,0,0,3.33.49c.73-.16,1.55-1.55,1.55-1.55s2.11-.41,2.76-.49,2.61-1.62,3.34-2,1.87-.08,2.36-.41a14.7,14.7,0,0,0,2.69-4.07c.16-.81.52-1.71,0-2.36a9.47,9.47,0,0,0-1.55-1.38s-1-1.75-3.09-.33a6.08,6.08,0,0,0-2.69,4.4c.65,1.22.25,2.6-.49,2.6C259.32,360.49,259.32,361.74,258.59,362Z"/><path class="cls-1" d="M157.36,381.22s-1.19,1.57-.16,2.49,1.57.22,2.06.71,1,1.14,1.36.59a2.28,2.28,0,0,0-.22-2.38C159.86,382,158.28,379.59,157.36,381.22Z"/><path class="cls-1" d="M154.16,378.07s1.14.27,1-1.84-1.09-2.77-1.31-2.23a1.7,1.7,0,0,0,.22,1.25s.06.87-.16.87S153.24,377.64,154.16,378.07Z"/><path class="cls-1" d="M147.43,361.58l9.5,53.87s-.65.87-1,.21-6.24-33.36-6.24-33.36-.22-.27-.43-.16-.17.38-.17.54,6.24,33.58,6.24,33.58a.88.88,0,0,1-.87,1c-1,.11-1.62.22-2.33-2.17s-4.77-23.93-4.77-23.93a2.28,2.28,0,0,1,1.41-.38s.76-.76-.49-.92-1.73-.86-.87-1.3.11-1.25,0-2.28-.7-5.31-.7-5.31-.6-.49-1.09-.33a8.84,8.84,0,0,1-.43-2.12c-.27-1.84-1.52-9.33-1.52-9.76a4.91,4.91,0,0,0-.87-.92s-.65-1,.22-1.2c0,0,1.46.44,1.9-.59,0,0,.21-.44-.82-.44s-.92-.49-1-1.08.21-.65.76-1,2-2.22,2.66-1.79C146.57,361.74,147.38,361.41,147.43,361.58Z"/><path class="cls-1" d="M150.09,360.17a1.89,1.89,0,0,0-1.52,1.57c-.11,1.3.27,3.09,1,3s.92-.33.92-1.79S150.69,360.06,150.09,360.17Z"/><path class="cls-1" d="M142.93,371.13s.54-.28.16-1.09a17.22,17.22,0,0,1-1.57-3.36c-.16-1,.38-3.42-1.14-3.15,0,0-1.08.11-.81,1.74a12,12,0,0,0,1.57,4.17C141.63,370.09,142.06,371.4,142.93,371.13Z"/><path d="M146.24,363.64s-.27-.54-.65-.49-.33.38-.33.71.27,1,.6,1S146.35,364.34,146.24,363.64Z"/><path d="M146.51,365.75s-.49-.05-.49.93a20.44,20.44,0,0,0,.55,3.9c.16.38,1.13,5.86,1.24,6.24s.71,3.42,1,3.37.27-.66.17-1.2-1.58-8.3-1.63-8.79-.6-3.52-.6-3.74A2.37,2.37,0,0,0,146.51,365.75Z"/><path class="cls-1" d="M148,357c.92,0,.38-1,.05-1.25s-1.25-1.41-.54-2,.43-2.28-.06-3-.81-1-.11-1.35c0,0,.71.16,1-.38s-.6-1.74-2.55-1.41c0,0-1.35.49-1.46,1.57,0,0-.33,1-1-.05s-1.19,0-.87.81,1.14,2.33,2.17,1.36,2.17-.6,2.33.48-.27,1.42-.65,1.63a.71.71,0,0,0-.43.87c.11.38.27.65-.05.7,0,0-.71,0-.93-.43s-.48-.54-1.08-.38a1.87,1.87,0,0,0-1.09,2.44,1.11,1.11,0,0,0,.82.06s.49,2.65.16,2.93-.49,1.24.71,1,2.49.22,2.6-1.62C147,358.87,146.69,356.9,148,357Z"/><rect x="-0.51" y="-0.57" width="155.56" height="120.71"/></svg>