<svg id="Layer_1" data-name="Layer 1" xmlns="http://www.w3.org/2000/svg" viewBox="0 0 312.05 337.37"><defs><style>.cls-1{fill:#f2c08d;}.cls-2{fill:#fff;}.cls-3{fill:#dbdbdb;}.cls-4{fill:#b6b7b8;}.cls-5{fill:#4d691c;}.cls-6{fill:#425616;}.cls-7{fill:#597f17;}.cls-8{fill:#929294;}</style></defs><title>Vector_Beach_1_2</title><path class="cls-1" d="M237.63,91.45l73.81-19.77h0l.61-.17A173.6,173.6,0,0,0,143.66,26h0l-.63.15A173.61,173.61,0,0,0,20,149.77l1.61-.43a57.51,57.51,0,0,0,96.48-25.85h0a57.49,57.49,0,0,0,50,16.3l52.25,195a3.51,3.51,0,0,0,4.27,2.47l3.33-.89a3.51,3.51,0,0,0,2.47-4.28L178.21,137.2a57.47,57.47,0,0,0,36.36-39.57h0a57.52,57.52,0,0,0,96.49-25.85Z"/><path class="cls-2" d="M291.44,51.68A173.71,173.71,0,0,0,0,129.77Z"/><path class="cls-3" d="M291.44,51.68A173.62,173.62,0,0,0,123.05,6.12l22.67,84.6Z"/><rect class="cls-4" x="170.8" y="86.74" width="10.42" height="234.05" rx="3.49" ry="3.49" transform="translate(-46.74 52.5) rotate(-15)"/><path class="cls-5" d="M1.61,129.34a57.51,57.51,0,0,0,96.48-25.85Z"/><path class="cls-3" d="M98.09,103.49a57.51,57.51,0,0,0,96.48-25.86Z"/><path class="cls-6" d="M194.57,77.63a57.52,57.52,0,0,0,96.49-25.85Z"/><path class="cls-7" d="M123.05,6.12A173.61,173.61,0,0,0,0,129.77L97.65,103.6l.46-.2S86.42,55.64,123.05,6.12Z"/><path class="cls-5" d="M123.66,6A173.6,173.6,0,0,1,292.05,51.51L194.39,77.68l-.5,0S180.14,30.52,123.66,6Z"/><path class="cls-8" d="M210,310.42l-57.88-216a5.23,5.23,0,0,0-6.38-3.69L206.3,316.8A5.23,5.23,0,0,0,210,310.42Z"/><path class="cls-4" d="M153.22,118.71l.62-.14a57.47,57.47,0,0,0,40.73-40.94L145.72,90.72Z"/></svg>