<svg id="Layer_1" data-name="Layer 1" xmlns="http://www.w3.org/2000/svg" viewBox="0 0 221.09 135.8"><defs><style>.cls-1{fill:#fff;}.cls-2{fill:#fdcc9a;}.cls-3{fill:#f0c292;}.cls-4{fill:#754c29;}.cls-5{fill:#83562f;}</style></defs><title>pancakes</title><path class="cls-1" d="M107,135.8l-4.11,0c-4.85-.06-9.8-.25-15.13-.55l-6.3-.35c-15.72-.85-33.54-1.82-50.17-5.93a116.77,116.77,0,0,1-13-4c-1.58-.59-3.11-1.21-4.57-1.84-.65-.29-1.31-.6-2-.94-.49-.25-1-.52-1.43-.79s-.87-.53-1.29-.82a20,20,0,0,1-7.85-9.62,18.91,18.91,0,0,1-1.11-5.2,19.23,19.23,0,0,1,0-2c0-.25,0-.45,0-.66,0-.37.06-.87.12-1.35,0-.23.07-.42.1-.61.07-.43.16-.91.27-1.39l.14-.54c.11-.41.26-.9.42-1.38l.15-.41c.18-.48.38-1,.61-1.46L2,95.67c.25-.52.51-1,.79-1.52l.12-.2c.27-.45.58-.93.9-1.4l.09-.12c.35-.5.72-1,1.12-1.48a38.52,38.52,0,0,1,12.69-9.56c-.08-.19-.15-.39-.22-.58-.2-.54-.38-1.09-.53-1.66a18.83,18.83,0,0,1-.59-3.54,19.23,19.23,0,0,1,0-2c0-.2,0-.41,0-.63,0-.48.06-.94.12-1.4,0-.18.06-.39.1-.6.07-.42.16-.89.27-1.36,0-.19.09-.36.14-.53.12-.46.26-.94.42-1.41l.16-.41c.17-.47.37-1,.6-1.46l.12-.25c.25-.52.5-1,.79-1.5l.12-.22c.27-.46.59-1,.94-1.45.14-.2.27-.39.41-.57l-1.34-.57c-.66-.29-1.33-.6-2-.95l-1-.54a23.25,23.25,0,0,1-6.28-5.11c-.32-.39-.64-.79-.93-1.2a17.62,17.62,0,0,1-1.67-2.81,18.6,18.6,0,0,1-1.78-6.76,19.15,19.15,0,0,1,0-2c0-.25,0-.46,0-.67,0-.37.06-.87.12-1.35,0-.21.06-.43.11-.64.06-.4.15-.88.26-1.36,0-.13.08-.32.13-.5.13-.46.27-.95.43-1.42,0-.14.11-.28.16-.43.17-.45.37-.94.59-1.42l.13-.27c.24-.51.5-1,.78-1.49l.13-.23c.27-.45.59-.95.93-1.44l.11-.15c.3-.43.67-.93,1.07-1.41,7.17-8.73,22.08-15.15,45.57-19.62,1.12-.44,2.25-.87,3.39-1.27,2.71-1,5.52-1.86,8.36-2.64,1.4-.39,2.8-.76,4.22-1.1,2.75-.67,5.61-1.26,8.5-1.78A188,188,0,0,1,113.6,0q2.7,0,5.4.06c9.46.19,19,.85,28.38,1.95,3.16.37,6.33.8,9.41,1.26.81.12,1.63.26,2.46.41l.22,0c.73.14,1.41.28,2.09.44l.21,0,.42.12c6.34,1.54,10.92,4.26,14,8.31.33.43.63.87.92,1.32,11.63,3.67,19.92,7.48,25.26,11.6,5.17,3.45,8.19,8.95,7.89,14.46a18.22,18.22,0,0,1-5.85,12,49.6,49.6,0,0,1,8.77,5.26c5.09,3.39,8.09,8.77,7.9,14.19v.29c-.55,9.76-9.24,16.1-19.25,20.41a15.54,15.54,0,0,1,3,9.43v1.72l-.23.47c-2.85,16.5-30.34,23.66-54.3,28.08l-1.47.27c-5,1-10.11,1.72-15.34,2.29A240.65,240.65,0,0,1,107,135.8Z"/><path class="cls-2" d="M160.92,81.21c-5.11-1.39-9.19-2.33-10.82-2.72-18.53-4.47-38.07-5-56.38-4-12.22.63-87.27,5.71-85.5,30.69.4,5.69,4.86,8.75,8.74,10.43C39,125.15,65.23,125.71,88.25,127c19.66,1.13,39.46.78,59-2.94,7.39-1.41,48.54-8.15,49.35-22.67C197.09,92.41,175.07,85.06,160.92,81.21Z"/><path class="cls-3" d="M196.59,101.43c.22-4-3.62-7.57-7.1-8.55-2.13,10.63-24.7,14.27-33.79,16.72C120,119.23,81.77,117.8,45.28,114c-4.65-.48-42-8.08-33.94-17.87a12.48,12.48,0,0,0-3.12,9c.4,5.69,4.86,8.75,8.74,10.43C39,125.15,65.23,125.71,88.25,127c19.66,1.13,39.46.78,59-2.94C154.63,122.69,195.78,116,196.59,101.43Z"/><path class="cls-2" d="M177.22,51.07c-5.11-1.39-9.19-2.32-10.82-2.71-18.53-4.48-38.07-5-56.38-4C97.8,45,22.75,50.05,24.52,75c.4,5.69,4.86,8.75,8.74,10.43C55.34,95,81.53,95.58,104.55,96.91c19.66,1.13,39.47.78,59-2.94,7.39-1.41,48.54-8.15,49.35-22.67C213.39,62.28,191.37,54.93,177.22,51.07Z"/><path class="cls-3" d="M212.89,71.3c.22-4-3.62-7.57-7.1-8.55C203.66,73.38,181.09,77,172,79.47c-35.7,9.62-73.93,8.2-110.42,4.41-4.65-.48-42-8.08-33.94-17.87a12.48,12.48,0,0,0-3.12,9c.4,5.69,4.86,8.75,8.74,10.43C55.34,95,81.53,95.58,104.55,96.91c19.66,1.13,39.47.78,59-2.94C170.93,92.56,212.08,85.82,212.89,71.3Z"/><path class="cls-2" d="M166.41,19.33c-5.11-1.39-9.19-2.33-10.82-2.72-18.53-4.47-38.07-5-56.38-4C87,13.22,11.94,18.3,13.71,43.28c.4,5.69,4.86,8.75,8.74,10.43,22.08,9.56,48.27,10.12,71.29,11.45,19.66,1.14,39.46.78,59-2.94,7.39-1.41,48.54-8.15,49.35-22.67C202.58,30.53,180.56,23.18,166.41,19.33Z"/><path class="cls-3" d="M202.08,39.55c.22-4-3.62-7.57-7.1-8.55-2.13,10.63-24.7,14.27-33.79,16.72-35.7,9.63-73.93,8.2-110.42,4.41-4.65-.48-42-8.08-33.94-17.87a12.48,12.48,0,0,0-3.12,9c.4,5.69,4.86,8.75,8.74,10.43,22.08,9.56,48.27,10.12,71.29,11.45,19.66,1.14,39.46.78,59-2.94C160.12,60.81,201.27,54.07,202.08,39.55Z"/><path class="cls-4" d="M158.3,97.29c1.59,2.56,4,4.62,6.91,4.19s4.75-3.14,5.69-5.83c3.35-9.52-1.14-19.46-2.55-28.9-1.59-10.66,2.05-22.51,3.42-33.15.71-5.49,1.26-11.62-2.09-16-3.2-4.2-8.9-5.42-14.11-6.2a286,286,0,0,0-36.73-3.13C97,7.8,74.58,10,54.61,18.94c-4.33,1.94-9.25,5.63-8.13,10.25C47.65,34,54,34.83,58.91,34.81A247.21,247.21,0,0,1,139.15,48c9.42,3.22,15.36,7.3,16.18,17.69.76,9.75-1.83,20,1.86,29.37A14.28,14.28,0,0,0,158.3,97.29Z"/><path class="cls-5" d="M166.6,31.48a20,20,0,0,0-2.15-17.83,34.93,34.93,0,0,0-8.88-2.28,286,286,0,0,0-36.73-3.13C97,7.8,74.58,10,54.61,18.94c-4.33,1.94-9.25,5.63-8.13,10.25,0,.08.05.14.07.22,2.74,1.45,6.42,1.8,9.64,1.82,25,.18,50.77-.59,74.33,8,6.28,2.28,12.63,5.25,19.3,4.79A19.84,19.84,0,0,0,166.6,31.48Z"/><path class="cls-1" d="M58.14,20.46c-1.93,1.09-4,2.87-3.63,5.05,2.42,1.4,5.39-.37,7.61-2.07l10-7.67A38.51,38.51,0,0,0,58.14,20.46Z"/></svg>