<svg id="Vectorportal.com" xmlns="http://www.w3.org/2000/svg" xmlns:xlink="http://www.w3.org/1999/xlink" viewBox="0 0 610.15 527.5"><defs><style>.cls-1{fill:none;}.cls-2{opacity:0.4;}.cls-3{clip-path:url(#clip-path);}.cls-4{fill:#ed1e79;}.cls-5{clip-path:url(#clip-path-2);}.cls-6{fill:#fff;}</style><clipPath id="clip-path"><rect class="cls-1" x="380.67" y="173.28" width="76.94" height="70.76"/></clipPath><clipPath id="clip-path-2"><rect class="cls-1" x="489.88" y="186.33" width="65.35" height="67.82"/></clipPath></defs><path d="M416.61,154.57c4.43,1.46,16.63,13.11,21.27,15.69l-20.63-2.71a75.61,75.61,0,0,0-12.38-8.25c-6.18-3.1-9.41-.26-14.57-.26s-16.37,2.83-18.95,5.13-16,10.08-16,10.08a38.16,38.16,0,0,1,4.64-4.64,106.47,106.47,0,0,0,10.83-10.83c1-1.55,14.28-4.21,17-4.21,6.71,0,24.33-1.46,28.76,0m87.81,30s13.92-4.64,15.47-5.27,10.83.11,10.83.11-2.32-7.68-7.48-6.13c-4.59,1.37-18.78,8-23.65,10.55h0a5.1,5.1,0,0,0-.64.34l-.71.4-.4.3a17.56,17.56,0,0,0-2.7,2.43l6-2.73Zm-13.5,81.21q.15,3.75.6,7.5.45-3.75.61-7.5a52.82,52.82,0,0,0-.28-7.56,105.1,105.1,0,0,0-2.39-14.85c0,5,.41,10,.85,15,.23,2.49.52,4.95.61,7.42m-98.68,42.83h0c2.32.77,4,2.95,5.16,3.79s5.28,3.17,5.28,3.17l7.14,2.69a12.77,12.77,0,0,1,2.92,1.9c1.16,1.37,7.74,2.63,7.74,2.63,1.54-.13,7.73,2.88,20.11,6.41s17,2.75,21.28,2.75,11.21.53,13.54.07,8.89-5.49,8.89-5.49l-4.45.58-7.92,1.74s-4.65.78-13.54,0-11.22,0-13.93-2.7-8.51,0-8.51,0l-3.87-3.36a30.57,30.57,0,0,1-7-1.67c-4.64-1.55-5.42-4.89-5.42-4.89h-6.57l-1.47-.14.44-.52h-3.62s-3-.85-3.61-1.64a3.4,3.4,0,0,0-.21-.27l-2-2.53-5.07-4,1.8.22,7.23.81c2,.19,3.93.4,5.89.6l.62,3.66.59-3.53c2.45.27,4.88.55,7.31.87l.22,0,.54,2.63.5-2.47c4.33.63,8.69,1.34,13,2.14,4.74.87,9.44,1.84,14.09,3.06q3.5.87,7,1.88a18.4,18.4,0,0,0,4.12.65l1.13,5.13.22-5.1c.76,0,1.52,0,2.26-.09a117.1,117.1,0,0,0,14.44-2.75c2-.42,4-.81,6-1.11l.69,4.52.72-4.7c1-.12,2-.21,3.05-.26l.46,5.63-2.58,2.74-1.65,3.86-.93,1,1.2-1.09c1.19-.44,6-2.28,7.57-3.77s6.73-7.29,8.13-8.86c.81-.16,1.62-.33,2.42-.51a8.3,8.3,0,0,1,1.76-.25,1.32,1.32,0,0,1,1.33.94l-.15-.43a3.27,3.27,0,0,0-.28-.37,1.87,1.87,0,0,0-.87-.37,8.25,8.25,0,0,0-1.86,0c-1.21.14-2.41.3-3.6.38a30.33,30.33,0,0,1-7.12-.4,47.93,47.93,0,0,0-14.75.66c-4.82.77-9.54,1.94-14.19,2.19a19.7,19.7,0,0,1-6.68-.56c-2.33-.7-4.68-1.37-7-2a194.88,194.88,0,0,0-28.85-4.78c-4.86-.43-9.72-.6-14.57-.72l-7.27-.11c-1.21,0-2.42-.06-3.63-.12a18.87,18.87,0,0,1-3.6-.37,14.71,14.71,0,0,0,1.44.41l-4.54-.41a5.23,5.23,0,0,0,3.1,2.58m3.86,5.71c.53.56,1.09,1.08,1.65,1.6,2.24,2.08,4.52,4.1,6.84,6.09l.06,0,.08,0c3.76,1.44,7.5,2.95,11.2,4.56a107,107,0,0,1,10.83,5.26c7.1,3.87,14.56,7.36,22.57,9.12a53.83,53.83,0,0,0,12.19,1.22,42.23,42.23,0,0,0,12.12-1.73,32.23,32.23,0,0,0,5.67-2.34,12.29,12.29,0,0,0,1.35-.83c.39-.35.81-.67,1.16-1a24.38,24.38,0,0,0,2-2.32,82.47,82.47,0,0,0,6.66-10.15,98.27,98.27,0,0,1-7.15,9.74,26.43,26.43,0,0,1-2.06,2.16,14.09,14.09,0,0,1-1.12.95,9.31,9.31,0,0,1-1.25.72,31,31,0,0,1-5.57,2.11,44.4,44.4,0,0,1-11.83,1.4,52.29,52.29,0,0,1-11.85-1.3,94.66,94.66,0,0,1-22.24-8.94c-7.09-4-14.74-6.67-22.33-9.38-2.33-1.91-4.69-3.8-7-5.74-.58-.49-1.16-1-1.71-1.5a13.09,13.09,0,0,1-1.39-1.77l-2.74-3.66,2.51,3.83a13.87,13.87,0,0,0,1.35,1.88m101.76,21.53a19.3,19.3,0,0,0-.38,2,4.38,4.38,0,0,1-.24.87,7.81,7.81,0,0,1-.34.87,51.07,51.07,0,0,1-3.78,6.75c-1.41,2.19-2.88,4.33-4.4,6.45l-2.3,3.16-1.17,1.57-.59.78a5.45,5.45,0,0,1-.56.67,8.56,8.56,0,0,1-2.89,1.74c-1.15.47-2.37.86-3.61,1.25s-2.52.79-3.82,1.32l-.72.32c-3.14.1-7.95.09-14.67-.29-13.54-.77-21.28-3.87-22.83-3.87V359a.42.42,0,0,1,.23,0l-.05,0-.23-.09c-.19-.09-.4-.18-.61-.29l-.58-.33-1.85-1.63v.51c-.47-.3-.94-.58-1.41-.89-1.71-1.11-3.4-2.27-5.07-3.44-3.34-2.36-6.67-4.78-9.81-7.37a72.83,72.83,0,0,1-8.47-8.81q-2-2.35-3.81-4.84a33.46,33.46,0,0,1-3.28-5.2,34.34,34.34,0,0,0,3,5.41c1.12,1.73,2.31,3.42,3.54,5.08a75.21,75.21,0,0,0,8.07,9.45c3,2.85,6.2,5.49,9.41,8.1q2.42,1.95,4.9,3.82c.83.63,1.67,1.24,2.54,1.84l.41.27v1.88s5.56,9.12,6.33,11.06,8.8,3.25,8.8,3.25h1.89s3.87-1.55,7.15-3.1,6.39-1.16,9.09-2.7c1.67-.95,4.36-2.34,6.54-3.45l.14.1a2.67,2.67,0,0,1,.28-.32l2.72-1.36.11-.07c-.17.5-.33,1-.52,1.52a44.45,44.45,0,0,1-2,4.33,29.9,29.9,0,0,1-5.58,7.67l-1.79,1.7a9.22,9.22,0,0,0-1.73,2,1.07,1.07,0,0,0-.09.7.94.94,0,0,0,.55.58c.29.1.46.12.54.16a.44.44,0,0,1,0,.14l-.1.31a18.68,18.68,0,0,0-.53,2.46l-.36,2.44a10.72,10.72,0,0,1-.22,1.18c0,.1-.05.18-.07.26a1.21,1.21,0,0,0-.09.35,4.85,4.85,0,0,0-.05.64,44.67,44.67,0,0,0,.34,4.92,46.87,46.87,0,0,1,.05-4.89,3.52,3.52,0,0,1,.09-.58,1.15,1.15,0,0,1,.07-.24,2.69,2.69,0,0,0,.13-.32c.14-.41.23-.81.33-1.21l.55-2.39a17.93,17.93,0,0,1,.68-2.29l.11-.27a2,2,0,0,0,.13-.41,1,1,0,0,0-.08-.6,1,1,0,0,0-.44-.45,1.64,1.64,0,0,0-.32-.14,12.14,12.14,0,0,1,1.45-1.38l1.91-1.54a31.81,31.81,0,0,0,6.55-7.67,42.33,42.33,0,0,0,2.47-4.42c.36-.76.72-1.54,1-2.35.16-.4.31-.82.44-1.26a5.4,5.4,0,0,0,.18-.67c1-.38,2.06-.78,3.09-1.26a10.51,10.51,0,0,0,3.63-2.52,6.7,6.7,0,0,0,.65-.86l.56-.81,1.1-1.64,2.16-3.3c1.42-2.22,2.81-4.45,4.12-6.74A50.76,50.76,0,0,0,498,340a7.49,7.49,0,0,0,.32-1,5.36,5.36,0,0,0,.23-1,15.78,15.78,0,0,1,.27-1.9,27,27,0,0,1,1.19-3.67,147.34,147.34,0,0,1,6.72-14.15,147.38,147.38,0,0,0-7.44,13.86,27.3,27.3,0,0,0-1.41,3.73M610.15,514.14a101.83,101.83,0,0,1-23.73,3.1c-6.55,0-32.2,1.3-54.91,1.83-7.49.28-15,.6-22.47,1.1-4.08.28-8.17.58-12.24,1A101.08,101.08,0,0,0,484.72,523c-2,.42-4,1-6,1.32a41.85,41.85,0,0,1-6.22.6,109.45,109.45,0,0,1-12.35-.81,147.6,147.6,0,0,0-24.43-.18c-8.16.46-16.25,1.42-24.4,2.46-4.08.5-8.21.92-12.36,1.06s-8.27,0-12.38-.09l-24.6-.68c-16.38-.46-32.79-1-49.13-1.17q-3.06,0-6.09,0c-2.1,0-4.27,0-6.31-.16-4.13-.23-8.23-.54-12.33-.89-8.19-.69-16.36-1.48-24.53-2.29q-13.86-1.4-27.7-2.87c-66.36-3.08-145.53-7.21-156.94-9.84C58.8,504.86,0,509.5,0,509.5l17-35.59s15.47-32.49,18.57-38.68,52.09-66,59.31-68.47,59.83-14.12,59.83-14.12l62.92-11.06S246,329,260,328.47c9.52-.36,26.54-1.43,37.35-2.19a66.45,66.45,0,0,0,7.39-3c1.13-3.82-.41-22.08-2.66-38.8-2.5-3.8-4.5-3.23-6.5-3.23a8.6,8.6,0,0,1-3.6-.77c-1,.33-2,.56-3,.81-.71.16-1.43.3-2.09.49s-1.26.49-1.36,1.27a1.55,1.55,0,0,1,.17-1.12,2.92,2.92,0,0,1,.84-.84c.61-.45,1.24-.83,1.83-1.23s.89-.6,1.33-.91a10.46,10.46,0,0,1-1.85-2.35c-.36-.6-.74-1.21-1.12-1.82-1-.07-1.9-.19-2.8-.31l-.76-.09H283l0,.07c.1.26.19.53.28.79.33,1.05.61,2.11.86,3.17-.49-1-1-1.93-1.57-2.85-.14-.22-.28-.45-.43-.66l-.23-.31a.87.87,0,0,1-.12-.93,1.18,1.18,0,0,1,.72-.52l.49-.11c.31-.05.58-.08.86-.11.51-.05,1-.1,1.52-.17-.58-.9-1.12-1.75-1.59-2.47l-.14,0a1.79,1.79,0,0,1-.59,0,2.12,2.12,0,0,1-.87-.43,12.32,12.32,0,0,1-1.76-1.92,15.47,15.47,0,0,0-1.55-1.79,2.19,2.19,0,0,0-.38-.25c-.08,0-.07-.05-.16.08a2.58,2.58,0,0,0-.21,1.07,18,18,0,0,0,.1,2.43,19.2,19.2,0,0,1-.49-2.42,3.05,3.05,0,0,1,.07-1.33.74.74,0,0,1,.8-.49,1.9,1.9,0,0,1,.72.28,16.76,16.76,0,0,1,1.95,1.62c.36.33.74.68,1.11,1l0-.06s9.28-6.19,4.64-11.6c-4.33-5.06-2.6-6.07-4.24-9.33a3.61,3.61,0,0,1-.67.66.47.47,0,0,1,0,.31.76.76,0,0,1-.33.45l-.18.08-.3.07a7.31,7.31,0,0,1-1.08.16,7.69,7.69,0,0,1-2.09-.31,23.51,23.51,0,0,1-3.74-1.38,24.55,24.55,0,0,0,3.87.62,6.87,6.87,0,0,0,1.83-.08l.45-.16a1.42,1.42,0,0,1,0-.22,2.17,2.17,0,0,1,.21-.41c.65-.82.55-.68.59-1.35,0-.25,0-.52,0-.79-.62-1-.57-1.15-.13-2.16l-.12-1.75-.28-.11a9.21,9.21,0,0,1-2.5-2c-.69-.73-1.29-1.5-1.89-2.24a13.71,13.71,0,0,0-.93-1.07c-.31-.28-.73-.75-1.14-.41a.58.58,0,0,1,.68-.2,2.9,2.9,0,0,1,.7.3c.43.25.83.54,1.22.82.79.56,1.56,1.13,2.34,1.61a9.79,9.79,0,0,0,1.62.81c-.15-2.17-.31-4.35-.37-6.6a36.42,36.42,0,0,1,.12-4.26c.05-.4.1-.8.19-1.26a8.76,8.76,0,0,1,0-2.29,12,12,0,0,0-.41-4.19l-.46.4a5.38,5.38,0,0,1-2.37,1.16,3.57,3.57,0,0,1-2.55-.52,7.19,7.19,0,0,1-.78-.54l0,.59-.11-.64a6.49,6.49,0,0,0-1-.72.55.55,0,0,0-.79.29,3.78,3.78,0,0,0-.38,1.07,3.89,3.89,0,0,1,.21-1.16.92.92,0,0,1,.39-.51.86.86,0,0,1,.68,0,4.6,4.6,0,0,1,.81.35l-1-6.31c-.09-.64-.23-1.28-.28-1.94a5.79,5.79,0,0,1,.06-2.14,3.91,3.91,0,0,1,1.46-1.74c.51-.41,1-.8,1.48-1.22.2-.17.39-.36.59-.54a15.5,15.5,0,0,1-.24-2.53c0-6.19.77-13.16,0-15.48-.4-1.2-1.62-.13-2.71,0l-1.36,6.42c.09-.78-.34-2.23-.52-9.52v0c0-.45-.05-1-.05-1.53,0-5.81-.72-9.46-.69-11.93-.69.1-1.34.16-2,.32a4.67,4.67,0,0,0-1.49.55,1.33,1.33,0,0,0-.71,1.32,1.54,1.54,0,0,1,.46-1.62,5.52,5.52,0,0,1,1.48-1c.78-.38,1.67-.67,2.41-1a4,4,0,0,1,.55-1.39c1.39-2.08-2.05-9.12-1.17-13.35a11.61,11.61,0,0,0-1.72.68,4.7,4.7,0,0,0-2,1.58,4.81,4.81,0,0,1,1.81-1.91,13.2,13.2,0,0,1,2.18-1.21c.07-.16.14-.33.22-.49,2.24-3.87,1.46,3.87,3.78-7.73.74-3.7,1.33-7.47,1.88-11.17l-.35.16a19,19,0,0,0-2.89,1.4,3.89,3.89,0,0,0-1.6,2.44c-.31,1-.54,2.13-.86,3.21a7.5,7.5,0,0,1-.63,1.56A2.11,2.11,0,0,1,269,144.6a2,2,0,0,0,1-1.19,7.66,7.66,0,0,0,.42-1.58l.49-3.29a7.13,7.13,0,0,1,.49-1.71,4.45,4.45,0,0,1,1.15-1.47,21.94,21.94,0,0,1,2.89-1.86c.47-.27.92-.55,1.36-.84.33-2.21.65-4.39,1-6.5l-.8.15a21.27,21.27,0,0,0-3.52.86c-2.31.74-4.61,1.59-6.89,2.47,2.18-1.12,4.37-2.21,6.62-3.2a22.37,22.37,0,0,1,3.49-1.25l1.33-.39a68.61,68.61,0,0,1,2.78-11.41c.19-.5.38-1,.58-1.5a29.47,29.47,0,0,1-5.35,1.89,20.33,20.33,0,0,1,2.87-2.16,27.13,27.13,0,0,1,3.14-1.71l.22-.09c3.09-6.92,7-12.79,7-18.09,0-.44,0-.83,0-1.19l-.35.31c-.85.74-1.74,1.43-2.65,2.1l-1.35,1a5.66,5.66,0,0,0-1.08.91c-.09.14-.09.17-.13.47a3,3,0,0,1-.28,1,9.51,9.51,0,0,1-.91,1.53,19.84,19.84,0,0,1-2.24,2.58l-.12.11h-.1c-.93-.1-1.86-.17-2.79-.3.88-.12,1.75-.19,2.62-.27.6-.89,1.21-1.78,1.71-2.7a8.19,8.19,0,0,0,.67-1.41,2,2,0,0,0,.12-.6,2.21,2.21,0,0,1,.29-1.13,6,6,0,0,1,1.36-1.36l1.32-1L288,89.69l1.5-1.27c.43-2.44,1.76-3.32,5.4-10.92a17.63,17.63,0,0,0-1.78,0,22.75,22.75,0,0,0-2.62.15,6.13,6.13,0,0,0-2.35.63,48.28,48.28,0,0,1-5,2.27,49.8,49.8,0,0,1,4.37-3.28,6.57,6.57,0,0,1,2.8-1.06,19.2,19.2,0,0,1,2.82-.26,22.78,22.78,0,0,1,2.48.16,25.19,25.19,0,0,1,7-9.42l-.5,0a28.3,28.3,0,0,1-2.85-.78,3.74,3.74,0,0,0-2.33-.19c-.17,0-.27.18-.41.27l-.48.52-.95,1.07-1.89,2.18a21.09,21.09,0,0,1,1.27-2.62c.25-.42.5-.83.77-1.24.13-.21.26-.41.41-.61a2.64,2.64,0,0,1,.7-.63,2.89,2.89,0,0,1,1.72-.39,8.5,8.5,0,0,1,1.56.22c1,.23,1.88.55,2.72.68a2.42,2.42,0,0,0,1,0,.53.53,0,0,1,.15-.08c.06,0,.21-.15.32-.22a5.91,5.91,0,0,1,.68-.39c.77-.37,1.52-.68,2.27-1a14.64,14.64,0,0,0,3.4-4.16l3.87-7s.72,0,3.59-1.46a8.65,8.65,0,0,1-.86-.29c-1.18-.48-2.16-1.12-3.18-1.47a4.2,4.2,0,0,0-1.46-.27,2.57,2.57,0,0,0-1.3.48,20,20,0,0,0-4.66,5l-.09.12H306c-.67-.05-1.33-.12-2-.21.62-.08,1.24-.15,1.86-.2a15.22,15.22,0,0,1,4.23-5.83,4,4,0,0,1,2-.82,4.86,4.86,0,0,1,2,.28,35.6,35.6,0,0,1,3.29,1.48,1.44,1.44,0,0,0,1.84,0c.25-.14.49-.29.73-.45,1-.63,1.93-1.32,2.89-2l2.86-2.11a17.3,17.3,0,0,0,2.67-2.31c.78-1.91.77-3.15,4-3.15,3.9,0,9.13.36,13.28-2.15a16.46,16.46,0,0,1-6.84-1c-1.16.14-2.3.31-3.46.41,1.13-.41,2.28-.74,3.41-1.1h.05l.12,0a20.44,20.44,0,0,0,6.68.27,4.27,4.27,0,0,0,1.34-.53,4.64,4.64,0,0,1,1.7-.74,13.64,13.64,0,0,0,1.1-1.6l-.24-.13L348.25,32c-.91-.45-1.88-.88-2.95-1.53a6.49,6.49,0,0,1,3.47-.84,8.07,8.07,0,0,1,2.33.42A29.48,29.48,0,0,1,354,24.76l-.33,0a14.51,14.51,0,0,1-2.46-.61,21.05,21.05,0,0,1-4.63-2,21.94,21.94,0,0,1,4.9-.4c.78,0,1.62.13,2.32.1a10.12,10.12,0,0,1,2.67.2l.73.22c1.86-.73,4.31-.73,8-.12,8.21,1.37,4.95,1.52,10.49-3.81a9.14,9.14,0,0,1-1.94-1c-1.39-1.08-2.33-2.07-3.25-2.05a3.28,3.28,0,0,0-1.4,1.13,16.78,16.78,0,0,0-1.3,1.84,30.4,30.4,0,0,1-2.6,3.9,9.38,9.38,0,0,0,.89-2.14c.27-.74.54-1.47.84-2.21A16.77,16.77,0,0,1,368,15.58a4.24,4.24,0,0,1,2-2,4.19,4.19,0,0,1,1.61-.11,4.76,4.76,0,0,1,1.4.42c.84.41,1.48.84,2.1,1.14a7.19,7.19,0,0,0,1.84.68,11.08,11.08,0,0,0,1.34.21l.05-.05,1.26-1.05c.5-.54,1-1.1,1.55-1.63a25.4,25.4,0,0,1,3.81-3.08,22.77,22.77,0,0,1,9-3.34h0a47.31,47.31,0,0,1,6.35-.76c-.67-.28-1.32-.58-1.92-.88a7.88,7.88,0,0,0-2-.79,11.78,11.78,0,0,0-2.22-.17,18.89,18.89,0,0,0-4.72.56,5.93,5.93,0,0,0-2.08,1,3.12,3.12,0,0,0-1.26,2,3.19,3.19,0,0,1,.6-2.6,6.22,6.22,0,0,1,2.11-1.81,14.71,14.71,0,0,1,5.16-1.59,10.78,10.78,0,0,1,2.85-.06,10,10,0,0,1,2.79.81,27.3,27.3,0,0,0,4.54,1.65c2.45.69,5,1.13,7.67,1.6a37.68,37.68,0,0,0,4.88-.61,15.81,15.81,0,0,1,3.27-1.28,18.32,18.32,0,0,0,2.92-1.15A7.54,7.54,0,0,0,424,1.92a9.39,9.39,0,0,1,1.67-1A8.8,8.8,0,0,1,429.5,0c.32,0,.65,0,1,0l.43,0,.28,0a1.58,1.58,0,0,1,.31.09l.12,0a1.79,1.79,0,0,1,.33.18,15,15,0,0,1,1.45,1.18c.88.78,1.7,1.57,2.5,2.4,1.21,1.21,2.35,2.49,3.45,3.8,1.46.69,2.63,1.29,3.59,1.82l.47,0a8.52,8.52,0,0,0,2.79-.17,1.57,1.57,0,0,0,.69-.43c.05,0,.08-.12.13-.17l.07-.1a1.92,1.92,0,0,0,.1-.22,2.94,2.94,0,0,1,1.11-1.27,4.57,4.57,0,0,1,2.41-.61,10.24,10.24,0,0,1,2,.23A20.14,20.14,0,0,1,456.23,8a33,33,0,0,1,6.41,3.31c-2.34-.53-4.64-1.08-6.92-1.52a29,29,0,0,0-3.37-.46,8.83,8.83,0,0,0-1.55,0,1.86,1.86,0,0,0-1,.28c-.05.05,0,.05,0,.07l-.17.49a2.82,2.82,0,0,1-.32.59,4,4,0,0,1-1.67,1.45c1.64.58,3.55.48,8.81-.17,6.25-.79,8.39-.48,10.05.36.42,0,.84-.06,1.25-.08l2.26,0c.29,0,.67-.1.49.12a2.46,2.46,0,0,1,1.09-.55,4.34,4.34,0,0,1,.82-.13,15.75,15.75,0,0,1,5.35.79A12.6,12.6,0,0,1,482.37,15a18.26,18.26,0,0,0-4.9-1,18.52,18.52,0,0,0-4.74.13c-.3,0-.67.26-.44.16a3.15,3.15,0,0,1-1.19.74c.67.29,1.44.59,2.37.89,10.83,3.49,11.78,5.32,17,6.19,3.05.51,3.79-2.67,9,3.39.33.06.75.11,1.23.17a9,9,0,0,1,3.26,1,9.9,9.9,0,0,1,2.64,2.11,6.24,6.24,0,0,1,1.48,3.08,4.6,4.6,0,0,1-.6,3.16,5.91,5.91,0,0,0-2.54-4.5,11.55,11.55,0,0,0-2.24-1.21l-.4-.13c4,6,3.05,8.57,10.6,9.94,5.79,1.06,8-.75,9.8,1.16a11.81,11.81,0,0,1,1.21.3,3.26,3.26,0,0,1,.51.21l.17.1a1.32,1.32,0,0,1,.24.18c.25.18.55.8.43.53s0-.08,0-.06l.21.19,1,.89A19.88,19.88,0,0,1,530.34,47a4.89,4.89,0,0,1,.39.83l.18.64.4,1.32c.25.9.52,1.8.7,2.76a15.65,15.65,0,0,1-2-2c-.31-.37-.6-.75-.88-1.14-.15-.2-.28-.4-.42-.61s-.18-.21-.32-.36c-.91-.9-2.09-1.84-3.23-2.83.06.18.12.34.18.54,2.82,9.18,3.07,10,4.86,14.18.63.43,1.27.86,1.89,1.31,1,.75,2.06,1.5,3.08,2.34a11,11,0,0,1,1.62,1.57l.06,0c.22.08.59.16,1,.3a4.65,4.65,0,0,1,2,1.36l1.24,1.49c.79,1,1.58,2,2.3,3.15-1.17-.61-2.25-1.33-3.35-2l-1.58-1.11a2.67,2.67,0,0,0-1.27-.51h-.09c.62.91,1.34,2,2.16,3.49,3.41,6,5.64,9.35,7,12.22.25.33.5.65.74,1a21.6,21.6,0,0,1,2.2,3.33,5.87,5.87,0,0,1,.27,4.36c-.63-.91-1.13-1.73-1.69-2.4,0,.28,0,.56,0,.85,0,4.23-.36,12.06-.34,19.32l.77.4a5.68,5.68,0,0,1,1.94,1.39,3,3,0,0,1,.41.71,4.48,4.48,0,0,1,.17.54.83.83,0,0,1,0,.12,1.9,1.9,0,0,1,.57.51,2.58,2.58,0,0,1,.33.68,5,5,0,0,1,.22,1,15.14,15.14,0,0,0,.27,1.71l.68,3.56a17.49,17.49,0,0,1-2.12-3,18,18,0,0,1-.79-1.72c-.11-.23-.2-.46-.29-.62h0a1.91,1.91,0,0,1-1-.71,3.5,3.5,0,0,1-.36-.67,2.31,2.31,0,0,0-.14-.3s0-.05-.07-.06a5,5,0,0,0-.59-.28c0,2.18.14,4.24.3,6,.26,2.84.6,6.94.86,11.37.08,0,.15-.12.37-.5a8.54,8.54,0,0,1,.95-1.44,6,6,0,0,1,2.85-2.08c-.22,1.21-.45,2.2-.69,3.2l-.39,1.44a3.68,3.68,0,0,1-1.43,2,3.57,3.57,0,0,1-1.5.51c.06,1.22.11,2.45.14,3.68a5.92,5.92,0,0,1,.83,1.69c.14.51.14.63.19.79a3.24,3.24,0,0,0,.41.7,18.28,18.28,0,0,1,2.44,3.79,17,17,0,0,1-3.81-1.85c0,4.85-.36,9.16-1.22,11.69-.92,2.69-.6,5.53,0,8.61.85,1.62,1.64,3.25,2.43,4.84.4.79.8,1.59,1.22,2.28.22.39.4.63.64,1a6.27,6.27,0,0,1,.86,1.51,5.78,5.78,0,0,1-1.08,6,9.47,9.47,0,0,0-1.39-4.8,6.45,6.45,0,0,0-.67-.8c-.12-.16-.27-.33-.41-.51a24.11,24.11,0,0,1-.36,6.44c-2,10.06.44,15.22.44,15.22l-.87-.54a38.66,38.66,0,0,1-1.69,54.5,193.16,193.16,0,0,1-3.36,28.5,131.17,131.17,0,0,1-3.73,14.59c-1.58,4.7-3.06,9.3-4.47,14.08a63,63,0,0,1-2.62,7.24c-1,2.36-2.24,4.6-3.37,6.78l-6.85,13.17q-7,13.11-14.12,26.13c-4.86,8.64-9.67,17.28-14.83,25.81a109.4,109.4,0,0,1-12.68,17.28l8.11,6.13,36.12,23s59.31,30.92,64,39.24,21.15,43.9,21.15,43.9M550.43,113.3l.14.07c-.08-.06-.17-.11-.14-.07m-1,2.1s.06.07.11.11h0c0-.09-.1-.13-.1-.1M280,217.87c-1-3.3-2.38-7.07-3.18-10.44h0c-.54.38-1.1.74-1.64,1.09a2.82,2.82,0,0,0-1.15,1,11.33,11.33,0,0,0-.11,3.63l.41,6.44a9.65,9.65,0,0,0,1.18.56A3,3,0,0,0,279,219.1c.33-.37.65-.79,1-1.23m1.11,29.51-.07,0h0l.09,0m.77,0h0c-.05-.05-.12-.09,0,0m1,26.68c0-.12-.06-.1,0,0ZM536.75,65.49c-.07-.08-.15-.06,0,0M522.55,184c-19.22,0-34.85,16.24-34.85,36.21s15.63,36.2,34.85,36.2,34.86-16.24,34.86-36.2S541.78,184,522.55,184m-92-181.37h0m-3,.79a47.67,47.67,0,0,1,7.21,2.41l1.5.61L434.71,5.4l-2.78-1.92c-.4-.27-.85-.56-1.19-.74l-.29,0-.74.1a12.15,12.15,0,0,0-2.13.59M323.94,47.27a10.42,10.42,0,0,0,4.47-5,13.18,13.18,0,0,1-2.2,2.84c-.73.75-1.49,1.46-2.27,2.16M307,271.18a2.29,2.29,0,0,0,2.63,1.79,90.83,90.83,0,0,1,2.08-14.28c1.17-5.38,2.52-10.7,3.95-16l2.14-7.89a38.76,38.76,0,0,0,.87-3.87c.21-1.29.36-2.64.5-4,.5-5.4.85-10.85,1.08-16.29.12-2.57.21-5.15.22-7.73-.69-1.86-1.27-4-2.45-5.21-2.32-2.32-2.32-.77-7.74-3.87s-.77,0-5.41-3.09-4.9-9-7.22-10.58-8.51-3-8.51-3-3.87,8.3-3.87,11.4-1.29,16.06,2.58,26.89a142.09,142.09,0,0,1,4.31,15.79l.89.55a9.18,9.18,0,0,0-.6.77c1.32,6,2.33,11.07,3.13,13.07,1.55,3.86,3.1,17,6.19,19.34,0,0,5,4.1,5.23,6.15M493.4,517.24c-.19-4.65-9.1-18.57-13.36-21.67s-2.31-12.37-2.31-12.37L482.68,442,472,410.4a73.3,73.3,0,0,1-9.67,6.92l-1.66,1c-.3.16-.68.34-1,.5l-.46.17a95.91,95.91,0,0,0-1,10.1c0,.84,0,1.68,0,2.47a7.72,7.72,0,0,0,.14,1.14,1.93,1.93,0,0,0,.13.44l.23.75a13.15,13.15,0,0,1,.25,2.82c0,.89,0,1.76-.05,2.63-.33,7-1.09,13.82-1.9,20.69.3-6.9.55-13.83.35-20.69,0-.85-.07-1.71-.14-2.55a11.81,11.81,0,0,0-.36-2.31l-.06-.19,0-.09-.09-.2a4.27,4.27,0,0,1-.3-.78,9.83,9.83,0,0,1-.29-1.41c-.14-.92-.2-1.81-.25-2.7-.12-3.15,0-6.23.18-9.35-.49.08-1,.15-1.46.2a47.9,47.9,0,0,1-7.67,0c-4.21-.32-8.35-.91-12.46-1.59-.75.89-1.83,2.1-2,2.33-.38.75-.75,1.54-1.11,2.35-.71,1.61-1.38,3.26-2,4.92-1.29,3.19-3.56,9.83-3.56,9.83-1,1.58-1.95,3.19-2.93,4.78,0,.06-.05.11-.07.16a46.16,46.16,0,0,0-1.72,5c-1,3.32-1.78,6.71-2.51,10.1a61.65,61.65,0,0,0,5.1,6.62,29.07,29.07,0,0,0,3.08,3,9.24,9.24,0,0,0,3.61,2.06,47.77,47.77,0,0,0,8.65.6c2.91,0,5.82-.1,8.73-.27q-4.35.44-8.72.62a48.05,48.05,0,0,1-8.8-.27,10,10,0,0,1-4-2.06,30.11,30.11,0,0,1-3.3-3,64.66,64.66,0,0,1-5.66-6.79l-.15-.21,0-.3c.5-2.95,1.1-5.87,1.77-8.78a121.07,121.07,0,0,0-5.82,10.7A32,32,0,0,0,410.78,472c0,4.25-.21,8.52-.32,12.77-.14-4.26-.2-8.5-.45-12.76a33.21,33.21,0,0,1,1.58-12.82c1.58-4.08,3.55-7.85,5.47-11.67s4-7.56,6-11.31c0,0,2.59-6,3.72-9.19.6-1.7,1.21-3.4,1.89-5.1.33-.85.68-1.7,1.09-2.56.21-.43.42-.86.7-1.33l.2-.31-5.57-1c-3.7,5-9.16,10.88-13.12,15.67a28.7,28.7,0,0,1-3.26,3.45c-1.19,1-2.45,2-3.71,2.9-2.51,1.85-5.1,3.69-6.85,6.32,1.64-2.7,4.19-4.68,6.61-6.63,1.22-1,2.44-2,3.56-3a27.45,27.45,0,0,0,3-3.5c3.7-4.87,7.62-10.56,11-15.68-1.66-.3-3.33-.56-5-.7,5-.14,9.92.43,14.85.76s9.85.73,14.71.66a47.66,47.66,0,0,0,7.14-.48,17.83,17.83,0,0,0,3.22-.82l.69-.31.61-.36,1.5-1a82,82,0,0,0,11.08-9.21,103.77,103.77,0,0,0,17.29-23.09c4.89-8.51,9.7-17.15,14.43-25.82l14.36-25.94L524.51,317a74.35,74.35,0,0,0,6.17-13c1.64-4.63,3.37-9.39,5.24-13.95a129,129,0,0,0,4.58-13.89,281.62,281.62,0,0,0,6.16-27.63,35.53,35.53,0,0,1-24.11,9.5c-20.07,0-36.4-16.94-36.4-37.75s16.33-37.76,36.4-37.76a34.94,34.94,0,0,1,11.65,2,80.65,80.65,0,0,0-.77-11.52c-.77-3.86-2.32-10.83-2.32-13.54v-.18l-.44-.42a5.36,5.36,0,0,0-.55-.53,3.72,3.72,0,0,0-.48-.35,11.43,11.43,0,0,0-2.71-1c-2-.53-4-.87-6-1.24s-4.1-.72-6.17-1.13a39.11,39.11,0,0,1,6.31-.07,35.56,35.56,0,0,1,6.28.94,12,12,0,0,1,3.1,1.26,4,4,0,0,1,.61.51c-.27-5.8-1.26-19.88-2.24-24.47-1.16-5.42-3.87-20.51-12.77-27.86-1-.86-1.93-1.57-2.73-2.18a3.9,3.9,0,0,1-.36.33c-.33.24-.66.48-1,.7L510.05,105a4.81,4.81,0,0,0-1.13,1,.17.17,0,0,0,0,.11,1.68,1.68,0,0,0,.26.52,27.09,27.09,0,0,0,2.8,3.19c1.05,1,2.12,2.13,3.22,3.15l.33.31,0,.3c.53,3.36,1,6.74,1.24,10.18-1.27-3-2.3-6.14-3.27-9.25-1.18-.86-2.34-1.73-3.43-2.7a20.42,20.42,0,0,1-3.42-3.51,4.36,4.36,0,0,1-.73-1.53,3.28,3.28,0,0,1,.23-2.11,6,6,0,0,1,2.14-2.18l2-1.23.51-.34c-3.63-2.48-4.42-2.13-9.85-6.42-7.35-5.8-3.1-1.16-8.52-.78-4.1.3-4.21,2.14-7.9,1.17L486,96l3.26,2.44.85.67.27.23c.12.1.42.45.21.22a2,2,0,0,0,.26.26c.49.42,1,.85,1.55,1.27,1.06.85,2.13,1.7,3.16,2.59.52.44,1,.89,1.53,1.36q.38.36.72.75a3.15,3.15,0,0,1,.31.41c.08.14.19.35.07.49.09-.33-.3-.56-.52-.76a9.34,9.34,0,0,0-.82-.58c-.56-.37-1.14-.71-1.73-1-1.17-.66-2.37-1.29-3.57-1.93-.6-.32-1.2-.63-1.82-1a4.84,4.84,0,0,1-.54-.37c-.32-.35-.15-.1-.16-.12s-.1,0-.14-.06l-.85-.44-3.66-1.78A47.13,47.13,0,0,1,477,94.38a8.23,8.23,0,0,1-2.75-3.84,21.47,21.47,0,0,1-6.21-2.68c-6.18-3.48-8.25-1-14.05-.25a3.74,3.74,0,0,0-1.92.74l0,.12,0,.12v.25a2.31,2.31,0,0,1-.18,1,2.2,2.2,0,0,1-.52.79,2,2,0,0,1-.21.2,29.3,29.3,0,0,0,2.93,2.47,40.92,40.92,0,0,0,3.49,2.43c1.2.76,2.45,1.46,3.73,2.11l1.94,1a10.14,10.14,0,0,1,.95.55c.29.2.64.45.69.83a1.27,1.27,0,0,0-.79-.66,8.49,8.49,0,0,0-1-.36l-2.08-.62c-1.39-.42-2.78-.9-4.14-1.45s-2.72-1.16-4-1.84A30.08,30.08,0,0,1,449,93a5.17,5.17,0,0,1-1.07-1q-.17-.23-.3-.45a2.62,2.62,0,0,1-.26-.78,2.26,2.26,0,0,1,.11-1.12,2.7,2.7,0,0,1,.52-.8.71.71,0,0,1,.13-.12c-.28-.53-.61-1.1-1-1.69L443.56,83c-5.58-6.34-8.16-5.14-13.64-3.76a8.29,8.29,0,0,1-1.26.83c-.84.43-1.75.72-2.05.89s-.14,0-.24.15a.41.41,0,0,1-.06.11l-.06.26-.12.56A44.56,44.56,0,0,1,425,86.83a14.61,14.61,0,0,1-1.29-5l0-.66v-.35l.07-.49a.19.19,0,0,1,0-.07c-.33,0-.65.07-1,.09-5.65.39-8,.32-10.34-.09a5.34,5.34,0,0,1-.34.75,2.77,2.77,0,0,1-1.25,1,10.9,10.9,0,0,1-1.88.55c-1.11.23-2.13.42-3.15.67s-2,.56-3,.89a15.38,15.38,0,0,0-2.74,1.21,4.2,4.2,0,0,0-1.78,2,5.09,5.09,0,0,0-.13,3.09,4.52,4.52,0,0,1-1.29-3.36,5.22,5.22,0,0,1,1.73-3.52,9.28,9.28,0,0,1,1.51-1.19c.52-.3,1-.6,1.57-.87a16.92,16.92,0,0,1,3.36-1.23,24,24,0,0,1,3.42-.59l.67-.07c-1.72-.39-3.91-.86-7.23-1.42-3.57-.59-5.64-1-6.79-1.29a15.29,15.29,0,0,1-.54,2.2,3.52,3.52,0,0,1-.67,1.14l-.19.19a2.29,2.29,0,0,1-.36.21.85.85,0,0,1-.24.08l-.06.15-.28.77a5.35,5.35,0,0,1-1.26,2A11.89,11.89,0,0,1,390,84.92c-1,.77-2,1.42-3,2a13.62,13.62,0,0,0-2.45,1.89,1.53,1.53,0,0,0-.45.86,1.18,1.18,0,0,0,0,.26l.15.42c.1.29.19.59.28.89a7.55,7.55,0,0,1,.35,1.87,1.35,1.35,0,0,1-.29,1.06c-.43.29-.75,0-1-.16.27.09.66.06.68-.1a1.32,1.32,0,0,0-.14-.66,11.42,11.42,0,0,0-.83-1.47L383,91.1l-.25-.38a3.35,3.35,0,0,1-.28-.57,3.07,3.07,0,0,1,.26-2.52,10.24,10.24,0,0,1,2.67-3c.95-.8,1.92-1.47,2.81-2.15l.29-.23c-2.36.43-5.46.47-9.68,1.58-.28,1.69-.57,3.37-.92,5l-.07.33-.23.28a20,20,0,0,1-2.17,2.35,8.81,8.81,0,0,1-1.4,1c-.16.08-.28.16-.47.24a3.15,3.15,0,0,1-.63.22,4.32,4.32,0,0,1-1.07.12,8.51,8.51,0,0,0-2.4.05A2.67,2.67,0,0,0,368,94.86c-1,1.66-2,3.35-3.15,5a37.21,37.21,0,0,1-3.58,4.78c.7-1.87,1.36-3.72,2.09-5.56s1.5-3.64,2.33-5.45a5.38,5.38,0,0,1,2.62-2.79,8.11,8.11,0,0,1,3.43-.39,1.82,1.82,0,0,0,.38,0c.06,0,0,0,.07,0l.18-.11a8.65,8.65,0,0,0,.94-.73A19.65,19.65,0,0,0,375,87.81c.25-1,.52-2.06.81-3.08-.7.24-1.41.5-2.16.81-13.15,5.42-15.47,7.74-24.76,25.53s-13.15,21.67-10.05,30.17,7.18,11.61-1.05,17.8-8.24,7-8.24,14.7c0,.44,0,.88.06,1.32l37.08,10.54,3.88.06a15.93,15.93,0,0,1-2.28-.37,12.31,12.31,0,0,1-4.1-1.72,23.58,23.58,0,0,1-3.37-2.74c-.54-.51-1-1-1.53-1.52a4.19,4.19,0,0,1-.85-2.09,5.78,5.78,0,0,0,1.36,1.52,19.45,19.45,0,0,1,1.79,1.16c1.16.81,2.28,1.62,3.45,2.37a18.71,18.71,0,0,0,3.61,1.88l4,1.54,10.83.17-1.07,2.74a41.27,41.27,0,0,1,13.75-13.09c-1.24.22-2.48.42-3.72.58l-3,.42a8.53,8.53,0,0,0-2.69.79c-.87.39-1.72.92-2.63,1.42-.46.24-.93.49-1.42.7s-.86.42-1.29.66c-1.72,1-3.45,2.11-5.21,3.18a30.24,30.24,0,0,1,4.56-4.19,10.21,10.21,0,0,1,1.36-.87c.42-.22.84-.48,1.27-.74a27.9,27.9,0,0,1,2.71-1.56,9.32,9.32,0,0,1,3.16-.84c1-.08,2.06-.16,3.09-.17,1.57,0,3.14,0,4.71.1a45.19,45.19,0,0,1,22.1-5.69c23.56,0,42.73,17.66,42.73,39.35a.43.43,0,0,1,0,0c1.11.86,3.05,2,3.36-.67l.09-.8c-.35-4.16-4.23-18.29-4.94-20-.45-1.13-3.1-3-4.3-2.79-.14,0-.36.05-.39.63l-1.55-.1a2,2,0,0,1,1.7-2.06c1.95-.32,5.28,2,6,3.74.06.14.14.39.24.68l-.14-1.16c1-.12,25.62-2.82,33,1.95h0l.21-.06a2.29,2.29,0,0,1,.47,0,4.2,4.2,0,0,1,1.83,1.48,5.86,5.86,0,0,1,.57.92c.14.31.36.71.19,1.05,0-.34-.32-.56-.53-.8a7.92,7.92,0,0,0-.77-.64,4.72,4.72,0,0,0-1.45-.8l-.07.2-.34,1-.71,1.92c-.52,1.28-1,2.55-1.67,3.79a17.92,17.92,0,0,1-2.2,3.55c-.64,1.19-1.22,2.29-1.56,3-1,2.09-4.11,11.33-4,14.13.1,1.89,2.11,13.31,3.41,20.55l2,3.42c1.1,2,2.21,3.95,3.38,5.81a40.21,40.21,0,0,0,4.14,5.13,6.89,6.89,0,0,0,1.18,1c.45.3.93.59,1.4.88.94.59,1.9,1.16,2.85,1.72,1.51.67,3,1.36,4.54,2a11.61,11.61,0,0,0,1.1.4c.17,0-.06,0,.12,0a1.86,1.86,0,0,1,.41,0l.64.09,2.48.37c1.65.23,3.31.37,5,.45a21.35,21.35,0,0,0,5-.29,18.15,18.15,0,0,1-5,.95,39.13,39.13,0,0,1-5.08,0L510,259l-.61,0h-.21a2.83,2.83,0,0,1-.5-.05,11.56,11.56,0,0,1-1.29-.41c-.5-.18-1-.4-1.46-.59a5.78,5.78,0,0,1,.43.91,12.23,12.23,0,0,1,.54,1.92,26,26,0,0,1,.48,3.89,29.13,29.13,0,0,1,0,4,3.69,3.69,0,0,1-1.47,2.57c-.1.08-.21.14-.31.21l1.16-.21-8.48,3.9-5.93,6.08c.74,1.11,1.44,2.14,1.8,2.69,1,1.55,10.32,12.12,12.9,12.38s10.31,7,10.31,9.8-2.84,9.54-2.84,9.54-3-1.88-5-3.42-7.48-7.54-13.16-9.6-7.86-6.06-15.6-6.58-17.53,0-20.11,0a50.11,50.11,0,0,1-10.32-1c-6.19-1-5,2.07-5,2.07s-10.43.51-19.2.51-5.67-5.07-5.67-5.07l-3.61,5.07a35.46,35.46,0,0,1-14.06,3.1c-7.73,0-15.86,2.57-18.43,5.41a5.59,5.59,0,0,1-5.68,1.81s-1.55-5.68,0-8.77,12.38-3.61,18.05-5.67,19.09-4.65,21.15-4.65,2.06-3.09,2.06-3.09a10.92,10.92,0,0,0,6.19,0c3.1-1,0,0,2.58-1A72.39,72.39,0,0,1,443,281c4.64-.52.52-1.55,0-4.13,0,0-4.64-5.93-6.7-6.45S428.21,267,434.4,266s15.09,6.52,20.9,9.35c6.65,3.23,17.91,5.94,21,5.42,2.42-.4,9.08-2.54,11.87-3.45a21.82,21.82,0,0,1,1.93-1.13c.66-.71,1.3-1.42,2-2.11a13.39,13.39,0,0,1,3.37-2.27,65.25,65.25,0,0,1,7.23-2.42,6.74,6.74,0,0,0,1.33-.6c.33-.23.4-.29.5-.56.19-1.13.37-2.42.53-3.64s.3-2.48.4-3.72c.05-.62.07-1.24.07-1.86a5.36,5.36,0,0,0-.15-1.26c-.92-.36-1.86-.72-2.77-1.12h0l0,0c-1-.56-2-1.13-2.94-1.72-.49-.3-1-.61-1.45-.94a7.94,7.94,0,0,1-1.39-1.19,35.58,35.58,0,0,1-4.19-5.51c-1.09-2-2-4.07-3-6.11l-1-2.16c.47,2.63.8,4.41.8,4.41l-8.82-21.15s-.46-17,.05-19.58c.43-2.14,5.68-8.9,7.37-11-8.06-1.6-20.88-.57-24.8-.19,1.53,5.45,3.64,13.77,3.64,16.37a4.94,4.94,0,0,1-.84,2.88c0,.6.06,1,.06,1.19a7.59,7.59,0,0,1-1.54,3.15c-.65.77-2.45,2.36-2.58,2.15s-.63-.1-1.13-.07c-3.81,16-18.2,28.37-36,30.57a3.71,3.71,0,0,0-.61,1.34,9.84,9.84,0,0,0-.29,2,30.42,30.42,0,0,0,0,4.16,47.78,47.78,0,0,0,1.29,8.18,14.27,14.27,0,0,0,1.36,3.55,2.82,2.82,0,0,0,.85.95l1.94.73c2.53.93,5.55,1.28,8.24,2.58l-4.37.07a21.91,21.91,0,0,1-4.47-.32,18.78,18.78,0,0,1-2.22-.51,5,5,0,0,1-2.37-1.84,13.64,13.64,0,0,1-2-4.42,26.87,26.87,0,0,1-.71-9,19.07,19.07,0,0,1,.88-4.45,9.58,9.58,0,0,1,1-2.09,3.82,3.82,0,0,1,.81-.9c-1.35.14-2.7.23-4.08.26l.22.16a29.17,29.17,0,0,1-3.2,3.13c-1.07.95-2.15,1.86-3.24,2.75a60.59,60.59,0,0,1-6.9,5,38.83,38.83,0,0,1-3.71,2.14c-1.3.62-2.58,1.16-3.86,1.73s-2.56,1.15-3.8,1.79a12.13,12.13,0,0,0-3.45,2.33,12,12,0,0,1,3.26-2.66c1.19-.76,2.41-1.46,3.64-2.15s2.48-1.35,3.65-2.06a39,39,0,0,0,3.39-2.38,60.13,60.13,0,0,0,6.22-5.49c1-1,2-2,2.92-3,.43-.45.86-.92,1.28-1.39-22.38-1.21-40.19-18.36-40.19-39.28a36.36,36.36,0,0,1,2.35-12.82l-12.05-1.46-35.52-11.08c1,4.39,1.57,8.29-1.62,10.56-5.41,3.87-3.49,10.46-5.62,14.08-.44.74-2.13,13.71-2.44,19.21-.08,1.38-.16,2.75-.32,4.17a40.11,40.11,0,0,1-.81,4.15l-1.95,8c-1.32,5.29-2.65,10.58-3.74,15.89a78.65,78.65,0,0,0-2.22,15.89c-.07,5.45.06,10.86.47,16.26a102.1,102.1,0,0,0,2.45,16A65.93,65.93,0,0,0,321,322.79c-6.13-9.14-9.15-20.15-10.43-31.07-.25-1.91-.42-3.83-.56-5.75a3.47,3.47,0,0,0-1.61-.78c5.26,38.95,1.62,45.8,1.37,45.94-.4,5.28-3.77,19.2-4.37,22.28a33.17,33.17,0,0,1-1.19,4.63,8.82,8.82,0,0,1-.54,1.19,3,3,0,0,1-.43.62,4.85,4.85,0,0,1-.43.45c-.54.53-1.06,1.08-1.58,1.65-2.08,2.25-4,4.66-6.3,6.86a15.93,15.93,0,0,1-3.8,2.86c-1.36.76-2.74,1.47-4.12,2.17-5.54,2.78-11.14,5.41-16.76,8,5.5-2.83,11-5.7,16.39-8.7,1.35-.75,2.69-1.51,4-2.31a14.87,14.87,0,0,0,3.47-2.85c2.09-2.21,3.95-4.68,6-7.07.51-.59,1-1.19,1.56-1.77a2.75,2.75,0,0,0,.35-.4,1.44,1.44,0,0,0,.21-.34,5.75,5.75,0,0,0,.37-.94,32.35,32.35,0,0,0,.94-4.4c.46-3,.75-6.08,1-9.14.36-4.69.59-9.4.77-14.11C294,334.61,262,344.41,246,346.37v30.45c0,9.67,46.42,42.94,58.8,47.66s50.54,27.77,50.54,27.77,11.35,55.7,8.25,60.34,0,10.83,0,10.83h-.22l23.24,1c4.09.15,8.19.34,12.22.3s8.08-.41,12.15-.85c8.13-.89,16.35-1.73,24.57-2a148.92,148.92,0,0,1,24.71.6,107.17,107.17,0,0,0,12.16,1,40.49,40.49,0,0,0,6-.48c2-.29,3.94-.8,6-1.2,4.07-.87,9-3.18,8.95-4.55M378,208.65c0,20.44,17.76,37.13,39.85,37.78l.07-.1.15.11,1.11,0c22.71,0,41.18-17,41.18-37.81s-18.47-37.8-41.18-37.8-41.18,17-41.18,37.8m115-17.08.71-1.7.16-.34c-7.07-4.18-30.36-2-31.71-1.88.19.58.41,1.34.67,2.24,4.39-.44,22.83-2,30.17,1.68M332.66,312.05c2.42,5.54,5.26,10.79,8.06,16.05s5.76,10.41,8.49,15.65c1.38,2.62,2.72,5.25,3.89,7.92.6,1.33,1.07,2.67,1.7,4.11s1.3,2.75,2,4.11c5.76,10.63,13.2,20,21.12,28.92-3.49-4.82-6.94-9.67-10.12-14.68a146.41,146.41,0,0,1-8.84-15.32c-1.27-2.67-2.18-5.29-3.32-8.19s-2.45-5.52-3.78-8.2c-2.69-5.35-5.57-10.56-8.38-15.79s-5.67-10.43-8.11-15.76a34.31,34.31,0,0,1-2.8-8,6.15,6.15,0,0,1-.08-.93v-.44l0-.56.18-2.22.33-4.45c.88-11.86,1.73-23.74,2-35.66l-2.27,17.71c-.73,5.91-1.45,11.81-2.12,17.73l-.51,4.43-.23,2.22-.06.56,0,.67a9,9,0,0,0,.07,1.29,36.59,36.59,0,0,0,2.82,8.86m19.88,1.41c.48,1.25,1.06,2.51,1.59,3.72l1.63,3.52c1.12,2.33,2.07,4.73,3.09,7.12q1.62,4,3.08,8.05a62.32,62.32,0,0,0,1,7.42c.12.6.31,1.22.49,1.83s.4,1.14.61,1.71c.39,1.14.86,2.23,1.3,3.34.91,2.2,1.88,4.36,2.89,6.51,2.07,4.26,4.26,8.45,6.68,12.52a138.19,138.19,0,0,0,7.79,11.85,62,62,0,0,0,9.53,10.47A74.28,74.28,0,0,1,384,380.18c-2.47-4-4.74-8.05-6.93-12.17s-4.26-8.31-6.14-12.58c-1-2.12-1.9-4.25-2.76-6.4-.41-1.08-.86-2.15-1.22-3.24-.19-.54-.4-1.09-.56-1.62s-.31-1-.42-1.57a84.11,84.11,0,0,1-1.47-13.71c-.24-4.66-.29-9.34-.36-14-.05-9.37,0-18.77,0-28.18q-1.83,14-2.4,28.14c-.2,4.59-.24,9.19-.16,13.79-.16-.54-.3-1.08-.46-1.62-.77-2.53-1.7-5-2.68-7.46-.48-1.24-1.05-2.43-1.58-3.64s-1-2.33-1.43-3.52a52.05,52.05,0,0,1-2.12-7.29c-.33-1.24-.5-2.51-.76-3.76s-.41-2.53-.54-3.81a118,118,0,0,1-.78-15.56,54.75,54.75,0,0,0-1.62,15.74,51.22,51.22,0,0,0,2.92,15.76m38.23-107.2a5.47,5.47,0,0,1,.9.72,9.24,9.24,0,0,1,1.42,1.93l.09.14.16.07a39.81,39.81,0,0,0,10.41,2.34,75.09,75.09,0,0,0,10.6.47,43.51,43.51,0,0,0,5.33-.43,13.6,13.6,0,0,0,2.67-.63c.94-.34,1.64-.7,2.47-1q4.83-2.09,9.58-4.37c-3.34,1.07-6.68,2.22-10,3.43-.8.28-1.7.65-2.44.85a15.69,15.69,0,0,1-2.47.44,49.31,49.31,0,0,1-5.17.26A101,101,0,0,1,403.9,210a49.81,49.81,0,0,1-10.08-1.76,10.31,10.31,0,0,0-1.58-1.85,4.54,4.54,0,0,0-1.14-.76c-.45-.19-.77-.29-1.16-.49-1.5-.73-2.94-1.63-4.41-2.48a40.51,40.51,0,0,0,4.12,3c.34.23.81.45,1.12.62m-15.63,98.07.21,3.42.51,6.83c.2,2.28.41,4.55.68,6.83.15,1.14.3,2.28.51,3.43s.54,2.2.78,3.35c.49,2.22.93,4.46,1.38,6.69s.93,4.47,1.46,6.7c-.39-4.56-1-9.09-1.67-13.61l-.29-1.71c-.12-.58-.24-1.14-.32-1.65-.16-1.1-.28-2.23-.39-3.36q-.33-3.39-.6-6.8l-1.2-13.54a22.19,22.19,0,0,1,1.72-6.42c.8-2.12,1.76-4.19,2.75-6.25a53.16,53.16,0,0,0-3.44,5.95,23,23,0,0,0-2.22,6.64c0,.31,0,.63,0,.94l0,.86Zm-34.76,55.53c2.4,4.47,4.91,8.89,7.37,13.34,1.22,2.23,2.44,4.46,3.88,6.62a72.17,72.17,0,0,0,4.75,6.07,106.74,106.74,0,0,0,11,10.65,90,90,0,0,0,12.43,9,22.89,22.89,0,0,0,7.15,3.05c2.47.43,4.95,1,7.42,1.58s5,1.13,7.45,1.63a27.76,27.76,0,0,0,7.58.77,15.41,15.41,0,0,1-3.77-.36c-1.25-.22-2.49-.51-3.72-.81-2.46-.61-4.9-1.29-7.36-2s-4.91-1.3-7.43-1.8a22.1,22.1,0,0,1-6.71-3.12,102.23,102.23,0,0,1-12.13-9,105.89,105.89,0,0,1-10.79-10.6,71.64,71.64,0,0,1-4.69-5.89c-.66-1.06-1.39-2.06-2-3.17L349,372.49c-2.51-4.41-5-8.84-7.55-13.23l-7.65-13.18c-2.6-4.36-5.16-8.76-7.8-13.1,2.34,4.51,4.76,9,7.14,13.47Zm5.06,27.21c1.76,2.21,3.55,4.4,5.41,6.53a42.56,42.56,0,0,0,6.15,6,71.24,71.24,0,0,1,6.65,5.12,83.5,83.5,0,0,1,6.15,5.76,63.49,63.49,0,0,0-12.11-11.84,49.4,49.4,0,0,1-5.73-6q-2.71-3.21-5.31-6.53c-3.5-4.39-6.9-8.88-10.35-13.33l-5.14-6.7-5.2-6.67c3,4.8,6.15,9.46,9.39,14.08s6.6,9.14,10.09,13.58m13.3,28.48a106.59,106.59,0,0,0,9,6.39,84.74,84.74,0,0,0,9.62,5.39,85.71,85.71,0,0,0,10.19,4.16,80.14,80.14,0,0,0,10.64,2.71,99.35,99.35,0,0,1-20.3-7.93,108.85,108.85,0,0,1-18.17-11.93,129.21,129.21,0,0,1-15.87-14.9c-2.45-2.68-4.79-5.47-7-8.38q-1.67-2.16-3.2-4.42c-.5-.76-1-1.53-1.45-2.32a16.23,16.23,0,0,1-.93-1.81,21.18,21.18,0,0,0,2,4.34c.93,1.59,1.92,3.13,2.94,4.65,2.08,3,4.34,5.92,6.7,8.72a118,118,0,0,0,15.8,15.33m31.79,30.9c-1.27-.36-2.51-.8-3.75-1.27s-2.48-.88-3.69-1.43a112,112,0,0,1-14.14-7A143.78,143.78,0,0,1,355.8,428c-4.23-3.17-8.28-6.59-12.3-10.05a112.3,112.3,0,0,0,11.57,11,101.86,101.86,0,0,0,13.1,9.17,84.73,84.73,0,0,0,14.5,6.8c1.24.48,2.52.86,3.8,1.24s2.55.79,3.85,1.07a78,78,0,0,0,7.85,1.46c-1.28-.35-2.56-.7-3.85-1s-2.53-.78-3.79-1.17M311,252.65a27.45,27.45,0,0,0,.05-12.38,83.27,83.27,0,0,0-4.1-13.41s4.57-5.16,4.05-11.35c1-1.29,1.55-1.8,0-7.73a19.25,19.25,0,0,0-2.53-5.14h0s-5.27-8-8.14-12.39l-.2-.48a1,1,0,0,0,0,.17l-1.5-2.28c-1-1.54-5.16-3.09-5.16-3.09v16.5s-3.1,16.51,0,20.63c.88,1.18,1.79,2.56,2.64,4,.1.17-1.81,4.65,2.39,7.52l1.59,10.17s.08-7.74,0-9.29a45.48,45.48,0,0,0,4.55,1.73s-3.39-5.08-5.69-9.26-3.08-10.36-3.08-10.36l.18-3.77s1.55-10.31,4-12.38,3.7,0,3.7,0l.89.5,3.52,8.33L307,212.42s-5.23,6.19-4.2,9.8a32.61,32.61,0,0,0,4.2,8l1.21,6.72a18.12,18.12,0,0,0-3.52-1.12l4.23,5Zm227.71-35.88c2.84,5.19,3.36,7.77,5.16,11.38s1.81,7.22,2.84,6.71,3.08-4.9,2.7-8.26a69.9,69.9,0,0,1,.05-12.37c.34-3.1.59-10.06-.05-11.35s-3.73-6.18-4.76-7-10.58-4.42-10.58-4.42,1,6.48,1.81,11.12,0,9,2.83,14.15m-147.45-30c1.78,0,3.46.35,5.78,0a23.65,23.65,0,0,1,3.3,0,8.75,8.75,0,0,0-1.14,2.43c-1.39,4.47-.68,7.34,1.32,9.42-1.24-.12-2.49-.24-3.73-.4a25.14,25.14,0,0,1-4.55-.84,19.3,19.3,0,0,0,4.41,1.56c1.52.38,3.05.7,4.59,1a70.92,70.92,0,0,0,9.32.95c3.15.06,6.23-.06,9.34-.26s6.2-.5,9.28-.95q-4.67-.26-9.31-.28H417a7.49,7.49,0,0,0,2.11-4.92,11.27,11.27,0,0,0-.82-4.94,17.55,17.55,0,0,1,2.09.4,7.2,7.2,0,0,1,2.07,1.07,25.94,25.94,0,0,1,2.21,1.69,12.47,12.47,0,0,1,1.09,3.33c0,1,.19,3,1,2.77s4.45,1.29,5.42,2.38,2.32.91,2.32,2.65.77,1.74.77,1.74l1.75-2.32s-.41-1.46-3.29-4.16a25.31,25.31,0,0,1-.85-3c-.2-.87-.26-1.7-.4-2.66a14.83,14.83,0,0,0-.76-2.7l-.5-1.25a5.88,5.88,0,0,1-.2-.59l-.07-.28a2.4,2.4,0,0,0-.19-.48,9,9,0,0,0-2-2.15,34.71,34.71,0,0,0-4.59-3.08,26.76,26.76,0,0,0-5.05-2.25c-1.71-.61-3.44-1.13-5.18-1.65a79.47,79.47,0,0,0-10.58-2.42c1.73.53,3.41,1.19,5.1,1.8l5.09,1.84,5.06,1.84a31.13,31.13,0,0,1,4.81,2.17,38,38,0,0,1,4.45,2.87,8.11,8.11,0,0,1,1.76,1.67,1.64,1.64,0,0,1,.07.15c0,.12.07.25.11.37s.19.46.29.67l.59,1.22a12.84,12.84,0,0,1,.89,2.45,26.56,26.56,0,0,0,.63,2.65c.27.77.58,1.52.92,2.26-2-1.68-4.62-3.17-6.73-5a17.93,17.93,0,0,0-2.34-4.08,9,9,0,0,0-2.38-2.18,13.61,13.61,0,0,0-2.84-1.24,28.8,28.8,0,0,1-4.89-1.82,22,22,0,0,0-5.95-1.42,42.71,42.71,0,0,0-5.76-.26c-1,0-1.92.08-2.91.21a14.26,14.26,0,0,0-3.09.63,16.9,16.9,0,0,1-2.39.6c-.91.2-1.86.39-2.82.67a8.74,8.74,0,0,0-2.77,1.37,3.15,3.15,0,0,0-1.31,2.69c.95-1.77,2.74-1.8,4.44-1.78M388.41,196a4.78,4.78,0,0,0,1.09.2,2.21,2.21,0,0,0,1.19-.25l-.85-.72a7.85,7.85,0,0,0-.84-.58,7.49,7.49,0,0,0-1.75-.72,3.6,3.6,0,0,0-.43-.82,4.09,4.09,0,0,0-.58,1.29l-.05.18.35.33a5.26,5.26,0,0,0,1.87,1.09m-3.14-51.33a73.24,73.24,0,0,1,7.08-3.17,75.31,75.31,0,0,1,14.94-3.89,91.67,91.67,0,0,1,15.42-1.27,17.69,17.69,0,0,1,3.72.34c1.14.44,2.32,1.06,3.48,1.63l7,3.46c-2.18-1.44-4.41-2.78-6.65-4.13-1.15-.65-2.24-1.31-3.5-1.87a17.53,17.53,0,0,0-4-.62,73.19,73.19,0,0,0-15.72.93,63,63,0,0,0-15.14,4.32,68.86,68.86,0,0,0-7,3.61,52.19,52.19,0,0,1-6.78,3.84,17.76,17.76,0,0,0,3.64-1.43Zm143.9,60.82a8.65,8.65,0,0,1,1.55-3.1s-.66-.3-3.61-1.29a70.56,70.56,0,0,0-9.93-2.38c-5.16-1-16.37,1.35-16.37,1.35l-4.33.52-2.38,5.26s3.1,3.07,4.13,5.39c.34.77,1.39,1.19,2.72,1.42h0A70.94,70.94,0,0,0,512,214.38c1.86.14,3.72.26,5.6.25a29.49,29.49,0,0,0,5.62-.41c-3.68-.58-7.33-1.06-11-1.37a33.42,33.42,0,0,0,3.54-1s.52-4.59,0-6.39a5.22,5.22,0,0,1,0-3.1l5.81.28a41.79,41.79,0,0,0,2.57,6c1,1.59-.12,2.22,2.45,0l.22-.17a10.58,10.58,0,0,1,.37,1.55A5.21,5.21,0,0,1,527,213a10.88,10.88,0,0,0-.76,1.56,1.55,1.55,0,0,0-.06.56c-.14,1.24-.24,2.47-.49,3.66a9.1,9.1,0,0,1-.44,1.73,1.94,1.94,0,0,1-1,1,8.94,8.94,0,0,1-3.42.57c-1.22,0-2.47,0-3.7-.12-2.46-.18-5-.52-7.46-.79s-5-.54-7.55-.73a69.19,69.19,0,0,0,7.36,1.92,62.87,62.87,0,0,0,7.54,1.14,33.29,33.29,0,0,0,3.87,0,9.19,9.19,0,0,0,3.94-1,3,3,0,0,0,1.42-1.73,9.47,9.47,0,0,0,.24-2,24.91,24.91,0,0,0-.21-3.35,3.54,3.54,0,0,0,.51,1.14,17,17,0,0,0,1.06,1.34l1,1.28c.67.85,1.32,1.74,2,2.61a10.06,10.06,0,0,0,1.26,1.28,2.88,2.88,0,0,0,.47.3,1.37,1.37,0,0,1,.23.15c.19.13.4.3.6.47l4.85,4.43a39.32,39.32,0,0,0-4-5.3c-.19-.2-.38-.41-.62-.62a2.29,2.29,0,0,0-.45-.32,1.66,1.66,0,0,1-.21-.16,8.33,8.33,0,0,1-1-1.15l-2-2.63L529,217c-.36-.44-.75-.86-1-1.21s-.45-.7-.38-1,.38-.84.57-1.44a5.61,5.61,0,0,0-.24-3.55,12.65,12.65,0,0,0-.79-1.61c1.91-1.56,1.34-.63,2-2.76M434.4,316.23l.77-4.08h-1.54Zm20.5-62.08a20.24,20.24,0,0,0,1-4.79c.17-1.61.22-3.22.23-4.83a45.43,45.43,0,0,0-1-9.63,65.15,65.15,0,0,0-.57,9.63c0,1.6,0,3.2.11,4.8ZM503,193.09,528,194.37s-2.32-.71-2.38-1.28-8.45-1.37-11.47-1.59-10.47,1.05-11.2,1.59"/><g class="cls-2"><g class="cls-3"><path class="cls-4" d="M457.61,208.65c0,19.54-17.22,35.38-38.47,35.38s-38.47-15.84-38.47-35.38,17.22-35.37,38.47-35.37,38.47,15.83,38.47,35.37"/></g></g><g class="cls-2"><g class="cls-5"><path class="cls-4" d="M555.23,220.24c0,18.72-14.63,33.91-32.68,33.91S489.88,239,489.88,220.24s14.63-33.91,32.67-33.91,32.68,15.18,32.68,33.91"/></g></g><path class="cls-6" d="M416,191.5a2.58,2.58,0,1,1-2.58-2.58A2.57,2.57,0,0,1,416,191.5"/><path class="cls-6" d="M512.67,203.65a2.58,2.58,0,1,1-2.58-2.58,2.58,2.58,0,0,1,2.58,2.58"/></svg>