<svg xmlns="http://www.w3.org/2000/svg" viewBox="0 0 230.8 212.3"><defs><style>.cls-1{fill:#e67311;}.cls-2{fill:#cd5211;}.cls-3{fill:#ffa609;}.cls-4{fill:#ffd40c;}.cls-5{fill:#d9491a;}.cls-6{fill:#fef9d1;}.cls-7{fill:#e8be76;}</style></defs><title>pumpkin pie slice</title><g id="OBJECTS"><g id="_Group_" data-name="&lt;Group&gt;"><path id="_Path_" data-name="&lt;Path&gt;" class="cls-1" d="M230.8,165.84c-3.91,14.89-11.21,37.39-11.21,37.39S108.26,178.52,32.26,131.07l-10.15-9.43L16.56,46.28,155.77,99.45Z"/><g id="_Group_2" data-name="&lt;Group&gt;"><path id="_Path_2" data-name="&lt;Path&gt;" class="cls-2" d="M21,107.15C32.6,117.93,191.51,185.39,221.27,198c.91-2.88,2.12-6.72,3.41-11l-204-88.45.35,8.59Z"/><path id="_Path_3" data-name="&lt;Path&gt;" class="cls-2" d="M228.25,175,19.55,70.79,20,81.33,226,182.72C226.75,180.19,227.52,177.59,228.25,175Z"/><polygon id="_Path_4" data-name="&lt;Path&gt;" class="cls-2" points="19.11 80.9 19.15 81.46 20.4 98.44 20.69 98.56 19.98 81.33 19.11 80.9"/></g><path id="_Path_5" data-name="&lt;Path&gt;" class="cls-3" d="M125.74,18.18,230.8,165.84S97.88,95.19,57.1,77.54s-44.77-28.2-44.77-28.2S75.32.67,125.74,18.18Z"/><path id="_Path_6" data-name="&lt;Path&gt;" class="cls-2" d="M79.23,43.41c4.63-1.33,9-.44,13.52-2.83,3.93-2.08,7.12-7.26,11.2-8.6,5-1.64,12,1.18,16.71,2a34.89,34.89,0,0,0,15.49-1.21L125.74,18.18C75.32.67,12.33,49.34,12.33,49.34s1.83,4.78,15.42,13.28a32,32,0,0,1,12.4-8.38c9-3,20.52,2.78,28.69-3.05C73.31,48,73.69,45,79.23,43.41Z"/><path id="_Path_7" data-name="&lt;Path&gt;" class="cls-2" d="M107.73,82.51c18.08,10.33,52.07,21.39,64.28.69L139.5,37.52a110.08,110.08,0,0,0-36,5.48c-7.78,3.12-21.32,9.59-18.81,20.07C86.85,72.12,100.46,78.36,107.73,82.51Z"/><path id="_Path_8" data-name="&lt;Path&gt;" class="cls-3" d="M16.32,59.88c12.16-6.17,10.22-22.46,23.07-18.79S53.88,46.35,64.27,33,83.48,38.26,94,34,103,12.87,114.39,20.39s14.07,5.86,20.33-.81,3.07-18-14.17-16.77S102.61-5.67,89,5.28,57.12,1.57,45.21,16.66,13.93,17.18,1.46,45Z"/><path id="_Path_9" data-name="&lt;Path&gt;" class="cls-4" d="M19.27,40.22c7.81-4.73,15.68-9.4,24.1-13,7.09-3,14.6-6,21.93-8.37,8.2-2.65,16.35.3,24.53-1.31,7.37-1.45,13.65-5.23,21.32-5.93,6.91-.64,13.81.26,20.69.78,1.16.09,2.36.14,3.58.18a6,6,0,0,0-.42-2.26c-1.28-3.15-5.2-5.1-10.75-5.34a30.33,30.33,0,0,0-3.54.06,44,44,0,0,1-4.85.07,42.1,42.1,0,0,1-10.3-1.84,22.15,22.15,0,0,0-4.88-1C98.53,2.15,95.8,2.67,90.39,7c-6.23,5-13.24,5.15-19.33,4.88-1,0-2-.1-3-.16l-2.93-.15C58.46,11.3,52.07,11.58,47,18c-5.47,6.93-12.35,8.2-19,9.43-8.79,1.63-17.1,3.17-23.8,17.1l3.27,3.27C11.61,45.49,15.58,42.45,19.27,40.22Z"/><path id="_Path_10" data-name="&lt;Path&gt;" class="cls-5" d="M11.88,59.69c-16.72.06-14.94-20.52,0-20.73s10.2,14.79,12.42,37.77,3.62,44.57,3.62,44.57,89,52.33,191.66,81.93c0,0-1.32,6-3.52,9S25.55,136.68,19,130.49C14.93,126.62,11.88,59.69,11.88,59.69Z"/><path id="_Path_11" data-name="&lt;Path&gt;" class="cls-1" d="M2.62,48.88c3.49-8.2,16.53-7.6,15.3,2.54C15.48,45.85,6.24,47.37,2.62,48.88Z"/><g id="_Group_3" data-name="&lt;Group&gt;"><path id="_Path_12" data-name="&lt;Path&gt;" class="cls-6" d="M154.64,16.57c.73-.09,1.47-.2,2.23-.35Z"/><path id="_Path_13" data-name="&lt;Path&gt;" class="cls-6" d="M141.38,18.67l13.26-2.1C149,17.26,144.25,16.46,141.38,18.67Z"/></g><g id="_Group_4" data-name="&lt;Group&gt;"><path id="_Path_14" data-name="&lt;Path&gt;" class="cls-7" d="M104.25,44.19c-10.54,9.92-9.6,24,2.69,31.9,4.91,3.15,13.39,7,19.28,6.17,11.07-1.63,3-18.32-.83-23.15C122.7,55.74,107.93,38.63,104.25,44.19Z"/><path id="_Path_15" data-name="&lt;Path&gt;" class="cls-6" d="M123.24,21.15C115,25.5,106.4,28.55,103.62,38.3c-3,10.67,1.53,15.74,6.59,24.47,2.24,3.87,2.86,9.12,5.54,12.62,3.39,4.44,10.55,5.88,15.81,7.32,8.75,2.41,28.47,5.34,30.81-7.38.73-4-1.49-7.73-4-10.78-6.45-7.93-15.35-11.94-19.49-21.93-2.5-6-1.72-13.77-7.92-17C128.65,24.39,126,24.1,123.24,21.15Z"/><path id="_Path_16" data-name="&lt;Path&gt;" class="cls-7" d="M115,60.49c-3-5-7.39-9.46-8.49-15.42-.9-4.87.48-9.12,2.79-13a16.12,16.12,0,0,0-3.8,6.76c-2.39,8.4.3,12.84,4.37,19.55.66,1.09,1.34,2.22,2,3.41a33.16,33.16,0,0,1,2.5,6,22.49,22.49,0,0,0,2.9,6.4,9.85,9.85,0,0,0,2.07,1.94C118,70.9,117.94,65.37,115,60.49Z"/><path id="_Path_17" data-name="&lt;Path&gt;" class="cls-7" d="M149.22,58.25c-4.6-4-9.35-8.2-12.12-14.88a37.8,37.8,0,0,1-1.81-6.32c-.94-4.24-1.76-7.91-5.21-9.71-.58-.3-1.22-.55-1.89-.82a16.68,16.68,0,0,1-5.29-3l-2.07,1c-1.2.6-2.36,1.19-3.48,1.79-2.47,11.2,3.51,21.57,9.58,31.92,2.89,4.93,9.78,14.17,2.95,18.57-4.61,3-8.81.91-12.42-2.47,2.68,3.27,8.24,4.75,12.74,5.93l1.88.51c2.39.65,10.76,2.73,18.11,1.81,6.09-.76,9.45-3.27,10.25-7.66.5-2.68-.64-5.6-3.56-9.2A64.73,64.73,0,0,0,149.22,58.25Z"/><path id="_Path_18" data-name="&lt;Path&gt;" class="cls-6" d="M150.32,13.63c-5,10.7-31-7.68-31.22,10.76C119,35.72,132.36,51.63,141,57.92c5,3.64,9.79,6.43,13.86,11.19.66.76,8.44,10.25,6.21,10.57,3.68-.52,8-5.12,10.08-8.23C177,62.64,173.8,50.66,168,42.7,163.44,36.47,145.32,24.33,150.32,13.63Z"/><path id="_Path_19" data-name="&lt;Path&gt;" class="cls-7" d="M166.41,43.86a53.59,53.59,0,0,0-5.33-5.58c-5-4.79-11.21-10.82-13.06-17.16-2.07,8.07,1.5,19.4,5.06,25,2.68,4.2,6.61,7.8,8.86,12.27.1.2.17.41.26.62-3.29-2.41-7-3.67-11.22-5.32-6-2.35-10-5.94-15.47-9.43-7.48-4.8-10.1-6.65-11.68-15.8-.78-4.55-.25-7.06,1.16-8.58L121.56,21a10.57,10.57,0,0,0-.51,3.39c-.11,10.19,12.21,25.46,21.1,31.93,1.1.79,2.18,1.55,3.25,2.3,3.92,2.72,7.62,5.3,10.95,9.19,2.5,2.92,5.23,6.46,6.43,9.17a22.73,22.73,0,0,0,6.74-6.64C174.88,62.35,171.82,51.27,166.41,43.86Z"/><path id="_Path_20" data-name="&lt;Path&gt;" class="cls-6" d="M108,74.44c1,.66,2.19,1.33,3.4,2a33.9,33.9,0,0,0-2.53-6c-2.83-5.81-6.37-11.53-8.38-17.81A16.49,16.49,0,0,0,99,61C99.49,66.24,102.68,71,108,74.44Z"/></g><g id="_Group_5" data-name="&lt;Group&gt;"><path id="_Path_21" data-name="&lt;Path&gt;" class="cls-1" d="M58,75.49c.82,1.06,2.57,1.12,4,1.75-10.06-5.06-20.2-10.15-30.4-14.91C45.27,61,53.12,69.16,58,75.49Z"/><path id="_Path_22" data-name="&lt;Path&gt;" class="cls-4" d="M223.51,159.45,174.11,90c3.83,8.6,6,16.84,4.3,23.08-2.59,9.35-10.18,5.48-17.31,3.33-8.09-2.44-16.16-5.49-24.22-8.58C121.52,102,106.53,97.53,91.66,91.42,136.19,113.43,200.72,147.4,223.51,159.45Z"/></g></g></g></svg>