<svg xmlns="http://www.w3.org/2000/svg" viewBox="0 0 294.1 550.21"><defs><style>.cls-1{isolation:isolate;}.cls-2{fill:#4b1e09;}.cls-21,.cls-3,.cls-7{fill:#51443a;}.cls-31,.cls-4{fill:#f4cfb5;}.cls-5{fill:#fff;}.cls-6{fill:#604729;}.cls-21,.cls-31,.cls-7{opacity:0.4;}.cls-12,.cls-13,.cls-22,.cls-23,.cls-24,.cls-25,.cls-29,.cls-7{mix-blend-mode:multiply;}.cls-19,.cls-20,.cls-8{fill:#605147;}.cls-22,.cls-30,.cls-9{fill:#6d4a23;}.cls-10{fill:#d30000;}.cls-11{fill:#ffd039;}.cls-12{fill:#ffc41f;}.cls-13{fill:#e5b593;opacity:0.6;}.cls-14,.cls-29{fill:#704722;}.cls-15,.cls-25{fill:#b8bfc9;}.cls-16,.cls-24{fill:#6b5c53;}.cls-17{opacity:0.8;}.cls-17,.cls-19,.cls-20,.cls-21,.cls-26,.cls-27,.cls-30,.cls-31{mix-blend-mode:screen;}.cls-18{fill:#ffeb5a;}.cls-19,.cls-22,.cls-23,.cls-24,.cls-25,.cls-29{opacity:0.5;}.cls-20,.cls-30{opacity:0.3;}.cls-27{opacity:0.7;}.cls-28{fill:#f9d9c2;}</style></defs><title>pilot_1</title><g class="cls-1"><g id="Layer_1" data-name="Layer 1"><path class="cls-2" d="M120.81,257.79a16.55,16.55,0,0,0-.08-3.14c0-1.24-.06-2.48-.16-3.72,0-.26-.34-.12-.36.08-.1,1.24-.27,2.47-.42,3.71a16.23,16.23,0,0,1-.39,3.35,6.38,6.38,0,0,0-.21,3.54.73.73,0,0,0,.64.5l.23,0a.82.82,0,0,0,.8-.66C121,260.24,120.53,259.12,120.81,257.79Z"/><path class="cls-2" d="M129,259.29a14.33,14.33,0,0,1-.6-2.91c-.05-.92,0-1.85,0-2.78,0-.33-.44-.16-.46.1-.12,2-.86,4.3.21,6.13C128.4,260.33,129.07,259.72,129,259.29Z"/><path class="cls-2" d="M194.54,257c-.09-2.34-.3-4.68-.46-7,0-.45-.6-.23-.61.13-.11,2.56-.26,5.12-.29,7.68,0,1.4-.19,3.44,1,4.42.39.32.86-.18.88-.57C195.1,260.13,194.6,258.57,194.54,257Z"/><path class="cls-2" d="M197.45,250.19c-.07-.35-.59-.09-.57.2a46.39,46.39,0,0,0,.8,7.89c.17.7,1.15.1,1-.5C198.2,255.27,197.94,252.71,197.45,250.19Z"/><path class="cls-2" d="M287.85,253.22c-.06-.13-.11-.26-.16-.39a.49.49,0,0,0,0-.12c-1.19-4.25-4-8-5.83-12.12-3.39-6.21-7.22-12.22-10.93-18.17-6.43-10.3-12.74-20.91-21.08-29.81s-17.69-16.32-27.13-23.87c-5-4-10.34-7.74-15.53-11.59a17.74,17.74,0,0,0-4.3-2.71,26.09,26.09,0,0,0-4.51-.06.33.33,0,0,1-.33-.23c-.05-.14-.09-.28-.13-.42a14.43,14.43,0,0,0-3.64-.28c-.5,0-3.86.42-3.5-.14.05-.08,0-.17-.1-.11l-.31.21c-2.28-1.74-5.58-3.86-7.42-3.75-.12-.36-.48-.57-1-.22-5,3.78-9.91,7.67-15.51,10.59-5.92,3.1-13,4-19.57,3.91-1.58,0-3.25-.13-4.94-.31-1.46-1.26-3.09-1.77-4.83-.84a.12.12,0,0,0,0,.15,54,54,0,0,1-6.82-1.69c-1.1-.36-7.34-2.16-8.6-3.71l.33-.29c0-.05,0-.15-.05-.11l-.39.22a.66.66,0,0,1-.1-.46c0-.14-.16-.15-.21,0a1.18,1.18,0,0,0-.13.75,26,26,0,0,0-4.39,3.22,16.65,16.65,0,0,0-3.35.8,35.51,35.51,0,0,0-4.53,1.54c-2.74-1.34-10,.62-11.38,1-3.27.93-6.47,2.12-9.72,3.11q-6,1.84-11.88,3.74c-2.4.78-5,1.14-7.42,1.84-1.16-5.35-3.24-10.59-4.59-15.83-2.06-8-4.55-16-6.13-24.08a.5.5,0,0,0-.18-.3c.45-4-8.24-1.94-10.35-1.66-3.93.53-9.49,2.91-9.27,7.6a.77.77,0,0,0,.06.23c0,.06,0,.11-.05.18a7.05,7.05,0,0,0,.22,2.61,94.48,94.48,0,0,0,.89,11.17c.59,5.71.88,11.44,1.39,17.16a88.87,88.87,0,0,0,8.27,30.59C52.4,208.33,64,205.84,71,205.08c11.6-1.23,22.59-7,33.85-10a302.71,302.71,0,0,0-2.82,33.32c-.25,7.3,3.19,12.1,7.14,18,.75,1.12,1.48,2.26,2.17,3.41,1.54,2.59.64,4.77-.09,7.43a12.74,12.74,0,0,0-.53,3.15c-.59.88-2.27,1.79-2.71,2.7-1,2.08.26,5.74-.16,8-1.26,6.76-1.91,13.7-2.55,20.56-.69,7.5-1.13,15-1.25,22.54-.14,8.28-1,16.5-1.22,24.77-.4,15.46,1.9,30.94,3.93,46.24,1.6,12.12,3.52,24.2,5.51,36.27,1.26,9.89,3.09,19.74,4.18,29.6.86,7.77,2,15.5,2.79,23.28a96.29,96.29,0,0,1,.65,10.46c0,2.81-.93,6.1-.32,8.86,1,4.53,8.41,6.39,12.22,7.52a29.17,29.17,0,0,0,16.46,0c4.27-1.25,7.64-3.61,8.9-7.94.88-3,.37-6.56.29-9.6-.07-2.58-.17-5.17-.23-7.75,1.11-10.19,2-20.42,2.93-30.59.69-7.61,1-15.64-.32-23.2a108.17,108.17,0,0,0-2.51-11c-1.05-3.69-3-7.1-4-10.79a20.8,20.8,0,0,0,.4-2.06,4.16,4.16,0,0,0-1.88-3.8,34.64,34.64,0,0,0,1.24-3.64c.72-2.61-.25-4.31-1.67-6.47-1.57-2.4-.61-6.83-.41-9.5.26-3.5.79-7,1.28-10.45,1.44-10.29,2.61-20.64,4.17-30.91.77-5,1.83-10,2.69-15s2.64-9.26,4.44-13.84a37.67,37.67,0,0,1,2.54,3c3.49,4.66,5.54,10.32,7.71,15.67s4.67,10.39,6.6,15.75a186,186,0,0,1,9,37.83c.34,2.54-.29,7.42,1.9,9.21A29.75,29.75,0,0,1,194,388.6c-.88,1.34-1.8,2.94-1.45,4.28,1.18,4.64.47,9.06.47,13.82a108.76,108.76,0,0,0,5.52,32.69c1.83,5.51,4,10.88,6.22,16.25,1.19,6.91,2.58,13.8,3.24,20.78.64,6.71-1.15,16.12,5.3,20.35a32.61,32.61,0,0,0,3,1.76.32.32,0,0,1,.4,0,6.24,6.24,0,0,0,.65.5c.79.37,1.59.72,2.41,1l.09.24a16,16,0,0,0,1.84.48s0-.06,0-.09l1.17.3c1.27.18,2.53.27,3.66.34a33.1,33.1,0,0,0,7.9-.34l.69-.17a60.11,60.11,0,0,0,11-4.85,32.13,32.13,0,0,0,7.63-7.12c-.06-.32-.13-.63-.19-1l-.2.08a17,17,0,0,0-.31-2.56c-.06-.31-.11-.61-.17-.91-.21-1-.47-1.92-.74-2.87-1.93-5.89-3.15-12-4.48-18.05a109.43,109.43,0,0,1-2.81-17.3c-.22-1.07-.42-2.15-.62-3.22a.53.53,0,0,0,.13-.38c-3.35-30.19-7.9-60.38-13.6-90.21q-4.37-22.86-10.37-45.36c-1.87-7-4.31-13.87-6.26-20.87-1.56-5.56-2.45-11.13-4.47-16.46a.58.58,0,0,0,.5-.83c-1.62-2.86-1.66-4.48-.82-7.45a3.23,3.23,0,0,0-1.05-2.95,31.55,31.55,0,0,1-4-4.48,9.7,9.7,0,0,0-.7-1.88c-1.45-3.08,1.87-6.49,3.54-8.64,1.28-1.64,2.3-3.24,2.28-5.43-.07-6.56-2.39-13.32-3.27-19.82-1-7.21-3.19-14.11-4.53-21.25-.31-1.69-.65-3.37-1-5.05.71,1.17,2.73,2.28,3.55,2.89a51.08,51.08,0,0,0,8.35,5.32c2.56,1.24,5.2,2.3,7.77,3.53,3.19,1.52,6.33,1.79,7.13,5.86.73,3.71,4.26,1.67,7.15,2.51.07.13.13.26.21.39,4.3,6.63,7.68,13.57,11.49,20.48,3.57,6.49,9.28,11.32,13.55,17.3,3.09,4.32,1.71,8.68,7.67,5.66,4.07-2.06,9.32-1.92,13.66-.76,1.52.4,3.34,1,4.85.27a2.73,2.73,0,0,0,1.09-1,1,1,0,0,0,.85-.75C287.92,253.58,287.89,253.4,287.85,253.22Z"/><path class="cls-3" d="M279.54,252.65a36.33,36.33,0,0,0-7.8-.16,14.71,14.71,0,0,0-5.77,2.16c-2.54,1.45-4.21-3.87-5-5.23-2.95-4.81-7.51-8.68-11-13.11-3.73-4.78-5.77-11-8.33-16.4a39.91,39.91,0,0,0-4.27-7.46c-3.23-4.2-1.23-7.92.59-11.94a.07.07,0,1,0-.13-.07c-1.92,2.83-4.59,6.34-3.91,9.87a5.82,5.82,0,0,0-1.89-.4c-2.18-.17-2.77-1.56-3.48-3.5-.94-2.55-7-3.92-9.07-4.87-4.13-1.87-8.36-3.41-12.29-5.7-1.44-.84-6-2.71-6.66-4.43q-.63-3-1.36-6a25.92,25.92,0,0,1,.31-3.93,30.63,30.63,0,0,1,1.17-7.38c0-.12-.14-.14-.18,0a26.83,26.83,0,0,0-1.76,7.23,8.3,8.3,0,0,1-.27,1.29c-.8-3-1.69-5.89-2.73-8.78,0-.12-.21,0-.18.09a247.84,247.84,0,0,1,4.83,25.35c1.06,7.62,3,15.05,3.92,22.71.86,6.95,5,15.42.62,21.65-1.44,2.07-3,4.26-3.42,6.79a4,4,0,0,0,.74,2.49c.06,1.12.18,2.24.14,3.31a1,1,0,0,0,.38.81,6.72,6.72,0,0,1,2.8,7.15c-.5,1.85,1.36,3.73,2.92,4.89,1.3,5.49,2,11.08,3.21,16.6,1.54,7,4.45,13.74,6.42,20.62,4.27,14.91,7.66,30.05,10.66,45.27,5.37,27.28,8.72,54.86,13,82.3.34,7.14.56,14.27,1.93,21.39,1.07,5.62,2.12,11.3,3.65,16.82,1.47,5.34,3.84,11.14,4.31,16.69l-.06.11c-2.11,1.25-4.06,2.94-6.22,4.09a79.66,79.66,0,0,1-9.43,4,18.67,18.67,0,0,1-7.43,1.17A20.88,20.88,0,0,1,218,496.17c-2.25-1-5.69-2.78-6.64-5.31-1.71-2.68-1.27-6.95-1.45-10a86.63,86.63,0,0,0-1.23-9.9c-.69-3.89-1.53-7.74-2.38-11.6,1.11,2.77,2.2,5.55,3.22,8.36-1-7.32-2.36-14.54-5.1-21.51-.25-.57-.48-1.15-.72-1.73-.1-.23-.19-.46-.28-.69-1.94-4.56-4-9.07-4.85-14-.25-1.4-.44-2.81-.6-4.21-1-4.7-1.68-9.46-2.21-14.25a79.72,79.72,0,0,1,0-14c.11-1.86-.67-3-1.38-4.64-.35-.8,0-2.17.3-3.45,2.28,2.52,4.24,5.27,6.59,7.79a.34.34,0,0,0,.38.11c-2-3.5-4.33-6.76-6.58-10.09h0v0c-.56-.52-1.12-1-1.69-1.54-1.93-1.68-1.9-4.84-2.16-7.22-.32-2.95-.82-5.89-1.33-8.82A227.14,227.14,0,0,0,180,332.16c-1.84-5.16-3.78-10.38-5.89-15.43-1.81-4.37-4.25-10.1-8-13.19-4.49-3.73-9-7.5-13.77-10.82a67,67,0,0,0-5.91-3.45c-2.39-1.31-4.75-1.31-7.22-2.34-.17-.08-.32.22-.15.32,2.23,1.17,4.64,1.54,6.83,2.89a61.94,61.94,0,0,1,6.71,4.79,114.09,114.09,0,0,1,10.44,9.1c-4.64,6.66-5.27,14.57-6.89,22.43-2.24,10.83-3.13,21.88-4.69,32.81-.68,4.73-1.53,9.44-2,14.2-.36,3.79-1.47,8.61.47,12.12,1.76,3.16,1.3,6.17.14,9.13-.24,1.33-.57,2.67-.83,4-.18.89-.34,1.78-.51,2.66,1-2.09,2-4.14,2.87-6.25a4.06,4.06,0,0,1,.91,2.75c0,2,0,3.95-.17,5.92a1.06,1.06,0,0,0,.71-.67,5.77,5.77,0,0,0,.1-.71c.06,6,2.18,12.07,3.15,17.89a107.48,107.48,0,0,1,.85,24.05c-.18,2.82-.39,5.64-.61,8.46-.38,10.29-1,20.7-.44,31,.22,4.1.23,8.16-1.94,11-2.81,4.33-8.76,5.51-14.41,5.36a37,37,0,0,1-15.84-4.6c-3.43-1.81-2.7-4.89-2.46-8.22a69.85,69.85,0,0,0-.17-9.81c-.86-12-2.53-24-4.11-35.91-.88-6.63-2.12-13.2-3.33-19.78-4-27.66-8.26-55.62-8.3-83.52,0-7.69,1.16-15.3,1-23-.19-7.46,0-14.94.43-22.39.51-7.76,1.41-15.59,2.67-23.26.43-2.61-1.37-5.79,1.22-7.93a6.53,6.53,0,0,0,.78,2.09c.38.67,1.4-.14,1.18-.75-1.23-3.47.39-6,1.37-9.1.57-1.79-.56-3.91-1.33-5.45-1.52-3-3.91-5.79-5.81-8.61a19.68,19.68,0,0,1-3.4-11.87A138.78,138.78,0,0,1,106,204.65c1.23-6.73.63-13.66,1-20.47,0-.21-.29-.14-.32,0-.5,2.48-.93,5-1.34,7.5-.52-.75-1.13-1.46-1.63-2.17a15.79,15.79,0,0,1-2.31-6.54c0-.17-.25,0-.26.09-.26,4.06,1.69,7.79,3.8,11.15,0,0,0,.07,0,.1-9.27,1.84-18.27,4.5-27.38,7a67.22,67.22,0,0,1-14.61,2c-2.06.09-4.13.17-6.19.31-4.15.29-5.8-2.19-7.26-5.32-4.58-9.79-6.69-19.7-7.63-30.45-.73-8.36-1.9-16.68-2.76-25a.43.43,0,0,0,.11-.28,16.71,16.71,0,0,0-.36-2.23c0-.49-.1-1-.14-1.48l.1-.09c1.87,2.33,5.51,4.68,8.45,4,3.63-.86,6.78-4.65,9.23-7.71,2.35,11.77,6.22,23.23,9.49,34.8a23.13,23.13,0,0,1,1.65,7.83,44.43,44.43,0,0,1,1.09,10.25,23.16,23.16,0,0,0,.43-6.66c0-.74,0-1.42,0-2.07a.47.47,0,0,0,.12-.3c0-.2,0-.4,0-.6.64,1.46,1.41,2.89,2,4.27,1.26,2.76,2,5.51,1.16,8.54-.72,2.49-1.9,4.8-2.69,7.27a20.77,20.77,0,0,0,4.27-9.53,18.15,18.15,0,0,0-.66-6.5,80.05,80.05,0,0,0-4.4-7.61,24.48,24.48,0,0,0,4.11-.87c3.14-1.16,6.35-2.14,9.55-3.14,3.47-1.09,7-2.09,10.39-3.3,2.47-.87,15.73-5.9,16.21-1.39,0,.23.32.22.4,0a2.49,2.49,0,0,0,.11-2.07c2.15-.71,4.17-1.77,6.3-2.5a35.92,35.92,0,0,0-8.36,13.42c-1.67,4.55-1.51,8.57,3.75,5.28a27.41,27.41,0,0,1,14.62-4.5c5.51-.1,10.33,4.16,14.26,7.58,6.54,5.7,10,13.15,12.22,21.12a22.48,22.48,0,0,0,1.76,7.5l.06.3a.25.25,0,0,0,.31.22.65.65,0,0,0,.72-.22.51.51,0,0,0,.67-.19c2-2.65,1.93-6.1,2.57-9.25A80.38,80.38,0,0,1,165,184.2c6.25-13,21.76-19.65,35.71-16.36.74.18,1.58-.68,1.11-1.4a70,70,0,0,0-9.18-11.14,7.25,7.25,0,0,0-.6-.55,10.74,10.74,0,0,0,1.37.09c1.36,0,2.72.5,4.07.6-.11.16-.2.31-.3.47a2.18,2.18,0,0,1,1.14-.37l.13-.1a3.93,3.93,0,0,0,.67-.12.77.77,0,0,0,.33-.22,5.17,5.17,0,0,1,4.43,1.33c.78.68,1.55,1.35,2.33,2,2.23,1.91,4.56,3.68,6.89,5.45,4.67,3.54,9.22,7.21,13.78,10.88,8.86,7.16,17.52,14.27,24.55,23.31,6.78,8.74,13.16,17.66,19,27,5.53,8.81,10.24,17.86,15.09,27C285.62,254.59,280.81,252.81,279.54,252.65Z"/><path class="cls-3" d="M182.36,150.84c7.24,1.93,12.32,9,16.69,15-11.18-1.32-23.07,2.08-30.64,10.65-4.2,4.77-6.45,10.92-8.54,16.81a64.47,64.47,0,0,0-2.45,9.39c-.49,2.53-.37,5.46-1.6,7.8.23-3.79.22-7.57.62-11.36.42-4,1.29-8,1.71-12,.4-3.83.69-7.68,1.13-11.52.49-4.2,2-8.23,2.92-12.34A57.06,57.06,0,0,0,182.36,150.84Z"/><path class="cls-4" d="M160.48,163.82c-4.94,14-4.57,29.11-5.74,43.76a44.9,44.9,0,0,0-1.1-5.27c-.29-3.52-.3-7.14-.77-10.21a89.72,89.72,0,0,0-4-15.59c-.71-2.09-2.68-7.74-5.41-11.25A40.09,40.09,0,0,0,160.48,163.82Z"/><path class="cls-5" d="M139.79,163.37c-.87-.12-1.73-.26-2.59-.42A3,3,0,0,1,139.79,163.37Z"/><path class="cls-3" d="M121.25,157.94c1.39,3.38,16.46,6.31,20.24,7,2.16,2.62,3.74,6.92,4.34,8.4a93.22,93.22,0,0,1,3.92,13.08,95.06,95.06,0,0,1,1.71,9.6c-4.09-9.66-11.37-18.28-20.79-21.81-6.45-2.42-14.34.73-19.78,4.07-2,1.2-2.41.83-1.91-1.61a27.82,27.82,0,0,1,2.62-6.8A38.53,38.53,0,0,1,121.25,157.94Z"/><path class="cls-3" d="M121.25,157.94c1.39,3.38,16.46,6.31,20.24,7,2.16,2.62,3.74,6.92,4.34,8.4a93.22,93.22,0,0,1,3.92,13.08,95.06,95.06,0,0,1,1.71,9.6c-4.09-9.66-11.37-18.28-20.79-21.81-6.45-2.42-14.34.73-19.78,4.07-2,1.2-2.41.83-1.91-1.61a27.82,27.82,0,0,1,2.62-6.8A38.53,38.53,0,0,1,121.25,157.94Z"/><path class="cls-6" d="M39,138.38c.23-3.74,3.9-5.18,7-6.07,1.92-.55,9.43-2.1,10.88.3a1,1,0,0,0-.4.28A89.65,89.65,0,0,1,50,139.78c-3,3-8.2,1.24-11-1.27A.5.5,0,0,0,39,138.38Z"/><path class="cls-7" d="M270.44,225.11c-5.88-9.37-12.26-18.29-19-27-7-9-15.69-16.15-24.55-23.31-4.56-3.67-9.11-7.34-13.78-10.88-2.33-1.77-4.66-3.54-6.89-5.45-.78-.66-1.55-1.33-2.33-2a5.17,5.17,0,0,0-4.43-1.33.77.77,0,0,1-.33.22,3.93,3.93,0,0,1-.67.12l-.13.1a2.18,2.18,0,0,0-1.14.37c.1-.16.19-.31.3-.47-1.35-.1-2.71-.59-4.07-.6a10.74,10.74,0,0,1-1.37-.09,7.25,7.25,0,0,1,.6.55,70,70,0,0,1,9.18,11.14c.47.72-.37,1.58-1.11,1.4-14-3.29-29.46,3.38-35.71,16.36a80.38,80.38,0,0,0-6.32,18.54c-.64,3.15-.54,6.6-2.57,9.25a.51.51,0,0,1-.67.19.65.65,0,0,1-.72.22.25.25,0,0,1-.31-.22l-.06-.3a22.48,22.48,0,0,1-1.76-7.5c-2.22-8-5.68-15.42-12.22-21.12-3.93-3.42-8.75-7.68-14.26-7.58a27.41,27.41,0,0,0-14.62,4.5c-5.26,3.29-5.42-.73-3.75-5.28a35.92,35.92,0,0,1,8.36-13.42c-2.13.73-4.15,1.79-6.3,2.5a2.49,2.49,0,0,1-.11,2.07c-.08.2-.38.21-.4,0-.48-4.51-13.74.52-16.21,1.39-3.43,1.21-6.92,2.21-10.39,3.3-3.2,1-6.41,2-9.55,3.14a24.48,24.48,0,0,1-4.11.87,80.05,80.05,0,0,1,4.4,7.61,18.15,18.15,0,0,1,.66,6.5,20.77,20.77,0,0,1-4.27,9.53c.79-2.47,2-4.78,2.69-7.27.88-3,.1-5.78-1.16-8.54-.63-1.38-1.4-2.81-2-4.27,0,.2,0,.4,0,.6a.47.47,0,0,1-.12.3c0,.65,0,1.33,0,2.07a23.16,23.16,0,0,1-.43,6.66,44.43,44.43,0,0,0-1.09-10.25,23.13,23.13,0,0,0-1.65-7.83c-3.27-11.57-7.14-23-9.49-34.8-2.45,3.06-5.6,6.85-9.23,7.71-2.94.7-6.58-1.65-8.45-4l-.1.09c0,.49.1,1,.14,1.48a16.71,16.71,0,0,1,.36,2.23.43.43,0,0,1-.11.28c.86,8.34,2,16.66,2.76,25,.94,10.75,3,20.66,7.63,30.45,1.46,3.13,3.11,5.61,7.26,5.32,2.06-.14,4.13-.22,6.19-.31a67.22,67.22,0,0,0,14.61-2c9.11-2.49,18.11-5.15,27.38-7,0,0,0-.06,0-.1-2.11-3.36-4.06-7.09-3.8-11.15,0-.12.23-.26.26-.09a15.79,15.79,0,0,0,2.31,6.54c.5.71,1.11,1.42,1.63,2.17.41-2.52.84-5,1.34-7.5,0-.16.34-.23.32,0-.41,6.81.19,13.74-1,20.47a138.78,138.78,0,0,0-2.37,23.42,19.68,19.68,0,0,0,3.4,11.87c1.9,2.82,4.29,5.57,5.81,8.61.77,1.54,1.9,3.66,1.33,5.45-1,3.14-2.6,5.63-1.37,9.1.22.61-.8,1.42-1.18.75a6.53,6.53,0,0,1-.78-2.09c-2.59,2.14-.79,5.32-1.22,7.93-1.26,7.67-2.16,15.5-2.67,23.26-.48,7.45-.62,14.93-.43,22.39.19,7.71-1,15.32-1,23,0,27.9,4.35,55.86,8.3,83.52,1.21,6.58,2.45,13.15,3.33,19.78,1.58,11.89,3.25,23.94,4.11,35.91a69.85,69.85,0,0,1,.17,9.81c-.24,3.33-1,6.41,2.46,8.22a37,37,0,0,0,15.84,4.6c5.65.15,11.6-1,14.41-5.36,2.17-2.86,2.16-6.92,1.94-11-.55-10.28.06-20.69.44-31,.22-2.82.43-5.64.61-8.46a107.48,107.48,0,0,0-.85-24.05c-1-5.82-3.09-11.92-3.15-17.89a5.77,5.77,0,0,1-.1.71,1.06,1.06,0,0,1-.71.67c.16-2,.18-3.95.17-5.92a4.06,4.06,0,0,0-.91-2.75c-.88,2.11-1.89,4.16-2.87,6.25.17-.88.33-1.77.51-2.66.26-1.34.59-2.68.83-4,1.16-3,1.62-6-.14-9.13-1.94-3.51-.83-8.33-.47-12.12.45-4.76,1.3-9.47,2-14.2,1.56-10.93,2.45-22,4.69-32.81,1.62-7.86,2.25-15.77,6.89-22.43a114.09,114.09,0,0,0-10.44-9.1,61.94,61.94,0,0,0-6.71-4.79c-2.19-1.35-4.6-1.72-6.83-2.89-.17-.1,0-.4.15-.32,2.47,1,4.83,1,7.22,2.34a67,67,0,0,1,5.91,3.45c4.81,3.32,9.28,7.09,13.77,10.82,3.71,3.09,6.15,8.82,8,13.19,2.11,5,4.05,10.27,5.89,15.43a227.14,227.14,0,0,1,9.82,37.35c.51,2.93,1,5.87,1.33,8.82.26,2.38.23,5.54,2.16,7.22.57.5,1.13,1,1.69,1.54v0h0c2.25,3.33,4.6,6.59,6.58,10.09a.34.34,0,0,1-.38-.11c-2.35-2.52-4.31-5.27-6.59-7.79-.35,1.28-.65,2.65-.3,3.45.71,1.63,1.49,2.78,1.38,4.64a79.72,79.72,0,0,0,0,14c.53,4.79,1.24,9.55,2.21,14.25.16,1.4.35,2.81.6,4.21.87,4.91,2.91,9.42,4.85,14,.09.23.18.46.28.69.24.58.47,1.16.72,1.73,2.74,7,4.06,14.19,5.1,21.51-1-2.81-2.11-5.59-3.22-8.36.85,3.86,1.69,7.71,2.38,11.6a86.63,86.63,0,0,1,1.23,9.9c.18,3.08-.26,7.35,1.45,10,.95,2.53,4.39,4.29,6.64,5.31a20.88,20.88,0,0,0,10.55,1.92,18.67,18.67,0,0,0,7.43-1.17,79.66,79.66,0,0,0,9.43-4c2.16-1.15,4.11-2.84,6.22-4.09l.06-.11c-.47-5.55-2.84-11.35-4.31-16.69-1.53-5.52-2.58-11.2-3.65-16.82-1.37-7.12-1.59-14.25-1.93-21.39-4.32-27.44-7.67-55-13-82.3-3-15.22-6.39-30.36-10.66-45.27-2-6.88-4.88-13.63-6.42-20.62-1.22-5.52-1.91-11.11-3.21-16.6-1.56-1.16-3.42-3-2.92-4.89a6.72,6.72,0,0,0-2.8-7.15,1,1,0,0,1-.38-.81c0-1.07-.08-2.19-.14-3.31a4,4,0,0,1-.74-2.49c.41-2.53,2-4.72,3.42-6.79,4.34-6.23.24-14.7-.62-21.65-1-7.66-2.86-15.09-3.92-22.71a247.84,247.84,0,0,0-4.83-25.35c0-.11.14-.21.18-.09,1,2.89,1.93,5.82,2.73,8.78a8.3,8.3,0,0,0,.27-1.29,26.83,26.83,0,0,1,1.76-7.23c0-.1.22-.08.18,0a30.63,30.63,0,0,0-1.17,7.38,25.92,25.92,0,0,0-.31,3.93q.74,3,1.36,6c.62,1.72,5.22,3.59,6.66,4.43,3.93,2.29,8.16,3.83,12.29,5.7,2.09,1,8.13,2.32,9.07,4.87.71,1.94,1.3,3.33,3.48,3.5a5.82,5.82,0,0,1,1.89.4c-.68-3.53,2-7,3.91-9.87a.07.07,0,1,1,.13.07c-1.82,4-3.82,7.74-.59,11.94a39.91,39.91,0,0,1,4.27,7.46c2.56,5.44,4.6,11.62,8.33,16.4,3.46,4.43,8,8.3,11,13.11.83,1.36,2.5,6.68,5,5.23a14.71,14.71,0,0,1,5.77-2.16,36.33,36.33,0,0,1,7.8.16c1.27.16,6.08,1.94,6-.54C280.68,243,276,233.92,270.44,225.11ZM60.74,201.85c-9.39,2.53-11.87-9.36-15.29-23.31a201.48,201.48,0,0,1-4.83-30.16c-.82-7.5,1.06-5,3.32-4.17s4.75-.15,7.71-2.89,4.26.25,6.66,13,8.24,29.15,6.83,36.17,2.87.13,3.85-1.38S70.12,199.32,60.74,201.85Zm43.85-18.8c-.19,4.59-2.67-.38-3.37-3.2s-1.65,1.36-.76,6.55-6.84,6.08-13.81,8.73-12,4.21-10.64-5-7.2-14.21-2.61-15.64c5.46-1.7,20.06-6.4,25.15-8.23s10-1.79,9.27,1.72S104.78,178.47,104.59,183.05Zm2.88,145.57c1.27-15,0-11,11-10.16s2.68,1.34,1.47,24c-1.29,24.1,2.46,27.94-2.86,25S107,361.29,107,357.62,107,334.41,107.47,328.62Zm34-43.59c-10.27-1.71-8.65,1.77-.93,5.67S153.13,301,150.56,315s-4.35,56.93-6.05,62.29-1.88,1.69.13,10.66-3.79,11.22-1.2,18.85,15.17,32.78,7.16,66.59c-2.38,10-1.53,11.64.52,15.72s-3.84,10.87-16.75,7.15-11.89-5.07-11.44-9.22,1,.34,4.68,1.13,3.94-4.88,2.62-17.53-5.47-41.44-6.83-48.75-5.12-1.08-8-5.41-5.27-34.49-6.49-42.81,2.07-4.55,3.73-1.95,3.09,7.71,13.54,3.46,13-4.79,13.88-9.67,3.14-23.82,4.46-33.69c1.91-14.23,6.19-18.86-1.41-20.19s-15.16.86-23.45-2.37-8.29,3.85-10-6,.49-40.8,2.55-36.32-.07-5.63,2.84-12.66-6.13-13.93-8.09-19.78-3.68-11.58,2.46-5.4,19.57,10.75,25.51,10.18,6.41-.7,7.52-13,4.17-15,1.61-16.52-24.56-10.59-29.83-12-5.84-6.42-5.32-10.06c.77-5.3,13.16-16.54,25.07-7.43s17.45,23.53,16.81,52.54,2.82,33.6.57,36.57-2.2,5.92,1,13.07S151.7,286.73,141.44,285Zm-30.78-67.57a74.69,74.69,0,0,1,1.33-8.58c.41-2.12.25-2.51,4.1-2,3,.41,4.43.71,7.31,1.07s3.67.4,9.25,3.63,6.79,3.14,6.15,6.65-1.59,7.77-2.55,11.22-13.6,3.1-17.59,1.51C109.19,227.18,110.33,221.15,110.66,217.46Zm108.8,150.48c6.42-6.7,8.77-13.73,10.44-2.25s4.07,32.95,5.67,41.43,4.22,25.6,5.83,42.93c1.15,12.49,3.83,20.21,6.44,28.8s4,6.69-4.36,11.8c-3,1.83-1.37-3-2-6.18s-4.07-12.37-5.64-24.43-5.71-36.35-9.61-49.68c-1.57-5.35-3.47,2.84-4.84,6.44s1.29-.27,4.66,19.69,2.28,34.81,5.26,43.61-3.42,6.56-8.5,11.2c-3.87,3.53-8.69-2-9.82-5.56s-.84-23.43-4-34.51c-5.35-18.71-10.65-35.77-10.45-46.4s2.05-6.65,5.32-5.07-2.16-4.64-5.66-11.76-4.14-5.45-5.41-13.94-.57-6.09,4.07-4.71C209.78,373.2,213.05,374.65,219.46,367.94Zm-19.77-49.22c3.65,12.93,9.15,39.48,10,43.3s-4.07,1-9.95.12-3.57-5.16-8.37-19.73-8.82-22-7-23.58C185.05,318.2,198.9,316,199.69,318.72ZM178,229.51c-9.27.55-9.52.86-11.66-10.86-1-5.2-1.39-4.51,1.62-6.63a86.2,86.2,0,0,1,10.6-6.25,64.56,64.56,0,0,1,10.87-3.14c2.87-.49,2.83-.8,3.66,5.5,1.24,9.42,1.82,11.29-2.82,15.41S187.3,229,178,229.51ZM189,195.23c-25.41,9.14-27.58,8.34-26.62,16.66,1.87,16.22,2.48,24.74,5.87,25.94s9.37-.11,14.72-2.56-9.7,21.19-9.52,35.36,4.16,26.45,7.74,33.24S175,303,167.72,294.7s-7.44-10.74-9-18.89,1.92-12.39.63-22.78-1.58-41.05.85-52.31c3.25-15,10.38-26.46,25.22-30.58,7.54-2.09,8.07,1.27,9.8,12.15S200.27,191.16,189,195.23ZM278.64,250c-4.64-1-9,1.8-14.68-4.24-4.48-4.78-15.14-24-19.64-31.23-5.48-8.78-6.51-11-4.93-14.6s.14-4-3,1.17c-2.8,4.53-6,6-6.56,3.48S225,202.65,214,197.12s-14-8.32-13.13-15.84,2.6-9.61,2.37-19c-.15-6.4,2.27-3.37,5.93-.58s6.16,3.59,3.37,6.84-7,10.46-7.33,13.88-.19,1.54,5.69,4.89,12.33,6.43,14.68,8.15,1.17-3.72,2.22-6.24,3.21-9.54,6.12-7.43a126.29,126.29,0,0,1,11.1,10c3.86,3.77,13.77,16.77,20.23,27.36s12.58,20.67,14.15,23.6C282.28,248.2,285,251.41,278.64,250Z"/><path class="cls-8" d="M112.1,202.19s-1.82,7.37-2.64,12.07-2,9.15,1.55,12.45,8.93,8.12,15.32,9.71,13.58,3.19,14.32-5.1a145.46,145.46,0,0,1,2.14-15.19c.35-2.09.36-1.09-2.57-2.64s-9.27-5.09-12.37-6.22S114.84,203.06,112.1,202.19Z"/><path class="cls-8" d="M164.21,211.49s.2,3.83.56,6.28,1.46,10.15,1.8,12.15.32,4.54,5.37,4.79,12.95-1.76,20.58-8.7,6.13-7.44,5.37-10.9-3.32-15.49-3.55-16.47-.35.48-8.12,2.7a57.91,57.91,0,0,0-16.66,7.71C167.05,210.89,164.31,211.05,164.21,211.49Z"/><path class="cls-8" d="M131.21,317.86c10.38-.3,12.45-1.18,12.45-1.18s-5.11,45.14-5.74,48.39-5.45,5.31-11.82,7.32-7.36.61-13.81-4.67S107,360.79,107,355.21a365.46,365.46,0,0,1,2-39.86S123.55,318.08,131.21,317.86Z"/><path class="cls-8" d="M180.82,316.17c8.17-.15,21.51-3.06,30.54-6.06s5,2.4,7.9,13.86,5.13,25.87,5.79,28.36,1.2,4.74-5,11.65-10.32,3.46-16.3,3.61-9.48-2.63-10.48-7.33S181.27,318.81,180.82,316.17Z"/><path class="cls-2" d="M62.75,85.16c-.14-3.59-6.71,2.53-7.15,3A19.34,19.34,0,0,0,50.71,97c-.42,1.76,0,3.63.21,5.38.34,3-1.61,5-3.33,7.06a3,3,0,0,1-.34.45.41.41,0,0,1-.61,0,20.42,20.42,0,0,0-2.5-2.42.06.06,0,0,1,0,0c-.21-.14-.43-.26-.65-.38h0l0,0c-.18-.1-.36-.22-.55-.32a.21.21,0,0,1,0-.06c-6.29-4.1-12.71-8-18.89-12.3C22.64,93.5,14,87.2,13.22,91.23c-.38-.22-.75-.44-1.13-.64-1.83-1-3.64-1.33-5,.33-1.19,1.47.09,3.3,1.23,4.6A24.91,24.91,0,0,0,5.8,94.4c-1.39-.5-3.23-.43-3.95,1.08s.23,3,1.39,4.11a3.55,3.55,0,0,0-1.92.44c-1.61.89-1.67,1.94-.6,3.42A14.23,14.23,0,0,0,4,106.21c1.44,1,2.38,2.58,3.73,3.67a.31.31,0,0,0,.06.28c5.28,6.43,11.21,12.61,17,18.55a24.41,24.41,0,0,0,15.9,6.73c1.08,3.94,2.54,8.58,7.8,6.7a11.62,11.62,0,0,0,6-4.87c1.36-2.34,1.11-4.69.28-7.22a.37.37,0,0,0-.35-.27,20,20,0,0,0,4.78-16.16c-1-6.07-1.18-11.37.58-17.35C60.82,92.73,62.91,88.93,62.75,85.16Z"/><path class="cls-4" d="M4.54,94.89c1.68,0,4.21,1.69,5.39,2.43a82,82,0,0,1,7.74,5.91c4.17,3.38,8.23,8,13.7,9.11a19.38,19.38,0,0,0-5.72,3.21l0,0c-2.75-1.32-5.48-2.22-7.89-4.18A79.33,79.33,0,0,1,11,104.48C9.61,103.07,7,100.55,4.48,99.8,3.05,98.27.5,95,4.54,94.89Z"/><path class="cls-4" d="M57.37,107.56c.19,3.8,1.22,7.15.53,11a27.22,27.22,0,0,1-4.57,11.13,11.1,11.1,0,0,1-1.25,2.14,15.89,15.89,0,0,0,1.72-1.45c.32,2.36,1.45,3.71-.27,6.34a7.58,7.58,0,0,1-.86,1.1,9.27,9.27,0,0,1-4.55,3.27c-3.17,1-5-.77-6-3.57-.32-.67-.61-1.38-.88-2.09.46,0,.93,0,1.37-.08a.13.13,0,0,0,.1-.06,7,7,0,0,1-2.12-.82c-6.39-1.64-12.59-3.17-17.2-8.39-3.63-4.11-7.33-8.17-11-12.21a47.83,47.83,0,0,1-7.7-8.24l-1.1-1c-.19-.14-.38-.28-.56-.43-1.43-.36-2-2.81-.37-3.49s4.22,1.18,5.4,2.37l.31.26c2.75,2.16,5,5.21,7.53,7.62a21.5,21.5,0,0,0,9.25,5,15.85,15.85,0,0,0-1.43,1.52,22.29,22.29,0,0,1,5.52-3.69c2.75-1.29,5.94-1.65,8.72-2.78a.4.4,0,0,0-.4-.17,27.92,27.92,0,0,0-6,1.41.09.09,0,0,0,0-.14C22.89,108.61,17.09,100.23,9,95.86A2.46,2.46,0,0,1,8.46,95a3,3,0,0,1-1-2.65,2.2,2.2,0,0,1,2.17-1.93,6.37,6.37,0,0,1,3.42,1.64c.89.55,1.75,1.19,2.56,1.75,2.74,1.9,5.34,4,7.9,6.16,4.57,3.81,8.17,7.13,13.6,9.37a14.21,14.21,0,0,1-1.27-1.19,84.4,84.4,0,0,1-10.4-7.85,85.73,85.73,0,0,0-11.77-8.81.37.37,0,0,0,.1-.16C14.39,89.2,29.34,99,30.87,100c4.09,2.66,8.28,5.77,12.76,7.85a18.37,18.37,0,0,1,1.29,1.38,20.87,20.87,0,0,1,4.62,5,26.73,26.73,0,0,0-1.74-3.71c2.49-2.32,4.65-4.81,4.45-8.41-.23-4.21.09-7.36,2.54-11a23.18,23.18,0,0,1,3.61-4c1.63-1.53,3.32-.4,2.75,1.79C59.5,95.22,57,100.87,57.37,107.56Z"/><path class="cls-2" d="M43.73,120.87c-3.95-3-9.81-3-14.75-1.83a13.58,13.58,0,0,1,1.81,0,15.14,15.14,0,0,1,7.68.67,17,17,0,0,1,4.86,2.86,5.13,5.13,0,0,1,1.11,1.26,17.15,17.15,0,0,1,2,2.07C45.68,124.07,45.33,122.25,43.73,120.87Z"/><path class="cls-2" d="M156.13,496.81a.53.53,0,0,0-.8-.45c-2.62,1-4.62,2.42-7.52,2.92a39.68,39.68,0,0,1-10.31.9c-6.21-.53-10.53-5.19-16.43-5.89-.66-.08-1,1.06-.32,1.2a48.77,48.77,0,0,1-21.92,4.39c-6.78-.42-13.06-2.59-19.81-.65-4.29,1.24-8.13,4.81-10.43,8.54-2.08,3.38-5.86,9.83-4.68,14.08s5.88,5.52,9.89,6.14c7,1.08,13.88,2.37,20.91,3,14.54,1.36,27.42-3.49,40.14-9.92.79,6.34,15.06,1.87,18.57.06,2.81-1.46,3.14-5.1,3.19-7.87C156.71,507.81,156.21,502.29,156.13,496.81Z"/><path class="cls-9" d="M147.7,519.63c-2,.52-10.42,3.06-11.13-.34a.74.74,0,0,0-1.08-.41,69.59,69.59,0,0,1-35,8.59,171.22,171.22,0,0,1-18.35-1.85c-4.68-.6-13,.13-16.14-3.86-1.06-1.32-1.18-3.16-.74-5.17,1.58,4.69,8.44,5.32,12.84,5.92a234.34,234.34,0,0,0,29.73,1.93c3,0,6.79.48,9.67-.72,4.13-1.72,8.11-3.82,12.23-5.57,4.74-2,9.37-.22,14.31-.44a38.87,38.87,0,0,0,9.71-1.46c-.08.29-.17.58-.28.87C152.88,518.67,149.19,519.24,147.7,519.63Z"/><path class="cls-9" d="M154.86,500.15c0,1.59-.13,3.19-.21,4.78-.13,2.61-.36,5.19-.4,7.8a15.92,15.92,0,0,1-.17,2.09,88.74,88.74,0,0,1-11.24,1.52c-3.18.2-6.12-1.17-9.25-.76-7.32,1-13.09,7.1-20.56,7.52a191,191,0,0,1-24.16-.53,104.69,104.69,0,0,1-13.67-1.86c-3.46-.71-8.12-1.14-9.81-4.64,1.19-4.58,5-9.87,7-11.83,6-5.93,13.79-4.58,21.17-2.89,8.7,2,20.5-.09,27.78-5.73,3.06.56,5.77,2.59,8.53,3.94a23,23,0,0,0,7.34,1.83c5,.67,11.89-.21,16.26-2.77C155.2,497.62,154.89,498.37,154.86,500.15Z"/><path class="cls-2" d="M260.56,526c-.45-2.26-.76-4.55-1.35-6.79-.82-3.16-2.82-6.28-4.17-9.23s-2.45-5.93-3.58-8.94c-.56-1.5-1-3-1.37-4.56-.24-.85-1-2.25-1.3-3.38a.87.87,0,0,0,.06-.32v0a.62.62,0,0,0-.22-.46v-.09s0-.05-.07,0l-.07,0a.58.58,0,0,0-.39,0,9.62,9.62,0,0,0-2.56,1.47c-.46.32-.91.64-1.38.95l-.21.14c-4.52-3.56-12.43-4.15-17-2.25a35.27,35.27,0,0,0-6.68,6c-2.58-.87-5.84-5.08-8.53-4.51-2,.43-.74,4.25-.55,5.2,2.1,10.38-6,19.09-6.22,28.94a14.25,14.25,0,0,0-1.45,6.14c0,5,.2,9.84,5.22,12.21,6.17,2.91,13.66,3.29,20.37,3.65A73,73,0,0,0,250.61,548c3.87-1,10.77-3,11.6-7.76A25.44,25.44,0,0,0,260.56,526Z"/><path class="cls-9" d="M226.41,514.16c-6.75,1-15.17,5-19.68,11.07a30.71,30.71,0,0,1,2.57-7.34,42.88,42.88,0,0,0,3.59-11.08,29.68,29.68,0,0,0,.39-4.89c0-1-1.71-6.88.51-5.49s3.77,2.86,6.22,2.35c-2.07,2.38-3.45,4.7-2.07,5.46,0,0,.09-.05.06-.08-.75-1,2.59-4.42,3.13-5a16.32,16.32,0,0,1,8.63-5.4c6.47-1.38,11.66,2.92,16.45,6.42.46.34,1-.25.91-.73a8.48,8.48,0,0,0-2.55-4.13l.37-.18a28.16,28.16,0,0,1,3.2-1.42h0l.19-.08a79.84,79.84,0,0,0,5.05,17.22c1.31,3.12,3,6.06,4.21,9.21.13.35.25.69.35,1a30.45,30.45,0,0,0-10.78-10c-.36-.2-.8.48-.45.72,3.61,2.63,7.12,5,9.63,8.79s3.47,9.15,3.88,13.85c-5.51,8.55-19.79,9.15-28.75,9.14-5.91,0-21.51-1.23-25-8.29-.17-2.31-.38-4.34.65-6.78,1.14-2.68,3.53-4.87,5.66-6.75a34.66,34.66,0,0,1,13.62-7.4C226.52,514.33,226.55,514.14,226.41,514.16Z"/><path class="cls-9" d="M231.5,547.3a102.52,102.52,0,0,1-14-1.42c-5.4-.85-10.49-2.55-10.91-8.6,3.74,5,14.29,6.61,19.4,7.26a59.78,59.78,0,0,0,21.12-1.24c4.06-.94,10.56-3.11,13.21-7a1.64,1.64,0,0,1,0,.23C261,547.39,238.58,547.42,231.5,547.3Z"/><path class="cls-2" d="M156.81,277.59c-1.05-4.11-2.64-7.27-1.28-11.64,1.79-5.76.53-11,.54-17,0-6.7.21-13.33.48-20a100.52,100.52,0,0,0,.07-10.27c-.15-2.49.48-7-1.07-9.23.08.11.25,0,.21-.13l-.12-.33c-.06-.15-.28-.08-.3.07-.62,6.23-.73,12.41-1,18.66-.29,7.27.82,14.23.89,21.43,0,3.3-.08,6.58,0,9.88.13,3.46-1.38,6.48-1.69,9.86-.22,2.52,1,5.38,1.77,7.7,1.32,3.88,1.65,7.95,2.68,11.9.16.59.92.07.84-.41C158.32,284.56,157.69,281,156.81,277.59Z"/><path class="cls-2" d="M136.05,314.13c-3.51-.69-7.13-.07-10.66-.42-1.77-.17-15.14-1.12-15.27-2.19,0-.09-.12-.07-.16,0l-.24.09a.26.26,0,0,0-.1.48c.11.07.23.12.34.18-1.38.45-2.66,1.15-1.47,2.65s5.89,1.23,7.88,1.56c6.62,1.12,13.81,2.17,20.51,1.41,1.08-.12,2.8-.41,2.94-1.75C140,314.62,137,314.32,136.05,314.13Zm-.4,3.08c-4.7.35-9.55-.31-14.2-.87-1.8-.22-3.59-.47-5.37-.77-.63-.11-1.24-.23-1.87-.31l-2.3-.23q-3.52.36-1.24-2.17a.48.48,0,0,0,.2-.14c5,2.3,11.75,3,17,2.84,2.31-.05,4.63,0,6.94,0a17.81,17.81,0,0,1,3.57.3C139.75,316.16,135.26,317.23,135.65,317.21Z"/><path class="cls-2" d="M207.47,306.87c-4.6,1.44-8.93,3.33-13.68,4.29s-9.66,1.12-14.38,2.21a1.43,1.43,0,0,1-.08-.22c-.18-.68-1.16-.1-1,.48,1.39,5.21,8.37,2.09,11.84,1.29,4.65-1.06,9.36-1.82,14-2.91,2.81-.65,6.76-1.1,9.07-3.06C218.12,304.82,209.5,306.24,207.47,306.87Zm-3.31,4.07c-3.19.5-6.3,1.53-9.48,2.08-2.75.48-13.27,4.52-15.17.61a129.3,129.3,0,0,0,15.94-2,44.35,44.35,0,0,0,6.42-1.82c1.88-.67,3.74-1.38,5.62-2l1.43-.43q2.09-1.2,2.86,1.4A23.11,23.11,0,0,1,204.16,310.94Z"/><path class="cls-2" d="M143.66,316.68c-2.41,12.82-2.95,26-4.8,38.93l-1.23,8.6c-.64,4.48-7.82,6.29-11.29,7.41C119,374,116,369.49,110.65,365.81c-.37-.25-.8.32-.5.63,3.84,3.8,7.42,7.76,13.22,7a34.65,34.65,0,0,0,9.1-3.07c1.74-.76,4.82-1.69,5.55-3.78,1-2.92,1.15-6.17,1.58-9.22.65-4.68,1.48-9.32,2-14,1-8.87,1-17.82,2.16-26.68C143.77,316.61,143.68,316.61,143.66,316.68Z"/><path class="cls-2" d="M224.42,358c-4.15,4.23-6.33,9.22-13.19,9-6.58-.22-14.89.94-17.41-6.63-4-11.92-6.35-24.15-11.06-35.87,0-.13-.22,0-.19.09q4.16,12,7.31,24.32c1,3.62,1.8,7.26,2.63,10.91.44,1.93,1.19,4.41,2.8,5.71,2.29,1.84,5,2.31,7.87,2.55,3.21.26,7.71.93,10.87.23,5.17-1.15,8.07-5.77,11-9.82C225.35,358,224.81,357.6,224.42,358Z"/><path class="cls-2" d="M217.49,317.28c0-.09-.14,0-.12.06,2.29,11,4.41,22.09,6.86,33.07.11.48.85.13.8-.28C223.44,339,220.34,328.1,217.49,317.28Z"/><path class="cls-2" d="M126.36,449c-.45-5.37-1.62-10.6-2.38-15.92-.47-3.34-.2-9.23-2.8-11.66a.55.55,0,0,0-.58,0,3.49,3.49,0,0,0-1.45,1.11s0,0,0,0-.06,0-.06,0,0,.06,0,.09a2.82,2.82,0,0,0-.23.46c.25,2.22.6,4.44,1,6.65a.42.42,0,0,0,.38,0c.22,1.47.43,2.95.64,4.42.16.69.3,1.38.41,2.07a.49.49,0,0,1-.06.29c1.11,7.86,2.1,15.74,3.07,23.62.79,6.37.84,12.76,1.53,19.13.31,2.74-.75,6.5,2.19,7.77.35.16.75-.26.73-.6C128.09,473.88,127.39,461.45,126.36,449Zm.77,35.31a372.13,372.13,0,0,0-6.31-54c-.18,0-.35-.05-.36-.32-.09-2.06-1.07-4.06-.53-6.13.07-.25.44-.69.73-.44a2.72,2.72,0,0,1,.53.6c.1.05.22.24.34.61.53,1.23.51,2.79.86,4a.44.44,0,0,1,0,.3c.29,2,.51,4,.78,5.92.74,5.35,1.81,10.6,2.24,16,.48,5.93,1.05,11.82,1.33,17.76.14,3,.28,6,.45,9q.09,1.8.21,3.6C127.36,481.11,127.24,486.48,127.13,484.29Z"/><path class="cls-2" d="M237.82,479.93a143.7,143.7,0,0,1-4.34-23.38c-.77-6.79-1-13.62-2.27-20.34s-3.3-13.12-4.69-19.7a.47.47,0,0,0,0-.17c-.13-.69.07-2-.69-2.43a1.08,1.08,0,0,0-1.23.36,1.17,1.17,0,0,0-.19.3,5.57,5.57,0,0,0-1.82,2.15.41.41,0,0,0,.08.49c1.75,1.28,2.14,5.73,2.63,7.69,1,3.79,1.79,7.6,2.56,11.43,1.5,7.55,1.23,15.33,2.15,22.95.81,6.66,1.44,12.84,3.1,19.35.64,2.47,1.07,10.25,5.11,9.39C240.87,487.46,238.08,480.81,237.82,479.93Zm-2.35,3.48c-3.93-12.74-5.07-25.63-5.85-38.87a93.59,93.59,0,0,0-3.19-18.42c-.64-2.4-1.18-4.8-1.66-7.24-.37-1.88-1.57-2.25.6-3.81a.58.58,0,0,0,.16-.15c.1.64-.18,1.52.44,1.88,0,0,.06,0,.09,0,.26,3.76,2.19,9.6,2.95,13.49a198.34,198.34,0,0,1,2.75,21.43,184.27,184.27,0,0,0,2.61,18.86,97.83,97.83,0,0,0,2.3,9.89c.49,1.63,1,3.25,1.41,4.89C239,489,235.82,484.52,235.47,483.41Z"/><path class="cls-2" d="M195.57,196.17c-2.3-2.94-9,1.45-11.13,2.5l-1.79.89a67.09,67.09,0,0,0-10.22,5.27,31.17,31.17,0,0,1-7.23,3.73,2.66,2.66,0,0,0-1.62,1.08.29.29,0,0,0,0,.34s0,0,0,0a.61.61,0,0,0,0,.48c0,.07,0,.13.07.19a.12.12,0,0,0,.06.15c.13.37.26.73.4,1.09a.54.54,0,0,0,.78.3c7.82-4.39,15.88-9.32,24.77-11.15C190.88,200.83,197.77,199,195.57,196.17Zm-4.1,3.12c-4.62,1.47-9.08,2.49-13.55,4.5-2.58,1.16-5.06,2.53-7.54,3.89-1.4.78-4,3.31-5.4,2.43,4.84-3.12,10.19-5.41,15.32-8,2.51-1.26,5-2.55,7.53-3.74a27.42,27.42,0,0,1,4-1.56l.74-.17C193.86,198.33,193.48,199.2,191.47,199.29Z"/><path class="cls-2" d="M185.85,230.84a41.65,41.65,0,0,1-7.14,2.88c-2.07.51-10.3,1.51-11.21-1.78-1.51-5.46-1.85-11.25-3.15-16.78,0-.06-.11,0-.1.05.73,4.29,1.23,8.8,1.63,13.14.18,1.87.44,4.76,2.23,5.79,5.34,3.06,13.18-.15,17.9-2.76C186.32,231.21,186.24,230.66,185.85,230.84Z"/><path class="cls-2" d="M195,202c0-.09-.14,0-.13.06,1.05,4.58,2,9.18,2.62,13.84.7,5.41-2.47,7.58-6.12,10.58-.28.23-.12.82.27.58,1.8-1.14,7.6-4.32,7.23-7.13A94.74,94.74,0,0,0,195,202Z"/><path class="cls-2" d="M116.6,204.36c8.93,1.61,17.11,6.34,25,10.53a.54.54,0,0,0,.78-.32l.37-1.09a.11.11,0,0,0,.05-.15c0-.07,0-.13.07-.19a.6.6,0,0,0,0-.49s0,0,0,0a.29.29,0,0,0-.05-.34,2.65,2.65,0,0,0-1.64-1,30.64,30.64,0,0,1-7.33-3.55,66.35,66.35,0,0,0-10.35-5l-1.81-.85c-2.11-1-9-5.22-11.18-2.22S115.38,204.14,116.6,204.36ZM113.54,200l.75.15a28.2,28.2,0,0,1,4.07,1.46c2.57,1.13,5.08,2.36,7.62,3.56,5.19,2.44,10.6,4.6,15.51,7.59-1.33.92-4-1.55-5.45-2.29-2.51-1.3-5-2.6-7.64-3.7-4.52-1.9-9-2.81-13.66-4.17Q111.73,202.57,113.54,200Z"/><path class="cls-2" d="M121.14,234a41.2,41.2,0,0,0,7.21,2.71c2.09.45,10.34,1.26,11.16-2.06,1.37-5.5,1.57-11.29,2.74-16.85,0-.06.1,0,.1.05-.63,4.3-1,8.83-1.31,13.17-.13,1.88-.32,4.77-2.08,5.85-5.27,3.19-13.18.17-18-2.32C120.68,234.4,120.74,233.84,121.14,234Z"/><path class="cls-2" d="M111.24,205.39c0-.09.14,0,.13.06-.93,4.6-1.78,9.23-2.27,13.9-.57,5.42,2.65,7.51,6.38,10.42.29.22.13.82-.26.59-1.83-1.09-7.7-4.13-7.41-7A95.86,95.86,0,0,1,111.24,205.39Z"/><path class="cls-2" d="M233.72,178.17c-3.08-2.42-6-4.95-9.14-7.34.2-.32,0-.86-.42-.61l-.21.12c-2.17-1.65-4.48-4-7.25-4.51,0-.13-.08-.25-.23-.14a29.2,29.2,0,0,0-6.43,7.65c-1.41,2.41-4.13,6.44-4.06,9.4.05,1.81,3.72,2.24,4.86,2.76,4.91,2.27,9.27,5.83,13.93,8.55a.73.73,0,0,0,1-.37c1-2.65,1-5.42,2.29-8s3.31-4.72,4.86-7.12l.3.19C233.6,179,234,178.43,233.72,178.17Z"/><path class="cls-5" d="M210,183.57c-.9-.36-3.09-.21-2.65-1.87a34.49,34.49,0,0,1,2.12-5.55,35.46,35.46,0,0,1,6.87-9.89c0,.18.31.06.33-.08a28.15,28.15,0,0,1,3.62,2.35c1,.83,2,1.62,3,2.4-1.38.9-4.49,5.17-5.15,6-2.12,2.55-2.9,5.54-4.49,8.34C212.44,184.64,211.23,184.07,210,183.57Z"/><path class="cls-10" d="M227.78,184.19c-1.65,2.78-1.84,5.39-2.82,8.2a101.24,101.24,0,0,0-11.15-7c1.8-2.1,2.66-5,4.34-7.27a50.1,50.1,0,0,1,5.8-6.61l.39.3c2.67,2,5.06,4.36,7.8,6.26C230.78,180.12,229.06,182,227.78,184.19Z"/><path class="cls-2" d="M216.57,165.54c-.06,0-.09.1,0,.1S216.63,165.54,216.57,165.54Z"/><polygon class="cls-11" points="138.44 200.35 138.38 202.26 139.92 203.4 138.08 203.93 137.48 205.74 136.41 204.16 134.49 204.15 135.67 202.63 135.09 200.81 136.89 201.46 138.44 200.35"/><path class="cls-12" d="M138.38,202.26l.06-1.91-1.55,1.11-1.8-.65.58,1.83-1.18,1.51h1.92l1.07,1.58.6-1.81,1.84-.54Zm-.87,1.1-.32.95-.56-.83h-1l.61-.79-.3-.95.93.34.82-.58,0,1,.81.59Z"/><polygon class="cls-11" points="132.34 197.2 132.54 199.1 134.22 200.02 132.47 200.8 132.13 202.68 130.84 201.26 128.94 201.5 129.9 199.85 129.08 198.12 130.95 198.52 132.34 197.2"/><path class="cls-12" d="M132.54,199.1l-.2-1.9L131,198.52l-1.87-.4.82,1.73-1,1.66,1.89-.25,1.29,1.42.34-1.88,1.75-.78Zm-.7,1.08-.18.95-.65-.71-1,.12.49-.84-.42-.87.95.2.7-.67.1,1,.85.46Z"/><polygon class="cls-11" points="126.42 194.64 126.61 196.54 128.28 197.47 126.53 198.23 126.17 200.11 124.9 198.68 123 198.92 123.97 197.27 123.15 195.54 125.02 195.94 126.42 194.64"/><path class="cls-12" d="M126.61,196.54l-.19-1.9-1.4,1.3-1.87-.4.81,1.73-1,1.65,1.9-.24,1.27,1.43.36-1.88,1.75-.76Zm-.71,1.08-.19,1-.64-.73-1,.13.49-.85-.41-.88.95.21.71-.67.1,1,.85.47Z"/><polygon class="cls-11" points="119.95 192.31 120.4 194.18 122.19 194.86 120.56 195.86 120.46 197.77 119 196.53 117.15 197.03 117.89 195.26 116.84 193.65 118.75 193.8 119.95 192.31"/><path class="cls-12" d="M120.4,194.17l-.44-1.86-1.21,1.49-1.91-.15,1,1.61-.73,1.76,1.85-.49,1.46,1.24.1-1.91,1.63-1Zm-.5,1.15-.05,1-.73-.63-.93.25.36-.89-.52-.81,1,.08.61-.75.22.93.9.35Z"/><path class="cls-2" d="M140.21,203.37l-1.46-1.07s0,0,0-.16l0-.73,0-.95h0s0,0,0,0c0-.2-.58-.32-.68-.22l-1.43,1-1.55-.56c-.06,0-.45-.1-.4.07l.57,1.8c0,.14-1,1.22-1.14,1.46s.37.33.47.33h1.58l.94,1.38c.08.11.62.34.69.13.2-.59.4-1.19.59-1.79a12.61,12.61,0,0,1,1.78-.5C140.32,203.53,140.28,203.42,140.21,203.37Zm-1.49.12a3.42,3.42,0,0,0-1,.29,2.32,2.32,0,0,0-.45,1.11,2,2,0,0,0-.76-.84,3.19,3.19,0,0,0-1.4-.12,3.86,3.86,0,0,0,.89-1.18c.1-.33-.27-1.09-.48-1.59a4.83,4.83,0,0,0,1.48.48,1.69,1.69,0,0,0,1-.49,2.93,2.93,0,0,0,0,1c.11.37.95.81,1.41,1.09h0Z"/><path class="cls-2" d="M134.5,200l-1.6-.87s0,0,0-.15,0-.49-.08-.73-.07-.63-.1-.95h0c-.07-.2-.64-.24-.72-.12l-1.26,1.2L129.2,198c-.07,0-.58-.07-.49.12.27.57.54,1.14.82,1.7a9.54,9.54,0,0,1-.94,1.61c-.12.2.43.25.53.24l1.54-.2c.38.41.76.83,1.13,1.25.1.11.67.23.71,0,.11-.62.22-1.24.34-1.86a13.08,13.08,0,0,1,1.69-.74C134.64,200.08,134.57,200,134.5,200Zm-1.46.34c-.25.11-.74.21-.92.42a2.42,2.42,0,0,0-.29,1.14,1.85,1.85,0,0,0-.87-.72,3.26,3.26,0,0,0-1.41.08,3.66,3.66,0,0,0,.72-1.31c0-.35-.39-1-.67-1.48a4.4,4.4,0,0,0,1.52.25,1.79,1.79,0,0,0,.88-.62,2.75,2.75,0,0,0,.17,1c.19.35,1.06.66,1.56.88h0Z"/><path class="cls-2" d="M128.5,197.39l-1.65-.91c.24.13.05-.6,0-.84l-.09-.95c0-.15-.4-.26-.6-.22a.12.12,0,0,0-.1,0l-1.31,1.23-1.58-.35s-.48-.08-.4.09c.27.57.54,1.14.8,1.71.09.19-.82,1.41-1,1.63s.52.28.6.27l1.53-.19,1.08,1.2c.08.1.65.33.69.11l.36-1.85a10,10,0,0,1,1.69-.74C128.73,197.55,128.58,197.44,128.5,197.39Zm-2.31.71a2.44,2.44,0,0,0-.31,1.22,2.19,2.19,0,0,0-.85-.75,2.75,2.75,0,0,0-1.42,0l.72-1.24c.1-.17-.44-1.09-.7-1.55a7.13,7.13,0,0,0,1.54.31c.27,0,.6-.29.91-.61a1.84,1.84,0,0,0,.2,1,4.56,4.56,0,0,0,1.48.87A5.36,5.36,0,0,0,126.19,198.1Z"/><path class="cls-2" d="M122.32,194.74l-1.57-.6a.93.93,0,0,1,0-.14c-.06-.24-.11-.48-.17-.71s-.15-.62-.22-.93c0-.09-.17-.16-.32-.19s-.33,0-.39,0l-1.15,1.43-.73-.06-1-.07s-.38,0-.3.12l1,1.58c.11.18-.62,1.5-.72,1.75s.56.26.66.23l1.5-.4,1.22,1c.08.07.64.25.65.05l.1-1.89c0-.21,1.38-.85,1.61-1S122.35,194.76,122.32,194.74Zm-3.82-1.12c.1,0,.21,0,0,0Zm1.71,2.12c-.14.09-.14.8-.13,1.35a1.75,1.75,0,0,0-2.34-.51l.51-1.24c.08-.2-.62-1.07-.92-1.48a5.82,5.82,0,0,0,1.65.1c.23,0,.51-.37.77-.73a1.74,1.74,0,0,0,.37,1,5.93,5.93,0,0,0,1.55.63Z"/><path class="cls-2" d="M225.23,42.15l-.37-.82c0-.17-.06-.33-.08-.49a37.65,37.65,0,0,0-2.37-5.59c-1.57-2.91-3.76-4.86-6-7a41.37,41.37,0,0,0-4.52-2.54c-1.61-.82-3.43-.91-5.11-1.31a15.41,15.41,0,0,1,6-.46l1.47-.18a.82.82,0,0,0,.19-1c-2.07-2.64-5.82-3.08-8.91-3.8a14.92,14.92,0,0,0-4.75-.43l-.24,0c1.12-.5,2.3-.9,3.44-1.34h0c.47-.26.93-.52,1.41-.76a.47.47,0,0,0-.22-.35,17.59,17.59,0,0,0-7.43-2.82,26.24,26.24,0,0,0-4.93-.17c.94-.05,2.58-1.68,3.31-2.22.3-.22.49-1,0-1.08-2.87-.61-5.24-.14-8.12.31a13.06,13.06,0,0,0-2.82.83c-2.29.82-.72.11,0-1.16a.48.48,0,0,0-.49-.73,9,9,0,0,0-3.6,1.3,23.24,23.24,0,0,0-.79-6,18.92,18.92,0,0,0-2.69-3.22.51.51,0,0,0-.11.25c-.11.92-.74,5.45-.21,5.83-1.48-1-3.28-2.42-4.7-3.46C170.48,2.07,165.76-.14,163,0c-.47,0-1.07.62-.69,1.11a36.85,36.85,0,0,1,2.79,3.76A31.45,31.45,0,0,0,148,1.5c-.51.05-1,.85-.62,1.28,1.08,1.36,2.61,2.07,3.9,3.16-2-.28-4.44-1.29-6.17-1.38s-3.66-.6-5.51-.14c-.51.12-1.12,1-.5,1.42l.93.6a9.06,9.06,0,0,0-1.36-.29,70.73,70.73,0,0,0-11.8-.82c-.64,0-1.32.79-.89,1.42a17.79,17.79,0,0,0,2.18,2.53c-5.42-.26-10.44,1.4-15.35,4.06a.71.71,0,0,0-.13,1.27c.57.31,4.23,1.33,3.67,1.42a40.05,40.05,0,0,0-7.46,2.07,45.76,45.76,0,0,0-15.62,9.78c-.3.32-.21,1.09.33,1.07,1.17,0,2.33-.1,3.48-.13C90.2,32,83.29,37,81.47,44.69a1.21,1.21,0,0,0,0,.18c-.29.25-.58.49-.86.75-.62.57-1.34,1.25-2.08,2a59.62,59.62,0,0,0-3.07,6.27C78,52.46,80.3,51,82.84,49.68a22.7,22.7,0,0,0-5,7.88,30.37,30.37,0,0,0,.28,7l0,0A11.77,11.77,0,0,0,80.46,62q1.61-2.16.28.63A19.59,19.59,0,0,0,80,66.1c-.44,2.56-.75,7.43,1,9.63A.63.63,0,0,0,82,75.51c.8-1.55.37-.58.49,1.2a24,24,0,0,0,1.65,5.78,60.91,60.91,0,0,0,3.08,7.61A3.38,3.38,0,0,0,84.75,89c-2.76-.15-4.64,2.46-5.36,4.83-3.27,10.81,2.56,20.25,11,26.45a.72.72,0,0,0,.19.11c.58,9.41,2.58,18.22,9.08,25.48s16.61,10.77,25.49,13.76c9.75,3.28,20.17,6.52,30.51,4.9,9.51-1.49,17.84-6.9,25.43-12.49,3.74-2.76,7.38-5.7,10.92-8.75a70.76,70.76,0,0,0,10.21-12.11,25.25,25.25,0,0,0,2-6.66,70.47,70.47,0,0,0,.22-16.31c4.41-6.07,10.6-12.22,7.89-19.53,1.87-4.33,2.24-8.35,2.51-12.71.33.85.61,1.71,1,2.55a.79.79,0,0,0,1.46-.11c2-5.07,1.55-9.5.54-14.22a25.18,25.18,0,0,0,1.37,2.61c.39.63,1.2,0,1.33-.46,1-3.68.55-8-.08-11.71-.29-1.77-3.84-6.84-.22-2.55a40.58,40.58,0,0,0,2.64,3.3,19,19,0,0,1,.55-2.46c.14-.55.25-1.11.35-1.67a23.25,23.25,0,0,0-2.39-7.34A13.71,13.71,0,0,0,218.42,40c1.12,1,4.25,2.12,5.92,3.05a.69.69,0,0,0,1-.63C225.3,42.36,225.26,42.26,225.23,42.15Z"/><path class="cls-4" d="M86.74,114.22c-3.82-3.29-5.56-8.41-6.28-13.26a19.52,19.52,0,0,1,0-4.77c.17-1.61,2.88-10.23,7-3.73.78,1.23,1.08,2.5,2.05,3.29.12,3.3.24,6.6.38,9.9-.17-.48-.33-1-.46-1.48-.47-1.81-1.08-3.75-2.58-5s-4.39,1.93-2.21,3c.29.14.6-.35.35-.55,1-1,1.64-.91,1.86.2a4.45,4.45,0,0,1,.37,1.06c.35,1.15.58,2.34.84,3.52.39,1.74.83,3.86,2.09,5.21.09,2,.17,4,.27,5.92C89.21,116.39,87,114.42,86.74,114.22Z"/><path class="cls-13" d="M86.74,114.22c-3.82-3.29-5.56-8.41-6.28-13.26a19.52,19.52,0,0,1,0-4.77c.17-1.61,2.88-10.23,7-3.73.78,1.23,1.08,2.5,2.05,3.29.12,3.3.24,6.6.38,9.9-.17-.48-.33-1-.46-1.48-.47-1.81-1.08-3.75-2.58-5s-4.39,1.93-2.21,3c.29.14.6-.35.35-.55,1-1,1.64-.91,1.86.2a4.45,4.45,0,0,1,.37,1.06c.35,1.15.58,2.34.84,3.52.39,1.74.83,3.86,2.09,5.21.09,2,.17,4,.27,5.92C89.21,116.39,87,114.42,86.74,114.22Z"/><path class="cls-4" d="M194.41,138.81c-10.67,9.08-21.83,18-35.28,21.72-10.33,2.85-20.63-.74-30.5-3.62-9.45-2.75-19.61-6.43-27.17-12.88-8.41-7.17-9-19.25-9.41-29.39,0-1-.06-2.06-.07-3.09a.5.5,0,0,0,0-.21c-.1-8.68.59-17.38.35-26.07-.28-9.84-.1-18.12,4.39-27.14.46-.93,1-1.85,1.47-2.76a23.4,23.4,0,0,0-1.27,10.11c.06.53.65.57,1,.2.62-.79.47-1.14.95-2.22a27.22,27.22,0,0,1,3.85-6.31,48.47,48.47,0,0,1,8.14-7.36,8.23,8.23,0,0,0-.72,3.33.68.68,0,0,0,.84.66c2.24-.55,4.21-2.32,6.34-3.27,3-1.36,6.06-2.76,9.12-4.08,1.85-.31,3.7-.73,5.54-1.11A18,18,0,0,0,128.27,51a.63.63,0,0,0,.92.72c2.71-1.39,5.09-3.34,7.77-4.82a64.93,64.93,0,0,1,8.73-3.77,22.13,22.13,0,0,0-2.54,3.57.61.61,0,0,0,.63.92c2.72-.39,5.31-2.89,7.9-4a48.18,48.18,0,0,1,8.54-2.26c.95.93,1.69,3,2.29,3.79,1.5,2.1,3.51,4.46,5.84,5.6.5.25,1.12-.4,1.08-.88A59.45,59.45,0,0,0,168.1,44,67.93,67.93,0,0,1,175,49.33c1.8,1.69,3.71,4.8,6.14,5.57a.43.43,0,0,0,.47-.16c.63-.8,0-2.07-.26-2.93-.53-1.73-1-3.44-1.63-5.09a60.21,60.21,0,0,1,7.74,8.45c.56.75,1.85,4.11,3.3,2.95,1.27-1,.58-3.39.38-4.72-.07-.41-.14-.83-.22-1.24,1.25,1.55,2.72,3,4,4.4,1.76,1.95,2.84,4.35,4.25,6.52,1.35,7.77,1.12,16,1.21,23.72.11,10,1.35,19.77,2.16,29.71C203.31,125.84,200.35,132.73,194.41,138.81Z"/><path class="cls-4" d="M209.9,96.46c-.74,3.7-3.39,7.31-5.57,10.75-.19-2.25-.4-4.5-.59-6.75A7.18,7.18,0,0,1,204.8,94a5.2,5.2,0,0,1,1.77-1.35,2.3,2.3,0,0,0-.37,0,6.69,6.69,0,0,0-1.1.34,5.07,5.07,0,0,0-1.71,1.1l-.11.12c-.07-1.23-.12-2.46-.14-3.68s0-2.21,0-3.32c1.46-1.92,3.75-2.82,5.5.3A11.7,11.7,0,0,1,209.9,96.46Z"/><path class="cls-13" d="M209.9,96.46c-.74,3.7-3.39,7.31-5.57,10.75-.19-2.25-.4-4.5-.59-6.75A7.18,7.18,0,0,1,204.8,94a5.2,5.2,0,0,1,1.77-1.35,2.3,2.3,0,0,0-.37,0,6.69,6.69,0,0,0-1.1.34,5.07,5.07,0,0,0-1.71,1.1l-.11.12c-.07-1.23-.12-2.46-.14-3.68s0-2.21,0-3.32c1.46-1.92,3.75-2.82,5.5.3A11.7,11.7,0,0,1,209.9,96.46Z"/><path class="cls-14" d="M223.38,41l-.08-.05c-.19.26-.49.44-.73.22a17.74,17.74,0,0,0-5.17-3.07l-.23,0c.25.56.45,1.12.61,1.49.46,1.06.86,2.14,1.28,3.22.12.16.25.31.37.49a20.58,20.58,0,0,1,3.06,9.49c-1.42-1.62-2.57-3.33-4.93-4h-.09A24.46,24.46,0,0,1,219,55.28a22.28,22.28,0,0,1,.49,8.94,16.27,16.27,0,0,0-2.88-4.5.47.47,0,0,0-.38-.15,45.6,45.6,0,0,1,.51,4.81c0,.68,0,1.37,0,2.05a23,23,0,0,1-.21,9.4,12,12,0,0,0-1.62-3.24.64.64,0,0,0-.38-.26c-.29,1.89-.64,3.77-1.09,5.62a13.29,13.29,0,0,1-.18,1.87c-.2,1.2-2,5.88-1.53,7.48a14.27,14.27,0,0,0-.9-1.51c-2.45-3.64-5.78-3.43-7.71-1.21-.06-9.09-.27-18.16-2.53-27-.07-.28-.16-.55-.23-.83a68.54,68.54,0,0,0-5.76-11.32c-.59-1-1.18-1.89-1.78-2.83,2.44,4.81,4.8,9.64,5.73,15.06.08.46-.55,1.3-1,.73a39.29,39.29,0,0,0-5.38-5.71,17.07,17.07,0,0,1-1.88-1.93l.06,4.8a1,1,0,0,1-.32.62c0,.17,0,.23-.12.07a.36.36,0,0,1-.55-.1c-1.1-1.63-2.14-3.31-3.24-5a27.1,27.1,0,0,0-6.76-5.29,23.51,23.51,0,0,0-1.58-3.28,47.5,47.5,0,0,0,1.66,6.75c.15.38.31.75.45,1.13.3.76.56,1.51.87,2.27.89,2.21-2-1.44-2.16-1.69a28.26,28.26,0,0,0-6.15-5.32h0a44.49,44.49,0,0,0-5.59-3.15.68.68,0,0,0-.05.23,48.6,48.6,0,0,0,1,5.77c-2.31-1.5-4.14-4-5.79-6.1a9.47,9.47,0,0,0-1.14-1.3c.34-.08.68-.18,1-.27A24.1,24.1,0,0,0,145.43,46c-.58.45-1-.12-.68-.69.65-1.11,1.36-2.18,2.1-3.21-2.28.69-4.58,1.3-6.79,2.19a53.82,53.82,0,0,0-8.69,5c-.55.34-.88-.37-.55-.78a44.79,44.79,0,0,0,3.06-4.56c-1.52.19-3,.34-4.56.44a62.53,62.53,0,0,1-8.13,1.26c-2.88.21.74-1.16,2.29-1.78a.79.79,0,0,1,.29-.37c1.19-.74,2.39-1.45,3.59-2.17-3,1.34-5.89,2.68-8.72,4.28-.43.25-.6,1,0,1.09a18.88,18.88,0,0,0,3.74.22c-1.22.46-2.43.95-3.61,1.4s-2.58,1-3.86,1.56c-1,.44-2.08,1.36-3.14,1.92a1.54,1.54,0,0,1,0-.17c-.28,0-.47-.28-.31-.68a48.8,48.8,0,0,1,2.51-5.75,16.43,16.43,0,0,0-2,2.4,57.13,57.13,0,0,0-9.38,8,31.09,31.09,0,0,0-3.88,5.32,13.21,13.21,0,0,0-.94,2.55,26.17,26.17,0,0,1,1.58-9.76,22.94,22.94,0,0,1,1.69-4.79,92.07,92.07,0,0,0-6,8.71,41.35,41.35,0,0,0-2.66,5.21,35.45,35.45,0,0,1,2.21-11.89,20.52,20.52,0,0,1,1-3.5,33.1,33.1,0,0,0-4.45,18,.5.5,0,0,0,.12.34,51.41,51.41,0,0,0-2.25,18.17c.09,2.79.2,5.58.29,8.37-2.71-6.39-5.84-12.37-6.1-19.51,0-.53-.67-.56-.94-.2a7,7,0,0,0-.64.9c-1,2.61-.49-2-.56-2.62A20.91,20.91,0,0,1,82.88,59.9c.19-.43-.16-.93-.65-.69a17.07,17.07,0,0,0-3.72,3.13c.08-4.42,2.31-8.5,5.22-12a32.93,32.93,0,0,1,2.71-3.92c-.55.42-1.08.85-1.6,1.3h-.17c-2.74.27-5,1.81-7.29,3.32.37-.4.74-.79,1-1.15q1.35-1.73,2.83-3.33a.66.66,0,0,1,.15-.27c1.13-1.28,2.24-2.58,3.4-3.8-.57.34-1.13.69-1.66,1.07,1.82-5.13,6.3-9,11.11-11.8.5-.35,1-.72,1.5-1,1.57-1,3.11-2.27,4.77-3.19a.42.42,0,0,0-.16,0c-1.65-.1-3.28-.05-4.93,0A54.81,54.81,0,0,1,107.58,20a33,33,0,0,1,7.17-2.13c.45-.22.9-.43,1.34-.66.93-.47,1.85-1,2.77-1.43a1,1,0,0,0-.09-.18,3,3,0,0,0-1.67-1.12c-.94-.4-4.58.22-1.85-.79.75-.28,1.48-.54,2.2-.79a.66.66,0,0,1,.17-.12,27.84,27.84,0,0,1,13.57-2.61.61.61,0,0,0-.13-.36c-.8-1-1.73-1.84-2.58-2.78,2.71,0,5.47.23,8.14.44a14.1,14.1,0,0,1,2.31.37c1,0,2.07.06,3.1.15a14.05,14.05,0,0,1-1.3-1.83c-.21-.37.1-1,.57-1,2.75.19,5.28,1.09,8,1.65,1.21.25,2.43.45,3.65.65-1-1.2-1.85-2.61-2.54-3.38a.54.54,0,0,1,.06-.7c-.2-.14-.4-.28-.58-.43a31.87,31.87,0,0,1,13.38,2.66c1.3.43,2.6.86,3.91,1.25a.75.75,0,0,0,.1-.6,14.36,14.36,0,0,0-2.85-4.8c4.6.72,9.73,5.09,13.08,7.47a.7.7,0,0,0,1-.51c.13-1.18-.43-7.29.55-4.25A28,28,0,0,1,180.09,9c.22.73.41,1.47.56,2.22l.64-.22c.21-.11.42-.23.65-.33,1.64-.72,1.86-.55,1.61,0a.54.54,0,0,1,0,.47c-.18.52-.37,1-.57,1.54,2.1-.37,4-1.22,6.14-1.61.42-.07.83-.13,1.25-.17l.58-.11c2.84-.53,3.59-.47,3.38-.1.15.25-.09.82-.31,1a21.69,21.69,0,0,0-2.53,2.16,13.25,13.25,0,0,1,3.79.83l.76.23a50.27,50.27,0,0,1,7.06,2,27,27,0,0,0-5.44,2,.58.58,0,0,0-.15.13c1.09.12,2.19.16,3.28.38.87.17,1.72.4,2.56.64a18.5,18.5,0,0,1,8.18,2.35,17.52,17.52,0,0,0-6.9,1.56.69.69,0,0,0-.12,1.24c1.29.68,2.56.55,4,1a26.24,26.24,0,0,1,6.86,3.58c.44.3.85.62,1.24.94,3.33,2.06,5.59,6.35,6.85,9.72a.67.67,0,0,1-.12.56Z"/><path class="cls-2" d="M172.82,85.54c-2.24-.08-4.19,3.49-4.36,8s1.51,8.19,3.75,8.27,4.2-3.48,4.37-8S175.06,85.63,172.82,85.54Zm2.82,6c0,1.42-.67,2.55-1.37,2.52s-1.25-1.19-1.19-2.61.67-2.55,1.38-2.53S175.7,90.08,175.64,91.5Z"/><path class="cls-2" d="M121,86.18c-2.24-.08-4.19,3.49-4.36,8s1.51,8.19,3.75,8.27,4.2-3.48,4.37-8S123.25,86.27,121,86.18Zm2.83,6c0,1.42-.67,2.55-1.38,2.52s-1.24-1.19-1.19-2.61.67-2.55,1.38-2.53S123.88,90.72,123.83,92.14Z"/><path class="cls-2" d="M182.69,76.67c-2.74-9.27-17.4,2-18.49,7.32a.29.29,0,0,0,.16.34l.14.06a.31.31,0,0,0,.36-.3c-.05-.34,4.61-2.79,5.18-3.14,2-1.18,5.63-3.18,7.61-1.38,1,.92,2.2,1.93,3.64,1.23S183.11,78.09,182.69,76.67Z"/><path class="cls-2" d="M111.27,77.55c2.52-9.33,17.45,1.54,18.67,6.86a.29.29,0,0,1-.15.34l-.14.07a.3.3,0,0,1-.37-.29c.05-.34-4.68-2.68-5.25-3-2-1.14-5.72-3-7.65-1.19-1,.94-2.15,2-3.61,1.32S110.88,79,111.27,77.55Z"/><path class="cls-2" d="M157.1,118.12a67.08,67.08,0,0,1-11.35,5.09,19,19,0,0,1-5.76.71c-4.13,0-4.54-4.68-4.72-7.71-.55-9.43,2-20,5.85-28.51,0-.07-.06-.09-.1,0-5.59,9.8-10.54,24.55-6.94,35.8,1,3.27,6.12,2.55,8.59,2.27,5.44-.61,10.39-3.85,14.73-6.94C157.75,118.54,157.54,117.89,157.1,118.12Z"/><path class="cls-2" d="M175.18,124.57a5.58,5.58,0,0,0-2.49.34,8.62,8.62,0,0,0-2.16.82l-.41.09a.52.52,0,0,0-.34.68.31.31,0,0,0,.36.29l1.76-.16-.27.06c-1.68.35-3.52,1.57-5,2.32-4.15,2-8.37,3.85-12.64,5.58-10.68,4.32-20.29,4.41-30.54-.79,0,0,0,0,0,0,8.51,5.64,16,7.07,25.92,4.41A65.85,65.85,0,0,0,163.91,132c2.71-1.47,5.57-3.6,8.53-4.5.25-.07.43-.14.59-.2.3.21.65.44,1.08.71a.72.72,0,0,0,.47.08c.29,1,1.69.68,1.84-.31C176.6,126.66,176.61,124.87,175.18,124.57Z"/><path class="cls-2" d="M150.36,143.48c-2.54-1.79-7.45,1.14-9.57,2.65-.14.1-.1.36.09.32,1.35-.28,2.69-.63,4.05-.87,1.56-.27,3.31.21,4.78-.26C150.36,145.11,151.14,144,150.36,143.48Z"/><path class="cls-2" d="M202.88,87.1a35.38,35.38,0,0,0-2.3,4.29,13.85,13.85,0,0,0-1.35,4,.59.59,0,0,0,.88.5c1.17-.73,1.37-2,1.61-3.24.36-1.87,1.18-3.58,1.55-5.43C203.33,86.89,203,86.91,202.88,87.1Z"/><path class="cls-2" d="M202.46,93.6c-.7,1.37-1.55,2.64-2.34,4-.64,1.08-1.53,2.23-1.46,3.54,0,.61.68.53,1,.21,1-1,1.34-2.54,1.83-3.78s1-2.53,1.36-3.84C202.93,93.41,202.56,93.41,202.46,93.6Z"/><path class="cls-2" d="M202.27,99.28c-.13-.39-.61-.09-.62.22,0,1.17-1,2.4-1.5,3.45-.58,1.28-1.83,2.59-1.46,4.07.11.45.65.43.95.2,1.19-.89,1.66-2.87,2-4.26C202,101.77,202.7,100.54,202.27,99.28Z"/><path class="cls-2" d="M201.69,104.16a18.84,18.84,0,0,1-1.17,3,6.51,6.51,0,0,0-1,2.66c0,.56.63.47.91.18a7.57,7.57,0,0,0,1.35-2.76,9.29,9.29,0,0,0,.55-3.13C202.39,103.63,201.77,103.83,201.69,104.16Z"/><path class="cls-2" d="M202.51,108.65c-.23,2.13-2.38,3.81-2,6,.08.45.69.21.81-.06.83-1.78,2-4,1.88-6C203.15,108.18,202.55,108.3,202.51,108.65Z"/><path class="cls-2" d="M202.23,113.4a14,14,0,0,1-.92,2.95,7.11,7.11,0,0,0-.72,2.17c0,.3.37.39.55.21,1.28-1.25,1.73-3.58,1.91-5.29C203.12,112.84,202.33,112.88,202.23,113.4Z"/><path class="cls-2" d="M202.25,117.72a21.75,21.75,0,0,1-.95,4.71c-.07.26.3.29.39.07a12.88,12.88,0,0,0,.95-4.87C202.64,117.36,202.26,117.49,202.25,117.72Z"/><path class="cls-2" d="M201.72,122.92a20.48,20.48,0,0,1-.9,3.44.25.25,0,1,0,.47.17,21.42,21.42,0,0,0,1-3.58C202.38,122.52,201.79,122.55,201.72,122.92Z"/><path class="cls-2" d="M96.17,101.9c-1-1.69-2.14-3.31-3.14-5-.92-1.56-2.17-3.09-2.49-4.9,0-.23-.35,0-.34.11A11.24,11.24,0,0,0,91.79,97a22.6,22.6,0,0,0,3.62,5.67C95.79,103.08,96.41,102.32,96.17,101.9Z"/><path class="cls-2" d="M91.41,97.69c-.06-.28-.47-.07-.45.16a10.34,10.34,0,0,0,1.24,3.77,21.82,21.82,0,0,0,2.49,4.16c.33.38.8-.07.73-.47C95,102.46,92,100.59,91.41,97.69Z"/><path class="cls-2" d="M95,109.08a9.13,9.13,0,0,0-1.67-2.85,14.69,14.69,0,0,1-2.07-3.79c-.1-.3-.48,0-.44.22A12.67,12.67,0,0,0,92,106.13a11.71,11.71,0,0,0,2.33,3.46C94.63,109.87,95,109.39,95,109.08Z"/><path class="cls-2" d="M91.81,107.42c-.11-.34-.57,0-.5.25a23.35,23.35,0,0,0,2.27,5.59c.18.34.67,0,.65-.32C94.07,110.91,92.47,109.3,91.81,107.42Z"/><path class="cls-2" d="M94.56,117.83c-.44-1.85-1.69-3.42-2.35-5.2-.16-.45-.78-.07-.67.32a16.91,16.91,0,0,0,2.32,5.33C94.14,118.66,94.65,118.2,94.56,117.83Z"/><path class="cls-2" d="M94.09,121.1c-.53-1.43-1.71-2.56-1.88-4.12,0-.4-.56-.21-.56.12a7.82,7.82,0,0,0,1.77,4.42C93.67,121.87,94.22,121.45,94.09,121.1Z"/><path class="cls-2" d="M94.59,125.61c-.57-1.69-1.82-3.15-2.71-4.69-.12-.2-.39.06-.3.24.76,1.61,1.53,3.29,2.44,4.82C94.21,126.3,94.69,125.91,94.59,125.61Z"/><path class="cls-2" d="M94.38,129.12c-.42-1.29-1.25-2.38-1.64-3.68-.09-.29-.45,0-.41.19a13.36,13.36,0,0,0,1.48,3.85C94,129.81,94.48,129.41,94.38,129.12Z"/><path class="cls-2" d="M95.16,132.77c-.7-1.16-1.32-2.39-1.93-3.61-.09-.19-.37,0-.32.2a19.28,19.28,0,0,0,1.68,3.87C94.81,133.6,95.37,133.11,95.16,132.77Z"/><path class="cls-2" d="M275.49,284.26c-.15-1.49-2.79-12.45-4.83-8.5-1.05,2-2.08,4.07-3.19,6.06-1.76,3.15-4.11,6.19-7.9,6.68-.22,0-.36-.18-.37-.37-.4-5.94,3.84-10.05,5.76-15.3a9.45,9.45,0,0,0,.42-6.27,11.89,11.89,0,0,1-.94-4.1c.16-2.52,1.59-4.06,2.86-5.94-1.38.33-2.66.3-3.43-.61-1.49-1.76-1.94-4.2-3.37-6.07-1.79-2.36-3.74-4.58-5.71-6.78a60.43,60.43,0,0,1-9.9-14.2c-2.26-4.76-4.31-9.64-7.46-13.87a54.53,54.53,0,0,0-26.15,3.66c-15.32,6.26-26.92,21.19-29.58,37.54a62,62,0,0,0-1.76,8.61c-1.1,6.67-1.17,13.6-1.22,20.34a17.38,17.38,0,0,0,3.38,10.69c-.69,8.61,3.26,14.67,11.42,18.35,9.81,4.42,21.35,6.17,31.95,7.36,12.36,1.38,26.57.85,38.31-4.36l2-1c1.86-2.09,3.61-4.26,5.32-6.47C269,301.28,276.35,293.1,275.49,284.26Z"/><path class="cls-15" d="M270.84,277.73a4.72,4.72,0,0,0-.41-1.53c-1,1.88-1.93,3.77-3,5.62-1.76,3.15-4.11,6.19-7.9,6.68-.22,0-.36-.18-.37-.37-.37-5.55,3.3-9.5,5.34-14.28l-2-.08a37.58,37.58,0,0,1-4-.4c-.83-.17-1.66-.37-2.47-.62a11.44,11.44,0,0,1-1.71-.71.52.52,0,0,0-.33,0l-.35-.15c-.38-.18-1.05.43-.59.7a3,3,0,0,1,1,.95,6.83,6.83,0,0,1,.48,1.26c.37,2-.43,4.54-.89,6.43a.09.09,0,0,1,0-.05,34.94,34.94,0,0,0-.11-4.58c-.56-4.5-4-5.22-7.86-5.13a58.31,58.31,0,0,1-10.15-.19,187.92,187.92,0,0,1-23.6-4.9c-7.3-2.09-14.65-4.42-21.39-8-2.88-1.51-6.74-2.83-6.84-5.94a68.32,68.32,0,0,0-2.46,9.66h0c-.3,2.48-.46,4.94-.63,7.15-.4,5.13-1,10.66-.54,15.8.21,2.64-.11,5.88,1.73,8.08,1.69,2,3,4.37,5.06,6.05,4.68,3.75,10.19,5.5,15.79,7.39,9.73,3.28,21.37,5.42,31.68,4.49,5.29-.48,12.89-1.2,17.4-4.33A69.36,69.36,0,0,0,262,297.58C266.57,291.71,271.61,284.65,270.84,277.73Z"/><path class="cls-16" d="M184.49,250.75c-.07.11-.12.23-.18.34,0,4.57,8,7,11.28,8.42,3.49,1.47,7,2.8,10.64,3.92a181.75,181.75,0,0,0,25.1,6.08,71.79,71.79,0,0,0,13,.95,27.65,27.65,0,0,1,6,.06,21,21,0,0,1,4.69.54c3.09.71,6.36,2.08,9.58,1.83l.37,0a.05.05,0,0,1,0,0,9.45,9.45,0,0,0,.42-6.27,11.89,11.89,0,0,1-.94-4.1c.16-2.52,1.59-4.06,2.86-5.94-1.38.33-2.66.3-3.43-.61-1.49-1.76-1.94-4.2-3.37-6.07-1.79-2.36-3.74-4.58-5.71-6.78a60.43,60.43,0,0,1-9.9-14.2,119.43,119.43,0,0,0-5.54-11,49.29,49.29,0,0,0-25,2.09c-15,5.44-24.9,16.88-30,31l.13-.18S184.51,250.71,184.49,250.75Z"/><path class="cls-16" d="M275.49,284.26c-.12-1.18-1.79-8.26-3.49-9.24a6.49,6.49,0,0,1,.54,1.4c1,3.79-1.22,9-2.87,12.17-2.72,5.26-6.84,9.66-10.94,13.9a.22.22,0,0,1-.11.05,36.15,36.15,0,0,1-7.44,5.88c-4.34,2.54-11.82,3.58-16.83,3.8-12.07.55-24-1.71-35.37-5.59-6.13-2.08-12.31-5.16-16.2-9.91.59,3.61,1.8,7.3,4.27,10,3.79,4.13,9.62,6,14.87,7.42A145.92,145.92,0,0,0,227.79,319c8.55.75,17.41.79,25.79-1.31a61.56,61.56,0,0,0,15-5.81c.83-1.06,1.61-2.16,2.37-3.28C269.63,300.58,276.31,292.72,275.49,284.26Z"/><path class="cls-2" d="M267.47,281.82c-1.68,3-3.89,5.9-7.37,6.59a4.06,4.06,0,0,0,.27.65,3.06,3.06,0,0,0,3.78,1.47,8.34,8.34,0,0,0,4.32-4.92,22.4,22.4,0,0,0,.88-2.73,14.61,14.61,0,0,0,.49-3.71,5,5,0,0,0-.23-1.39C268.91,279.14,268.21,280.49,267.47,281.82Z"/><path class="cls-5" d="M267.47,281.82c-1.4,2.5-3.17,4.92-5.73,6.07l0,.16c.52,1.74,1.94,1.29,2.92.41a4.38,4.38,0,0,0,.51-.55,13.6,13.6,0,0,0,2.62-6.76Z"/><path class="cls-2" d="M293.54,274.8c-.6-3.07-2.27-6-3.64-8.78-1.23-2.52-2.32-5.15-3.66-7.63a.49.49,0,0,0,.06-.39,4.28,4.28,0,0,0-1.54-2.05c-.17-.26-.34-.52-.53-.78-.09-.11-.23,0-.18.15l.11.24c-2.53-1.44-6.47-1.35-8.92-1.14-.79.07-1.64-1.33-3.57-.51.12-.2-4.75,1.45-4.65,1.23,0-.07.46-.09.4,0-3.19,2.06-4.27,5-3.21,9.25.67,2.64,1.68,5.19.27,8-1,2-2.17,3.85-3.08,5.89a45.62,45.62,0,0,0-2.66,8.93c-.74,3.65,2.72,3.06,4.45,1.46,2-1.87,3.37-4.52,4.69-6.89.91-1.62,1.61-3.34,2.42-5,1.43-2.9,2.74,1.12,3.61,2.66a37.25,37.25,0,0,1,0,12.94c-.89,4.51-2.23,8.89-3.17,13.39-.2,1-1.28,7.17.9,6.7,1.36-.28,2-1.45,2.65-2.53a36.05,36.05,0,0,0,3.23-7.77c3.23-2.33,6.29-5.22,8-8.85,2.81-.4,4.33-3,5.24-5.57.11-.32.21-.64.29-1C294.94,284.43,294.28,278.54,293.54,274.8Z"/><path class="cls-4" d="M291.23,285.57c.55-3.93-.89-8.12-1.39-11.92,0-.2-.28-.11-.28.06-.12,5,2.84,15.76-3.52,18.2,1.46-4.34.64-9.49.86-13.93,0-.43-.54-.24-.62,0-1.19,4.22-1.08,8.63-2,12.91-.8,3.78-3.58,6.54-6.22,9.22.14-.46.27-.92.4-1.37,1.11-3.78,3.18-7,3.5-11s-.79-8.11-1.61-11.84c-.09-.38-.65-.1-.62.22.19,2.85.66,5.66.88,8.51.39,4.86-2.17,7.9-3.66,12.12-.94,2.65-1.42,5.42-2.34,8.07-.55,1.58-3.3,9.07-3.25,3.53.07-8.89,6.86-17.65,4.43-26.29-.07-.61-.15-1.22-.28-1.82a5.3,5.3,0,0,0-.39-1.14c-.22-2-1-4.64-2.77-5.88a.82.82,0,0,0-.85-.06c-2.44,1.19-3.29,4.11-4.33,6.43a37.33,37.33,0,0,1-4.42,7.19c-2.16-.19-2.73-1.07-1.72-2.61.44-1.46.82-2.92,1.21-4.4,1-3.74,5.24-7.75,4.73-11.82-.4-3.2-2.11-6,.32-9.17.54-.7,1.12-1.28,1.66-1.91,2.07-1,6.34-1.29,7.37-1.33a12.87,12.87,0,0,1,9.17,3c1.32,3.22,2.5,6.53,4,9.67C291.8,272.87,295.25,281,291.23,285.57Z"/><path class="cls-7" d="M194.55,184.91a.16.16,0,0,0-.1,0c-4.09,1.25-7.69,3.9-11.21,6.25-.32.22-1.51.75-1.29,1.37.13.38.68.58,1,.77.56.36,1.14.59.46,1.43a3.36,3.36,0,0,0-6.15,1.92c-.75-.28-.47-.78-.26-1.35.12-.32.43-.82.31-1.19-.2-.64-1.47-.34-1.86-.32-4.22.25-8.69.31-12.71,1.8a.14.14,0,0,0-.07.06c-.13,0-.25.12-.15.26a2,2,0,0,0,2,.85,2,2,0,0,0,1.91.95,1.51,1.51,0,0,0,1.57,1.17v0a3.21,3.21,0,0,0,2.44.8s0,0,0,0c.58.44,1.16,1.07,2,1a9.87,9.87,0,0,0,3.1-.56c.8-.29,1.93-.31,2.61-.86a.66.66,0,0,0,.2-.28,3.35,3.35,0,0,0,5.58-2.1.77.77,0,0,0,.52.26c.87,0,1.79-.64,2.6-.89a9.82,9.82,0,0,0,2.81-1.43c.65-.45.73-1.3.93-2v-.06a3.16,3.16,0,0,0,1.45-2.1v0a1.51,1.51,0,0,0,.55-1.88,2,2,0,0,0,.95-1.92,2,2,0,0,0,1.09-1.9C194.82,184.85,194.66,184.84,194.55,184.91Z"/><path class="cls-2" d="M194.35,184.35a.13.13,0,0,0-.09,0c-4.1,1.25-7.7,3.91-11.22,6.26-.32.21-1.5.74-1.29,1.37.13.37.68.57,1,.76.56.36,1.14.6.46,1.44a3.35,3.35,0,0,0-6.14,1.91c-.76-.28-.48-.78-.27-1.35.12-.32.44-.81.31-1.19-.2-.63-1.46-.34-1.85-.31-4.22.24-8.7.31-12.71,1.79a.12.12,0,0,0-.07.07c-.14,0-.25.11-.16.25a2.06,2.06,0,0,0,2,.85,2,2,0,0,0,1.91,1,1.5,1.5,0,0,0,1.57,1.16s0,0,0,0a3.17,3.17,0,0,0,2.43.8l0,.05c.59.43,1.16,1.07,1.95,1a10.16,10.16,0,0,0,3.1-.55c.8-.3,1.94-.32,2.61-.87a.66.66,0,0,0,.2-.28,3.35,3.35,0,0,0,5.58-2.1.77.77,0,0,0,.52.26c.88,0,1.8-.64,2.61-.89a9.89,9.89,0,0,0,2.8-1.43c.65-.45.73-1.3.93-2v-.06a3.21,3.21,0,0,0,1.46-2.1v0a1.51,1.51,0,0,0,.54-1.88,2,2,0,0,0,.95-1.91,2.08,2.08,0,0,0,1.1-1.9C194.62,184.3,194.46,184.28,194.35,184.35Z"/><path class="cls-11" d="M162.76,195.3c2.15-.39,4.25-1,6.43-1.23s4.52-.34,6.79-.5c.84-.06.38.85.21,1.62-.79-1.15-3.22-.57-4.31-.49-1.62.13-3.24.28-4.85.51C165.85,195.37,163.78,196.2,162.76,195.3Z"/><path class="cls-11" d="M165.56,196.72l-.94-.56c.82-.13,1.71-.45,2.54-.55,1.41-.16,2.82-.35,4.24-.46,1-.07,3.82-.66,4.77.18a1.29,1.29,0,0,0,0,.48c-1.09-.48-2.53-.05-3.66.08-1.3.15-2.58.37-3.88.57-.53.09-1.07.18-1.61.22A7.92,7.92,0,0,1,165.56,196.72Z"/><path class="cls-11" d="M166.39,197.15a14.59,14.59,0,0,0,1.83-.21c1.47-.24,2.93-.5,4.41-.67,1.12-.12,2.88-.72,3.88-.05a2.92,2.92,0,0,0,.47.22c-1.47.19-3,.55-4.41.77-.93.14-1.87.18-2.79.4S167.07,198.39,166.39,197.15Z"/><path class="cls-11" d="M168.29,198.3c.77-.07,1.59-.31,2.16-.4,2.23-.34,4.48-.61,6.71-1a1.6,1.6,0,0,0,.05.21,3.79,3.79,0,0,0,.18.42,2.66,2.66,0,0,1-.39.11c-.93.16-1.87.32-2.81.46C172.48,198.35,169.89,199.2,168.29,198.3Z"/><path class="cls-11" d="M175.49,199.05a12.57,12.57,0,0,1-3,.75,3.24,3.24,0,0,1-1.91-.68c1.28-.1,2.64-.51,3.7-.68a14.25,14.25,0,0,0,3.29-.56,2.43,2.43,0,0,0,.24.32C177.45,198.75,176.06,198.84,175.49,199.05Z"/><path class="cls-11" d="M181.28,198.66A2.91,2.91,0,1,1,183.1,195,2.91,2.91,0,0,1,181.28,198.66Z"/><path class="cls-12" d="M179.43,193.15a2.32,2.32,0,1,1-1.46,2.94,2.33,2.33,0,0,1,1.46-2.94A2.91,2.91,0,1,0,183.1,195,2.91,2.91,0,0,0,179.43,193.15Z"/><path class="cls-11" d="M189.17,194.2a12.5,12.5,0,0,1-2.82,1.19c-.63.2-1.95,1.09-2.54.68l-.06,0a1.79,1.79,0,0,0,0-.23,11.53,11.53,0,0,0,3.2-1.59c.95-.52,2.28-1,3.35-1.7A3.2,3.2,0,0,1,189.17,194.2Z"/><path class="cls-11" d="M186.81,193.84c-.84.46-1.68.9-2.52,1.33a1.73,1.73,0,0,1-.61.2,2.75,2.75,0,0,0-.11-.41l-.06-.17c2.08-1,4.11-2.24,6.17-3.36.51-.27,1.3-.57,1.95-1C190.91,192.13,188.33,193,186.81,193.84Z"/><path class="cls-11" d="M190,190.8c-.87.38-1.65.91-2.47,1.36-1.29.7-2.69,1.32-4,2.06a1.61,1.61,0,0,0,.16-.39c.4-1.14,2.23-1.8,3.2-2.38,1.29-.76,2.61-1.43,3.92-2.13a15,15,0,0,0,1.59-.94C192.66,189.78,191,190.36,190,190.8Z"/><path class="cls-11" d="M192.86,187.54a8.21,8.21,0,0,1-1.18.85c-.46.29-1,.54-1.42.8-1.16.62-2.31,1.22-3.44,1.88-1,.58-2.39,1.11-3,2.15a1.24,1.24,0,0,0-.29-.38c.24-1.23,2.85-2.48,3.69-3,1.2-.77,2.43-1.47,3.65-2.2.72-.42,1.63-.7,2.36-1.1C193.13,186.86,193,187.2,192.86,187.54Z"/><path class="cls-11" d="M190.77,187.22c-1.41.8-2.8,1.65-4.16,2.53-.93.6-3.21,1.6-3.15,3-.59-.52-1.51-1-.8-1.43,1.89-1.24,3.75-2.54,5.7-3.7s3.92-1.92,5.87-2.9C194,186,191.81,186.64,190.77,187.22Z"/><path class="cls-12" d="M193.58,185c-.13.61-.83.88-2.21,1.55a53.61,53.61,0,0,0-6.85,4.16c-1.6,1.2-2,1.13-2,.65-.52.44.33.86.89,1.36-.06-1.4,2.22-2.4,3.15-3,1.36-.88,2.75-1.73,4.16-2.53,1-.58,3.19-1.18,3.46-2.5Z"/><path class="cls-12" d="M192.82,186.74c.06.25-.24.53-.94,1-1,.67-4.19,2.32-6.44,3.77a5.14,5.14,0,0,1-1.64.82,1.57,1.57,0,0,0-.23.52,1.24,1.24,0,0,1,.29.38c.57-1,2-1.57,3-2.15,1.13-.66,2.28-1.26,3.44-1.88.47-.26,1-.51,1.42-.8a8.21,8.21,0,0,0,1.18-.85c.13-.34.27-.68.41-1A4.71,4.71,0,0,1,192.82,186.74Z"/><path class="cls-12" d="M192,188.7c.1.23-.19.61-.74,1-.82.54-3.46,1.89-5.38,3-1.2.67-1.78.87-1.84.71a1.75,1.75,0,0,0-.27.48,1.61,1.61,0,0,1-.16.39c1.29-.74,2.69-1.36,4-2.06.82-.45,1.6-1,2.47-1.36s2.62-1,2.42-2.42Z"/><path class="cls-12" d="M190.71,190.94c0,.49-2.93,2.16-5.06,3.2a6.39,6.39,0,0,1-2.1.77s0,0,0,.05a2.75,2.75,0,0,1,.11.41,1.73,1.73,0,0,0,.61-.2c.84-.43,1.68-.87,2.52-1.33,1.52-.83,4.1-1.71,4.82-3.39A10.1,10.1,0,0,1,190.71,190.94Z"/><path class="cls-12" d="M189.63,192.89c.2.12,0,.49-.74.85-.92.49-2.33,1.21-4,1.94a3,3,0,0,1-1.14.27s0,0,0,.07l.06,0c.59.41,1.91-.48,2.54-.68a12.5,12.5,0,0,0,2.82-1.19,3.2,3.2,0,0,0,1.11-1.7C190.07,192.64,189.85,192.76,189.63,192.89Z"/><path class="cls-12" d="M176.3,193.62c-.11.46-1,.47-2.33.46a57.43,57.43,0,0,0-8.51,1,4.9,4.9,0,0,1-2.33.12l-.37.07c1,.9,3.09.07,4.27-.09,1.61-.23,3.23-.38,4.85-.51,1.09-.08,3.52-.66,4.31.49C176.33,194.55,176.66,193.82,176.3,193.62Z"/><path class="cls-12" d="M175.57,195c.11.17,0,.31-.5.23a39.28,39.28,0,0,0-6.55.78c-2.36.36-3.74.34-3.73.08l-.17,0,.94.56a7.92,7.92,0,0,0,1.46,0c.54,0,1.08-.13,1.61-.22,1.3-.2,2.58-.42,3.88-.57,1.13-.13,2.57-.56,3.66-.08a1.29,1.29,0,0,1,0-.48A1.54,1.54,0,0,0,175.57,195Z"/><path class="cls-12" d="M176.51,196.22a1.91,1.91,0,0,0-.28-.15c0,.22-.34.19-1,.31-.93.15-4,.43-6.09.89-1.46.32-2.37.13-2.38-.14l-.32,0c.68,1.24,2.33.72,3.39.46s1.86-.26,2.79-.4c1.45-.22,2.94-.58,4.41-.77A2.92,2.92,0,0,1,176.51,196.22Z"/><path class="cls-12" d="M177.21,197.1a1.6,1.6,0,0,1-.05-.21l-.1,0c.14.17-.24.43-1,.6a34.86,34.86,0,0,1-5.29.79c-1.34.09-1.87,0-1.8-.1a4.92,4.92,0,0,1-.67.1c1.6.9,4.19,0,5.9-.21.94-.14,1.88-.3,2.81-.46a2.66,2.66,0,0,0,.39-.11A3.79,3.79,0,0,1,177.21,197.1Z"/><path class="cls-12" d="M177.6,197.88l-.34.12c.17.45-1.94.76-3.72,1.14a4.72,4.72,0,0,1-2.71,0l-.22,0a3.24,3.24,0,0,0,1.91.68,12.57,12.57,0,0,0,3-.75c.57-.21,2-.3,2.35-.85A2.43,2.43,0,0,1,177.6,197.88Z"/><g class="cls-17"><path class="cls-18" d="M177.87,195a1.58,1.58,0,0,1,.14-.85,1.53,1.53,0,0,1,.21-.37,1.79,1.79,0,0,1,.31-.37,2.29,2.29,0,0,1,.43-.32,2.21,2.21,0,0,1,.53-.23,3,3,0,0,1,.48-.08,2.14,2.14,0,0,1,1.41.41,1.65,1.65,0,0,1,.57.64s-.35-.06-.79-.11a5.35,5.35,0,0,0-.7,0c-.12,0-.21,0-.32,0a3.1,3.1,0,0,0-.42.1,1.93,1.93,0,0,0-.32.12c-.12,0-.22.11-.34.16a5,5,0,0,0-.59.38A6,6,0,0,0,177.87,195Z"/></g><path class="cls-7" d="M149.75,186.41a93.22,93.22,0,0,0-3.92-13.08c-.6-1.48-2.18-5.78-4.34-8.4-3.78-.68-18.85-3.61-20.24-7a38.53,38.53,0,0,0-9.65,11.92,27.82,27.82,0,0,0-2.62,6.8c-.5,2.44,0,2.81,1.91,1.61,5.44-3.34,13.33-6.49,19.78-4.07,9.42,3.53,16.7,12.15,20.79,21.81A95.06,95.06,0,0,0,149.75,186.41Zm-10.53-9.47c-1.76-1.53-4.23-3.47-9.87-4.86s-12.18.55-16.09,2.6-2.27-3.58.84-8.08c3.76-5.45,6.46-7.7,7.54-6.65s9.42,3.76,14.06,4.7,4.19.07,6.3,3.8,3.86,9.51,4.92,14.25S144.08,181.13,139.22,176.94Z"/><path class="cls-7" d="M182.36,150.84a57.06,57.06,0,0,1-20.16,12.43c-.95,4.11-2.43,8.14-2.92,12.34-.44,3.84-.73,7.69-1.13,11.52-.42,4-1.29,8-1.71,12-.4,3.79-.39,7.57-.62,11.36,1.23-2.34,1.11-5.27,1.6-7.8a64.47,64.47,0,0,1,2.45-9.39c2.09-5.89,4.34-12,8.54-16.81,7.57-8.57,19.46-12,30.64-10.65C194.68,159.87,189.6,152.77,182.36,150.84ZM192,163.43c-5.94-.28-20.65,3-25.66,12.28s-6.81,10.65-5.71.07c.76-7.45,2.31-11.64,3.87-12s14.16-5.81,15.89-9.3c1.52-3.07,5.73-1.63,10.54,3.43S197.94,163.71,192,163.43Z"/><path class="cls-19" d="M110,220.23c0-3.71,1.73-9.12,2.2-11.54.41-2.12.25-2.51,4.1-2,3,.41,4.43.71,7.31,1.07s3.67.4,9.25,3.63,6.79,3.14,6.14,6.65-1.59,7.77-2.54,11.22-16.25,2.55-17.59,1.51C111.28,224.91,110,222.15,110,220.23Z"/><path class="cls-19" d="M178.21,229.32c-9.25.84-9.52.86-11.67-10.86-.95-5.2-1.38-4.51,1.63-6.63a86.2,86.2,0,0,1,10.6-6.25,64.29,64.29,0,0,1,10.87-3.14c2.87-.49,2.82-.8,3.65,5.5,1.24,9.42,1.34,10.8-2.81,15.41C185.13,229.31,186.17,228.59,178.21,229.32Z"/><path class="cls-19" d="M109.64,328.74c1.27-15,0-11,11-10.15s2.67,1.33,1.46,24c-1.28,24.1,2.47,27.94-2.85,25s-10.08-6.21-10.13-9.88S109.15,334.54,109.64,328.74Z"/><path class="cls-19" d="M201.48,318.91A282,282,0,0,0,212,363c1.2,3.9-4.32,2-10.44,1s-5.18-5.9-10.17-21-7.69-22.3-5.84-24C186.27,318.37,201,316,201.48,318.91Z"/><path class="cls-20" d="M76.56,174.4c13.18-4.39,21.24-7.69,24.9-8.52s2.3,4.27-5.88,9.37S83.3,180,79,179,72.82,175.65,76.56,174.4Z"/><path class="cls-20" d="M42.85,158.9c-2-12.23,0-14.92,3.09-7.46s10.88,17,11,22.62.15,25.4-3,23.16S45.2,173.59,42.85,158.9Z"/><path class="cls-20" d="M247.87,197.74c7.91,9,20.71,27.46,26.48,39.14s-5,7.06-13.4-3.83a94.12,94.12,0,0,1-15.23-30.14C243.5,195.38,245.6,195.15,247.87,197.74Z"/><path class="cls-20" d="M119.72,239.79c5.88,4.12,18.6,5.49,12.51,13.58s-8.52,13.09,4.85,23.32.23,1.18-7.78,9.26,7.49,11.63,12.19,15.32-1.72,4.07-15.06,1.94c-15.47-2.47-14.52-3.38-10-10.67,3.09-5,9.22-10.06,3.79-14.92-8.06-7.22-6.15-9.65-.23-18.06,4.29-6.09-.14-10.44-5.9-18.37S112,234.38,119.72,239.79Z"/><path class="cls-20" d="M167,246c13.58-7.19,11.88-3.62,6.55,8s-6.63,22.44-.85,34.61-3.43,2.11-8.73-9.48-.05-15.33,3.17-22.13,3.35-8.75-1.62-6.55S159.92,249.75,167,246Z"/><path class="cls-20" d="M113.33,398.55c-1.35-8,.09-6.34,3.62-4.55s6.19,1.89,13.14-1.68,11.15-1.29,7.24,5.93,1.6,8.14,3.71,16.62,6.68,27.92,5.53,42.77S134.7,495.46,134.18,480s-1.49-39.48-3.47-51.46-4.5-12.94-9-16.22S114.77,407,113.33,398.55Z"/><path class="cls-20" d="M207.27,392.55c-8.37-11.81-4.66-12.44,3.37-10.37s9.37-1.1,14.7-6,5.5,8.44,4.12,18.79S224.33,400,222.14,410s-5.92,6.07-2,15.86,3.91,33.45,5.37,43.6.44,14-6.94,4.59-5.7-16.1-9.25-33.89-10-40.55-3.81-38S214.05,402.14,207.27,392.55Z"/><path class="cls-21" d="M77.56,174.18A187.84,187.84,0,0,0,95.8,168c3.79-1.54,8-2.41,8.74-1s-1.22,7.89-1.37,10.83-2-1.23-3.28-2.59-.73,2.2-1,6.58-1.54,1.52-8.38,4.8S79.1,190.4,79,186.2C79,179.45,73.52,175.33,77.56,174.18Z"/><path class="cls-21" d="M142.11,177.84c-.43-1.7-4-6.45-11.53-9.11s-11.05-4.19-9.92-6.78-3.42-.15-6.18,5.82-1.18,5.41,3.55,3.85,13.87-.67,19,2.95S142.64,179.92,142.11,177.84Z"/><path class="cls-21" d="M186.19,156.8c2,2.35-.36,3.36-4.65,4.4s-13.88,5.4-17.2,12.7c-1.48,3.27,3.35-3.59,11.26-7.75a33.41,33.41,0,0,1,16.91-3.72c1.92,0-1.47-3.94-4-5.66S184.07,154.32,186.19,156.8Z"/><path class="cls-21" d="M112.54,212.94c1.73-5.26,2.22-2.3,2.91,2.8s3.68,9.14,13.2,11.85-6.88,3.46-12.42.7S110.21,220,112.54,212.94Z"/><path class="cls-21" d="M186.84,209.27c-.48,4.5-1.93,10.55-9.54,13.22s-9.85,7.29,3.43,4,12.45-9.19,10.69-17.32S187.51,202.91,186.84,209.27Z"/><path class="cls-22" d="M153.49,498.62c-4.37,2.56-11.24,3.44-16.26,2.77a23,23,0,0,1-7.34-1.83c-2.76-1.35-5.47-3.38-8.53-3.94-7.28,5.64-19.08,7.73-27.78,5.73-7.38-1.69-15.16-3-21.17,2.89-2,2-5.83,7.25-7,11.83,1.69,3.5,6.35,3.93,9.81,4.64a104.69,104.69,0,0,0,13.67,1.86,191,191,0,0,0,24.16.53c7.47-.42,13.24-6.56,20.56-7.52,3.13-.41,6.07,1,9.25.76a88.74,88.74,0,0,0,11.24-1.52,15.92,15.92,0,0,0,.17-2.09c0-2.61.27-5.19.4-7.8.08-1.59.18-3.19.21-4.78C154.89,498.37,155.2,497.62,153.49,498.62Zm-3.85,12c.49,5.66-10.16.62-16.91,1s-7.83,6.85-20.56,8.84-27.51-.66-34.86-2.07-14.46-4.08-4.58-13.61C78.78,499,88,500,91,501.66s13.55,3.5,22.25-.69,7.77-5,14.41-.61,16,3.16,20.52,2.06S149.15,504.94,149.64,510.61Z"/><path class="cls-22" d="M144.05,517.71c-4.94.22-9.57-1.57-14.31.44-4.12,1.75-8.1,3.85-12.23,5.57-2.88,1.2-6.65.75-9.67.72q-3.41,0-6.76-.13c1.13,1,.14,2.3-2.66,3.08l2.08.08a69.59,69.59,0,0,0,35-8.59.74.74,0,0,1,1.08.41c.71,3.4,9.12.86,11.13.34,1.49-.39,5.18-1,5.78-2.51.11-.29.2-.58.28-.87A38.87,38.87,0,0,1,144.05,517.71Z"/><path class="cls-22" d="M256.33,520.59c-2.51-3.81-6-6.16-9.63-8.79-.35-.24.09-.92.45-.72a30.45,30.45,0,0,1,10.78,10c-.1-.35-.22-.69-.35-1-1.22-3.15-2.9-6.09-4.21-9.21a79.84,79.84,0,0,1-5.05-17.22l-.19.08h0a28.16,28.16,0,0,0-3.2,1.42l-.37.18a8.48,8.48,0,0,1,2.55,4.13c.12.48-.45,1.07-.91.73-4.79-3.5-10-7.8-16.45-6.42a16.32,16.32,0,0,0-8.63,5.4c-.54.61-3.88,4-3.13,5,0,0,0,.1-.06.08-1.38-.76,0-3.08,2.07-5.46-2.45.51-4.15-1-6.22-2.35s-.5,4.53-.51,5.49a29.68,29.68,0,0,1-.39,4.89,42.88,42.88,0,0,1-3.59,11.08,30.71,30.71,0,0,0-2.57,7.34c4.44-6,12.67-10,19.36-11,1-1.15-.16-1.53-6.48.47-5.4,1.7-6.88,3-5.26-7.63.73-4.78,1.12-3.35,2.4-1.7S222,496.3,230,495.11s16.6,7.88,16.68,7.05,0-2.33,2.71,4,1.22,4.48-2.86,4.2,6.64,5.17,9.56,12.13,3.48,18-23.85,18.47S203,526.57,220.73,517.73a25.69,25.69,0,0,0,5-3.16,34.59,34.59,0,0,0-13,7.19c-2.13,1.88-4.52,4.07-5.66,6.75-1,2.44-.82,4.47-.65,6.78,3.47,7.06,19.07,8.29,25,8.29,9,0,23.24-.59,28.75-9.14C259.8,529.74,258.86,524.45,256.33,520.59Z"/><g class="cls-23"><path class="cls-9" d="M214.19,542c-3.13-1.08-6-2.6-7.58-4.75.35,5.08,4,7.09,8.36,8.11C212.6,544.12,212.45,542.78,214.19,542Z"/><path class="cls-9" d="M260.36,536.54a1.64,1.64,0,0,0,0-.23c-2.3,3.38-7.51,5.45-11.51,6.56.48,1.1-.48,2.52-2.63,3.63C253.67,545.37,260.72,542.69,260.36,536.54Z"/></g><path class="cls-24" d="M264.44,262.46c.16-2.52,1.59-4.06,2.86-5.94-1.38.33-2.66.3-3.43-.61-1.49-1.76-1.94-4.2-3.37-6.07-1.79-2.36-3.74-4.58-5.71-6.78a60.43,60.43,0,0,1-9.9-14.2,119.43,119.43,0,0,0-5.54-11,49.29,49.29,0,0,0-25,2.09c-15,5.44-24.9,16.88-30,31l.13-.18s.08,0,.06,0-.12.23-.18.34c0,4.57,8,7,11.28,8.42,3.49,1.47,7,2.8,10.64,3.92a181.75,181.75,0,0,0,25.1,6.08,71.79,71.79,0,0,0,13,.95,27.65,27.65,0,0,1,6,.06,21,21,0,0,1,4.69.54c3.09.71,6.36,2.08,9.58,1.83l.37,0a.05.05,0,0,1,0,0,9.45,9.45,0,0,0,.42-6.27A11.89,11.89,0,0,1,264.44,262.46Zm-39.19,1.7c-19-.73-43.83-7.89-33.82-23.92,9.24-14.8,22-20.22,35.53-21.46s7.74,6.16,21.94,22.62S244.26,264.88,225.25,264.16Z"/><path class="cls-24" d="M275.49,284.26c-.12-1.18-1.79-8.26-3.49-9.24a6.49,6.49,0,0,1,.54,1.4c1,3.79-1.22,9-2.87,12.17-2.72,5.26-6.84,9.66-10.94,13.9a.22.22,0,0,1-.11.05,36.15,36.15,0,0,1-7.44,5.88c-4.34,2.54-11.82,3.58-16.83,3.8-12.07.55-24-1.71-35.37-5.59-6.13-2.08-12.31-5.16-16.2-9.91.59,3.61,1.8,7.3,4.27,10,3.79,4.13,9.62,6,14.87,7.42A145.92,145.92,0,0,0,227.79,319c8.55.75,17.41.79,25.79-1.31a61.56,61.56,0,0,0,15-5.81c.83-1.06,1.61-2.16,2.37-3.28C269.63,300.58,276.31,292.72,275.49,284.26Zm-11.12,25.29c-6.8,5.79-20.87,10.61-44.78,7.52s-31.87-12.67-24.13-10.21c11.35,3.61,32.61,8.9,48.2,5.93S264.44,300.21,268,294C270.62,289.3,271.18,303.76,264.37,309.55Z"/><path class="cls-25" d="M270.84,277.73a4.72,4.72,0,0,0-.41-1.53c-1,1.88-1.93,3.77-3,5.62-1.76,3.15-4.11,6.19-7.9,6.68-.22,0-.36-.18-.37-.37-.37-5.55,3.3-9.5,5.34-14.28l-2-.08a37.58,37.58,0,0,1-4-.4c-.83-.17-1.66-.37-2.47-.62a11.44,11.44,0,0,1-1.71-.71.52.52,0,0,0-.33,0l-.35-.15c-.38-.18-1.05.43-.59.7a3,3,0,0,1,1,.95,6.83,6.83,0,0,1,.48,1.26c.37,2-.43,4.54-.89,6.43a.09.09,0,0,1,0-.05,34.94,34.94,0,0,0-.11-4.58c-.56-4.5-4-5.22-7.86-5.13a58.31,58.31,0,0,1-10.15-.19,187.92,187.92,0,0,1-23.6-4.9c-7.3-2.09-14.65-4.42-21.39-8-2.88-1.51-6.74-2.83-6.84-5.94a68.32,68.32,0,0,0-2.46,9.66h0c-.3,2.48-.46,4.94-.63,7.15-.4,5.13-1,10.66-.54,15.8.21,2.64-.11,5.88,1.73,8.08,1.69,2,3,4.37,5.06,6.05,4.68,3.75,10.19,5.5,15.79,7.39,9.73,3.28,21.37,5.42,31.68,4.49,5.29-.48,12.89-1.2,17.4-4.33A69.36,69.36,0,0,0,262,297.58C266.57,291.71,271.61,284.65,270.84,277.73Zm-62.26,28.84c-23.18-4.21-29.2-16.41-27.38-30.42,1.91-14.58,14-12.61,31.15-8.41s33.36,6.1,33.53,19.92S231.76,310.79,208.58,306.57Z"/><path class="cls-25" d="M270.84,277.73a4.72,4.72,0,0,0-.41-1.53c-1,1.88-1.93,3.77-3,5.62-1.76,3.15-4.11,6.19-7.9,6.68-.22,0-.36-.18-.37-.37-.37-5.55,3.3-9.5,5.34-14.28l-2-.08a37.58,37.58,0,0,1-4-.4c-.83-.17-1.66-.37-2.47-.62a11.44,11.44,0,0,1-1.71-.71.52.52,0,0,0-.33,0l-.35-.15c-.38-.18-1.05.43-.59.7a3,3,0,0,1,1,.95,6.83,6.83,0,0,1,.48,1.26c.37,2-.43,4.54-.89,6.43a.09.09,0,0,1,0-.05,34.94,34.94,0,0,0-.11-4.58,5,5,0,0,0-3.5-4.62c2.58,3.09,3.5,11.7,3,17.95-.72,9.51-.8,19-18.74,21.17,5.29-.48,12.89-1.2,17.4-4.33A69.36,69.36,0,0,0,262,297.58C266.57,291.71,271.61,284.65,270.84,277.73Z"/><g class="cls-26"><path class="cls-15" d="M180.91,279.79s0-.72.05-2c0-.63.16-1.39.28-2.28a15.53,15.53,0,0,1,.87-2.87l.33-.8c.12-.26.29-.51.44-.77a7.75,7.75,0,0,1,1.1-1.54,8.42,8.42,0,0,1,1.44-1.42,8.08,8.08,0,0,1,1.74-1.18,15.28,15.28,0,0,1,4.05-1.57l2.18-.41c.73-.09,1.46-.13,2.19-.19.37,0,.74-.06,1.11-.06l1.09,0,2.16.06c1.43.13,2.82.3,4.16.48s2.62.48,3.83.72,2.33.58,3.37.85,2,.54,2.82.82l2.15.72c1.18.41,1.85.67,1.85.67s-.71-.09-2-.28l-2.22-.36c-.86-.16-1.83-.29-2.88-.45l-3.4-.5c-1.21-.13-2.48-.27-3.79-.45l-4-.29-2.07,0h-1c-.35,0-.69,0-1,.07-.68,0-1.37.07-2.05.14l-2,.34a15.93,15.93,0,0,0-3.66,1.24,8.35,8.35,0,0,0-1.56.93,6.93,6.93,0,0,0-1.34,1.12,7.13,7.13,0,0,0-1.08,1.27c-.16.22-.34.42-.48.64l-.38.69a18.85,18.85,0,0,0-1.16,2.58c-.23.81-.47,1.52-.63,2.13C181.08,279.09,180.91,279.79,180.91,279.79Z"/></g><g class="cls-27"><path class="cls-16" d="M192.43,254.37a7.52,7.52,0,0,1-1.77-2.56,11.66,11.66,0,0,1-.88-3.51,14.69,14.69,0,0,1,.33-4.71,23,23,0,0,1,5.68-10.27,35,35,0,0,1,4.92-4.46,48.32,48.32,0,0,1,5.72-3.72,72.2,72.2,0,0,1,12.26-5.26,38.34,38.34,0,0,1,6-1.4,19.87,19.87,0,0,1,5.59-.09,10.83,10.83,0,0,1,4.47,1.58,8.69,8.69,0,0,1,2.58,2.55,9.58,9.58,0,0,1,1,2.07l.26.76-.35-.72a10.94,10.94,0,0,0-1.23-1.89,8,8,0,0,0-2.63-2.16,10.63,10.63,0,0,0-4.24-1.1,20.44,20.44,0,0,0-5.23.42,40.92,40.92,0,0,0-5.72,1.61c-1.95.69-3.94,1.51-5.92,2.42s-4,1.87-5.91,2.95a55.8,55.8,0,0,0-5.52,3.54,39.24,39.24,0,0,0-4.78,4.12,28.35,28.35,0,0,0-3.64,4.6,20,20,0,0,0-2.2,4.75,15.77,15.77,0,0,0-.71,4.38,11,11,0,0,0,.49,3.4,8.94,8.94,0,0,0,.92,2C192.25,254.15,192.43,254.37,192.43,254.37Z"/></g><g class="cls-27"><path class="cls-16" d="M41.23,147.32l.35,2.29c.23,1.45.56,3.53,1,6,.21,1.23.44,2.57.69,4s.55,2.9.82,4.45.62,3.12.94,4.73.67,3.25,1.07,4.87.72,3.26,1.16,4.84.77,3.16,1.23,4.66.8,3,1.24,4.34.79,2.68,1.21,3.86.77,2.27,1.09,3.25.66,1.79.92,2.48l.77,2.18-1.14-2c-.35-.64-.8-1.42-1.26-2.34s-.93-2-1.45-3.14-1-2.44-1.55-3.79-1-2.8-1.52-4.31-1-3.07-1.41-4.68-.83-3.25-1.23-4.89-.68-3.31-1-4.94-.55-3.25-.78-4.81c-.44-3.14-.76-6.07-.92-8.6A73.89,73.89,0,0,1,41.23,147.32Z"/></g><g class="cls-27"><path class="cls-16" d="M246.25,196.4s.71.54,1.85,1.61c.59.52,1.27,1.19,2,2s1.66,1.64,2.51,2.67,1.83,2.11,2.82,3.29,1.95,2.49,3,3.82c.5.68,1,1.36,1.53,2.05s1.05,1.39,1.52,2.13c1,1.47,2,3,2.93,4.45s2,3,2.81,4.54,1.72,3,2.55,4.49,1.61,2.87,2.32,4.23,1.3,2.68,1.87,3.9c2.3,4.83,3.66,8.13,3.66,8.13s-2-3-4.67-7.59c-.68-1.14-1.42-2.39-2.17-3.71s-1.65-2.66-2.54-4.08-1.78-2.86-2.67-4.37-1.86-3-2.84-4.46L259.86,215c-.93-1.47-1.95-2.85-2.87-4.23s-1.81-2.73-2.72-3.94-1.75-2.39-2.52-3.47-1.55-2-2.2-2.89-1.23-1.62-1.73-2.21-.87-1.09-1.15-1.4Z"/></g><g class="cls-27"><path class="cls-16" d="M113.38,172.44l.33-.19a9.06,9.06,0,0,1,1-.5c.42-.22.94-.42,1.55-.67s1.31-.48,2.09-.66l1.23-.32c.42-.09.87-.15,1.33-.23a26,26,0,0,1,2.91-.31h1.56a9.48,9.48,0,0,1,1.59.09l1.61.2c.54.08,1.07.23,1.61.35a14.21,14.21,0,0,1,1.58.44l1.53.57.75.29c.24.11.47.25.7.38l1.37.75a6.35,6.35,0,0,1,1.26.82c.4.29.78.58,1.15.87a12.8,12.8,0,0,1,1.93,1.77,12.49,12.49,0,0,1,1.47,1.63c.39.53.71,1,1,1.38.53.77.81,1.21.81,1.21s-.42-.34-1.11-.95l-1.23-1.11-.36-.33-.42-.3-.9-.67a18.67,18.67,0,0,0-2-1.42l-1.16-.69-.59-.36a6.31,6.31,0,0,0-.64-.31,24,24,0,0,0-2.68-1.16l-1.41-.5a14.36,14.36,0,0,0-1.47-.37c-.49-.11-1-.27-1.47-.35l-1.49-.22c-1-.16-2-.18-2.92-.26s-1.89-.06-2.77,0l-1.29.07-1.2.12c-.78.07-1.48.2-2.11.28s-1.18.19-1.63.3C113.9,172.3,113.38,172.44,113.38,172.44Z"/></g><g class="cls-27"><path class="cls-16" d="M163.77,176.34a12.29,12.29,0,0,1,.61-1.33c.21-.41.49-.91.84-1.46a19.59,19.59,0,0,1,1.27-1.79,22.22,22.22,0,0,1,1.7-2,25.79,25.79,0,0,1,2.15-2,22,22,0,0,1,2.54-1.84,25,25,0,0,1,2.83-1.57,12.15,12.15,0,0,1,1.49-.64l1.51-.57c1-.36,2-.54,3-.81s2-.28,2.88-.41a19.48,19.48,0,0,1,2.6-.09,13.6,13.6,0,0,1,2.18.09c.65.07,1.21.15,1.67.22.92.13,1.44.23,1.44.23l-1.45.17-1.65.14c-.63,0-1.34.19-2.11.3l-1.19.18-.63.09-.64.15c-.86.22-1.77.4-2.69.65s-1.86.58-2.8.91-1.89.7-2.78,1.19a24.39,24.39,0,0,0-2.68,1.42c-.42.27-.87.49-1.28.76l-1.2.82c-.79.54-1.51,1.13-2.21,1.67s-1.32,1.1-1.87,1.65c-1.14,1.05-2,2-2.63,2.7S163.77,176.34,163.77,176.34Z"/></g><g class="cls-27"><path class="cls-16" d="M199,411.48s.28,1.28.78,3.53c.25,1.11.57,2.47.92,4s.78,3.31,1.27,5.21,1,4,1.6,6.12l.92,3.33c.35,1.12.7,2.27,1.06,3.44l.54,1.76c.21.58.42,1.17.64,1.76l1.29,3.6,1.33,3.66c.45,1.22.78,2.55,1.17,3.82s.63,2.59.92,3.89.46,2.61.66,3.9a72.62,72.62,0,0,1,.57,7.64c.08,2.47.08,4.85.1,7.1s0,4.38.05,6.35a30.75,30.75,0,0,0,.38,5.26,6.62,6.62,0,0,0,1.82,3.47,21,21,0,0,0,2,1.78l.73.59-.8-.5a16.64,16.64,0,0,1-2.16-1.59,6.94,6.94,0,0,1-2.27-3.57,25.89,25.89,0,0,1-.81-5.39c-.3-3.93-.5-8.53-.76-13.42-.14-2.44-.36-4.94-.72-7.45a57.48,57.48,0,0,0-1.59-7.52c-.38-1.23-.66-2.47-1.1-3.7s-.87-2.46-1.3-3.68-.82-2.44-1.23-3.64l-.6-1.81c-.17-.61-.34-1.21-.5-1.81q-.49-1.78-1-3.51c-.27-1.16-.53-2.29-.78-3.4-.53-2.2-.91-4.3-1.27-6.24s-.63-3.73-.89-5.31-.41-3-.57-4.11C199.09,412.79,199,411.48,199,411.48Z"/></g><g class="cls-27"><path class="cls-16" d="M123.35,418.26s.42,1,1.06,2.91,1.49,4.55,2.37,7.81c.42,1.64.88,3.42,1.32,5.31s.83,3.89,1.23,6,.71,4.25,1,6.45.5,4.45.75,6.7.23,4.5.35,6.72.18,4.39.27,6.49,0,4.17,0,6.1-.08,3.78-.14,5.47-.2,3.23-.3,4.6-.21,2.56-.28,3.54-.21,1.75-.26,2.27-.1.81-.1.81,0-1.13,0-3.1c0-1-.05-2.17-.08-3.54s0-2.91-.09-4.59-.16-3.5-.21-5.42c0-1-.07-1.95-.1-2.95s0-2-.13-3.09c-.14-2.1-.32-4.27-.43-6.48s-.24-4.48-.43-6.66-.44-4.44-.66-6.63-.58-4.32-.86-6.4-.65-4.07-1-6-.67-3.69-1-5.34-.63-3.16-.89-4.5-.54-2.51-.74-3.47Z"/></g><path class="cls-13" d="M202.55,116.51c-.81-9.94-2.05-19.72-2.16-29.71-.09-7.73.14-16-1.21-23.72-1.41-2.17-2.49-4.57-4.25-6.52-1.31-1.45-2.78-2.85-4-4.4.08.41.15.83.22,1.24.2,1.33.89,3.7-.38,4.72-1.45,1.16-2.74-2.2-3.3-2.95a60.21,60.21,0,0,0-7.74-8.45c.61,1.65,1.1,3.36,1.63,5.09.27.86.89,2.13.26,2.93a.43.43,0,0,1-.47.16c-2.43-.77-4.34-3.88-6.14-5.57A67.93,67.93,0,0,0,168.1,44a59.45,59.45,0,0,1,1.33,5.86c0,.48-.58,1.13-1.08.88-2.33-1.14-4.34-3.5-5.84-5.6-.6-.84-1.34-2.86-2.29-3.79a48.18,48.18,0,0,0-8.54,2.26c-2.59,1.11-5.18,3.61-7.9,4a.61.61,0,0,1-.63-.92,22.13,22.13,0,0,1,2.54-3.57A64.93,64.93,0,0,0,137,46.86c-2.68,1.48-5.06,3.43-7.77,4.82a.63.63,0,0,1-.92-.72,18,18,0,0,1,3.66-5.64c-1.84.38-3.69.8-5.54,1.11-3.06,1.32-6.08,2.72-9.12,4.08-2.13,1-4.1,2.72-6.34,3.27a.68.68,0,0,1-.84-.66,8.23,8.23,0,0,1,.72-3.33,48.47,48.47,0,0,0-8.14,7.36,27.22,27.22,0,0,0-3.85,6.31c-.48,1.08-.33,1.43-.95,2.22-.31.37-.9.33-1-.2a23.4,23.4,0,0,1,1.27-10.11c-.51.91-1,1.83-1.47,2.76-4.49,9-4.67,17.3-4.39,27.14.24,8.69-.45,17.39-.35,26.07a.5.5,0,0,1,0,.21c0,1,0,2.06.07,3.09.4,10.14,1,22.22,9.41,29.39,7.56,6.45,17.72,10.13,27.17,12.88,9.87,2.88,20.17,6.47,30.5,3.62,13.45-3.72,24.61-12.64,35.28-21.72C200.35,132.73,203.31,125.84,202.55,116.51ZM180.72,145.6c-16.87,11-29.54,16.73-55.93,6s-28.73-18-26.59-34-3.44-19.1-2.12-27c2.31-13.75,7-27.42,13.41-30.33s-2.62,3.86,3.52,1.29,17.67-7.23,13.78-3.67c-4.61,4.22,9-1.12,14.45-4.52s-3.44,4.88,6.18.93,9.59-6.59,13.64-2,9.4,4.7,8,2.39-.14-1.34,7,2.08,8.53,3.72,7.49,1.24,7.53,1.9,9.73,18.21.09,20.44,2.57,32.86S197.58,134.63,180.72,145.6Z"/><g class="cls-26"><path class="cls-28" d="M143.31,86.28s-.36.83-.9,2.3-1.27,3.58-2,6.15c-.18.64-.36,1.31-.55,2s-.34,1.42-.52,2.16c-.32,1.49-.64,3.06-.9,4.7-.16.82-.27,1.65-.36,2.5s-.21,1.7-.26,2.57-.16,1.73-.18,2.61,0,1.76,0,2.64c0,1.75.06,3.52.28,5.24,0,.43.09.86.13,1.28v.28s0-.16,0-.07v0l.08.32c0,.14,0,.1.06.14a.18.18,0,0,0,.06.1,2.14,2.14,0,0,0,1.6.65,16.21,16.21,0,0,0,4.53-.51c1.46-.34,2.84-.76,4.11-1.17,2.53-.85,4.6-1.69,6-2.32s2.22-1.07,2.22-1.07a19.81,19.81,0,0,1-2,1.42,43.4,43.4,0,0,1-5.81,3,34.58,34.58,0,0,1-4.14,1.55,16,16,0,0,1-5,.82,5.6,5.6,0,0,1-1.5-.27,3,3,0,0,1-1.47-1,2.93,2.93,0,0,1-.47-.91l-.08-.31v0l0-.12v-.12l0-.17-.15-1.33a54.6,54.6,0,0,1-.36-5.45l.09-2.73c0-.91.15-1.81.22-2.71a25.76,25.76,0,0,1,.35-2.64c.12-.87.27-1.73.46-2.56.31-1.67.76-3.26,1.19-4.76l.69-2.17c.25-.68.5-1.35.73-2a50.83,50.83,0,0,1,2.74-6C142.81,87,143.31,86.28,143.31,86.28Z"/></g><g class="cls-26"><path class="cls-28" d="M98.65,112.34s0,1.16-.16,3.18c-.06,1-.13,2.23-.15,3.63,0,.7,0,1.45,0,2.23,0,.39,0,.78.05,1.19s.07.83.11,1.25c0,.85.24,1.72.38,2.62.09.44.21.89.32,1.35a10,10,0,0,0,.38,1.37,23.2,23.2,0,0,0,2.56,5.42l.94,1.26.47.64.55.58,1.1,1.18c.39.37.82.72,1.23,1.08a21.78,21.78,0,0,0,2.64,2c.88.66,1.91,1.2,2.89,1.82l2.94,1.82,3,1.68c1.94,1.14,3.94,2.11,5.84,3.1,1,.5,1.94.86,2.87,1.31s1.85.87,2.78,1.18c1.85.67,3.58,1.36,5.24,1.8l2.36.71,2.17.51,1.92.46c.59.13,1.14.2,1.64.29,2,.36,3.13.59,3.13.59s-1.16-.06-3.18-.2c-.51,0-1.07-.07-1.68-.13l-2-.27-2.24-.31c-.79-.15-1.6-.35-2.46-.54s-1.75-.34-2.65-.64l-2.79-.87c-1-.27-1.92-.69-2.91-1.06s-2-.76-3-1.23c-2-1-4.06-1.85-6-3l-3-1.68-3-1.79c-1-.63-2-1.17-3-1.9a23.61,23.61,0,0,1-2.8-2.18c-.44-.39-.89-.77-1.3-1.18l-1.16-1.31-.58-.65-.49-.71-1-1.4a22.55,22.55,0,0,1-2.5-6,11.23,11.23,0,0,1-.33-1.48c-.09-.49-.2-1-.25-1.44-.08-1-.22-1.87-.21-2.75a31.25,31.25,0,0,1,.2-4.79c.16-1.41.34-2.63.51-3.63s.31-1.78.4-2.32Z"/></g><path class="cls-29" d="M223.45,40.34c-1.26-3.37-3.52-7.66-6.85-9.72-.39-.32-.8-.64-1.24-.94a26.24,26.24,0,0,0-6.86-3.58c-1.42-.46-2.69-.33-4-1a.69.69,0,0,1,.12-1.24,17.52,17.52,0,0,1,6.9-1.56,18.5,18.5,0,0,0-8.18-2.35c-.84-.24-1.69-.47-2.56-.64-1.09-.22-2.19-.26-3.28-.38a.58.58,0,0,1,.15-.13,27,27,0,0,1,5.44-2,50.27,50.27,0,0,0-7.06-2l-.76-.23a13.25,13.25,0,0,0-3.79-.83A21.69,21.69,0,0,1,194,11.58c.22-.15.46-.72.31-1,.21-.37-.54-.43-3.38.1l-.58.11c-.42,0-.83.1-1.25.17-2.09.39-4,1.24-6.14,1.61.2-.51.39-1,.57-1.54a.54.54,0,0,0,0-.47c.25-.51,0-.68-1.61,0-.23.1-.44.22-.65.33l-.64.22c-.15-.75-.34-1.49-.56-2.22A28,28,0,0,0,179,4.15c-1-3-.42,3.07-.55,4.25a.7.7,0,0,1-1,.51c-3.35-2.38-8.48-6.75-13.08-7.47a14.36,14.36,0,0,1,2.85,4.8.75.75,0,0,1-.1.6c-1.31-.39-2.61-.82-3.91-1.25a31.87,31.87,0,0,0-13.38-2.66c.18.15.38.29.58.43a.54.54,0,0,0-.06.7c.69.77,1.55,2.18,2.54,3.38-1.22-.2-2.44-.4-3.65-.65-2.68-.56-5.21-1.46-8-1.65-.47,0-.78.64-.57,1A14.05,14.05,0,0,0,142,8c-1-.09-2.07-.15-3.1-.15a14.1,14.1,0,0,0-2.31-.37C134,7.25,131.19,7,128.48,7c.85.94,1.78,1.8,2.58,2.78a.61.61,0,0,1,.13.36,27.84,27.84,0,0,0-13.57,2.61.66.66,0,0,0-.17.12c-.72.25-1.45.51-2.2.79-2.73,1,.91.39,1.85.79a3,3,0,0,1,1.67,1.12,1,1,0,0,1,.09.18c-.92.47-1.84,1-2.77,1.43-.44.23-.89.44-1.34.66A33,33,0,0,0,107.58,20a54.81,54.81,0,0,0-12.17,7.52c1.65-.06,3.28-.11,4.93,0a.42.42,0,0,1,.16,0c-1.66.92-3.2,2.2-4.77,3.19-.52.32-1,.69-1.5,1-4.81,2.79-9.29,6.67-11.11,11.8.53-.38,1.09-.73,1.66-1.07-1.16,1.22-2.27,2.52-3.4,3.8a.66.66,0,0,0-.15.27q-1.49,1.6-2.83,3.33c-.28.36-.65.75-1,1.15,2.26-1.51,4.55-3,7.29-3.32h.17c.52-.45,1-.88,1.6-1.3a32.93,32.93,0,0,0-2.71,3.92c-2.91,3.48-5.14,7.56-5.22,12a17.07,17.07,0,0,1,3.72-3.13c.49-.24.84.26.65.69a20.91,20.91,0,0,0-1.74,10.92c.07.64-.44,5.23.56,2.62a7,7,0,0,1,.64-.9c.27-.36.92-.33.94.2.26,7.14,3.39,13.12,6.1,19.51-.09-2.79-.2-5.58-.29-8.37a51.41,51.41,0,0,1,2.25-18.17.5.5,0,0,1-.12-.34,33.1,33.1,0,0,1,4.45-18,20.52,20.52,0,0,0-1,3.5,35.45,35.45,0,0,0-2.21,11.89,41.35,41.35,0,0,1,2.66-5.21,92.07,92.07,0,0,1,6-8.71,22.94,22.94,0,0,0-1.69,4.79,26.17,26.17,0,0,0-1.58,9.76,13.21,13.21,0,0,1,.94-2.55,31.09,31.09,0,0,1,3.88-5.32,57.13,57.13,0,0,1,9.38-8,16.43,16.43,0,0,1,2-2.4,48.8,48.8,0,0,0-2.51,5.75c-.16.4,0,.65.31.68a1.54,1.54,0,0,0,0,.17c1.06-.56,2.11-1.48,3.14-1.92,1.28-.54,2.57-1.06,3.86-1.56s2.39-.94,3.61-1.4a18.88,18.88,0,0,1-3.74-.22c-.63-.1-.46-.84,0-1.09,2.83-1.6,5.77-2.94,8.72-4.28-1.2.72-2.4,1.43-3.59,2.17a.79.79,0,0,0-.29.37c-1.55.62-5.17,2-2.29,1.78a62.53,62.53,0,0,0,8.13-1.26c1.53-.1,3-.25,4.56-.44a44.79,44.79,0,0,1-3.06,4.56c-.33.41,0,1.12.55.78a53.82,53.82,0,0,1,8.69-5c2.21-.89,4.51-1.5,6.79-2.19-.74,1-1.45,2.1-2.1,3.21-.32.57.1,1.14.68.69a24.1,24.1,0,0,1,16.44-5.05c-.33.09-.67.19-1,.27a9.47,9.47,0,0,1,1.14,1.3c1.65,2.06,3.48,4.6,5.79,6.1a48.6,48.6,0,0,1-1-5.77.68.68,0,0,1,.05-.23,44.49,44.49,0,0,1,5.59,3.15h0A28.26,28.26,0,0,1,178.61,51c.2.25,3,3.9,2.16,1.69-.31-.76-.57-1.51-.87-2.27-.14-.38-.3-.75-.45-1.13a47.5,47.5,0,0,1-1.66-6.75,23.51,23.51,0,0,1,1.58,3.28,27.1,27.1,0,0,1,6.76,5.29c1.1,1.64,2.14,3.32,3.24,5a.36.36,0,0,0,.55.1c.12.16.14.1.12-.07a1,1,0,0,0,.32-.62l-.06-4.8a17.07,17.07,0,0,0,1.88,1.93,39.29,39.29,0,0,1,5.38,5.71c.42.57,1.05-.27,1-.73-.93-5.42-3.29-10.25-5.73-15.06.6.94,1.19,1.88,1.78,2.83a68.54,68.54,0,0,1,5.76,11.32c.07.28.16.55.23.83,2.26,8.88,2.47,17.95,2.53,27,1.93-2.22,5.26-2.43,7.71,1.21a14.27,14.27,0,0,1,.9,1.51c-.51-1.6,1.33-6.28,1.53-7.48a13.29,13.29,0,0,0,.18-1.87c.45-1.85.8-3.73,1.09-5.62a.64.64,0,0,1,.38.26,12,12,0,0,1,1.62,3.24,23,23,0,0,0,.21-9.4c0-.68,0-1.37,0-2.05a45.6,45.6,0,0,0-.51-4.81.47.47,0,0,1,.38.15,16.27,16.27,0,0,1,2.88,4.5,22.28,22.28,0,0,0-.49-8.94,24.46,24.46,0,0,0-1.55-6.56h.09c2.36.68,3.51,2.39,4.93,4a20.58,20.58,0,0,0-3.06-9.49c-.12-.18-.25-.33-.37-.49-.42-1.08-.82-2.16-1.28-3.22-.16-.37-.36-.93-.61-1.49l.23,0a17.74,17.74,0,0,1,5.17,3.07c.24.22.54,0,.73-.22l.08.05,0-.09A.67.67,0,0,0,223.45,40.34Zm-15.91-5.21c-6.87,0,6.33,2.92,10.94,10.24,1.21,1.92-2.24.78-5.19.06s1.86,2.15,3.37,9.21-1.86,1.21-4.58-1-2.34-2.28-3.07,4.48-4.17-3-7.21-9.29-2.11-2-1.26,1.39-5-7.12-8.25-10.39-1,.47,1.25,5.36c1.67,3.6,2.49,4.47-2.93.53S188.71,44,189.53,49s-5.76-5.46-9.73-8c-6.49-4.09-4-2.06-2.84,2.86s-5.38-.74-9.23-3.51-2.76-.59-2.11,1.46-.66,2-2.77-2.09-9.74.51-12.1,2.34-2.08-1.1,1.51-3.83-5.8.7-12.88,4.72-5.47,2.13-1.38-1.11-3-.08-6.37.77-6.23,2.14.6-2.32-3.52-1.33-10.91,2.88-7.57,4.22-4.49.31,1.87-5-3.32-.08-11.8,11.14-13.45,13.73,1.16-6.77,3.48-11.05-5.28,2.57-7.4,7.53-1.82-.54.53-7.26-5.21,2.76-6.43,10.46-3.8,1-1.25-5.24-2.22.86-5.63,5.07,2.2-8.84,7.46-13.59-.19-.43-3.18.73-.88-5.68,10.61-11.51,8.69-6.87,3.3-6.17,3.33-3.66,16.48-6.89c7.68-1.88,7.64-3.45,3.76-4.11-2.76-.46,2-4,11-2.76,3.19.46,1.61-.95.41-2.19s1.87-2.18,10.44.56c2.07.66.49-.83,0-1.88s2.59-1,10.21,1.63c1.38.48,1.55-.77.91-2s1.48-2.17,11.33,1.79c1.51.61,3.25.88,2.46-.28-1.36-2,2.46-1.18,7.7,2.62,1.64,1.19,2.25.14,2.19-1.32s1.36-1.06,1.23,1.73,1.09.78,1.63,0,.68,1.2,0,2,2-.07,5.32-1.11,3.33-.42,1,.74,3.77,1.33,7.94,1.57,1.43,1.48-3.22,2.87,6.31,1.25,10.86,1.95,1.28,2.15-4.3,3S211,27.43,216.72,34.2C218.88,36.74,214.42,35.17,207.54,35.13Z"/><path class="cls-20" d="M196.49,236.92c9.6-11.07,23-17.86,29.87-14.45s6.49,13.15,12.55,25.34c5,10-19.32,12.82-32.85,6.67S193.58,240.29,196.49,236.92Z"/><path class="cls-30" d="M73.15,505.39c6.5-5.49,13.28-4.91,18.14-2.27s15.19,1.79,20.17-.37,1.89,11.64-16.85,12.87S68.77,509.08,73.15,505.39Z"/><path class="cls-30" d="M220.58,518.67c-7.07,5-14.08,16.08,2.36,19s29.09-2.73,29.39-8.86-8.52,3.85-20.39,2-10-9.07-8.12-12.65S223.25,516.77,220.58,518.67Z"/><path class="cls-13" d="M58.66,86.88c1.48.86.6,4.9-1.53,10.5-2.7,7.08-.26,10.43.21,18.71s-7.14,15.09-10.82,16.09-4.33,2.06-15-3.31-8.74-10.44-9.86-9.88-1.45.6-3.39-1.38S7,105.75,4.23,103.75a6.46,6.46,0,0,1-2.35-2.37A2,2,0,0,0,3,104.21c.18.15.37.29.56.43l1.1,1a47.83,47.83,0,0,0,7.7,8.24c3.71,4,7.41,8.1,11,12.21,4.61,5.22,10.81,6.75,17.2,8.39a7,7,0,0,0,2.12.82.13.13,0,0,1-.1.06c-.44,0-.91.07-1.37.08.27.71.56,1.42.88,2.09.93,2.8,2.81,4.56,6,3.57a9.27,9.27,0,0,0,4.55-3.27,7.58,7.58,0,0,0,.86-1.1c1.72-2.63.59-4,.27-6.34a15.89,15.89,0,0,1-1.72,1.45,11.1,11.1,0,0,0,1.25-2.14,27.22,27.22,0,0,0,4.57-11.13c.69-3.87-.34-7.22-.53-11-.34-6.69,2.13-12.34,3.78-18.67C61.69,86.81,60.21,85.7,58.66,86.88Z"/><path class="cls-13" d="M30.28,112.07a25.44,25.44,0,0,1-2.81,1.39c-2.23,1-5.1-.23-8.59-4.19A47.9,47.9,0,0,0,6.88,99c-2.26-1.35-3.72-2.45-4.33-3.37-.71,1.08.9,3.08,1.93,4.19,2.56.75,5.13,3.27,6.49,4.68a79.33,79.33,0,0,0,6.74,6.86c2.41,2,5.14,2.86,7.89,4.18l0,0a19.38,19.38,0,0,1,5.72-3.21C31,112.27,30.64,112.17,30.28,112.07Z"/><path class="cls-13" d="M15.24,98.15C11,95.4,8.36,93.07,7.77,91.53a3.08,3.08,0,0,0-.31.81,3,3,0,0,0,1,2.65,2.46,2.46,0,0,0,.54.87c8.09,4.37,13.89,12.75,22.48,16.29a.09.09,0,0,1,0,.14,27.92,27.92,0,0,1,6-1.41,37.12,37.12,0,0,1-8-1.61C25.74,108,19.32,100.77,15.24,98.15Z"/><path class="cls-13" d="M38.49,108.05C36.14,107,25.24,97.79,20.14,94.7c-3.1-1.87-4.77-3-5.18-3.59-.66-.15-1.09-.11-1.19.21a.37.37,0,0,1-.1.16,85.73,85.73,0,0,1,11.77,8.81,84.4,84.4,0,0,0,10.4,7.85q.44.44.87.84C39.09,110.06,40.58,109,38.49,108.05Z"/><path class="cls-31" d="M24.92,117.26c2.91-2.56,6.8-3.84,13.52-5.85s5.43,1.24,0,3.44S21.54,120.23,24.92,117.26Z"/><path class="cls-31" d="M27.14,120c4.61-1.15,13.74-.89,18.89,6.11,2.41,3.28-3.8,3.78-9.85,1.93C29.32,126,22.57,121.15,27.14,120Z"/><path class="cls-31" d="M52.79,101.69c-.36-4.4.88-9.81,3.89-12.3s.87,3.36-.61,8S53.08,105.27,52.79,101.69Z"/><path class="cls-31" d="M45.13,119c2.07,4.22,2.69,6.6,3.72,7.46s7.35-1.53,6.62-9.77-5.07-5.89-5-3.35-1,1.55-2.84-.49S42.05,112.74,45.13,119Z"/></g></g></svg>