<svg id="Layer_1" data-name="Layer 1" xmlns="http://www.w3.org/2000/svg" viewBox="0 0 152.71 201.02"><defs><style>.cls-1{fill:#ffe7bd;}.cls-2{fill:#805d6c;}.cls-3{fill:#feefe1;}.cls-4{fill:#f7b9a8;}</style></defs><title>landmark</title><rect class="cls-1" x="45.66" y="99.47" width="46.99" height="100.41"/><path class="cls-2" d="M92.65,200.83h-47a1,1,0,0,1-.95-1V99.47a1,1,0,0,1,.95-1h47a.94.94,0,0,1,.94,1V199.88A.94.94,0,0,1,92.65,200.83Zm-46-1.89H91.7V100.41H46.61Z"/><rect class="cls-3" x="45.66" y="91.13" width="46.99" height="8.34"/><path class="cls-2" d="M92.65,100.41h-47a1,1,0,0,1-.95-.94V91.13a1,1,0,0,1,.95-.95h47a1,1,0,0,1,.94.95v8.34A.94.94,0,0,1,92.65,100.41Zm-46-1.89H91.7V92.08H46.61Z"/><polygon class="cls-1" points="68.96 68.02 50.4 91.13 87.91 91.13 68.96 68.02"/><path class="cls-2" d="M87.91,92.08H50.4a.94.94,0,0,1-.74-1.54L68.23,67.42a.92.92,0,0,1,.73-.35h0a1,1,0,0,1,.74.35L88.64,90.53a.94.94,0,0,1-.73,1.55Zm-35.54-1.9H85.91L69,69.52Z"/><path class="cls-4" d="M87.72,166.54H50.21V135.09a36.29,36.29,0,0,1,17-30.75L69,103.26l1.74,1.08a36.29,36.29,0,0,1,17,30.75v31.45Z"/><path class="cls-2" d="M87.72,167.48H50.21a.94.94,0,0,1-1-.94V135.09a37,37,0,0,1,17.46-31.55l1.74-1.09a1,1,0,0,1,1,0l1.73,1.09a37,37,0,0,1,17.47,31.55v31.45A1,1,0,0,1,87.72,167.48Zm-36.57-1.89H86.77v-30.5A35.12,35.12,0,0,0,70.2,105.15L69,104.37l-1.23.78a35.13,35.13,0,0,0-16.58,29.94Z"/><rect class="cls-3" x="45.66" y="166.54" width="46.99" height="9.47"/><path class="cls-2" d="M92.65,177h-47a1,1,0,0,1-.95-1v-9.47a1,1,0,0,1,.95-.95h47a.94.94,0,0,1,.94.95V176A1,1,0,0,1,92.65,177Zm-46-1.9H91.7v-7.58H46.61Z"/><path class="cls-4" d="M68.77,184.73h0a7.19,7.19,0,0,0-7.19,7.2v7.95H76v-7.95A7.2,7.2,0,0,0,68.77,184.73Z"/><path class="cls-2" d="M76,200.83H61.58a.94.94,0,0,1-.95-1v-7.95a8.15,8.15,0,1,1,16.29,0v7.95A.94.94,0,0,1,76,200.83Zm-13.45-1.89H75v-7a6.26,6.26,0,0,0-12.51,0v7Z"/><path class="cls-2" d="M56.46,167.44a1,1,0,0,1-1-.95V115a1,1,0,0,1,1.9,0v51.49A1,1,0,0,1,56.46,167.44Z"/><path class="cls-2" d="M64.8,167.44a1,1,0,0,1-.95-.95v-60.2a.95.95,0,1,1,1.89,0v60.2A1,1,0,0,1,64.8,167.44Z"/><path class="cls-2" d="M73.13,167.44a1,1,0,0,1-.94-.95v-60.2a.95.95,0,1,1,1.89,0v60.2A1,1,0,0,1,73.13,167.44Z"/><path class="cls-2" d="M81.47,167.44a1,1,0,0,1-1-.95V115a1,1,0,0,1,1.9,0v51.49A1,1,0,0,1,81.47,167.44Z"/><rect class="cls-1" x="4.17" y="94.73" width="41.68" height="104.96"/><path class="cls-2" d="M45.85,200.64H4.17a1,1,0,0,1-.95-.95v-105a1,1,0,0,1,.95-1H45.85a1,1,0,0,1,.95,1v105A1,1,0,0,1,45.85,200.64ZM5.12,198.75H44.9V95.68H5.12Z"/><rect class="cls-3" x="4.17" y="94.73" width="8.15" height="104.96"/><path class="cls-2" d="M12.32,200.64H4.17a1,1,0,0,1-.95-.95v-105a1,1,0,0,1,.95-1h8.15a1,1,0,0,1,.94,1v105A.94.94,0,0,1,12.32,200.64Zm-7.2-1.89h6.25V95.68H5.12Z"/><rect class="cls-3" x="37.51" y="94.73" width="8.15" height="104.96"/><path class="cls-2" d="M45.66,200.64H37.51a.94.94,0,0,1-.94-.95v-105a1,1,0,0,1,.94-1h8.15a1,1,0,0,1,1,1v105A1,1,0,0,1,45.66,200.64Zm-7.2-1.89h6.25V95.68H38.46Z"/><rect class="cls-4" x="4.17" y="191.17" width="41.68" height="8.72"/><path class="cls-2" d="M45.85,200.83H4.17a1,1,0,0,1-.95-1v-8.71a1,1,0,0,1,.95-.95H45.85a1,1,0,0,1,.95.95v8.71A1,1,0,0,1,45.85,200.83ZM5.12,198.94H44.9v-6.83H5.12Z"/><rect class="cls-1" x="6.44" y="34.1" width="37.13" height="60.63"/><path class="cls-2" d="M43.58,95.68H6.44a1,1,0,0,1-1-1V34.1a1,1,0,0,1,1-.94H43.58a.94.94,0,0,1,.94.94V94.73A1,1,0,0,1,43.58,95.68ZM7.39,93.78H42.63V35.05H7.39Z"/><polygon class="cls-3" points="11.74 6.44 8.53 34.1 19.52 34.1 15.99 6.44 11.74 6.44"/><polygon class="cls-3" points="33.72 6.44 30.5 34.1 41.49 34.1 37.97 6.44 33.72 6.44"/><path class="cls-2" d="M19.51,35.05h-11a.93.93,0,0,1-.71-.32A1,1,0,0,1,7.58,34L10.8,6.33a.94.94,0,0,1,.94-.84H16a1,1,0,0,1,.94.83L20.45,34a.93.93,0,0,1-.22.75A1,1,0,0,1,19.51,35.05ZM9.59,33.16h8.85L15.16,7.39H12.58Z"/><path class="cls-2" d="M41.49,35.05h-11a.91.91,0,0,1-.7-.32,1,1,0,0,1-.24-.74L32.78,6.33a.94.94,0,0,1,.94-.84H38a1,1,0,0,1,.94.83L42.43,34a.93.93,0,0,1-.23.75A1,1,0,0,1,41.49,35.05Zm-9.92-1.89h8.85L37.13,7.39H34.56Z"/><path class="cls-4" d="M30.5,71.81h-11V49.07L21,46.3a4.54,4.54,0,0,1,8,0l1.49,2.77V71.81Z"/><circle class="cls-4" cx="25.01" cy="84.5" r="6.25"/><path class="cls-2" d="M30.5,72.75h-11a.94.94,0,0,1-.94-.94V49.07a1,1,0,0,1,.11-.45l1.49-2.77a5.49,5.49,0,0,1,9.68,0l1.49,2.77a1,1,0,0,1,.11.45V71.81A.94.94,0,0,1,30.5,72.75Zm-10-1.89h9.1V49.31l-1.38-2.57a3.6,3.6,0,0,0-6.34,0l-1.38,2.57V70.86Z"/><path class="cls-2" d="M25,91.7a7.2,7.2,0,1,1,7.2-7.2A7.21,7.21,0,0,1,25,91.7Zm0-12.5a5.3,5.3,0,1,0,5.3,5.3A5.3,5.3,0,0,0,25,79.2Z"/><path class="cls-4" d="M30.31,129.21H19.7V109.89A5.31,5.31,0,0,1,25,104.58h0a5.3,5.3,0,0,1,5.3,5.31v19.32Z"/><path class="cls-2" d="M30.31,130.16H19.7a.94.94,0,0,1-.94-.95V109.89a6.25,6.25,0,0,1,12.5,0v19.32A.94.94,0,0,1,30.31,130.16Zm-9.66-1.89h8.72V109.89a4.36,4.36,0,0,0-8.72,0v18.38Z"/><path class="cls-4" d="M30.31,178.85H19.7V163.79a13.2,13.2,0,0,1,3.56-9l1-1.08a1,1,0,0,1,1.48,0l1,1.08a13.24,13.24,0,0,1,3.55,9v15.06Z"/><path class="cls-2" d="M30.31,179.8H19.7a.94.94,0,0,1-.94-1V163.79a14.13,14.13,0,0,1,3.8-9.66l1-1.09a2,2,0,0,1,2.86,0l1,1.09a14.09,14.09,0,0,1,3.81,9.66v15.06A.94.94,0,0,1,30.31,179.8Zm-9.66-1.9h8.72V163.79a12.21,12.21,0,0,0-3.3-8.37l-1-1.09a.17.17,0,0,0-.1,0l-1,1.09a12.21,12.21,0,0,0-3.3,8.37Z"/><path class="cls-4" d="M30.31,147.59H19.7v-4.87a4.92,4.92,0,0,1,1.81-3.8l3.31-2.7,3.56,2.7a4.9,4.9,0,0,1,1.93,3.9v4.77Z"/><path class="cls-2" d="M30.31,148.54H19.7a1,1,0,0,1-.94-.95v-4.87a5.8,5.8,0,0,1,2.15-4.53l3.31-2.7a.93.93,0,0,1,1.17,0l3.56,2.7a5.87,5.87,0,0,1,2.31,4.65v4.77A1,1,0,0,1,30.31,148.54Zm-9.66-1.9h8.72v-3.82a4,4,0,0,0-1.57-3.14l-3-2.25-2.73,2.23a3.92,3.92,0,0,0-1.46,3.06Z"/><polygon class="cls-4" points="48.31 99.09 1.71 99.09 0.95 94.54 49.07 94.54 48.31 99.09"/><path class="cls-2" d="M48.31,100H1.71a1,1,0,0,1-.94-.8L0,94.7A1,1,0,0,1,1,93.59H49.07a1,1,0,0,1,.72.34,1,1,0,0,1,.22.77l-.76,4.54A1,1,0,0,1,48.31,100Zm-45.8-1.9h45L48,95.49H2.07Z"/><rect class="cls-3" x="6.63" y="34.1" width="5.68" height="60.44"/><path class="cls-2" d="M12.32,95.49H6.63a1,1,0,0,1-1-.95V34.1a1,1,0,0,1,1-.94h5.69a.94.94,0,0,1,.94.94V94.54A1,1,0,0,1,12.32,95.49Zm-4.74-1.9h3.79V35.05H7.58Z"/><rect class="cls-3" x="38.08" y="34.1" width="5.68" height="60.44"/><path class="cls-2" d="M43.77,95.49H38.08a1,1,0,0,1-.95-.95V34.1a1,1,0,0,1,.95-.94h5.69a.94.94,0,0,1,.94.94V94.54A1,1,0,0,1,43.77,95.49ZM39,93.59h3.79V35.05H39Z"/><path class="cls-2" d="M8.15,185.23a.94.94,0,0,1-1-.95v-8.59a.95.95,0,0,1,1.89,0v8.59A.94.94,0,0,1,8.15,185.23Z"/><path class="cls-2" d="M8.15,168.81a.94.94,0,0,1-1-.95V124.67a.95.95,0,1,1,1.89,0v43.19A.94.94,0,0,1,8.15,168.81Z"/><path class="cls-2" d="M8.15,117.85a1,1,0,0,1-1-.95V104.39a.95.95,0,0,1,1.89,0V116.9A1,1,0,0,1,8.15,117.85Z"/><path class="cls-2" d="M41.49,185.29a1,1,0,0,1-1-.94v-5.5a.95.95,0,0,1,1.9,0v5.5A.94.94,0,0,1,41.49,185.29Z"/><path class="cls-2" d="M41.49,171.08a1,1,0,0,1-1-.94v-47a.95.95,0,1,1,1.9,0v47A.94.94,0,0,1,41.49,171.08Z"/><path class="cls-2" d="M41.49,115.51a1,1,0,0,1-1-1V104.39a1,1,0,0,1,1.9,0v10.17A1,1,0,0,1,41.49,115.51Z"/><path class="cls-2" d="M25,72.75a1,1,0,0,1-1-.94V43.9a1,1,0,0,1,1.9,0V71.81A1,1,0,0,1,25,72.75Z"/><path class="cls-2" d="M30.31,58.8H19.51a.95.95,0,0,1,0-1.89h10.8a.95.95,0,1,1,0,1.89Z"/><path class="cls-2" d="M25.2,130.16a1,1,0,0,1-.95-.95V105.15a.95.95,0,0,1,1.9,0v24.06A1,1,0,0,1,25.2,130.16Z"/><path class="cls-2" d="M30.31,117.85H19.7a1,1,0,0,1,0-1.9H30.31a1,1,0,1,1,0,1.9Z"/><path class="cls-2" d="M25,179.23a1,1,0,0,1-1-.95V154.22a.95.95,0,0,1,1.9,0v24.06A1,1,0,0,1,25,179.23Z"/><path class="cls-2" d="M12.32,51.34H6.63a.95.95,0,1,1,0-1.89h5.69a.95.95,0,0,1,0,1.89Z"/><path class="cls-2" d="M12.32,78.06H6.63a1,1,0,1,1,0-1.9h5.69a1,1,0,0,1,0,1.9Z"/><path class="cls-2" d="M43.77,51.34H38.08a.95.95,0,1,1,0-1.89h5.69a.95.95,0,0,1,0,1.89Z"/><path class="cls-2" d="M43.77,78.06H38.08a.95.95,0,0,1,0-1.9h5.69a1,1,0,0,1,0,1.9Z"/><path class="cls-2" d="M18.07,24.75H9.72a1,1,0,0,1,0-1.9h8.35a1,1,0,0,1,0,1.9Z"/><path class="cls-2" d="M40.18,24.75H31.7a.95.95,0,0,1,0-1.9h8.48a.95.95,0,0,1,0,1.9Z"/><path class="cls-2" d="M13.9,7.39a1,1,0,0,1-1-.95V1a.95.95,0,1,1,1.89,0V6.44A1,1,0,0,1,13.9,7.39Z"/><path class="cls-2" d="M35.87,7.39a1,1,0,0,1-.94-.95V1a.95.95,0,1,1,1.89,0V6.44A1,1,0,0,1,35.87,7.39Z"/><rect class="cls-1" x="92.46" y="94.73" width="41.68" height="104.96"/><path class="cls-2" d="M134.14,200.64H92.46a.94.94,0,0,1-.95-.95v-105a1,1,0,0,1,.95-1h41.68a1,1,0,0,1,1,1v105A1,1,0,0,1,134.14,200.64ZM93.4,198.75h39.79V95.68H93.4Z"/><rect class="cls-3" x="92.46" y="94.73" width="8.15" height="104.96"/><path class="cls-2" d="M100.6,200.64H92.46a.94.94,0,0,1-.95-.95v-105a1,1,0,0,1,.95-1h8.14a1,1,0,0,1,1,1v105A.94.94,0,0,1,100.6,200.64Zm-7.2-1.89h6.26V95.68H93.4Z"/><rect class="cls-3" x="125.8" y="94.73" width="8.15" height="104.96"/><path class="cls-2" d="M134,200.64H125.8a.94.94,0,0,1-.94-.95v-105a1,1,0,0,1,.94-1H134a1,1,0,0,1,1,1v105A1,1,0,0,1,134,200.64Zm-7.2-1.89H133V95.68h-6.25Z"/><rect class="cls-4" x="92.46" y="191.17" width="41.68" height="8.72"/><path class="cls-2" d="M134.14,200.83H92.46a.94.94,0,0,1-.95-1v-8.71a.94.94,0,0,1,.95-.95h41.68a1,1,0,0,1,1,.95v8.71A1,1,0,0,1,134.14,200.83ZM93.4,198.94h39.79v-6.83H93.4Z"/><rect class="cls-1" x="94.73" y="34.1" width="37.13" height="60.63"/><path class="cls-2" d="M131.87,95.68H94.73a1,1,0,0,1-1-1V34.1a1,1,0,0,1,1-.94h37.14a.94.94,0,0,1,.94.94V94.73A1,1,0,0,1,131.87,95.68Zm-36.19-1.9h35.24V35.05H95.68Z"/><polygon class="cls-3" points="100.03 6.44 96.81 34.1 107.8 34.1 104.28 6.44 100.03 6.44"/><polygon class="cls-3" points="122.01 6.44 118.79 34.1 129.78 34.1 126.26 6.44 122.01 6.44"/><path class="cls-2" d="M107.8,35.05h-11a.91.91,0,0,1-.71-.32,1,1,0,0,1-.24-.74L99.09,6.33a.94.94,0,0,1,.94-.84h4.25a1,1,0,0,1,.94.83L108.74,34a.93.93,0,0,1-.23.75A1,1,0,0,1,107.8,35.05Zm-9.92-1.89h8.85L103.44,7.39h-2.57Z"/><path class="cls-2" d="M129.78,35.05h-11a.91.91,0,0,1-.7-.32,1,1,0,0,1-.24-.74l3.22-27.66a.94.94,0,0,1,.94-.84h4.25a1,1,0,0,1,.94.83L130.72,34a.93.93,0,0,1-.23.75A1,1,0,0,1,129.78,35.05Zm-9.92-1.89h8.85L125.42,7.39h-2.57Z"/><path class="cls-4" d="M118.79,71.81h-11V49.07l1.49-2.77a4.54,4.54,0,0,1,8,0l1.49,2.77Z"/><circle class="cls-4" cx="113.3" cy="84.5" r="6.25"/><path class="cls-2" d="M118.79,72.75h-11a.94.94,0,0,1-.94-.94V49.07a1,1,0,0,1,.11-.45l1.49-2.77a5.49,5.49,0,0,1,9.68,0l1.49,2.77a1,1,0,0,1,.11.45V71.81A.94.94,0,0,1,118.79,72.75Zm-10-1.89h9.1V49.31l-1.38-2.57a3.6,3.6,0,0,0-6.34,0l-1.38,2.57V70.86Z"/><path class="cls-2" d="M113.3,91.7a7.2,7.2,0,1,1,7.2-7.2A7.21,7.21,0,0,1,113.3,91.7Zm0-12.5a5.3,5.3,0,1,0,5.3,5.3A5.3,5.3,0,0,0,113.3,79.2Z"/><path class="cls-4" d="M118.6,129.21H108V109.89a5.31,5.31,0,0,1,5.31-5.31h0a5.3,5.3,0,0,1,5.3,5.31v19.32Z"/><path class="cls-2" d="M118.6,130.16H108a.94.94,0,0,1-.94-.95V109.89a6.25,6.25,0,0,1,12.5,0v19.32A.94.94,0,0,1,118.6,130.16Zm-9.66-1.89h8.72V109.89a4.36,4.36,0,0,0-8.72,0v18.38Z"/><path class="cls-4" d="M118.6,178.85H108V163.79a13.2,13.2,0,0,1,3.56-9l1-1.08a1,1,0,0,1,1.48,0l1,1.08a13.24,13.24,0,0,1,3.55,9v15.06Z"/><path class="cls-2" d="M118.6,179.8H108a.94.94,0,0,1-.94-1V163.79a14.13,14.13,0,0,1,3.8-9.66l1-1.09a2,2,0,0,1,2.86,0l1,1.09a14.09,14.09,0,0,1,3.81,9.66v15.06A.94.94,0,0,1,118.6,179.8Zm-9.66-1.9h8.72V163.79a12.21,12.21,0,0,0-3.3-8.37l-1-1.09a.14.14,0,0,0-.09,0l-1,1.09a12.21,12.21,0,0,0-3.3,8.37Z"/><path class="cls-4" d="M118.6,147.59H108v-4.87a4.92,4.92,0,0,1,1.81-3.8l3.31-2.7,3.56,2.7a4.9,4.9,0,0,1,1.93,3.9Z"/><path class="cls-2" d="M118.6,148.54H108a1,1,0,0,1-.94-.95v-4.87a5.8,5.8,0,0,1,2.15-4.53l3.31-2.7a.93.93,0,0,1,1.17,0l3.56,2.7a5.87,5.87,0,0,1,2.31,4.65v4.77A1,1,0,0,1,118.6,148.54Zm-9.66-1.9h8.72v-3.82a4,4,0,0,0-1.57-3.14l-3-2.25-2.73,2.23a3.92,3.92,0,0,0-1.46,3.06Z"/><polygon class="cls-4" points="136.6 99.09 90 99.09 89.24 94.54 137.36 94.54 136.6 99.09"/><path class="cls-2" d="M136.6,100H90a1,1,0,0,1-.93-.8L88.3,94.7a1,1,0,0,1,.94-1.11h48.12a1,1,0,0,1,.72.34.93.93,0,0,1,.21.77l-.75,4.54A1,1,0,0,1,136.6,100Zm-45.8-1.9h45l.44-2.65H90.35Z"/><rect class="cls-3" x="94.92" y="34.1" width="5.68" height="60.44"/><path class="cls-2" d="M100.6,95.49H94.92a1,1,0,0,1-1-.95V34.1a1,1,0,0,1,1-.94h5.68a.94.94,0,0,1,1,.94V94.54A1,1,0,0,1,100.6,95.49Zm-4.73-1.9h3.79V35.05H95.87Z"/><rect class="cls-3" x="126.37" y="34.1" width="5.68" height="60.44"/><path class="cls-2" d="M132.06,95.49h-5.69a1,1,0,0,1-1-.95V34.1a1,1,0,0,1,1-.94h5.69a.94.94,0,0,1,.94.94V94.54A1,1,0,0,1,132.06,95.49Zm-4.74-1.9h3.79V35.05h-3.79Z"/><path class="cls-2" d="M96.44,185.23a.94.94,0,0,1-1-.95v-8.59a.95.95,0,0,1,1.89,0v8.59A.94.94,0,0,1,96.44,185.23Z"/><path class="cls-2" d="M96.44,168.81a.94.94,0,0,1-1-.95V124.67a.95.95,0,1,1,1.89,0v43.19A.94.94,0,0,1,96.44,168.81Z"/><path class="cls-2" d="M96.44,117.85a1,1,0,0,1-1-.95V104.39a.95.95,0,0,1,1.89,0V116.9A1,1,0,0,1,96.44,117.85Z"/><path class="cls-2" d="M129.78,185.29a1,1,0,0,1-.95-.94v-5.5a.95.95,0,0,1,1.9,0v5.5A1,1,0,0,1,129.78,185.29Z"/><path class="cls-2" d="M129.78,171.08a1,1,0,0,1-.95-.94v-47a1,1,0,0,1,1.9,0v47A1,1,0,0,1,129.78,171.08Z"/><path class="cls-2" d="M129.78,115.51a1,1,0,0,1-.95-1V104.39a1,1,0,0,1,1.9,0v10.17A1,1,0,0,1,129.78,115.51Z"/><path class="cls-2" d="M113.3,72.75a1,1,0,0,1-1-.94V43.9a1,1,0,0,1,1.9,0V71.81A1,1,0,0,1,113.3,72.75Z"/><path class="cls-2" d="M118.6,58.8H107.8a.95.95,0,0,1,0-1.89h10.8a.95.95,0,1,1,0,1.89Z"/><path class="cls-2" d="M113.49,130.16a.94.94,0,0,1-.95-.95V105.15a1,1,0,0,1,1.9,0v24.06A1,1,0,0,1,113.49,130.16Z"/><path class="cls-2" d="M118.6,117.85H108a1,1,0,0,1,0-1.9H118.6a.95.95,0,0,1,0,1.9Z"/><path class="cls-2" d="M113.3,179.23a1,1,0,0,1-1-.95V154.22a1,1,0,0,1,1.9,0v24.06A1,1,0,0,1,113.3,179.23Z"/><path class="cls-2" d="M100.6,51.34H94.92a.95.95,0,1,1,0-1.89h5.68a.95.95,0,1,1,0,1.89Z"/><path class="cls-2" d="M100.6,78.06H94.92a1,1,0,0,1,0-1.9h5.68a1,1,0,0,1,0,1.9Z"/><path class="cls-2" d="M132.06,51.34h-5.69a.95.95,0,1,1,0-1.89h5.69a.95.95,0,0,1,0,1.89Z"/><path class="cls-2" d="M132.06,78.06h-5.69a1,1,0,0,1,0-1.9h5.69a1,1,0,0,1,0,1.9Z"/><path class="cls-2" d="M106.36,24.75H98a1,1,0,0,1,0-1.9h8.35a1,1,0,0,1,0,1.9Z"/><path class="cls-2" d="M128.47,24.75H120a1,1,0,1,1,0-1.9h8.48a.95.95,0,0,1,0,1.9Z"/><path class="cls-2" d="M102.18,7.39a1,1,0,0,1-.94-.95V1a.95.95,0,1,1,1.89,0V6.44A1,1,0,0,1,102.18,7.39Z"/><path class="cls-2" d="M124.16,7.39a1,1,0,0,1-.94-.95V1a.95.95,0,1,1,1.89,0V6.44A1,1,0,0,1,124.16,7.39Z"/><path class="cls-4" d="M69.15,80.9h0a3.79,3.79,0,0,0-3.79,3.79v6.44h7.58V84.69A3.79,3.79,0,0,0,69.15,80.9Z"/><path class="cls-2" d="M72.94,92.08H65.36a1,1,0,0,1-.94-1V84.69a4.74,4.74,0,1,1,9.47,0v6.44A1,1,0,0,1,72.94,92.08Zm-6.63-1.9H72V84.69a2.85,2.85,0,0,0-5.69,0v5.49Z"/><path class="cls-2" d="M50.21,173.55a1,1,0,0,1-1-1v-2.27a.95.95,0,1,1,1.89,0v2.27A1,1,0,0,1,50.21,173.55Z"/><path class="cls-2" d="M59.68,173.55a1,1,0,0,1-1-1v-2.27a1,1,0,0,1,1.9,0v2.27A1,1,0,0,1,59.68,173.55Z"/><path class="cls-2" d="M69.15,173.55a1,1,0,0,1-.94-1v-2.27a.95.95,0,1,1,1.89,0v2.27A1,1,0,0,1,69.15,173.55Z"/><path class="cls-2" d="M78.63,173.55a1,1,0,0,1-.95-1v-2.27a.95.95,0,1,1,1.89,0v2.27A1,1,0,0,1,78.63,173.55Z"/><path class="cls-2" d="M88.1,173.55a1,1,0,0,1-.95-1v-2.27a.95.95,0,1,1,1.9,0v2.27A1,1,0,0,1,88.1,173.55Z"/><path class="cls-2" d="M52.1,194a1,1,0,0,1-1-.95v-11a1,1,0,0,1,1.9,0v11A.94.94,0,0,1,52.1,194Z"/><path class="cls-2" d="M86.21,194a1,1,0,0,1-.95-.95v-11a.95.95,0,0,1,1.89,0v11A.94.94,0,0,1,86.21,194Z"/><rect class="cls-1" x="106.29" y="178.47" width="45.47" height="21.6"/><path class="cls-2" d="M151.76,201H106.29a1,1,0,0,1-1-1v-21.6a1,1,0,0,1,1-.94h45.47a1,1,0,0,1,1,.94v21.6A1,1,0,0,1,151.76,201Zm-44.52-1.9h43.57v-19.7H107.24Z"/><rect class="cls-3" x="106.29" y="173.36" width="45.47" height="5.12"/><path class="cls-2" d="M151.76,179.42H106.29a1,1,0,0,1-1-.95v-5.11a1,1,0,0,1,1-1h45.47a1,1,0,0,1,1,1v5.11A1,1,0,0,1,151.76,179.42Zm-44.52-1.89h43.57V174.3H107.24Z"/><path class="cls-4" d="M117.66,187.57h0a4.54,4.54,0,0,0-4.55,4.54v7.58h9.09v-7.58A4.54,4.54,0,0,0,117.66,187.57Z"/><path class="cls-2" d="M122.2,200.64h-9.09a1,1,0,0,1-1-.95v-7.58a5.5,5.5,0,0,1,11,0v7.58A.94.94,0,0,1,122.2,200.64Zm-8.14-1.89h7.2v-6.64a3.6,3.6,0,1,0-7.2,0v6.64Z"/><path class="cls-4" d="M139.07,187.76h0a4.54,4.54,0,0,0-4.55,4.54v7.58h9.09V192.3A4.54,4.54,0,0,0,139.07,187.76Z"/><path class="cls-2" d="M143.61,200.83h-9.09a.94.94,0,0,1-1-1V192.3a5.5,5.5,0,0,1,11,0v7.58A.94.94,0,0,1,143.61,200.83Zm-8.14-1.89h7.2V192.3a3.6,3.6,0,1,0-7.2,0v6.64Z"/><path class="cls-2" d="M129,190a.94.94,0,0,1-.94-.95v-7.2a.95.95,0,0,1,1.89,0v7.2A.94.94,0,0,1,129,190Z"/></svg>