<svg id="Layer_1" data-name="Layer 1" xmlns="http://www.w3.org/2000/svg" viewBox="0 0 128.39 282.79"><defs><style>.cls-1{fill:#fbbb40;}.cls-2{fill:#fbd2a6;}.cls-2,.cls-3,.cls-4{stroke:#231f20;stroke-miterlimit:10;stroke-width:2px;}.cls-3,.cls-5{fill:#fff;}.cls-4{fill:#da0f28;}</style></defs><title>Vector_Beach_2</title><path class="cls-1" d="M111.66,35l-.53-.47-1.3-1.12c-.55-.46-1.11-.9-1.68-1.34l-.23-.17A53.27,53.27,0,0,0,76.15,21H74.84A53.53,53.53,0,0,0,21.31,74.53v10A6.39,6.39,0,0,0,21.5,86L21,183.74a41.12,41.12,0,0,0,40.92,41.33l3.42,0v51.16a7.53,7.53,0,0,0,7.54,7.54h4.69a7.53,7.53,0,0,0,7.54-7.54V225.19h2.38a41.12,41.12,0,0,0,41.34-40.92l.56-109.09A53.79,53.79,0,0,0,111.66,35Z"/><rect class="cls-2" x="45.34" y="129.22" width="19.78" height="134.57" rx="7.54" ry="7.54"/><path class="cls-3" d="M67.49,205.2l-25.57-.13A41.12,41.12,0,0,1,1,163.74l.56-109.1A53.92,53.92,0,0,1,55.75,1h0a53.92,53.92,0,0,1,53.64,54.19l-.56,109.09A41.12,41.12,0,0,1,67.49,205.2Z"/><path class="cls-4" d="M55.61,1h-.77A53.53,53.53,0,0,0,1.31,54.53v10a6.74,6.74,0,0,0,3.53,5.93l5.54,3q.64.34,1.32.63a7.36,7.36,0,0,1,4.59,7.65A18.1,18.1,0,0,1,15.84,84a4.67,4.67,0,0,0-.14.5v0h0c-.26,1.39-.08,3,2.25,4.86a3.85,3.85,0,0,0,1.95.87,4.86,4.86,0,0,0,5.44-4.83,3.75,3.75,0,0,0,0-.47h0a3.38,3.38,0,0,1-.08-.34c0-.17-.08-.34-.12-.51a12.22,12.22,0,0,1,1-8.46,13.5,13.5,0,0,1,1.12-1.86,5.27,5.27,0,0,1,8.75.47h0a5.31,5.31,0,0,0,9.74-1.72l2.36-11.84a1.66,1.66,0,0,1,1.37-1.34,3.07,3.07,0,0,1,3.29,2l.09.25A14.35,14.35,0,0,0,66.34,71h4.43a8.65,8.65,0,0,1,8.14,5.72l.6,1.66a5.17,5.17,0,0,0,10-.94l2-12.37a5.17,5.17,0,0,1,8.12-3.38l1.11.8a5.35,5.35,0,0,0,8.46-4.35V54.53A53.53,53.53,0,0,0,55.61,1Z"/><path class="cls-5" d="M17,33.2A24.41,24.41,0,0,0,17,44.86a5,5,0,0,0,9.71.08c0-.09.05-.18.08-.27a24.19,24.19,0,0,1,21.39-17c.59,0,1.18-.06,1.76-.05,5.09,0,7.26-6.55,2.93-9.21A24,24,0,0,0,17,33.2Z"/><path class="cls-5" d="M24.43,61.82A6.89,6.89,0,1,1,20.27,53,6.89,6.89,0,0,1,24.43,61.82Z"/></svg>