<svg xmlns="http://www.w3.org/2000/svg" viewBox="0 0 128.5 100"><defs><style>.cls-1{isolation:isolate;}.cls-14,.cls-15,.cls-18,.cls-2,.cls-3{fill:#bbbecf;}.cls-11,.cls-17,.cls-18,.cls-20,.cls-3,.cls-5,.cls-8{mix-blend-mode:multiply;}.cls-4,.cls-6{fill:#6e717f;}.cls-18,.cls-5{opacity:0.5;}.cls-14,.cls-15,.cls-21,.cls-6{mix-blend-mode:screen;}.cls-7{fill:#9c9faf;}.cls-9{fill:#dd76a5;}.cls-10,.cls-11{fill:#d9dbe8;}.cls-12,.cls-17{fill:#7f85a0;}.cls-13,.cls-20,.cls-21{fill:#f9a3c6;}.cls-14{opacity:0.2;}.cls-16{fill:#fff;}.cls-19{fill:#5b6072;}</style></defs><title>zoo animals_17</title><g class="cls-1"><g id="Layer_1" data-name="Layer 1"><path class="cls-2" d="M112.71,50.07s1.23,8.6,6.85,7.55,7.81-7.73,5.52-12.38-2.1-6.05-2.1-6.05l1-.18s-.18,1.93,2.1,6.32,1,13.69-6.76,14.22a7.53,7.53,0,0,1-7-3.87Z"/><path class="cls-3" d="M126.05,45.33C123.77,40.94,124,39,124,39l-1,.18a5.28,5.28,0,0,0,.35,1.82c.28,0,.74.77,1.35,2.32,2.11,4.6,2.11,5,1.63,8.93s-4.93,7.53-9.37,5.9a4.43,4.43,0,0,1-3.21-4.56,16,16,0,0,1-1-3.53l-.44,5.61a7.53,7.53,0,0,0,7,3.87C127,59,128.33,49.72,126.05,45.33Z"/><path class="cls-4" d="M118.22,33.18s2.13.11,1.25,1.74-.64,4.59,3.57,5,7.13-4.63,4.4-9.37a4.87,4.87,0,0,1-.57,2.77,4.43,4.43,0,0,0-3.38-4.59c-3.6-1.06-3.94-1.66-3-4.17-2.58,2-3.87,4.74-.49,6.6,1.82,1.18.75,3.6.75,3.6S120.57,32.8,118.22,33.18Z"/><g class="cls-5"><path class="cls-4" d="M127.44,30.56a4.87,4.87,0,0,1-.57,2.77A4.4,4.4,0,0,0,124,28.91a4.7,4.7,0,0,1,2,5.85,2.42,2.42,0,0,0,1.7-1.57,4,4,0,0,1-2.52,5.45c-4.15,1.63-5.58-1.78-4.29-2.93s2.72-3.88-.61-5.25a4.3,4.3,0,0,1-2.37-2c0,1,.62,1.9,2,2.68,1.82,1.18.75,3.6.75,3.6s-.15-2-2.5-1.59c0,0,2.13.11,1.25,1.74s-.64,4.59,3.57,5S130.17,35.3,127.44,30.56Z"/></g><path class="cls-6" d="M121,28.42s4.29,1,4.83,4C126,30.53,124.26,28.69,121,28.42Z"/><path class="cls-7" d="M38.34,63.68a26,26,0,0,0-13,14.64C24.41,80,33.8,83.8,38.58,85.6s5.56,1.33,6.27-.78-.4-19.18-.4-19.18Z"/><g class="cls-5"><path class="cls-7" d="M44.45,65.64l-6.11-2A25.11,25.11,0,0,0,31,69.11a22.7,22.7,0,0,1,7.27-1.59c5.13,0,2.48,1.65.33,5.12s-3.3,2.15-4.63,1c-.73-.64-3.06-1.38-5.71-1.14a25.3,25.3,0,0,0-2.9,5.82C24.41,80,33.8,83.8,38.58,85.6s5.56,1.33,6.27-.78S44.45,65.64,44.45,65.64Z"/></g><path class="cls-2" d="M93.19,12.24C82.47,3.16,69.76,9.88,69.76,9.88s-10,11.26-23.47,24.33-8.58,30.37-8.58,30.37l6,2a23.48,23.48,0,0,0-5.32,12.2C38,82,43.79,86,49.1,87.79s7.75,2.35,8.19-1.22C59.11,75.68,61.38,73,61.38,73l.7.35s6,3.15,12.09,2.34c0,0-4.68,5.79-2.16,19.52,3.31,7.15,15.91,3.8,19,2.07S90.82,91,89.55,87.05,88.28,79.24,91.19,78c4-1.45,18.16-6,20.52-16.52C116.43,40.2,103.9,21.32,93.19,12.24Z"/><g class="cls-5"><path class="cls-2" d="M86.51,65c2.15-.23-8,3.07-12,13.35-2.91,8.13,10.58,10.12,11.81,4.29s6.14-9,11.81-11.65,20.09-10,11-36.35l-.12-.36a45.3,45.3,0,0,1,2.62,27.18C109.35,72,95.18,76.52,91.19,78c-2.91,1.27-2.91,5.08-1.64,9.08S94.1,95.52,91,97.26s-15.69,5.08-19-2.07c-2.52-13.73,2.16-19.52,2.16-19.52-6.08.81-12.09-2.34-12.09-2.34l-.7-.35s-2.27,2.7-4.09,13.59c-.44,3.57-2.88,3.05-8.19,1.22S38,82,38.38,78.82a23.48,23.48,0,0,1,5.32-12.2l-6-2s-4.9-17.3,8.58-30.37S69.76,9.88,69.76,9.88s10.87-5.75,21,.57c-3-1.14-6.71-2.06-9.44-1.13-5.37,1.85-5.37,6.9,2,13.19s4.45,6.6,1.69,11.66S74.24,46.59,63.2,45.36C56.76,44.6,48,46.9,47.1,53.18s7,2.92,10.28,1.85,2-2,5.67-4.14c1.84-.62-3.68,4,.92,2.91s5.67-.46.15,1.38S51.7,58.86,46.79,66.07c-4.6,6.9,6.75,13.19,12.88,5.52,7.21-7,11.82-7.82,13.81-8.13S70.6,64.94,70,66.38c-.44,1,2.15-.28,4-1.42s-1.66.73-.21,2.7S81.45,65.54,86.51,65Z"/><g class="cls-8"><path class="cls-2" d="M88.72,95.77C85,97.36,82,96.83,81,94.18s-2.66-2.52-6.36-1.73-3.32-2.91-3.32-2.91l0-.06A44.77,44.77,0,0,0,72,95.19c3.31,7.15,15.91,3.8,19,2.07s.06-5.88-1.3-9.75a3.35,3.35,0,0,0,.07.44C90.58,91.13,92.43,94.18,88.72,95.77Z"/><path class="cls-2" d="M71.76,74.17c-4.89-.35-8.88-2.12-5.94-6.15-2.89,2.06-4.92,3.23-7.44,8.53s-2.52,8-6.23,7.16a5.84,5.84,0,0,1-5-5.83c-.14-2.52-1.6-4.11-4.24-4-4.21.21,1-7.48,1-7.48l-.53.08.36.12a23.48,23.48,0,0,0-5.32,12.2C38,82,43.79,86,49.1,87.79s7.75,2.35,8.19-1.22C59.11,75.68,61.38,73,61.38,73l.7.35S68,76.42,74,75.69c2.07-2.9,3.83-4.89,3.83-4.89C77,71.54,73.62,74.3,71.76,74.17Z"/></g></g><g class="cls-8"><path class="cls-2" d="M44.79,56c-1.24-8.51,5.1-11.14,12.37-11.6,6.19-.47,15.93,2.16,23-5.11,5.72-6,7-11,7-11,.31-.93-2.16-3.71-6.33-7.58-3.34-3.09-8.68-9.25-7.71-12.2a20.45,20.45,0,0,0-3.37,1.31s-10,11.26-23.47,24.33-8.58,30.37-8.58,30.37l4.84,1.65A16.08,16.08,0,0,0,44.79,56Z"/></g><path class="cls-7" d="M74.17,75.67c-6.08.81-12.09-2.34-12.09-2.34-5.14,9.14-1.74,16.81.26,21.34s7,2.35,9.67.52C69.49,81.46,74.17,75.67,74.17,75.67Z"/><g class="cls-5"><path class="cls-7" d="M74.17,75.67c-6.08.81-12.09-2.34-12.09-2.34a19.65,19.65,0,0,0-2.28,14c-.11-2.14-.27-10.34,3.68-10.91,4.56-.66,5.38,4.88,5.46,9.93s-1.57,4.39-3.39,3.81c-1.65-.53-1,1.89-4.52,1.34.44,1.16.9,2.2,1.31,3.12,2,4.53,7,2.35,9.67.52C69.49,81.46,74.17,75.67,74.17,75.67Z"/></g><path class="cls-9" d="M25.42,78.12c0,.07-.05.13-.07.2C24.41,80,33.8,83.8,38.58,85.6c2.6,1,4,1.29,4.88,1a56.91,56.91,0,0,0-10.09-6.47C28.81,77.81,26.51,77.8,25.42,78.12Z"/><g class="cls-5"><path class="cls-9" d="M33.37,80.15c-4.56-2.34-6.86-2.35-7.95-2,0,.07-.05.13-.07.2-.16.27,0,.6.3,1,0,0,0,0,0,0,.48-.71,1.49-.48,2.18-.26,1.5.49,2.79,1.39,4.23,2s3.14,1.35,4.67,2.11c1.23.61,3,1.19,3.79,2.37a1.32,1.32,0,0,1,.24.89,4.94,4.94,0,0,0,2.66.26A56.91,56.91,0,0,0,33.37,80.15Z"/></g><path class="cls-10" d="M25.35,78.32S27,76.76,34,80.42c1.61-3.66.23-7.08-1.74-4.8-.15-1.77-2.08-2-3-.39C29.07,73.62,27.09,72.84,25.35,78.32Z"/><path class="cls-11" d="M32.29,75.62c-.15-1.77-2.08-2-3-.39-.14-1.15-1.19-1.87-2.41-.21a1,1,0,0,1,1.27.89A4,4,0,0,1,27.41,78a9.82,9.82,0,0,1,1.1.19A4.45,4.45,0,0,1,29.39,76c.21-.27,1.15-.93,1.4-.37s-.12,1.62-.33,2.24c-.09.26-.21.53-.33.79.42.15.87.32,1.35.52A4.3,4.3,0,0,1,31.75,77c.22-.4.82-1.06,1.15-.38a5.18,5.18,0,0,1-.06,2.84c0,.11-.05.24-.08.36.41.19.82.39,1.27.62C35.64,76.76,34.26,73.34,32.29,75.62Z"/><g class="cls-8"><path class="cls-12" d="M29.15,75.73s-.59,1.5-.83,2.42A4.26,4.26,0,0,1,29.15,75.73Z"/><path class="cls-12" d="M32.29,75.77a22.43,22.43,0,0,0-.92,3.38A7.12,7.12,0,0,1,32.29,75.77Z"/></g><g class="cls-8"><path class="cls-12" d="M43.7,66.62s.2-.31.6-.82c.2-.25.44-.56.74-.89l.48-.54c.17-.19.36-.37.55-.58.38-.4.82-.8,1.28-1.24l.74-.64c.25-.23.52-.44.79-.66l.84-.64c.28-.22.58-.42.88-.63s.6-.43.91-.62l1-.59.47-.29.49-.26,1-.53c.31-.18.65-.32,1-.47l1-.44c.31-.15.63-.27.94-.39l.92-.34a16,16,0,0,1,1.7-.56c.53-.15,1-.31,1.46-.4l1.14-.24c.63-.14,1-.2,1-.2l-1,.3-1.11.34a5.34,5.34,0,0,0-.67.23l-.74.27c-.52.19-1.08.38-1.66.63l-.89.39c-.3.13-.62.25-.92.41l-.94.46c-.31.15-.64.3-.95.48l-1,.52L53.2,59l-.46.29-.94.57c-.31.18-.6.4-.9.6L50,61l-.84.62c-.14.11-.28.2-.41.31l-.39.31-.76.6-.69.6c-.23.19-.44.38-.65.57l-.58.53-.51.5c-.32.3-.59.59-.81.82s-.4.42-.51.55Z"/><path class="cls-12" d="M60.57,55.25a1.11,1.11,0,0,1-.22-.37,2.27,2.27,0,0,1-.1-.43,2.13,2.13,0,0,1,0-.5,2,2,0,0,1,.08-.26,1.2,1.2,0,0,1,.11-.23,1.1,1.1,0,0,1,.31-.33.82.82,0,0,1,.28-.16l.11,0a.49.49,0,0,1,0,.11.61.61,0,0,1-.05.12.94.94,0,0,1-.06.15s0,.11-.05.17a.76.76,0,0,0-.06.18c0,.06,0,.12,0,.19s0,.13,0,.2c-.06.27-.1.56-.15.78A3.85,3.85,0,0,1,60.57,55.25Z"/><path class="cls-12" d="M61.38,73l.06-.14a3.75,3.75,0,0,1,.2-.37c.09-.16.2-.35.35-.57a8.05,8.05,0,0,1,.51-.69l.31-.38.35-.4c.24-.27.51-.54.79-.81s.57-.56.9-.82.64-.54,1-.78.67-.51,1-.73.68-.46,1-.66l1-.58.89-.47c.28-.15.54-.27.77-.37l.6-.27.53-.22-.48.31-.55.36-.71.46L69,66.4l-.92.63c-.33.21-.65.46-1,.68s-.66.49-1,.74-.65.5-1,.76-.61.51-.91.76-.57.5-.82.75-.51.47-.72.7-.41.42-.58.61-.31.35-.42.5S61.38,73,61.38,73Z"/><path class="cls-12" d="M66.86,67.58h.62l.43,0,.49-.06.55-.09.58-.14c.19-.06.39-.1.58-.18a5.66,5.66,0,0,0,.58-.2c.19-.08.38-.13.56-.22l.51-.22.46-.22.39-.18.31-.15.27-.12s-.07.08-.21.21a3,3,0,0,1-.25.23l-.16.14-.18.14-.43.31-.51.3c-.17.1-.37.18-.56.27a4,4,0,0,1-.61.23,4.91,4.91,0,0,1-.63.17,4.58,4.58,0,0,1-.63.1l-.59,0c-.19,0-.37,0-.53,0a3.38,3.38,0,0,1-.44-.09l-.33-.1Z"/><path class="cls-12" d="M74.11,75.62a10.67,10.67,0,0,1,.69-1.32c.11-.19.24-.4.38-.61s.29-.44.46-.66.33-.45.52-.68.39-.45.58-.67.42-.43.62-.64.43-.4.64-.59l.64-.5.6-.4.54-.29a3.59,3.59,0,0,1,.43-.19l.39-.14-.34.24a4.12,4.12,0,0,0-.37.27l-.47.37-.53.46c-.18.17-.36.36-.57.54l-.58.6c-.2.21-.4.41-.6.63s-.39.43-.57.65-.38.43-.55.64l-1,1.15Z"/><path class="cls-12" d="M77.84,70.8s0,0,0-.13a1.79,1.79,0,0,1,0-.33,1.52,1.52,0,0,1,0-.21,1.55,1.55,0,0,1,.06-.23l.09-.24c0-.08.08-.16.12-.24l.14-.22a1.63,1.63,0,0,1,.17-.2l.17-.17a1.92,1.92,0,0,1,.17-.13,1.81,1.81,0,0,1,.4-.21,2.38,2.38,0,0,1-.16.41c-.06.11-.11.25-.19.38a1.28,1.28,0,0,1-.11.2l-.12.22-.24.4a1.88,1.88,0,0,0-.12.18l-.12.17-.18.25Z"/><path class="cls-12" d="M90.55,78.2a4.39,4.39,0,0,1,.48-.68c.08-.09.16-.19.26-.29s.2-.22.31-.32a6.49,6.49,0,0,1,.73-.63l.39-.29a2.92,2.92,0,0,1,.4-.25l.38-.22a4,4,0,0,1,.36-.18,7.81,7.81,0,0,1,.78-.28,7.32,7.32,0,0,1-.61.55c-.19.15-.4.34-.64.52l-.36.29-.37.29-.38.29c-.12.1-.25.18-.37.27s-.47.34-.67.48C90.84,78,90.55,78.2,90.55,78.2Z"/></g><path class="cls-10" d="M73,98.92s-.32.29-1.61.14-1.15-1.23-.88-2.79,1.49-3,2.26-1.76c.85-1.26,2.14-1.17,3.43,2.2.44-3.11,2.35-4.9,4.2-.93,1.23,3.4.59,4.22-2.17,4.22a2.72,2.72,0,0,1-2-1.08A5.6,5.6,0,0,1,73,98.92Z"/><path class="cls-11" d="M80.44,95.78c-1.85-4-3.76-2.18-4.2.93-1.29-3.37-2.58-3.46-3.43-2.2-.59-.93-1.46-.3-2,.76a1,1,0,0,1,.43-.13c1.28-.13,1.39,1.54,1,2.42a1.54,1.54,0,0,1-1.93.65,1,1,0,0,0,1,.85A2.69,2.69,0,0,0,73,99a6.27,6.27,0,0,1-.37-1.69,2.7,2.7,0,0,1,.31-1.91c.72-.94,1.48,0,1.77.87a7.25,7.25,0,0,1,.21,2.93,6.25,6.25,0,0,0,1.33-.23l.19.23a10,10,0,0,1,.06-1.84c.1-.75.35-2,1.22-2.22,1.49-.45,2.06,2.86,2.19,3.83,0,.29.07.59.09.88C81.23,99.4,81.35,98.29,80.44,95.78Z"/><path class="cls-12" d="M72.79,95A11.26,11.26,0,0,0,73,98.79,4.85,4.85,0,0,1,72.79,95Z"/><path class="cls-12" d="M76.27,96.94a6.65,6.65,0,0,0,.07,2A2.46,2.46,0,0,1,76.27,96.94Z"/><path class="cls-10" d="M61.61,97.53a2.37,2.37,0,0,0,2.15-.1,3.16,3.16,0,0,0,3.16-.58c1,.62,3.1-.41,3.58-.78s-1.36-5-3.17-4.6c-1.53.41-.88,2.86-.88,2.86s-1.26-2.52-2.59-2.41-.78,2.65-.78,2.65-.72-2.38-2-2.21S60.63,95.73,61.61,97.53Z"/><path class="cls-11" d="M67.33,91.47c-1.53.41-.88,2.86-.88,2.86s-1.26-2.52-2.59-2.41-.78,2.65-.78,2.65-.72-2.38-2-2.21c-.56.08-.71.75-.63,1.62,0,0,0,0,.07,0,.53-.45,1.28.09,1.58.55a8.46,8.46,0,0,1,1.06,3.2,2.08,2.08,0,0,0,.58-.25l.06,0a7.17,7.17,0,0,1-.53-2.24c0-.52,0-1.36.49-1.7,1-.67,1.86,1.8,2.4,3.84a1.81,1.81,0,0,0,.74-.51l.18.09a6.46,6.46,0,0,1-.55-2.5c0-.51-.17-1.29.26-1.69.67-.63,1.31.56,1.55,1.06a7.4,7.4,0,0,1,.55,3,5.73,5.73,0,0,0,1.59-.76C71,95.7,69.14,91.07,67.33,91.47Z"/><path class="cls-12" d="M63.18,94.71a18.11,18.11,0,0,0,.61,2.45A4,4,0,0,1,63.18,94.71Z"/><path class="cls-12" d="M66.88,95.78a3.82,3.82,0,0,0,.29,1A1.44,1.44,0,0,1,66.88,95.78Z"/><path class="cls-13" d="M38.55,80.11c1,2.92,5.93,6.09,10.55,7.68a20.66,20.66,0,0,0,5.59,1.42c-1.85-.6-4.14-2.16-8.35-5.74C42.86,80.52,40.18,80,38.55,80.11Z"/><g class="cls-5"><path class="cls-13" d="M42.49,82.25A31.25,31.25,0,0,1,45.3,84c.74.51,1.41,1.1,2.16,1.6s1.59,1,2.38,1.47c.3.18,1.08.62.85,1.08a.54.54,0,0,1-.09.15,15,15,0,0,0,4.09.92c-1.85-.6-4.14-2.16-8.35-5.74-3.48-3-6.16-3.45-7.79-3.36a5,5,0,0,0,.62,1.22C39.94,80.81,42,82,42.49,82.25Z"/></g><path class="cls-10" d="M38.26,80.1s2.48-.61,6.35,2.05c1.31,1.11,1.78-.91,1.82-3.23s-1.85-5.21-3.94-.77c0-3.1-1.51-4.14-2.76-2.36C39.67,74.55,36.22,76,38.26,80.1Z"/><path class="cls-11" d="M42.49,78.15c0-3.1-1.51-4.14-2.76-2.36,0-.65-1-.56-1.61.27a.35.35,0,0,1,.07.09A2.63,2.63,0,0,1,38.46,78,6.17,6.17,0,0,1,38,79.4c.09.23.19.46.31.7l.29,0a5.87,5.87,0,0,1,.55-2.35,2.72,2.72,0,0,1,.59-.84c.11-.1.54-.61.73-.58s.49.88.53,1.1a5.06,5.06,0,0,1-.05,1.86c-.08.34-.17.68-.28,1a10.93,10.93,0,0,1,1.38.45,10.66,10.66,0,0,1,.84-2.27c.31-.62.72-1.41,1.48-1.51.53-.08.84.88.89,1.25A3.9,3.9,0,0,1,45,80.09c-.22.62-.42,1.25-.61,1.88l.27.18c1.31,1.11,1.78-.91,1.82-3.23S44.58,73.71,42.49,78.15Z"/><g class="cls-8"><path class="cls-12" d="M39.53,76.23a7.56,7.56,0,0,0-1,3.77A4.24,4.24,0,0,1,39.53,76.23Z"/><path class="cls-12" d="M41.69,80.63l.73-2A3.6,3.6,0,0,0,41.69,80.63Z"/></g><path class="cls-14" d="M92,12.19s10.69,6.37,17.59,25.43c4.72,14.17,1.09,24.15-8.53,30.15S87.65,66,94.92,61.41s-8.54,1.09-15.25-6-2-10,5.62-14.89,10.9-9.8,3.27-18.52S85.13,7.83,92,12.19Z"/><path class="cls-15" d="M92.05,13.24s8.17,5,13.35,16.61C104.85,25.9,100.22,16.92,92.05,13.24Z"/><path class="cls-15" d="M111.71,50.19s.92,10.46-10.62,17.58C105.53,68.17,113.52,59.08,111.71,50.19Z"/><path class="cls-15" d="M65,55.81S53.28,57.76,47.43,67C47.86,64.27,54.47,56.68,65,55.81Z"/><path class="cls-15" d="M85,67.62a23.69,23.69,0,0,0-9.62,13.07A15.15,15.15,0,0,1,85,67.62Z"/><path class="cls-16" d="M77.32,96.22a6.26,6.26,0,0,0-.2,2.32c0,.66-.67,0-.43-1.22S77.36,95.66,77.32,96.22Z"/><path class="cls-16" d="M73.25,95.93a6.42,6.42,0,0,0,.31,2.32c.2.62-.64.19-.68-1.1S73.16,95.39,73.25,95.93Z"/><path class="cls-16" d="M71.19,96.07a4.75,4.75,0,0,0-.34,1.66c0,.48-.48,0-.2-.91S71.26,95.67,71.19,96.07Z"/><path class="cls-16" d="M67,94.12a4.41,4.41,0,0,0,.23,1.67c.14.46-.47.14-.5-.79S67,93.72,67,94.12Z"/><path class="cls-16" d="M63.83,94.88a4.57,4.57,0,0,0,.22,1.68c.15.46-.46.14-.49-.79S63.76,94.49,63.83,94.88Z"/><path class="cls-16" d="M61,95a4.7,4.7,0,0,0,.59,1.59c.24.41-.42.24-.66-.66S60.87,94.62,61,95Z"/><path class="cls-16" d="M39.57,77.82a4.6,4.6,0,0,0-.39,1.65c0,.47-.49,0-.18-.92S39.65,77.42,39.57,77.82Z"/><path class="cls-16" d="M32.24,77.11a4.73,4.73,0,0,0-.4,1.65c0,.47-.48,0-.17-.92S32.32,76.72,32.24,77.11Z"/><path class="cls-16" d="M29.59,76.35A4.52,4.52,0,0,0,29,78c-.08.47-.48-.09-.08-.93S29.71,76,29.59,76.35Z"/><path class="cls-16" d="M43.11,78.75a4.48,4.48,0,0,0-.4,1.64c0,.48-.48,0-.17-.91S43.19,78.35,43.11,78.75Z"/><path class="cls-17" d="M43.36,52.12a6.44,6.44,0,0,1,.48,1.15,12.44,12.44,0,0,1,.58,3.24,14.27,14.27,0,0,1-.1,2.22,14.85,14.85,0,0,1-.53,2.42,15.45,15.45,0,0,1-1,2.45,18.59,18.59,0,0,1-1.42,2.33c-.27.37-.56.73-.83,1.09l-.9,1-.93,1-1,.88c-.32.29-.65.54-1,.81l-.47.38-.48.35c-.31.23-.61.46-.92.67l-.88.58c-.57.39-1.11.69-1.59,1s-.89.51-1.25.69c-.7.38-1.1.58-1.1.58l1.05-.67c.34-.2.74-.46,1.2-.77s1-.65,1.51-1.06l.85-.62.88-.69.46-.37.46-.39c.3-.27.63-.53.93-.82l.92-.88.9-1,.87-1c.27-.35.55-.7.81-1.06a18.3,18.3,0,0,0,1.39-2.26,15.16,15.16,0,0,0,1-2.36,15.31,15.31,0,0,0,.59-2.33,16.93,16.93,0,0,0,.19-2.15c0-.67,0-1.29-.11-1.83a13.5,13.5,0,0,0-.26-1.39c-.1-.38-.19-.68-.26-.88A2.85,2.85,0,0,0,43.36,52.12Z"/><path class="cls-2" d="M2,15.6S9.36,14.33,22.08,4c5.25-4.34,7.81-6,11.57-.43,7.18-2.06,15.77-1.37,21.13,6.71C62,4.34,65.59,1.16,70.85,9.15c4.9,7.54,9.08,12.35,13.62,15.71,2.91,2.18,2.63,3.54-.91,9l-2-.91L82.84,35s-2.27,3.72-4.55,5.08l-1.45-1.27.37,1.72s-2.18,2.27-9.54,3l-.54-1.27A1.46,1.46,0,0,1,66,43.74c-1.18.18-8,0-9-1.81-4.9,2.72-9.3,5.08-15.16,5.49,0,0,3.15,7.1,1.84,13s-9.72,14.54-19.79,16.9c-6.53,1.52-15.66-2.4-22.7-11.46-1.23-2,1.5-2.82,3.92-3.26,4.78-.87,6.67-1.16,6.16.43s.36,7.4,7,6.75,11.39-4.57,5.15-11.68-13.41-12.25-8-21.32C9.64,35.3,6.16,32.4,3.83,28.49l.37-1.16-.87.07S.57,24.28,1.59,23.2s.94-1.67.94-1.67L.72,22.4S-1.55,16.06,2,15.6Z"/><path class="cls-2" d="M11.25,65.22v0Z"/><path class="cls-18" d="M84.47,24.86c-4.54-3.36-8.72-8.17-13.62-15.71-5.26-8-8.9-4.81-16.07,1.09-5.36-8.08-14-8.77-21.13-6.71C29.89-2,27.33-.38,22.08,4,9.36,14.33,2,15.6,2,15.6c-3.53.46-1.26,6.8-1.26,6.8l1.81-.87s.07.58-.94,1.67,1.74,4.2,1.74,4.2l.87-.07-.37,1.16c2.33,3.91,5.81,6.81,11.46,8.26C9.93,45.82,17.1,51,23.34,58.07s1.45,11-5.15,11.68a7,7,0,0,1-4.44-.83h0v0c3.26,2.72,10.48,2.72,13.34-2.18S25.87,59.54,29.41,59c4.9-.54,7.89,1.78,7.35.82s-3.54-1.9-6.67-1.9-5.72-.41-9.54-5-7.08-9.4-4.49-14.57C21.1,28.35,35.94,35,35,33.53s-5.31-4-11.71-2.86,8.85-5.18,4.63-5.18S16.06,33.8,15.65,29.17s5.59-6.67,9.26-9.26c-4.49.68-.13-6.54,5.31-10.76s-2.86-5.58-2.86-5.58C24.5,3.3,29.81-.11,33.63,4.93,39.35,2.61,49.7,4,54.06,11.6,56.37,9.56,58,8.74,58.41,9S51.2,11.2,58,22.23c1.91,2.17-.67.54-3.26.95s5.58.68,10.48,4.9S57.19,42,42.89,45.65c.55-3.57,4.77-5.72,4.77-5.72s1.36.68,3.26-3.13c-2,2.18-5.31,2.18-6.12-.68C44,38.3,45.61,39,45.61,39s-6.67,4.22-5.72,8.85,7.36,13.71-6.81,23.92c-6,4-13.34,7.22-24.51-1.22-1.63-1.5-.82-.78.68-3.77,1-1.77,1-2.69,1.87-3.12h0a3.23,3.23,0,0,1,.11-.65c.51-1.59-1.38-1.3-6.16-.43-2.42.44-5.15,1.3-3.92,3.26,7,9.06,16.17,13,22.7,11.46,10.07-2.36,18.49-11,19.79-16.9s-1.84-13-1.84-13C47.66,47,52.06,44.65,57,41.93c1,1.81,7.81,2,9,1.81a1.46,1.46,0,0,0,1.18-1.45l.54,1.27c7.36-.73,9.54-3,9.54-3l-.37-1.72,1.45,1.27C80.57,38.75,82.84,35,82.84,35l-1.28-2.09,2,.91C87.1,28.4,87.38,27,84.47,24.86Z"/><path class="cls-3" d="M30.12,23.08A4.65,4.65,0,0,1,34,22.59c-.83-.54-1.18-.44-1.18-.44s.92-3.36-.37-3.68-1.59,2.94-1.13,3.81A2.29,2.29,0,0,0,30.12,23.08Z"/><path d="M32.87,20.6c-.14.92-.57,1.61-.95,1.54s-.57-.87-.43-1.79.57-1.61.95-1.54S33,19.68,32.87,20.6Z"/><path class="cls-16" d="M32.75,20c0,.36-.19.64-.36.62s-.29-.32-.25-.69.19-.64.36-.62S32.78,19.66,32.75,20Z"/><path class="cls-15" d="M30.06,23.29a5.34,5.34,0,0,1,3.94-.7A3.8,3.8,0,0,0,30.06,23.29Z"/><path class="cls-3" d="M30.63,13.62A1.88,1.88,0,0,1,34,13.8C33.14,11.71,31.92,10.74,30.63,13.62Z"/><path class="cls-19" d="M30.72,13.23a1.89,1.89,0,0,1,3.36.17C33.24,11.32,32,10.35,30.72,13.23Z"/><path class="cls-3" d="M42.89,15.09s1.94-2.26,4.09.35C45.85,13.29,44.32,12.24,42.89,15.09Z"/><path class="cls-19" d="M43,14.69s1.94-2.26,4.09.36C45.94,12.9,44.41,11.85,43,14.69Z"/><path class="cls-13" d="M20.9,21.54c-1.1-3.94,1.91-7.61,8.43-14.29-1.15-2.51-3-3.91-10.14,1.63C9.8,16.31,2.83,16.7.44,16.57-.69,18.46.72,22.4.72,22.4l1.81-.87s.07.58-.94,1.67,1.74,4.2,1.74,4.2l.87-.07-.37,1.16c2.33,3.91,5.81,6.81,11.46,8.26,0,0,.24-.32,1.61-2.24C9,28.87,15.26,23.89,20.9,21.54Z"/><path class="cls-13" d="M67.47,13.1c-3.34-4.56-5-4.63-9.12-2s-.89,10.69,3.06,13.41c4.08,2.32,6.88,3,7.28,6.06S65,37.25,57,41.93c1,1.81,7.81,2,9,1.81a1.46,1.46,0,0,0,1.18-1.45l.54,1.27c7.36-.73,9.54-3,9.54-3l-.37-1.72,1.45,1.27C80.57,38.75,82.84,35,82.84,35l-1.28-2.09,2,.91a20.78,20.78,0,0,0,2.77-5.18,22.57,22.57,0,0,0-3.81-2.56C76.73,22.84,73.39,20.73,67.47,13.1Z"/><path class="cls-13" d="M7.78,67.09c.91-1.84,1.5-3.54,3.5-4.26.31-1.4-1.6-1.1-6.21-.26-2.42.44-5.15,1.3-3.92,3.26l.22.27a7.41,7.41,0,0,0,1.37.8C5.44,68.19,6.81,69,7.78,67.09Z"/><path class="cls-20" d="M7,64.17A6.45,6.45,0,0,1,5.56,65.5c-.9.62,0,1.15.93,1.09s1.45-2.11,2.26-2.79S8.16,62.9,7,64.17Z"/><path class="cls-20" d="M6.7,63.33A20.49,20.49,0,0,0,4,64.6c-1.06.65-1.83.19-1.65-.31S7.54,62.62,6.7,63.33Z"/><path class="cls-20" d="M7.53,64.51a7.34,7.34,0,0,1-1,1.13c-.24.2-.83.44-.86.84a2,2,0,0,0,.84.11c.93-.06,1.45-2.11,2.26-2.79a.72.72,0,0,0,.19-.22A3.32,3.32,0,0,0,7.53,64.51Z"/><path class="cls-20" d="M4.73,64.08c-.51.13-1.75.21-2,.79A1.57,1.57,0,0,0,4,64.6a13.57,13.57,0,0,1,1.37-.71Z"/><g class="cls-5"><path class="cls-13" d="M10.07,61.86c1.22.28.34.86-.63,1.9S8,65,8.63,64.22,9.44,63,9,62.9s-1,0-2.31,1.18-2,.64-.68-.23,2-1.22.9-1.22c-2,.31-5.58,1.49-4.76,1a8.6,8.6,0,0,1,2.85-1C2.58,63-.1,63.89,1.12,65.83l.22.27a7.63,7.63,0,0,0,1.36.8c2.71,1.29,4.08,2.11,5,.19s1.51-3.54,3.5-4.26C11.4,62.15,11,61.87,10.07,61.86Z"/></g><g class="cls-5"><path class="cls-13" d="M20.9,21.54c-1.1-3.94,1.91-7.61,8.43-14.29-1.15-2.51-3-3.91-10.14,1.63a44.8,44.8,0,0,1-6.55,4.35h0a29,29,0,0,0,8.71-4.63c5-3.68,5.18-.41,1.37,3.13s-2,7.08-6.13,9.4-5.86,4.63-6.54,7.35S5.3,29.58,5.85,26.31c-3.27-.14-3-3-.82-6-3.13.4-3.41-1.74-3-3.77a15.38,15.38,0,0,1-1.63,0C-.69,18.46.72,22.4.72,22.4l1.81-.87s.07.58-.94,1.67,1.74,4.2,1.74,4.2l.87-.07-.37,1.16c2.33,3.91,5.81,6.81,11.46,8.26,0,0,.24-.32,1.61-2.24C9,28.87,15.26,23.89,20.9,21.54Z"/></g><g class="cls-5"><path class="cls-13" d="M86.33,28.67a22.57,22.57,0,0,0-3.81-2.56,59.28,59.28,0,0,1-6.25-3.91c1.31,1.06,3.74,3,6,4.79,3.26,2.59,1.36,5.31-2.59,4.5,1.09,1.9,2,3.54.13,5.17s-2.31,1-4.22,0c-.13,3.41-.82,3.54-3.68,4.36s-3.81-2.86-1.49-6.26,1.63-7.63-1.77-9.13-6.81-3.27-7.49-8.71,3-6.13,5.17-3.55A29.36,29.36,0,0,0,71.49,18h.11c-1.27-1.35-2.61-2.94-4.13-4.89-3.34-4.56-5-4.63-9.12-2s-.89,10.69,3.06,13.41c4.08,2.32,6.88,3,7.28,6.06S65,37.25,57,41.93c1,1.81,7.81,2,9,1.81a1.46,1.46,0,0,0,1.18-1.45l.54,1.27c7.36-.73,9.54-3,9.54-3l-.37-1.72,1.45,1.27C80.57,38.75,82.84,35,82.84,35l-1.28-2.09,2,.91A20.78,20.78,0,0,0,86.33,28.67Z"/></g><g class="cls-5"><path class="cls-2" d="M25.22,24.54l.25-.12.74-.3a20.46,20.46,0,0,1,2.73-.84c.58-.14,1.21-.26,1.88-.37s1.38-.19,2.12-.24,1.51-.07,2.29-.07,1.57.06,2.35.15l.59.07.59.09c.39.05.78.12,1.16.2.76.14,1.51.34,2.22.54.36.1.7.21,1,.33s.67.23,1,.35c.64.23,1.22.51,1.76.75s1,.49,1.44.74.79.43,1.08.61l.91.58-1-.48c-.3-.17-.68-.33-1.11-.53-.22-.11-.45-.21-.7-.31l-.77-.33c-.55-.2-1.14-.44-1.77-.64-.32-.11-.65-.22-1-.31s-.67-.21-1-.3c-.7-.19-1.44-.34-2.19-.49-.37-.06-.76-.14-1.14-.19l-.57-.08-.58-.06c-.78-.09-1.55-.13-2.32-.16s-1.51,0-2.24,0a30.83,30.83,0,0,0-4,.44,24.13,24.13,0,0,0-2.76.63C25.58,24.41,25.22,24.54,25.22,24.54Z"/><path class="cls-2" d="M17.15,38.87a.92.92,0,0,1,.21-.16,3.44,3.44,0,0,1,.63-.34c.13,0,.28-.11.45-.15A3.62,3.62,0,0,1,19,38.1l.56-.07a5.76,5.76,0,0,1,.59,0c.19,0,.39,0,.58,0s.38,0,.56.09l.51.13.44.16a4.57,4.57,0,0,1,.64.29l.24.13-.27,0c-.17,0-.4-.07-.68-.1l-.46-.06-.5,0c-.17,0-.35,0-.53,0l-.55,0h-.55c-.18,0-.36,0-.53,0l-.49,0-.45.05-.38.07-.29.06Z"/><path class="cls-2" d="M16.57,41.59a3.88,3.88,0,0,1,.38-.22c.13-.06.28-.14.47-.21s.39-.15.62-.23l.76-.21c.27,0,.56-.12.86-.15a9.33,9.33,0,0,1,.94-.1c.32,0,.64,0,1,0l1,.07.93.14.85.21a6.62,6.62,0,0,1,.75.24,4.63,4.63,0,0,1,.61.23l.47.21.4.19a3.64,3.64,0,0,1-.44-.09l-.49-.11c-.18,0-.4-.08-.63-.13s-.49-.11-.76-.14l-.84-.13c-.29,0-.59,0-.9-.1l-.93,0c-.31,0-.63,0-.93,0s-.62,0-.91,0l-.84.08-.75.12c-.24,0-.45.07-.64.12l-.49.11Z"/><path class="cls-2" d="M19.45,50s.17-.12.48-.3l.58-.29c.24-.11.5-.22.79-.32a9.64,9.64,0,0,1,.95-.31c.35-.09.71-.2,1.09-.26s.78-.13,1.19-.18.82,0,1.24-.08l1.24,0c.41,0,.8.08,1.19.12l1.1.19c.35.06.67.17,1,.24a6,6,0,0,1,.81.25l.61.22.53.21-.56-.1L31,49.27c-.24-.06-.52-.09-.82-.15l-.47-.07c-.17,0-.33-.06-.5-.07l-1.09-.12L27,48.8h-1.2c-.4,0-.8,0-1.2.07l-.59,0c-.19,0-.38.05-.57.07-.37.05-.73.12-1.07.18l-1,.21c-.29.08-.57.15-.8.23s-.44.14-.61.19l-.39.14Z"/><path class="cls-2" d="M23.9,53.2A.65.65,0,0,1,24,53a.9.9,0,0,1,.16-.19,1.25,1.25,0,0,1,.24-.21,2.49,2.49,0,0,1,.32-.2,2.78,2.78,0,0,1,.4-.16,3.15,3.15,0,0,1,.44-.11l.23,0,.23,0a3.46,3.46,0,0,1,.46,0,3.12,3.12,0,0,1,.44.05,2.6,2.6,0,0,1,.4.1l.35.11a3.5,3.5,0,0,1,.5.23l.18.1h-.21l-.54,0-.35,0c-.12,0-.25,0-.38,0H26a2.73,2.73,0,0,0-.41,0c-.14,0-.27,0-.39,0l-.37.08-.32.09-.27.11-.21.1Z"/><path class="cls-2" d="M29.42,62.67a2.34,2.34,0,0,1,.56-.13l.28,0h.31l.33,0a1.94,1.94,0,0,1,.33.07l.33.1a1.73,1.73,0,0,1,.31.14l.27.14a2.29,2.29,0,0,1,.23.16,3.34,3.34,0,0,1,.42.4,3.12,3.12,0,0,1-.55-.11c-.16,0-.35-.08-.54-.14l-.3-.08-.31-.08c-.2-.07-.41-.1-.6-.17l-.28-.07L30,62.85l-.38-.12Z"/><path class="cls-2" d="M26.86,67.94l.15-.09a1.79,1.79,0,0,1,.45-.15,1.46,1.46,0,0,1,.31,0,1.38,1.38,0,0,1,.35,0,2.52,2.52,0,0,1,.37,0l.37.11a2.21,2.21,0,0,1,.35.16,3.37,3.37,0,0,1,.32.19l.27.2.22.22a2.27,2.27,0,0,1,.29.35l.09.15L30.24,69l-.4-.18-.26-.12-.29-.13c-.1,0-.2-.08-.31-.14s-.21-.07-.31-.12l-.32-.11L28,68.14a1.63,1.63,0,0,0-.3-.07L27.46,68,27,68Z"/><path class="cls-2" d="M24.39,69.92h.11a.85.85,0,0,1,.26,0l.17,0a.65.65,0,0,1,.17.08l.17.11a1.09,1.09,0,0,1,.17.13l.14.16a1,1,0,0,1,.11.17l.09.17a.49.49,0,0,1,0,.16,1,1,0,0,1,0,.36,2,2,0,0,1-.3-.18,1.27,1.27,0,0,0-.12-.1l-.13-.11a1.27,1.27,0,0,1-.13-.11l-.13-.12c-.08-.09-.17-.17-.25-.25a.69.69,0,0,0-.11-.13l-.1-.12L24.45,70A.37.37,0,0,0,24.39,69.92Z"/><path class="cls-2" d="M19.37,71.32a.79.79,0,0,1,.31.13,1.24,1.24,0,0,1,.47.51,1.48,1.48,0,0,1,.13.35.93.93,0,0,1,0,.33,1,1,0,0,1-.1.33,1.69,1.69,0,0,1-.2-.25s-.06-.07-.08-.11l-.08-.13a2.4,2.4,0,0,1-.16-.27s-.05-.09-.07-.14a.94.94,0,0,1-.06-.15,1,1,0,0,1-.1-.28,1.5,1.5,0,0,1-.06-.22A.67.67,0,0,1,19.37,71.32Z"/><path class="cls-2" d="M11.87,69.18a.45.45,0,0,1,.06.08.93.93,0,0,1,.09.24,1.27,1.27,0,0,1,0,.35L12,70a.8.8,0,0,1-.07.2,1.08,1.08,0,0,1-.21.34l-.13.13-.07.05-.07,0a.94.94,0,0,1-.34.11,1.67,1.67,0,0,1,.1-.32c0-.07.06-.18.11-.27a.78.78,0,0,0,.05-.14c0-.06,0-.1.06-.15a.94.94,0,0,0,.06-.15s.05-.09.07-.14a1.69,1.69,0,0,1,.13-.27l.11-.2Z"/><path class="cls-2" d="M10.64,67.21a.24.24,0,0,1,0,.08.65.65,0,0,1,0,.25.88.88,0,0,1,0,.16.55.55,0,0,1-.05.17.89.89,0,0,1-.08.17,1,1,0,0,1-.12.16.86.86,0,0,1-.13.14.76.76,0,0,1-.16.11l-.15.09a.47.47,0,0,1-.16,0,.78.78,0,0,1-.33,0,1.68,1.68,0,0,1,.16-.28,1,1,0,0,0,.08-.11l.08-.12.1-.12.09-.12c.08-.07.13-.16.21-.23a.94.94,0,0,1,.1-.1l.1-.1a2.06,2.06,0,0,1,.16-.15Z"/></g><g class="cls-8"><path class="cls-12" d="M45.14,37.81l.14.14a3.53,3.53,0,0,0,.38.34,2.48,2.48,0,0,0,.26.19,2.38,2.38,0,0,0,.31.17l.17.07.18.06c.11,0,.24,0,.36.08s.26,0,.39,0,.25,0,.38,0,.24,0,.36,0l.33-.07c.2,0,.37-.1.5-.12l.2,0-.15.14-.18.14a1.67,1.67,0,0,1-.26.17l-.33.17a3,3,0,0,1-.39.13,2.89,2.89,0,0,1-.44.07,2.57,2.57,0,0,1-.48,0,2.6,2.6,0,0,1-.46-.12,2.25,2.25,0,0,1-.41-.21,2.39,2.39,0,0,1-.33-.27,1.58,1.58,0,0,1-.24-.3,2.71,2.71,0,0,1-.16-.27L45.19,38A1.47,1.47,0,0,1,45.14,37.81Z"/><path class="cls-12" d="M46.54,39.13s-.47.43-1.14,1.09c-.33.34-.71.73-1.1,1.17l-.57.69a8.35,8.35,0,0,0-.55.74c-.18.25-.35.51-.5.77s-.28.52-.4.78-.11.27-.16.39l-.13.39c-.07.25-.13.49-.17.71s0,.44-.06.63a4.15,4.15,0,0,0,0,.5c0,.27,0,.43,0,.43l0-.11c0-.07-.07-.17-.11-.31s-.08-.3-.1-.5a2.72,2.72,0,0,1,0-.31c0-.11,0-.23,0-.36l0-.37c0-.14,0-.27.06-.41s.06-.28.1-.42.09-.29.14-.44a5.88,5.88,0,0,1,.39-.85,8.7,8.7,0,0,1,.5-.83c.19-.27.39-.52.59-.77s.42-.46.64-.68A9.5,9.5,0,0,1,45.2,40,8.72,8.72,0,0,1,46.54,39.13Z"/></g><path class="cls-17" d="M17.56,34.62s1.09-3.82,9.26-8.17C20.42,28.49,17.69,31.54,17.56,34.62Z"/><path class="cls-3" d="M45.75,24.55c-2-1.39-3.07-1-3.07-1l.68-.34a4.38,4.38,0,0,1,.43-3.51c1.06-1.54,2.37,1.32.83,3.88C45.14,24,45.75,24.55,45.75,24.55Z"/><path d="M45,21.47c-.08,1-.46,1.71-.86,1.67s-.65-.85-.58-1.81.45-1.71.86-1.67S45.11,20.51,45,21.47Z"/><path class="cls-16" d="M44.88,20.89c0,.38-.16.68-.33.68s-.32-.31-.32-.69.16-.68.33-.67S44.88,20.52,44.88,20.89Z"/><path class="cls-15" d="M42.15,23.54a5.33,5.33,0,0,1,3.79,1.31A3.8,3.8,0,0,0,42.15,23.54Z"/><path class="cls-15" d="M28.94,23.28a25.48,25.48,0,0,1,18.42,2.54C41.6,22.63,37.56,20.82,28.94,23.28Z"/><path class="cls-15" d="M20.22,34.9s-8.75,5.1-.49,15.54C14.39,45.46,13.41,38.17,20.22,34.9Z"/><path class="cls-15" d="M23.74,30.64A12.15,12.15,0,0,1,35,33.53C34,31.37,29,28.21,23.74,30.64Z"/><path class="cls-15" d="M12.38,68.53s6.68,6.53,14.3,0C23.55,73.16,16.47,73.7,12.38,68.53Z"/><path class="cls-15" d="M34.17,6.07a18.36,18.36,0,0,1,10.9.54C43.43,3.52,36,4.79,34.17,6.07Z"/><path class="cls-21" d="M6,16.23a53.27,53.27,0,0,0,10.53-4.35C13.84,15.87,7.66,16.05,6,16.23Z"/><path class="cls-21" d="M69.94,17s5.45,5.27,8.9,7.44C75.39,23.68,71,18.77,69.94,17Z"/></g></g></svg>