<svg id="Layer_1" data-name="Layer 1" xmlns="http://www.w3.org/2000/svg" viewBox="0 0 1062.28 531.14"><defs><style>.cls-1{fill:#ffe0b4;}.cls-1,.cls-2,.cls-3,.cls-4,.cls-5,.cls-6,.cls-7,.cls-8{fill-rule:evenodd;}.cls-2{fill:#ef9121;}.cls-3{fill:#708565;}.cls-4{fill:#faec53;}.cls-5{fill:#f8ae45;}.cls-6{fill:#d5ebdb;}.cls-7{fill:#93a488;}.cls-8{fill:#000001;}</style></defs><path class="cls-1" d="M724.06,0s1.33,11.45,38.9,22.7,74.2,37.48,71.52,56.22c0,0,7.69-12.65-9.84-32.23s-19-24.18-19-24.18,51.18,15.17,74.43,21.93-10.44,50.9,25.13,82.86,47.29,33.35,47.29,33.35S944,187.44,898,189.9c0,0,33.5,12.77,54.31-2.62s32.41,1.13,32.41,1.13l-20.56,21.74-43.2,8s38,20.79,50,69-4.75,82.66-9,81.2,40-8.09,48.5-40.67c0,0-2.27,23.7-25.66,48.21s1.85,48.37,0,53.41-8.09-17.46,8.9-38.45,56.89-4.5,68.68-46.49V0Z"/><path class="cls-2" d="M702.6,328.62s-21.45-52.05-18.76-78.9,22.34-56.07,17.88-83.06c0,0,0,12.74-10.73,26.23s-33.67-38.71-22.66-68.46S735.79,65,696,0H530.06V531.13h269.1s139.19-30.27,167.18-96.78c0,0-21.47,32.73-120.69,60.73,0,0,19.66-10.49,25-16.12,0,0-25.47,13.49-61.69,0s17.44-22.86,64.37-21.38,59.89-40.85,59.89-40.85l28.61-58.5s21-38.24,21-41.23-22.35-58.12-36.65-72-6.71,56.23-28.61,77.61-61.24,24-86.72,40.86-34.83,13.64-34.83,13.64-12.82,12.39-9.44,29.85-16.08,21-16.08,21,12.06-9,6.25-21.74S781.28,380,781.28,380s-13.86,5.26-11.18,15.75-7.33,24.21-7.33,24.21-9.66-3.59-23.52-13S702.6,328.62,702.6,328.62Z"/><path class="cls-3" d="M796.92,236.77l-11.45,4s-5.83,3.45.12,5.43,21,3.2,22.16,3.1,15.56-4,15.56-4,7-5.27-1.07-7.82-6.76-5.07-6.22-5.07,8.72,1.77,8.72,1.77,5.51,3,5,3.47-4.33,12.19-4.33,12.19-7.29,8.7-7.44,9.32-4.07,2.66-5.87,3a47,47,0,0,1-7.48.37c-2.35,0-3.92.29-5.81-.09s-8-2.51-10-3.2-5.46-5.7-5.9-7.39-1.56-3.85-1.91-5.44-2.17-4.71-.88-6.22,6.11-8,6.86-8.46S796.92,233.88,796.92,236.77Z"/><path class="cls-4" d="M858.15,294.33c3.58-3,15.64-27,15.88-31.31s-7.39-25.69-8.51-26.43-5.13-4.31-5.13-4.31-8.81,49.65-35.22,53.32S788.3,285,788.3,285s-18-9.69-21.56-22.77-17.22,7.32-16.55,8.62,17.44,26.25,25.93,28.11,27.71,5.64,34.87,4.13S858.15,294.33,858.15,294.33Z"/><path class="cls-5" d="M762.77,249.54c2,0-7,21.53,15.59,36.54s56.17,10.29,67.64-5,3.44-33.64,3.44-33.64l3.8-14.25s13.4,5.26,13.63,6.75,3.58,25.69.67,31.87-18.1,20.24-27.26,26.05,13.18,9-16.78,9-30.84,1.68-39.78-.19-9.38-.39-17-7.88S752.2,288.69,752.2,282.7s2.46-26.42,3.35-27.94S761.6,246.14,762.77,249.54Z"/><path class="cls-6" d="M774.32,272.48l3.59,3s8.71-15.75,10.39-15.65,6.25,2,5.93,3.84S788.3,285,788.3,285s2.68,1.5,2.9.76,3.68-21.85,9.5-21.93S806,276.61,806,276.61s0-6.57,2-10.21,4.36-.75,4.36-.75l5.26,21.27H807l-1.24-8.35-1.9,9s17.65-1.59,21.34-3.29a25.32,25.32,0,0,0,5.93-3.66l-10.17-19.95s10.63,15,12.4,15.38,6.37-3.86,6.93-5.34a64.18,64.18,0,0,0,1.24-7.78l-19-7.51s20.67,3.85,20.55,3.38-3.35-10-4-10.7-12.29-.47-12.29-.47l10.17-2-7.16-7.12-3-2.25s3.35,19.12-18.83,25c0,0-12,2.2-20.51-6.23s-2.35-20.52-2.35-20.52-13.7,16-13.7,16.55-3.07,13.34-3.07,13.34l12.87-10.78-9.74,12.55Z"/><path class="cls-7" d="M763.92,242.58s-3.43,20.67,2.65,27.76,9.88,15.35,29.54,18.53,38.16.23,48.68-13.46a37.38,37.38,0,0,0,7.2-28.7S841.27,231,840.14,231,814,226.83,814,226.83l-1.33,5.82s16.75,3.37,23.24,15,5.59,24-10.06,31.31a29.6,29.6,0,0,0,8.27-1.68s-6.26,10.13-35.31,7.69S770.86,256.69,772,251.6c0,0,.89,21.9,21.91,25.84,0,0-18.2-2.75-17.93-25.84s27.09-25.14,27.09-25.14S776.67,227.59,763.92,242.58Z"/><path class="cls-8" d="M713.15,314.78s15.19-29.61,28.16-43.49c0,0,12.08-44.42,48.06-50.8s36-9,36-9a89,89,0,0,1-23.25,2.06,77.29,77.29,0,0,0-23,2.44s6.26-7.88,29.49-8.06,31.52-9,31.52-9,1.35,4.32-3.12,8.25c0,0,11.84-2.79,15-14.8,0,0,34.41,25.87,81.35,15.37s-3.13-43.48-3.13-43.48-22.35-19.5-26.37-42.74c0,0,5.36,11.23,21,24.36,0,0-22.36-26.25-17.43-55.5s25-46.49,23.68-58.1c0,0-5.8,11.25-18.78,21.74,0,0,12.53-16.86,5.82-31.49s-40.22-18-40.22-18S871.18,3,860.9,0h159.58s-40.24,5.29-53.19,19.15c0,0,7.6-9.92-2.91-12.92S938,18.6,951.19,31.16c0,0-29.28,27.37-17.21,58.48s35.32,39,35.32,39a38.06,38.06,0,0,1-23.25-7.49s0,13.5,30.41,34.12,55.86,51.37,54.53,77.61l-8.94-15s6.69,10.87,4,38.62,14.76,59.23,14.76,59.23,5.81,29.63-46.49,52.13c0,0,29.52-16.24,33.51-44.62,0,0-3.13,5.62-12.5,13.87,0,0,11.17-21.75,3.58-42S985.84,255,985.84,255s13.41,4.5,23.25,13.5c0,0-13.86-29.62-56.78-40.87,0,0,15.65-.37,39.34,7.88,0,0-25.14-16.91-59.36-11.74,31.32,12.94,61,61.49,60.25,74.34-.91,15.74-3.14,40.49,2.67,31.11s8.5-21,8.5-21c5.82,18.36-11.62,54-31.75,68.23s-21.45,31.88-21.45,31.88c9.4-12,25-9.77,25-9.77-17.43,3-19.67,39.76-62.12,57s-77.79,1.5-77.79,1.5c51.85,1.12,69.28-23.62,64.37-30.75s-22.79,0-22.79,0,17.87-9.37,32.63-12.74,36.21-23.25,32.63-32.63-29.05-4.87-29.05-4.87,9.38-1.12,27.7-7.5,37.55-55.11,30.4-66-17-66-25.92-14.24-71.52,84-71.52,84,3.57-13.69-28.85-4.88-33.07,24.38-32.18,31.69a13,13,0,0,1-4.47,11.43c4.47-2.44,7.6-8.07,7.6-8.07,3.13,13.13-21.9,18.38-21.9,18.38s11.62-11.25,1.79-27.75S811.72,362,811.72,362c78.67-27.37,104.59-62.62,104.59-62.62l-6,15.19S933.07,288,929.5,263.22a90.46,90.46,0,0,0-13.58-35.37,98.64,98.64,0,0,0-17.25,8s4,38.24-21.9,66-84,30.74-84,30.74A191.79,191.79,0,0,0,858,325.47s-23.7,17.62-86.73,18.74c0,0-22.8,20.63-25,43.49s16.53,32.24,16.53,32.24-7.15,1.5-18.77-1.5a222.18,222.18,0,0,0,21.46,44.24c14.31,22.5,6.25,60.73,6.25,60.73s-5.36-47.61-31.28-69-58.12-44.24-63.93-65.24c0,0,8.93,15.75,34.86,27,0,0-36.2-23.63-41.13-69s7.16-97.5,7.16-97.5-11.17,69,13,100.49c0,0-13.86-34.5,4.47-70.5s50.95-117.33,41.57-154.83-30.85-40.5-30.85-40.5,32.19,0,46.05,25.13c0,0-8.5,15.37-1.8,25.88s20.57,6.73,22.8-.39,9.83-12.38,17-9.37c0,0-10.27,3-10.27,12.75s-1.79,31.49-23.25,46.86-37.1,49.12-29,53.24a13.7,13.7,0,0,0,14.3-.74,111.2,111.2,0,0,1-19.68,19.49c-12.5,9.75-26.8,35.61-8.48,57.55ZM576.38,102.21s-6.7,24.74,5.36,44.24,23.71,29.6,26.38,37.49a135.27,135.27,0,0,1,4,14.25l2.23-15.76s8.06,12.76,3.58,37.11,14.75,54.74,14.75,54.74-37.09-25.87-40.67-51,1.79-44.24-17-59.24S559,110.46,559,110.46l5.35,12a140.38,140.38,0,0,1,0-25.48C565.65,84.59,559,66.22,559,66.22s16.08,15.37,17.42,36ZM530.06,33.82a5.81,5.81,0,0,1,1.51-.22s-.58-.46-1.51-1.29v1.51ZM563.84,0H546.43C551.35,19.64,533,33.58,533,33.58s6.7-.36,24.58,14.63,39.79,43.49,38,61.87,8.93,46.48,8.93,46.48,2.24-29.24,5.37-52.48-14.3-47.23-14.3-47.23V75.21s-8.94-21.75-21.46-37.11C562.48,23.75,565.09,1.53,563.84,0Zm92.55,257.79c0-25.12,13.42-34.12,13.42-34.12-10.73-14.62-8.95-28.87-8.95-28.87,7.16,15.75,14.75,19.88,14.75,19.88s-10.73-21-.88-68.23-5.82-62.62-5.82-62.62c1.78,12.74-6.26,22.11-6.26,22.11.45-22.11-21.45-55.1-39.34-68.23S601.86,0,601.86,0H588a97.92,97.92,0,0,0,18.78,43.35L593.36,32.09c6.71,19.12,29.95,26.24,42.47,58.11S639,149.06,639,149.06c-4-8.61-13.41-16.11-13.41-16.11s17.88,43.49,13.86,75.74,17,49.1,17,49.1ZM641.64,0s-6.93,13,6.49,26.27,21.22,15.94,21.22,15.94l-6.71-11.43A78.64,78.64,0,0,1,686.79,48.2C698,60.21,696,70,696,70s6.71-18,5.58-32.62S691,17.84,691.71,11.66c0,0-2,5.24,0,9s2,9.92,2,9.92.46-4.31-9.38-10.49S668.91,0,668.91,0Zm55.43,450.69c-8.5-5.63-15.65-30.75-15.65-30.75l4.92,41.61s37.1,29.37,33.52,44.25a62.11,62.11,0,0,1-13.41,25.33h43.36s-6.69-14.46-14.75-40.33-38-40.11-38-40.11Zm141.7,80.44h63.92c28.16-5,38.45-12.2,38.45-12.2v12.2h29.05s-9.84-12.59-7.6-26.46,19.67-27.74,19.67-27.74c-8.94,16.87-4,21.38-4,21.38-.89-11.64,25.94-46.87,45.6-73.49S1039,359.58,1039,359.58c-5.35,13.13-25.92,21.76-25.92,21.76l-12.74,24.17,15-12.56s1.77,15-13.42,36.36-42,28.87-50.06,51.74-24.15,27.38-24.15,27.38l3.58-13.13c-16.08,22.5-92.53,35.83-92.53,35.83Zm119.81-464c28.61-1.88,55.41,5.25,70.63,16.5s21.9,38.24,16.52,71.22S1057.35,216,1057.35,216l-14.29-19.49s1.21,14.36,19.22,57.07V91c-10.33-7.89-21.82-16.3-31.29-26.8-21-23.26,4.9-40.5,4.9-40.5-54.08-2.24-69.27,26.61-69.27,26.61,21.9-2.61,34.87,6.39,34.87,6.39-28.17-1.87-42.91,10.5-42.91,10.5Zm103.7,381.66V375c-1.22,14.06-4.37,31.65-12.07,46.41-15.65,30-17.89,31.49-17.89,31.49V438.32s-11.17,23.62-9.37,54.36-42.47,38.45-42.47,38.45h81.8s-18.78-50.82,0-82.32Zm-274-257.56c9.16-13.69,29-12,48.72-15.76a96.83,96.83,0,0,0,33.64-13.4l-11.07,9.28s10.73-2.44,17-7.68S892,141.38,884.35,126s-6-23.63-6-23.63c-4.69,6.93-2.68,16.3-2.68,16.3s-6.69-3.38-7.37-15.75,12.74-28.11,10-40.48S853.73,40,830.71,33.4a108.16,108.16,0,0,1-38.44-20.24S803,29.46,826.69,36,851.94,46,851.94,46a52,52,0,0,0-12.51-3.55s17,6.93,18.1,15.18S849.71,72.22,849,92.27,846.58,129,846.58,129l8-17.63s1.33,7.87-6.27,31.5-48.71,29.61-48.71,29.61,17.42-13.87,21.9-59.6-35.77-61.11-35.77-61.11c11.19,8,12.75,16.68,12.75,16.68-6.26-9.37-31.53-18.56-51-29.63S706.22,6.59,706.22,6.59s24.37,39.18,36.66,54,38.88,27.2,38.88,27.2-2.91-4.13-10.5-11.07-10.5-17.82-10.5-17.82,16.53,14.25,30.17,25.69S805,117,805,117c4.7-10.13,2-21.74,2-21.74a48.12,48.12,0,0,1-3.58,46.11c-15.19,24-15.19,49.87-15.19,49.87Zm-28.61,74.42s2.25,28.87,47.38,31.66,55-45,47.61-58.85c0,0,3.58,17.82-9.84,36.93,0,0,11-23.62-7.15-41.43,0,0,4,6.94,3.13,12.56,0,0-6.42-14.17-26.36-16.89a17.13,17.13,0,0,1,7.83,7.89,32.38,32.38,0,0,0-3.49-.19c-6.41,0-11.63,1.88-11.63,4.17s5.22,4.18,11.63,4.18a29.67,29.67,0,0,0,4.56-.34c-1.28,7.78-9.27,13.78-18.95,13.78-9.31,0-17.06-5.55-18.77-12.91a7.35,7.35,0,0,0,2.15.31c2.69,0,4.87-1.36,4.87-3s-2.18-3-4.87-3a7.4,7.4,0,0,0-2.27.35,14.09,14.09,0,0,1,2.78-6.15c-7.78,4.56-12.53,11.26-12.29,16.95,0,0-3.36-7.31,5.36-16.5,0,0-20.56,12.56-14.75,35.24,0,0-6.93-6-3.8-20.8C762.77,249.54,757.63,258,759.64,265.67Z"/><path class="cls-1" d="M338.22,0s-1.33,11.45-38.89,22.7-74.19,37.48-71.51,56.22c0,0-7.7-12.64,9.83-32.23s19-24.18,19-24.18-51.19,15.17-74.43,21.93,10.44,50.9-25.13,82.86-47.29,33.35-47.29,33.35,8.55,26.79,54.55,29.27c0,0-33.52,12.75-54.32-2.64s-32.41,1.13-32.41,1.13l20.56,21.74,43.2,8s-38,20.78-50,69,4.76,82.66,9,81.2-40-8.08-48.5-40.67c0,0,2.27,23.72,25.66,48.21s-1.84,48.37,0,53.41,8.09-17.46-8.9-38.45S11.8,386.37,0,344.37V0Z"/><path class="cls-2" d="M359.68,328.62s21.46-52,18.78-78.88-22.35-56.09-17.89-83.08c0,0,0,12.74,10.74,26.23S405,154.18,394,124.43,326.49,65,366.34,0h165.9V531.14H263.12S123.94,500.86,96,434.35c0,0,21.46,32.73,120.68,60.73,0,0-19.65-10.49-25-16.12,0,0,25.48,13.49,61.7,0s-17.44-22.86-64.37-21.37S129,416.73,129,416.73l-28.61-58.49s-21-38.24-21-41.24,22.34-58.12,36.65-72,6.7,56.23,28.61,77.61,61.24,24,86.71,40.86,34.84,13.64,34.84,13.64S279,389.53,275.65,407s16.08,21,16.08,21-12.06-9-6.25-21.74S281,380,281,380s13.86,5.25,11.18,15.74,7.32,24.21,7.32,24.21,9.66-3.59,23.52-13S359.68,328.62,359.68,328.62Z"/><path class="cls-3" d="M265.37,236.77l11.45,4s5.83,3.45-.12,5.43-21,3.2-22.16,3.1-15.55-4-15.55-4-7-5.27,1.06-7.8,6.76-5.09,6.21-5.09-8.72,1.77-8.72,1.77-5.5,3-5,3.47,4.33,12.19,4.33,12.19,7.3,8.7,7.46,9.32,4.06,2.68,5.86,3a47,47,0,0,0,7.49.37c2.33,0,3.9.29,5.8-.09s8-2.49,10-3.2,5.45-5.7,5.9-7.39,1.56-3.85,1.9-5.42,2.18-4.73.89-6.24-6.11-8-6.87-8.46S265.37,233.88,265.37,236.77Z"/><path class="cls-4" d="M204.13,294.33c-3.58-3-15.63-27-15.87-31.31s7.39-25.67,8.51-26.43,5.13-4.31,5.13-4.31,8.81,49.65,35.21,53.33S274,285,274,285s18-9.69,21.56-22.77,17.22,7.32,16.56,8.62S294.66,297.14,286.16,299s-27.71,5.64-34.86,4.14S204.13,294.33,204.13,294.33Z"/><path class="cls-5" d="M299.51,249.54c-2,0,7,21.53-15.58,36.54s-56.18,10.29-67.65-5-3.43-33.64-3.43-33.64l-3.8-14.24s-13.4,5.25-13.64,6.74-3.57,25.69-.66,31.87,18.1,20.26,27.26,26.05-13.18,9,16.77,9,30.84,1.68,39.78-.19,9.39-.38,17-7.88,14.55-10.13,14.55-16.12-2.46-26.42-3.36-27.93S300.69,246.14,299.51,249.54Z"/><path class="cls-6" d="M288,272.48l-3.59,3s-8.7-15.75-10.39-15.67-6.25,2-5.92,3.84S274,285,274,285s-2.67,1.51-2.89.76-3.68-21.85-9.5-21.93-5.25,12.74-5.25,12.74,0-6.56-2-10.21-4.36-.75-4.36-.75l-5.26,21.27h10.61l1.24-8.34,1.89,9s-17.64-1.59-21.34-3.28a26,26,0,0,1-5.92-3.65l10.16-20s-10.62,15-12.39,15.38-6.37-3.86-6.94-5.34a63.34,63.34,0,0,1-1.22-7.78l19-7.51s-20.68,3.85-20.56,3.38,3.36-10,4-10.69,12.3-.47,12.3-.47l-10.17-2,7.15-7.12,3-2.25s-3.36,19.12,18.83,25c0,0,12,2.2,20.5-6.23s2.35-20.52,2.35-20.52,13.71,16,13.71,16.55S294,264.42,294,264.42l-12.87-10.77,9.73,12.56Z"/><path class="cls-7" d="M298.36,242.58s3.44,20.67-2.63,27.77-9.89,15.34-29.55,18.54-38.17.21-48.68-13.48a37.41,37.41,0,0,1-7.21-28.7S221,231,222.14,231s26.16-4.12,26.16-4.12l1.33,5.82s-16.76,3.37-23.25,15-5.58,24,10.07,31.32a29.32,29.32,0,0,1-8.28-1.7s6.27,10.13,35.32,7.7,27.93-28.27,26.82-33.36c0,0-.9,21.91-21.9,25.84,0,0,18.18-2.75,17.92-25.84s-27.1-25.14-27.1-25.14S285.61,227.59,298.36,242.58Z"/><path class="cls-8" d="M349.14,314.78S333.93,285.17,321,271.29c0,0-12.06-44.42-48.06-50.8s-36-9-36-9a89,89,0,0,0,23.23,2.05,77.32,77.32,0,0,1,23,2.44s-6.27-7.88-29.5-8.06-31.52-9-31.52-9-1.34,4.32,3.12,8.25c0,0-11.84-2.81-15-14.82,0,0-34.43,25.87-81.36,15.37s3.13-43.48,3.13-43.48,22.35-19.5,26.37-42.74c0,0-5.37,11.23-21,24.36,0,0,22.36-26.23,17.44-55.48s-25-46.51-23.69-58.12c0,0,5.81,11.25,18.78,21.74,0,0-12.53-16.86-5.82-31.49s40.23-18,40.23-18S191.11,3,201.39,0H41.81S82,5.29,95,19.16c0,0-7.6-9.93,2.93-12.93S124.28,18.6,111.1,31.16c0,0,29.27,27.37,17.2,58.49s-35.32,39-35.32,39a38.19,38.19,0,0,0,23.26-7.51s0,13.5-30.41,34.12S30,206.62,31.3,232.86l8.94-15s-6.7,10.86-4,38.61-14.76,59.24-14.76,59.24S15.66,345.34,68,367.84c0,0-29.52-16.24-33.52-44.62,0,0,3.13,5.62,12.52,13.87,0,0-11.19-21.75-3.58-42S76.46,255,76.46,255,63,259.48,53.2,268.48c0,0,13.86-29.62,56.78-40.87,0,0-15.64-.37-39.34,7.88,0,0,25.13-16.91,59.36-11.74-31.33,12.94-61,61.49-60.25,74.34.9,15.75,3.13,40.49-2.68,31.11s-8.49-21-8.49-21c-5.81,18.37,11.61,54,31.74,68.23s21.46,31.88,21.46,31.88c-9.4-12-25-9.77-25-9.77,17.44,3,19.67,39.76,62.13,57s77.79,1.5,77.79,1.5c-51.86,1.12-69.28-23.62-64.37-30.75s22.78,0,22.78,0-17.86-9.37-32.62-12.74-36.21-23.25-32.63-32.63,29.05-4.85,29.05-4.85-9.37-1.14-27.71-7.52-37.55-55.11-30.4-66,17-66,25.92-14.24,71.53,84,71.53,84-3.58-13.68,28.84-4.88,33.07,24.38,32.19,31.69a13,13,0,0,0,4.46,11.43c-4.46-2.43-7.6-8.07-7.6-8.07C243,415.63,268,420.88,268,420.88s-11.62-11.25-1.79-27.75S250.57,362,250.57,362C171.89,334.65,146,299.41,146,299.41l6,15.18S129.21,288,132.79,263.23a90.66,90.66,0,0,1,13.57-35.38,98.39,98.39,0,0,1,17.26,8s-4,38.24,21.9,66,84,30.75,84,30.75a192,192,0,0,1-65.27-7.13S228,343.09,291,344.21c0,0,22.8,20.63,25,43.49s-16.54,32.24-16.54,32.24,7.15,1.52,18.79-1.49a221.8,221.8,0,0,1-21.48,44.23c-14.3,22.5-6.25,60.73-6.25,60.73s5.37-47.61,31.3-69S380,410.21,385.78,389.2c0,0-8.92,15.74-34.86,27,0,0,36.21-23.61,41.13-69s-7.15-97.48-7.15-97.48,11.17,69-13,100.48c0,0,13.85-34.51-4.47-70.49s-50.95-117.35-41.57-154.85,30.84-40.5,30.84-40.5-32.18,0-46,25.13c0,0,8.49,15.37,1.79,25.88s-20.57,6.73-22.8-.39-9.83-12.36-17-9.37c0,0,10.28,3,10.28,12.76s1.78,31.48,23.24,46.85,37.11,49.12,29,53.24a13.71,13.71,0,0,1-14.3-.74,111.43,111.43,0,0,0,19.68,19.5c12.51,9.74,26.81,35.6,8.49,57.54ZM485.91,102.21s6.71,24.74-5.37,44.24-23.69,29.6-26.38,37.49a139.07,139.07,0,0,0-4,14.25l-2.23-15.75s-8.05,12.75-3.57,37.1-14.75,54.74-14.75,54.74,37.09-25.87,40.67-51-1.79-44.24,17-59.22,16.09-53.62,16.09-53.62l-5.36,12A141.56,141.56,0,0,0,498,97c-1.35-12.37,5.36-30.74,5.36-30.74s-16.09,15.37-17.43,36Zm46.33-68.39a6,6,0,0,0-1.53-.22s.59-.46,1.53-1.29v1.51ZM498.46,0h17.4c-4.92,19.64,13.4,33.6,13.4,33.6s-6.69-.38-24.57,14.63-39.8,43.48-38,61.85-8.93,46.49-8.93,46.49-2.24-29.25-5.38-52.48,14.31-47.24,14.31-47.24V75.22s8.95-21.75,21.46-37.12C499.81,23.77,497.2,1.53,498.46,0ZM405.9,257.79c0-25.12-13.42-34.11-13.42-34.11,10.73-14.63,8.94-28.87,8.94-28.87-7.15,15.75-14.75,19.88-14.75,19.88s10.73-21,.89-68.24,5.82-62.62,5.82-62.62c-1.79,12.74,6.27,22.11,6.27,22.11-.46-22.11,21.44-55.1,39.34-68.23S460.44,0,460.44,0h13.85a97.8,97.8,0,0,1-18.78,43.35l13.41-11.26C462.22,51.22,439,58.33,426.45,90.2s-3.13,58.86-3.13,58.86c4-8.61,13.42-16.11,13.42-16.11s-17.88,43.49-13.86,75.74-17,49.1-17,49.1ZM420.66,0s6.92,13-6.5,26.27-21.22,16-21.22,16l6.71-11.44A78.45,78.45,0,0,0,375.5,48.21c-11.17,12-9.16,21.75-9.16,21.75s-6.71-18-5.59-32.62,10.5-19.5,9.83-25.68c0,0,2,5.24,0,9s-2,9.93-2,9.93-.46-4.32,9.39-10.5S393.38,0,393.38,0ZM365.22,450.69c8.49-5.63,15.64-30.75,15.64-30.75l-4.92,41.62s-37.09,29.36-33.51,44.24a62,62,0,0,0,13.4,25.34H312.47s6.7-14.46,14.75-40.33,38-40.12,38-40.12ZM223.51,531.14H159.6c-28.17-5-38.45-12.21-38.45-12.21v12.21H92.1s9.84-12.6,7.59-26.47S80,476.93,80,476.93c8.94,16.87,4,21.38,4,21.38.9-11.62-25.92-46.87-45.59-73.49s-15.19-65.23-15.19-65.23c5.35,13.12,25.92,21.75,25.92,21.75l12.74,24.17L46.93,393s-1.77,15,13.42,36.36,42,28.87,50.07,51.74,24.14,27.38,24.14,27.38L131,495.3c16.08,22.5,92.52,35.84,92.52,35.84Zm-119.8-464C75.1,65.27,48.29,72.4,33.09,83.65s-21.9,38.24-16.54,71.22S4.92,216,4.92,216l14.31-19.5S18,210.85,0,253.56V91c10.34-7.88,21.82-16.31,31.3-26.81,21-23.26-4.91-40.48-4.91-40.48,54.09-2.26,69.28,26.61,69.28,26.61-21.9-2.63-34.87,6.38-34.87,6.38C89,54.78,103.71,67.15,103.71,67.15ZM0,448.81V375c1.23,14,4.37,31.64,12.09,46.42C27.72,451.45,30,452.93,30,452.93V438.32s11.17,23.62,9.37,54.36,42.47,38.46,42.47,38.46H0s18.78-50.83,0-82.33ZM274,191.25c-9.17-13.68-29.06-12-48.71-15.76a96.72,96.72,0,0,1-33.65-13.4l11.07,9.29s-10.73-2.45-17-7.69-15.42-22.3-7.81-37.67,6-23.63,6-23.63c4.68,7,2.67,16.32,2.67,16.32s6.7-3.38,7.38-15.76S181.29,74.83,184,62.46,208.55,40,231.58,33.4A108,108,0,0,0,270,13.16S259.29,29.46,235.6,36,210.34,46,210.34,46a53.14,53.14,0,0,1,12.52-3.55s-17,6.93-18.1,15.18,7.82,14.63,8.48,34.68S215.71,129,215.71,129l-8.06-17.64s-1.33,7.87,6.27,31.5,48.72,29.62,48.72,29.62-17.42-13.88-21.9-59.61S276.5,51.78,276.5,51.78c-11.18,8.06-12.75,16.68-12.75,16.68,6.27-9.37,31.53-18.56,51-29.61S356.08,6.59,356.08,6.59s-24.38,39.18-36.66,54-38.9,27.19-38.9,27.19,2.91-4.13,10.51-11.07S301.52,58.9,301.52,58.9,285,73.14,271.36,84.59,257.28,117,257.28,117c-4.7-10.13-2-21.74-2-21.74a48.19,48.19,0,0,0,3.57,46.12c15.2,24,15.2,49.86,15.2,49.86Zm28.61,74.42s-2.24,28.87-47.38,31.68-55-45-47.62-58.87c0,0-3.57,17.82,9.85,36.93,0,0-11-23.62,7.15-41.43,0,0-4,6.94-3.13,12.57,0,0,6.42-14.18,26.36-16.9a17,17,0,0,0-7.83,7.91,27.79,27.79,0,0,1,3.49-.2c6.4,0,11.62,1.87,11.62,4.16s-5.22,4.18-11.62,4.18a29.44,29.44,0,0,1-4.55-.34c1.27,7.78,9.26,13.78,18.94,13.78,9.31,0,17.07-5.55,18.77-12.91a7.4,7.4,0,0,1-2.15.31c-2.68,0-4.87-1.36-4.87-3s2.19-3,4.87-3a7.35,7.35,0,0,1,2.27.35,14.27,14.27,0,0,0-2.78-6.14c7.78,4.57,12.53,11.25,12.29,16.94,0,0,3.36-7.31-5.37-16.48,0,0,20.56,12.55,14.77,35.23,0,0,6.92-6,3.78-20.81C299.51,249.54,304.66,258,302.65,265.67Z"/><path class="cls-8" d="M559.63,181.88s14.07,5.24,12.51,23.8,5.59,25.87,5.59,25.87-11.62-5.24-15.42-14.61-4-15.19-4-15.19l4.24,6.94s2-4.31,0-12.2A139.29,139.29,0,0,1,559.63,181.88Z"/><path class="cls-8" d="M504.17,182.13s-14.08,5.24-12.51,23.8-5.6,25.87-5.6,25.87,11.63-5.25,15.43-14.63,4-15.18,4-15.18l-4.24,6.94s-2-4.32,0-12.19A140.39,140.39,0,0,0,504.17,182.13Z"/><path class="cls-8" d="M580.65,254.05s11.17,19.87,27.71,28.87,25,30.37,25,30.37-8.5-11.62-25.93-17.63a76.92,76.92,0,0,1-28.16-17.23l20.56,6S578.85,273.55,580.65,254.05Z"/><path class="cls-8" d="M483.15,254.29S472,274.16,455.44,283.16s-25,30.37-25,30.37,8.5-11.63,25.93-17.62a76.86,76.86,0,0,0,28.17-17.24l-20.57,6S485,273.79,483.15,254.29Z"/><path class="cls-8" d="M614.16,318.54s15.2,4.12,19.67,16.5,5.37,26.25,5.37,26.25A156,156,0,0,0,624,342.15C614.61,332,614.16,318.54,614.16,318.54Z"/><path class="cls-8" d="M449.64,318.79s-15.2,4.12-19.68,16.48-5.36,26.25-5.36,26.25a155,155,0,0,1,15.19-19.12C449.19,332.28,449.64,318.79,449.64,318.79Z"/><path class="cls-8" d="M541.07,169c0-1.87-11-15-11-34.11s-.16-33.75-2.39-36-8,10.13-8,10.13,3.57,1.87,0-15.37,12.62-35.24,12.62-35.24-7.06,12.37,0,21.36,15.1,19.88,15.1,19.88-9-5.26-12.06-5.26,10.73,8.25,8.48,26.25S536.17,145.33,541.07,169Z"/><path class="cls-8" d="M787.26,438.51s21.9,3.95,29.27-9.37,28.84-22.67,28.84-22.67L836.65,419s5.37,4.12,12.73-4.32,39.79-17.62,39.79-17.62-27,13.31-28.16,20.43-30.84,21.37-30.84,21.37l5.81-9.75S813.86,447.32,787.26,438.51Z"/><path class="cls-8" d="M276.54,443.21s-21.9,4-29.27-9.37-28.84-22.68-28.84-22.68l8.72,12.57s-5.36,4.12-12.73-4.32-39.79-17.63-39.79-17.63,27.05,13.32,28.16,20.45,30.84,21.36,30.84,21.36l-5.81-9.75S249.94,452,276.54,443.21Z"/><path class="cls-8" d="M854.21,397.83s6.49-6.93,11.41-9.55,22.58-4.89,22.58-4.89A121.46,121.46,0,0,1,854.21,397.83Z"/><path class="cls-8" d="M209.59,402.53s-6.49-6.93-11.41-9.55-22.58-4.89-22.58-4.89A122.15,122.15,0,0,0,209.59,402.53Z"/></svg>