<svg id="Layer_1" data-name="Layer 1" xmlns="http://www.w3.org/2000/svg" viewBox="0 0 199.23 207.7"><defs><style>.cls-1{fill:#f2c08d;}.cls-2{fill:#c4925f;}.cls-3{fill:#b16d29;}.cls-4{fill:#e8b987;}.cls-5{fill:#d6a068;}.cls-6{fill:#f2dab7;}.cls-7{fill:#eece9f;}</style></defs><title>Vector_Beach_1_5</title><path class="cls-1" d="M29.16,149.09h0l0,.07.09.18c.43.85.87,1.7,1.32,2.53a69.06,69.06,0,0,0,24.61,25.37l5.92,3.64L45.51,196.1l-.09.09c-4.18,4.25-1,11.48,5,11.48H109c.41,0,.83,0,1.24,0s.7,0,1.06,0h.47l0,0h57a6.71,6.71,0,0,0,4.64-1.81,6,6,0,0,0,.82-.93,6.82,6.82,0,0,0,1.36-3.24,6.46,6.46,0,0,0-1.83-5.5l-.1-.09-15.62-15.22,5.92-3.64a74.21,74.21,0,0,0,10.76-8c.55-.5,1.1-1,1.63-1.52q1.62-1.54,3.12-3.19c1-1.09,2-2.22,2.9-3.38a61.71,61.71,0,0,0,3.92-5.42c.8-1.25,1.57-2.54,2.29-3.85.45-.83.89-1.68,1.31-2.53l.09-.18.05-.07h0a89.2,89.2,0,0,0,7.23-21q.58-2.76,1-5.58c.27-1.88.48-3.77.64-5.69a92.42,92.42,0,0,0,.18-11.67,88.32,88.32,0,0,0-5.82-27.54c-.63-1.63-1.29-3.25-2-4.84a89.68,89.68,0,0,0-10.47-17.47,91.87,91.87,0,0,0-9.67-10.72h0c-1.26-1.19-2.55-2.36-3.88-3.48h0q-3.35-2.84-7-5.34a89.56,89.56,0,0,0-18-9.61c-2.56-1-5.17-1.91-7.83-2.68a88.68,88.68,0,0,0-20.78-3.43L112,20v0h-4.84v0A89.25,89.25,0,0,0,51.76,41.18l0,0c-1.33,1.12-2.61,2.29-3.88,3.48v0a89.4,89.4,0,0,0-27,52.5L20.68,97c-.32,2.22-.53,4.46-.68,6.72l.19.22c-.12,1.9-.19,3.8-.19,5.72A89.18,89.18,0,0,0,29.16,149.09Z"/><path class="cls-2" d="M153.71,176.1,99.82,123.57c-6.36-6.36-14-6.36-20.41,0L25.51,176.1l-.09.09c-4.18,4.25-1,11.48,5,11.48H148.82c6,0,9.17-7.23,5-11.48Z"/><path class="cls-3" d="M148.82,187.67c6,0,9.17-7.23,5-11.48l-.1-.09L99.82,123.57c-3.18-3.18-6.7-4.77-10.21-4.77v68.87Z"/><path class="cls-4" d="M170.08,129.09h0a89.4,89.4,0,0,0,9.05-43.89C176.91,39.31,139.6,2.13,93.7.09a89.62,89.62,0,0,0-84.54,129h0l0,.07.09.18c.43.85.87,1.7,1.32,2.53a69.06,69.06,0,0,0,24.61,25.37L77.13,183c7.35,6,17.52,6.49,25,0L144,157.24a69,69,0,0,0,24.62-25.37c.45-.83.89-1.68,1.31-2.53l.09-.18Z"/><path class="cls-5" d="M179.12,85.2C176.91,39.31,139.6,2.13,93.7.09,92.33,0,91,0,89.61,0V187.67A17.16,17.16,0,0,0,102.09,183L144,157.24a69,69,0,0,0,24.62-25.37c.45-.83.89-1.68,1.31-2.53l.09-.18.05-.07h0A89.4,89.4,0,0,0,179.12,85.2Z"/><path class="cls-6" d="M92,0H87.19V173.49L31.74,21.15c-1.33,1.12-2.61,2.29-3.88,3.48L82.32,174.24.68,77C.36,79.17.15,81.41,0,83.67L87.16,187.54l2.45.13,2.42-.29Z"/><path class="cls-7" d="M178.33,77,96.69,174.24,151.15,24.63c-1.26-1.19-2.55-2.36-3.88-3.48L92,172.9V0H89.61V187.67l2.16,0L179,83.67C178.86,81.41,178.65,79.17,178.33,77Z"/></svg>