<svg id="Layer_1" data-name="Layer 1" xmlns="http://www.w3.org/2000/svg" viewBox="0 0 800 552"><path d="M694,552c-12.14-2-24.37-3.47-36.38-6-10.37-2.18-20.41-5.9-30.77-8.15-6.27-1.37-12.9-1-19.31-1.84a236.1,236.1,0,0,1-74.62-22.49c-4.34-2.15-9.56-2.7-14.46-3.48-14.18-2.25-28.34-4.79-41-12-5.47-3.11-9.82-8.17-14.81-12.18a21,21,0,0,0-5.05-2.62c-5.31-2.23-10.65-4.36-16-6.55-.14-.06-.26-.33-.36-.31-8.53,1.17-11.45-6-16.05-10.7-1-1-2.46-1.47-4.24-2.49l-4.67,12.21-1.86-.34c.52-4.24,1-8.49,1.68-13.84-7.2,4.85-3.65,12.13-5.74,17.47l-1.51.27c-.7-2.46-1.82-4.89-2-7.39-.54-6.51-2-7.71-8.26-7.11-2.28.22-4.7-1-8.05-1.86,3.72,5.55.22,9.43-1.91,13.6-2.51,4.88-5.11,9.73-7.57,14.63-1.57,3.14-4.36,6.05-2,10.06.31.55-.08,1.66-.41,2.39-3.72,8.5-7.49,17-11.44,25.89-23.72-11.66-47.12-23.15-71.16-35,5.23-9.17,10.29-18.1,15.43-27a2.65,2.65,0,0,1,1.92-1.24c5.85.31,7.28-4.24,9.26-8.22,1.63-3.27,4.56-6.54,4.55-9.81a18.69,18.69,0,0,1,2.13-8.31c1.21-2.59,3.06-4.88,4.85-7.65-2.49-2.32-5.44-5-8.29-7.75a12.91,12.91,0,0,1-2.41-15.94c6.38-11.72,6.37-11.71-3.73-20.24-7.13-6-14.22-12.07-21.35-18.09-1-.81-2.05-1.47-3.83-2.72-1,7.49,1.38,13.22,4.3,19a64.06,64.06,0,0,1,4.45,12c.39,1.4-.74,3.23-1.83,4.77-.07-10.75-6-18.73-11.2-27.63l-2.9,3.16c-3-2.31-6-4.41-8.74-6.83a7.59,7.59,0,0,1-2.46-4.08c-1.17-7.12-4.92-12.58-10.86-17.72-2.18,11.75,7.42,18,12.4,26.12l-2.43,1.52c-3-3.1-6.78-5.77-8.94-9.38a59.44,59.44,0,0,1-7-16.38,16.8,16.8,0,0,0-6.11-9.71c-44.72-37.31-94.58-64.82-151.19-79.46A277.27,277.27,0,0,0,21,254.05c-5.33.22-5.33.19-7-5.65L23.11,245,0,225v-5c1.9.43,3.85.71,5.7,1.3,13.78,4.35,27.47,9,41.34,13,4.2,1.22,8.89.79,12.76,2,3.28,1.92,6.51,4,9.88,5.71A10.83,10.83,0,0,0,74,243c6.64.33,13.57-.55,19.85,1.09,6.11,1.6,11.5,5.82,17.3,8.72a15.28,15.28,0,0,0,6.16,1.93c9.92.24,17.79,5.59,26.32,9.62,11.85,5.58,24.3,9.89,36.18,15.39,11.3,5.24,22.4,11,33.27,17.08,60.75,34.09,119.69,71.07,176.19,111.86,17.67,12.75,34.23,27.07,52.11,39.51,37.93,26.38,79.3,45.34,124.55,55.6,36.47,8.26,72.7,17.64,109.28,25.36,17.18,3.63,34.92,4.58,52.43,6.61,2.41.28,4.91-.23,7.29-.38.51-4.65,1-8.87,1.44-13.19l-4.28-2.9c7.15,1.68,7.92,1,9.65-8.92l-4.5-.93-5.14,9.87c1.72-5,3.44-10,5.13-15,7.72-.84,7.72-.84,9.58-8.73-7.47-1.46-8.82-.68-10.92,6.32-.67,2.22-1.33,4.45-2,6.68-2.8,9.29-2.81,9.29.59,16.68-1,2.49-1.89,4.6-3.16,7.68-6.78-.68-14.82-1.3-22.81-2.33-54-7-106.32-20.77-157.64-38.74-25.3-8.86-48.13-22.64-71.52-35.3-16.25-8.8-32.14-18.25-48.22-27.38-1.43-.81-3-2-4.52-1.95-8.56.05-14.43-5.2-20.67-9.87-36.3-27.11-72-55-109.15-81-21.6-15.11-45.32-27.23-68.28-40.37-9.67-5.53-19.68-10.51-29.79-15.17-8.13-3.74-16.65-6.62-25-9.87-11.06-4.3-21.62-9.46-31.69-18.3l10.9-8.94-.66-1.29-38.56-1.76,13.58-5.22c-4.47-6.66-5.51-6.94-12.54-5.26-10.35,2.49-20.78,1.92-31.44.5l25.45-6.18c-1.93-6.22-5.07-8-10.41-6.55-12.45,3.44-16.21,2.19-25.41-8.62,5.27-4.49,10.79-8.73,15.77-13.53,6-5.76,11.67-11.84,17.12-18.11,2.09-2.41,3.81-3.39,6.7-1.91,10.93,5.6,21.9,11.13,32.81,16.77a62,62,0,0,1,5.63,3.7l1.45-1c-.73-1.73-1.14-3.72-2.26-5.15-2.84-3.61-1.72-6.14,1.87-7.95,5.05-2.53,10.24-4.78,15.34-7.22,4.31-2.07,8.54-4.31,12.85-6.36,11.52-5.48,23.06-10.9,35-15.42Q204,163.1,192.81,173c-1.74,1.55-3.4,3.19-5,4.86-3.61,3.69-7.31,6.84-12.6,8.44-7.4,2.22-13.73,6.54-17.58,13.18,11.43,4.91,22.72,9.58,33.84,14.61a78.42,78.42,0,0,1,13.92,7.8c14.92,10.87,31.65,18.26,48.23,26,19.41,9.08,38.52,18.57,57,29.64,28.94,17.33,61,28.12,93,38.32,39.12,12.46,78.7,23.46,117.92,35.64,10.4,3.23,20.15,8.54,30.27,12.73,14,5.79,28.21,11,42,17.24,13,5.89,25.17,13.71,38.37,19,16.76,6.75,34.21,11.76,51.31,17.68,3.72,1.28,7.1,3.55,10.83,4.8,14.17,4.78,28.42,9.32,42.64,13.95,1.4.45,2.8.87,4.3,1.33,0,14.62-7.3,24.72-19.58,33,12.69,5.68,25.85,6.21,38.66,9.07-.83,3.25-1.59,6.25-2.35,9.26l.42.14L781,439.83l.88.32c-1.75,5.28-3.47,10.57-5.27,15.83-2,5.82-3.65,11.8-6.19,17.38-4,8.92-9,17.44-13,26.37-2.92,6.5-4.83,13.44-7.46,20.08-.78,2-2.45,3.59-3.71,5.37l-1.14-.57c.23,1.28.46,2.57.75,4.17l-6.9,1.55c2,2.79,3.92,5.28,5.72,7.84,4,5.6,2.2,10-4.55,10.59-10.84,1-21.47-.57-32.11-3.15h31.13l.09-1.31-46.12-3.76c.83,3.09,1.49,5.05,1.84,7.07A26.72,26.72,0,0,1,695,552ZM93.92,208c.44.62.51.83.63.88q55.15,21.88,110.29,43.81c1.43.57,2.5,2,3.73,3.08l-.88,1.16-14.49-1.08a23.35,23.35,0,0,0,6.88,4.19c30.07,13.85,60,27.81,87.25,47.1,6.23,4.42,14.26,6.31,21.46,9.37C246.34,262.28,175.73,224.58,93.92,208ZM604.37,432.12l.71-1.14c-8-4.4-15.76-9.23-24-13.13-15.45-7.35-31-14.61-46.8-21.09-13.78-5.64-28-10.29-42.1-15.09-5.89-2-12-4.35-18.06-4.69-14.71-.84-29-2.79-42.88-8.1-5-1.94-10.3-3.35-15.46-5A109.87,109.87,0,0,0,431.06,372q22.59,10.48,45.21,20.95c2.36,1.09,4.76,1.9,6.34-1.47q-6.9-5-13.81-10.07l.58-1.37c1.59.36,3.34.41,4.75,1.12,8.93,4.46,17.73,9.17,26.67,13.6,7,3.46,13.82,8.27,21.25,9.63,20.1,3.7,39.21,10.18,58.07,17.66C588.26,425.25,596.29,428.75,604.37,432.12ZM389.77,455.9c0-7.88-5.76-16.71-11.21-17.59-10.8-1.73-17.93-7.68-22.86-17.28-4.5-8.76-11.83-14.56-21.23-17.53C323.05,417,324,419.79,342.39,428.75l-.44,5.14.95.45,4.08-5.8,32.23,19.4a46,46,0,0,1-2.83,6.85c-4.74,8-10.07,15.72-14.44,23.93-2.23,4.18-4.53,6.38-9.28,5.23-.13,0-.39.46-.58.71,3,5.36,6.73,5.9,10,1.21a94.05,94.05,0,0,0,6.74-11.08c2.54-4.9,5-9.4,12-4.39-1.14-4.25-5.89-6.48-2.65-10.69,2-2.6,1.24-7.64,6.9-7-1.15-2.78-2.15-5.18-3.15-7.58l1-.47ZM338,397.34c4.9,4.26,9.28,7.76,13.3,11.65s8.69,7.68,11.28,12.48a22.45,22.45,0,0,0,11.47,10.4c6.38,2.81,12.76,5.6,18.89,8.28-.27-1.49-.72-4-1.11-6.28-5.16-1.08-10.16-1.37-14.47-3.24s-8-5-11.49-8.11c-2.71-2.49-4.47-6-6.85-8.85-2.52-3-6.22-5.47-7.72-8.9C348.13,397.49,347.15,396.39,338,397.34Zm255.2,52.26c-5.28-.24-10-.72-14.75-.49-1.25.06-2.91,2.14-3.44,3.62s0,3.6,0,5.43c-.06,3.85,1.58,5.55,5.8,4.46a62.11,62.11,0,0,0,2-7.5c.62-4.27,3.06-3.35,5.7-2.58-.77,11.37-.77,11.37,2,12Zm29,22.5c.36-4,1-7.6.86-11.18,0-1.44-1.83-4.13-2.45-4-1.9.33-4.61,1.33-5.2,2.79-1.19,3-1.19,6.39-1.72,9.86Zm-42.32-3.72H571c.41,4.77.79,9.16,1.18,13.75l6.37.46C579,477.64,579.44,473.25,579.9,468.38Zm77.52,11.42c1.52-5.13,2.86-9.68,4.34-14.66l-14.38-3.44-.45,1.55,8.72,2.9-2.84,12.44Zm31.12,8.2c2-5.72,3.43-9.9,5.07-14.62l-6-.63C689.12,477.68,682.05,482.27,688.54,488Zm-41.64-5.1c-5.76-1.8-7.54.84-6.45,9.59C645.17,493.1,646.4,491.27,646.9,482.9Zm5,13.89c4.37-9.09,4.38-11.49-.07-13.4C652.75,487.74,648.07,491.58,651.94,496.79Zm74.62,8.75c-6.79.35-5.92,6-8.93,9l5.31,1C724.12,512.34,725.16,509.46,726.56,505.54Zm-43.77-14.38c.34,4.93-4.94,8.38-.7,13.24C686.14,497.43,686.5,494.39,682.79,491.16Zm65.51,20.31-1.94.15c-1.11,3.13-2.22,6.26-3.41,9.59,3.91.19,4.41-.11,6-5.15C749.35,514.72,748.55,513,748.3,511.47ZM615.82,488.85c4.15-.91,6-8.2,3.69-14C618.18,479.89,617.08,484.08,615.82,488.85ZM748,494.67l9-1.2-4.67-5.71Zm.77,13.76,2.3.47c.63-3.88,3.89-7.28,2.43-11.52l-1.58-.33Zm-40,4.12c4.19-1.65,5.82-6.42,4.48-12.52Z"/><path d="M800,333c-.51,1.9-1,3.8-1.54,5.7l-.61.11q-.5-6.87-1-13.73l-1.63-.59c-6.24,13.59-12.48,27.18-18.78,40.88l6.17,5.07c-2.7.52-5.69.22-7,1.56-1.56,1.57-1.85,4.54-2.39,7-1,4.75-1.72,9.58-2.83,14.31-1.74,7.37-1.51,9.49,1.61,12.7a36.07,36.07,0,0,0-3.13,5.42c-1.65,4.52-3.49,9.07-4.37,13.78-1.13,6-4.47,7.54-10.39,6.43,2.59-7.49,5.41-14.86,7.65-22.41,1.3-4.39,1.47-9.1,2.47-13.6,2.32-10.34,4.49-20.74,7.35-30.94,4.15-14.77,8.34-29.48,8.26-45,0-1.91-.41-3.81-.79-7.16-8.4,14.69-15.79,28.18-19.06,43.78l4.44,2.95c-6.65-.69-7.25,4.15-8.45,8.59-1.3,4.79-2.84,9.53-4.36,14.56l6.35,3c.34,4.21-5.17,8-.64,12.25-4.8,1.92-14,28.31-10.59,33.06l-11.83.63c4.46-10.21,8.92-19.67,12.69-29.4,1.56-4,3-8.88,2.12-12.87-2.44-11.58,2.45-21.55,5.37-32,2.09-7.45,4.87-14.76,6.21-22.33,1.6-9.12,2-18.45,2.92-27.69l-1.44-.78c-3.65,5-7.85,9.66-10.81,15-3.35,6.06-5.53,12.77-8.31,19.15-1.7,3.89-1.33,6.93,2.87,8.91,1,.46,1.71,1.4,2.27,3.31l-8.48-1.08q-4.11,11.63-8.4,23.82l2.74,1.61L729.24,385l5,1.36c-.15.18-.3.52-.44.51-3.67-.16-5,1.93-5.92,5.22-2.08,7.63-4.55,15.16-6.88,22.78,4.46,1.43,6.88.33,8.48-3.81a171.14,171.14,0,0,1,8.11-17.69c1-1.82,3.31-2.91,5-4.33l1.54,1.34L734,421.55l-22.26-8.05c2.68-9.72,5.47-19.23,7.84-28.84a22.36,22.36,0,0,0,.49-9.71c-1.86-8.64,2.62-15.86,4.44-23.68.74-3.18,1.17-6.45,1.94-10.72,3.44-1.08,3.46-5.38,3.81-9.5,1.25-14.75,2.52-29.49,3.69-44.25a47.17,47.17,0,0,0-.45-6.5c-6.45,9-19.26,42.13-21.26,54.41l6.94,3-.41,1.54-7.93-.51c-1.64,7.28-3.32,14.36-4.79,21.49-.55,2.68-1.63,3.91-4.41,5.09-3.56,1.49-6.37,4.77-10.09,7.75l10,4.54-12.45,31,9.28,1.1c2.15-7.54,4.26-15,6.5-22.86l5.93,1.55c-1.81,6.59-3.39,13-5.38,19.25-.83,2.63-.12,4,2.06,5.28,3.3,1.92,6.44,4.15,9.77,6,2.83,1.59,3.3,3.46.88,6.63-5.91-2.43-12.49-4.15-17.95-7.62-7.54-4.8-16-5.05-24.11-6.94-7-1.64-14-3.68-21-5.54.11-.52.21-1.05.31-1.58h11.79c2.13-9.69,4.21-19.21,6.41-29.24l6.06,1.67c-2.33,9.76-4.61,19.27-6.89,28.81,6.9,2,7.06,2,8.82-5.24,1.45-6,3.39-11.9,4.18-18a107.93,107.93,0,0,0,.53-19.28c-.07-1.63-2.75-3.13-4-4.43,5.47.71,6.21-4.16,7.32-8.78.82-3.39,1.73-6.77,2.75-10.11.9-2.92,1.94-5.74-2.51-7.48,4.94-.49,6.48-3.36,6.77-7.35,1.11-15.41,2.34-30.81,3.31-46.23.16-2.48-.77-5-1.19-7.56l-1.23,0q-2.43,17.61-4.85,35.22h-.94V282.51l-1.45-.35a46.25,46.25,0,0,0-2.6,5.81c-3.23,10.83-6.48,21.66-9.31,32.6-.48,1.89,1,4.3,1.69,6.75-4.26-.05-4.52,4-5,7.9-.8,6.25-1.63,12.48-2.53,19.33-4.12,1.7-12.3-.56-11.55,8.95L672.75,366,656.22,391.9l-.88-.3v-18l-1-.16-7.11,25.5-8.32-2.81c2.22-10.64,4.4-21,6.54-31.39.37-1.78,1.06-3.7.74-5.4-1.89-10,.69-19.47,2.61-29.08,3.34-16.75,4.37-33.73,4.32-50.79q0-10.2,0-20.4l-1.57-.18c-2.05,14.1-4.09,28.21-6,41.37V270.07l-.58-.22-13.91,42.49,8.64,5.91h-8.5c-1.51,5.53-3,11.07-4.93,18.05-.21-2.7-.31-3.94-.41-5.18l-.61,0L622,343.59l8.82,1.68c0,.2.07.4.11.6-1.78.33-3.55.76-5.33,1-7.44.88-7.45.86-9.94,9l16.09-1.44c-13.61,6.26-18.77,16.6-20.2,29.43V378.9H605c.43-9.28,1-18.38,1.21-27.48.07-2.75-.75-5.51-1-8.28a34.17,34.17,0,0,1-.15-6.31c1.79-18.87,4.13-37.7,5.32-56.6a72.81,72.81,0,0,0-4.88-31.58C598.78,269,592.15,288.08,590.6,309L605,310.32l.27,1.37A49.25,49.25,0,0,1,597.7,313c-5.1.13-8.14,1.8-8.86,7.49-.69,5.38-2.53,10.61-3.94,16.2l13,1.67c.11.41.22.82.32,1.23-1.07.52-2.11,1.35-3.23,1.47a19.26,19.26,0,0,1-6-.12c-5.79-1.23-9.14,1.14-10.66,7h10.86c-6.41,6-15.47,10.38-8.88,22L553.9,358.46c5.61-8.07,11.56-15.49,16.23-23.63a54.53,54.53,0,0,0,6.15-39.55,13.81,13.81,0,0,0-4.21-6.86c-7.24-6.36-14.79-12.36-21.75-19.63,6.79,2.1,13.66,4,20.35,6.33,17.15,6.07,17.23,6.43,14,24.19a98.7,98.7,0,0,0-1.82,18.59C585,306,587,294,589.32,282.14c.59-3.06-.3-4.63-3-5.8-9.13-3.91-18.2-7.94-27.13-12.58,7.86,1.85,15.77,3.48,23.53,5.66,3.31.93,4.74.17,6.07-2.84a111.69,111.69,0,0,1,8.84-16.27q-2.4,8.74-4.81,17.49l.75.23c3.29-8.08,6.59-16.16,10.36-25.41,4.79,7.61,6.12,14.87,7,22.15,2.64,21,1.06,41.86-.94,63,1.54-4.23,3.25-8.41,4.6-12.7,4.61-14.64,8.06-29.49,8.7-45,.16-3.86,2.12-7.65,4.08-11.36,5.72,7.11,3.77,15.64,6,24.23,6.93-10.74,14.36-20.49,17.61-32.17,1-3.55-1.52-9.53-4.42-12.33-3.95-3.83-9.55-6.61-14.92-8.2-9.43-2.79-17.66-6-19.61-17.17-.72-4.1-3.88-4.2-7-2.47-4.35,2.45-8.46,5.32-12.84,7.71-12.93,7.07-24.58,6.2-34.26-2.41-1.19-1.06-2.19-2.33-3.73-4,5.58-1.09,10.46-1.8,15.2-3,4.16-1.07,9.79-2.26,9.77-7,0-3.52-3.55-7.42-6.29-10.43-5.13-5.61-11.93-7.26-19.47-7.05-11.9.35-23.63,1.27-34.51,6.64-11.11,5.47-17.8,14.17-19.25,26.68-.89,7.65-2.88,8.85-10.46,6.33-2.65-.88-5.17-2.18-8-3.41-.42,1.2-.87,2.24-1.15,3.32A36.51,36.51,0,0,1,469,241.9c-8.41,7.81-14.78,17.21-16.15,29-.37,3.22.3,6.55.53,10.53l-11.63,3.9a98.17,98.17,0,0,1,2.37-32.52c4.13-18.19,12.57-33.58,29.42-43.26,1.23-.71,2.13-2.82,2.34-4.39,1.92-14.34,11.35-21.53,25.86-19.91a42.91,42.91,0,0,0,11.87-.33c5.07-.86,6.67-4.1,3.88-8.24-2.47-3.68-1.46-6.49.38-9.63,4.31-7.37,11.08-10.8,19.23-11.87,3.11-.41,6.77.5,9.29-.85,4.92-2.64,9.2-6.45,13.93-9.91-4.74-11.69-10-22.87-13.82-34.5-4.7-14.24-.78-44.84,21-54.16-.87,2-1.19,4.76-2.7,5.78-17.63,11.92-16.7,47.65-4.29,60.32,6.48,6.61,12.85,13.75,20.54,18.68,20.26,13,48.69-.86,52-24.72,3.68-26.87-7.94-44.45-30.66-57.44a22.38,22.38,0,0,0-6.55-2.29c-4.7-1-4.73-.84-6.91-6.24,16.74.48,32.83,2.26,48.39,8.88V45.72c6,7.1,11.29,14.31,17.54,20.57,5.48,5.47,12,9.95,18.09,14.74,19.5,15.21,38.29,31.11,51.5,52.46a45.88,45.88,0,0,1,3.19,6.76,28.22,28.22,0,0,1,1,3.79c-7.65,4.16-14.72,1.91-15.67-6.49-.68-5.93-3.73-9.19-9.28-12,9.39,22,17.74,43.8,20.52,67.67l-4.63-1.27-.52.77,21.53,16.06c7.19,5.35,14.39,10.69,21.17,16.78l-34.35-15.07c1,13,1.77,25.24,12.54,33.44,7.66,5.83,16,10.78,24,16.11a9.73,9.73,0,0,1,3.33,3l-29.9-11.46c5.2,20.27,11.55,39.62,10,60.7l15.94-16.42,1.39.42v26.29l1.14.31,13.7-18.6c3.08,12.09,1.88,23.09.62,35.44,4.25-5.82,7.77-10.71,11.37-15.53a33.9,33.9,0,0,1,4.86-5.66c.62-.54,2.4.28,3.65.47Z"/><path d="M362.15,242.34c-5.39,4.78-10.58,8.72-14.94,13.44s-2.93,9.2,3.45,11.17c5.31,1.64,10.55,2.31,16,0,5.64-2.42,11.54-4.28,17.38-6.2,13.54-4.46,22.47.87,24.22,14.89.62,4.88,0,9.94-.39,14.9a5.64,5.64,0,0,1-2,3.23c-4.62,4.07-9.27,8.13-14.13,11.92a5.19,5.19,0,0,1-4.37.49Q349.45,290,311.67,273.67a6.43,6.43,0,0,1-1.74-1c-17.69-15.28-39.64-23-59.94-33.58-24-12.55-48.22-24.84-72.34-37.26a7.27,7.27,0,0,1-1.15-1l39.21-10.67.42.58-11.67,8.6,11.8,14.54,10.62-6.25,6.93,12.57,1.08-.44c.82-4,1.29-8.13,2.54-12,2.07-6.38,5.54-7.51,11.51-4.5a16,16,0,0,0,5.14,1.55c13.65,1.64,19,8.94,16.19,22.32-.51,2.42-1.3,4.78-2.2,8.05,5.08-2.5,9.72-4.75,14.33-7.06,6.42-3.22,13.31-5.22,20.25-3.21,4.91,1.41,9.33,4.6,13.86,7.18,3.22,1.83,6.38,6.52,9.09-.53.25-.65,1.66-1.21,2.53-1.22C341,230.25,352.83,232.83,362.15,242.34Z"/><path d="M270.23,21.56c-1.66,7.76-.2,13.4,8.26,16.07-3.89,3-7,5.36-10,7.91-1.14,1-2.68,2.66-2.53,3.83.57,4.43-1.94,6-5.29,7.8-1.65.87-2.49,3.32-3.6,5.11-.23.37-.09,1-.09,1.48.05,7.26-.73,14.1-9.15,17.42l5.45,10.28c-4.92,0-9.23.41-13.44-.09-7.14-.84-13,1.38-18.2,6.09-3.7,3.37-7.5,6-12.86,3.09-.8-.44-3.3.63-3.87,1.64-5.07,9-12.5,12.37-22.86,12.54-7.47.11-14.9,3.11-22.32,5-1,.25-2.39,1-2.68,1.84-2.23,6.47-8.9,6.77-14,9.64l21.15-35.8c3.37,1,6.62,2.17,9.94,3,3.12.8,6.31,3.87,9.91-.43L170,89.54c8.81-5.77,17.92-11.1,26.3-17.4,6.59-5,11.7-12,18.51-16.53,17-11.36,34.61-21.83,52-32.63A30.81,30.81,0,0,1,270.23,21.56Z"/><path d="M486.76,30.48c1.94,9.65,3.88,19.31,6,29.74,9.06-8.74,13.3-22,28.65-20.16a18.33,18.33,0,0,1-1.24,2.75c-11.23,16.29-22.62,32.48-33.65,48.92-2.37,3.54-4.76,3.6-7.93,2.21s-7.69-1.2-6.87-7.09c.61-4.38.06-9-.31-13.43-.16-1.87-1.17-3.68-2-6-4.08,5.21-7.3,9.63-10.82,13.78-6,7-6,7-14,3.89L485.15,30.9Z"/><path d="M320,19.52,300.07,7.79l.55-1.55C303.41,7,306.16,8,309,8.6c6.79,1.36,13.22,8.14,20.63,1.55.24-.21.91.06,2.61.24l-6.08,6.52c5-.39,9.58-.88,14.14-1a19.65,19.65,0,0,1,6.38.83c4.91,1.5,6.14,5,2.47,8.49-5.36,5.14-11.37,9.59-17.72,14.85,0-.13.14.79.32,1.7,1.06,5.45.1,9.85-4.76,13.57-14.16,10.82-30.16,15.83-47.75,16.4a36.55,36.55,0,0,1-4.88-.63C287,51.35,304.06,36.52,320,19.52ZM293.93,58.19l1.26,2.23c5.47-1.16,11-2,16.37-3.61,2.37-.71,5.37-2.54,6.14-4.58a11.68,11.68,0,0,0-.66-8.58c-.67-1.32-5.33-2.35-6.43-1.42C304.74,47.19,299.43,52.8,293.93,58.19Zm43-32.06c-9.33-3.85-15.51-1.11-19.36,8.1C324.39,32.45,331.52,32.41,337,26.13Z"/><path d="M417.28,33.3l-5.64-3.75c1.75-4.57,4.38-7.07,9.58-7,8,.1,16-.54,23.94-.71a18.56,18.56,0,0,1,5.88.84c8.44,2.71,11.3,10.12,5.34,16.51a57.39,57.39,0,0,1-16.85,11.9c-8.74,4.23-9.7,4.52-9.48,14.5.1,4.61.72,9.21,1.15,14.36a45.64,45.64,0,0,0-6.65.06c-3.9.59-5.47-1.43-6-4.82-.47-3-1-5.91-1.25-8.88s0-5.95,0-9.13c-4.8-.28-8.39.46-10.12,5a7.08,7.08,0,0,1-.82,1.25c-6.25,9.36-8.54,9.94-19.35,4.76Zm-.93,13.54a56.59,56.59,0,0,0,6.5,0c7.95-1.08,15.89-2.49,21.14-9.4,1.16-1.53,1.9-4.54,1.18-6.11-1.68-3.69-14.85-4.76-17.24-1.53C424,35.06,420.53,40.64,416.35,46.84Z"/><path d="M401,30.91c.43,10.49-4.35,19.22-14.46,23.85a325.58,325.58,0,0,1-34.3,13.1c-7.1,2.32-16.63-8.83-14.7-16.94a24.37,24.37,0,0,1,4.78-10.23c8.58-9.78,18-18.73,30.08-24.2A44,44,0,0,1,384.25,13c10.13-1.41,16.2,3.93,16.74,14.14C401,28.1,401,29.1,401,30.91Zm-45.42,25.2c5.68-2.07,11.78-3.73,17.36-6.45,7.22-3.52,13.82-8.07,17.06-16,2.44-6,.59-9.94-5.6-11.92A15.33,15.33,0,0,0,369,25.18a231.48,231.48,0,0,0-19.25,20.11c-1.57,1.8-2.55,5.5-1.76,7.53C348.62,54.44,352.37,54.83,355.57,56.11Z"/><path d="M268.76,144.77c7.65-3.23,14.75-5.93,21.58-9.22,4.47-2.15,8.18-1.64,11.77,1.11-10.22,5.68-20.51,11.27-30.63,17.15a8.66,8.66,0,0,0-3.44,4.77c-3.55,12.44-6.85,24.94-10.35,37.86l-11.43-2.32c.73-10,8.63-18.29,5.53-29.68a47.44,47.44,0,0,0-4.13,4.74c-3.44,5.3-7.32,10.43-9.92,16.14-2.83,6.23-7.46,7.63-14.25,7.45,1.53-2.46,2.71-4.57,4.11-6.53,12.65-17.77,25.42-35.46,38-53.31,2.22-3.16,4.42-4.2,7.8-2.59C271.87,135,270.39,139.66,268.76,144.77Z"/><path d="M407.49,98c-.66,2.76-1.29,8.52-3.5,13.59-1.53,3.51-5,6.29-8,9-5.59,5-11.7,9.32-19.34,10.8-6.66,1.28-12.73,0-17.34-5s-3.2-11-1-16.47c5.91-14.69,15.85-25.32,31.79-28.93C401.77,78.28,407.52,83.21,407.49,98Zm-33.06,22.11c9.26-.33,20.92-9.64,23.62-18.81,1-3.52,1.74-7.57-1.81-9.42a13.33,13.33,0,0,0-9.68-.75c-9.17,3.46-15.09,10.52-18.65,19.6C365.38,117.2,367.56,120.38,374.43,120.13Z"/><path d="M628.11,103.59c-.17,16.83-7,26.94-18.45,29.83-4.64,1.17-6.73.07-7.3-4.68-1-8.42-1.6-16.88-2.33-25.32a4.13,4.13,0,0,1,.16-2.45c5.08-7.18,10.2-14.32,15.53-21.31.31-.39,3.21.27,3.81,1.17C624.58,88.4,628.05,96.59,628.11,103.59Z"/><path d="M390.21,216.31l-2.83,9.48-41.61-11.91c2.22-4.48,4-8.7,6.31-12.63C362.75,183,373.7,165,384.21,146.68c2.83-4.94,6-6.09,10-3.91l-33.77,64.4C369.18,215.45,380.34,213.84,390.21,216.31Z"/><path d="M302.53,205.47c2.51-4,4.65-7.54,6.84-11,3.19-5,7.22-9.71,9.42-15.13a52.17,52.17,0,0,1,11.64-17.45c5.7-5.79,10.42-12.54,15.84-18.62,1.44-1.61,3.92-2.3,5.92-3.42l.81,1.33-31.58,54.56,20.45,7.68c0,.56.06,1-.09,1.2-4.54,7.59-4.53,7.53-13.15,5.83C320.21,208.78,311.77,207.22,302.53,205.47Z"/><path d="M314.66,122c6.09-12,12-23.53,18-35.37H320.34c1.76-6.62,3.34-7.92,9.8-7.87q16.23.12,32.46.37A42.17,42.17,0,0,1,368,80c-2.4,8.19-2.43,8.54-10.25,7.87-5.76-.49-9.51,1.16-12.85,6.07-6.25,9.18-13.58,17.63-19.78,26.83C322.15,125.11,319.33,123.84,314.66,122Z"/><path d="M559.25,84.7c1.38-4,2.14-7.46,3.71-10.48,3.3-6.35,5.72-7,12-4,8.54,4.14,16.72,1.17,19.36-7.19a7.91,7.91,0,0,1,1.83-.07c12.23,2.25,13.58,5.57,6.35,15.53a7,7,0,0,0-.85,1.22c-4.83,11.4-13.13,12.86-23.94,9C572.13,86.83,566.11,86.17,559.25,84.7Z"/><path d="M544,88.47c-9.32,6.47-18.1,8.3-26.33-.67l-4.24,3.87c-1.23-1.62-2.14-3.51-3.63-4.59-1.22-.89-3.14-.81-4-1-.34-3.24-.69-6.45-1-9.33,4.63,1,9.72,2,14.73,3.36s9.8,2.94,15,3.59c-8.4-5.81-19.35-5.6-27.45-12,6.61-.36,12.77.19,18.69,3.34,3.7,2,8.08,2.89,12.27,3.6,6.69,1.12,6.73.87,6.23,7.42C544.09,87,544,88,544,88.47Z"/><path d="M272.51,195.69c5.23-7.78,10.23-15.17,15.16-22.61,2.1-3.18,4.23-6.35,6-9.71C297,157,296.9,157,305,156.83c-.58,1.29-1,2.4-1.59,3.47-6.19,11.91-12.35,23.84-18.62,35.71-1.39,2.62-3.06,4.54-6.13,1.29C277.66,196.23,275.37,196.38,272.51,195.69Z"/><path d="M382.82,200.5c-.63-1.91-1.22-3.69-1.85-5.58,2.8.33,6.08.61,9.32,1.13,2.34.38,3.56,2.79,5.46,4,7.43,4.7,16.22,4.49,23.58,8.86,1.7-2.28,3-4.06,4.37-5.87,4.79,4.17,4.79,4.17,2.56,12-.91-.41-1.82-.76-2.65-1.23s-1.65-1.11-2.46-1.67c-2.71,3.43-4.87,3.35-8.12-.23-4.13,1-23-8.25-25.33-12.69Z"/><path d="M585,101.59l-16.87,15.75a32.18,32.18,0,0,1-8.24-19.27Z"/><path d="M171.73,154.07c-7.54,8.3-14.79,16.9-22.79,24.72-2.71,2.64-7.28,3.49-11.14,4.71-.91.29-2.51-1.15-3.54-2.07-.23-.21.37-2,1-2.41q17.91-12.79,35.93-25.45Z"/><path d="M592.94,109.67c.51,9.26.95,17.12,1.42,25.63a52.63,52.63,0,0,1-5.52-.62c-10.81-2.48-11.81-5.25-5-13.73C586.56,117.51,589.36,114.09,592.94,109.67Z"/><path d="M380.06,185.34l38.49,15.83v1.54c-1.64,0-3.49.5-4.9-.08C403,198.32,392.49,193.84,382,189.3c-1.14-.5-2-1.71-3-2.59Z"/><path d="M591.75,35.36c-5.85-11.51-14.29-18.35-25-22.6C579.7,13.5,590.14,19,591.75,35.36Z"/><path d="M308.07,146.86c.59-5.34,5.79-9.57,9.36-8.76.82.19,2.11,1.13,2.1,1.69,0,1.36-.36,3.55-1.2,3.91A92.05,92.05,0,0,1,308.07,146.86Z"/><path d="M307,2.88c6.82-1.55,12.06,3,17.8,5.62C322.77,11,312.94,8.5,307,2.88Z"/><path d="M416.29,13.11H402.57v-1.4h13.57Z"/><path d="M175,96.11c-2.69-1.15-5.39-2.28-8.06-3.47a17.93,17.93,0,0,1-2.15-1.32C168.45,89.78,168.92,90,175,96.11Z"/></svg>