<svg id="Layer_1" data-name="Layer 1" xmlns="http://www.w3.org/2000/svg" xmlns:xlink="http://www.w3.org/1999/xlink" viewBox="0 0 137.11 143.8"><defs><style>.cls-1{fill:none;clip-rule:evenodd;}.cls-2{fill:#fcd826;}.cls-10,.cls-11,.cls-12,.cls-13,.cls-2,.cls-3,.cls-4,.cls-6,.cls-7,.cls-8{fill-rule:evenodd;}.cls-4{fill:#fefefe;}.cls-5{clip-path:url(#clip-path);}.cls-6{fill:#f4c986;}.cls-7{fill:#dfb270;}.cls-8{fill:#ffdead;}.cls-9{fill:#e6e7e8;}.cls-10{fill:#666;}.cls-11{fill:#a9abae;}.cls-12{fill:#ed3237;}.cls-13{fill:#f7ec2c;}</style><clipPath id="clip-path"><path class="cls-1" d="M57.77,107.18a88.45,88.45,0,0,1,21.19.24c23.17,1.78,24.62,24.18,27.15,36.15l-74.95.49C31.16,129.31,38.66,108.83,57.77,107.18Z"/></clipPath></defs><path class="cls-2" d="M93,113.16l1.91,3.2L94,132.49l2.2,4.84c.68,3.71-2.57,6.45-1.6,7l19.92-.25C113.13,141.31,111.82,114.85,93,113.16Z"/><path class="cls-3" d="M91,80.37l-48.48,2c-5.48-19.51-18-44.5,12-55.55,10-3.69,42.89-.39,42.66,19-.09,7.48-.92,30.08-5.86,34.53C91.28,80.4,91.11,80.37,91,80.37Z"/><path d="M91,80.37v-.19l-48.48,2v.19l.18,0c-2.76-9.84-7.29-21-7.29-31.11a23,23,0,0,1,4-13.77C42.4,33.29,47.19,29.71,54.61,27a30.07,30.07,0,0,1,9.77-1.32c6.7,0,14.89,1.34,21.37,4.5S97,38.31,97,45.62a1.41,1.41,0,0,1,0,.2c0,3.73-.27,11.25-1.1,18.38a71.22,71.22,0,0,1-1.76,9.88c-.77,2.85-1.75,5.07-2.93,6.13l.07.08,0-.1,0,0,.07.08,0-.1,0,0v0h0l0,0v0H91v.38h.19a.36.36,0,0,0,.26-.07c1.28-1.17,2.26-3.44,3-6.32,2.33-8.62,2.81-22.74,2.88-28.36v-.2c0-7.5-4.91-12.6-11.47-15.8s-14.78-4.54-21.54-4.54a30.49,30.49,0,0,0-9.9,1.34C47,29.37,42.15,33,39.16,37.2a23.37,23.37,0,0,0-4.11,14c0,10.18,4.56,21.4,7.31,31.22l0,.14,48.63-2Z"/><path class="cls-4" d="M57.77,107.18a88.45,88.45,0,0,1,21.19.24c23.17,1.78,24.62,24.18,27.15,36.15l-74.95.49C31.16,129.31,38.66,108.83,57.77,107.18Z"/><g class="cls-5"><path class="cls-6" d="M41.62,110.8l-2.79,2.34-6.72,14.7.29,5.3c-.72,3.7-1.84,10.13-1.13,11l12.84,1.76C43.79,142.81,48.55,116.94,41.62,110.8Z"/><path class="cls-6" d="M103.43,130.76c.83,2.81,3.48,11.91,2.73,13l-12,1.37C87,136.88,90,112.31,96.18,107.68c1.43-1.07-4.06.89.82,3l6.73,14.7Z"/></g><path class="cls-7" d="M76.75,96,58,95.46c-.09.25,1,12.27,1.44,13.73.78,2,4.86,15,8.71,15.06,4,.09,7.8-12.77,8.53-15.72Z"/><path class="cls-8" d="M55.89,39.32c-17.4,2.85-10.82,13.42-13.25,25.6-.92,4.59-1.07,9.93.6,20.13,1.47,9,10.27,19.83,19.37,22.14C74.15,110.12,88.3,98.93,90.35,88c1.71-9.15,1.18-21.41-.1-33.11C88.16,35.61,69.11,36.94,55.89,39.32Z"/><path class="cls-3" d="M44.06,43.32l2.56-.76C41,48,43,51.89,48.72,62.27c.81,1.46-5,3.61-5,12,0,4.64,1.58,5.42-.71,7.52a8.38,8.38,0,0,0-.58.94L40.68,62.89Z"/><path d="M44.06,43.32l0,.18,2.56-.76-.05-.18-.13-.14c-2.34,2.28-3.4,4.32-3.4,6.67,0,3.33,2.09,7.18,5.46,13.27a.38.38,0,0,1,.05.21c0,.25-.27.67-.74,1.22a14.27,14.27,0,0,0-4.34,10.45c0,2.72.54,4.15.53,5.19a2.16,2.16,0,0,1-.24,1,4.33,4.33,0,0,1-.94,1.14,1.93,1.93,0,0,0-.17.21c-.16.25-.35.63-.44.77l.16.1h.2L40.87,62.9l3.37-19.55-.18,0,0,.18,0-.18-.19,0-3.39,19.6L42.29,83.3l.3-.5c.07-.11.17-.31.28-.5A2,2,0,0,1,43,82a.73.73,0,0,1,.11-.14,4.48,4.48,0,0,0,1-1.25,2.66,2.66,0,0,0,.28-1.22c0-1.16-.53-2.52-.53-5.19a13.15,13.15,0,0,1,2.51-8.1A25.66,25.66,0,0,1,48.14,64,2.71,2.71,0,0,0,49,62.57a.77.77,0,0,0-.11-.39c-3.37-6.09-5.42-9.93-5.41-13.09,0-2.22,1-4.15,3.28-6.4l.55-.53-3.41,1,0,.11Z"/><path class="cls-3" d="M74.12,34.69l-22.47.18-3.34,6.81c8.31-4.42,11.35,8.31,21.85,3.06,6.59-3.29,5.92-6.67,14-2.47Z"/><path d="M74.12,34.69V34.5l-22.59.18-3.65,7.45.52-.28a7.19,7.19,0,0,1,3.4-.93c2.27,0,4.21,1.29,6.29,2.62s4.31,2.68,7.14,2.68a11.06,11.06,0,0,0,5-1.31,30.94,30.94,0,0,0,4.79-3A5.6,5.6,0,0,1,78.4,40.5c1.29,0,3,.54,5.66,1.94l2,1.05-11.9-9h-.06v.19l-.11.15,10,7.58.11-.15.09-.17c-2.69-1.4-4.43-2-5.83-2a5.88,5.88,0,0,0-3.58,1.43,32,32,0,0,1-4.75,3,10.62,10.62,0,0,1-4.84,1.27c-2.7,0-4.85-1.29-6.93-2.62s-4.08-2.68-6.5-2.68a7.54,7.54,0,0,0-3.58,1l.09.16.17.09,3.29-6.71,22.35-.18v-.19l-.11.15Z"/><path class="cls-3" d="M89.89,44.25H89c0,9.6,2,8.57-3.73,19-.81,1.47,5,3.62,5,12,0,4.63-1.59,5.41.71,7.51a6.63,6.63,0,0,1,.57,1l1.75-19.81Z"/><path d="M89.89,44.25v-.19H88.77v.19c0,4,.34,6.14.34,8a11.18,11.18,0,0,1-.76,4.13,49.8,49.8,0,0,1-3.29,6.72.87.87,0,0,0-.1.39A2.68,2.68,0,0,0,85.8,65c1.44,1.67,4.24,4.41,4.25,10.21,0,2.66-.53,4-.53,5.18a2.51,2.51,0,0,0,.28,1.22,4.48,4.48,0,0,0,1,1.25.87.87,0,0,1,.1.14c.15.23.34.6.44.76l.3.5,1.8-20.41L90.05,44.06h-.16v.19l-.19,0,3.38,19.55L91.33,83.62l.19,0,.16-.1-.27-.5-.16-.27a1.4,1.4,0,0,0-.17-.22,4.14,4.14,0,0,1-.94-1.14,2.13,2.13,0,0,1-.24-1c0-1,.53-2.47.53-5.18a13.6,13.6,0,0,0-2.58-8.33c-.64-.89-1.29-1.58-1.76-2.13s-.76-1-.75-1.22a.36.36,0,0,1,.06-.2,49.89,49.89,0,0,0,3.31-6.78,11.26,11.26,0,0,0,.78-4.26c0-1.92-.34-4.06-.34-8H89v.19h.93v-.19l-.19,0Z"/><path class="cls-8" d="M91.44,83.33c-.25-3.37,1.88-11,1.62-14.41,1.12-1.08,3-2.61,5.31,1.29,2.91,5.43-.78,10.44-2.23,12A9.66,9.66,0,0,1,91.44,83.33Z"/><path class="cls-2" d="M39.56,112.91l-1.91,3.19.92,16.14-2.2,4.84c-.68,3.71,2.57,6.45,1.6,7l-19.92-.25C19.47,141.06,20.78,114.6,39.56,112.91Z"/><path class="cls-8" d="M42.34,83.1c.25-3.38-1.87-11-1.62-14.41-1.11-1.09-3-2.61-5.31,1.29-2.91,5.43.79,10.44,2.24,12A9.74,9.74,0,0,0,42.34,83.1Z"/><path class="cls-3" d="M67.44,81.59c-13.17.21-18.17,15.15-9.32,9.35,4.27-2.8,14.44-2.61,18.39.41C84,97.11,80.2,81.38,67.44,81.59Z"/><path d="M67.44,81.59V81.4a16.19,16.19,0,0,0-10.25,3.76,12.92,12.92,0,0,0-2.75,3.12,5.62,5.62,0,0,0-1,2.73,1.49,1.49,0,0,0,.35,1,1.31,1.31,0,0,0,1.05.4,6.69,6.69,0,0,0,3.34-1.36c2-1.3,5.3-2,8.66-1.95,3.73,0,7.5.81,9.51,2.35a5,5,0,0,0,2.8,1.31,1.23,1.23,0,0,0,1-.46,1.94,1.94,0,0,0,.32-1.16c0-1.58-1.14-4-3.3-6.06a13.6,13.6,0,0,0-9.52-3.74h-.26v.38h.25A13.25,13.25,0,0,1,77,85.4c2.11,2,3.19,4.38,3.18,5.79a1.53,1.53,0,0,1-.24.92.83.83,0,0,1-.71.32,4.82,4.82,0,0,1-2.56-1.23c-2.14-1.63-6-2.43-9.75-2.44-3.41,0-6.79.66-8.87,2a6.39,6.39,0,0,1-3.13,1.3,1,1,0,0,1-.77-.28,1.13,1.13,0,0,1-.25-.79,5.23,5.23,0,0,1,.91-2.53,15.27,15.27,0,0,1,12.68-6.7Z"/><path class="cls-2" d="M59.14,107.42H54.6c-3.65,0-14,4.46-17.28,7-6.58,5.08-10.56,29.87-8.37,29.87,2.39,0,20.7,1.14,21.15-.73,2-8.3,3.81-24.08,7.25-31.43C57.53,111.72,59.14,107.72,59.14,107.42Z"/><path class="cls-2" d="M75.79,106.92h4.66c3.75,0,14.42,4.58,17.75,7.14,6.76,5.22,10.85,30.69,8.59,30.69-2.45,0-20,1.09-20.69-.75-3.12-8.27-4.94-24.74-8.48-32.29C77.44,111.33,75.79,107.23,75.79,106.92Z"/><path class="cls-2" d="M75.85,105.85c3.41-2.76,2.78-3.39,7.6-5.9,6.2-3.24-.17,7.07,2.47,9.09,0,0-8.83,2.87-9.75-2.12C76.07,106.34,75.53,106.1,75.85,105.85Z"/><path class="cls-2" d="M59.13,107c-3.41-2.76-2.78-3.38-7.6-5.9-6.2-3.24.17,7.07-2.48,9.1,0,0,8.83,2.87,9.75-2.13C58.91,107.48,59.45,107.24,59.13,107Z"/><path class="cls-9" d="M76.46,110.15a27.71,27.71,0,0,0,8.28,7.31,25.38,25.38,0,0,0,12.73,3.62,23,23,0,0,0,4.67-.49.57.57,0,0,0-.24-1.11,21.19,21.19,0,0,1-4.43.47,24.29,24.29,0,0,1-12.16-3.47,26.41,26.41,0,0,1-7.93-7,.56.56,0,0,0-.79-.13A.57.57,0,0,0,76.46,110.15Z"/><path class="cls-9" d="M58.3,108a26.42,26.42,0,0,1-7.93,7,24.29,24.29,0,0,1-12.16,3.47,21.19,21.19,0,0,1-4.43-.47.56.56,0,1,0-.24,1.1,22.3,22.3,0,0,0,4.67.5,25.26,25.26,0,0,0,12.73-3.63,27.56,27.56,0,0,0,8.28-7.3.57.57,0,0,0-.13-.79A.55.55,0,0,0,58.3,108Z"/><path class="cls-10" d="M31.61,125.55a.49.49,0,0,1-.57-.38.5.5,0,0,1,.39-.57,3.76,3.76,0,0,1,.58,0c2.4.21,14,1.19,18.87.59.27,0,.69-.06,1.13-.08s1.12,0,1.45,0a.48.48,0,0,1,.49.48.49.49,0,0,1-.49.49l-1.41,0c-.4,0-.79.05-1,.08-5,.61-16.65-.38-19.07-.58C31.68,125.58,31.66,125.54,31.61,125.55Z"/><path class="cls-10" d="M29.82,133a.48.48,0,0,1,.11-1c3.83.44,8.16.88,12.14,1.05a38.14,38.14,0,0,0,10-.54.49.49,0,0,1,.59.35.48.48,0,0,1-.35.59,38.94,38.94,0,0,1-10.29.57C38,133.88,33.65,133.44,29.82,133Z"/><path class="cls-10" d="M28.38,139.93a.48.48,0,0,1-.36-.58.49.49,0,0,1,.58-.37,83,83,0,0,0,12.75,1.12c3.95.08,7.64,0,9.31-.6a.49.49,0,0,1,.61.31.47.47,0,0,1-.31.61c-1.78.58-5.59.73-9.62.64A85.83,85.83,0,0,1,28.38,139.93Z"/><path class="cls-10" d="M104.25,125a.49.49,0,0,1,.39.57.49.49,0,0,1-.57.38s-.07,0-.32,0c-2.42.2-14,1.19-19.07.58-.26,0-.65-.06-1.05-.08s-1,0-1.41,0a.48.48,0,1,1,0-1c.34,0,.9,0,1.45,0s.87,0,1.13.08c4.92.6,16.47-.38,18.88-.59A3.65,3.65,0,0,1,104.25,125Z"/><path class="cls-10" d="M105.75,132.42a.48.48,0,0,1,.11,1c-3.83.44-8.18.88-12.21,1.06a39.37,39.37,0,0,1-10.29-.57.48.48,0,0,1-.35-.59.49.49,0,0,1,.59-.35,38.14,38.14,0,0,0,10,.54C97.59,133.3,101.93,132.86,105.75,132.42Z"/><path class="cls-10" d="M107.08,139.36a.49.49,0,0,1,.58.37.47.47,0,0,1-.36.57,84.1,84.1,0,0,1-13,1.14c-4,.09-7.84-.06-9.62-.64a.48.48,0,0,1,.3-.92c1.68.54,5.36.68,9.31.59A82,82,0,0,0,107.08,139.36Z"/><path class="cls-2" d="M52,132.58l1.26-6.5c3.69,0,1.91-.43,5.36,2a23.05,23.05,0,0,0-2.09,2.73C55.55,133.56,55.35,132.08,52,132.58Z"/><path class="cls-2" d="M50.56,140l1.26-6c3.69,0,1.91-.4,5.36,1.9a21.73,21.73,0,0,0-2.09,2.51C54.1,140.92,53.9,139.56,50.56,140Z"/><path class="cls-2" d="M85,107.42c.25,0,21.45,4.42,22.62,5.57,3.77,3.72-2.22,7.12-6.81,4.65-1.65-.89-21.59-7.23-17-9.19C84.18,108.29,84.64,107.46,85,107.42Z"/><path class="cls-11" d="M96.78,109.31c-4.33-1.59-7,5.11-5.27,5.89,4.25,1.91,6.3,3.66,8-1.55C101.08,109,98.71,110,96.78,109.31Zm-.35,1.14c.21.06.22.18.48.17,3-.13,1.88,6.6-3,4.63C90.63,114,94,109.79,96.43,110.45Z"/><path class="cls-2" d="M49.83,106.66c-.25,0-21.45,4.42-22.62,5.57-3.77,3.72,2.22,7.13,6.81,4.65,1.65-.89,21.59-7.22,17-9.19C50.64,107.53,50.18,106.7,49.83,106.66Z"/><path class="cls-11" d="M38,108.56c4.33-1.6,7,5.1,5.27,5.89-4.25,1.91-6.3,3.66-8-1.56C33.74,108.29,36.11,109.26,38,108.56Zm.35,1.14c-.21.06-.22.17-.48.16-3-.13-1.88,6.6,3,4.64C44.19,113.2,40.78,109,38.39,109.7Z"/><path class="cls-11" d="M81.11,125.86c-4.6-.53-5.62,6.61-3.74,7,4.58.85,7,2.07,7.44-3.41C85.21,124.58,83.14,126.09,81.11,125.86ZM81,127.05c.22,0,.26.12.5,0,2.92-.85,3.39,6-1.85,5.22C76.22,131.82,78.56,127,81,127.05Z"/><path class="cls-11" d="M80.82,134.44c-4.62.17-4.57,7.38-2.66,7.45,4.65.17,7.22,1,6.85-4.48C84.69,132.57,82.87,134.37,80.82,134.44Zm.1,1.2c.22,0,.27.08.5,0,2.77-1.27,4.24,5.4-1,5.43C76.88,141.07,78.46,135.93,80.92,135.64Z"/><path class="cls-4" d="M55.07,130.4a.79.79,0,1,0-.85-.79A.82.82,0,0,0,55.07,130.4Z"/><path class="cls-4" d="M53.37,138.1a.79.79,0,1,0-.85-.79A.83.83,0,0,0,53.37,138.1Z"/><path class="cls-12" d="M66.58,22.37c-.92,0-9.93.72-11.7,1.41,0,0-6.34-8.61-.4-8.8a25.21,25.21,0,0,1,5,1.22s1-2.39,7.21-2,7,2.61,7,2.61a25.4,25.4,0,0,1,5.13-.82c5.91.65-1.09,8.74-1.09,8.74C76.05,23.85,67.51,22.41,66.58,22.37Z"/><polygon class="cls-13" points="66.64 4.78 63.64 5.91 63.75 2.91 66.66 4.27 65.56 1.25 68.51 1.36 67.16 4.29 70.16 3.17 70.04 6.16 67.14 4.8 68.26 7.83 65.31 7.71 66.64 4.78"/><path class="cls-13" d="M80.67,21.48S85.34,17.1,81.91,13c-2.8-3.36-7.36-1.83-7.36-1.83A3.05,3.05,0,0,1,76.15,13s0-.07,1.71.25a3.71,3.71,0,0,1,2.76,3.44,4.83,4.83,0,0,1-1.56,3c-.27.14-1.6.87-.7,1.59s.17.88-.13,1.16,0,2.22,2.41-.78Z"/><path class="cls-13" d="M81.89,20.08a.87.87,0,0,0-.78.93.83.83,0,0,0,.87.81.87.87,0,0,0-.09-1.74Z"/><path class="cls-13" d="M82.89,18.16a.89.89,0,0,0-.8.93.85.85,0,0,0,.87.83.87.87,0,0,0,.81-.92A.86.86,0,0,0,82.89,18.16Z"/><path class="cls-13" d="M83.29,16a.87.87,0,1,0,.87.81A.84.84,0,0,0,83.29,16Z"/><path class="cls-13" d="M83,13.72A.88.88,0,0,0,83,15.48a.89.89,0,0,0,.81-.93A.85.85,0,0,0,83,13.72Z"/><path class="cls-13" d="M81.89,11.72a.87.87,0,0,0-.78.93.84.84,0,0,0,.87.81.85.85,0,0,0,.78-.91A.82.82,0,0,0,81.89,11.72Z"/><path class="cls-13" d="M80.16,10.16a.89.89,0,0,0-.8.93.85.85,0,0,0,.87.81A.87.87,0,0,0,81,11,.86.86,0,0,0,80.16,10.16Z"/><path class="cls-13" d="M78.08,9.46a.87.87,0,0,0,.06,1.73.89.89,0,0,0,.81-.92A.85.85,0,0,0,78.08,9.46Z"/><path class="cls-13" d="M75.85,9.46a.88.88,0,0,0-.81.92.87.87,0,0,0,.87.82.89.89,0,0,0,.81-.91A.84.84,0,0,0,75.85,9.46Z"/><path class="cls-13" d="M76.4,16.77c.1-.39-.9,2.55-.13,3.73,0,0-2.75.5-3,1.06a19.5,19.5,0,0,1-2.36-1.73,17.26,17.26,0,0,0,1.43-2.11c.55-.95,1.67-3.18.82-4.46-.67-1-3-2-5.09-1.75l.22-1.22s4.66-.84,7.11,1.42A6,6,0,0,1,76.4,16.77Z"/><path class="cls-13" d="M74.14,18.77a.89.89,0,0,0-.81.93.83.83,0,0,0,.87.81.88.88,0,0,0,.81-.9A.87.87,0,0,0,74.14,18.77Z"/><path class="cls-13" d="M75.19,15.46a.89.89,0,0,0-.81.92.87.87,0,0,0,.88.84.89.89,0,0,0,.8-.93A.83.83,0,0,0,75.19,15.46Z"/><path class="cls-13" d="M75.48,13.82a.87.87,0,0,0-.79.93.83.83,0,1,0,1.66-.09A.86.86,0,0,0,75.48,13.82Z"/><path class="cls-13" d="M75.12,12.37a.83.83,0,0,0-.79.9.83.83,0,1,0,.79-.9Z"/><path class="cls-13" d="M74.19,11.19A.88.88,0,0,0,74.28,13a.88.88,0,0,0-.09-1.76Z"/><path class="cls-13" d="M74.76,17a.85.85,0,0,0-.79.92.86.86,0,0,0,.85.84.88.88,0,0,0,.81-.93A.84.84,0,0,0,74.76,17Z"/><path class="cls-13" d="M69.64,9.79a.58.58,0,0,0-.56.6.57.57,0,1,0,1.13,0A.54.54,0,0,0,69.64,9.79Z"/><path class="cls-13" d="M73.08,10.44a.74.74,0,0,0-.7.79.75.75,0,0,0,.77.75.78.78,0,0,0,.69-.82A.73.73,0,0,0,73.08,10.44Z"/><path class="cls-13" d="M70.72,9.72a.59.59,0,1,0,.6.56A.59.59,0,0,0,70.72,9.72Z"/><path class="cls-13" d="M71.9,9.9a.65.65,0,0,0-.62.73.65.65,0,1,0,1.3-.08A.64.64,0,0,0,71.9,9.9Z"/><path class="cls-13" d="M51.84,20.39s-4.29-4.73-.57-8.56c3.08-3.13,7.48-1.24,7.48-1.24A3,3,0,0,0,57,12.28s0-.07-1.74.1a3.72,3.72,0,0,0-3,3.22,4.79,4.79,0,0,0,1.31,3.1c.26.19,1.53,1,.56,1.65s-.22.86.06,1.18-.15,2.19-2.37-1Z"/><path class="cls-13" d="M50.73,18.9a.89.89,0,0,1,.73,1,.87.87,0,0,1-.93.77.89.89,0,0,1-.74-1A.87.87,0,0,1,50.73,18.9Z"/><path class="cls-13" d="M49.9,16.93a.82.82,0,0,1,.71,1,.84.84,0,0,1-.93.77.87.87,0,0,1-.71-1A.84.84,0,0,1,49.9,16.93Z"/><path class="cls-13" d="M49.66,14.72a.86.86,0,0,1,.73,1,.84.84,0,0,1-.93.77.86.86,0,0,1-.72-1A.84.84,0,0,1,49.66,14.72Z"/><path class="cls-13" d="M50.16,12.47a.87.87,0,0,1,.72,1,.85.85,0,0,1-.94.76.88.88,0,0,1,.22-1.75Z"/><path class="cls-13" d="M51.39,10.56a.9.9,0,0,1,.73,1,.86.86,0,0,1-.93.74.87.87,0,0,1,.2-1.73Z"/><path class="cls-13" d="M53.25,9.15a.85.85,0,0,1,.71,1,.87.87,0,0,1-.93.77.86.86,0,0,1-.71-1A.83.83,0,0,1,53.25,9.15Z"/><path class="cls-13" d="M55.39,8.61a.85.85,0,0,1,.71,1,.83.83,0,0,1-.91.77.88.88,0,0,1-.74-1A.86.86,0,0,1,55.39,8.61Z"/><path class="cls-13" d="M57.79,8.7a.86.86,0,0,1,.73,1,.84.84,0,0,1-.93.76.88.88,0,0,1-.73-1A.85.85,0,0,1,57.79,8.7Z"/><path class="cls-13" d="M56.46,16c-.05-.4.72,2.61-.14,3.73,0,0,2.71.71,3,1.3a17.09,17.09,0,0,0,2.48-1.55,19.26,19.26,0,0,1-1.28-2.21c-.44-1-1.39-3.3-.44-4.51.75-1,3.18-1.72,5.22-1.35l-.15-1.2s-4.56-1.23-7.18.83A6,6,0,0,0,56.46,16Z"/><path class="cls-13" d="M58.58,18.21a.86.86,0,0,1,.72,1A.83.83,0,1,1,57.65,19,.84.84,0,0,1,58.58,18.21Z"/><path class="cls-13" d="M57.79,14.84a.82.82,0,0,1,.71,1,.84.84,0,0,1-.93.77.87.87,0,0,1-.71-1A.84.84,0,0,1,57.79,14.84Z"/><path class="cls-13" d="M57.61,13.17a.86.86,0,0,1,.74,1,.9.9,0,0,1-.94.77.87.87,0,0,1-.71-1A.81.81,0,0,1,57.61,13.17Z"/><path class="cls-13" d="M58.09,11.74a.85.85,0,0,1,.73,1,.84.84,0,0,1-.93.77.9.9,0,0,1-.74-1A.87.87,0,0,1,58.09,11.74Z"/><path class="cls-13" d="M59.1,10.64a.89.89,0,0,1,.74,1,.83.83,0,1,1-1.65-.22A.86.86,0,0,1,59.1,10.64Z"/><path class="cls-13" d="M58.1,16.39a.88.88,0,0,1-.22,1.75.88.88,0,0,1,.22-1.75Z"/><path class="cls-13" d="M63.78,9.61a.56.56,0,0,1,.48.66.56.56,0,1,1-1.1-.15A.55.55,0,0,1,63.78,9.61Z"/><path class="cls-13" d="M60.3,10a.77.77,0,0,1-.19,1.53.77.77,0,0,1-.65-.87A.75.75,0,0,1,60.3,10Z"/><path class="cls-13" d="M62.7,9.45a.59.59,0,0,1,.48.67.57.57,0,0,1-.63.5.59.59,0,0,1,.15-1.17Z"/><path class="cls-13" d="M61.51,9.54a.69.69,0,0,1,.56.78.66.66,0,0,1-.75.59.71.71,0,0,1-.57-.78A.68.68,0,0,1,61.51,9.54Z"/><path class="cls-13" d="M66.35,20.94l2.81-1.32c-.79-.67-.89-3.7-.86-5.06a10.64,10.64,0,0,1,1.08-4.36,17,17,0,0,0-2.59-.48,18.38,18.38,0,0,0-2.61.21,13.14,13.14,0,0,1,.82,4.5c0,1.36-.7,4.36-1.52,5Z"/><path class="cls-13" d="M66.47,18.38a.62.62,0,0,1,.53.69.58.58,0,0,1-.66.55.62.62,0,0,1-.53-.71A.59.59,0,0,1,66.47,18.38Z"/><path class="cls-13" d="M66.58,17a.64.64,0,0,1,.52.71.6.6,0,0,1-.66.55.65.65,0,0,1-.53-.71A.62.62,0,0,1,66.58,17Z"/><path class="cls-13" d="M66.59,15.56a.63.63,0,0,1,.52.71.59.59,0,0,1-.66.54.63.63,0,0,1,.14-1.25Z"/><path class="cls-13" d="M66.64,14.21a.63.63,0,0,1,.52.71.58.58,0,0,1-.66.53.6.6,0,0,1-.52-.69A.58.58,0,0,1,66.64,14.21Z"/><path class="cls-13" d="M66.7,12.79a.67.67,0,0,1,.52.71.6.6,0,0,1-.66.55.63.63,0,0,1,.14-1.26Z"/><path class="cls-13" d="M66.75,11.35a.63.63,0,0,1,.53.71.6.6,0,0,1-.67.53.61.61,0,0,1-.52-.69A.59.59,0,0,1,66.75,11.35Z"/><path class="cls-13" d="M66.64,11.39a2,2,0,0,0,2-2,1.93,1.93,0,1,0-3.86-.15A2,2,0,0,0,66.64,11.39Z"/><path class="cls-13" d="M64.86,9a4.71,4.71,0,0,1,1.7-.51,2.93,2.93,0,0,0,0-1.18A1.52,1.52,0,0,1,67,7.4l.13,1.18a4.91,4.91,0,0,1,1.5.68.45.45,0,0,1-.06.47A4.64,4.64,0,0,0,66.67,9a4.47,4.47,0,0,0-1.87.5A.4.4,0,0,1,64.86,9Z"/><path class="cls-13" d="M66.3,26.07s8.38.69,11.2,1.95a24.16,24.16,0,0,1,1.64-3s-8.64-2.34-12.85-2.5S53.57,24,53.57,24a25,25,0,0,1,1.4,3.1C58.18,26.15,66.3,26.07,66.3,26.07Z"/><path class="cls-13" d="M66.11,25.49a61.46,61.46,0,0,1,11.5,2,12.14,12.14,0,0,1,1.18-1.95S70.5,23.19,66.29,23,54,24.56,54,24.56a6.47,6.47,0,0,1,.8,2A72.14,72.14,0,0,1,66.11,25.49Z"/><path class="cls-13" d="M62,25.41c.48,0,1.06-.67.94-1a.85.85,0,0,0-1.13-.48.83.83,0,0,0-.69.79C61.12,25.07,61.5,25.39,62,25.41Z"/><path class="cls-13" d="M62.07,25c.24,0,.49-.14.5-.31s-.23-.35-.48-.35a.4.4,0,0,0-.45.31C61.63,24.8,61.83,25,62.07,25Z"/><polygon class="cls-13" points="62.96 24.25 66.25 23.11 69.3 24.43 66.07 25.26 62.96 24.25"/><polygon class="cls-13" points="64.13 24.25 66.23 23.58 68.16 24.37 66.14 24.8 64.13 24.25"/><polygon class="cls-13" points="54.33 25.42 57.49 24.08 61.13 24.69 58.01 26.12 54.33 25.42"/><polygon class="cls-13" points="55.66 25.34 57.52 24.57 59.65 24.88 57.93 25.79 55.66 25.34"/><polygon class="cls-13" points="71.26 24.69 75.2 24.73 78.16 26.38 74.62 26.6 71.26 24.69"/><polygon class="cls-13" points="72.76 25.08 74.99 25.1 76.93 26.13 74.66 26.27 72.76 25.08"/><path class="cls-13" d="M70.25,25.52c-.74-.19-1-.76-.86-1.11a.84.84,0,0,1,1.14-.4.82.82,0,0,1,.65.85A.78.78,0,0,1,70.25,25.52Z"/><path class="cls-13" d="M70.23,25.05c-.24,0-.48-.15-.48-.33s.26-.33.5-.32.42.15.41.35S70.47,25.06,70.23,25.05Z"/><path class="cls-13" d="M66.29,22.54c4.07.16,12.85,2.5,12.85,2.5a2.72,2.72,0,0,1,1-1.36,3.45,3.45,0,0,1-2,.55c-.92-.11-.77-.52-1.06-1a2.67,2.67,0,0,1-1.88.55,2.1,2.1,0,0,1-1.83-1,14.44,14.44,0,0,1-1.92,0,2.17,2.17,0,0,1-1.78-.89,4.6,4.6,0,0,1-1.77.15A2.81,2.81,0,0,1,66.35,21a2.29,2.29,0,0,1-1.64.78,3.23,3.23,0,0,1-1.81-.58c-.28.34-.8,1.24-1.83,1.22a14.24,14.24,0,0,1-1.92-.14,2.16,2.16,0,0,1-1.91.94,2.48,2.48,0,0,1-1.82-.78c-.33.41-.23.79-1.14.87a2.76,2.76,0,0,1-1.93-.7A5,5,0,0,1,53.57,24S62.24,22.38,66.29,22.54Z"/><path class="cls-13" d="M66.35,21a2.76,2.76,0,0,1,.35.08,2.13,2.13,0,0,0,.85.35c.33,0,.63-.42.61-.53s.41-.19.41-.19-.37-.12-.41-.24-.07-.47-.47-.48c-.57,0-.76.23-1,.29,0,0-.07.07-.09,0a.24.24,0,0,1,.08-.26c-.09.09.63-.26.61-.51s-.6-.42-.6-.42l-.25-.3h0L66,19s-.53.07-.56.36.63.67.55.58c.1.09.06.11,0,.22v.07c-.24-.08-.38-.35-.95-.38-.4,0-.46.37-.51.45s-.45.21-.45.21.44.13.41.21.22.59.58.58A1.94,1.94,0,0,0,66,21,2.24,2.24,0,0,1,66.35,21Z"/><path class="cls-13" d="M77.16,23.27c-.26-.29-.51-.59-.32-.92s.36-.65,1-.54c.44.06.51.46.41.82S77.16,23.27,77.16,23.27Z"/><path class="cls-13" d="M69.76,21.87c-.32-.25-.67-.89-.53-1.24s.54-.8,1.06-.58a.75.75,0,0,1,.38,1A4.24,4.24,0,0,1,69.76,21.87Z"/><path class="cls-13" d="M73.45,22.82a1.09,1.09,0,0,1,.32.1,2.3,2.3,0,0,0,.78.43.76.76,0,0,0,.7-.48c0-.12.45-.14.45-.14s-.34-.17-.39-.28,0-.47-.39-.53a2,2,0,0,0-1,.22s-.06.05-.08,0a.2.2,0,0,1,.12-.24c-.11,0,.67-.22.7-.46s-.53-.49-.53-.49l-.21-.32-.45.25s-.53,0-.61.29.52.71.44.64c.08.09,0,.11,0,.2v.09c-.22-.1-.32-.77-.87-.84-.4-.06-.51-.06-.55,0a1.18,1.18,0,0,1-.49.16,1.79,1.79,0,0,1,.26.48c0,.11.24.74.57.78s.89.19.89.17A3.14,3.14,0,0,1,73.45,22.82Z"/><path class="cls-13" d="M81.74,21.74a14.42,14.42,0,0,0-1.55,1.94,2.39,2.39,0,0,0-.36,0,1,1,0,0,1-.71.22.59.59,0,0,1-.37-.69c0-.08-.32-.28-.32-.28a1.37,1.37,0,0,0,.51-.11c.07-.08.24-.44.63-.33s.6.42.8.54c0,0,0,.07,0-.06s.09-.13,0-.22c.08.09-.42-.44-.33-.68s.78-.2.78-.2Z"/><path class="cls-13" d="M55.42,22.42c.28-.28.55-.56.39-.9s-.31-.68-1-.61c-.42,0-.52.42-.45.78S55.42,22.42,55.42,22.42Z"/><path class="cls-13" d="M62.9,21.22c.34-.23.68-.46.63-.82s-.36-.92-1-.75c-.45.12-.45.74-.46,1.1S62.9,21.22,62.9,21.22Z"/><path class="cls-13" d="M59.15,22.26a1.11,1.11,0,0,0-.33.07,2.11,2.11,0,0,1-.81.37.77.77,0,0,1-.66-.54c0-.11-.44-.17-.44-.17s.36-.14.41-.25,0-.47.42-.5a1.94,1.94,0,0,1,1,.31s.07.05.09,0,0-.2-.1-.25c.11,0-.65-.27-.66-.51s.57-.45.57-.45l.23-.3.43.28s.53,0,.58.34-.58.66-.49.6c-.09.09,0,.11,0,.2s0,.09,0,.09c.23-.08.17-.46.75-.48a6.46,6.46,0,0,1,.64-.09,1.09,1.09,0,0,1,.5.24,1,1,0,0,1-.26.5c-.09.09-.27.5-.62.51s-.89.12-.89.1Z"/><path class="cls-13" d="M51,20.53a15.26,15.26,0,0,1,1.4,2.06,1.67,1.67,0,0,1,.35,0s.38.33.72.27a.61.61,0,0,0,.42-.65c-.06-.09.34-.25.34-.25a1.62,1.62,0,0,1-.5-.15c-.06-.09-.21-.46-.6-.38s-.64.37-.84.48c0,0,0,.06,0-.07s-.08-.14,0-.23c-.07.09.48-.4.4-.65s-.76-.25-.76-.25Z"/></svg>