<svg xmlns="http://www.w3.org/2000/svg" xmlns:xlink="http://www.w3.org/1999/xlink" viewBox="0 0 113.6 167.39"><defs><style>.cls-1{isolation:isolate;}.cls-2{fill:#080707;}.cls-3{fill:#1d1d1d;}.cls-4{fill:#282828;}.cls-10,.cls-5{fill:#754c24;}.cls-11,.cls-6{fill:#8c6239;}.cls-20,.cls-7{fill:#603813;}.cls-13,.cls-20,.cls-33,.cls-37,.cls-38,.cls-49,.cls-8{opacity:0.3;}.cls-10,.cls-11,.cls-13,.cls-15,.cls-18,.cls-19,.cls-20,.cls-22,.cls-24,.cls-26,.cls-28,.cls-32,.cls-33,.cls-34,.cls-35,.cls-38,.cls-43,.cls-50,.cls-8{mix-blend-mode:multiply;}.cls-9{fill:none;}.cls-10,.cls-11,.cls-19,.cls-22,.cls-24,.cls-25,.cls-28,.cls-34,.cls-39,.cls-43,.cls-44,.cls-51{opacity:0.5;}.cls-12,.cls-39{fill:#333;}.cls-13,.cls-14,.cls-15,.cls-24,.cls-25,.cls-49{fill:#4d4d4d;}.cls-15{opacity:0.6;}.cls-16,.cls-18,.cls-19,.cls-26{fill:#f6c5a5;}.cls-17{fill:#ea9a69;}.cls-21,.cls-22{fill:gray;}.cls-23{fill:#1a1a1a;}.cls-26,.cls-35{opacity:0.7;}.cls-27,.cls-28{fill:#f7ccb0;}.cls-29,.cls-36,.cls-37{fill:#c69c6d;}.cls-30{fill:#684732;}.cls-31,.cls-32,.cls-33,.cls-34,.cls-35{fill:#a67c52;}.cls-36{opacity:0.4;}.cls-36,.cls-37{mix-blend-mode:screen;}.cls-38,.cls-48,.cls-50{fill:#666;}.cls-40{mask:url(#mask);}.cls-41,.cls-43{fill:url(#radial-gradient);}.cls-42,.cls-47{fill:#f2f2f2;}.cls-42,.cls-46{opacity:0.2;}.cls-45,.cls-51{fill:#fff;}.cls-50{opacity:0.8;}.cls-52{filter:url(#luminosity-noclip);}</style><filter id="luminosity-noclip" x="56.38" y="-537.46" width="2109.87" height="613.38" filterUnits="userSpaceOnUse" color-interpolation-filters="sRGB"><feFlood flood-color="#fff" result="bg"/><feBlend in="SourceGraphic" in2="bg"/></filter><mask id="mask" x="56.38" y="-537.46" width="2109.87" height="613.38" maskUnits="userSpaceOnUse"><g class="cls-52"/></mask><radialGradient id="radial-gradient" cx="69.74" cy="65.34" r="10.55" gradientTransform="translate(-3.19) scale(1.01 1)" gradientUnits="userSpaceOnUse"><stop offset="0" stop-color="#59cbf2"/><stop offset="0.86" stop-color="#59cbf2"/><stop offset="1" stop-color="#59cbf2"/></radialGradient></defs><title>jobs_3</title><g class="cls-1"><g id="Layer_1" data-name="Layer 1"><path class="cls-2" d="M98.31,163.65c-8.26-.72-11.24-2.41-12.18-4.53s-1.36-2-2.5-1.51-2.49-.64-4.29-2.16c.23.65.48,1.25.66,1.71.57,1.47.35,1.51,2,2.19s2.17.41,2.17.41c1.11-1.58.91-.56,1.78,1s4,3.74,14.24,4.08,13.76-1.7,13.37-3.66c-.06-.27-.12-.53-.2-.78h0C113.37,162.32,106.57,164.37,98.31,163.65Z"/><path class="cls-3" d="M106.13,155.88c-6.29-1.81-8.66-3.47-9.41-4.5a11.85,11.85,0,0,1-1.23-3.5s-16.13,2-16.73,3.5c-.4,1,.06,2.66.58,4.07,1.8,1.52,3.14,2.62,4.29,2.16s1.57-.6,2.5,1.51,3.92,3.81,12.18,4.53,15.06-1.33,15.06-3.23h0C112.86,158.81,111.56,157.44,106.13,155.88Z"/><path d="M91.81,155.25c2.11-.55,4.76-1.62,5.93-2.9a4.59,4.59,0,0,1-1-1,11.85,11.85,0,0,1-1.23-3.5s-16.13,2-16.73,3.5a3.75,3.75,0,0,0,0,2C81.29,154.2,88.86,156,91.81,155.25Z"/><path class="cls-4" d="M106.59,159.21c-3.77,2.51-7.76,2.26-12,1.74s-3.15,1.94,4.45,2.22,13.22-1.21,13.48-2.79S109.26,157.43,106.59,159.21Z"/><path class="cls-2" d="M26.78,165.41c8.13-1.63,10.91-3.64,11.6-5.85s1.13-2.1,2.32-1.77,2.41-.92,4-2.63c-.17.67-.35,1.29-.47,1.77-.4,1.53-.17,1.54-1.75,2.4s-2.12.65-2.12.65c-1.28-1.45-1-.46-1.65,1.21s-3.52,4.15-13.71,5.63-13.88-.16-13.7-2.15a5.14,5.14,0,0,1,.11-.8h0C11.65,165.75,18.65,167,26.78,165.41Z"/><path class="cls-3" d="M18.13,158.56c6.05-2.5,8.22-4.41,8.85-5.52a11.53,11.53,0,0,0,.83-3.61s16.27.2,17,1.62c.52,1,.24,2.65-.11,4.11-1.62,1.71-2.84,3-4,2.63s-1.63-.43-2.32,1.77-3.47,4.22-11.6,5.85-15.13.34-15.34-1.54h0C11.76,162.21,12.9,160.71,18.13,158.56Z"/><path d="M32.3,156.34c-2.16-.31-4.91-1.08-6.22-2.22A4.69,4.69,0,0,0,27,153a11.53,11.53,0,0,0,.83-3.61s16.27.2,17,1.62a3.58,3.58,0,0,1,.26,2C42.65,154.13,35.32,156.78,32.3,156.34Z"/><path class="cls-4" d="M18.05,161.91c4,2.08,8,1.39,12.12.4s3.36,1.58-4.18,2.7-13.28.27-13.71-1.27S15.19,160.44,18.05,161.91Z"/><path class="cls-5" d="M33.41,151.43c-2.35.16-7.64-1.38-10-2.93.49,1.26,1,2.57,1.62,3.95,0,0,5.37,2.69,8.18,2.8s12.86-3.66,12.86-3.66,0-1.91.23-4.77h0C44.33,148.28,35.77,151.26,33.41,151.43Z"/><path class="cls-5" d="M91.55,149.89c-3.39,1.06-12.52.24-17-2.34h0c.46,1.27.89,2.54,1.28,3.82,0,0,13.33,4,16.26,2.7a17.75,17.75,0,0,0,6.54-6,32.82,32.82,0,0,0-.34-5.49C96.21,145.51,93.26,149.36,91.55,149.89Z"/><path class="cls-6" d="M91.55,149.89c1.71-.53,4.66-4.38,6.74-7.35C97.11,132,92.86,110,81.68,108.41L36.21,108,21,122.6s-6.33,3.48,2.43,25.9c2.35,1.55,7.64,3.09,10,2.93s10.92-3.15,12.9-4.61h0c.52-8,2.18-23.61,7.21-25.11,6.27-1.86,15.68,11.15,21,25.84h0C79,150.13,88.16,151,91.55,149.89Z"/><path class="cls-7" d="M30.78,148.43s-.51-1.51-1.08-3.84c-.28-1.16-.59-2.53-.84-4-.13-.74-.25-1.51-.35-2.29s-.2-1.57-.26-2.37-.1-1.6-.11-2.38,0-1.57,0-2.32c0-.37.06-.74.1-1.1s.09-.71.15-1a17,17,0,0,1,.44-1.89c.1-.29.17-.57.28-.82s.21-.5.31-.72.22-.41.32-.6.22-.34.32-.49a4.79,4.79,0,0,1,.5-.64l.18-.22-.17.23a5.78,5.78,0,0,0-.46.66c-.08.16-.19.31-.29.5s-.18.4-.29.61a14.52,14.52,0,0,0-.52,1.54,15.21,15.21,0,0,0-.38,1.88c-.05.33-.08.68-.12,1s-.06.72-.08,1.09c0,.74,0,1.51,0,2.29s.06,1.57.13,2.37.15,1.58.24,2.36.2,1.53.32,2.27c.25,1.47.5,2.84.75,4s.47,2.14.64,2.82Z"/><path class="cls-7" d="M80.72,115.94s1,1.94,2.4,4.93c.34.75.71,1.56,1.08,2.43l.58,1.33c.19.46.38.92.57,1.4.4,1,.77,2,1.16,2.95s.75,2,1.13,3.07.7,2.08,1,3.11.65,2.05.91,3,.54,2,.75,2.87.41,1.79.57,2.59.28,1.56.4,2.21.17,1.24.24,1.72c.12.95.18,1.49.18,1.49l-.24-1.48c-.09-.48-.15-1-.3-1.71s-.29-1.38-.46-2.19-.4-1.66-.63-2.57c-.1-.46-.24-.92-.37-1.4s-.27-1-.41-1.45c-.27-1-.61-2-.92-3s-.7-2.06-1-3.1-.73-2.06-1.11-3.07-.75-2-1.14-3c-.19-.47-.38-.94-.56-1.4s-.37-.91-.55-1.34c-.35-.88-.7-1.69-1-2.45-.66-1.5-1.2-2.76-1.61-3.63Z"/><path class="cls-7" d="M48.62,119.15s.59.08,1.45.28c.43.09.93.22,1.47.36l.82.25c.28.09.56.17.84.27.55.2,1.12.38,1.63.61l.73.32c.23.1.45.19.65.3.4.19.72.38.95.5l.35.19-.38-.14c-.24-.09-.59-.22-1-.39s-.91-.32-1.42-.52c-.25-.1-.53-.18-.8-.28l-.83-.29c-.27-.1-.55-.18-.83-.27l-.8-.27c-.53-.17-1-.35-1.44-.47l-1-.33Z"/><g class="cls-8"><path class="cls-9" d="M55,102.94c-4.14-.41-7.95,1.84-11.35,5.13l29,.26C67.21,104.36,61.36,103.56,55,102.94Z"/><path class="cls-5" d="M31.26,151.27c.46,1.64.86,3,1.12,3.89a6.7,6.7,0,0,0,.84.09c2.82.11,12.86-3.66,12.86-3.66s0-1.91.23-4.77c-2,1.46-10.54,4.44-12.9,4.61A10.25,10.25,0,0,1,31.26,151.27Z"/><path class="cls-5" d="M91.83,149.78l-.28.11c-3.39,1.06-12.52.24-17-2.34h0c.46,1.27.89,2.54,1.28,3.82,0,0,13.21,3.95,16.22,2.71A39.19,39.19,0,0,0,91.83,149.78Z"/><path class="cls-6" d="M91.55,149.89l.28-.11c-.64-6.41-2.77-14.75-7-24.3-3.83-8.77-7.9-14-12.24-17.15l-28.95-.26c-5.93,5.76-10.61,14.73-13.61,18.38-3.84,4.68-.83,17.57,1.18,24.82a10.25,10.25,0,0,0,2.15.16c2.36-.17,10.92-3.15,12.9-4.61.52-8,2.18-23.61,7.21-25.11,6.27-1.86,15.68,11.15,21,25.84h0C79,150.13,88.16,151,91.55,149.89Z"/></g><path class="cls-10" d="M42.51,152.86c2-.7,3.57-1.27,3.57-1.27s0-1.91.23-4.77A22.79,22.79,0,0,1,42,148.88,33.31,33.31,0,0,0,42.51,152.86Z"/><path class="cls-10" d="M74.55,147.55h0c.46,1.27.89,2.54,1.28,3.82,0,0,1.1.33,2.73.77-.42-1-.87-2.17-1.33-3.41A14.79,14.79,0,0,1,74.55,147.55Z"/><path class="cls-11" d="M77.23,148.73c-.82-2.18-1.71-4.68-2.68-7.57C66.49,117.4,56,102.24,46,121.71c-4.34,8.49-4.62,20.45-4.06,27.17a22.79,22.79,0,0,0,4.33-2.06c.52-8,2.18-23.61,7.21-25.11,6.27-1.86,15.68,11.15,21,25.84h0A14.79,14.79,0,0,0,77.23,148.73Z"/><path class="cls-11" d="M86.22,128.62c1.78-.86,5.35-4.89,7-7.8-2.59-6.43-6.3-11.66-11.54-12.41L36.21,108,21,122.6s-2.55,1.4-2.17,8.17c3.09,2.9,7.84,6.41,9.71,6.42,1.71,0,12.87.48,19-1.4,1-6.68,2.88-13.14,6-14.08,4.34-1.29,10.18,4.54,15.13,13.12h0C75.29,132.51,84.06,129.66,86.22,128.62Z"/><path class="cls-12" d="M87.72,99.31l-43.18,2.1c3.27,6.26,6.89,13.24,6.89,13.24s6.78,13.17,8.73,19.24c0,0,5.84,1.77,20.89-6.23s15-15,15-15S89.72,99.43,87.72,99.31Z"/><path class="cls-13" d="M87.72,99.31l-43.18,2.1c3.27,6.26,6.89,13.24,6.89,13.24s6.78,13.17,8.73,19.24c0,0,3.26,1,11.15-1.84-10.19,3.3-17.1-16.23-11.69-18.35a17.64,17.64,0,0,1,6.57-1.15,3.25,3.25,0,0,0,4.13-.29c.64-.51,5.14-1.9,9.69-4.17,0,0,1.52.51,2.68-2,0,0,5.39-4.8,9.19.91a14.23,14.23,0,0,1,1.57,11.17c2.65-3.35,2.65-5.56,2.65-5.56S89.72,99.43,87.72,99.31Z"/><path class="cls-13" d="M58,125.56c-2.28-4.85-5.65-12-3.34-12.34s4.31-.7,4.74-1.72a41,41,0,0,0,8.68,0c4.57-.53,11.8-4.25,13.14-5.06s5.45-2.68,7.12-5.34a4.12,4.12,0,0,1,.65-.82c-.51-.59-.95-1-1.27-1l-43.18,2.1c3.27,6.26,6.89,13.24,6.89,13.24s6.78,13.17,8.73,19.24a11.07,11.07,0,0,0,4.24,0C61.41,134.28,60.27,130.41,58,125.56Z"/><path class="cls-13" d="M95.18,110.76s-.5,6.07-6.6,7.4-8.48-6.18-8.39-7.8c0,0,7.36-4.43,9.62-9C89.81,101.35,93.68,107.49,95.18,110.76Z"/><path class="cls-14" d="M80.19,110.36s1.63,7.69,7.84,7.22c3.88-.29,6-4.19,6.94-7.21a92.09,92.09,0,0,0-4.74-8.4C89.18,103.86,86.56,107.17,80.19,110.36Z"/><path class="cls-13" d="M90.23,102c-1,1.89-3.67,5.2-10,8.39,0,0,1.63,7.69,7.84,7.22,3.88-.29,6-4.19,6.94-7.21A92.09,92.09,0,0,0,90.23,102Zm-.55,13.53c-5.73,3.11-9.43-4.43-7.93-4.93A14.16,14.16,0,0,0,87.08,107c2.64-2.69,4-1.1,4.67,0S95.41,112.38,89.68,115.5Z"/><path class="cls-14" d="M59.4,121.52c5,11,8.15,12.69,19.35,6.46s11.74-7.07,7.43-5-14.54,8.25-19.06,5S57.61,117.59,59.4,121.52Z"/><path class="cls-12" d="M23.25,102.45S13.58,110,10.86,121.52c0,0,7.27,12.2,27.27,13.66,0,0,6.67-13.18,13.3-20.53,0,0-3.62-7-6.89-13.24Z"/><path class="cls-13" d="M51.43,114.65s-3.62-7-6.89-13.24l-21.29,1S13.58,110,10.86,121.52a19.79,19.79,0,0,0,2.6,3.2,18.88,18.88,0,0,1,1.23-8.59c3.84-10.94,7.64-10,7.64-10,1.56,3.16,7.11,5.39,7.11,5.39.87,2,3.62,1,3.62,1,10.08,1.45,9.9-.7,12.63,1.24,3.41,2.41-4.66,10.78-8.4,16a8.4,8.4,0,0,1-8.9,3.68,46.27,46.27,0,0,0,9.74,1.74S44.8,122,51.43,114.65Z"/><path class="cls-15" d="M51.43,114.65s-3.62-7-6.89-13.24l-21.29,1a27.91,27.91,0,0,0-2.26,2c1.52.62,3.24,4.51,10.35,6.25s12.07,1,14.24,1.74,3.15,2.39,3,3.5c-.16,1.63-4.08,6.56-8.13,13.2-1.76,2.88-2.87,5.75-5.45,5.68,1,.14,2,.25,3.09.33C38.13,135.18,44.8,122,51.43,114.65Z"/><path class="cls-13" d="M18.47,107.18A16.78,16.78,0,0,0,25,113.6s-1.82,6.89-6.8,7.89-6.93-1.67-6.93-1.67S12.66,114,18.47,107.18Z"/><path class="cls-14" d="M17.69,120.93c4.37-.06,7.35-7.33,7.35-7.33-2.22-1-3.63-1.51-6.88-5.19l-.38-.4a36.1,36.1,0,0,0-6.09,10.66A7.79,7.79,0,0,0,17.69,120.93Z"/><path class="cls-13" d="M18.16,108.41l-.38-.4a36.1,36.1,0,0,0-6.09,10.66,7.79,7.79,0,0,0,6,2.26c4.37-.06,7.35-7.33,7.35-7.33C22.82,112.63,21.41,112.09,18.16,108.41ZM16.8,120c-3.45-.11-4.62-2.13-3.1-4.85,1.39-2.49,2.5-6.46,6.35-3.52,1.43,1.09,3.9,2.44,3.19,3.87S20.26,120.05,16.8,120Z"/><path class="cls-14" d="M18.18,127.72s7.73,5.87,13.64,4.36,10.27-9.83,12.35-12.72c2.24-3.1-.76-.59-4.71,4s-10.57,7.6-15.83,5.77S16.41,126.15,18.18,127.72Z"/><path class="cls-16" d="M6.61,91.5a16.07,16.07,0,0,0-3.34,3.07,6,6,0,0,0-.71,2.9,4,4,0,0,0,.33,1.84s-2,5.32-2.75,7,1.42,1.93,2.13,2,2-.52,2.8-3,1.61-3.43,5.16-3.43,4.46,1.74,4.65,2.59.28,5.18,2.13,4.89,1.84-2.59,1.65-4.89,1.24-5.37,2.66-7-1.47-2.18-1.47-2.18S8.87,88.88,6.61,91.5Z"/><path class="cls-17" d="M6.12,93.17l-.65.61-.66.63c-.23.23-.49.48-.72.74a4.14,4.14,0,0,0-.35.38q-.18.19-.33.39l-.28.38c-.09.12-.15.25-.22.36a2,2,0,0,0-.17.32l-.06.13a.56.56,0,0,0,0,.12l-.08.24a2.25,2.25,0,0,1,0-.25.57.57,0,0,1,0-.13.83.83,0,0,1,0-.15,1.84,1.84,0,0,1,.11-.36,2.76,2.76,0,0,1,.18-.4,3.66,3.66,0,0,1,.26-.42,5.8,5.8,0,0,1,.67-.83,9.62,9.62,0,0,1,1.5-1.29c.22-.16.42-.27.55-.36A1.71,1.71,0,0,1,6.12,93.17Z"/><path class="cls-17" d="M6.12,95.84l-.57.5c-.33.3-.77.69-1.19,1.11-.1.11-.21.21-.3.32s-.2.21-.29.32-.18.2-.25.31-.15.19-.22.28l-.3.45-.11.18,0-.2a3.31,3.31,0,0,1,.2-.52,3.69,3.69,0,0,1,.18-.33,3.5,3.5,0,0,1,.23-.35,6,6,0,0,1,.58-.68,7.4,7.4,0,0,1,.67-.6c.23-.17.45-.32.64-.44A4.47,4.47,0,0,1,6.12,95.84Z"/><path class="cls-17" d="M7.88,98.24l-.28.15-.77.4c-.64.31-1.5.71-2.38,1.08l-.66.27-.31.13-.28.15a1.64,1.64,0,0,0-.25.19,1,1,0,0,0-.22.2,2.77,2.77,0,0,0-.36.42c-.09.15-.2.27-.27.4l-.18.32-.16.29.11-.31q0-.15.12-.36c.06-.13.14-.28.23-.44a2.63,2.63,0,0,1,.33-.49,1.25,1.25,0,0,1,.23-.23,1.88,1.88,0,0,1,.26-.22l.3-.19.33-.15.65-.27c.88-.37,1.76-.72,2.43-1l.82-.28Z"/><path class="cls-16" d="M7.25,102.34a5.21,5.21,0,0,1,0,4.68c-1.41,2.74-3.06.78-2.74-.37,0,0,.69-1.58,1-2.51A2.74,2.74,0,0,1,7.25,102.34Z"/><path class="cls-18" d="M7.25,102.34a5.21,5.21,0,0,1,0,4.68c-1.41,2.74-3.06.78-2.74-.37,0,0,.69-1.58,1-2.51A2.74,2.74,0,0,1,7.25,102.34Z"/><path class="cls-19" d="M19.85,95.29s-11-6.41-13.24-3.79c0,0-.89.63-1.79,1.41,2.58-1.18,2.79,2.47,6.34,4.56s6.16,1.55,5.72,3.25c-.68,2.64-4.32-1.22-8.24-.11-1.49.42-2.93.27-4.63,3.83-1.49,3.09-3.68,3.27-4,2.41-.1,1.22,1.64,1.41,2.26,1.45s2-.52,2.8-3,1.61-3.43,5.16-3.43,4.46,1.74,4.65,2.59.28,5.18,2.13,4.89,1.84-2.59,1.65-4.89,1.24-5.37,2.66-7S19.85,95.29,19.85,95.29Z"/><path class="cls-19" d="M19.85,95.29s-11-6.41-13.24-3.79a16.07,16.07,0,0,0-3.34,3.07,6,6,0,0,0-.71,2.9,4,4,0,0,0,.33,1.84s-.67,1.76-1.38,3.57c.84-1.95.58-2.41,3.17-3.28l1.67-.72s-4,.14-1.11-2.42c0,0-2.42-.63-.12-2.51S7.5,94.28,9,95.64a10.29,10.29,0,0,0,7.33,3.22c3.42.19,1.61,3.79,1.36,4.5-.83,2.35.84,4.71,0,5.78,1.16-.71,1.14-2.68,1-4.65-.18-2.31,1.24-5.37,2.66-7S19.85,95.29,19.85,95.29Z"/><path class="cls-7" d="M89.16,94.11H23.66s-1.87,5.64-1.17,10.43a27.94,27.94,0,0,0,22.66,6.25l13.27-.37s12,3,22.3-4.65a15,15,0,0,0,7.89-5.89C91.76,95.2,89.16,94.11,89.16,94.11Z"/><path class="cls-20" d="M89.16,94.11H23.66s-1.87,5.64-1.17,10.43a27.94,27.94,0,0,0,22.66,6.25l13.27-.37s12,3,22.3-4.65a15,15,0,0,0,7.89-5.89C91.76,95.2,89.16,94.11,89.16,94.11ZM28.42,106.92c-.24.65-1.61.45-3.72-1.09s-1.8-2.6-1.59-3c.44-.86,1.16.4,2.92,1.48S28.66,106.27,28.42,106.92Zm12.23,3.53a24.24,24.24,0,0,1-6.89-.71c-.82-.37-.4-1.69,1.36-1.34a22.7,22.7,0,0,0,5.71.1C42.22,108.29,43.68,110.41,40.65,110.45Zm10.8-.3c-3-.1-4.66-.12-4.84-1.53s.8-1.54,3.92-1.27,5.55.75,5.41,1.68S53.73,110.23,51.45,110.15Zm14.6-1.1c-.17,1.15-2.69,1.31-3.53,1.24s-3.06-.15-2.57-1.06,1-1,2.76-1S66.21,107.89,66.05,109.05Zm8-.25c-2.87.81-3.51.35-3.69,0-.28-.58.18-1,3-1.84s3-.35,3.46.07S77,108,74.09,108.8Z"/><path class="cls-20" d="M89.16,94.11H23.66s-1.87,5.64-1.17,10.43A19.26,19.26,0,0,0,24.28,106a3.72,3.72,0,0,1-1.68-4.08c.38-1.89.52-1.54,1.95-.11s4.53,3.23,4.66,3.9c.1.5.41,2.21-.55,2.84a28.49,28.49,0,0,0,5.17,1.85c-.87-.23-1.12-1-1.15-2s-.57-1.62,2.93-1.14a15.6,15.6,0,0,0,5.47.06c1.09-.11,1.68.26,2.09,2.12a1.54,1.54,0,0,1-.71,1.76c.88-.07,1.77-.17,2.69-.33l2.4-.06a4.4,4.4,0,0,1-1.47-2c-.58-1.92-.53-3,3-2.64s7.69.62,7.5,2.31c-.14,1.19-1.05,1.79-2.47,2.12l4.3-.12a19,19,0,0,0,1.95.34c-1.13-.18-.91-1.29-.75-2.12s-.08-1.27,3-1.38,3.93-.21,3.83,1.73a2.8,2.8,0,0,1-.85,2,29.36,29.36,0,0,0,6.63-1c-1.52.35-2.23-.47-2.23-1.66s.25-2,2.93-2.8,3.67-.92,4.25.65a2.23,2.23,0,0,1-.07,1.91,24.82,24.82,0,0,0,3.63-2.25,15,15,0,0,0,7.89-5.89C91.76,95.2,89.16,94.11,89.16,94.11Z"/><path class="cls-21" d="M51.36,112.78h0c-2.42,0-5.53-.28-6.63-1.6-1.67-2-1.76-6.45-1.76-7v-.85l15.92-2.28.14,1c1,7.24-.18,9.17-1,9.68C56.75,112.56,53.24,112.78,51.36,112.78ZM45,105.06c.1,1.47.44,3.85,1.29,4.89.3.36,1.91.89,5.12.89h0a16.12,16.12,0,0,0,5.63-.73c.48-.47.57-3.58.21-6.81Z"/><path class="cls-22" d="M45.64,110.05c.93,1.16,3.59,1.4,5.65,1.4h0c1.61,0,4.61-.19,5.71-.91.68-.44,1.69-2.14.83-8.49l-.1-.78-13.61,1.94v.73C44.13,104.38,44.21,108.27,45.64,110.05Zm.19-5.38,10.46-1.54,0,.3.88-.13c.36,3.23.27,6.34-.21,6.81a16.12,16.12,0,0,1-5.63.73h0c-3.21,0-4.82-.53-5.12-.89-.85-1-1.19-3.42-1.29-4.89l.9-.13A2.46,2.46,0,0,1,45.83,104.67Z"/><path class="cls-23" d="M22.49,104.54s-1.36.88-1.77.2,1.15-7.82,1.77-8.9l.58.47S21.9,101.39,22.49,104.54Z"/><path class="cls-23" d="M30,103.7a22.11,22.11,0,0,0-.57,5.44c.16,1.18.57,2.76,1.87,2.68s1.39-.77,1-2.95a12.73,12.73,0,0,1,.17-4.37Z"/><path class="cls-23" d="M68.61,103.62A22.41,22.41,0,0,1,69.75,109c0,1.2-.28,2.81-1.58,2.86s-1.46-.62-1.34-2.82a12.85,12.85,0,0,0-.64-4.33Z"/><path class="cls-23" d="M81.17,98.83a21.83,21.83,0,0,1,1.14,5.35c0,1.19-.27,2.81-1.58,2.86s-1.46-.62-1.34-2.82a12.85,12.85,0,0,0-.64-4.33Z"/><path class="cls-12" d="M57.14,73.17c-3.18-2.82-5.55-6.42-8.06-9.84a61.27,61.27,0,0,0-7.88-7.2A40.63,40.63,0,0,1,34,48.56a8,8,0,0,1-1.52.87c-3.65,1.68-9.67,6.13-15.11,16.15S14.79,75.28,13.25,76s-2.6,1.62-2.2,2.59-.1,1.69-.92,3.26-4,7.27-4,8.19,4,10.94,16.1,7.16c0,0,2.17,8.15,13.71,9.64A21.74,21.74,0,0,0,49,104.25,11.65,11.65,0,0,1,47.75,99c0-.35,0-.71,0-1.08A12.36,12.36,0,0,1,47.64,96c0-3.69,1.41-6.77,2.12-10.27a17.19,17.19,0,0,1,1.3-3.9,17.32,17.32,0,0,1,3.37-5.49,9.41,9.41,0,0,1,1.22-1.15,9.17,9.17,0,0,1,1.82-1.43l0-.25Z"/><path class="cls-23" d="M11,78.36s.09.22.21.56c.06.17.13.36.2.57s.15.44.22.66.16.44.22.65.16.39.22.56a1.56,1.56,0,0,0,.1.22l.08.17.06.16-.12-.12-.13-.14c0-.06-.11-.12-.16-.2l-.15-.25c-.05-.09-.11-.18-.16-.29s-.19-.43-.27-.66-.14-.46-.18-.68A5.7,5.7,0,0,1,11,79,3,3,0,0,1,11,78.36Z"/><path class="cls-23" d="M14,81.26s.08.12.22.3.17.2.27.33.24.25.39.39l.22.21.26.21c.18.15.39.26.59.4a5.37,5.37,0,0,0,.69.31,2.29,2.29,0,0,0,.37.12l.38.08a1.26,1.26,0,0,0,.39,0l.38,0,.76-.08c.23-.07.47-.12.69-.17s.42-.16.6-.23l.27-.11.23-.12.38-.19.34-.17-.3.22-.36.25-.21.15-.27.13c-.18.09-.38.2-.6.29l-.72.23-.8.11-.42,0a1.39,1.39,0,0,1-.41,0l-.42-.09a3,3,0,0,1-.39-.14,4.5,4.5,0,0,1-.73-.36,4.63,4.63,0,0,1-.59-.46l-.25-.24-.22-.24a5.29,5.29,0,0,1-.34-.44l-.23-.36A2.78,2.78,0,0,1,14,81.26Z"/><path class="cls-23" d="M26.34,61.78l0,.38c0,.24,0,.59-.08,1s-.05.89-.06,1.41c0,.26,0,.52,0,.79s0,.54,0,.82,0,.54,0,.81.07.53.1.78.1.5.14.73.13.43.18.63.15.36.21.52a2,2,0,0,0,.19.39c.11.21.17.34.17.34L27,70.07a2.24,2.24,0,0,1-.24-.36c-.08-.15-.18-.32-.27-.51s-.16-.41-.24-.64-.14-.48-.19-.74S26,67.3,25.93,67s-.06-.56-.07-.84a12.58,12.58,0,0,1,0-1.63c0-.27.05-.52.07-.75s.07-.46.1-.67c.06-.41.14-.75.19-1Z"/><path class="cls-23" d="M30.78,64.56s-.34.41-.87,1.19c-.27.39-.58.86-.92,1.43-.16.28-.34.57-.52.9s-.37.65-.55,1-.38.73-.57,1.12-.38.8-.56,1.22-.37.86-.54,1.31-.37.91-.53,1.38-.34.95-.49,1.45-.32,1-.44,1.5-.28,1-.4,1.54l-.33,1.57q-.3,1.59-.6,3.15c-.18,1-.35,2.07-.51,3.06q-.11.75-.21,1.47c-.06.48-.13.94-.18,1.4s-.09.91-.14,1.34-.05.85-.08,1.25c0,.2,0,.4,0,.59s0,.38,0,.56c0,.37,0,.71,0,1,0,.66,0,1.23,0,1.7,0,.94,0,1.47,0,1.47s0-.53,0-1.47c0-.47,0-1,0-1.7s0-1.39,0-2.2q0-.6.06-1.26c0-.43.08-.88.12-1.34.07-.92.21-1.89.34-2.89s.32-2,.49-3.07.39-2.1.58-3.16c.12-.53.23-1.05.35-1.58s.27-1,.41-1.55.3-1,.45-1.51.34-1,.51-1.45.35-.94.54-1.39.38-.88.58-1.3.39-.83.59-1.22.39-.76.59-1.11c.38-.71.77-1.35,1.13-1.9s.69-1,1-1.4C30.42,65,30.78,64.56,30.78,64.56Z"/><path class="cls-23" d="M8.27,85.37s.08.27.26.71a13.17,13.17,0,0,0,.89,1.75,11.13,11.13,0,0,0,.75,1.08,11.9,11.9,0,0,0,1,1.09,9.71,9.71,0,0,0,1.18,1,9.24,9.24,0,0,0,1.38.84,10.07,10.07,0,0,0,1.48.62l.76.22.76.16.74.11.71.06c.24,0,.47,0,.69,0s.43,0,.63,0c.41,0,.79,0,1.12-.06s.62,0,.86-.09l.75-.1-.74.16-.86.15-.53.07-.59,0c-.2,0-.42,0-.64,0s-.46,0-.7,0l-.73,0-.76-.1c-.26,0-.52-.1-.78-.15s-.52-.14-.78-.21a9.77,9.77,0,0,1-1.54-.63,10.68,10.68,0,0,1-1.41-.87,11.28,11.28,0,0,1-1.2-1.07A9,9,0,0,1,10,89.05a11.46,11.46,0,0,1-.71-1.13,10.79,10.79,0,0,1-.8-1.82A6.37,6.37,0,0,1,8.27,85.37Z"/><path class="cls-13" d="M57.14,73.17c-3.18-2.82-5.55-6.42-8.06-9.84a61.27,61.27,0,0,0-7.88-7.2A40.63,40.63,0,0,1,34,48.56a8,8,0,0,1-1.52.87,21.9,21.9,0,0,0-4.07,2.51c.54.75-.16,2.65-1.87,4.64-3.54,4.09-1.67,9-3.51,18.59s-7.75,7.59-7.75,7.59C18.8,84.8,18,91,14,90.26S8.27,85.38,9.47,83.1c-1.21,2.28-3.3,6.2-3.35,7,0,.91,4,10.94,16.1,7.16,0,0,2.17,8.15,13.71,9.64A21.74,21.74,0,0,0,49,104.25,11.65,11.65,0,0,1,47.75,99c0-.35,0-.71,0-1.08A12.36,12.36,0,0,1,47.64,96c0-3.69,1.41-6.77,2.12-10.27a17.19,17.19,0,0,1,1.3-3.9,17.32,17.32,0,0,1,3.37-5.49,9.41,9.41,0,0,1,1.22-1.15,9.17,9.17,0,0,1,1.82-1.43l0-.25Zm-12.42,20c-.9,13.6-11.71,15.42-18.1,8.54s-1.26-24,1.35-28.65c5.69-10.06,8.7-9.82,18.11-4.57S45.61,79.57,44.72,93.17Z"/><path class="cls-24" d="M57.14,73.17c-3.18-2.82-5.55-6.42-8.06-9.84a61.27,61.27,0,0,0-7.88-7.2A40.63,40.63,0,0,1,34,48.56a8,8,0,0,1-1.52.87c-.32.15-.67.33-1,.52l.08,0c1.44.84-6.36,8.72-5.26,9s16.65,6.6,21.1,8.87,6.56,5.33,2.3,11.65-4,13.35-4,19.33-6.72,9.7-15.23,6.2S22.44,94.2,24,83.41a50.66,50.66,0,0,1,6.34-18.26c-5,5-4.12-2.64-4.12-2.64C24.66,66.07,25.58,70.81,24,77s-4.61,6.89-4.61,6.89c1.95-.34,2.11,1.57.76,5.6s-7.81,2-7.81,2c2.71,1.62,7.81,4.58,3.42,5a9.45,9.45,0,0,1-8.47-3.82c1.91,3,6.44,7.23,15,4.57,0,0,2.17,8.15,13.71,9.64A21.74,21.74,0,0,0,49,104.25,11.65,11.65,0,0,1,47.75,99c0-.35,0-.71,0-1.08A12.36,12.36,0,0,1,47.64,96c0-3.69,1.41-6.77,2.12-10.27a17.19,17.19,0,0,1,1.3-3.9,17.32,17.32,0,0,1,3.37-5.49,9.41,9.41,0,0,1,1.22-1.15,9.17,9.17,0,0,1,1.82-1.43l0-.25Z"/><path class="cls-25" d="M16.42,69.25c-1.32,3.19-2.06,5.14-2,6.58s-2.76.8-1.24,3.17,4,2.53,3.52,0,2.28-10.74,6-17.69C27.23,52.66,20.38,59.69,16.42,69.25Z"/><path class="cls-25" d="M11.14,88.4c-.72-.53-2.34-3.15-1.41-5.12s1.19-2.15,2,.56c1.08,3.49,4.39-.85,3.85,1S13.25,90,11.14,88.4Z"/><path class="cls-25" d="M41.79,68.6C43.7,70,49.32,73.77,45,83.1s-2.6,23.6-14.26,20-4.64-20.64-4.29-13,5.38,10,7.76,5.83.44-8.8,5.37-13.43S44,70.66,38.54,69.12,38.05,65.9,41.79,68.6Z"/><path class="cls-14" d="M78.87,73c12.6-2.2,11-2.49,13.25-2.12,0,0-5.33-6.07-5.69-7.08a70.86,70.86,0,0,1,8.37-3.19L98.62,59S84.56,41.82,71.71,39.07c9,3.12,6.17,20.88-4.58,26.08C59.89,68.65,62.47,70.76,55,74,61.79,73.1,66.26,75.16,78.87,73Z"/><path class="cls-23" d="M58.17,73.2a.32.32,0,0,1-.32-.25.33.33,0,0,1,.25-.39c.55-.12,1.08-.21,1.62-.29a.33.33,0,0,1,.37.27.33.33,0,0,1-.28.37c-.52.08-1,.17-1.57.29ZM69,72.8H67.88a.33.33,0,0,1,0-.65h1.62a.32.32,0,0,1,.32.32.31.31,0,0,1-.32.32Zm2.15,0a.32.32,0,0,1-.33-.3.32.32,0,0,1,.31-.34c.49,0,1-.06,1.61-.12a.32.32,0,0,1,.35.29.31.31,0,0,1-.29.35c-.59.06-1.14.1-1.64.12Zm-4.88,0h0l-.5,0-1.13,0a.32.32,0,0,1-.31-.34.31.31,0,0,1,.33-.31l1.13,0,.5,0a.33.33,0,0,1,0,.65Zm-4.88,0a.32.32,0,0,1-.32-.3.33.33,0,0,1,.3-.35c.52,0,1.06,0,1.64-.06h0a.32.32,0,0,1,.32.32.32.32,0,0,1-.32.33c-.57,0-1.09,0-1.6.06Zm13-.28a.32.32,0,0,1-.32-.28.31.31,0,0,1,.28-.36L76,71.61a.31.31,0,0,1,.36.27.32.32,0,0,1-.27.37l-1.62.21ZM77.6,72a.33.33,0,0,1-.32-.27.32.32,0,0,1,.27-.37l1.61-.27a.32.32,0,1,1,.1.64L77.65,72Zm3.21-.54a.33.33,0,0,1-.32-.27.34.34,0,0,1,.26-.38l1.6-.29a.32.32,0,1,1,.12.63l-1.6.3Zm3.2-.61a.33.33,0,0,1-.32-.26.32.32,0,0,1,.26-.38l1.59-.33a.33.33,0,0,1,.39.25.34.34,0,0,1-.26.39l-1.59.32Zm3.19-.67a.31.31,0,0,1-.31-.25.32.32,0,0,1,.24-.39l.71-.15a.05.05,0,0,1,0,0,.32.32,0,0,1,.12-.44.33.33,0,0,1,.44.12c.09.15.17.3.24.44a.34.34,0,0,1,0,.28.31.31,0,0,1-.22.18l-1.13.25Zm0-2a.31.31,0,0,1-.26-.14c-.29-.39-.62-.82-1-1.26a.33.33,0,0,1,0-.46.32.32,0,0,1,.45.05c.38.45.72.89,1,1.29a.32.32,0,0,1-.08.45A.26.26,0,0,1,87.2,68.18Zm-2.06-2.51a.32.32,0,0,1-.24-.11c-.35-.39-.72-.79-1.1-1.18a.33.33,0,0,1,.48-.45q.57.6,1.11,1.2a.33.33,0,0,1,0,.46A.35.35,0,0,1,85.14,65.67ZM84,63.54a.31.31,0,0,1-.3-.2.32.32,0,0,1,.18-.42l1.49-.63a.33.33,0,0,1,.43.17.32.32,0,0,1-.17.42l-1.5.64Zm3-1.27a.32.32,0,0,1-.29-.2.31.31,0,0,1,.16-.42L88.37,61a.33.33,0,0,1,.43.17.32.32,0,0,1-.17.42l-1.49.66A.28.28,0,0,1,87,62.27ZM90,61a.32.32,0,0,1-.3-.19.33.33,0,0,1,.16-.43l1.48-.67a.33.33,0,0,1,.43.16.32.32,0,0,1-.16.43l-1.48.67A.31.31,0,0,1,90,61Zm3-1.35a.33.33,0,0,1-.3-.19.33.33,0,0,1,.16-.43l1.47-.68a.32.32,0,1,1,.28.58l-1.48.69A.31.31,0,0,1,93,59.6ZM95,58a.33.33,0,0,1-.25-.12c-.31-.38-.66-.79-1.05-1.2a.32.32,0,0,1,0-.46.33.33,0,0,1,.46,0c.4.43.77.84,1.09,1.24a.32.32,0,0,1,0,.45A.31.31,0,0,1,95,58Zm-2.2-2.38a.33.33,0,0,1-.23-.09c-.37-.35-.76-.72-1.18-1.1a.33.33,0,0,1,.44-.48c.42.38.82.76,1.19,1.12a.32.32,0,0,1,0,.46A.33.33,0,0,1,92.81,55.63ZM90.4,53.45a.33.33,0,0,1-.21-.07l-1.24-1a.32.32,0,0,1,0-.45.33.33,0,0,1,.46,0c.42.34.84.69,1.25,1a.31.31,0,0,1,0,.45A.32.32,0,0,1,90.4,53.45ZM87.89,51.4a.31.31,0,0,1-.21-.07l-1.28-1a.32.32,0,1,1,.39-.51l1.3,1a.33.33,0,0,1,0,.46A.32.32,0,0,1,87.89,51.4Zm-2.6-2a.35.35,0,0,1-.19-.06l-1.32-1a.32.32,0,1,1,.38-.52l1.32,1a.31.31,0,0,1,.07.45A.3.3,0,0,1,85.29,49.44Zm-2.65-1.88a.33.33,0,0,1-.19-.06c-.83-.57-1.34-.9-1.34-.9a.32.32,0,1,1,.35-.54s.52.33,1.36.91a.32.32,0,0,1,.09.45A.35.35,0,0,1,82.64,47.56Z"/><path class="cls-24" d="M73.82,72.61c-5.85.73-15.66.79-11.16-2.45s15.5-6.36,18-12,7-9.16,12.17-5c3.11,2.47,6.18,5.58,3.05,6.91L98.62,59S84.56,41.82,71.71,39.07c9,3.12,6.17,20.88-4.58,26.08C59.89,68.65,62.47,70.76,55,74c6.79-.89,11.26,1.17,23.87-1,11.74-2,11.16-2.44,12.84-2.19C89,69.7,79.68,71.89,73.82,72.61Z"/><path class="cls-13" d="M85.57,64.57C87.49,66.35,90.81,69,92,70.82l.13,0s-5.33-6.07-5.69-7.08a70.86,70.86,0,0,1,8.37-3.19l.57-.24C93,61.13,82.86,62.06,85.57,64.57Z"/><path class="cls-15" d="M66,67.12c6-3.72,13.53-7.6,15.72-14,1.05-3.05,4.19-4,7.2-4-5-4.34-11.22-8.74-17.2-10,9,3.12,6.17,20.88-4.58,26.08C59.89,68.65,62.47,70.76,55,74a32.7,32.7,0,0,1,5.64-.2C57.32,73.56,60.28,70.68,66,67.12Z"/><path class="cls-12" d="M86.43,63.76c.36,1,5.69,7.08,5.69,7.08-2.24-.37-.65-.08-13.25,2.12S61.79,73.1,55,74c0,0-11.42,8.49-8.41,27.89,0,0-.25,3.71,4,4s12.07,2.83,25.84-2c0,0,1,3.88,4.88.64s11.8-8.16,16.28-18.67S95.94,62,94.8,60.57A70.86,70.86,0,0,0,86.43,63.76Z"/><path class="cls-23" d="M60.49,107a50,50,0,0,1-7.48-.63c-.94-.13-1.74-.25-2.45-.3a4.06,4.06,0,0,1-4.14-4.2c-3-19.26,8.37-27.94,8.49-28l0,0h0a29.6,29.6,0,0,1,3.88-.24c1.25,0,2.48.06,3.79.12,1.48.07,3,.15,4.78.15A65,65,0,0,0,78.84,72.8c5.35-.94,8.11-1.52,9.75-1.87A13.22,13.22,0,0,1,91,70.54a5,5,0,0,1,.73.07c-1.13-1.3-5.1-5.89-5.43-6.79l0-.14.14-.06a70.53,70.53,0,0,1,8.4-3.21l.1,0,.07.08c.86,1.1,7.43,14.55,2.79,25.46-3.8,8.92-10.1,13.84-14.28,17.1-.75.58-1.46,1.14-2,1.64A4.62,4.62,0,0,1,78.58,106a2.61,2.61,0,0,1-2.28-1.89A47.43,47.43,0,0,1,60.49,107ZM55.07,74.14c-.67.53-11.2,9.15-8.32,27.71v0c0,.14-.18,3.56,3.83,3.87.72,0,1.53.17,2.47.3a49.72,49.72,0,0,0,7.44.63,47.1,47.1,0,0,0,15.86-3l.17,0,0,.17c0,.07.51,1.81,2,1.81a4.34,4.34,0,0,0,2.6-1.25c.6-.5,1.31-1.06,2.06-1.65,4.15-3.23,10.41-8.12,14.18-17,4.48-10.55-1.63-23.49-2.68-25.05a69.44,69.44,0,0,0-8.1,3.08,79.82,79.82,0,0,0,5.6,6.89l.3.34L92.09,71A6.82,6.82,0,0,0,91,70.86a12.94,12.94,0,0,0-2.31.39c-1.65.35-4.41.93-9.77,1.87a65.5,65.5,0,0,1-11.46,1.06c-1.77,0-3.31-.07-4.8-.14-1.3-.07-2.53-.13-3.77-.13A30,30,0,0,0,55.07,74.14Z"/><path class="cls-12" d="M86.43,63.76c.36,1,5.69,7.08,5.69,7.08-2.24-.37-.65-.08-13.25,2.12S61.79,73.1,55,74c0,0-11.42,8.49-8.41,27.89,0,0-.25,3.71,4,4s12.07,2.83,25.84-2c0,0,1,3.88,4.88.64s11.8-8.16,16.28-18.67S95.94,62,94.8,60.57A70.86,70.86,0,0,0,86.43,63.76Z"/><path class="cls-23" d="M83.58,73.42l.07.21c0,.13.09.33.16.56.13.46.29,1.08.45,1.69.08.31.17.61.25.89s.08.28.13.41a3,3,0,0,0,.12.36,3.11,3.11,0,0,0,.12.3,1.5,1.5,0,0,0,.11.22,1.51,1.51,0,0,1,.12.19l-.17-.15a2,2,0,0,1-.16-.2,3,3,0,0,1-.37-.63c-.06-.13-.11-.26-.17-.41S84,76.27,84,76s-.15-.63-.2-.92a7.39,7.39,0,0,1-.12-.82c0-.24,0-.44,0-.58S83.58,73.42,83.58,73.42Z"/><path class="cls-23" d="M91.5,81.16l-.35-.32c-.23-.2-.56-.46-1-.76a10.37,10.37,0,0,0-1.47-.91,8,8,0,0,0-.89-.39,6.08,6.08,0,0,0-.95-.27,4.73,4.73,0,0,0-1-.1,4.85,4.85,0,0,0-1,.1c-.15,0-.3.07-.44.12s-.29.09-.42.15l-.37.18-.34.2c-.11.07-.2.15-.3.21l-.26.2c-.16.13-.3.24-.41.35l-.34.32.3-.37c.09-.12.23-.24.37-.39a3.71,3.71,0,0,1,.54-.47l.33-.23.38-.21.43-.19c.14-.06.3-.1.46-.15a4.73,4.73,0,0,1,1-.13,5.32,5.32,0,0,1,1.05.09,6.78,6.78,0,0,1,1,.3,5.88,5.88,0,0,1,.91.43,9.36,9.36,0,0,1,1.45,1,9.73,9.73,0,0,1,.9.87C91.39,81,91.5,81.16,91.5,81.16Z"/><path class="cls-23" d="M89.16,84.39s-.13-.16-.39-.43a14.42,14.42,0,0,0-1.12-1,12.5,12.5,0,0,0-1.76-1.23,9.78,9.78,0,0,0-1.07-.56,11.42,11.42,0,0,0-1.15-.45l-.6-.17-.61-.14a8.2,8.2,0,0,0-1.19-.14,3.79,3.79,0,0,0-.58,0,5,5,0,0,0-.55,0,9.87,9.87,0,0,0-1,.1c-.31.06-.6.1-.84.17s-.47.1-.65.16l-.56.17.54-.23c.17-.07.39-.13.63-.22s.54-.15.85-.23.65-.12,1-.16a8.81,8.81,0,0,1,1.16,0,7.57,7.57,0,0,1,1.24.13c.21,0,.42.08.63.13l.62.17a12.32,12.32,0,0,1,1.19.48,11.28,11.28,0,0,1,2.81,1.94,11.86,11.86,0,0,1,1,1.12A5.29,5.29,0,0,1,89.16,84.39Z"/><path class="cls-23" d="M84.35,101.85s.06-.2.15-.57.21-.91.34-1.61.25-1.55.33-2.54a22.41,22.41,0,0,0,0-3.31A16.23,16.23,0,0,0,84.54,90c-.11-.32-.22-.66-.34-1s-.28-.66-.43-1a20.67,20.67,0,0,0-1-2,14.61,14.61,0,0,0-2.94-3.6,6.73,6.73,0,0,0-2-1.25,3,3,0,0,0-2.26,0c-.09,0-.17.09-.26.13l-.27.15c-.17.1-.35.2-.54.29l-1.11.53c-.18.08-.35.19-.53.28a5.11,5.11,0,0,0-.48.33,2.59,2.59,0,0,0-.41.4l-.18.22-.14.25A4.86,4.86,0,0,0,71.2,86c0,.38,0,.77.1,1.15s.09.76.17,1.13c.28,1.49.7,2.9,1.09,4.24s.77,2.61,1.11,3.78.74,2.21,1,3.15c.16.47.3.91.44,1.32s.3.76.42,1.1c.26.66.44,1.19.6,1.54l.23.54s-.09-.19-.24-.54-.37-.87-.64-1.52l-.44-1.1c-.16-.4-.31-.83-.48-1.3-.33-.93-.73-2-1.11-3.14l-1.16-3.76a36.19,36.19,0,0,1-1.14-4.26c-.09-.38-.12-.76-.19-1.15s-.07-.78-.1-1.18a5.06,5.06,0,0,1,.43-2.38l.16-.28.19-.25a3.19,3.19,0,0,1,.46-.44,5.88,5.88,0,0,1,.51-.36c.19-.09.37-.2.55-.29.37-.18.75-.35,1.1-.53l.53-.29.27-.15a1.3,1.3,0,0,1,.29-.14,3.23,3.23,0,0,1,2.5,0A7.16,7.16,0,0,1,80,82.19a15.06,15.06,0,0,1,3,3.68,19.17,19.17,0,0,1,1,2c.15.34.29.68.42,1s.23.68.34,1a16.56,16.56,0,0,1,.63,3.9,20.75,20.75,0,0,1-.12,3.33c-.1,1-.25,1.84-.39,2.54s-.28,1.24-.38,1.61S84.35,101.85,84.35,101.85Z"/><path class="cls-23" d="M78.19,105.79a2.87,2.87,0,0,0,.18-.24,6.19,6.19,0,0,0,.39-.73,9.43,9.43,0,0,0,.47-1.2c.15-.47.28-1,.41-1.62.06-.3.1-.61.16-.94s.08-.66.12-1,0-.71.08-1.08,0-.74,0-1.12c0-.77,0-1.56-.05-2.36l0-.6-.07-.6-.07-.61,0-.31c0-.1-.05-.2-.07-.3-.08-.39-.15-.79-.24-1.18s-.23-.78-.34-1.16-.29-.74-.43-1.11-.33-.71-.49-1.05-.36-.66-.53-1-.38-.62-.57-.92-.4-.56-.59-.83-.4-.52-.59-.75-.2-.23-.29-.35l-.29-.31c-.19-.21-.37-.41-.55-.58a12,12,0,0,0-.94-.89c-.54-.48-.87-.72-.87-.72a10.85,10.85,0,0,1,.91.67c.29.23.62.5,1,.85.19.17.38.36.57.56l.31.31c.09.11.19.23.3.34s.41.48.61.74.43.54.62.83a15.41,15.41,0,0,1,1.17,1.91c.16.35.36.7.5,1.07s.31.74.44,1.12l.36,1.18c.1.4.18.81.27,1.22l.06.31,0,.3.06.61.07.62c0,.2,0,.4,0,.61,0,.81,0,1.6,0,2.37,0,.39,0,.77,0,1.14s-.08.73-.11,1.09-.1.69-.15,1-.13.64-.19.94a14.46,14.46,0,0,1-.48,1.62,11,11,0,0,1-.52,1.19,5.89,5.89,0,0,1-.44.71A1.33,1.33,0,0,1,78.19,105.79Z"/><path class="cls-16" d="M71.71,39.07C58.86,36.32,51.3,32,51.3,32a44.28,44.28,0,0,0-5.22,1c-5,2.29-2.58,17.49,3.19,25.89,3.6,5.24,6.72,10.95,7,14.55,5.95-2.92,4.09-5,10.89-8.27C77.88,60,80.71,42.19,71.71,39.07Z"/><path class="cls-19" d="M71.71,39.07C58.86,36.32,51.3,32,51.3,32a44.28,44.28,0,0,0-5.22,1c-5,2.29-2.58,17.49,3.19,25.89,3.6,5.24,6.72,10.95,7,14.55,5.95-2.92,4.09-5,10.89-8.27C77.88,60,80.71,42.19,71.71,39.07ZM65.15,64.83A19.91,19.91,0,0,0,60,69c-1.79,1.94-2.6,2.8-3.49,1-.57-1.17-1.46-3.48-2.58-5.5-1.52-2.73-2.06-3.5.33-2.42s3.13.81,8.56.81S67.67,63.26,65.15,64.83Z"/><path class="cls-26" d="M71.71,39.07C58.86,36.32,51.3,32,51.3,32a44.28,44.28,0,0,0-5.22,1c-5,2.29-2.58,17.49,3.19,25.89l.46.68h0a29.89,29.89,0,0,0,5.83,2.23c3.2.84,9.54.62,12.57,0s1.72,1.94-1.91,3.4-5.63,4.64-6.81,5.66c-1.64,1.41-2.36,2.61-4.41-1.92,0,0,0,0,0,0a15.14,15.14,0,0,1,1.26,4.54c5.95-2.92,4.09-5,10.89-8.27C77.88,60,80.71,42.19,71.71,39.07Z"/><path class="cls-14" d="M46.08,33c-5.91,1.44-15.45,4.81-21.2,12.14l8.13,6A20.56,20.56,0,0,0,26.1,59S49.27,64.69,55,74l1.24-.57c-.25-3.6-3.37-9.31-7-14.55C43.5,50.47,41.06,35.27,46.08,33Z"/><path class="cls-23" d="M43.78,35a.33.33,0,0,1-.3-.2.32.32,0,0,1,.18-.42l.76-.31a.32.32,0,1,1,.23.6l-.74.3A.28.28,0,0,1,43.78,35Z"/><path class="cls-23" d="M29,43.67a.31.31,0,0,1-.24-.1.33.33,0,0,1,0-.46c.42-.37.87-.74,1.34-1.11a.33.33,0,0,1,.46.06.32.32,0,0,1-.06.45c-.46.36-.9.73-1.3,1.08A.32.32,0,0,1,29,43.67Zm2.7-2.11a.33.33,0,0,1-.27-.14.32.32,0,0,1,.08-.45c.45-.32.93-.65,1.43-1a.32.32,0,1,1,.35.54c-.48.32-1,.64-1.4,1A.35.35,0,0,1,31.73,41.56Zm2.87-1.88a.32.32,0,0,1-.28-.15.34.34,0,0,1,.11-.45l1.49-.87a.32.32,0,0,1,.44.12.32.32,0,0,1-.12.44l-1.47.86A.26.26,0,0,1,34.6,39.68Zm3-1.69a.32.32,0,0,1-.28-.17.32.32,0,0,1,.13-.44L39,36.59a.33.33,0,0,1,.44.14.32.32,0,0,1-.14.43L37.74,38A.29.29,0,0,1,37.58,38Zm3.07-1.55a.31.31,0,0,1-.29-.18.32.32,0,0,1,.15-.43l1.57-.72a.32.32,0,0,1,.43.16.33.33,0,0,1-.17.43c-.46.2-1,.44-1.55.71A.32.32,0,0,1,40.65,36.44Z"/><path class="cls-23" d="M27.92,45.87a.41.41,0,0,1-.18,0l-.68-.43a.34.34,0,0,1-.15-.23A.35.35,0,0,1,27,44.9q.27-.3.57-.6a.32.32,0,1,1,.46.45l-.28.3.36.23a.31.31,0,0,1,.09.44A.31.31,0,0,1,27.92,45.87Z"/><path class="cls-23" d="M33.31,49.76a.32.32,0,0,1-.21-.08c-.4-.33-.83-.67-1.29-1a.32.32,0,0,1-.06-.45.33.33,0,0,1,.46-.06c.47.36.91.71,1.31,1a.32.32,0,0,1,0,.45A.33.33,0,0,1,33.31,49.76Zm-2.64-2a.35.35,0,0,1-.19-.06c-.43-.31-.89-.63-1.35-.94a.32.32,0,1,1,.36-.54c.47.32.93.64,1.37,1a.32.32,0,0,1,.08.45A.34.34,0,0,1,30.67,47.73Z"/><path class="cls-23" d="M34.48,51.94a.33.33,0,0,1-.2-.58l.36-.28-.32-.31a.33.33,0,0,1,0-.46.34.34,0,0,1,.46,0l.59.59a.38.38,0,0,1,.09.25.36.36,0,0,1-.13.23l-.63.49A.32.32,0,0,1,34.48,51.94Z"/><path class="cls-23" d="M29.8,56.4a.31.31,0,0,1-.2-.07.32.32,0,0,1-.05-.46c.31-.38.68-.8,1.09-1.23a.33.33,0,1,1,.47.45c-.4.42-.76.82-1.06,1.19A.32.32,0,0,1,29.8,56.4ZM32,54.05a.33.33,0,0,1-.24-.1.33.33,0,0,1,0-.46c.38-.35.79-.72,1.22-1.09a.32.32,0,0,1,.45,0,.31.31,0,0,1,0,.45q-.63.54-1.2,1.08A.35.35,0,0,1,32,54.05Z"/><path class="cls-23" d="M29.33,58.68h-.09l-.77-.21a.31.31,0,0,1-.21-.16.33.33,0,0,1,0-.26,5.2,5.2,0,0,1,.35-.79.33.33,0,0,1,.44-.13.32.32,0,0,1,.13.44q-.11.19-.18.36l.44.12a.32.32,0,0,1,.22.4A.33.33,0,0,1,29.33,58.68Z"/><path class="cls-23" d="M52.53,69.52a.3.3,0,0,1-.22-.08c-.38-.34-.79-.68-1.22-1A.32.32,0,0,1,51,68a.33.33,0,0,1,.46,0c.44.34.87.69,1.25,1a.32.32,0,0,1,0,.46A.34.34,0,0,1,52.53,69.52Zm-2.54-2a.3.3,0,0,1-.18-.06c-.43-.29-.88-.59-1.34-.88a.32.32,0,0,1-.1-.44.33.33,0,0,1,.45-.1c.47.29.93.59,1.36.89a.32.32,0,0,1,.08.45A.33.33,0,0,1,50,67.54Zm-2.73-1.72a.32.32,0,0,1-.16,0c-.45-.26-.92-.52-1.4-.77a.32.32,0,1,1,.31-.57c.48.25,1,.52,1.42.78a.33.33,0,0,1,.12.44A.32.32,0,0,1,47.26,65.82Zm-2.84-1.51a.4.4,0,0,1-.15,0l-1.44-.7a.33.33,0,0,1-.16-.43A.32.32,0,0,1,43.1,63c.49.22,1,.46,1.46.7a.31.31,0,0,1,.15.43A.33.33,0,0,1,44.42,64.31ZM41.49,63l-.13,0-1.47-.63a.32.32,0,0,1,.24-.6c.5.2,1,.42,1.49.63a.33.33,0,0,1,.17.43A.32.32,0,0,1,41.49,63Zm-3-1.22-.12,0-1.5-.57a.31.31,0,0,1-.19-.41.33.33,0,0,1,.42-.19l1.51.57a.33.33,0,0,1,.19.42A.35.35,0,0,1,38.51,61.73Zm-3-1.12-.11,0-1.52-.52a.32.32,0,1,1,.2-.61l1.53.52a.32.32,0,0,1-.1.63Zm-3.07-1h-.1l-1.53-.47a.32.32,0,0,1-.22-.41.32.32,0,0,1,.4-.21l1.55.47a.32.32,0,0,1,.21.41A.32.32,0,0,1,32.42,59.59Z"/><path class="cls-23" d="M54.21,71.24a.34.34,0,0,1-.25-.11c-.17-.21-.35-.4-.53-.6a.32.32,0,0,1,0-.45.25.25,0,0,1,.16-.08.28.28,0,0,1,.13-.11.31.31,0,0,1,.43.16l.34.74a.32.32,0,0,1-.13.4A.34.34,0,0,1,54.21,71.24Z"/><path class="cls-23" d="M53.15,69a.33.33,0,0,1-.3-.19c-.22-.46-.48-1-.76-1.53a.32.32,0,0,1,.15-.43.33.33,0,0,1,.44.14l.76,1.54a.32.32,0,0,1-.15.43A.27.27,0,0,1,53.15,69ZM51.6,65.9a.32.32,0,0,1-.29-.17l-.81-1.5a.32.32,0,0,1,.56-.32c.29.52.57,1,.83,1.52a.32.32,0,0,1-.14.43A.28.28,0,0,1,51.6,65.9Zm-1.67-3a.33.33,0,0,1-.28-.16c-.3-.51-.6-1-.89-1.46a.32.32,0,0,1,.55-.34c.3.46.6,1,.9,1.47a.32.32,0,0,1-.12.44A.33.33,0,0,1,49.93,62.91ZM48.1,60a.32.32,0,0,1-.27-.14c-.34-.49-.67-.95-1-1.37A.32.32,0,0,1,46.9,58a.32.32,0,0,1,.45.06c.33.43.67.91,1,1.41a.31.31,0,0,1-.08.45A.41.41,0,0,1,48.1,60Z"/><path class="cls-23" d="M46,57.3a.3.3,0,0,1-.24-.11l-.54-.57a.33.33,0,0,1,.46-.46q.28.29.57.6a.32.32,0,0,1,0,.46A.3.3,0,0,1,46,57.3Z"/><path class="cls-24" d="M49.27,58.87c-5.77-8.4-8.21-23.6-3.19-25.89-5.91,1.44-15.45,4.81-21.2,12.14,0,0,9.27-8.44,11.86-7s-.91,3.63.71,5.64-1.24,7.76,3.27,12,7.49,4.14,10.66,9.45c4,6.74,2.26,4.74-6.12.1-7.18-4-14.44-6-19-6.28,1.8.46,23.29,6.1,28.78,15l1.24-.57C56,69.82,52.87,64.11,49.27,58.87Z"/><path class="cls-24" d="M33.9,51.11c1.26-.85-6.8-4.35-8.45-5.57C27.12,46.78,32,50.38,33,51.11a20.94,20.94,0,0,0-6.69,7.37A22.72,22.72,0,0,1,33.9,51.11Z"/><path class="cls-15" d="M49.27,58.87c-5.77-8.4-8.21-23.6-3.19-25.89a53,53,0,0,0-6.73,2.11,71.33,71.33,0,0,0-.4,8.37c.3,4.23-.68,7.2,5.12,11.84,4.21,3.36,8.17,8.22,9.81,12.92,1.37,3.94.18,4-1.61,2.59A15,15,0,0,1,55,74l1.24-.57C56,69.82,52.87,64.11,49.27,58.87Z"/><path class="cls-27" d="M45.26,33.2s-4.53,10.88-5,15.65,8.62,10.59,14.6,12.29,22.24,0,23.94-4.45,3.63-11.48,1.7-13.18S45.26,33.2,45.26,33.2Z"/><path class="cls-17" d="M48.7,52.81a2,2,0,0,0-.07.21,4,4,0,0,0-.11.61,3.53,3.53,0,0,0,0,1c0,.09,0,.18.07.28l0,.14.06.15c0,.09.07.19.11.29l.16.29a4.29,4.29,0,0,0,.4.58c.15.19.36.35.54.54s.42.31.64.47l.73.42c.26.13.53.24.8.36a7.59,7.59,0,0,0,.84.3l.43.15.44.11c.3.07.6.16.9.22l.9.17c.31,0,.61.07.91.11s.6,0,.9.06a8.45,8.45,0,0,0,.87,0h.43l.42,0c.28,0,.55,0,.81-.08a13.92,13.92,0,0,0,1.47-.26c.45-.11.86-.22,1.22-.34a9,9,0,0,0,.91-.34l.57-.25.2-.11a5.61,5.61,0,0,1-.74.42,12.3,12.3,0,0,1-2.11.8,13.92,13.92,0,0,1-1.49.31,6.88,6.88,0,0,1-.81.11,8.29,8.29,0,0,1-.87.06,8.81,8.81,0,0,1-.89,0c-.3,0-.61,0-.92-.05l-.92-.1-.93-.17c-.31-.06-.6-.15-.91-.23l-.45-.12-.44-.15c-.29-.11-.58-.19-.86-.32L51.16,58l-.75-.45c-.22-.18-.44-.34-.65-.52a7.28,7.28,0,0,1-.54-.58,4.66,4.66,0,0,1-.4-.62c0-.11-.11-.21-.16-.31s-.07-.21-.1-.32,0-.1-.05-.15l0-.15c0-.1,0-.2,0-.29a3.92,3.92,0,0,1,0-1,2.75,2.75,0,0,1,.16-.6Z"/><path class="cls-17" d="M58.21,45.31l-.55.64c-.36.4-.86,1-1.48,1.66s-1.34,1.48-2.12,2.32c-.39.43-.8.86-1.21,1.3l-.08.09,0,0,0,0a1.15,1.15,0,0,0-.14.17l-.1.18c0,.06,0,.12-.08.19a1.49,1.49,0,0,0,0,.81,3,3,0,0,0,.95,1.43,6.8,6.8,0,0,0,1.43,1,9.78,9.78,0,0,0,3,1,12.28,12.28,0,0,0,1.24.12c.37,0,.7,0,1,0s.47-.05.62-.08l.22,0-.22,0a5.26,5.26,0,0,1-.62.12c-.26,0-.59.07-1,.09a9.32,9.32,0,0,1-4.32-1,7.19,7.19,0,0,1-1.51-1,3.33,3.33,0,0,1-1.06-1.57,1.76,1.76,0,0,1,0-1,1.57,1.57,0,0,1,.09-.23l.14-.22a1.24,1.24,0,0,1,.14-.18l0-.05,0,0,.08-.08,1.22-1.29L56,47.48l1.57-1.58Z"/><path class="cls-28" d="M50.87,50.39c2.77-.24-1.55,4.52,6.58,5.78,9.29,1.44,3.26-4.87,7.21-2.12,2.94,2,9.44,3.45,14,2.84a1.67,1.67,0,0,0,.08-.2c1.71-4.45,3.63-11.48,1.7-13.18-.89-.77-8.34-3-16.16-5.19-1,5.13-1.57,11.25-2.91,13.36-2.65,4.2-13.71,3.77-7.26-2.07,3-2.75,5.33-7.7,6.91-12.19-8.17-2.24-15.8-4.22-15.8-4.22A118.62,118.62,0,0,0,40.9,45.6C43.47,48.07,48.09,50.62,50.87,50.39Z"/><path class="cls-28" d="M61.41,54.21c-1.3,2-4.66,2-6.21,1.19a1.24,1.24,0,0,0-1-.18,10.41,10.41,0,0,0,3.24,1c8.13,1.26,4.52-3.41,6.15-2.76C62.63,52.79,62.42,52.68,61.41,54.21Z"/><path class="cls-28" d="M61.09,59.8c3.45-.36,8.1-4.32,2.51-2s-12-.4-13-1.13c-2.86-2.2-1.31-5.08-2-4.33s-.84,3.13.9,4.85-3.93-.07-7.12-3.56c3,3.33,8.45,6.38,12.5,7.53,4.46,1.26,14.65.64,20.25-1.61C62.08,63.05,57.64,60.17,61.09,59.8Z"/><path class="cls-28" d="M48.53,53.3s-1.2,3.6,3.84,5.52,8.92.83,11.23-.63c0,0-3,1.8-9,.8S48.23,54.69,48.53,53.3Z"/><path class="cls-12" d="M40.23,33.65s-2,4.77-1,8.33,7.7,6.68,10.9,7.33,6.23.32,8.32-4.8S40.23,33.65,40.23,33.65Z"/><path class="cls-12" d="M63.53,43.33s-1.06,5.49.16,8.13c.92,2,4.39,3.67,8.94,4.37s9.26,1,9.94-6.28S63.53,43.33,63.53,43.33Z"/><path d="M63.78,51.11a.49.49,0,0,1-.4-.21A7.15,7.15,0,0,0,55.63,48a.5.5,0,0,1-.61-.33.48.48,0,0,1,.33-.6,8.25,8.25,0,0,1,8.83,3.32.49.49,0,0,1-.12.68A.54.54,0,0,1,63.78,51.11Z"/><path d="M42.4,34.31l3.21,13.36a20.12,20.12,0,0,0,4.53,1.64l.27,0L47.55,36.12C45.59,35.36,43.74,34.74,42.4,34.31Z"/><path d="M50.87,37.49l2.71,11.94c1.87-.37,3.56-1.69,4.88-4.92C59.45,42.08,55.4,39.52,50.87,37.49Z"/><path d="M39.24,42c.46,1.6,2.07,3.11,4,4.35L40.11,33.94C39.7,35,38.36,38.94,39.24,42Z"/><path d="M63.53,43.33s-1.06,5.49.16,8.13c.68,1.48,2.76,2.78,5.65,3.64l-3-11.83C64.66,43.26,63.53,43.33,63.53,43.33Z"/><path d="M68.51,43.31l3,12.31c.38.08.77.15,1.16.21a25.3,25.3,0,0,0,3.3.34l-2.7-12.48C71.6,43.48,70,43.37,68.51,43.31Z"/><path d="M82.57,49.55c.27-2.85-2.59-4.43-6.16-5.29L79,55.71C80.86,55,82.23,53.24,82.57,49.55Z"/><path class="cls-29" d="M102.2,35.67c-3.09-9.45-14.47-12.93-14.47-12.93-1.45,3.2-1.28,7.76-1,12.29s-8.51,9.16-24.18,2.26-17.29-19-17.29-19c6.12-1.3,9.46-10,9.46-10-18.14-13.5-29.35,3.32-25.37,15.2s18.29,22,40.16,25.3S105.29,45.13,102.2,35.67Z"/><path class="cls-29" d="M87.73,22.74a2.11,2.11,0,0,1,.16-.3c4.39-8.17,1.19-14-5.88-15.11-6.39-1-8.43-3.59-10.22-4.56S67.4-.7,62.85.19s-8.13,8.08-8.13,8.08A23.69,23.69,0,0,1,50.53,15h0c.58,4.18,2.7,10.49,12.34,15.34s20.58,5.71,23.68.7h0C86.5,27.92,86.71,25,87.73,22.74Z"/><path class="cls-30" d="M62.87,30.34C53.23,25.49,51.11,19.18,50.53,15h0a10.33,10.33,0,0,1-5.27,3.27s1.62,12.12,17.29,19S87,39.55,86.73,35c-.09-1.34-.15-2.68-.18-4h0C83.45,36.05,72.52,35.19,62.87,30.34Z"/><path class="cls-31" d="M65.15,2.26s0,.09.07.26a5.93,5.93,0,0,0,.24.72,11,11,0,0,0,.48,1.06c.11.2.22.41.36.62s.27.45.44.67l.25.34c.09.11.19.22.28.34l.29.34c.11.11.22.23.34.34l.34.34.37.32.39.32.42.3.42.31.46.27.46.27c.16.09.33.16.49.24a14.48,14.48,0,0,0,2,.82l1.07.33,1.07.27c.71.17,1.42.31,2.11.41.34.06.69.09,1,.13s.66.07,1,.09.63,0,.93.05h.87l.8,0,.73-.05c.45,0,.84-.08,1.17-.13.64-.09,1-.18,1-.18a9.44,9.44,0,0,1-1,.25c-.33.06-.72.13-1.17.18s-1,.11-1.53.13l-.88,0c-.31,0-.62,0-.94,0s-.66,0-1-.07-.68-.06-1-.11c-.7-.1-1.41-.23-2.14-.39l-1.09-.27-1.07-.32a16.07,16.07,0,0,1-2.09-.86l-.49-.25-.47-.28-.47-.29-.43-.31-.42-.31c-.14-.11-.26-.23-.39-.34l-.38-.34-.34-.36-.32-.35-.29-.36L66.83,6l-.24-.35a8.82,8.82,0,0,1-.75-1.34,8.28,8.28,0,0,1-.44-1.09c-.1-.31-.16-.56-.2-.73S65.15,2.26,65.15,2.26Z"/><path class="cls-32" d="M29.54,12.68a16.75,16.75,0,0,0-.19,10.79c3,9,11.9,16.92,25.49,21.71C29.8,31.42,28.05,18.39,29.54,12.68Z"/><path class="cls-33" d="M87.73,22.74c-1.45,3.2-1.28,7.76-1,12.29s-8.51,9.16-24.18,2.26-17.29-19-17.29-19c6.12-1.3,9.46-10,9.46-10C49.52,4.4,44.9,3,41,3.31c4.95,2.45,9.2,7,3.85,15,0,0-.27,15.28,20.27,21.43s29.43-8.34,36.57-5.31C98.08,25.91,87.73,22.74,87.73,22.74Z"/><path class="cls-33" d="M82,7.33c-.62-.1-1.2-.21-1.75-.34,4,1.47,8.85,4.56,4.79,12.76-2.7,5.44-4.93,10.73-5,14.57C83,34,85.36,33,86.55,31h0c0-3.12.16-6.05,1.18-8.3a2.11,2.11,0,0,1,.16-.3C92.28,14.27,89.08,8.45,82,7.33Z"/><path class="cls-34" d="M80,34.32c-.05,2.52.82,4.42,3.1,5.31,2.45-1.11,3.69-2.86,3.59-4.6-.09-1.34-.15-2.68-.18-4h0C85.36,33,83,34,80,34.32Z"/><path class="cls-31" d="M65.34,3c.52,1.6,2.28,5.43,7.73,7.24a23.34,23.34,0,0,0,10.5,1.1A39.18,39.18,0,0,1,73,8.07C67.72,5.7,66.91,4.88,65.34,3Z"/><path class="cls-35" d="M93.42,25.42a27.57,27.57,0,0,0-5.69-2.68c-1.45,3.2-1.28,7.76-1,12.29a4,4,0,0,1,0,.77l0,0S88.22,27.85,93.42,25.42Z"/><path class="cls-35" d="M45.26,18.27c6.12-1.3,9.46-10,9.46-10C53.82,7.61,53,7,52.09,6.5,52,10,50.61,14.59,45.26,18.27Z"/><path class="cls-34" d="M85.94,23.87a11.75,11.75,0,0,0-.51,8.46A5.31,5.31,0,0,0,86.55,31h0c0-3.12.16-6.05,1.18-8.3a2.11,2.11,0,0,1,.16-.3,19.35,19.35,0,0,0,1.4-3.27A27,27,0,0,0,85.94,23.87Z"/><path class="cls-34" d="M85.43,32.33a14.62,14.62,0,0,0,1.3,3V35c-.09-1.34-.15-2.68-.18-4h0A5.31,5.31,0,0,1,85.43,32.33Z"/><path class="cls-34" d="M53.42,11A21.44,21.44,0,0,1,50.53,15h0c.58,4.18,2.7,10.49,12.34,15.34,6.08,3.05,12.66,4.52,17.48,3.95a37.55,37.55,0,0,1-16.69-5C52.42,22.65,51.41,15.68,53.42,11Z"/><path class="cls-34" d="M52.15,20.41h0A17.61,17.61,0,0,1,50.53,15h0a10.33,10.33,0,0,1-5.27,3.27A21.08,21.08,0,0,0,49,26.62C46.51,22.79,47.22,14.69,52.15,20.41Z"/><path class="cls-36" d="M31.18,11.53c1.32-4.39,9.42-9.27,13.1-3.29,3.43,5.56-10.4,14.55,8.78,29.1S24.33,34.41,31.18,11.53Z"/><path class="cls-36" d="M65.59,42.67c6.61,0,21.54,2.43,14.45,4.81S50.36,42.6,65.59,42.67Z"/><path class="cls-37" d="M57.63,6.9c-3.32,4.63-7.6,8.18,2.29,18.26,6.71,6.84,5.67.59,5.13-3.65-.93-7.27,23.87-7.08,12.38-8.83S65,7.54,64.07,4.72,61.41,1.62,57.63,6.9Z"/><path class="cls-13" d="M86.43,63.76c.36,1,5.69,7.08,5.69,7.08-2.24-.37-.65-.08-13.25,2.12S61.79,73.1,55,74c0,0-11.42,8.49-8.41,27.89,0,0-.25,3.71,4,4s12,2.82,25.78-2A109.87,109.87,0,0,1,72.47,92.8c-1.75-5.31-3.45-11.28-.62-10.23,9,3.35,8.41,14.35,8.35,15.29.69-10,5.14-2.93,4.91.32s2.13.46,1-7.66,6.18,4,5.4-2.55c-.76-6.29,2.62-1.29,1.84-5.74-1.1-6.31,3.58,2.41,1-9.54-1.71-7.86,2-7.91,4-2.77a31.66,31.66,0,0,0-3.51-9.35A70.86,70.86,0,0,0,86.43,63.76Z"/><path d="M80.18,95.42a18.24,18.24,0,0,0-1.65-6.63,12,12,0,0,0-2.29-3.42,13.68,13.68,0,0,0-3.86-2.54,5.2,5.2,0,0,0-.53-.26c-2.83-1-1.13,4.92.62,10.23a109.87,109.87,0,0,0,3.88,11.11h.06a2.75,2.75,0,0,0,1.71,1.87c1.44-1.66,1.68-4.11,1.92-6.2C80.11,99,80.23,96.21,80.18,95.42Z"/><path class="cls-38" d="M92.12,70.84c-2.24-.37-.65-.08-13.25,2.12S61.79,73.1,55,74c0,0-11.42,8.49-8.41,27.89a3.85,3.85,0,0,0,3.69,4,5.8,5.8,0,0,1-2.64-3.77c-.69-2.47-.18-5.3,1.45-2.79,2.13,3.27,6.77,1.75,6-1.86-.9-4.34-5.49-3.36-6.82-.75-1.53,3-1.51-4.89-.72-9s4.1-10.18,3.22-6.44c-1,4.42,5.88,6.13,7,1.63,1.31-5.19-6.59-3.81-4.68-5.91s3.51-2.86,5.58-1.09a21.42,21.42,0,0,0,5.64,3v2.21c-.2.59-.82,1.56-4.74,3.23S60,91,60,91c-1.57,3.07,3.17,6.45,3.17,6.45-.24.62,0,3.68,5.93,3.68s3.2,4,.48,4.69a55.81,55.81,0,0,0,6.77-1.93A109.87,109.87,0,0,1,72.47,92.8c-1.75-5.31-3.45-11.28-.62-10.23a11.59,11.59,0,0,1,6.09,5.11c-.81-1.76-3-7.22,3.87-3.29,0,0-1.91-6.09,4.64-2.48,0,0-3.87-4.56,2.46-2.79,0,0-9.29-7.5,3.67-8.2,0,0-2-2.48-3.42-4.71s-.75-2.95,5.64-5.64a70.86,70.86,0,0,0-8.37,3.19C86.79,64.77,92.12,70.84,92.12,70.84Z"/><path class="cls-25" d="M98.62,75.39c0,4.53-.51,12.93-7.94,19.67s-2.83-5.34-.44-3.13,2.67-1,2.77-3.45,3.36-.33,3.15-4.85,1.68-2.58.86-7.49S98.55,68.53,98.62,75.39Z"/><path class="cls-25" d="M81,98.67c-.65,2.76-.32,4.8,1.47,3.23s2.67-4,1.85-5.7S81.74,95.7,81,98.67Z"/><path class="cls-16" d="M80,93.83A24,24,0,0,0,77.08,96c-.9.88-1.1,3.22-5.17,4s-6.83-.54-7-3.57A2.4,2.4,0,0,1,63.17,94a2.68,2.68,0,0,1-1.46-3.77,3.67,3.67,0,0,1-1-2s-1.63-1-.9-2.16.9-1.21,2.2-1.64a7.7,7.7,0,0,0,3.14-2.27c.81-.88,1.74-1.13,4.37-1.21s3.41-.11,4.78,2.36C74.3,83.27,79.37,87.62,80,93.83Z"/><path class="cls-17" d="M76.59,90.8a1.48,1.48,0,0,1,.14.21,5.73,5.73,0,0,1,.28.59c0,.12.09.26.14.41s.09.3.12.47a7,7,0,0,1,.13,1c0,.18,0,.36,0,.54a4.2,4.2,0,0,1,0,.51c0,.17-.06.33-.09.48a2.58,2.58,0,0,1-.11.42,2.38,2.38,0,0,1-.12.35l-.11.26-.1.22s0-.09,0-.24,0-.17.06-.27,0-.23,0-.36,0-.27.05-.42,0-.3,0-.47,0-.33,0-.5,0-.34,0-.51,0-.35,0-.52,0-.33-.05-.49c0-.33-.1-.62-.16-.88A6.4,6.4,0,0,0,76.59,90.8Z"/><path class="cls-17" d="M73.28,96l-.3.24a7.24,7.24,0,0,1-.85.54,7.66,7.66,0,0,1-1.31.58,5.18,5.18,0,0,1-1.64.28h-.43l-.41,0a7.05,7.05,0,0,1-.8-.15,5.19,5.19,0,0,1-.73-.2c-.23-.06-.44-.15-.64-.22s-.37-.16-.53-.22l-.39-.2c-.21-.11-.33-.19-.33-.19l.36.13a3.85,3.85,0,0,0,.41.14l.54.17c.2.05.41.12.64.17s.47.11.72.14.51.09.78.11l.41.05h.4a6.19,6.19,0,0,0,1.56-.23,9.37,9.37,0,0,0,1.31-.47A10.65,10.65,0,0,0,73.28,96Z"/><path class="cls-17" d="M73,93.47l-.38.26c-.25.16-.6.39-1,.64s-1,.55-1.52.82c-.28.14-.58.27-.89.39a4,4,0,0,1-1,.25h-.25l-.26,0a4.18,4.18,0,0,1-.51-.06,9.59,9.59,0,0,1-1-.2,11.24,11.24,0,0,1-1.63-.6,3.88,3.88,0,0,1-.61-.33,3.49,3.49,0,0,1-.43-.3,1.49,1.49,0,0,1-.25-.23L63.17,94l.1.08.27.19a3.82,3.82,0,0,0,.46.25c.18.09.4.17.63.27s.48.17.75.25.57.16.87.23a9.2,9.2,0,0,0,.94.17c.15,0,.32,0,.48.06h.48a4,4,0,0,0,.92-.22c.3-.12.6-.23.89-.36.56-.25,1.09-.49,1.54-.72Z"/><path class="cls-17" d="M72.91,89.45s-.12.19-.35.49a12.57,12.57,0,0,1-1,1.23c-.23.24-.5.48-.79.73a6.16,6.16,0,0,1-1,.71,4.27,4.27,0,0,1-1.21.53l-.31.07-.35.05a5.15,5.15,0,0,1-.68,0,7.54,7.54,0,0,1-1.34-.16,9.84,9.84,0,0,1-1.24-.35,9.5,9.5,0,0,1-1.11-.47L63,92,62.9,92l-.1-.08c-.06-.06-.13-.11-.19-.18A5.4,5.4,0,0,1,62,91c-.15-.22-.27-.42-.37-.59-.19-.33-.29-.53-.29-.53l.35.5.41.55a6.81,6.81,0,0,0,.59.65,1,1,0,0,0,.19.16l.11.08.1.06.49.23c.34.15.71.29,1.1.42a11.45,11.45,0,0,0,1.22.31,6.88,6.88,0,0,0,1.28.15,4.56,4.56,0,0,0,.64,0l.31,0,.31-.07a4.2,4.2,0,0,0,1.14-.46,8.62,8.62,0,0,0,1-.65c.3-.23.57-.46.81-.68a15.62,15.62,0,0,0,1.11-1.14C72.77,89.62,72.91,89.45,72.91,89.45Z"/><path class="cls-17" d="M70.61,83.63l.08.08a1,1,0,0,1,.17.27,1.66,1.66,0,0,1,.09.5,2.3,2.3,0,0,1-.12.64,3.73,3.73,0,0,1-.36.68,5.34,5.34,0,0,1-.52.68c-.38.44-.8.9-1.26,1.34a8.42,8.42,0,0,1-.71.61,3.17,3.17,0,0,1-.83.45.91.91,0,0,1-.49,0l-.4-.07-.74-.14a2.45,2.45,0,0,1-1.06-.43.33.33,0,0,1-.11-.31c0-.07.05-.1,0-.1s0,0,0,.11a.27.27,0,0,0,.13.25,2.75,2.75,0,0,0,1,.3l.74.08.42,0a.7.7,0,0,0,.35,0,2.91,2.91,0,0,0,.73-.43c.23-.18.46-.39.68-.6s.44-.42.65-.64.42-.43.62-.65.19-.21.28-.31a2.51,2.51,0,0,0,.26-.31,3.45,3.45,0,0,0,.38-.62,2.35,2.35,0,0,0,.17-.58,1.71,1.71,0,0,0,0-.47A1.06,1.06,0,0,0,70.61,83.63Z"/><path class="cls-17" d="M65.23,87.12a2.58,2.58,0,0,1-.21.25,2,2,0,0,1-.25.26,3.88,3.88,0,0,1-.36.32,3.76,3.76,0,0,1-.49.31,2.76,2.76,0,0,1-.61.23,6.66,6.66,0,0,1-.67.12q-.36,0-.72,0a4.19,4.19,0,0,1-.71-.1,3.42,3.42,0,0,1-.65-.27,2,2,0,0,1-.5-.44,2,2,0,0,1-.32-.48,1.35,1.35,0,0,1-.15-.85.66.66,0,0,1,.09-.22l0-.07,0,.08a1,1,0,0,0,0,.22,1.35,1.35,0,0,0,.25.75,2.35,2.35,0,0,0,.8.76,2.3,2.3,0,0,0,.59.21,2.75,2.75,0,0,0,.65.08,4.85,4.85,0,0,0,.66,0l.65-.08a4.75,4.75,0,0,0,.57-.18c.17-.07.33-.17.48-.24s.28-.17.39-.26l.29-.21Z"/><path class="cls-19" d="M74.3,83.27c-1.37-2.47-2.16-2.44-4.78-2.36s-3.56.33-4.37,1.21A7.7,7.7,0,0,1,62,84.39c-1.3.43-1.47.43-2.2,1.64s.9,2.16.9,2.16a3.67,3.67,0,0,0,1,2A2.68,2.68,0,0,0,63.17,94a2.4,2.4,0,0,0,1.75,2.37,3.57,3.57,0,0,0,1.63,3c-1-.75-1-2.37.19-2.27,0,0-3.15-1.19-1.51-2,0,0-4.06-2.21-2.26-3.26,0,0-1.44-1.17-.55-2.3,0,0,.75-.84,1.57.27.61.81,1.85.71,3.15-.07s2.84-3.54,3.91-1.29-1.23,3.94-1.23,3.94c3.88-.56.63,2.44.63,2.44,4.39-.53.81,2.18.81,2.18,2.2-.71,2.6,1.8,1.18,2.8,3.56-.85,3.78-3,4.64-3.86A24,24,0,0,1,80,93.83C79.37,87.62,74.3,83.27,74.3,83.27Z"/><path class="cls-19" d="M80,93.83c-.64-6.21-5.71-10.56-5.71-10.56-1.37-2.47-2.16-2.44-4.78-2.36a17,17,0,0,0-2.51.22,3.54,3.54,0,0,1-.55,3.51C64.09,88.35,59.25,87,59.81,86c-.73,1.21.9,2.16.9,2.16s0,0,0,.06a5.43,5.43,0,0,0,3.49-.36c2.68,2.2,4.8-.23,6-1.68s1.94-3.73,4.5.23,2.52,9.77.88,11.74c.78-.84,1.06-1.73,1.54-2.2A24,24,0,0,1,80,93.83Z"/><path class="cls-26" d="M68.11,84.84c-1,1.64-2.88,2.28-3.9,3,2.68,2.2,4.8-.23,6-1.68l.08-.1a3.66,3.66,0,0,0,.65-1.94C70.74,82.8,69.09,83.2,68.11,84.84Z"/><path class="cls-26" d="M80,93.83c-.64-6.21-5.71-10.56-5.71-10.56,1.12,1.77,5,6.22,4.24,8.34-.57,1.52-1.74-.32-1.74-.32a8.33,8.33,0,0,1,.09,4.91c.06-.08.13-.15.19-.22A24,24,0,0,1,80,93.83Z"/><path class="cls-23" d="M69.1,87.16s-.28-6-.28-7.46V77.55H65.49l.42,11.11a2.07,2.07,0,0,0,1.72-.18C68.3,88,69.1,87.16,69.1,87.16Z"/><path class="cls-39" d="M66.74,77.55l.33,11.18a1.35,1.35,0,0,0,.56-.25c.31-.24.65-.55.93-.8-.18-3-.34-7.64-.42-10.13Z"/><g class="cls-40"><path class="cls-41" d="M60.39,56.55A11.07,11.07,0,0,1,74.6,58.38c5.45,5.68,2.76,14.39-3.16,16.78s-11.93-1.27-13.93-4.77S56,59.92,60.39,56.55Z"/></g><path class="cls-42" d="M64.52,62.75a8.88,8.88,0,0,1,10.92,1,8.36,8.36,0,0,0-2.15-3.86,8.9,8.9,0,0,0-11.45-1.48c-3.53,2.72-3.94,8.33-2.32,11.15a8.07,8.07,0,0,0,1.92,2.2C60.9,68.78,61.75,64.88,64.52,62.75Z"/><g class="cls-40"><path class="cls-43" d="M74.6,58.38a11.07,11.07,0,0,0-14.21-1.83C56,59.92,55.5,66.88,57.51,70.39s8,7.16,13.93,4.77S80.05,64.06,74.6,58.38Zm-3.66,16c-5.47,2.2-11-1.17-12.87-4.41s-1.38-9.66,2.67-12.78a10.22,10.22,0,0,1,13.12,1.69A9.64,9.64,0,0,1,70.94,74.41Z"/></g><path class="cls-23" d="M75.93,57.17A13,13,0,0,0,59.24,55c-5.15,4-5.74,12.13-3.39,16.24s9.41,8.41,16.37,5.61S82.33,63.83,75.93,57.17Zm-4.49,18c-5.93,2.39-11.93-1.27-13.93-4.77S56,59.92,60.39,56.55A11.07,11.07,0,0,1,74.6,58.38C80.05,64.06,77.36,72.77,71.44,75.16Z"/><path class="cls-12" d="M67.58,77.64h0A14.06,14.06,0,0,1,56,71.19c-2.49-4.34-1.56-12.33,3.36-16.11A12.43,12.43,0,0,1,66.4,53a12.91,12.91,0,0,1,9.47,4.2A12.09,12.09,0,0,1,79,68.24a11.83,11.83,0,0,1-6.88,8.51A12.17,12.17,0,0,1,67.58,77.64ZM66.4,54a11.63,11.63,0,0,0-6.49,1.9c-4.92,3.78-5.12,11.33-3.1,14.86a13.19,13.19,0,0,0,10.77,6h0a11.23,11.23,0,0,0,4.21-.82A10.84,10.84,0,0,0,78.08,68a11.12,11.12,0,0,0-2.92-10.18A12,12,0,0,0,66.4,54Z"/><g class="cls-44"><path class="cls-45" d="M59.13,59.69a3.16,3.16,0,0,1,5.59.64c1,2.64-4.12,4.87-5.37,4.07S57.67,62.05,59.13,59.69Z"/><path class="cls-45" d="M58.46,67.28c-.05.73.3,1.08.73,1.08s.9-.54,1-1.43S58.57,65.77,58.46,67.28Z"/></g><g class="cls-46"><path class="cls-47" d="M56.24,60.41l-.11,0a.32.32,0,0,1-.2-.41c2.08-6.11,8.33-6.81,8.39-6.82a.33.33,0,0,1,.36.29.31.31,0,0,1-.29.35c-.06,0-5.9.68-7.84,6.39A.34.34,0,0,1,56.24,60.41Z"/><path class="cls-47" d="M61.53,75.93a.31.31,0,0,1-.13,0c-8.58-4.06-6.35-13.59-6.32-13.68a.32.32,0,0,1,.63.15c-.09.37-2.13,9.12,6,12.94a.32.32,0,0,1,.16.43A.33.33,0,0,1,61.53,75.93Z"/></g><path class="cls-13" d="M57,82.07a2.78,2.78,0,1,1-2.78-2.76A2.78,2.78,0,0,1,57,82.07Z"/><path class="cls-14" d="M52,82.07a2.57,2.57,0,1,0,2.56-2.57A2.57,2.57,0,0,0,52,82.07Z"/><path class="cls-21" d="M52.62,82.1A2.39,2.39,0,1,0,55,79.55,2.46,2.46,0,0,0,52.62,82.1Z"/><path class="cls-14" d="M53.09,82.12A2,2,0,1,0,55,80,2,2,0,0,0,53.09,82.12Z"/><path class="cls-48" d="M53.13,82.19a1.82,1.82,0,1,0,1.82-2A1.89,1.89,0,0,0,53.13,82.19Z"/><path d="M54.21,83.26a.17.17,0,0,1-.1,0,.16.16,0,0,1,0-.23,20.81,20.81,0,0,1,1.66-1.83.16.16,0,0,1,.23,0,.17.17,0,0,1,0,.23,17.68,17.68,0,0,0-1.63,1.78A.17.17,0,0,1,54.21,83.26Z"/><path d="M55.86,83.26a.18.18,0,0,1-.15-.08A8.31,8.31,0,0,0,54,81.28a.17.17,0,0,1,0-.23.16.16,0,0,1,.23,0A8.49,8.49,0,0,1,56,83a.19.19,0,0,1-.06.23Z"/><path class="cls-13" d="M54.65,97.81A2.78,2.78,0,1,1,51.87,95,2.77,2.77,0,0,1,54.65,97.81Z"/><path class="cls-14" d="M49.62,97.81a2.56,2.56,0,1,0,2.56-2.58A2.56,2.56,0,0,0,49.62,97.81Z"/><path class="cls-21" d="M50.29,97.83a2.38,2.38,0,1,0,2.37-2.54A2.46,2.46,0,0,0,50.29,97.83Z"/><path class="cls-14" d="M50.75,97.86a2,2,0,1,0,2-2.09A2,2,0,0,0,50.75,97.86Z"/><path class="cls-48" d="M50.79,97.93a1.82,1.82,0,1,0,1.82-2A1.9,1.9,0,0,0,50.79,97.93Z"/><path d="M51.87,99a.19.19,0,0,1-.1,0,.16.16,0,0,1,0-.22,16.6,16.6,0,0,1,1.67-1.83.16.16,0,0,1,.22,0,.16.16,0,0,1,0,.23A18.26,18.26,0,0,0,52,98.93.16.16,0,0,1,51.87,99Z"/><path d="M53.52,99a.16.16,0,0,1-.14-.08A8.35,8.35,0,0,0,51.68,97a.16.16,0,0,1,0-.23.15.15,0,0,1,.22,0,8.27,8.27,0,0,1,1.78,2,.16.16,0,0,1-.06.22A.13.13,0,0,1,53.52,99Z"/><path class="cls-49" d="M48.19,90.8c.1-2.32,1-8.69,2.6-6s2.51,2.38,4.32,1.37,2,2.06,2.4,5.51.51,10.24,8,10.45.36,4.12-7.28,3.94-11.31-4-6-4.31S57.87,96.42,55,94,48,95.76,48.19,90.8Z"/><path class="cls-50" d="M83.8,74.47s.38,3.83,1.92,3.78c0,0-2.63.13-3.17,2a9,9,0,0,0-5,.39,3.71,3.71,0,0,1-1.18.11,8.49,8.49,0,0,1,5.28-1.07,2.87,2.87,0,0,1,2.41-1.64A3.73,3.73,0,0,1,83.8,74.47Z"/><g class="cls-44"><path class="cls-14" d="M29.68,107.52c-.19,1.17.15,2.79.81,3s.41-1.65.51-2.79S30.1,104.93,29.68,107.52Z"/><path class="cls-14" d="M69.1,107.53c-.36-1-1.24-1-1.13.48.13,1.75.2,3.58.94,2.84S69.46,108.54,69.1,107.53Z"/></g><path class="cls-51" d="M45.15,110c.23.52,1,1.86,5,1.84s2.62.55.59.55-4.52-.1-5.6-1.19S44.64,108.8,45.15,110Z"/><path class="cls-51" d="M58,110c-.35,1.35-2.79,1.66-3.29,1.74-.93.15-.37.5,1.17.22s2.22-.67,2.47-1.56S58.32,108.65,58,110Z"/></g></g></svg>