<svg xmlns="http://www.w3.org/2000/svg" viewBox="0 0 708.96 524.38"><defs><style>.cls-1{fill:#fffdbd;}.cls-2{fill:#fff1eb;}.cls-3{fill:#fff;}.cls-4{fill:#ffea27;}.cls-5{fill:#540b0b;}.cls-6{fill:#fffecc;}.cls-7{fill:#bbeae5;}.cls-8{fill:#f9c319;}.cls-9{fill:#f2808a;}.cls-10{fill:#612d2d;}.cls-11{fill:#c67436;}.cls-12{fill:#fce49a;}.cls-13{fill:#f2c070;}.cls-14{fill:#a3561c;}.cls-15{fill:#b76929;}.cls-16{fill:#e55e5e;}.cls-17{fill:#ffff64;}.cls-18{fill:#f78686;}.cls-19{fill:#f9c075;}.cls-20{fill:#b6cadd;}.cls-21{fill:#ffdc9f;}.cls-22{fill:#fff7cf;}.cls-23{fill:#ffbeb3;}.cls-24{fill:#fca597;}.cls-25{fill:#f7e989;}.cls-26{fill:#fff3ee;}.cls-27{fill:#e2eced;}.cls-28{fill:#3d8c9c;}.cls-29{fill:#69c8db;}</style></defs><g id="Background"><path class="cls-1" d="M222.87,131.25A13.81,13.81,0,0,1,221.71,119c.75-1.9,2.2-3.8,4.24-4,2.89-.28,4.93,3,5,5.94s-1,5.77-.79,8.67A13.76,13.76,0,0,1,241.59,125c2,.17,4.07.9,5.15,2.57,1.64,2.53.12,6.12-2.4,7.77s-5.68,1.87-8.69,2c2.43,2.43,5,5.08,5.55,8.47s-2,7.46-5.37,7.06c-2.12-.24-3.72-2-4.8-3.89s-1.9-3.9-3.48-5.35a17.94,17.94,0,0,1-1.4,5.52,6.06,6.06,0,0,1-4.29,3.44c-3.19.44-6-2.92-5.9-6.14s2.12-6.08,4.48-8.27a6.15,6.15,0,0,1-6.52-10.26c2.17-1.92,5.75-2,9,3.33"/><path class="cls-1" d="M266,135.52l4.65-9.08c1.8.93,2.46,3.31,2,5.3a14.11,14.11,0,0,1-2.9,5.31,4.63,4.63,0,0,1,6.05,5.79,19.74,19.74,0,0,1-7.95-1.2,9.16,9.16,0,0,1,1.78,3.23,3.13,3.13,0,0,1-1.08,3.32c-1.41.9-3.41-.07-4.19-1.56a9.24,9.24,0,0,1-.55-4.93,3.24,3.24,0,1,1-2.26-5.45,3.35,3.35,0,0,1-.87-5.55c1.83-1.38,5,.08,5.28,4.82"/><path class="cls-1" d="M429.7,138c-.6-1.74-2.1-3-3.07-4.57s-1.25-4,.29-5a3.14,3.14,0,0,1,3.91.86,9.27,9.27,0,0,1,1.68,4,12.14,12.14,0,0,1,5.44-4.4,3.87,3.87,0,0,1,3.46-.08c1.3.82,1.4,2.8.62,4.12a9,9,0,0,1-3.5,2.92A8,8,0,0,1,445,143.6a2.32,2.32,0,0,1-1,2.18,2.54,2.54,0,0,1-2-.27,24.13,24.13,0,0,1-4.85-2.92c-.42,1.53.37,3.09.66,4.65s-.41,3.65-2,3.65a3,3,0,0,1-2.05-1.23,10.53,10.53,0,0,1-2.45-5.65,3.41,3.41,0,0,1-4.57,1.88,4.25,4.25,0,0,1-2.13-4.73c.43-1.82,2-3.26,5.15-3.18"/><path class="cls-1" d="M458.63,111.62a8.39,8.39,0,0,1-2.11-5.48,2.93,2.93,0,0,1,.34-1.6,1.32,1.32,0,0,1,1.39-.65c.57.14.88.73,1.11,1.26a18.45,18.45,0,0,1,1.34,5.11,7.52,7.52,0,0,1,4.8-2.3c.55,0,1.22,0,1.47.52.38.71-.45,1.44-1.16,1.83l-4,2.21a11.9,11.9,0,0,1,1.13,6.46,1.31,1.31,0,0,1-.54,1.09c-.57.29-1.18-.3-1.52-.85a13.87,13.87,0,0,1-1.87-5.11,4,4,0,0,1-1.94,1.35,2.08,2.08,0,0,1-2.18-.62,2.28,2.28,0,0,1,.56-3,2.6,2.6,0,0,1,3.2-.25"/><path class="cls-1" d="M658.28,322.37a16.18,16.18,0,0,1-5.45-1.15,5.49,5.49,0,0,1-3.31-4.21c-.16-1.86,1.4-3.84,3.26-3.68,2.49.22,3.8,3.66,6.29,3.76a9.39,9.39,0,0,1,4.38-10.55,26.29,26.29,0,0,1,.78,10.48c1.94-.37,3.83-1.22,5.8-1.09s4.06,1.86,3.57,3.78c-.43,1.62-2.38,2.31-4.06,2.32s-3.42-.37-5,.2a10.44,10.44,0,0,1,3.58,8c0,1.22-.69,2.78-1.9,2.61a2.32,2.32,0,0,1-1.33-.91,26.55,26.55,0,0,1-3.74-5.52c-.78,2.17-2.18,4.76-4.47,4.58-1.92-.15-3.1-2.39-2.84-4.29s1.52-3.5,4.44-4.3"/><path class="cls-1" d="M312.11,334.49c1.64-1.41,2.3-3.62,2.9-5.69s1.3-4.28,3-5.64,4.65-1.29,5.6.65a4.89,4.89,0,0,1,0,3.27,20.75,20.75,0,0,1-5,9.08,13.47,13.47,0,0,1,5.65,1.81c1.64,1.14,2.74,3.3,2,5.16s-3,2.72-5,2.3a8.72,8.72,0,0,1-4.77-3.41,11.16,11.16,0,0,0,1.06,4.93,8.91,8.91,0,0,1,.77,4.95c-.37,1.66-2,3.14-3.67,2.7a4.2,4.2,0,0,1-2.36-2.34A14.4,14.4,0,0,1,311,343.7a7.18,7.18,0,0,1-6.09,1.5,4.59,4.59,0,0,1-3.45-4.82c.35-2.14,3.13-3.62,4.91-2.39a13.63,13.63,0,0,1-3.58-5c-.64-2-.14-4.5,1.67-5.51a4.68,4.68,0,0,1,4.91.65c1.4,1,2.33,2.58,2.76,6.39"/><path class="cls-1" d="M269.41,344.47a36.4,36.4,0,0,1-2.12-9.1c1.6-1.14,4-.09,5,1.62s.91,3.8.82,5.76a11.58,11.58,0,0,1,6.36-2.22,2.84,2.84,0,0,1,2.17.6c1,1,.15,2.86-1.08,3.6s-2.76.94-3.94,1.76a7.62,7.62,0,0,1,5.14,5.82c.2,1.15,0,2.6-1.11,3.05a2.77,2.77,0,0,1-2.1-.23,10.08,10.08,0,0,1-4.91-4.56c-.6,1.45-.34,3.09-.55,4.65s-1.24,3.27-2.81,3.23a2.61,2.61,0,0,1-2.14-1.54,5.2,5.2,0,0,1-.37-2.71,11.08,11.08,0,0,1,1.9-5.38,8,8,0,0,1-3.67.71,2.74,2.74,0,0,1-2.53-2.36,3.52,3.52,0,0,1,.91-2.16c1.28-1.63,3-2.94,5.05-.54"/><path class="cls-1" d="M56.5,302.47c-.7-2.21-2.19-4.07-3.43-6s-2.28-4.24-1.92-6.53,2.67-4.37,4.9-3.72,3,3.13,3.15,5.32,0,4.56,1.19,6.39a12.44,12.44,0,0,1,5.39-2.47c2-.2,4.26.89,4.66,2.85a4.18,4.18,0,0,1-2,4.1,12.47,12.47,0,0,1-4.59,1.5,10.26,10.26,0,0,1,6.48,5.39,4.36,4.36,0,0,1,.49,3c-.54,2-3.21,2.71-5.12,1.94s-3.21-2.53-4.42-4.21a13.36,13.36,0,0,1-.21,6c-.67,1.92-2.55,3.57-4.57,3.29s-3.47-2.66-3.42-4.81,1.13-4.13,2.18-6a4.67,4.67,0,0,1-6.42,1.05,5.62,5.62,0,0,1-1.7-6.53c.93-2.25,3.21-3.79,9.39-.54"/><path class="cls-1" d="M200.14,486.68c.43-2.19-.38-4.41-.76-6.62s-.14-4.85,1.72-6.1a4.38,4.38,0,0,1,5.59,1.16,7.13,7.13,0,0,1,1.08,6,21.36,21.36,0,0,1-2.51,5.71,7.68,7.68,0,0,1,8,2.36,4.31,4.31,0,0,1,1,4.25,4,4,0,0,1-4,2.11,11.84,11.84,0,0,1-4.54-1.64,8.81,8.81,0,0,1,.6,9.12c-.55,1-1.7,2-2.76,1.55a2.71,2.71,0,0,1-1.19-1.84l-2.13-7.08c.48,2.61-2.15,5.19-4.79,4.91a5.25,5.25,0,0,1-4.33-5.69,6.3,6.3,0,0,1,5.22-5.25c-1.69,1.4-4.59.35-5.4-1.68a5.26,5.26,0,0,1,1.9-5.84c1.74-1.35,4-1.75,7.33,4.6"/><path class="cls-1" d="M234.64,474.62A36.36,36.36,0,0,1,231,464.45c-.23-1.17-.3-2.63.69-3.31a2.18,2.18,0,0,1,2.59.35,5.65,5.65,0,0,1,1.39,2.41,33.63,33.63,0,0,1,1.83,8.34,11.14,11.14,0,0,1,4.13-3.86c1.76-.75,4.18-.29,4.94,1.46s-.38,3.62-1.95,4.5a11,11,0,0,1-5.22,1,13,13,0,0,1,2,8.5c-.15,1.32-1,2.95-2.3,2.66a2.53,2.53,0,0,1-1.44-1.36,21.29,21.29,0,0,1-2.57-7.19,10.29,10.29,0,0,1-3.84,3.44c-1.61.65-3.81.22-4.51-1.37-.78-1.75.65-3.76,2.34-4.67a7.6,7.6,0,0,1,5.6-.71"/><path class="cls-1" d="M466.83,341.07A20.29,20.29,0,0,1,466.3,327c.79-2.37,2.59-4.93,5.08-4.74,2.81.22,4.08,3.75,3.83,6.56s-1.32,5.7-.44,8.38c2.2-.75,4.07-2.28,6.27-3s5.15-.34,6.11,1.77c1.1,2.45-1.26,5.17-3.8,6.05s-5.37.77-7.79,1.92a12.92,12.92,0,0,1,3.58,12.85c-.52,1.75-2,3.68-3.78,3.16a4.16,4.16,0,0,1-2.14-2.29q-2-3.84-4.07-7.68a12.71,12.71,0,0,1-7.13,5.66,4.45,4.45,0,0,1-3.15.05c-1.86-.86-2.06-3.63-.91-5.32s3.16-2.57,5.05-3.36a4.89,4.89,0,0,1-5.79-2.85,5.65,5.65,0,0,1,1.83-6.36c1.86-1.46,4.55-1.68,7.78,3.28"/><path class="cls-1" d="M448.06,510.61q-1.15-5.49-2.3-11c-.24-1.18-.37-2.68.64-3.34s2.58.24,3.4,1.3A12.87,12.87,0,0,1,452.25,508a11.19,11.19,0,0,1,4.59-2.8c1.76-.41,3.91.27,4.57,2s-.68,3.91-2.47,4.68a11.58,11.58,0,0,1-5.77.38,19.54,19.54,0,0,1-.2,12.12,13.43,13.43,0,0,1-5.84-9.46c-1.78.11-3.43,1-5.21,1.09s-3.88-1.25-3.52-3a3.55,3.55,0,0,1,1.36-1.85c2.3-1.89,5.15-3.1,8.3-.56"/><path class="cls-1" d="M36,128.27a23.76,23.76,0,0,1-1.75-8.69c0-1.46.24-3.16,1.5-3.89,1.44-.83,3.38.23,4.09,1.73a9.19,9.19,0,0,1,.34,4.92,9.07,9.07,0,0,0,.35,4.91,24.23,24.23,0,0,1,7.05-2.17c1.24-.18,2.79-.12,3.37,1,.71,1.37-.71,2.86-2,3.65a28.62,28.62,0,0,1-8.4,3.37,20.26,20.26,0,0,1-.68,13.37,21.86,21.86,0,0,1-3.64-11.67c-.86,1.68-3.52,1.79-4.8.4a4.38,4.38,0,0,1-.18-5.24A3.77,3.77,0,0,1,36,128.27"/><path class="cls-1" d="M202.66,290.58c.26-2.35-2.26-4.62-1.32-6.78.79-1.82,3.72-1.79,4.92-.22s.92,3.9-.11,5.59a5.39,5.39,0,0,1,8.78.47,10.94,10.94,0,0,1-7.89,3.65,6.81,6.81,0,0,1,3.26,6.37,1.78,1.78,0,0,1-.73,1.46,1.88,1.88,0,0,1-1.79-.31,13.39,13.39,0,0,1-4.72-4.71,8.79,8.79,0,0,1-2.17,3.67,2.69,2.69,0,1,1-4-3.55,8.86,8.86,0,0,1,3.21-2.52,2.87,2.87,0,0,1-4,0,3.11,3.11,0,0,1-.07-4.07c1-1.12,2.79-1.37,6.67.91"/><path class="cls-2" d="M236.64,170.59a4.25,4.25,0,1,1,4.25,4.25,4.25,4.25,0,0,1-4.25-4.25"/><path class="cls-2" d="M55.19,116.07a4.08,4.08,0,1,1,4.08,4.08,4.08,4.08,0,0,1-4.08-4.08"/><path class="cls-1" d="M325.87,19.25A13.81,13.81,0,0,1,324.71,7c.75-1.9,2.2-3.8,4.24-4,2.89-.28,4.93,3,5,5.94s-1,5.77-.79,8.67A13.76,13.76,0,0,1,344.59,13c2,.17,4.07.9,5.15,2.57,1.64,2.53.12,6.12-2.4,7.77s-5.68,1.87-8.69,2c2.43,2.43,5,5.08,5.55,8.47s-2,7.46-5.37,7.06c-2.12-.24-3.72-2-4.8-3.89s-1.9-3.9-3.48-5.35a17.94,17.94,0,0,1-1.4,5.52,6.06,6.06,0,0,1-4.29,3.44c-3.19.44-5.95-2.92-5.9-6.14s2.12-6.08,4.48-8.27a6.35,6.35,0,0,1-7.64-2.34,6.35,6.35,0,0,1,1.12-7.92c2.17-1.92,5.75-2,8.95,3.33"/><path class="cls-1" d="M369,23.52l4.65-9.08c1.8.93,2.46,3.31,2,5.3a14.11,14.11,0,0,1-2.9,5.31,4.63,4.63,0,0,1,6.05,5.79,19.74,19.74,0,0,1-7.95-1.2,9.16,9.16,0,0,1,1.78,3.23,3.13,3.13,0,0,1-1.08,3.32c-1.41.9-3.41-.07-4.19-1.56a9.24,9.24,0,0,1-.55-4.93,3.4,3.4,0,0,1-5.35-1,3.4,3.4,0,0,1,3.09-4.48,3.35,3.35,0,0,1-.87-5.55c1.83-1.38,5,.08,5.28,4.82"/><path class="cls-1" d="M139,16.27a23.76,23.76,0,0,1-1.75-8.69c0-1.46.24-3.16,1.5-3.89,1.44-.83,3.38.23,4.09,1.73a9.19,9.19,0,0,1,.34,4.92,9.07,9.07,0,0,0,.35,4.91,24.23,24.23,0,0,1,7-2.17c1.24-.18,2.79-.12,3.37,1,.71,1.37-.71,2.86-2,3.65a28.62,28.62,0,0,1-8.4,3.37,20.26,20.26,0,0,1-.68,13.37,21.86,21.86,0,0,1-3.64-11.67c-.86,1.68-3.52,1.79-4.8.4a4.38,4.38,0,0,1-.18-5.24A3.77,3.77,0,0,1,139,16.27"/><path class="cls-2" d="M339.64,58.59a4.25,4.25,0,1,1,4.25,4.25,4.25,4.25,0,0,1-4.25-4.25"/><path class="cls-2" d="M158.19,4.07a4.08,4.08,0,1,1,4.08,4.08,4.08,4.08,0,0,1-4.08-4.08"/><path class="cls-2" d="M36.92,268.3a4.89,4.89,0,1,1,4.89,4.89,4.88,4.88,0,0,1-4.89-4.89"/><path class="cls-2" d="M428.18,107.93a4.07,4.07,0,1,1,4.07,4.07,4.08,4.08,0,0,1-4.07-4.07"/><path class="cls-2" d="M218.77,268.3a4.89,4.89,0,1,1,4.89,4.89,4.88,4.88,0,0,1-4.89-4.89"/><path class="cls-2" d="M342.19,345.4a4.25,4.25,0,1,1,4.25,4.25,4.25,4.25,0,0,1-4.25-4.25"/><path class="cls-2" d="M211.89,448.57a3.44,3.44,0,1,1,3.44,3.44,3.44,3.44,0,0,1-3.44-3.44"/><path class="cls-2" d="M456.87,473.54a3.13,3.13,0,1,1,3.12,3.13,3.11,3.11,0,0,1-3.12-3.13"/><path class="cls-2" d="M460.8,299.23a4.5,4.5,0,1,1,4.5,4.5,4.5,4.5,0,0,1-4.5-4.5"/><path class="cls-2" d="M627.25,316.2a3.49,3.49,0,1,1,3.48,3.48,3.48,3.48,0,0,1-3.48-3.48"/><path class="cls-2" d="M671.18,486.88a3.75,3.75,0,1,1,3.75,3.75,3.75,3.75,0,0,1-3.75-3.75"/><path class="cls-2" d="M661.59,120.71a5.73,5.73,0,1,1,5.73,5.73,5.72,5.72,0,0,1-5.73-5.73"/><path class="cls-2" d="M671.18,198.88a3.75,3.75,0,1,1,3.75,3.75,3.75,3.75,0,0,1-3.75-3.75"/><path class="cls-2" d="M30.45,510.36A5.68,5.68,0,1,1,36.13,516a5.68,5.68,0,0,1-5.68-5.68"/><path class="cls-2" d="M25.41,484.44a2.07,2.07,0,1,1,2.07,2.07,2.07,2.07,0,0,1-2.07-2.07"/></g><g id="Objects"><path class="cls-3" d="M560.78,185.28c-4-8.52-8.06-17.34-9.2-26.95-.85-7.12,0-14.3.77-21.25,1.06-9.2,2.06-17.9-.62-26.11-3.91-12-18.39-25-41.93-26.91-12.05-1-24.42.7-36.39,2.33-6.33.86-12.88,1.75-19.37,2.25-7.71.6-15.52.67-23.08.73-9.41.09-19.14.17-28.55,1.29C391,92,382.92,94.77,376.83,99.3c-7,5.23-11.09,14.06-9.93,21.48,1.08,7,5.86,12.63,10.92,18.62a81.63,81.63,0,0,1,8.79,11.8,39,39,0,0,1,5.12,19.57c-.06,8.52-2.91,16.52-5.66,24.27a103.88,103.88,0,0,0-4.71,15.83,49.55,49.55,0,0,0,5.35,32.78c3.45,6.26,8,11,13,13.83,6.07,3.32,13.73,4.47,24.11,3.63,6.71-.54,13.56-1.76,20.17-2.95,9.17-1.63,18.6-3.31,28.14-3.31,1.78,0,3.57.06,5.36.19,7.16.51,14.19,2.14,21,3.72,8.88,2.06,17.26,4,25.89,3.68a48.21,48.21,0,0,0,34.94-17.11,46.21,46.21,0,0,0,9.84-37C567.79,200.38,564.38,193,560.78,185.28Zm-78.43,57.87c-30.09,0-54.57-24-54.57-53.44s24.48-53.45,54.57-53.45,54.57,24,54.57,53.45S512.44,243.15,482.35,243.15Z"/><path class="cls-4" d="M531.26,189.71c0,26.42-21.94,47.91-48.91,47.91a49.05,49.05,0,0,1-43.79-26.57,46.7,46.7,0,0,1-5.13-21.34c0-26.42,21.94-47.91,48.92-47.91A49.16,49.16,0,0,1,524.26,165,47,47,0,0,1,531.26,189.71Z"/><path class="cls-5" d="M565.92,183c-3.95-8.51-7.69-16.55-8.73-25.3-.77-6.49,0-13.35.78-20,1.07-9.38,2.19-19.07-.85-28.41-2.87-8.82-9.27-16.41-18.52-22a66.55,66.55,0,0,0-28.33-8.79c-12.68-1-25.37.7-37.64,2.37-6.25.84-12.71,1.72-19,2.21-7.51.59-15.22.65-22.68.72-9.56.08-19.45.17-29.18,1.33-12.41,1.48-21.41,4.57-28.32,9.73-8.71,6.5-13.57,17.23-12.1,26.72,1.32,8.48,6.83,15,12.15,21.31a76.07,76.07,0,0,1,8.21,11,33.5,33.5,0,0,1,4.4,16.83c-.05,7.6-2.62,14.83-5.34,22.49a109.35,109.35,0,0,0-4.94,16.67,55,55,0,0,0,5.95,36.39c4,7.19,9.23,12.73,15.25,16,7,3.83,15.94,5.24,27.34,4.32,7-.57,14-1.81,20.72-3,11-2,21.42-3.82,32.06-3.05,6.71.48,13.52,2.06,20.11,3.59,8.2,1.9,16.67,3.86,25.35,3.86.69,0,1.37,0,2,0a54,54,0,0,0,39.13-19.16,51.74,51.74,0,0,0,11-41.46C573.23,198.73,569.51,190.73,565.92,183Zm-6.57,62.34a48.21,48.21,0,0,1-34.94,17.11c-8.63.32-17-1.62-25.89-3.68-6.8-1.58-13.83-3.21-21-3.72-1.79-.13-3.58-.19-5.36-.19-9.54,0-19,1.68-28.14,3.31-6.61,1.19-13.46,2.41-20.17,2.95-10.38.84-18-.31-24.11-3.63-5.08-2.79-9.59-7.57-13-13.83a49.55,49.55,0,0,1-5.35-32.78A103.88,103.88,0,0,1,386.07,195c2.75-7.75,5.6-15.75,5.66-24.27a39,39,0,0,0-5.12-19.57,81.63,81.63,0,0,0-8.79-11.8c-5.06-6-9.84-11.65-10.92-18.62-1.16-7.42,2.93-16.25,9.93-21.48,6.09-4.53,14.21-7.28,25.58-8.64,9.41-1.12,19.14-1.2,28.55-1.29,7.56-.06,15.37-.13,23.08-.73,6.49-.5,13-1.39,19.37-2.25,12-1.63,24.34-3.31,36.39-2.33C533.34,86,547.82,99,551.73,111c2.68,8.21,1.68,16.91.62,26.11-.79,6.95-1.62,14.13-.77,21.25,1.14,9.61,5.24,18.43,9.2,26.95,3.6,7.76,7,15.1,8.41,23A46.21,46.21,0,0,1,559.35,245.33Z"/><path class="cls-5" d="M482.35,136.26c-30.09,0-54.57,24-54.57,53.45s24.48,53.44,54.57,53.44,54.57-24,54.57-53.44S512.44,136.26,482.35,136.26Zm0,101.36c-27,0-48.92-21.5-48.92-47.91s21.95-47.91,48.92-47.91,48.92,21.49,48.92,47.91S509.32,237.62,482.35,237.62Z"/><path class="cls-6" d="M477,146.69c-7.32-1.14-16.63,3.36-22.23,7.66a40.7,40.7,0,0,0-13.47,19.56c-.71,2.12,2.66,3,3.4.92,2.41-6.86,7.15-12.41,13-16.75a41.66,41.66,0,0,1,9-5.23c3.36-1.37,7-1.62,10.33-2.8,1.47-.51,1.9-3.07,0-3.36"/><path class="cls-6" d="M490.24,146.61c-.72-2.33-3.95-2.28-5.86-1.53a2.39,2.39,0,0,0-1.67,2.88,2.41,2.41,0,0,0,2.94,1.63,5.11,5.11,0,0,1,.76-.23s.53-.05.63-.05l.21,0c.23,0,.46.07.7.08a2.63,2.63,0,0,0,1.74-.75,2,2,0,0,0,.55-2"/><path class="cls-7" d="M560.28,205.57l-.33-2a1.29,1.29,0,0,0-1.57-.87,1.27,1.27,0,0,0-.88,1.53l.33,2a1.27,1.27,0,0,0,2.45-.66"/><path class="cls-7" d="M557.8,215.4C556,223.53,554,232,548.91,238.86c-4.74,6.45-12.64,11.23-20.95,10-2.47-.36-3.62,3.13-1.06,3.76,8.86,2.21,17.63-2.07,23.24-8.74,6.54-7.77,8.53-18.11,10.52-27.71.37-1.82-2.45-2.61-2.86-.78"/><path class="cls-7" d="M396.23,145.93c-4.43-12.54-21.36-28.68-11.48-42.26,1.19-1.63-1.56-3.19-2.73-1.57-11.3,15.71,5.8,30.76,11.55,44.55.65,1.57,3.25,1,2.66-.72"/><path class="cls-7" d="M399.08,155.12l-.33-2a1.32,1.32,0,0,0-2.55.69l.35,2a1.31,1.31,0,0,0,2.53-.68"/><path class="cls-7" d="M409.23,251.7c-10.72-4.76-17.76-15-16.94-26.67.14-1.91-2.89-1.9-3,0-1,13,6.21,24.83,18.87,29.22,1.51.52,2.58-1.89,1.1-2.55"/><path class="cls-8" d="M531.26,189.71c0,26.42-21.94,47.91-48.91,47.91a49.05,49.05,0,0,1-43.79-26.57c8.2,8.48,29.94,28,59.69,17.31,25-9,32.18-41.25,26-63.34A47,47,0,0,1,531.26,189.71Z"/><path class="cls-9" d="M450.46,188.34c0-1.84,2.26-3.33,5-3.33s5.05,1.49,5.05,3.33-2.26,3.33-5.05,3.33-5-1.49-5-3.33"/><path class="cls-9" d="M505.77,188.34c0-1.84,2.26-3.33,5-3.33s5.05,1.49,5.05,3.33-2.26,3.33-5.05,3.33-5-1.49-5-3.33"/><path class="cls-10" d="M495,183.38a13.08,13.08,0,0,1-1.89,6.81,11.47,11.47,0,0,1-19.9,0,13.16,13.16,0,0,1-1.69-9.08h23.27a13,13,0,0,1,.21,2.27"/><path class="cls-9" d="M493.11,190.19a11.46,11.46,0,0,1-19.9,0,14.7,14.7,0,0,1,19.9,0"/><path class="cls-5" d="M456.1,184.18a1.77,1.77,0,0,1-.25-3.53l6.35-.88c-1.76-1.69-3.29-3.11-4.77-4.43a1.77,1.77,0,0,1,2.36-2.65c2.2,2,4.51,4.14,7.49,7.07a1.77,1.77,0,0,1-1,3l-9.94,1.38-.24,0"/><path class="cls-5" d="M510.22,184.18l-.25,0L500,182.78a1.77,1.77,0,0,1-1-3c2-2,4.68-4.57,7.48-7.07a1.77,1.77,0,1,1,2.36,2.65c-1.67,1.49-3.3,3-4.77,4.43l6.35.88a1.77,1.77,0,0,1-.24,3.53"/><path class="cls-11" d="M600,394.8A522.21,522.21,0,0,1,543.45,327l2.26,10.59a515.9,515.9,0,0,0,60.42,73.66,12.18,12.18,0,0,0,4.94,3,73,73,0,0,1-1.45-14.36A17.87,17.87,0,0,1,600,394.8Z"/><path class="cls-11" d="M623.28,396.69a18,18,0,0,1-10.12,3.44,68.56,68.56,0,0,0,1.66,14.69,12.16,12.16,0,0,0,7.25-2.33c25.84-18.72,49.06-41.39,71.52-63.31l.08-.08A28,28,0,0,0,702,332c.24-2.28.44-4.32.61-6.14l-7.15,7C672.8,354.92,649.41,377.74,623.28,396.69Z"/><path class="cls-11" d="M524.51,316.33c-.22-.17-.42-.35-.63-.53,1.65,11.06,4.47,15.06,6.27,16.49a15.09,15.09,0,0,0,11.48,3.07l-3.12-14.6A20.89,20.89,0,0,1,524.51,316.33Z"/><path class="cls-12" d="M649.17,234a2.81,2.81,0,0,1-.36-2.34c.94-3.32,1.73-6.52,1-9.32-1.49-5.7-8.85-8.1-11.07-8.71-18.05-4.89-44.94,5.06-71.91,26.64-25.91,20.74-45,46.81-44.39,60.65a13,13,0,0,0,.23,2h0a14.9,14.9,0,0,0,17.36,12,3,3,0,0,1,.51,0,2.82,2.82,0,0,1,2.35,1.25A514.61,514.61,0,0,0,604,390.83a12.2,12.2,0,0,0,16,1.28c25.8-18.7,49-41.38,71.51-63.31l7.91-7.73a12.27,12.27,0,0,0,1-16.4C682.46,281.9,665.22,258.11,649.17,234Z"/><path class="cls-5" d="M708.36,308.72a18.1,18.1,0,0,0-3.51-7.55c-17.59-22.31-34.49-45.61-50.26-69.26,1-3.56,1.66-7.3.68-11-1.55-5.91-7-10.55-15.06-12.72-10.75-2.92-23.56-1.47-38.08,4.29-12.46,4.94-25.89,13-38.84,23.39-23.7,19-47.29,47.48-46.51,65.31a20.08,20.08,0,0,0,.33,2.78c.82,17.38,4,28.41,9.52,32.79a20.88,20.88,0,0,0,14.66,4.4,520.33,520.33,0,0,0,60.82,74.07,18,18,0,0,0,23.28,1.89c26.17-19,49.54-41.78,72.14-63.85l.08-.08a33.65,33.65,0,0,0,10-20.54c2-18.92,1.3-22.09,1.07-23.13A2.72,2.72,0,0,0,708.36,308.72ZM530.15,332.29c-1.8-1.43-4.62-5.43-6.27-16.49.21.18.41.36.63.53a20.89,20.89,0,0,0,14,4.43l3.12,14.6A15.09,15.09,0,0,1,530.15,332.29Zm76,78.92a515.9,515.9,0,0,1-60.42-73.66L543.45,327A522.21,522.21,0,0,0,600,394.8a17.87,17.87,0,0,0,9.63,5.07,73,73,0,0,0,1.45,14.36A12.18,12.18,0,0,1,606.13,411.21ZM702,332a28,28,0,0,1-8.29,17.1l-.08.08c-22.46,21.92-45.68,44.59-71.52,63.31a12.16,12.16,0,0,1-7.25,2.33,68.56,68.56,0,0,1-1.66-14.69,18,18,0,0,0,10.12-3.44c26.13-18.95,49.52-41.77,72.14-63.85l7.15-7C702.4,327.68,702.2,329.72,702,332Zm-2.58-10.93-7.91,7.73C669,350.73,645.76,373.41,620,392.11a12.2,12.2,0,0,1-16-1.28,514.61,514.61,0,0,1-61.13-74.7,2.82,2.82,0,0,0-2.35-1.25,3,3,0,0,0-.51,0,14.9,14.9,0,0,1-17.36-12h0a13,13,0,0,1-.23-2c-.61-13.84,18.48-39.91,44.39-60.65,27-21.58,53.86-31.53,71.91-26.64,2.22.61,9.58,3,11.07,8.71.74,2.8,0,6-1,9.32a2.81,2.81,0,0,0,.36,2.34c16.05,24.14,33.29,47.93,51.24,70.7A12.27,12.27,0,0,1,699.38,321.07Z"/><path class="cls-13" d="M613.16,370.93a723.65,723.65,0,0,1-60.8-78.1,7.42,7.42,0,0,1,2.16-10.48l.15-.09a7.43,7.43,0,0,1,9.44,1.62q31.88,37.5,61.47,76.88a8,8,0,0,1-1.44,11l-.12.09a8,8,0,0,1-10.86-.95"/><path class="cls-13" d="M665.07,329.25a723.58,723.58,0,0,1-60.81-78.11,7.42,7.42,0,0,1,2.16-10.48l.15-.09a7.45,7.45,0,0,1,9.44,1.62q31.88,37.51,61.47,76.89a8,8,0,0,1-1.44,11l-.12.09a7.94,7.94,0,0,1-10.85-.94"/><path class="cls-13" d="M650.07,350.79a.47.47,0,0,0-.1.1,6.84,6.84,0,0,1-10-.55c-21.12-25-40.94-50.38-59.83-77.6a6.76,6.76,0,0,1,1.76-9.43l.11-.07a6.77,6.77,0,0,1,9.2,1.51c19.28,25.48,39.16,50.61,59.51,76.85a6.89,6.89,0,0,1-.7,9.19"/><path class="cls-5" d="M585.45,313.26a5.8,5.8,0,1,1,8.13,1,5.79,5.79,0,0,1-8.13-1"/><path class="cls-3" d="M586.1,310.48a1.79,1.79,0,1,1,2.52.32,1.8,1.8,0,0,1-2.52-.32"/><path class="cls-5" d="M621.16,285.61a5.8,5.8,0,1,1,8.14,1,5.82,5.82,0,0,1-8.14-1"/><path class="cls-3" d="M621.82,282.83a1.79,1.79,0,1,1,2.51.32,1.79,1.79,0,0,1-2.51-.32"/><path class="cls-5" d="M618.47,309.48a11.37,11.37,0,0,1-5.88,2.39c-3.89.34-7.29-1.65-9.3-5.48a1.72,1.72,0,0,1,3-1.6c1.74,3.31,4.2,3.81,6,3.65a8.19,8.19,0,0,0,6.78-5.39c.75-2.37-.07-4.66-2.37-6.6a1.72,1.72,0,0,1,2.21-2.63c3.35,2.83,4.6,6.57,3.44,10.26a11.22,11.22,0,0,1-3.88,5.4"/><path class="cls-9" d="M587.61,323.1c-1.12-1.45-.25-4,1.95-5.72s4.91-1.91,6-.45.25,4-2,5.72-4.9,1.91-6,.45"/><path class="cls-9" d="M631.34,289.24c-1.12-1.45-.25-4,2-5.72s4.9-1.91,6-.45.25,4-2,5.72-4.9,1.91-6,.45"/><path class="cls-14" d="M300.48,243.6a18.15,18.15,0,0,1-2.63-8.53,28.39,28.39,0,0,1-3.32.87q-1,.18-1.92.3v.09a12.6,12.6,0,0,1-2.15,6.92C293.73,243.39,297.07,243.5,300.48,243.6Z"/><path class="cls-14" d="M382.5,236.32a4.73,4.73,0,0,0-.75.05,5.56,5.56,0,0,0-3.29,1.55,3,3,0,0,0-1,2.42,3,3,0,0,0,1.48,2.12l.19.09q3.07-.18,6-.39a4.39,4.39,0,0,0,.65-.55,3,3,0,0,0,.95-2.42,2.93,2.93,0,0,0-1.47-2.12A5.3,5.3,0,0,0,382.5,236.32Z"/><path class="cls-14" d="M291.67,218.32c-2.58.7-4.2,2.5-3.91,3.64s2.53,1.9,5.12,1.21a6.77,6.77,0,0,0,3.22-1.86,2.08,2.08,0,0,0,.69-1.78C296.51,218.39,294.26,217.63,291.67,218.32Z"/><path class="cls-15" d="M307.49,218.72a6.64,6.64,0,0,0-.11-1.18c-.45-2.51-2.39-4.65-5.46-6a20.2,20.2,0,0,0-12-1.05c-5.39,1.06-10,3.84-12.39,7.45a8.07,8.07,0,0,0-1.41,5.77c.46,2.52,2.4,4.66,5.47,6a20.2,20.2,0,0,0,12,1,22.72,22.72,0,0,0,5-1.6A18.05,18.05,0,0,1,307.49,218.72Zm-9.07,4.83a9.81,9.81,0,0,1-4.75,2.8,10.67,10.67,0,0,1-2.74.37c-3.1,0-5.63-1.49-6.24-3.93h0c-.78-3.15,1.94-6.5,6.19-7.65s8.19.42,9,3.56A5.36,5.36,0,0,1,298.42,223.55Z"/><path class="cls-15" d="M287.54,236.43a22.88,22.88,0,0,1-8-1.87c-4.16-1.87-7-4.88-8.1-8.55-8.56.06-15.75,4.76-15.75,10.32a7.37,7.37,0,0,0,1.8,4.69v0l.38,0,.56.06.81.08.57.06.94.09.44,0,1.47.13c1.63.14,3.31.28,5,.41a8.52,8.52,0,0,1-1.83-1.09,5.31,5.31,0,0,1-2.15-4.55c.3-3.23,4-5.42,8.33-5s7.56,3.31,7.26,6.54c-.2,2.15-1.89,3.84-4.3,4.6q4.23.27,8.7.49C286.16,241.1,287.51,238.81,287.54,236.43Z"/><path class="cls-14" d="M245.64,239.53l.87.14.24,0,.64.1.39.06.53.07.48.07.48.06.52.07.51.07.52.07.52.06a12.1,12.1,0,0,1-.69-4c0-8.6,8.92-15.36,20.42-15.57a14.12,14.12,0,0,1,2.26-5.8c3.11-4.74,8.95-8.35,15.63-9.65a25.08,25.08,0,0,1,15,1.38c4.66,2.09,7.65,5.6,8.43,9.88a2.3,2.3,0,0,1,0,.26,22.56,22.56,0,0,1,5.23-.65c3.19-5.79,10.69-9.57,19.37-9.57,6.2,0,12,2,15.93,5.4a28.27,28.27,0,0,1,6.05-2.27,25.06,25.06,0,0,1,15,.61c4.75,1.85,7.91,5.2,8.89,9.45a11.24,11.24,0,0,1,.27,1.92,22.37,22.37,0,0,1,2.27.29c10,1.78,17.28,9.57,17.79,18.47,3.39-.41,6.22-.82,8.55-1.22a14.76,14.76,0,0,1,1.35-1.59c.25-.27.5-.54.73-.82a7.86,7.86,0,0,0,1.18-7,11.15,11.15,0,0,0-5-6.13,13.83,13.83,0,0,0-11.35-1.26,2.83,2.83,0,0,1-3.56-1.73,16,16,0,0,0-6.81-8.73,13.18,13.18,0,0,0-10.12-1.13,2.83,2.83,0,0,1-2.95-.85c-3.58-4.11-7.17-6.65-11-7.77a15.29,15.29,0,0,0-11.57,1.12,2.85,2.85,0,0,1-2,.3,6.57,6.57,0,0,1-3.79-2.83l-.15-.19a12.6,12.6,0,0,0-18.8-1.46,2.81,2.81,0,0,1-2.72.69c-4.82-1.33-11.54-2.12-16.14,1.67a2.83,2.83,0,0,1-3.11.33,17.87,17.87,0,0,0-15.56-.76c-1.24.56-3.43,1.79-4.15,3.72a2.83,2.83,0,0,1-2.11,1.79c-5,1-7.42,2.07-9.46,3.41a2.84,2.84,0,0,1-2.27.37,14.94,14.94,0,0,0-8.11-.22,14.78,14.78,0,0,0-10.47,13,2.82,2.82,0,0,1-1.8,2.47c-3.53,1.37-5.75,3.23-6.77,5.69a9.11,9.11,0,0,0,.15,7.29A2.91,2.91,0,0,1,245.64,239.53Z"/><path class="cls-16" d="M386.78,205.31a18.18,18.18,0,0,1,2.26.76c6.11-8.06,11-17.16,15.81-26,2.4-4.43,4.87-9,6.89-13.74a9.66,9.66,0,0,0-.68-9,9.93,9.93,0,0,0-.94-1.27,10,10,0,0,1,.12,1.91,20.3,20.3,0,0,1-2.11,7.4A275.7,275.7,0,0,1,386.78,205.31Z"/><path class="cls-17" d="M420.08,237.17l-.09.26.45-.14Z"/><path class="cls-15" d="M393.05,241.53l1.86-.17,3.25-.32c-.28-6.51-6-12.49-13.59-13.85-8.65-1.54-16.68,3.24-17.91,10.65a11.94,11.94,0,0,0,.35,5.34c2.72-.11,5.39-.24,8-.39a6,6,0,0,1-.64-2.06,6.31,6.31,0,0,1,1.87-5.15,8.65,8.65,0,0,1,5.14-2.48,8.54,8.54,0,0,1,5.57,1.15,6.23,6.23,0,0,1,3,4.55,5.94,5.94,0,0,1-.46,3Z"/><path class="cls-14" d="M314.14,236.51a5.47,5.47,0,0,0,3.55.7,5.56,5.56,0,0,0,3.29-1.55,3,3,0,0,0,.95-2.42,3,3,0,0,0-1.47-2.12,5.55,5.55,0,0,0-3.55-.7c-2.52.31-4.46,2.13-4.25,4A3,3,0,0,0,314.14,236.51Z"/><path class="cls-18" d="M378.33,205a18.48,18.48,0,0,1,4.63-.3A270.52,270.52,0,0,0,404.89,164a17.43,17.43,0,0,0,1.82-6.13,5,5,0,0,0-2-4.52,1.67,1.67,0,0,1-.5-.45c-.19,0-.37-.06-.56-.07l-.33,0a9.69,9.69,0,0,0-9.58,6.37c-4.9,13.16-10.61,27-17.89,43.38C376.68,203.31,377.51,204.11,378.33,205Z"/><path class="cls-14" d="M271.77,234.59a7.09,7.09,0,0,0-.79,0c-2.28,0-4,1-4.09,2.06a2.09,2.09,0,0,0,.95,1.65,6.69,6.69,0,0,0,3.47,1.31c2.65.26,4.76-.85,4.87-2S274.43,234.86,271.77,234.59Z"/><path class="cls-19" d="M304.89,342.57A77.43,77.43,0,0,1,288,340.71a14.72,14.72,0,0,0,12.2,6.59h55.28a14.72,14.72,0,0,0,12.2-6.59,77.43,77.43,0,0,1-16.86,1.86Z"/><path class="cls-20" d="M239,236.28a38.43,38.43,0,0,0-3.72,1c1,.31,2.27.68,4.07,1.08A16.28,16.28,0,0,1,239,236.28Z"/><path class="cls-14" d="M366.82,227.28a19.06,19.06,0,0,1,1.67-1.43,1.86,1.86,0,0,0,.46-1.48c-.28-1.14-2.54-1.9-5.12-1.21s-4.2,2.5-3.92,3.64,2.54,1.9,5.13,1.21A7.57,7.57,0,0,0,366.82,227.28Z"/><path class="cls-21" d="M422.43,242.58v22.75a71.67,71.67,0,0,1-71.58,71.59h-46a71.67,71.67,0,0,1-71.59-71.59V242.58l1.14.36.07,0,.78.22.12,0,.84.22.15,0,.92.22.15,0,1,.23.11,0,1.11.23.08,0,1.2.23.21,0,1.25.23.25,0L244,245l.29.05,1.44.22.26,0,1.61.24.15,0,1.68.22.22,0,1.8.23.33,0,1.89.22.38,0,2,.22.36,0,2.19.22.28,0,2.46.23c18.13,1.64,41.74,2.55,66.48,2.55h4.3c23.15-.1,45.09-1,62.17-2.54l2.46-.23c.09,0,1.36,3.25,1.45,3.25.75-.07.31-3.43,1-3.5l.36,0,2-.22.38,0,1.89-.22.33,0,1.81-.23.2,0,1.7-.22.14,0,.69-.1.94-.14.23,0,1.48-.23.24,0,1.37-.23.21,0,1.3-.23.13,0c1.37-.26,2.58-.51,3.65-.76h0l1-.25h0C420.6,243.15,421.6,242.86,422.43,242.58Z"/><path class="cls-9" d="M295.17,287.37c0-1.84,2.26-3.33,5.05-3.33s5,1.49,5,3.33-2.26,3.33-5,3.33-5.05-1.49-5.05-3.33"/><path class="cls-9" d="M350.48,287.37c0-1.84,2.26-3.33,5-3.33s5.05,1.49,5.05,3.33-2.26,3.33-5.05,3.33-5-1.49-5-3.33"/><path class="cls-5" d="M321.26,287.3h-.39a5.92,5.92,0,0,1-5-3.08,1.72,1.72,0,0,1,.67-2.34,1.74,1.74,0,0,1,2.34.67,2.51,2.51,0,0,0,2.2,1.32,6.33,6.33,0,0,0,5.06-2.72,1.7,1.7,0,0,1,1.4-.73,1.84,1.84,0,0,1,1.23.51c1.17,1.17,3.73,3.08,5.79,2.9a3.46,3.46,0,0,0,2.51-1.66,1.71,1.71,0,1,1,2.8,2,6.77,6.77,0,0,1-5,3.1c-2.85.25-5.53-1.39-7.17-2.69a9.56,9.56,0,0,1-6.42,2.75"/><path class="cls-5" d="M300.81,282.62a1.77,1.77,0,0,1-.24-3.52l6.34-.89c-1.76-1.69-3.29-3.11-4.76-4.42a1.77,1.77,0,1,1,2.35-2.65c2.2,2,4.51,4.14,7.49,7.07a1.77,1.77,0,0,1-1,3l-9.94,1.38h-.24"/><path class="cls-5" d="M354.93,282.62h-.24l-9.94-1.38a1.77,1.77,0,0,1-1-3c2-2,4.69-4.58,7.49-7.07a1.77,1.77,0,0,1,2.35,2.65c-1.67,1.49-3.3,3-4.76,4.42l6.34.89a1.77,1.77,0,0,1-.24,3.52"/><path class="cls-15" d="M363.54,231.55h-.46c-3.09,0-5.62-1.49-6.23-3.93-.78-3.14,1.93-6.5,6.18-7.65s8.2.42,9,3.56a1.1,1.1,0,0,1,0,.16,21.78,21.78,0,0,1,6-1.82A7.91,7.91,0,0,0,378,221c-.58-2.5-2.62-4.54-5.75-5.76a20.14,20.14,0,0,0-12-.42,20.8,20.8,0,0,0-10.56,6.08c-2.25,2.56-3.17,5.34-2.59,7.83,1.1,4.78,7.65,7.61,15,6.69A17,17,0,0,1,363.54,231.55Z"/><path class="cls-14" d="M337.24,224.89a6.69,6.69,0,0,0,3.52-1.14,2.12,2.12,0,0,0,1-1.61c0-1.11-1.9-2.26-4.37-2.26H337a6.66,6.66,0,0,0-3.52,1.14,3.15,3.15,0,0,0-.71.7,20.85,20.85,0,0,1,2.89,3.06A8.23,8.23,0,0,0,337.24,224.89Z"/><path class="cls-14" d="M361.48,240.8c-.8.07-1.59.11-2.36.11-5.38,0-10.11-1.67-13.27-4.57a27.16,27.16,0,0,1-6.29,1.33c0,.39-.08.79-.14,1.18a17.25,17.25,0,0,1-1.7,5.09c8.3-.09,16.4-.27,24.13-.55A17.75,17.75,0,0,1,361.48,240.8Z"/><path class="cls-15" d="M337.75,228.14a18.27,18.27,0,0,1,1.49,4.28,23,23,0,0,0,3.45-.59,11.67,11.67,0,0,1-.61-1.84,12.1,12.1,0,0,1-.3-3.05A10,10,0,0,1,337.75,228.14Z"/><path class="cls-15" d="M344.15,219.64a18.75,18.75,0,0,1,1.72-2.26,21.11,21.11,0,0,1,2.45-2.36A20.84,20.84,0,0,0,337,211.87c-5.57,0-10.71,2-13.57,5a23.31,23.31,0,0,1,6.78,2.92,6.63,6.63,0,0,1,1.44-1.46,9.67,9.67,0,0,1,5.2-1.74C340.07,216.44,342.85,217.68,344.15,219.64Z"/><path class="cls-15" d="M327.87,244h3.63a11.88,11.88,0,0,0,2.93-6c1.22-7.42-4.83-14.7-13.47-16.24s-16.69,3.24-17.91,10.65a13.12,13.12,0,0,0,4,11.38C313.84,243.91,320.81,244,327.87,244Zm-11.34-16.83a8.54,8.54,0,0,1,5.57,1.15,6.19,6.19,0,0,1,3,4.54,6.29,6.29,0,0,1-1.87,5.14,8.61,8.61,0,0,1-5.14,2.49,11.26,11.26,0,0,1-1.15.07,8.26,8.26,0,0,1-4.42-1.23,6.14,6.14,0,0,1-3-4.54C309.1,231.11,312.24,227.69,316.53,227.16Z"/><path class="cls-5" d="M312.5,239.32a8.26,8.26,0,0,0,4.42,1.23,11.26,11.26,0,0,0,1.15-.07,8.61,8.61,0,0,0,5.14-2.49,6.29,6.29,0,0,0,1.87-5.14,6.19,6.19,0,0,0-3-4.54,8.54,8.54,0,0,0-5.57-1.15c-4.29.53-7.43,4-7,7.62A6.14,6.14,0,0,0,312.5,239.32Zm4.41-8.9a5.55,5.55,0,0,1,3.55.7,3,3,0,0,1,1.47,2.12,3,3,0,0,1-.95,2.42,5.56,5.56,0,0,1-3.29,1.55,5.47,5.47,0,0,1-3.55-.7,3,3,0,0,1-1.48-2.12C312.45,232.55,314.39,230.73,316.91,230.42Z"/><path class="cls-5" d="M290.88,215.14c-4.25,1.15-7,4.5-6.19,7.65h0c.61,2.44,3.14,3.93,6.24,3.93a10.67,10.67,0,0,0,2.74-.37,9.81,9.81,0,0,0,4.75-2.8,5.36,5.36,0,0,0,1.44-4.85C299.07,215.56,295.13,214,290.88,215.14Zm5.22,6.17a6.77,6.77,0,0,1-3.22,1.86c-2.59.69-4.84-.06-5.12-1.21s1.33-2.94,3.91-3.64,4.84.07,5.12,1.21A2.08,2.08,0,0,1,296.1,221.31Z"/><path class="cls-5" d="M421,231.54a13.81,13.81,0,0,0-.56-3.35,16.83,16.83,0,0,0-7.49-9.33,19.54,19.54,0,0,0-13.49-2.45,22,22,0,0,0-5.57-7.39c6.2-8.28,11.15-17.4,15.93-26.25,2.46-4.55,5-9.25,7.12-14.21a15.46,15.46,0,0,0-1.06-14.14A15,15,0,0,0,404,147.2l-.41,0a15.32,15.32,0,0,0-15.17,10.05c-4.74,12.74-10.25,26.13-17.25,41.92a23.56,23.56,0,0,0-5.32-2.34,21,21,0,0,0-14.33.81l-.13-.18-.17-.22a18.24,18.24,0,0,0-26-3.19c-8.84-2.1-14.65-.3-18.25,2a23.42,23.42,0,0,0-18.9-.12,13.68,13.68,0,0,0-6.4,5.4,29.55,29.55,0,0,0-9,3.28,19.66,19.66,0,0,0-9.87.1A20.63,20.63,0,0,0,248.38,221c-4.14,1.92-6.88,4.59-8.35,8.1-.17.41-.32.83-.45,1.25-7.17,1.44-11.93,3.18-11.93,6.91a3.93,3.93,0,0,0,0,.46,3,3,0,0,0,0,.31v27.27a77.37,77.37,0,0,0,53.23,73.41A20.42,20.42,0,0,0,300.23,353h55.28a20.42,20.42,0,0,0,19.35-14.21,77.37,77.37,0,0,0,53.23-73.41V238.06a3,3,0,0,0,0-.31,3.8,3.8,0,0,0,0-.46C428.09,234.13,424.63,232.59,421,231.54Zm-.92,5.63.36.12-.45.14Zm-10-81.06a9.93,9.93,0,0,1,.94,1.27,9.66,9.66,0,0,1,.68,9c-2,4.72-4.49,9.31-6.89,13.74-4.77,8.83-9.7,17.93-15.81,26a18.18,18.18,0,0,0-2.26-.76,275.7,275.7,0,0,0,21.35-39.89,20.3,20.3,0,0,0,2.11-7.4A10,10,0,0,0,410.12,156.11Zm-16.39,3.08a9.69,9.69,0,0,1,9.58-6.37l.33,0c.19,0,.37,0,.56.07a1.67,1.67,0,0,0,.5.45,5,5,0,0,1,2,4.52,17.43,17.43,0,0,1-1.82,6.13A270.52,270.52,0,0,1,383,204.69a18.48,18.48,0,0,0-4.63.3c-.82-.88-1.65-1.68-2.49-2.42C383.12,186.17,388.83,172.35,393.73,159.19ZM245.25,231.31c1-2.46,3.24-4.32,6.77-5.69a2.82,2.82,0,0,0,1.8-2.47,14.78,14.78,0,0,1,10.47-13,14.94,14.94,0,0,1,8.11.22,2.84,2.84,0,0,0,2.27-.37c2-1.34,4.42-2.43,9.46-3.41a2.83,2.83,0,0,0,2.11-1.79c.72-1.93,2.91-3.16,4.15-3.72a17.87,17.87,0,0,1,15.56.76,2.83,2.83,0,0,0,3.11-.33c4.6-3.79,11.32-3,16.14-1.67a2.81,2.81,0,0,0,2.72-.69,12.6,12.6,0,0,1,18.8,1.46l.15.19a6.57,6.57,0,0,0,3.79,2.83,2.85,2.85,0,0,0,2-.3,15.29,15.29,0,0,1,11.57-1.12c3.8,1.12,7.39,3.66,11,7.77a2.83,2.83,0,0,0,2.95.85A13.18,13.18,0,0,1,388.31,212a16,16,0,0,1,6.81,8.73,2.83,2.83,0,0,0,3.56,1.73A13.83,13.83,0,0,1,410,223.69a11.15,11.15,0,0,1,5,6.13,7.86,7.86,0,0,1-1.18,7c-.23.28-.48.55-.73.82a14.76,14.76,0,0,0-1.35,1.59c-2.33.4-5.16.81-8.55,1.22-.51-8.9-7.75-16.69-17.79-18.47a22.37,22.37,0,0,0-2.27-.29,11.24,11.24,0,0,0-.27-1.92c-1-4.25-4.14-7.6-8.89-9.45a25.06,25.06,0,0,0-15-.61,28.27,28.27,0,0,0-6.05,2.27c-3.94-3.41-9.73-5.4-15.93-5.4-8.68,0-16.18,3.78-19.37,9.57a22.56,22.56,0,0,0-5.23.65,2.3,2.3,0,0,0,0-.26c-.78-4.28-3.77-7.79-8.43-9.88a25.08,25.08,0,0,0-15-1.38c-6.68,1.3-12.52,4.91-15.63,9.65a14.12,14.12,0,0,0-2.26,5.8c-11.5.21-20.42,7-20.42,15.57a12.1,12.1,0,0,0,.69,4l-.52-.06-.52-.07-.51-.07-.52-.07-.48-.06-.48-.07-.53-.07-.39-.06-.64-.1-.24,0-.87-.14a2.91,2.91,0,0,0-.24-.93A9.11,9.11,0,0,1,245.25,231.31Zm144.67,7.49a6.23,6.23,0,0,0-3-4.55,8.54,8.54,0,0,0-5.57-1.15,8.65,8.65,0,0,0-5.14,2.48,6.31,6.31,0,0,0-1.87,5.15,6,6,0,0,0,.64,2.06c-2.6.15-5.27.28-8,.39a11.94,11.94,0,0,1-.35-5.34c1.23-7.41,9.26-12.19,17.91-10.65,7.63,1.36,13.31,7.34,13.59,13.85l-3.25.32-1.86.17-3.59.3A5.94,5.94,0,0,0,389.92,238.8Zm-3.15.39a3,3,0,0,1-.95,2.42,4.39,4.39,0,0,1-.65.55q-2.93.21-6,.39l-.19-.09a3,3,0,0,1-1.48-2.12,3,3,0,0,1,1-2.42,5.56,5.56,0,0,1,3.29-1.55,4.73,4.73,0,0,1,.75-.05,5.3,5.3,0,0,1,2.8.75A2.93,2.93,0,0,1,386.77,239.19Zm-94.16-2.95q1-.12,1.92-.3a28.39,28.39,0,0,0,3.32-.87,18.15,18.15,0,0,0,2.63,8.53c-3.41-.1-6.75-.21-10-.35a12.6,12.6,0,0,0,2.15-6.92Zm6-7.07a22.72,22.72,0,0,1-5,1.6,20.2,20.2,0,0,1-12-1c-3.07-1.38-5-3.52-5.47-6a8.07,8.07,0,0,1,1.41-5.77c2.37-3.61,7-6.39,12.39-7.45a20.2,20.2,0,0,1,12,1.05c3.07,1.37,5,3.51,5.46,6a6.64,6.64,0,0,1,.11,1.18A18.05,18.05,0,0,0,298.62,229.17Zm-19.29,8.69c.3-3.23-2.89-6.11-7.26-6.54s-8,1.75-8.33,5a5.31,5.31,0,0,0,2.15,4.55,8.52,8.52,0,0,0,1.83,1.09c-1.72-.13-3.4-.27-5-.41l-1.47-.13-.44,0-.94-.09-.57-.06-.81-.08-.56-.06-.38,0v0a7.37,7.37,0,0,1-1.8-4.69c0-5.56,7.19-10.26,15.75-10.32,1.11,3.67,3.94,6.68,8.1,8.55a22.88,22.88,0,0,0,8,1.87c0,2.38-1.38,4.67-3.81,6.52q-4.47-.22-8.7-.49C277.44,241.7,279.13,240,279.33,237.86Zm-8,1.71a6.69,6.69,0,0,1-3.47-1.31,2.09,2.09,0,0,1-.95-1.65c.1-1.05,1.81-2.06,4.09-2.06a7.09,7.09,0,0,1,.79,0c2.66.27,4.52,1.78,4.41,2.95S274,239.83,271.31,239.57Zm31.74-7.19c1.22-7.41,9.26-12.19,17.91-10.65s14.69,8.82,13.47,16.24a11.88,11.88,0,0,1-2.93,6h-3.63c-7.06,0-14-.08-20.8-.23A13.12,13.12,0,0,1,303.05,232.38Zm33.79-15.77a9.67,9.67,0,0,0-5.2,1.74,6.63,6.63,0,0,0-1.44,1.46,23.31,23.31,0,0,0-6.78-2.92c2.86-3,8-5,13.57-5A20.84,20.84,0,0,1,348.32,215a21.11,21.11,0,0,0-2.45,2.36,18.75,18.75,0,0,0-1.72,2.26C342.85,217.68,340.07,216.44,336.84,216.61Zm5.85,15.22a23,23,0,0,1-3.45.59,18.27,18.27,0,0,0-1.49-4.28,10,10,0,0,0,4-1.2,12.1,12.1,0,0,0,.3,3.05A11.67,11.67,0,0,0,342.69,231.83Zm-9.92-10.1a3.15,3.15,0,0,1,.71-.7,6.66,6.66,0,0,1,3.52-1.14h.41c2.47,0,4.32,1.15,4.37,2.26a2.12,2.12,0,0,1-1,1.61,6.69,6.69,0,0,1-3.52,1.14,8.23,8.23,0,0,1-1.58-.1A20.85,20.85,0,0,0,332.77,221.73Zm6.65,17.12c.06-.39.11-.79.14-1.18a27.16,27.16,0,0,0,6.29-1.33c3.16,2.9,7.89,4.57,13.27,4.57.77,0,1.56,0,2.36-.11a17.75,17.75,0,0,0,.37,2.59c-7.73.28-15.83.46-24.13.55A17.25,17.25,0,0,0,339.42,238.85ZM347,228.76c-.58-2.49.34-5.27,2.59-7.83a20.8,20.8,0,0,1,10.56-6.08,20.14,20.14,0,0,1,12,.42c3.13,1.22,5.17,3.26,5.75,5.76a7.91,7.91,0,0,1,.13.85,21.78,21.78,0,0,0-6,1.82,1.1,1.1,0,0,0,0-.16c-.78-3.14-4.72-4.7-9-3.56s-7,4.51-6.18,7.65c.61,2.44,3.14,3.93,6.23,3.93h.46a17,17,0,0,0-1.55,3.9C354.66,236.37,348.11,233.54,347,228.76Zm12.9-2c-.28-1.14,1.33-2.94,3.92-3.64s4.84.07,5.12,1.21a1.86,1.86,0,0,1-.46,1.48,19.06,19.06,0,0,0-1.67,1.43A7.57,7.57,0,0,1,365,228C362.45,228.7,360.2,228,359.91,226.8ZM239,236.28a16.28,16.28,0,0,0,.35,2.09c-1.8-.4-3.12-.77-4.07-1.08A38.43,38.43,0,0,1,239,236.28Zm116.5,111H300.23a14.72,14.72,0,0,1-12.2-6.59,77.43,77.43,0,0,0,16.86,1.86h46a77.43,77.43,0,0,0,16.86-1.86A14.72,14.72,0,0,1,355.51,347.3Zm66.93-82a71.68,71.68,0,0,1-71.59,71.59h-46a71.68,71.68,0,0,1-71.59-71.59V242.57c.35.12.74.25,1.15.37l.06,0,.79.22.12,0,.84.22.15,0,.91.22.16,0,1,.23.1,0,1.11.23.09,0,1.2.23.2,0,1.25.22.26.05L244,245l.28.05,1.45.22.26,0,1.6.24.16,0,1.67.22.22,0,1.81.23.33,0,1.88.22.39,0,2,.22.36,0,2.2.22.27,0,2.46.23c18.14,1.64,41.75,2.55,66.48,2.55h4.3c23.16-.1,45.1-1,62.18-2.54l2.45-.23c.1,0,1.36,3.26,1.45,3.25.76-.07.31-3.43,1-3.5l.36,0,2-.22.39,0,1.88-.22.33,0,1.81-.23.21,0,1.69-.23h.14l1.63-.24.23,0,1.48-.23.24,0,1.38-.24.2,0,1.3-.24.14,0c1.36-.26,2.57-.51,3.64-.76h0l1-.25h0c1.18-.3,2.18-.59,3-.88Z"/><path class="cls-19" d="M422.43,242.58v22.75a71.67,71.67,0,0,1-71.58,71.59H339.14c2.83-.62,5.86-1.22,9.11-1.81,61.88-11.17,61.71-71.84,60.54-89.66l.94-.14.23,0,1.48-.23.24,0,1.37-.23.21,0,1.3-.23.13,0c1.37-.26,2.58-.51,3.65-.76h0l1-.25h0C420.6,243.15,421.6,242.86,422.43,242.58Z"/><path class="cls-22" d="M247.52,262.2l.09,1.05c-.06-.77-.08-1.64-.21-2.44s-.35-1.69-.54-2.53a3.46,3.46,0,0,0-1.89-2.17,2.2,2.2,0,0,0-1.17-1,1.62,1.62,0,0,0-1.24.09l-.36.24a1.69,1.69,0,0,0-.45.7c-1.87-.72-2,2.84-2,4.15v1l.05-1a60.55,60.55,0,0,0,.12,6.46,4.11,4.11,0,0,0,1.27,2.82,4,4,0,0,0,5.63-.21,4,4,0,0,0,1.06-2.81C247.77,265.05,247.64,263.63,247.52,262.2Z"/><path class="cls-22" d="M277.7,322.27a65.51,65.51,0,0,1-10.27-7.54,60.49,60.49,0,0,1-5.43-6,58.7,58.7,0,0,1-3.9-5.13A61.83,61.83,0,0,1,252,291.37c-1.66-4.3-3.21-9.3-3.19-13.94a4,4,0,1,0-7.79,1.25c1.15,3.93,1.93,7.89,3.49,11.7a61.84,61.84,0,0,0,6.21,11.52,73,73,0,0,0,7.21,9.05,62.47,62.47,0,0,0,8.73,7.32,52.64,52.64,0,0,0,10.21,5.83C277.92,324.56,278.66,322.85,277.7,322.27Z"/><path class="cls-23" d="M99.43,215c-1.18,8.74-4.86,16.64-9.52,24.42h0c-2.49,4.18-5.28,8.32-8.12,12.54-1.62,2.41-3.25,4.84-4.85,7.31-4.89,7.56-9.4,15.42-12,24-2.25,7.46-3,15.29-3.65,22.86-.19,2-.37,4.09-.59,6.15-.33,3.15-.74,6.31-1.32,9.4a80.86,80.86,0,0,1-8.22,23.33,80.86,80.86,0,0,1-9.69,14.28A82.64,82.64,0,0,1,19.25,349a126,126,0,0,0,8.47-14.77l9.72-27c.4-1.73.78-3.46,1.11-5.19.59-3,1.07-6.15,1.54-9.16,1.09-7,2.21-14.18,4.68-20.83S51,259.32,54.85,253.39l1-1.6c1.82-2.82,3.7-5.74,5.44-8.68a82.44,82.44,0,0,0,4.3-8.28c3.67-8.19,5.1-15.59,4.33-22.41Z"/><path class="cls-24" d="M62.83,234.12a78.86,78.86,0,0,1-3.95,7.55c-1.7,2.9-3.57,5.79-5.37,8.58l-1.68,2.61c-3.68,5.76-7.3,11.74-9.71,18.24-2.56,6.91-3.71,14.26-4.82,21.37-.47,3-.95,6.07-1.53,9.07-.31,1.62-.66,3.25-1.05,4.86a126.09,126.09,0,0,1-9.69,27,124.5,124.5,0,0,1-8.12,14.1A84.2,84.2,0,0,1,7,339.32a59.17,59.17,0,0,0,8.06-8.91,59.69,59.69,0,0,0,11.06-27.23c.07-.52.13-1,.19-1.56.41-3.8.45-7.63.49-11.33s.06-7,.42-10.46a55.64,55.64,0,0,1,7.22-22.2,75.24,75.24,0,0,1,4.2-6.37c1.15-1.6,2.35-3.19,3.58-4.82,2.34-3.1,4.76-6.3,6.9-9.68A53.14,53.14,0,0,0,52.28,231,38.67,38.67,0,0,0,56,211.2l11,1C68,218.76,66.56,226,62.83,234.12Z"/><path class="cls-24" d="M113.89,216.16A61.83,61.83,0,0,1,107,241.27a59.13,59.13,0,0,1-3.57,6c-2.18,3.21-4.76,6.32-7.25,9.34-2.06,2.48-4.15,5-6.09,7.66a54,54,0,0,0-5.71,9.52c-4.32,9.51-4.7,19.94-5.08,30-.11,3.22-.24,6.51-.49,9.74-.06.79-.13,1.57-.21,2.35a92.83,92.83,0,0,1-13,38.29q-2.51,4.17-5.45,8.16A84.93,84.93,0,0,1,44.49,360a83.83,83.83,0,0,0,9.14-13.68,83.88,83.88,0,0,0,8.55-24.21c.59-3.17,1-6.39,1.35-9.59.22-2.09.4-4.17.59-6.22.68-7.43,1.38-15.12,3.54-22.3,2.54-8.43,7.1-16.28,12-23.84,1.47-2.25,3-4.47,4.45-6.68,3-4.49,6.07-9,8.81-13.71,4.49-7.7,8.12-15.77,9.31-24.59Z"/><path class="cls-5" d="M117,210.75c-21.51-1.77-43.1-3.66-64-5.48a2.81,2.81,0,0,0-3,3.25c1.38,8.88-.42,16.89-5.69,25.22-2,3.18-4.36,6.29-6.63,9.29a117.31,117.31,0,0,0-8.16,11.76,61.33,61.33,0,0,0-8,24.46c-.38,3.69-.42,7.4-.45,11s-.07,7.24-.45,10.77A54,54,0,0,1,1.05,337a2.84,2.84,0,0,0-.25,4.17,88.53,88.53,0,0,0,60.6,26.93h.1A2.83,2.83,0,0,0,63.75,367a100.3,100.3,0,0,0,20.44-50.48c.42-4.14.58-8.36.73-12.45.37-10,.72-19.41,4.57-27.9,2.62-5.79,6.69-10.71,11-15.92,2.57-3.11,5.23-6.33,7.57-9.76a67.38,67.38,0,0,0,11.56-36.85A2.83,2.83,0,0,0,117,210.75ZM7,339.32a59.76,59.76,0,0,0,19.32-37.7c.41-3.81.44-7.63.48-11.33s.07-7,.42-10.46a55.8,55.8,0,0,1,7.22-22.2,113.87,113.87,0,0,1,7.79-11.19c2.34-3.1,4.76-6.3,6.89-9.68,5.35-8.44,7.58-16.65,6.91-25.56l11.06,1c1.13,8.57-1.55,18.24-8.19,29.51-1.71,2.9-3.57,5.79-5.38,8.58-4.23,6.57-8.61,13.36-11.39,20.85-2.56,6.91-3.71,14.26-4.82,21.37-.46,3-.94,6.07-1.52,9.07a126.55,126.55,0,0,1-18.87,45.91A85,85,0,0,1,7,339.32ZM19.25,349a129.32,129.32,0,0,0,19.3-47c.59-3,1.08-6.15,1.55-9.16,1.08-7,2.21-14.18,4.67-20.83,2.68-7.2,7-13.86,11.12-20.3,1.82-2.82,3.7-5.73,5.43-8.67C68.14,231.54,71,221.47,70,212.42L99.43,215c-1.82,13.43-9.52,24.88-17.64,37-6.6,9.8-13.42,19.94-16.83,31.28-2.24,7.46-3,15.29-3.65,22.86-.46,5.13-1,10.44-1.91,15.55a81.56,81.56,0,0,1-17.9,37.61A82.42,82.42,0,0,1,19.25,349ZM103.4,247.26c-2.19,3.21-4.77,6.32-7.26,9.33-4.36,5.27-8.86,10.71-11.8,17.19-4.31,9.51-4.7,19.94-5.07,30-.15,4-.3,8.13-.7,12.09a94.61,94.61,0,0,1-18.43,46.45A83.87,83.87,0,0,1,44.5,360a84.41,84.41,0,0,0,17.68-37.88c1-5.24,1.47-10.61,1.95-15.81.67-7.44,1.38-15.12,3.54-22.3,3.29-10.94,10-20.89,16.46-30.52,8-11.87,16.22-24.11,18.12-38.3l11.64,1A61.7,61.7,0,0,1,103.4,247.26Z"/><path class="cls-18" d="M34.72,306.4a126.09,126.09,0,0,1-9.69,27q-4.94-1.65-10-2.94a59.69,59.69,0,0,0,11.06-27.23C28.93,304.36,31.81,305.44,34.72,306.4Z"/><path class="cls-24" d="M60.72,312.2c-.33,3.15-.74,6.31-1.32,9.4a80.86,80.86,0,0,1-8.22,23.33,149.27,149.27,0,0,0-23.46-10.66l9.72-27A140.16,140.16,0,0,0,60.72,312.2Z"/><path class="cls-18" d="M78.77,313.55c-.06.79-.13,1.57-.21,2.35a92.83,92.83,0,0,1-13,38.29q-5.79-4.23-12-7.86a83.88,83.88,0,0,0,8.55-24.21c.59-3.17,1-6.39,1.35-9.59l1,.11C69.24,313.13,74,313.42,78.77,313.55Z"/><path class="cls-18" d="M58.88,241.67c-1.7,2.9-3.57,5.79-5.37,8.58l-1.68,2.61q-6.55-1.11-13.2-1.6c1.15-1.6,2.35-3.19,3.58-4.82,2.34-3.1,4.76-6.3,6.9-9.68A53.14,53.14,0,0,0,52.28,231q5.2,1.73,10.55,3.11A78.86,78.86,0,0,1,58.88,241.67Z"/><path class="cls-24" d="M81.78,251.91c-1.62,2.41-3.25,4.84-4.85,7.31a161.69,161.69,0,0,0-22.08-5.83l1-1.6c1.82-2.82,3.7-5.74,5.44-8.68a82.44,82.44,0,0,0,4.3-8.28,235,235,0,0,0,24.28,4.54C87.41,243.55,84.62,247.69,81.78,251.91Z"/><path class="cls-18" d="M107,241.27a59.13,59.13,0,0,1-3.57,6c-2.18,3.21-4.76,6.32-7.25,9.34-2.06,2.48-4.15,5-6.09,7.66q-5.13-2.2-10.37-4.09c1.47-2.25,3-4.47,4.45-6.68,3-4.49,6.07-9,8.81-13.71C97.61,240.37,102.29,240.85,107,241.27Z"/><path class="cls-5" d="M35.2,268.1a4.45,4.45,0,1,1,3.7,5.09,4.46,4.46,0,0,1-3.7-5.09"/><path class="cls-3" d="M37.1,267a1.37,1.37,0,1,1,1.14,1.57A1.37,1.37,0,0,1,37.1,267"/><path class="cls-5" d="M69.45,273.53a4.44,4.44,0,1,1,3.69,5.09,4.45,4.45,0,0,1-3.69-5.09"/><path class="cls-3" d="M71.34,272.44A1.38,1.38,0,1,1,72.48,274a1.37,1.37,0,0,1-1.14-1.57"/><path class="cls-5" d="M54.68,284.58a8.77,8.77,0,0,1-4.43-2,7.22,7.22,0,0,1-1.83-8.09,1.32,1.32,0,1,1,2.5.86C50,278,51,279.68,52,280.58a6.32,6.32,0,0,0,6.58.95c1.72-.83,2.57-2.48,2.44-4.8a1.32,1.32,0,0,1,1.25-1.38,1.3,1.3,0,0,1,1.38,1.24c.18,3.36-1.25,6-3.92,7.32a8.58,8.58,0,0,1-5.06.67"/><path class="cls-9" d="M30.83,274.49c.23-1.4,2.12-2.25,4.23-1.92s3.64,1.74,3.42,3.13-2.11,2.25-4.22,1.92-3.65-1.74-3.43-3.13"/><path class="cls-9" d="M72.76,281.14c.23-1.4,2.12-2.26,4.23-1.92s3.64,1.74,3.42,3.13-2.11,2.25-4.22,1.91-3.65-1.73-3.43-3.12"/><path class="cls-24" d="M160.8,216.27A89.53,89.53,0,0,1,129,276.08c-2,1.69-4.2,3.32-6.35,4.9l-2.41,1.77C113.72,287.5,107,292.41,102,299c-5.67,7.48-8.63,16.48-11.49,25.18-1.5,4.56-3,9.25-5,13.69q-.56,1.31-1.17,2.58A64.36,64.36,0,0,1,58,368.31a63.4,63.4,0,0,1-20.62,7.3,110.12,110.12,0,0,1-7-15.31A73.18,73.18,0,0,0,45.45,356a47.13,47.13,0,0,0,12.68-7.66c7.83-6.71,12.59-15.63,16.4-25,1.52-3.7,2.89-7.47,4.24-11.21,1.3-3.59,2.64-7.29,4.06-10.8a42.71,42.71,0,0,1,4.8-9.23c4.07-5.56,10.16-9.12,16.6-12.89,1.75-1,3.52-2.06,5.28-3.15,1.44-.9,2.87-1.84,4.25-2.83,10.67-7.66,18.11-18.3,23.63-29.91a174.09,174.09,0,0,0,10.11-28.33Q154.19,215.3,160.8,216.27Z"/><path class="cls-23" d="M201.31,228.06a128.86,128.86,0,0,1-43.63,69c-1.13.91-2.29,1.83-3.43,2.72l-.71.56c-4.73,3.68-9.61,7.48-13.45,12.28-6,7.5-9,16.75-11.89,25.7-1.11,3.42-2.25,7-3.54,10.31a82.26,82.26,0,0,1-8,15.85,63.8,63.8,0,0,1-10.34,12.19c-5.27,4.79-13.59,10.89-29.21,15.55a154.67,154.67,0,0,1-24.23,4.94,108.66,108.66,0,0,1-14.05-19,66.17,66.17,0,0,0,21.09-7.78,67,67,0,0,0,27-28.77l.69-1.47a147.56,147.56,0,0,0,5.6-15.14c2.92-8.88,5.68-17.26,11.06-24.36,4.74-6.25,11.29-11,17.63-15.67,1.22-.89,2.45-1.79,3.68-2.72,1.76-1.31,3.52-2.66,5.21-4.06a92.56,92.56,0,0,0,32.84-61.53A157.92,157.92,0,0,1,201.31,228.06Z"/><path class="cls-24" d="M216.2,235.36A141.34,141.34,0,0,1,207,272.73c-5.08,12.3-12,22.44-20.59,30.32A147.48,147.48,0,0,1,174,312.8l-3.11,2.28a98.31,98.31,0,0,0-13.41,11.48c-8.46,9.05-13.68,20.34-18.73,31.26-2.27,4.91-4.59,9.92-7.21,14.71A84.84,84.84,0,0,1,125,382.9c-9.07,12.12-22.72,20.88-37.62,24.76a67.49,67.49,0,0,1-20.5,2.14,101.87,101.87,0,0,1-11.61-10.09,145.9,145.9,0,0,0,23.53-5c10.37-3.22,20.83-8.14,29.38-15.92A66.32,66.32,0,0,0,119.05,366a85.48,85.48,0,0,0,8.25-16.3c1.31-3.43,2.47-7,3.59-10.45,2.81-8.71,5.72-17.71,11.4-24.8,3.64-4.54,8.39-8.24,13-11.83l1.24-1c1-.76,2-1.55,3-2.34a131.64,131.64,0,0,0,44.46-70Q210.07,232,216.2,235.36Z"/><path class="cls-5" d="M220.6,231.33c-24.85-13.85-49.42-21.1-75.11-22.17a2.84,2.84,0,0,0-2.85,2.09c-5.65,21-13.89,44.18-32.18,57.32-2.84,2-6,3.9-9.07,5.69-6.67,3.9-13.56,7.92-18.32,14.43a48.35,48.35,0,0,0-5.47,10.44c-1.47,3.61-2.83,7.37-4.14,11-4.53,12.54-9.21,25.5-19,33.87-6.69,5.73-15.93,9.42-28.26,11.27A2.84,2.84,0,0,0,23.93,359a113.59,113.59,0,0,0,40.3,55.9,2.87,2.87,0,0,0,1.48.54c1.51.1,3,.14,4.51.14,22.9,0,45.8-11.17,59.32-29.24,6-8,10.26-17.21,14.37-26.1,5.08-11,9.88-21.38,17.72-29.77,4.61-4.93,10-8.88,15.73-13.06a152.22,152.22,0,0,0,12.84-10.14c17.58-16.06,28.29-40.66,31.83-73.11A2.83,2.83,0,0,0,220.6,231.33ZM30.38,360.3c11.77-2.17,20.88-6.11,27.75-12,10.93-9.35,15.87-23,20.65-36.24,1.29-3.59,2.63-7.3,4.06-10.8a42.27,42.27,0,0,1,4.8-9.23c4.06-5.56,10.15-9.12,16.6-12.89,3.18-1.86,6.47-3.78,9.52-6,19.08-13.71,27.84-36.9,33.74-58.25q6.7.39,13.31,1.35A89.58,89.58,0,0,1,129,276.07c-2.81,2.32-5.84,4.54-8.76,6.68C113.72,287.5,107,292.41,102,299c-5.67,7.48-8.63,16.48-11.49,25.18a131.68,131.68,0,0,1-6.15,16.27,64.59,64.59,0,0,1-47,35.17A110.65,110.65,0,0,1,30.38,360.3Zm8.43,17.92a67.51,67.51,0,0,0,48.11-36.55,134.62,134.62,0,0,0,6.28-16.61c2.92-8.88,5.68-17.26,11.06-24.36,4.74-6.25,11.3-11,17.64-15.67,3-2.17,6-4.4,8.89-6.78a92.37,92.37,0,0,0,32.83-61.54,158.28,158.28,0,0,1,37.69,11.35,128.63,128.63,0,0,1-43.62,69c-1.36,1.11-2.78,2.22-4.15,3.28-4.72,3.69-9.6,7.49-13.45,12.29-6,7.5-9,16.75-11.89,25.7-1.11,3.42-2.25,7-3.54,10.31-4.44,11.57-10.62,21-18.36,28-7.51,6.82-21.21,16.32-53.44,20.49A108.16,108.16,0,0,1,38.81,378.22Zm147.58-75.17A145.47,145.47,0,0,1,174,312.79c-5.68,4.16-11.55,8.46-16.52,13.77-8.46,9.05-13.68,20.34-18.73,31.26-4,8.62-8.1,17.54-13.75,25.08C111.88,400.46,89.15,411,66.9,409.8a102,102,0,0,1-11.62-10.09c16-2.2,37.55-7,52.92-20.93,8.07-7.34,14.5-17.14,19.1-29.12,1.32-3.43,2.47-7,3.59-10.45,2.81-8.71,5.72-17.71,11.41-24.8,3.64-4.54,8.39-8.25,13-11.83,1.38-1.07,2.81-2.19,4.19-3.31a131.62,131.62,0,0,0,44.47-70q6.12,2.81,12.26,6.14C212.62,265.48,202.59,288.24,186.39,303.05Z"/><path class="cls-18" d="M58,368.31A173.48,173.48,0,0,0,45.45,356a47.13,47.13,0,0,0,12.68-7.66c7.83-6.71,12.59-15.63,16.4-25a137,137,0,0,0,11,14.59q-.56,1.31-1.17,2.58A64.36,64.36,0,0,1,58,368.31Z"/><path class="cls-24" d="M106.29,376.69c-5.27,4.79-13.59,10.89-29.21,15.55a248.88,248.88,0,0,0-17.19-21.8,67,67,0,0,0,27-28.77l.69-1.47a135.39,135.39,0,0,0,18.74,17.23q5,3.78,10.29,7.07A63.8,63.8,0,0,1,106.29,376.69Z"/><path class="cls-18" d="M131.56,372.53A84.84,84.84,0,0,1,125,382.9c-9.07,12.12-22.72,20.88-37.62,24.76-2.78-4.37-5.64-8.71-8.58-13,10.37-3.22,20.83-8.14,29.38-15.92A66.32,66.32,0,0,0,119.05,366,134.15,134.15,0,0,0,131.56,372.53Z"/><path class="cls-18" d="M129,276.08c-2,1.69-4.2,3.32-6.35,4.9q-6.43-2.81-13.12-5c1.44-.9,2.87-1.84,4.25-2.83,10.67-7.66,18.11-18.3,23.63-29.91q6.18,3.93,12.61,7.46A88.85,88.85,0,0,1,129,276.08Z"/><path class="cls-24" d="M185,266.27a128,128,0,0,1-27.33,30.81c-1.13.91-2.29,1.83-3.43,2.72a146.21,146.21,0,0,0-28.68-17.49c1.76-1.31,3.52-2.66,5.21-4.06a91.68,91.68,0,0,0,21.7-26.2A229.71,229.71,0,0,0,185,266.27Z"/><path class="cls-18" d="M207,272.73c-5.08,12.3-12,22.44-20.59,30.32A147.48,147.48,0,0,1,174,312.8l-3.11,2.28a144.45,144.45,0,0,0-14.4-13.47c1-.76,2-1.55,3-2.34a130.65,130.65,0,0,0,28.29-32.06Q197.24,270.39,207,272.73Z"/><path class="cls-9" d="M95.53,289.25c1-1.51,3.75-1.44,6,.15s3.29,4.1,2.24,5.61-3.76,1.44-6-.15-3.29-4.11-2.24-5.61"/><path class="cls-9" d="M140.92,320.84c1.05-1.51,3.76-1.44,6,.15s3.29,4.1,2.24,5.61-3.75,1.44-6-.15-3.29-4.1-2.24-5.61"/><path class="cls-5" d="M110.72,293.4a1.73,1.73,0,0,1-.56-2.18,3.24,3.24,0,0,0-5.1-3.83,1.72,1.72,0,0,1-2.33-2.52,6.68,6.68,0,0,1,10.51,7.88,1.73,1.73,0,0,1-2.31.78l-.21-.13"/><path class="cls-5" d="M147.55,319a1.73,1.73,0,0,1-.56-2.18,3.24,3.24,0,0,0-5.1-3.83,1.72,1.72,0,0,1-2.33-2.52,6.68,6.68,0,0,1,10.51,7.88,1.73,1.73,0,0,1-2.31.78l-.21-.13"/><path class="cls-10" d="M134.46,311.27a13,13,0,0,1-5.44,4.51,11.46,11.46,0,0,1-16.33-11.36,13,13,0,0,1,2.33-6.68,14.79,14.79,0,0,1,1.47-1.75l19.1,13.3a12.28,12.28,0,0,1-1.13,2"/><path class="cls-9" d="M129,315.78a11.46,11.46,0,0,1-16.33-11.36A14.68,14.68,0,0,1,129,315.78"/><path class="cls-15" d="M258.11,312.29c-4.64.34-9.37.88-13.94,1.42-6.6.76-13.44,1.56-20.23,1.74s-13.8-.21-20.55-.61c-15.41-.89-30-1.74-43.54,3.68-2.41,1-5.23,2.5-6.39,4.73,10.56,3.26,26.57,6,46.32,7.33,7.76.52,16.1.82,24.91.83,33,.08,59.42-3.78,73.69-8.63-.8-3.68-5.74-6-7.36-6.67C282.28,312.5,271.82,311.29,258.11,312.29Z"/><path class="cls-25" d="M150.09,322.13c1.24-2.81,4.1-5.16,8.45-6.89,14.31-5.71,29.94-4.8,45.06-3.92,6.67.38,13.58.78,20.24.6s13.39-1,19.92-1.72c4.61-.54,9.38-1.09,14.1-1.44,14.27-1,25.24.26,34.51,4.08,5.09,2.1,8.37,5.19,9.35,8.7,4.13-1.69,6.83-3.47,7.83-5.22a1.87,1.87,0,0,0,.31-1c0-1.94-4.9-6.7-23.52-10.78-16.41-3.6-38.28-5.6-61.58-5.66s-45.18,1.87-61.61,5.39c-7.73,1.66-14,3.66-18.18,5.78-5,2.55-5.38,4.39-5.38,4.9a2,2,0,0,0,.3,1C141.07,318,144.59,320.15,150.09,322.13Z"/><path class="cls-25" d="M128.93,416.09c-2.08,1.2-3,2.24-3,3,0,.06.74,5.39,27.36,10.27,19,3.49,44.25,5.44,71.17,5.5s52.2-1.79,71.2-5.18c26.64-4.77,27.4-10.1,27.4-10.15,0-.76-1-1.87-3.3-3.15-15.44,7.12-52.87,11.83-95.15,11.83C181.85,428.17,144,423.36,128.93,416.09Z"/><path class="cls-1" d="M345.42,358.1a31.28,31.28,0,0,1-11.11,12.6,27,27,0,0,1-26,2.22,2.8,2.8,0,0,0,.09-.59,9.11,9.11,0,0,1,10.24-8.66,22.07,22.07,0,0,1,2.8.63,20.4,20.4,0,0,0,4.86.87,12.9,12.9,0,0,0,10.65-5.53,15.37,15.37,0,0,0,2.42-11.37,11.28,11.28,0,0,0-5.25-8.19c-3.93-2.19-9-1.24-14.31,2.66l-.5.37a11.72,11.72,0,0,1-3.06,1.86,2.62,2.62,0,0,1-1.28.08,81.88,81.88,0,0,0,.52-9v-3.09a1.76,1.76,0,0,0,.09-.2,8.08,8.08,0,0,1,3.45-3.85c3.74-2.41,9.73-3.72,15.35-3,5,.65,13.42,3.38,14.33,14.31A34.27,34.27,0,0,1,345.42,358.1Z"/><path class="cls-1" d="M309.84,323.67l0,12.33A77.21,77.21,0,0,1,232.52,413l-16,0c-2.61,0-5.2-.14-7.74-.4a77.22,77.22,0,0,1-69.21-76.89l0-12.33.13.08c.39.26.8.52,1.23.77l.1.05c.42.25.87.49,1.33.73l.17.09c.46.24.95.48,1.44.71l.29.13,1.52.67.29.11c.55.23,1.11.45,1.69.67l.09,0,1.74.63.29.1,1.82.59.39.12,1.89.56.36.11,2,.55.11,0,2.11.53.39.09,2.11.49.49.11,2.19.46.41.09,2.21.43.22,0,2.37.43.5.09c.77.13,1.56.27,2.35.39l.54.09,2.43.37.42.06,2.38.34.32.05,2.56.33.54.07,2.54.3.56.06,2.63.29.37,0,2.55.26.37,0q1.35.14,2.7.24l.55.05,2.67.21.55,0,2.76.2.27,0,2.71.17.39,0c.92.06,1.83.11,2.76.15l.56,0,2.73.13.5,0,2.85.11h.13l2.81.09h.4l2.76.06h.53l2.74,0h.42l2.86,0H228c.91,0,1.83,0,2.74,0h.53l2.76,0h.4l2.81-.07h.14l2.84-.09.5,0,2.73-.12.57,0,2.75-.14.41,0,2.68-.16.29,0c.92-.05,1.83-.12,2.75-.18l.56,0,2.65-.2.59-.05,2.67-.22.41,0,2.49-.24.41,0c.87-.08,1.74-.17,2.59-.27l.61-.06,2.5-.29.59-.07,2.51-.32.4,0,2.27-.31.5-.07,2.36-.35.63-.1,2.27-.37.6-.1,2.22-.4.42-.07,2-.39.53-.11,2.09-.43.6-.13,2-.46.52-.12,1.88-.47.4-.1,1.8-.48.49-.14,1.79-.52.51-.16c.58-.18,1.16-.36,1.72-.55l.41-.14c.52-.18,1-.36,1.54-.55l.28-.1.85-.32.71-.29c.13-.05.27-.1.39-.16.5-.2,1-.41,1.45-.62l.38-.17,1.36-.66.27-.14c.41-.21.81-.43,1.2-.65l.19-.11c.41-.24.8-.48,1.18-.73Z"/><path class="cls-1" d="M232.51,418.6l-16,0a82.18,82.18,0,0,1-43.33-12.39c-20.45,2.15-33,5.22-39.93,7.94,16.1,6.29,52.13,10.53,91.39,10.53,38.76,0,74.38-4.14,90.77-10.3-7-2.7-19.45-5.75-39.48-7.94A82.37,82.37,0,0,1,232.51,418.6Z"/><path class="cls-5" d="M335.11,320.28c-7.35-1-14.72.78-19.62,4.18l0-6.72a2.83,2.83,0,0,0-.17-.92,7.19,7.19,0,0,0,.17-1.46c0-16.07-54.24-22-90.74-22.1S134,298.9,133.93,315a7.17,7.17,0,0,0,.17,1.45,2.84,2.84,0,0,0-.17.93l0,18.26a82.69,82.69,0,0,0,32.22,65.68c-12.07,1.5-22.29,3.48-29.85,5.78-10.74,3.28-16,7.19-16,12,0,3.77,3.15,7,9.66,9.77,5.3,2.29,12.81,4.33,22.33,6.07,19.3,3.54,44.93,5.53,72.18,5.59s52.89-1.81,72.2-5.27c7.93-1.42,32-5.73,32.06-15.7,0-4.78-5.2-8.72-15.93-12-7.54-2.34-17.76-4.36-29.83-5.92a83.3,83.3,0,0,0,21.37-24.28A31.91,31.91,0,0,0,319.1,381a33.48,33.48,0,0,0,18.28-5.5c11.66-7.53,18.16-21.21,16.95-35.72C353.43,329,346.25,321.76,335.11,320.28Zm-21,30.36a8.06,8.06,0,0,0,3.81-.29,15.91,15.91,0,0,0,4.71-2.71l.47-.35c1.6-1.17,5.58-3.74,8.22-2.27a5.86,5.86,0,0,1,2.42,4.2,9.66,9.66,0,0,1-1.47,7.16,7.29,7.29,0,0,1-5.89,3.14,16.31,16.31,0,0,1-3.53-.68,26.59,26.59,0,0,0-3.56-.77,14.8,14.8,0,0,0-7.15.89A81.88,81.88,0,0,0,314.14,350.64ZM145,310.08c4.16-2.12,10.45-4.12,18.18-5.78,16.43-3.52,38.31-5.44,61.61-5.39s45.17,2.06,61.58,5.66c18.62,4.08,23.52,8.84,23.52,10.78a1.87,1.87,0,0,1-.31,1c-1,1.75-3.7,3.53-7.83,5.22-1-3.51-4.26-6.6-9.35-8.7-9.27-3.82-20.24-5.12-34.51-4.08-4.72.35-9.49.9-14.1,1.44-6.53.76-13.28,1.54-19.92,1.72s-13.57-.22-20.24-.6c-15.12-.88-30.75-1.79-45.06,3.92-4.35,1.73-7.21,4.08-8.45,6.89-5.5-2-9-4.11-10.2-6.18a2,2,0,0,1-.3-1C139.59,314.47,140,312.63,145,310.08Zm153.41,12.7c-14.27,4.85-40.68,8.71-73.69,8.63-8.81,0-17.15-.31-24.91-.83-19.75-1.32-35.76-4.07-46.32-7.33,1.16-2.23,4-3.77,6.39-4.73,13.58-5.42,28.13-4.57,43.54-3.68,6.75.4,13.74.8,20.55.61s13.63-1,20.23-1.74c4.57-.54,9.3-1.08,13.94-1.42,13.71-1,24.17.21,32.91,3.82C292.64,316.77,297.58,319.1,298.38,322.78Zm24.68,96.71c0,.05-.76,5.38-27.4,10.15-19,3.39-44.28,5.23-71.2,5.18s-52.19-2-71.17-5.5c-26.62-4.88-27.36-10.21-27.36-10.27,0-.72.92-1.76,3-3,15.1,7.27,52.92,12.08,95.68,12.08,42.28,0,79.71-4.71,95.15-11.83C322.06,417.62,323.06,418.73,323.06,419.49Zm-7.68-5.15c-16.39,6.16-52,10.3-90.77,10.3-39.26,0-75.29-4.24-91.39-10.53,7-2.72,19.48-5.79,39.93-7.94a82.18,82.18,0,0,0,43.33,12.39l16,0a82.37,82.37,0,0,0,43.39-12.2C295.93,408.59,308.34,411.64,315.38,414.34Zm-82.86-1.4-16,0a77.21,77.21,0,0,1-77-77.29l0-12.33.12.08c.4.26.81.51,1.24.77l.09.05c.43.25.87.49,1.33.73l.18.09c.46.24.94.47,1.44.71l.28.13,1.53.66.28.12c.55.23,1.11.45,1.69.67l.09,0,1.75.63.29.1,1.81.59.39.12,1.89.56.37.11,2,.55.12,0,2.1.53.4.09,2.11.49.49.11,2.18.46.41.09,2.22.43.21,0,2.37.43.5.09,2.35.39.54.09,2.44.37.41.06,2.38.34.33,0,2.56.34.54.07,2.53.3.57.06,2.62.29.37,0,2.56.26.37,0,2.69.24.56.05c.88.07,1.77.15,2.67.21l.54,0,2.77.2.26,0,2.72.17.38,0,2.76.15.57,0,2.72.13.51,0,2.84.11h.14l2.81.08.4,0,2.76.06h.52l2.74,0h.43l2.85,0H228l2.74,0h.52l2.77,0h.39l2.81-.08h.14l2.84-.09.51,0,2.73-.12.56,0,2.76-.14.4,0,2.68-.16.29,0,2.75-.18.57,0,2.64-.2.6-.05,2.66-.23.41,0,2.5-.24.41,0,2.59-.27.6-.06,2.5-.29.6-.07,2.51-.32.39,0,2.28-.31.5-.07,2.35-.35.64-.1,2.27-.37.59-.1,2.23-.4.41-.07,2-.39.53-.11,2.09-.43.6-.13,2-.46.52-.12,1.88-.47.39-.1,1.8-.48.5-.14c.61-.17,1.2-.35,1.79-.53l.5-.15c.59-.18,1.16-.36,1.72-.55l.41-.14,1.55-.55.28-.1c.53-.2,1.05-.4,1.56-.61l.39-.16c.5-.2,1-.41,1.45-.62l.37-.17,1.37-.66.26-.14c.42-.22.82-.43,1.21-.65l.18-.11c.41-.24.8-.48,1.18-.73l.16-.1,0,12.34A77.19,77.19,0,0,1,232.52,412.94Zm101.8-42.24a27,27,0,0,1-26,2.22,3.82,3.82,0,0,0,.09-.59,9.09,9.09,0,0,1,10.23-8.66,20.59,20.59,0,0,1,2.81.63,20.31,20.31,0,0,0,4.86.87,12.9,12.9,0,0,0,10.64-5.53,15.38,15.38,0,0,0,2.42-11.38,11.29,11.29,0,0,0-5.24-8.18c-3.93-2.19-9-1.24-14.32,2.66l-.5.37a11.68,11.68,0,0,1-3,1.86,2.63,2.63,0,0,1-1.28.08,84.4,84.4,0,0,0,.52-9v-3.09c0-.07.07-.13.1-.2,1.68-4.66,10.64-7.91,18.8-6.83,5,.65,13.41,3.38,14.33,14.31C349.73,352.62,344.22,364.31,334.32,370.7Z"/><path class="cls-25" d="M309.84,323.67l0,12.33A77.21,77.21,0,0,1,232.52,413l-16,0c-2.61,0-5.2-.14-7.74-.4,2.5-.4,70.5-2.4,86.5-48.4,5.48-15.75,7.3-27.78,7.3-36.82l.71-.29c.13-.05.27-.1.39-.16.5-.2,1-.41,1.45-.62l.38-.17,1.36-.66.27-.14c.41-.21.81-.43,1.2-.65l.19-.11c.41-.24.8-.48,1.18-.73Z"/><path class="cls-3" d="M153,346.39c-.36-.73-.75-1.44-1.06-2.2-.14-.35-.26-.7-.38-1.06-.06-.19-.11-.38-.17-.57a4.26,4.26,0,0,0-.69-1.38l-.24-.39c-.34-.84-.69-1.68-1-2.53a2,2,0,0,0-2-1.3,2.4,2.4,0,0,0-.93.32,1.53,1.53,0,0,0-.53.57,1.33,1.33,0,0,0-.29.69l-.07.11c-.29,1.27-.57,2.54-.85,3.81a5.17,5.17,0,0,0,0,1.71c0,.28.11.55.17.83.14.55.29,1.1.47,1.64a13.71,13.71,0,0,0,1.24,2.93,3.66,3.66,0,0,0,2,1.74,3.5,3.5,0,0,0,4.2-4.92Z"/><path class="cls-3" d="M178.05,389a49.64,49.64,0,0,1-6.37-5.57c-3.26-3.32-5.8-7.35-8.45-11.17a61.19,61.19,0,0,1-4.34-7.27c-.64-1.27-1.26-2.55-1.8-3.87s-1-3.19-2-4.42a3,3,0,0,0-4.53-.23,2.86,2.86,0,0,0-.85,2.12,2.16,2.16,0,0,0,.2,1.14,3.54,3.54,0,0,0,.44.73c-.38-.34-.48-.33-.31.05l.21.53.36.89c.42,1,.87,2,1.33,2.93.58,1.2,1.21,2.38,1.88,3.53a44.29,44.29,0,0,0,15.3,16.78,75.39,75.39,0,0,0,8.08,5.12A.78.78,0,0,0,178.05,389Z"/><path class="cls-25" d="M345.42,358.1a31.28,31.28,0,0,1-11.11,12.6,27,27,0,0,1-26,2.22,2.8,2.8,0,0,0,.09-.59,9.11,9.11,0,0,1,10.24-8.66,22.07,22.07,0,0,1,2.8.63,20.4,20.4,0,0,0,4.86.87,12.9,12.9,0,0,0,10.65-5.53,15.37,15.37,0,0,0,2.42-11.37,11.28,11.28,0,0,0-5.25-8.19c-3.93-2.19-9-1.24-14.31,2.66l-.5.37a11.72,11.72,0,0,1-3.06,1.86,2.62,2.62,0,0,1-1.28.08,81.88,81.88,0,0,0,.52-9v-3.09a1.76,1.76,0,0,0,.09-.2,8.08,8.08,0,0,1,3.45-3.85,5.75,5.75,0,0,0,1.68,3.63c2.09,2,5.29,2.27,8.2,2.17s6-.41,8.59.88,4.18,3.79,5.35,6.36A31.9,31.9,0,0,1,345.42,358.1Z"/><path class="cls-9" d="M189.11,367c0-1.84,2.26-3.33,5-3.33s5,1.49,5,3.33-2.26,3.33-5,3.33-5-1.49-5-3.33"/><path class="cls-9" d="M244.42,367c0-1.84,2.26-3.33,5-3.33s5,1.49,5,3.33-2.26,3.33-5,3.33-5-1.49-5-3.33"/><path class="cls-5" d="M199.07,361.71a6.84,6.84,0,0,1-6.54-5.24,1.7,1.7,0,0,1,1.3-2,1.72,1.72,0,0,1,2,1.3,3.24,3.24,0,0,0,6.37-.23,1.72,1.72,0,1,1,3.4.5,6.85,6.85,0,0,1-6.36,5.7h-.22"/><path class="cls-5" d="M243.94,361.71a6.84,6.84,0,0,1-6.54-5.24,1.72,1.72,0,0,1,3.35-.74,3.24,3.24,0,0,0,6.37-.23,1.72,1.72,0,0,1,3.4.5,6.85,6.85,0,0,1-6.36,5.7h-.22"/><path class="cls-5" d="M221.75,366.33a14.49,14.49,0,0,1-8.83-3,1.73,1.73,0,0,1-.3-2.41,1.71,1.71,0,0,1,2.41-.3,11,11,0,0,0,6.83,2.3,10.42,10.42,0,0,0,6.41-2.29,1.66,1.66,0,0,1,1.31-.63,1.77,1.77,0,0,1,1.64,1.11,1.71,1.71,0,0,1-.44,1.89,13.55,13.55,0,0,1-8.89,3.35h-.14"/><path class="cls-26" d="M219.48,284a22.08,22.08,0,0,0,8.79-24.58c-1.64-5.08-5.09-9.35-7.47-14.13s-3.59-10.8-.68-15.28c-5.12,3.18-6.65,10.12-5.72,16.07s3.78,11.43,5.51,17.2a34,34,0,0,1-.43,20.72"/><path class="cls-26" d="M210.07,284.59A16.6,16.6,0,0,0,213,268.34c-1.18-3.22-3.34-6-5-8.95s-2.89-6.53-2-9.82c-1.57,4.58-3.17,9.44-2.14,14.18.69,3.19,2.53,6,4,8.93a21.29,21.29,0,0,1,2.2,11.91"/><path class="cls-26" d="M232.86,252.46a19.48,19.48,0,0,0-2-21A56.25,56.25,0,0,0,229.74,242a19.21,19.21,0,0,0,3.12,10.49"/><path class="cls-27" d="M427.65,348.66a9,9,0,0,0-8.13.51c-3.7,2.22-5.9,6.48-7.4,9.95-1,2.26-2.8,6.46-6.65,6.85a6.7,6.7,0,0,1-6.24-3.66,17.93,17.93,0,0,1-1.76-5.31l-.18-.81a15.32,15.32,0,0,0-2.34-5.85,5.81,5.81,0,0,0-4.68-2.54,3.36,3.36,0,0,0-3.1,2.62c-.12,21.2.19,41.71.93,61.91a2.82,2.82,0,0,1-1.94,2.79,2.17,2.17,0,0,0-1.41,1.05,1.67,1.67,0,0,0,.19,1.39c.82,1.41,2.55,2.39,4.55,3.44a364.69,364.69,0,0,0,38.69,17.39A20.15,20.15,0,0,1,430,422.75C428.28,398.44,427.5,373.92,427.65,348.66Z"/><path class="cls-28" d="M411.4,273a148.4,148.4,0,0,0-21,23.47,264.41,264.41,0,0,0,37.13,6.91C422.2,292.49,417,282.71,411.4,273Z"/><path class="cls-29" d="M564.32,305.14c-5.67-11.62-11-23.17-16.66-35.95a1228.92,1228.92,0,0,0-130.24,2.9c5.51,9.67,10.64,19.43,15.95,30.27C476.86,301.47,520.88,302.41,564.32,305.14Z"/><path class="cls-29" d="M548.07,263.55c.13-.93.17-1.67.21-2.47a6.67,6.67,0,0,0,0-1.27c-.15-.9-1.11-1.84-2.2-2.74-12.89-1.49-23.7-2.44-34-3-31.87-1.62-64.29.63-95.69,2.87-2.12,3.21-2.47,6.22-2.35,9.71A1232.94,1232.94,0,0,1,548.07,263.55Z"/><path class="cls-28" d="M397.21,348.65a17.9,17.9,0,0,1,2.84,6.91l.18.84a15.34,15.34,0,0,0,1.45,4.5c.71,1.23,2.07,2.4,3.51,2.26,2-.2,3.3-2.77,4.34-5.17,1.67-3.85,4.15-8.61,8.53-11.24a11.92,11.92,0,0,1,9.61-1.13c.11-12,.4-24.1.92-36.48a270.36,270.36,0,0,1-40.43-7.45c-.52,15.13-.84,29.82-1,44.2a6.35,6.35,0,0,1,2.92-.91A8.62,8.62,0,0,1,397.21,348.65Z"/><path class="cls-29" d="M566,310.91c-.38,14-.76,28.13-1.12,42.33a5,5,0,0,1-.23-.84c-.08-.42-.14-.86-.19-1.29-.26-1.92-.56-4.1-2.22-5.61a5.19,5.19,0,0,0-4.21-1.25,8,8,0,0,0-5.49,3.43,18.9,18.9,0,0,0-2.33,6.09c-.24.91-.46,1.77-.73,2.6-.76,2.29-2.38,4.78-4.68,4.94s-4.23-2.16-4.9-4.43a22.56,22.56,0,0,1-.62-5.54c0-1-.07-2.13-.18-3.21-.24-2.45-1.2-6.84-4.87-8.77-3.36-1.76-6.82-.54-10.17.63-2.58.91-5,1.76-7.25,1.27a13.6,13.6,0,0,1-4.62-2.51c-2.1-1.5-4.27-3.05-7.06-3.06h0c-3.38,0-6.07,2.32-8.44,4.37s-4.55,3.93-6.93,3.32c-1.38-.35-2.56-1.54-3.8-2.79-1.63-1.64-3.48-3.5-6.15-3.58s-4.85,1.87-6.63,3.6c-1.46,1.41-2.84,2.75-4.43,2.87-1.3.11-2.6-.61-4-1.37a11.85,11.85,0,0,0-4.62-1.74c-4.18-.41-7.44,3.08-8.71,6.48a27.51,27.51,0,0,0-1.3,6.85c-.11,1-.22,2.09-.38,3.1l-.06.36c-.45,2.45-1.49,5.5-4,6.83-3.1,1.67-7.24-.28-9.29-3.05a20.41,20.41,0,0,1-3.19-8.33c0-14.57.37-29.37,1-44.54V308C478.06,307.13,522.35,308.11,566,310.91Z"/><path class="cls-3" d="M563.85,430.23a7.09,7.09,0,0,1,.25,3.5,9.47,9.47,0,0,1-2.42,2.69q-6.9.49-13.85.75c-14,.56-28.16.49-41.94.43-23.3-.12-47.38-.22-70.74,2.65h0a14.22,14.22,0,0,1,.13-15.2,2.85,2.85,0,0,0,.47-1.77c-1.5-20.42-2.31-41-2.45-62,.27.46.57.92.89,1.36a11.83,11.83,0,0,0,9,4.8,8.07,8.07,0,0,0,3.86-.95,10.06,10.06,0,0,0,4.43-5.35,17.46,17.46,0,0,0,1.05-3.88c.18-1.09.29-2.19.4-3.26a24.73,24.73,0,0,1,1.14-6.16c.93-2.5,3.23-4.89,5.79-4.65a9.74,9.74,0,0,1,3.53,1.41c1.61.88,3.44,1.87,5.57,1.71,2.61-.2,4.5-2,6.18-3.66s2.94-2.84,4.58-2.8,2.78,1.29,4.22,2.74,3,3,5.1,3.54c3.81,1,6.83-1.62,9.49-3.92a27.52,27.52,0,0,1,3.24-2.55,6.37,6.37,0,0,1,3.35-1.13c1.89,0,3.61,1.23,5.43,2.53a15.79,15.79,0,0,0,5.65,3c3,.66,6-.37,8.79-1.36,3-1.06,5.66-2,7.93-.79,2.59,1.36,3.22,5,3.37,6.54.1,1,.13,2,.16,3a24.86,24.86,0,0,0,.74,6.24c1,3.42,4,6.73,7.81,6.46s6.12-3.72,7.16-6.87c.31-.93.55-1.88.78-2.79a16.83,16.83,0,0,1,1.95-5.22,5.23,5.23,0,0,1,3.48-2.2,2.37,2.37,0,0,1,2,.54c.9.82,1.1,2.31,1.32,3.89.06.48.12.95.21,1.41a7.19,7.19,0,0,0,2.82,4.66l.08,0c-.58,23-1.11,46-1.48,68.81A18,18,0,0,0,563.85,430.23Z"/><path class="cls-5" d="M571.47,306.89c-6.34-12.85-12.21-25.42-18.42-39.49a28.67,28.67,0,0,0,.88-6,11.22,11.22,0,0,0-.08-2.48c-.55-3.32-3.26-5.47-4.88-6.75a2.84,2.84,0,0,0-1.42-.59C534.17,250,523,249,512.4,248.47c-32.67-1.67-65.73.69-97.7,3a2.83,2.83,0,0,0-2,1.1c-4.37,5.69-4.45,11.18-4.19,15.46a158,158,0,0,0-25.35,28.92,2.85,2.85,0,0,0-.51,1.52c-1.42,39.76-1.5,76.51-.22,112.25a7.11,7.11,0,0,0-2.93,3.5,7.33,7.33,0,0,0,.6,6.24c1.59,2.7,4.13,4.18,6.82,5.59a368.69,368.69,0,0,0,45.5,20,2.85,2.85,0,0,0,1,.17l.37,0c23.67-3.11,48.32-3,72.16-2.88,18.75.08,38.13.18,57.21-1.27a2.86,2.86,0,0,0,1.71-.74l.67-.62c1.71-1.55,3.18-2.9,3.94-4.91.89-2.4.41-4.67,0-6.67a14.23,14.23,0,0,1-.41-2.6c.65-39.17,1.74-79.36,2.79-118.22A2.9,2.9,0,0,0,571.47,306.89ZM416.42,257c31.4-2.24,63.82-4.49,95.69-2.87,10.27.52,21.08,1.47,34,3,1.09.9,2,1.84,2.2,2.74a6.67,6.67,0,0,1,0,1.27c0,.8-.08,1.54-.21,2.47a1232.94,1232.94,0,0,0-134,3.14C414,263.2,414.3,260.19,416.42,257Zm-5,16c5.6,9.75,10.8,19.53,16.14,30.38a264.41,264.41,0,0,1-37.13-6.91A148.4,148.4,0,0,1,411.4,273Zm-23.24,28.73a270.36,270.36,0,0,0,40.43,7.45c-.52,12.38-.81,24.51-.92,36.48a11.92,11.92,0,0,0-9.61,1.13c-4.38,2.63-6.86,7.39-8.53,11.24-1,2.4-2.32,5-4.34,5.17-1.44.14-2.8-1-3.51-2.26a15.34,15.34,0,0,1-1.45-4.5l-.18-.84a17.9,17.9,0,0,0-2.84-6.91,8.62,8.62,0,0,0-7.09-3.67,6.35,6.35,0,0,0-2.92.91C387.32,331.51,387.64,316.82,388.16,301.69Zm40,136.7A364.69,364.69,0,0,1,389.49,421c-2-1.05-3.73-2-4.55-3.44a1.67,1.67,0,0,1-.19-1.39,2.17,2.17,0,0,1,1.41-1.05,2.82,2.82,0,0,0,1.94-2.79c-.74-20.2-1.05-40.71-.93-61.91a3.36,3.36,0,0,1,3.1-2.62,5.81,5.81,0,0,1,4.68,2.54,15.32,15.32,0,0,1,2.34,5.85l.18.81a17.93,17.93,0,0,0,1.76,5.31,6.7,6.7,0,0,0,6.24,3.66c3.85-.39,5.67-4.59,6.65-6.85,1.5-3.47,3.7-7.73,7.4-9.95a9,9,0,0,1,8.13-.51c-.15,25.26.63,49.78,2.39,74.09A20.15,20.15,0,0,0,428.18,438.39Zm-10.76-166.3a1228.92,1228.92,0,0,1,130.24-2.9c5.64,12.78,11,24.33,16.66,35.95-43.44-2.73-87.46-3.67-131-2.78C428.06,291.52,422.93,281.76,417.42,272.09ZM563.32,426.4a18.63,18.63,0,0,0,.53,3.83,7,7,0,0,1,.25,3.5,9.32,9.32,0,0,1-2.42,2.69c-18.54,1.35-37.47,1.26-55.78,1.17-23.31-.11-47.38-.21-70.75,2.66h0a14.22,14.22,0,0,1,.12-15.2,2.8,2.8,0,0,0,.47-1.78c-1.49-20.41-2.31-41-2.45-62a14.53,14.53,0,0,0,.9,1.36,11.81,11.81,0,0,0,9,4.8,8.11,8.11,0,0,0,3.87-.95c3.61-1.94,5-6.09,5.47-9.23.18-1.09.29-2.2.4-3.26a25.1,25.1,0,0,1,1.15-6.16c.93-2.5,3.22-4.89,5.79-4.65a9.81,9.81,0,0,1,3.53,1.41c1.61.88,3.43,1.87,5.56,1.71,2.61-.2,4.51-2,6.18-3.66s2.94-2.84,4.58-2.81,2.79,1.3,4.23,2.75,3,3,5.1,3.54c3.81,1,6.82-1.62,9.48-3.92,2.2-1.89,4.27-3.68,6.59-3.68h0c1.89,0,3.61,1.23,5.42,2.53a16,16,0,0,0,5.65,3c3,.66,6-.37,8.79-1.36,3-1.07,5.66-2,7.93-.79,2.59,1.35,3.22,5,3.38,6.54.09,1,.12,2,.16,3a24.84,24.84,0,0,0,.73,6.24c1,3.41,4,6.73,7.82,6.46s6.11-3.72,7.15-6.87c.31-.93.55-1.88.79-2.8a16.85,16.85,0,0,1,1.94-5.21,5.28,5.28,0,0,1,3.48-2.2,2.36,2.36,0,0,1,2,.54c.9.82,1.11,2.31,1.32,3.89q.09.72.21,1.41a7.24,7.24,0,0,0,2.83,4.66l.07,0C564.22,380.55,563.7,403.63,563.32,426.4Zm1.59-73.16a5,5,0,0,1-.23-.84c-.07-.43-.13-.86-.19-1.3-.26-1.91-.55-4.09-2.22-5.6a5.22,5.22,0,0,0-4.21-1.26,8.12,8.12,0,0,0-5.49,3.44,19.13,19.13,0,0,0-2.33,6.09c-.23.91-.45,1.77-.73,2.6-.76,2.28-2.38,4.78-4.67,4.94s-4.24-2.16-4.91-4.44a22.43,22.43,0,0,1-.62-5.53c0-1-.07-2.13-.17-3.21-.25-2.45-1.2-6.84-4.87-8.77-3.36-1.76-6.83-.54-10.18.63-2.58.9-5,1.76-7.25,1.26a13.35,13.35,0,0,1-4.61-2.5c-2.1-1.5-4.27-3.05-7.07-3.06h0c-3.37,0-6.06,2.32-8.43,4.37s-4.56,3.93-6.94,3.32c-1.38-.36-2.55-1.54-3.8-2.79-1.63-1.64-3.47-3.5-6.15-3.58s-4.84,1.87-6.62,3.6c-1.46,1.41-2.84,2.75-4.44,2.87-1.29.11-2.6-.61-4-1.37a11.81,11.81,0,0,0-4.61-1.74c-4.19-.41-7.45,3.07-8.71,6.48a27,27,0,0,0-1.31,6.85c-.1,1-.21,2.09-.38,3.09-.4,2.52-1.43,5.8-4,7.2-3.1,1.66-7.24-.29-9.3-3.05a20.55,20.55,0,0,1-3.19-8.33c0-14.59.37-29.42,1-44.61,43.76-.87,88.05.11,131.73,2.91C565.65,324.89,565.27,339,564.91,353.24Z"/><path class="cls-28" d="M436.45,360.94a20.41,20.41,0,0,1-3.19-8.33c0-14.57.37-29.37,1-44.54a237.42,237.42,0,0,0,15.42,49.09c-.45,2.45-1.49,5.5-4,6.83C442.64,365.66,438.5,363.71,436.45,360.94Z"/><path class="cls-27" d="M547.83,437.17c-14,.56-28.16.49-41.94.43-23.3-.12-47.38-.22-70.74,2.65h0a14.22,14.22,0,0,1,.13-15.2,2.85,2.85,0,0,0,.47-1.77c-1.5-20.42-2.31-41-2.45-62,.27.46.57.92.89,1.36a11.83,11.83,0,0,0,9,4.8,8.07,8.07,0,0,0,3.86-.95,10.06,10.06,0,0,0,4.43-5.35C467.54,395.45,496.61,432.8,547.83,437.17Z"/><path class="cls-5" d="M475,361.23a5.8,5.8,0,1,1,5.79,5.8,5.8,5.8,0,0,1-5.79-5.8"/><path class="cls-3" d="M477.21,359.44a1.79,1.79,0,1,1,1.79,1.79,1.79,1.79,0,0,1-1.79-1.79"/><path class="cls-5" d="M520.16,361.23A5.8,5.8,0,1,1,526,367a5.8,5.8,0,0,1-5.8-5.8"/><path class="cls-3" d="M522.38,359.44a1.79,1.79,0,1,1,1.79,1.79,1.79,1.79,0,0,1-1.79-1.79"/><path class="cls-9" d="M470.68,370.34c0-1.84,2.26-3.33,5-3.33s5,1.49,5,3.33-2.26,3.32-5,3.32-5-1.48-5-3.32"/><path class="cls-9" d="M526,370.34c0-1.84,2.26-3.33,5-3.33s5,1.49,5,3.33-2.25,3.32-5,3.32-5-1.48-5-3.32"/><path class="cls-10" d="M515.22,365.38a13.11,13.11,0,0,1-1.89,6.81,11.47,11.47,0,0,1-19.9,0,13,13,0,0,1-1.69-9.08H515a13,13,0,0,1,.21,2.27"/><path class="cls-9" d="M513.33,372.19a11.47,11.47,0,0,1-19.9,0,14.7,14.7,0,0,1,19.9,0"/></g></svg>