<svg id="Layer_1" data-name="Layer 1" xmlns="http://www.w3.org/2000/svg" viewBox="0 0 496.3 574.36"><defs><style>.cls-1{fill:#231f20;}.cls-2{fill:#be1e2d;}.cls-3{fill:#c57529;}.cls-4{fill:#f9c98a;}.cls-5{fill:#fff;}.cls-6{fill:#8ecfb1;}.cls-7{fill:#f38391;}.cls-8{fill:#f15a29;}</style></defs><title>red-queen-head</title><path class="cls-1" d="M221.82,574.36a27.51,27.51,0,0,1-18.12-6.75C143.18,511.32,73.69,484.26,73,484l-4.89-1.86A8.76,8.76,0,0,1,67.59,466l4.78-2.18a185.29,185.29,0,0,1,77.25-17h.87l-.09-.11C101.27,435.13,71.26,419.84,58.72,400c-2.87-4.54-3.52-9.52-1.83-14a15.47,15.47,0,0,1,5.23-7c-25.35-23.41-41.55-50.09-48.22-79.48-1.15-5.07-2.13-10.25-2.93-15.44a24.91,24.91,0,0,1-9.41-19.4,24.52,24.52,0,0,1,2.2-10.16A22.38,22.38,0,0,1,3.57,230a24.6,24.6,0,0,1-.65-24.39A28.15,28.15,0,0,1,0,193.14a29.18,29.18,0,0,1,10.19-21.76,35.11,35.11,0,0,1-1.73-10.84c0-21.64,20-39.24,44.62-39.24,1,0,1.92,0,2.88.08C67.65,107,77,99.24,77.45,98.89l.63-.52a8.72,8.72,0,0,1,5.57-2h.28l.82,0a352.12,352.12,0,0,1,40.64,4.44,47.51,47.51,0,0,1,31.86-11.71A48.2,48.2,0,0,1,186.8,99l-9.09-88.52a8.77,8.77,0,0,1,6.48-9.37,8.67,8.67,0,0,1,2.24-.29,8.79,8.79,0,0,1,8,5.24L225,75.6l16-63.32a8.77,8.77,0,0,1,8.46-6.62h0A8.77,8.77,0,0,1,258,12.21l16.44,62.64L305,5.24a8.77,8.77,0,0,1,16.73,4.58L311.16,97.73a48.5,48.5,0,0,1,27.89-8.6,47.51,47.51,0,0,1,31.86,11.71A352.8,352.8,0,0,1,411.5,96.4l.86,0h.29a8.75,8.75,0,0,1,5.57,2l.63.52c.43.35,9.8,8.11,21.49,22.49,1,0,1.92-.08,2.87-.08,24.61,0,44.63,17.6,44.63,39.24a35.11,35.11,0,0,1-1.73,10.84,29.18,29.18,0,0,1,10.19,21.76,28.16,28.16,0,0,1-2.93,12.42,24.57,24.57,0,0,1-.64,24.39,22.38,22.38,0,0,1-.19,24.54,24.7,24.7,0,0,1-7.21,29.56c-.8,5.19-1.78,10.37-2.94,15.44-6.66,29.39-22.86,56.07-48.21,79.48a15.55,15.55,0,0,1,5.23,7c1.68,4.5,1,9.48-1.83,14-12.59,19.95-42.75,35.28-92.16,46.84h1.25a185.34,185.34,0,0,1,77.26,17l4.83,2.2a8.77,8.77,0,0,1-.58,16.2l-5,1.85c-.68.25-68.66,26.11-129.14,82.36A27.51,27.51,0,0,1,276,573.14c-9,0-15.77-5.14-16.86-12.64l-1.25-4.15c-2.79.14-5.64.22-8.53.25H247c-2.34,0-4.66,0-6.94-.11l-1.4,5A14.08,14.08,0,0,1,231.54,572a19.7,19.7,0,0,1-9.72,2.36Z"/><path class="cls-2" d="M487.53,217.18a16.25,16.25,0,0,0-4.73-11.35,19.63,19.63,0,0,0,4.73-12.69c0-7.83-4.9-15-12.45-18.62a26.8,26.8,0,0,0,4-14c0-16.81-16.08-30.47-35.86-30.47a42.54,42.54,0,0,0-6.74.54c-12.46-16.06-22.75-24.59-23.19-25l-.63-.52-.83,0a347.41,347.41,0,0,0-43.93,5.09c-6.75-7.76-17.42-12.35-28.84-12.35-17.46,0-32.31,10.81-35.3,25.13a20.44,20.44,0,0,0-4.34-1.17L313.07,8.77l-40.71,92.64-22.82-87-22.3,88.07L186.43,9.55l11.51,112.16a20.52,20.52,0,0,0-5.4,1.32c-3-14.32-17.83-25.13-35.29-25.13-11.42,0-22.1,4.59-28.85,12.35a347.41,347.41,0,0,0-43.93-5.09l-.82,0-.64.52c-.44.36-10.73,8.89-23.19,25a42.35,42.35,0,0,0-6.74-.54c-19.77,0-35.86,13.66-35.86,30.47a26.81,26.81,0,0,0,4,14c-7.55,3.6-12.45,10.79-12.45,18.62a19.68,19.68,0,0,0,4.72,12.69,16.24,16.24,0,0,0-4.72,11.35,16.49,16.49,0,0,0,6.51,13,14.78,14.78,0,0,0-6.51,11.93,14.6,14.6,0,0,0,6,11.55,15.85,15.85,0,0,0-4.45,11A16.35,16.35,0,0,0,19.09,279c.85,6.25,2,12.5,3.36,18.6,7.13,31.41,26,59.65,56,83.95-.73.25-1.6.51-2.32.73-4.27,1.28-9.57,2.88-11,6.77-.72,1.93-.38,4,1,6.27,11.35,18,41.32,32.61,89.13,43.53a78.86,78.86,0,0,0,10.37,10.76l.57.48a41.78,41.78,0,0,0-2.59,6.07c-4.54-.36-9.21-.56-14-.56A176.54,176.54,0,0,0,76,471.76l-4.77,2.17,4.9,1.87c.71.27,71.43,27.62,133.54,85.39a19,19,0,0,0,12.15,4.4h0a10.91,10.91,0,0,0,5.37-1.21,5.36,5.36,0,0,0,2.87-4.46l3.47-12.53q6.45.45,13.51.46h2.18c5.26-.06,10.24-.29,15-.7l3.51,11.59c.2,3.44,3.39,5.64,8.23,5.64,4.44,0,9.32-1.76,12.15-4.4,62.07-57.73,131.36-83.9,132-84.16l5-1.85-4.83-2.2a176.54,176.54,0,0,0-73.62-16.21c-4.78,0-9.44.2-14,.56a43.6,43.6,0,0,0-2.74-6.35l.58-.49a78.93,78.93,0,0,0,10-10.35c48.11-10.94,78.25-25.6,89.65-43.65,1.4-2.23,1.75-4.34,1-6.27-1.46-3.89-6.76-5.49-11-6.77-.73-.22-1.59-.48-2.33-.73,30-24.3,48.87-52.54,56-83.95,1.38-6.1,2.51-12.35,3.36-18.6a16.34,16.34,0,0,0,8.75-14.3,15.85,15.85,0,0,0-4.45-11,14.59,14.59,0,0,0,6-11.55A14.79,14.79,0,0,0,481,230.15,16.5,16.5,0,0,0,487.53,217.18Z"/><polygon class="cls-3" points="290.06 181.02 206.24 181.02 190.04 23.21 227.8 109.22 249.58 23.21 271.84 108.05 309.12 23.21 290.06 181.02"/><path class="cls-1" d="M292,183.21H204.26L186.43,9.55l40.81,93,22.3-88.07,22.82,87L313.07,8.77,292,183.21Zm-83.79-4.39h79.91L305.17,37.65l-33.85,77L249.62,32l-21.26,84L193.64,36.87l14.57,142Z"/><path class="cls-2" d="M259.74,106.39c0,10-10.16,18.08-10.16,18.08s-10.17-8.1-10.17-18.08,10.17,4.93,10.17,4.93,10.16-14.92,10.16-4.93"/><path class="cls-2" d="M485.34,217.18A14.3,14.3,0,0,0,479.68,206a17.73,17.73,0,0,0,5.66-12.82c0-8-5.65-14.91-13.59-17.61a24.9,24.9,0,0,0,5.13-15c0-15.62-15.07-28.28-33.67-28.28a40,40,0,0,0-7.66.74c-12.82-16.74-23.66-25.65-23.66-25.65A340.66,340.66,0,0,0,367,112.64c-6-7.57-16.32-12.55-28-12.55-17.78,0-32.33,11.58-33.57,26.25a17.89,17.89,0,0,0-9.31-2.56c-8.85,0-16,6.12-16,13.67a11.54,11.54,0,0,0,.31,2.63,16.12,16.12,0,0,0-3.44-.38c-7.55,0-13.68,5.18-13.68,11.58a10.11,10.11,0,0,0,.92,4.16,99.85,99.85,0,0,0-16.1,17.8A99.9,99.9,0,0,0,232,155.44a10,10,0,0,0,.92-4.16c0-6.4-6.12-11.58-13.68-11.58a16,16,0,0,0-3.43.38,11.53,11.53,0,0,0,.3-2.63c0-7.55-7.17-13.67-16-13.67a17.86,17.86,0,0,0-9.3,2.56c-1.24-14.67-15.79-26.25-33.57-26.25-11.67,0-21.94,5-28,12.55a340.7,340.7,0,0,0-44.87-5.29S73.57,116.26,60.74,133a40,40,0,0,0-7.66-.74c-18.59,0-33.67,12.66-33.67,28.28a25,25,0,0,0,5.13,15C16.61,178.23,11,185.09,11,193.14A17.76,17.76,0,0,0,16.61,206,14.32,14.32,0,0,0,11,217.18a14.74,14.74,0,0,0,8.56,13.06C14.42,232.53,11,237,11,242.08c0,4.73,3,8.88,7.44,11.29a13.94,13.94,0,0,0-5.88,11.28,14.16,14.16,0,0,0,8.59,12.85c.83,6.37,2,12.89,3.48,19.56,7.91,34.86,29.61,62.33,56.54,83.78C86,384.75,61.65,384.08,68,394.1c28.93,45.84,179.25,56.22,179.25,56.22l.92-50.65.91,50.65s150.32-10.38,179.25-56.22c6.33-10-18.05-9.35-13.14-13.26,26.93-21.45,48.63-48.92,56.54-83.78,1.51-6.67,2.65-13.19,3.48-19.56a14.16,14.16,0,0,0,8.58-12.85,13.94,13.94,0,0,0-5.88-11.28c4.48-2.41,7.45-6.56,7.45-11.29,0-5.11-3.46-9.55-8.56-11.84a14.74,14.74,0,0,0,8.56-13.06"/><path class="cls-1" d="M249.38,452.66l-1.23-.08-1.24.08v-.17A696.86,696.86,0,0,1,168,441.55c-55.28-11.17-89.56-26.74-101.89-46.28-1.41-2.23-1.75-4.34-1-6.27,1.45-3.89,6.75-5.49,11-6.77.72-.22,1.59-.48,2.32-.73-30-24.3-48.86-52.54-56-83.95-1.38-6.1-2.51-12.35-3.36-18.6a16.35,16.35,0,0,1-8.76-14.3,15.85,15.85,0,0,1,4.45-11,14.6,14.6,0,0,1-6-11.55,14.78,14.78,0,0,1,6.51-11.93,16.49,16.49,0,0,1-6.51-13,16.24,16.24,0,0,1,4.72-11.35,19.68,19.68,0,0,1-4.72-12.69c0-7.83,4.9-15,12.45-18.62a26.81,26.81,0,0,1-4-14c0-16.81,16.09-30.47,35.86-30.47a42.35,42.35,0,0,1,6.74.54C72.28,114.55,82.57,106,83,105.66l.64-.52.82,0a347.41,347.41,0,0,1,43.93,5.09c6.75-7.76,17.43-12.35,28.85-12.35,17.46,0,32.3,10.81,35.29,25.13a20.36,20.36,0,0,1,7.58-1.44c10,0,18.22,7.11,18.22,15.86v.08c9.16-.5,16.82,5.89,16.82,13.75a11.75,11.75,0,0,1-.54,3.52,103.18,103.18,0,0,1,13.53,14.7,103.1,103.1,0,0,1,13.52-14.7,12.06,12.06,0,0,1-.53-3.52c0-7.6,7.12-13.78,15.87-13.78.31,0,.63,0,.94,0v-.08c0-8.75,8.17-15.86,18.22-15.86a20.36,20.36,0,0,1,7.58,1.44c3-14.32,17.84-25.13,35.3-25.13,11.42,0,22.09,4.59,28.84,12.35a347.41,347.41,0,0,1,43.93-5.09l.83,0,.63.52c.44.36,10.73,8.89,23.19,25a42.54,42.54,0,0,1,6.74-.54c19.78,0,35.86,13.66,35.86,30.47a26.8,26.8,0,0,1-4,14c7.55,3.6,12.45,10.79,12.45,18.62a19.63,19.63,0,0,1-4.73,12.69,16.25,16.25,0,0,1,4.73,11.35,16.5,16.5,0,0,1-6.52,13,14.79,14.79,0,0,1,6.52,11.93,14.59,14.59,0,0,1-6,11.55,15.85,15.85,0,0,1,4.45,11,16.34,16.34,0,0,1-8.75,14.3c-.85,6.25-2,12.5-3.36,18.6-7.13,31.41-26,59.65-56,83.95.74.25,1.6.51,2.33.73,4.26,1.28,9.56,2.88,11,6.77.72,1.93.37,4-1,6.27-12.34,19.54-46.62,35.11-101.9,46.28a696.55,696.55,0,0,1-78.89,10.94v.17ZM53.08,134.45c-17.35,0-31.47,11.7-31.47,26.09a22.8,22.8,0,0,0,4.69,13.68l1.8,2.41-2.85,1c-7.24,2.46-12.1,8.7-12.1,15.53a15.58,15.58,0,0,0,5,11.24L20,206.13l-2,1.55a12.17,12.17,0,0,0-4.82,9.5,12.55,12.55,0,0,0,7.34,11.09l4.16,2.07-4.23,1.9c-4.49,2-7.27,5.78-7.27,9.84,0,3.74,2.35,7.24,6.29,9.36l3.07,1.65-2.82,2a11.73,11.73,0,0,0-5,9.51A12,12,0,0,0,22,275.5l1.12.5.16,1.21c.85,6.51,2,13,3.45,19.37,7,30.87,25.76,58.65,55.76,82.55a3.26,3.26,0,0,1,1.44,3.23c-.43,2.22-2.87,3-6.55,4.06-3,.9-7.48,2.26-8.18,4.11a2.92,2.92,0,0,0,.64,2.4c26.08,41.33,156.25,53.47,175.24,55l.88-48.32h4.38l.87,48.32c19-1.55,149.17-13.69,175.25-55a2.87,2.87,0,0,0,.63-2.4c-.69-1.85-5.19-3.21-8.17-4.11-3.69-1.1-6.12-1.84-6.55-4.06a3.24,3.24,0,0,1,1.43-3.23c30-23.9,48.76-51.68,55.77-82.55,1.44-6.35,2.6-12.86,3.44-19.37l.16-1.21,1.13-.5a12,12,0,0,0,7.28-10.85,11.72,11.72,0,0,0-5-9.51l-2.83-2,3.08-1.66c3.93-2.12,6.29-5.62,6.29-9.36,0-4.06-2.79-7.83-7.27-9.84l-4.24-1.9,4.17-2.07a12.57,12.57,0,0,0,7.34-11.09,12.15,12.15,0,0,0-4.83-9.5l-2-1.55,1.81-1.75a15.56,15.56,0,0,0,5-11.24c0-6.83-4.87-13.07-12.1-15.53l-2.86-1,1.81-2.41a22.78,22.78,0,0,0,4.69-13.68c0-14.39-14.12-26.09-31.48-26.09a38.44,38.44,0,0,0-7.24.7l-1.33.26-.83-1.07a174.11,174.11,0,0,0-22.69-24.76,351.27,351.27,0,0,0-43.7,5.21l-1.29.23-.81-1c-5.87-7.34-15.69-11.72-26.27-11.72-16.45,0-30.24,10.65-31.39,24.24l-.3,3.53-3-1.84a15.69,15.69,0,0,0-8.17-2.24c-7.63,0-13.84,5.15-13.84,11.48a9.91,9.91,0,0,0,.25,2.14l.77,3.37-3.38-.74a13.77,13.77,0,0,0-3-.33c-6.33,0-11.49,4.21-11.49,9.39a7.84,7.84,0,0,0,.73,3.25l.67,1.49-1.22,1.07a98,98,0,0,0-15.76,17.4l-1.79,2.58-1.8-2.58a97.54,97.54,0,0,0-15.75-17.4L229.37,156l.68-1.49a7.83,7.83,0,0,0,.72-3.25c0-5.18-5.15-9.39-11.49-9.39a13.84,13.84,0,0,0-3,.33l-3.38.74.77-3.37a9.32,9.32,0,0,0,.25-2.14c0-6.33-6.21-11.48-13.84-11.48a15.65,15.65,0,0,0-8.16,2.24l-3,1.84-.3-3.53c-1.15-13.59-14.93-24.24-31.38-24.24-10.59,0-20.41,4.38-26.27,11.72l-.81,1-1.29-.23a351.55,351.55,0,0,0-43.71-5.21,175.4,175.4,0,0,0-22.69,24.76l-.82,1.07-1.34-.26a38.36,38.36,0,0,0-7.24-.7Z"/><path class="cls-2" d="M332.53,468.37c0,30.15,0,76.44-83.33,77.27-83.74.84-85.43-47.12-85.43-77.27s37.78-54.61,84.38-54.61,84.38,24.45,84.38,54.61"/><path class="cls-1" d="M247,547.85c-36.82,0-61-9.29-74.06-28.39-10.52-15.46-11.41-33.72-11.41-51.09,0-31.32,38.84-56.8,86.58-56.8s86.57,25.48,86.57,56.8c0,15.53,0,34.86-10.79,50.86-12.73,18.87-37.16,28.23-74.71,28.61ZM248.15,416C202.83,416,166,439.46,166,468.37c0,16.69.82,34.19,10.64,48.62,12.14,17.81,35.18,26.47,70.44,26.47h2.14c36-.36,59.25-9.08,71.12-26.68,10-14.89,10-33.47,10-48.4,0-28.91-36.87-52.42-82.19-52.42Z"/><path class="cls-4" d="M301,462.13c0,18.9,0,47.91-52.22,48.43-52.48.53-53.54-29.53-53.54-48.43s23.67-34.22,52.88-34.22S301,443.23,301,462.13"/><path class="cls-1" d="M247.46,512.76c-23.37,0-38.77-5.94-47.09-18.15-7.3-10.7-7.3-24.33-7.3-32.48,0-20.08,24.71-36.41,55.08-36.41s55.07,16.33,55.07,36.41c0,18.73,0,50.08-54.39,50.62Zm.69-82.66c-28,0-50.69,14.37-50.69,32,0,17.3,0,46.25,50,46.25h1.33c50-.5,50-26.94,50-46.24,0-17.66-22.74-32-50.69-32Z"/><path class="cls-5" d="M248.15,486.5s78.19-55.12,171.24-12.75c0,0-69.64,25.88-132.78,84.62-5,4.67-16.71,5.47-16.71,0Z"/><path class="cls-1" d="M276,564.37c-4.84,0-8-2.2-8.23-5.64l-22.13-73.11,1.29-.91c.42-.29,42.05-29.16,99.79-29.16a176.54,176.54,0,0,1,73.62,16.21l4.83,2.2-5,1.85c-.69.26-70,26.43-132,84.16-2.83,2.64-7.71,4.4-12.15,4.4Zm-25.23-76.94,21.37,70.62v.32c0,1.57,3.47,1.62,3.86,1.62a14.54,14.54,0,0,0,9.16-3.22c53.18-49.46,111.61-76,128.62-83.1a171.54,171.54,0,0,0-67.06-13.74c-50.72,0-88.58,22.73-96,27.5Z"/><path class="cls-5" d="M248.15,486.5S170,431.38,76.91,473.75c0,0,71.11,27.1,134.25,85.84,5,4.67,16.72,5.47,16.72,0Z"/><path class="cls-1" d="M221.82,565.59h0a19,19,0,0,1-12.15-4.4C147.56,503.42,76.84,476.07,76.13,475.8l-4.9-1.87L76,471.76a176.54,176.54,0,0,1,73.62-16.21c57.75,0,99.38,28.87,99.79,29.16l1.26.89-20.61,74.32a5.36,5.36,0,0,1-2.87,4.46,10.91,10.91,0,0,1-5.37,1.21Zm-139.3-91.9C99.65,481,159.33,508.38,212.66,558a14.48,14.48,0,0,0,9.16,3.23h0a6.86,6.86,0,0,0,3.2-.63c.61-.35.66-.68.66-1v-.3l19.93-71.84c-7.31-4.72-45.25-27.52-96-27.52a171.58,171.58,0,0,0-67.1,13.76Z"/><path class="cls-4" d="M362.83,348.48c-.38,101.44-51.34,122.18-114.68,122.18s-114.69-20-114.69-122.18c0-32.38,43.69-88,94.69-96.63,10.09-1.7,20,12,20,12s10.21-13.14,21.8-11.66c48.24,6.18,93,63.8,92.88,96.24"/><path class="cls-1" d="M248.15,472.85c-37.74,0-64-7.4-82.52-23.29-23.12-19.79-34.36-52.85-34.36-101.08,0-16.66,11-39.16,28.79-58.7,19.54-21.5,44.23-36.11,67.72-40.09a13.7,13.7,0,0,1,2.13-.17c7.93,0,15.13,7.23,18.31,11,3.35-3.59,11-10.54,19.88-10.54a16.53,16.53,0,0,1,2.12.13c22.3,2.86,46.33,17.06,65.94,39C354,309,365.09,331.8,365,348.49c-.19,47.94-11.47,80.91-34.5,100.78-18.65,16.09-44.83,23.58-82.38,23.58ZM229.91,253.9a8.1,8.1,0,0,0-1.4.12c-22.54,3.81-46.31,17.92-65.21,38.71-17.05,18.77-27.65,40.13-27.65,55.75,0,46.87,10.74,78.84,32.83,97.75,17.72,15.17,43,22.24,79.67,22.24,55.4,0,112.09-14.26,112.49-120,.06-15.41-10.83-37.59-27.75-56.49-18.92-21.15-42-34.84-63.22-37.56a11.72,11.72,0,0,0-1.57-.1c-9.62,0-18.14,10.81-18.22,10.92l-1.8,2.31-1.71-2.37c-.08-.11-8.25-11.28-16.46-11.28Z"/><path class="cls-6" d="M167.4,379.79,155,315.11s37.14-45,74.29-29.71l-8.92,88Z"/><path class="cls-7" d="M220.33,371.07c0,17.57-11.85,31.82-26.46,31.82s-26.47-14.25-26.47-31.82,11.85-31.81,26.47-31.81,26.46,14.25,26.46,31.81"/><path class="cls-1" d="M193.87,405.08c-15.81,0-28.66-15.26-28.66-34s12.85-34,28.66-34,28.65,15.26,28.65,34-12.85,34-28.65,34Zm0-63.63c-13.39,0-24.28,13.29-24.28,29.62s10.89,29.62,24.28,29.62,24.27-13.28,24.27-29.62-10.89-29.62-24.27-29.62Z"/><path class="cls-1" d="M214.68,374.69c0,11.12-7.19,20.14-16.06,20.14s-16.06-9-16.06-20.14,7.19-20.14,16.06-20.14,16.06,9,16.06,20.14"/><path class="cls-6" d="M327.84,381.11l12.44-64.68s-37.15-45-74.29-29.71l8.92,88Z"/><path class="cls-5" d="M199.19,357.76a12,12,0,1,1-12-12,12,12,0,0,1,12,12"/><path class="cls-5" d="M213.25,387.38c0,3.47-1.83,6.28-4.1,6.28s-4.1-2.81-4.1-6.28,1.84-6.27,4.1-6.27,4.1,2.81,4.1,6.27"/><path class="cls-7" d="M275.3,369.76c0,17.57,11.85,31.81,26.47,31.81s26.46-14.24,26.46-31.81S316.38,338,301.77,338s-26.47,14.24-26.47,31.81"/><path class="cls-1" d="M301.77,403.76c-15.81,0-28.66-15.25-28.66-34s12.85-34,28.66-34,28.65,15.26,28.65,34-12.85,34-28.65,34Zm0-63.62c-13.39,0-24.28,13.28-24.28,29.62s10.89,29.62,24.28,29.62S326,386.09,326,369.76s-10.89-29.62-24.27-29.62Z"/><path class="cls-1" d="M281,373.37c0,11.12,7.19,20.14,16.06,20.14s16.06-9,16.06-20.14-7.19-20.14-16.06-20.14-16.06,9-16.06,20.14"/><path class="cls-5" d="M296.44,356.44a12,12,0,1,0,12-12,12,12,0,0,0-12,12"/><path class="cls-5" d="M282.38,386.06c0,3.47,1.83,6.28,4.1,6.28s4.1-2.81,4.1-6.28-1.84-6.27-4.1-6.27-4.1,2.81-4.1,6.27"/><path class="cls-8" d="M250.52,406.85a6.78,6.78,0,0,0-3.62,1c3.59.05,6.48,2.61,6.48,5.77s-2.89,5.71-6.48,5.77a6.82,6.82,0,1,0,3.62-12.59"/><path class="cls-2" d="M256.41,441.83c1.3,4.11-6.83,9.53-6.83,9.53s-8.12-5.4-6.83-9.53c2.11-6.79,6.83,0,6.83,0s4.57-7.11,6.83,0"/></svg>