<svg xmlns="http://www.w3.org/2000/svg" viewBox="0 0 123.28 109.54"><defs><style>.cls-1{isolation:isolate;}.cls-2,.cls-3,.cls-4{fill:#5b4e3e;}.cls-3,.cls-9{opacity:0.4;}.cls-10,.cls-12,.cls-13,.cls-15,.cls-3,.cls-4,.cls-5,.cls-7,.cls-9{mix-blend-mode:multiply;}.cls-13,.cls-15,.cls-4{opacity:0.6;}.cls-5{fill:#33291d;}.cls-12,.cls-5{opacity:0.5;}.cls-6{fill:#9f4e16;}.cls-7{fill:#dbbb79;opacity:0.8;}.cls-8{fill:#f2bb79;}.cls-10,.cls-9{fill:#a64d25;}.cls-10{opacity:0.2;}.cls-11{fill:#fff;}.cls-12{fill:#91410f;}.cls-13{fill:#44290a;}.cls-14,.cls-15{fill:#7c000d;}.cls-16{fill:#ffe9d2;}</style></defs><title>camel</title><g class="cls-1"><g id="Layer_1" data-name="Layer 1"><path class="cls-2" d="M100.48,102.73a2.17,2.17,0,0,0-.67-1.28.13.13,0,0,0,0-.15c-.41-.86-.64-2.13-1.71-2.41s-1.93,1.14-2.57,1.85A2.42,2.42,0,0,1,95,101a6.77,6.77,0,0,1-1.62.19,7,7,0,0,0-2.75.55c-1.85,1-2.25,3.31-2.66,5.16a.15.15,0,0,0,.09.17s0,0,0,0a3.14,3.14,0,0,0,2.16.37,2.11,2.11,0,0,1,0,.25.17.17,0,0,0,.18.16,4.86,4.86,0,0,0,2.17.41,15.09,15.09,0,0,0,2.93,0,13,13,0,0,0,5.13-2.11l.05-.06a.16.16,0,0,0,.07-.09A11.28,11.28,0,0,0,100.48,102.73Z"/><path class="cls-3" d="M100.48,102.73a2.17,2.17,0,0,0-.67-1.28.13.13,0,0,0,0-.15c-.41-.86-.64-2.13-1.71-2.41s-1.93,1.14-2.57,1.85A2.42,2.42,0,0,1,95,101a6.77,6.77,0,0,1-1.62.19l-.26,0h0c.63,0,2.81,0,1.92.2-1.13.26-2.65.34-3.52.92a6,6,0,0,0-2.09,2.81c-.16.36-.63,1.65-1.24,1.18a.3.3,0,0,1-.08-.08l-.15.66a.15.15,0,0,0,.09.17s0,0,0,0a3.14,3.14,0,0,0,2.16.37,2.11,2.11,0,0,1,0,.25.17.17,0,0,0,.18.16,4.86,4.86,0,0,0,2.17.41,15.09,15.09,0,0,0,2.93,0,13,13,0,0,0,5.13-2.11l.05-.06a.16.16,0,0,0,.07-.09A11.28,11.28,0,0,0,100.48,102.73Zm-2.62-1.09a2.39,2.39,0,0,1-1,.49,14,14,0,0,0-1.52.71,7.3,7.3,0,0,0-2.29,1.59,7,7,0,0,0-1.23,2.18c-.11.3-.34.94-.76.88s-.43-.81-.37-1.21a5.14,5.14,0,0,1,.76-2.38,6.31,6.31,0,0,1,4.17-2.08,4,4,0,0,1,2.15-.34A.1.1,0,0,1,97.86,101.64Z"/><path class="cls-3" d="M100.48,102.73a2.17,2.17,0,0,0-.67-1.28.13.13,0,0,0,0-.15c-.41-.86-.64-2.13-1.71-2.41s-1.93,1.14-2.57,1.85A2.42,2.42,0,0,1,95,101a2.34,2.34,0,0,1-.38.09,2.32,2.32,0,0,0,1.15.16c.09,0,.12.11.07.17a1.78,1.78,0,0,1-.26.22l1-.14a3.07,3.07,0,0,1,.73-.11,9.36,9.36,0,0,0,1.27-.3.11.11,0,0,1,.11,0,5.7,5.7,0,0,1,.53,3.53,1.35,1.35,0,0,1-1.17,1c-.44.06-.9,0-1.33.12a3.61,3.61,0,0,0-1.36.67A5.72,5.72,0,0,1,93,107.79a3.14,3.14,0,0,1-2-.23,1,1,0,0,1-.32-1.1,8.11,8.11,0,0,1,.39-1.58,3.56,3.56,0,0,1,.48-1,5.22,5.22,0,0,1,3-1.82,8.85,8.85,0,0,0-1.63.19,3.63,3.63,0,0,0-2.46,2.09c-.35.65-.42,1.63-1,2.16a1.06,1.06,0,0,1-1.43,0l-.09.4a.15.15,0,0,0,.09.17s0,0,0,0a3.14,3.14,0,0,0,2.16.37,2.11,2.11,0,0,1,0,.25.17.17,0,0,0,.18.16,4.86,4.86,0,0,0,2.17.41,15.09,15.09,0,0,0,2.93,0,13,13,0,0,0,5.13-2.11l.05-.06a.16.16,0,0,0,.07-.09A11.28,11.28,0,0,0,100.48,102.73Z"/><path class="cls-2" d="M52.24,103a5.93,5.93,0,0,0-.21-.83,3.21,3.21,0,0,0-1.3-1.67c-.51-.87-2.43-.86-3.14-.15a17.89,17.89,0,0,1-2.86,1.08,8.12,8.12,0,0,0-2.41,1,5.21,5.21,0,0,0-2.56,4,.07.07,0,0,0,.06.07,1.41,1.41,0,0,0,.88.67,2,2,0,0,0,1.12.11,2.4,2.4,0,0,0,1.07.4,11.23,11.23,0,0,0,1.73.23,4.87,4.87,0,0,0,2.9-.35c.42-.25.77-.64,1.17-.93a3.49,3.49,0,0,1,1.64-.61,3.33,3.33,0,0,0,2.06-.75C52.41,104.55,52.29,103.79,52.24,103Z"/><path class="cls-4" d="M52.24,103a5.93,5.93,0,0,0-.21-.83,3.21,3.21,0,0,0-1.3-1.67c-.51-.87-2.43-.86-3.14-.15a17.89,17.89,0,0,1-2.86,1.08,8.12,8.12,0,0,0-2.41,1,5.21,5.21,0,0,0-2.56,4,.07.07,0,0,0,.06.07,1.41,1.41,0,0,0,.88.67,2,2,0,0,0,1.12.11,2.4,2.4,0,0,0,1.07.4,11.23,11.23,0,0,0,1.73.23,4.87,4.87,0,0,0,2.9-.35c.42-.25.77-.64,1.17-.93a3.49,3.49,0,0,1,1.64-.61,3.33,3.33,0,0,0,2.06-.75C52.41,104.55,52.29,103.79,52.24,103Z"/><path class="cls-4" d="M52.24,103a5.93,5.93,0,0,0-.21-.83,3.21,3.21,0,0,0-1.3-1.67c-.51-.87-2.43-.86-3.14-.15l-1,.43a1.47,1.47,0,0,1-.42,1.27,8.13,8.13,0,0,0,1.78-.44.1.1,0,0,1,.09.16,2.5,2.5,0,0,1-.39.34,5.58,5.58,0,0,0,1.54-.46.1.1,0,0,1,.14.11c-.3,1.41-2,1.46-3,2.12a6.19,6.19,0,0,0-1.4,1.77,2.52,2.52,0,0,1-1.24,1.13c-1.21.33-1.5-.82-1.27-1.77a5.66,5.66,0,0,1,2.25-2.66,7.87,7.87,0,0,0-2.46,1.39,20.45,20.45,0,0,0-1.36,1.85c-.18.23-.64.67-.84.19a1.49,1.49,0,0,1-.11-.4,3.81,3.81,0,0,0-.18,1.07.07.07,0,0,0,.06.07,1.41,1.41,0,0,0,.88.67,2,2,0,0,0,1.12.11,2.4,2.4,0,0,0,1.07.4,11.23,11.23,0,0,0,1.73.23,4.87,4.87,0,0,0,2.9-.35c.42-.25.77-.64,1.17-.93a3.49,3.49,0,0,1,1.64-.61,3.33,3.33,0,0,0,2.06-.75C52.41,104.55,52.29,103.79,52.24,103Z"/><path class="cls-5" d="M52.24,103a5.93,5.93,0,0,0-.21-.83,3.21,3.21,0,0,0-1.3-1.67c-.51-.87-2.43-.86-3.14-.15a17.89,17.89,0,0,1-2.86,1.08,8.12,8.12,0,0,0-2.41,1,5.21,5.21,0,0,0-2.56,4,.07.07,0,0,0,.06.07,1.41,1.41,0,0,0,.88.67,2,2,0,0,0,1.12.11,2.4,2.4,0,0,0,1.07.4,11.23,11.23,0,0,0,1.73.23,4.87,4.87,0,0,0,2.9-.35c.42-.25.77-.64,1.17-.93a3.49,3.49,0,0,1,1.64-.61,3.33,3.33,0,0,0,2.06-.75C52.41,104.55,52.29,103.79,52.24,103Zm-2.17,2.78A5.22,5.22,0,0,0,47.86,107a3.93,3.93,0,0,1-2.87.64,9.9,9.9,0,0,1-3-.47h0c.13-.5,0-1,.16-1.52a4.51,4.51,0,0,1,.51-1.22,6.15,6.15,0,0,1,2-2s0-.06,0,0a4.79,4.79,0,0,0-2.89,4.6c-.25,0-.53,0-.77,0a1.65,1.65,0,0,1-1.08-.47l0,0a7.25,7.25,0,0,1,1-2.27,6,6,0,0,1,1.82-1.63c1.59-1,3.65-.88,5.15-2a.14.14,0,0,0,.06-.12,3,3,0,0,1,2.53.15,3.83,3.83,0,0,1,1.31,1.83A9.22,9.22,0,0,1,52,105.2,4.22,4.22,0,0,1,50.07,105.81Z"/><path class="cls-2" d="M85.32,100.42a6.07,6.07,0,0,0-1.09-2.24,2.44,2.44,0,0,0-1.65-1.46,3.32,3.32,0,0,0-2.5.67c-1,.25-2,.56-3,.81a14.71,14.71,0,0,0-2.85.88,4.08,4.08,0,0,0-1.67,1.46,7,7,0,0,0-.79,3.07s0,0,0,.06a.14.14,0,0,0,0,.21,3.06,3.06,0,0,0,2.36.63v.1a.08.08,0,0,0,0,0,.1.1,0,0,0,0,.09c.18.45,1,.51,1.39.6a8.09,8.09,0,0,0,3.36,0,17.86,17.86,0,0,0,6.46-1.89h0a.18.18,0,0,0,.11-.16A15.58,15.58,0,0,0,85.32,100.42Z"/><path class="cls-4" d="M85.32,100.42a6.07,6.07,0,0,0-1.09-2.24,2.44,2.44,0,0,0-1.65-1.46,3.32,3.32,0,0,0-2.5.67c-1,.25-2,.56-3,.81a14.71,14.71,0,0,0-2.85.88,4.08,4.08,0,0,0-1.67,1.46,7,7,0,0,0-.79,3.07s0,0,0,.06a.14.14,0,0,0,0,.21,3.06,3.06,0,0,0,2.36.63v.1a.08.08,0,0,0,0,0,.1.1,0,0,0,0,.09c.18.45,1,.51,1.39.6a8.09,8.09,0,0,0,3.36,0,17.86,17.86,0,0,0,6.46-1.89h0a.18.18,0,0,0,.11-.16A15.58,15.58,0,0,0,85.32,100.42Z"/><path class="cls-4" d="M85.32,100.42a6.07,6.07,0,0,0-1.09-2.24,2.44,2.44,0,0,0-1.65-1.46,3.32,3.32,0,0,0-2.5.67c-.59.15-1.17.32-1.76.48a4.2,4.2,0,0,0,2.55,0,.1.1,0,0,1,.1.16c-.24.21-.47.43-.69.65a7.2,7.2,0,0,0,2.12-.2.1.1,0,0,1,.12.1c0,.22.11.43.16.64.18.49.25,1.06-.25,1.37a9,9,0,0,1-1.44.48,6.43,6.43,0,0,0-1.57.84c-.81.59-2.32,2.23-3.54,2.13a.92.92,0,0,1-.88-.37,1.94,1.94,0,0,1,.07-1.81,3.22,3.22,0,0,1,1.81-1.53c1-.37,1.92-.67,2.88-1a14.11,14.11,0,0,0-2.82.41,5.23,5.23,0,0,0-3.33,2c-.22.36-.71,1.66-1.31,1.45-.24-.08-.35-.42-.39-.73,0,.36-.09.72-.13,1.08,0,0,0,0,0,.06a.14.14,0,0,0,0,.21,3.06,3.06,0,0,0,2.36.63v.1a.08.08,0,0,0,0,0,.1.1,0,0,0,0,.09c.18.45,1,.51,1.39.6a8.09,8.09,0,0,0,3.36,0,17.86,17.86,0,0,0,6.46-1.89h0a.18.18,0,0,0,.11-.16A15.58,15.58,0,0,0,85.32,100.42Z"/><path class="cls-5" d="M85.32,100.42a6.07,6.07,0,0,0-1.09-2.24,2.44,2.44,0,0,0-1.65-1.46,3.32,3.32,0,0,0-2.5.67c-1,.25-2,.56-3,.81a14.71,14.71,0,0,0-2.85.88,4.08,4.08,0,0,0-1.67,1.46,7,7,0,0,0-.79,3.07s0,0,0,.06a.14.14,0,0,0,0,.21,3.06,3.06,0,0,0,2.36.63v.1a.08.08,0,0,0,0,0,.1.1,0,0,0,0,.09c.18.45,1,.51,1.39.6a8.09,8.09,0,0,0,3.36,0,17.86,17.86,0,0,0,6.46-1.89h0a.18.18,0,0,0,.11-.16A15.58,15.58,0,0,0,85.32,100.42Zm-2.72,3.85a31,31,0,0,1-3.18.69,10.39,10.39,0,0,1-3.09.24,5.65,5.65,0,0,1-1.91-.48.17.17,0,0,0,.07-.14,4.73,4.73,0,0,1,1.18-3.39,4.86,4.86,0,0,1,1.7-.93c.65-.26,1.3-.49,2-.75a0,0,0,0,0,0-.07c-1.33.35-3,.61-4,1.64a4.86,4.86,0,0,0-1.17,3.15c-.32-.08-.68-.06-1-.11a3,3,0,0,1-1-.38.14.14,0,0,0,0-.07,7.24,7.24,0,0,1,.68-2.87,4.06,4.06,0,0,1,2-1.62,24.72,24.72,0,0,1,2.71-.77,16.35,16.35,0,0,0,2.55-.88A5.51,5.51,0,0,1,82.38,97a2.11,2.11,0,0,1,1.07.57c.28.24.44.58.7.83a8.37,8.37,0,0,1,.88,2.21,17.85,17.85,0,0,1,.15,2.73h0C84.31,103.64,83.49,104,82.6,104.27Z"/><path class="cls-2" d="M65.51,104a2.47,2.47,0,0,0-1.05-1.64,2.74,2.74,0,0,0-.78-.3,6.64,6.64,0,0,0-2.15-.67,3.26,3.26,0,0,0-2.28.59,22.1,22.1,0,0,0-3.33.49,7.94,7.94,0,0,0-2.83,1.09,4.83,4.83,0,0,0-1.74,2.26,4.3,4.3,0,0,0,.27,2.74s0,0,.05,0a1.06,1.06,0,0,0,.77.23,2.22,2.22,0,0,0,.88,0,.1.1,0,0,0,0,0h0s-.05,0,0,0l.14.06a1.28,1.28,0,0,0,.66.27l.1,0a12.37,12.37,0,0,0,2.05.3,8.9,8.9,0,0,0,3.12-.31A7.72,7.72,0,0,0,62,107.57a3.37,3.37,0,0,1,1.7-.76c.46-.06.93,0,1.38-.08.37.09.58-.23.59-.57A8.28,8.28,0,0,0,65.51,104Z"/><path class="cls-3" d="M65.51,104a2.47,2.47,0,0,0-1.05-1.64,2.74,2.74,0,0,0-.78-.3,6.64,6.64,0,0,0-2.15-.67,3.26,3.26,0,0,0-2.28.59,22.49,22.49,0,0,0-2.58.34,1.88,1.88,0,0,1,.5.18.1.1,0,0,1,0,.17c-.57.27-1.17.41-1.74.68a10.6,10.6,0,0,0-1.73,1,3.92,3.92,0,0,0-1.43,1.79,5.85,5.85,0,0,1-.33,1.08c-.27.46-.63-.08-.71-.38a5.5,5.5,0,0,0,.39,1.73s0,0,.05,0a1.06,1.06,0,0,0,.77.23,2.22,2.22,0,0,0,.88,0,.1.1,0,0,0,0,0h0s-.05,0,0,0l.14.06a1.28,1.28,0,0,0,.66.27l.1,0a12.37,12.37,0,0,0,2.05.3,8.9,8.9,0,0,0,3.12-.31A7.72,7.72,0,0,0,62,107.57a3.37,3.37,0,0,1,1.7-.76c.46-.06.93,0,1.38-.08.37.09.58-.23.59-.57A8.28,8.28,0,0,0,65.51,104Zm-6.83,0a27.9,27.9,0,0,0-2.31,1.74,5.15,5.15,0,0,0-.89,1,8.09,8.09,0,0,1-.5.79c-.26.31-.76.6-1,.1a2.42,2.42,0,0,1,.34-1.88A4.43,4.43,0,0,1,56.16,104a7.87,7.87,0,0,1,2.05-.91c.35-.15.79-.32,1-.09S58.91,103.82,58.68,104Z"/><path class="cls-3" d="M65.51,104a2.47,2.47,0,0,0-1.05-1.64,2.74,2.74,0,0,0-.78-.3,6.64,6.64,0,0,0-2.15-.67,3.26,3.26,0,0,0-2.28.59c-.66,0-1.33.13-2,.23a1.42,1.42,0,0,0,.34.25,2.62,2.62,0,0,0,2.08.27.1.1,0,0,1,.12.12c-.11.31-.14.63-.22,1a4.63,4.63,0,0,0,1.24-.56,2.73,2.73,0,0,1,.71-.44c.19-.05.54.21.72.29a7,7,0,0,0,1.4.4,1,1,0,0,1,0-.4.1.1,0,0,1,.17-.07,2.25,2.25,0,0,1,.36,2c-.21.58-.92.78-1.47.84a6.25,6.25,0,0,0-1.67.25,4.19,4.19,0,0,0-1.47,1.21,3.66,3.66,0,0,1-2.41,1.14,7,7,0,0,1-2.66,0,1.1,1.1,0,0,1-.77-1.37,5,5,0,0,1,2.4-3.42,4.73,4.73,0,0,0-3.3,2.94c-.14.53-.28,1.16-.89,1.3a.85.85,0,0,1-.5,0,5.88,5.88,0,0,0,.23.71s0,0,.05,0a1.06,1.06,0,0,0,.77.23,2.22,2.22,0,0,0,.88,0,.1.1,0,0,0,0,0h0s-.05,0,0,0l.14.06a1.28,1.28,0,0,0,.66.27l.1,0a12.37,12.37,0,0,0,2.05.3,8.9,8.9,0,0,0,3.12-.31A7.72,7.72,0,0,0,62,107.57a3.37,3.37,0,0,1,1.7-.76c.46-.06.93,0,1.38-.08.37.09.58-.23.59-.57A8.28,8.28,0,0,0,65.51,104Z"/><path class="cls-5" d="M65.51,104a2.47,2.47,0,0,0-1.05-1.64,2.74,2.74,0,0,0-.78-.3,6.64,6.64,0,0,0-2.15-.67,3.26,3.26,0,0,0-2.28.59,22.1,22.1,0,0,0-3.33.49,7.94,7.94,0,0,0-2.83,1.09,4.83,4.83,0,0,0-1.74,2.26,4.3,4.3,0,0,0,.27,2.74s0,0,.05,0a1.06,1.06,0,0,0,.77.23,2.22,2.22,0,0,0,.88,0,.1.1,0,0,0,0,0h0s-.05,0,0,0l.14.06a1.28,1.28,0,0,0,.66.27l.1,0a12.37,12.37,0,0,0,2.05.3,8.9,8.9,0,0,0,3.12-.31A7.72,7.72,0,0,0,62,107.57a3.37,3.37,0,0,1,1.7-.76c.46-.06.93,0,1.38-.08.37.09.58-.23.59-.57A8.28,8.28,0,0,0,65.51,104ZM65,106.5a4.32,4.32,0,0,0-2.54.38c-.93.52-1.61,1.38-2.58,1.83a7.49,7.49,0,0,1-3.21.53c-.54,0-1.07-.07-1.61-.12l-.53-.08a2.12,2.12,0,0,1-1-.27.08.08,0,0,1,0,0,7.08,7.08,0,0,1,.66-3,5.22,5.22,0,0,1,2.33-2s0,0,0,0a4.78,4.78,0,0,0-2.49,1.79,4.56,4.56,0,0,0-.62,1.41,5.33,5.33,0,0,0-.17,1.65,4,4,0,0,0-.62.06,1.77,1.77,0,0,1-.94-.12l0,0a6,6,0,0,1-.1-2.39,4.59,4.59,0,0,1,1.92-2.4,8.81,8.81,0,0,1,2.7-.92c1.07-.26,2.17-.35,3.24-.57a.1.1,0,0,0,.06-.05c.24-.06.45-.18.69-.25a3.43,3.43,0,0,1,1.46-.08,6.77,6.77,0,0,1,.87.19s0,0,0,0c1,.27,2,.5,2.49,1.53a4.09,4.09,0,0,1,.28,1.63C65.33,105.55,65.5,106.34,65,106.5Z"/><path class="cls-5" d="M100.48,102.73a2.17,2.17,0,0,0-.67-1.28.13.13,0,0,0,0-.15c-.41-.86-.64-2.13-1.71-2.41s-1.93,1.14-2.57,1.85A2.42,2.42,0,0,1,95,101a6.77,6.77,0,0,1-1.62.19,7,7,0,0,0-2.75.55c-1.85,1-2.25,3.31-2.66,5.16a.15.15,0,0,0,.09.17s0,0,0,0a3.14,3.14,0,0,0,2.16.37,2.11,2.11,0,0,1,0,.25.17.17,0,0,0,.18.16,4.86,4.86,0,0,0,2.17.41,15.09,15.09,0,0,0,2.93,0,13,13,0,0,0,5.13-2.11l.05-.06a.16.16,0,0,0,.07-.09A11.28,11.28,0,0,0,100.48,102.73Zm-4.86,5.2a12.8,12.8,0,0,1-2.7.11,7.46,7.46,0,0,1-2.44-.33c.16-.52.2-1.08.32-1.61a8.76,8.76,0,0,1,.63-1.87,3,3,0,0,1,1.3-1.4c.46-.23,1-.36,1.39-.62,0,0,0-.07,0-.06a14,14,0,0,0-1.55.51,2.63,2.63,0,0,0-1.19,1.12,8.45,8.45,0,0,0-1.11,3.44c-.33,0-.65,0-1,0s-.65-.15-1-.22c.44-1.92.83-4.42,3-5.13a15.08,15.08,0,0,1,3-.43,2.9,2.9,0,0,0,1.9-1,0,0,0,0,0,0,0,3.18,3.18,0,0,1,1.71-1.15c.89-.1,1.27,1.25,1.56,2l-.23-.13s-.07,0,0,.06a3.24,3.24,0,0,1,1.07,2c.16.92.11,1.86.2,2.79h0A13.41,13.41,0,0,1,95.62,107.93Z"/><path class="cls-6" d="M53.8,49.65a10.48,10.48,0,0,0-1.93-5.32,9.1,9.1,0,0,0-5.24-3.15,12.94,12.94,0,0,0-11.5,3.36,15.51,15.51,0,0,0-3.7,5.32c-.82,1.9-1.28,4.23-.3,6.16a16,16,0,0,0,.6,4.51,13,13,0,0,0,1.33,3.17,12.36,12.36,0,0,0,2.28,2.67c1.94,1.8,4.12,3.32,6.09,5.09A16.51,16.51,0,0,1,46.1,78.1a1.15,1.15,0,0,1,.06.17c-.07.77-.62,1.88.07,2.52a8.87,8.87,0,0,0,.86.61.06.06,0,0,0,0,0c.71,1,.67,2.36.83,3.53.21,1.59.4,3.18.46,4.78s0,3.32-.09,5a9.06,9.06,0,0,1-.91,4.08,1.43,1.43,0,0,0-.93,1,1.26,1.26,0,0,0,.11.74,1.1,1.1,0,0,1,0,1.07v0l-.08,0a.06.06,0,0,0,0,.1,4.44,4.44,0,0,0,1.66-.88c-.13.29-.26.58-.38.88,0,0,0,.07.06,0s0,0,0,0c.51-.34,1.18-.51,1.47-1.07a2.33,2.33,0,0,0,.38.51,2.52,2.52,0,0,0,.75.63.21.21,0,0,1,0,.06s.1,0,.09,0-.08-.33-.11-.49a1.85,1.85,0,0,1,0-.23,2.32,2.32,0,0,0,.45.58h0l0,.06s.1,0,.09,0a.22.22,0,0,1,0-.08v0s0,0,0,0c0-.23-.06-.46-.08-.69a2.31,2.31,0,0,0,.74.72,0,0,0,0,0,.06,0,1.35,1.35,0,0,0,.19.16c.06,0,.13,0,.09-.08a1.93,1.93,0,0,1-.43-1.16c0-.31.51-.39.69-.58.44-.48.18-1.09-.07-1.61-.25-1.24-.55-2.47-.77-3.71-.25-1.51-.35-3-.52-4.57s-.38-3-.5-4.52-.06-3-.16-4.47c.11-.2.23-.41.33-.62a2.51,2.51,0,0,0,.21-1.9A26.23,26.23,0,0,1,49.8,72a24,24,0,0,1,.94-6.46c.39-1.52.92-3.47,1.19-4.61.32-.72.55-1.38.82-2.12a18.57,18.57,0,0,0,.73-3A21.45,21.45,0,0,0,53.8,49.65Z"/><path class="cls-7" d="M53.8,49.65a10.48,10.48,0,0,0-1.93-5.32,9.1,9.1,0,0,0-5.24-3.15,12.94,12.94,0,0,0-11.5,3.36,15.51,15.51,0,0,0-3.7,5.32c-.82,1.9-1.28,4.23-.3,6.16a15.56,15.56,0,0,0,.08,1.81,12.72,12.72,0,0,0,3.68,2.09c3.79,1,7.91.46,10.24,4.72,2.06,3.75,2.23,7,3,11.11a10.23,10.23,0,0,0,.3,1.56c.23.55,1.08,1.24,1.17,1.85.16,1.18-.62,1.4-.6,2.57a23.22,23.22,0,0,0,.59,4.07,31.56,31.56,0,0,1,.6,4c.14,1.66.29,3.33.53,5a10.9,10.9,0,0,0,.39,1.87A5.3,5.3,0,0,1,51.46,98c0,.94-1.11,1.35-1.06,2.34a.1.1,0,0,1-.17.06c-.27-.24-.62-.4-.88-.67-.14.28-.36.48-.53.75a.09.09,0,0,1-.15,0c-.14-.14-.35-.49-.53-.33s-.31.29-.46.44c-.35.35-.69.72-1.06,1h0v0l-.08,0a.06.06,0,0,0,0,.1,4.44,4.44,0,0,0,1.66-.88c-.13.29-.26.58-.38.88,0,0,0,.07.06,0s0,0,0,0c.51-.34,1.18-.51,1.47-1.07a2.33,2.33,0,0,0,.38.51,2.52,2.52,0,0,0,.75.63.21.21,0,0,1,0,.06s.1,0,.09,0-.08-.33-.11-.49a1.85,1.85,0,0,1,0-.23,2.32,2.32,0,0,0,.45.58h0l0,.06s.1,0,.09,0a.22.22,0,0,1,0-.08v0s0,0,0,0c0-.23-.06-.46-.08-.69a2.31,2.31,0,0,0,.74.72,0,0,0,0,0,.06,0,1.35,1.35,0,0,0,.19.16c.06,0,.13,0,.09-.08a1.93,1.93,0,0,1-.43-1.16c0-.31.51-.39.69-.58.44-.48.18-1.09-.07-1.61-.25-1.24-.55-2.47-.77-3.71-.25-1.51-.35-3-.52-4.57s-.38-3-.5-4.52-.06-3-.16-4.47c.11-.2.23-.41.33-.62a2.51,2.51,0,0,0,.21-1.9A26.23,26.23,0,0,1,49.8,72a24,24,0,0,1,.94-6.46c.39-1.52.92-3.47,1.19-4.61.32-.72.55-1.38.82-2.12a18.57,18.57,0,0,0,.73-3A21.45,21.45,0,0,0,53.8,49.65Z"/><path class="cls-6" d="M97.43,76c-.22-.62-1-1-1.33-1.57a12.91,12.91,0,0,1-1.24-2.94,35.78,35.78,0,0,1-1.17-4.32,13.82,13.82,0,0,1-.15-4.4,33.29,33.29,0,0,1,1-4.39,23.07,23.07,0,0,0,.72-8.47C95,47.67,94.2,45.39,92,44.49c-2.08-.84-4.54,0-6.47.83a27.46,27.46,0,0,0-5.44,3.31c-3.32,2.54-6.65,6.17-6.78,10.57a6.57,6.57,0,0,0,.43,2.56,7.92,7.92,0,0,0,0,3.87s0,0,0,0,0,.1,0,.15a0,0,0,0,0,.08,0,7.67,7.67,0,0,1,.45-1.77,7.09,7.09,0,0,1,.39-.78A4.17,4.17,0,0,0,74.88,66a.1.1,0,0,0,.05,0,1.76,1.76,0,0,0,.07.4c0,.07.11,0,.11,0A7,7,0,0,1,75.57,64a6.28,6.28,0,0,0,.93,3.75,12.42,12.42,0,0,0,4.21,3.81c1.78,1.11,3.68,2,5.53,3,1.49.81,3.39,1.5,4.29,3a2.24,2.24,0,0,0,0,1.15.87.87,0,0,0,.22.32.87.87,0,0,1,.33.85,1.17,1.17,0,0,1,0,.2,7.19,7.19,0,0,1-.52.83,12,12,0,0,0-.6,1.12c-.48.93-1,1.83-1.5,2.74-1,1.77-2.09,3.54-3.3,5.21-.45.62-.87,1.26-1.34,1.86A4.8,4.8,0,0,1,82,93.45c-.42.16-1.15.28-1.39.73s0,.87.23,1.27.2.91-.1,1.14a18.69,18.69,0,0,1-1.63,1s0,0,0,0h0a0,0,0,0,0,0,.08,4,4,0,0,0,2.44-.33A2.44,2.44,0,0,0,81,98a1.16,1.16,0,0,0-.2.24v0h0s0,.1,0,.09a13.5,13.5,0,0,0,2-.49c0,.56.87,1,1.16,1.34a0,0,0,0,0,0,0,0,0,0,0,1,0,0s.07,0,.07,0a3.57,3.57,0,0,1,0-.73,2.85,2.85,0,0,0,.78.88,1.3,1.3,0,0,0,.34.28s.07,0,0-.06a1.76,1.76,0,0,1-.27-2,2.76,2.76,0,0,1,.67-.43.93.93,0,0,0,.58-.7,20.42,20.42,0,0,1,0-2.21,7.61,7.61,0,0,1,.91-1.91c.41-.79.81-1.58,1.2-2.38a58.05,58.05,0,0,1,4.43-7.73A14.82,14.82,0,0,1,95,79.58c.81-.71,1.56-1,2-2C97.21,77.11,97.58,76.44,97.43,76Z"/><path class="cls-7" d="M97.43,76c-.22-.62-1-1-1.33-1.57a12.91,12.91,0,0,1-1.24-2.94,35.78,35.78,0,0,1-1.17-4.32,13.82,13.82,0,0,1-.15-4.4,33.29,33.29,0,0,1,1-4.39,23.07,23.07,0,0,0,.72-8.47C95,47.67,94.2,45.39,92,44.49c-2.08-.84-4.54,0-6.47.83a27.46,27.46,0,0,0-5.44,3.31c-3.32,2.54-6.65,6.17-6.78,10.57a6.57,6.57,0,0,0,.43,2.56,7.92,7.92,0,0,0,0,3.87s0,0,0,0,0,.1,0,.15a0,0,0,0,0,.08,0,7.67,7.67,0,0,1,.45-1.77,7.09,7.09,0,0,1,.39-.78A4.17,4.17,0,0,0,74.88,66a.1.1,0,0,0,.05,0,1.76,1.76,0,0,0,.07.4c0,.07.11,0,.11,0A7,7,0,0,1,75.57,64a6.46,6.46,0,0,0,.26,2.28c0-.91.63-3.1,2.1-2.91,3.16.42,3.07,7.8,15.91,11.37.6.17,1.69.73,1.85,1.43s-.57,1.11-1.14,1.32a3,3,0,0,0-1.33.73,1.5,1.5,0,0,0-.35,1.15,5.3,5.3,0,0,1-1.18,2.92,24.57,24.57,0,0,0-2,3.45C89,87.12,88,88.5,87.35,89.87c-.86,1.72-2.41,4-2.16,5.08a1.2,1.2,0,0,1-.83,1.54A3.3,3.3,0,0,1,82.12,96a4.36,4.36,0,0,1-1.57-1.72,1.57,1.57,0,0,0,.25,1.21c.13.44.2.91-.1,1.14a18.69,18.69,0,0,1-1.63,1s0,0,0,0h0a0,0,0,0,0,0,.08,4,4,0,0,0,2.44-.33A2.44,2.44,0,0,0,81,98a1.16,1.16,0,0,0-.2.24v0h0s0,.1,0,.09a13.5,13.5,0,0,0,2-.49c0,.56.87,1,1.16,1.34a0,0,0,0,0,0,0,0,0,0,0,1,0,0s.07,0,.07,0a3.57,3.57,0,0,1,0-.73,2.85,2.85,0,0,0,.78.88,1.3,1.3,0,0,0,.34.28s.07,0,0-.06a1.76,1.76,0,0,1-.27-2,2.76,2.76,0,0,1,.67-.43.93.93,0,0,0,.58-.7,20.42,20.42,0,0,1,0-2.21,7.61,7.61,0,0,1,.91-1.91c.41-.79.81-1.58,1.2-2.38a58.05,58.05,0,0,1,4.43-7.73A14.82,14.82,0,0,1,95,79.58c.81-.71,1.56-1,2-2C97.21,77.11,97.58,76.44,97.43,76Z"/><path class="cls-8" d="M121.43,68.68a2.25,2.25,0,0,0,1.06-.52h0a.06.06,0,0,0,0-.07s0-.09,0-.08h0c-.49,0-1,.07-1.28-.36a1.13,1.13,0,0,1,.07-1.46c.53-.6,1.22-.92,1.18-1.83a7.14,7.14,0,0,0-1-2.71,3.25,3.25,0,0,0-1.64-1.59,2.15,2.15,0,0,0,1.34-.61c.05-.05,0-.12-.07-.11a2.19,2.19,0,0,0-.33.12,2,2,0,0,1-1.81-.89A6.8,6.8,0,0,1,118,56a57.63,57.63,0,0,0-1.67-5.58c-.64-1.82-1.5-3.52-2.29-5.27a13.64,13.64,0,0,1-1.31-5.06c.11-1,.18-1.93.29-2.9.12-1.16.34-2.31.49-3.47a13.86,13.86,0,0,0-.07-4.37,8.12,8.12,0,0,0-2-4,14.72,14.72,0,0,0-2.62-2.1,33.51,33.51,0,0,0-3.16-1.86c-2.13-1.12-4.34-2.09-6.5-3.13a21.67,21.67,0,0,1-5.56-3.4c-1.24-1.59-2.46-3.21-3.77-4.76A33,33,0,0,0,83.7,4.34a14.62,14.62,0,0,0-3.17-1.69A7.12,7.12,0,0,0,77.73,2a6,6,0,0,1,1-.18.06.06,0,0,0,0-.12,1,1,0,0,0-.41-.07,3.5,3.5,0,0,0-2.58-.15A7,7,0,0,0,76.2.84a2.47,2.47,0,0,1,.72-.72.05.05,0,0,0,0-.09l-.16.05s0,0,0,0A4.13,4.13,0,0,0,74.15.5c-.23.11-.8.37-.93.7a2.47,2.47,0,0,0-1.9-.84s0,0,0,0l.12.06s0,0,0,0c.38.16.4.55.46.92A2.2,2.2,0,0,0,70.45.79a2.69,2.69,0,0,0-2,.58.05.05,0,0,0,.05.09l.13-.06a3.32,3.32,0,0,1,1.62.42,11.21,11.21,0,0,0-4,1.28,14.28,14.28,0,0,0-3.56,2.4A15.87,15.87,0,0,0,60,9.09c-.43.72-.83,1.45-1.25,2.17s-.88,1.23-1.25,1.88A14.28,14.28,0,0,0,54.93,12a4.61,4.61,0,0,0-3.25.13,10.48,10.48,0,0,0-1.36.73,6.47,6.47,0,0,0-1.31.8,3,3,0,0,1-.66-1.14s-.06,0-.07,0h0a.06.06,0,0,0-.08,0,3,3,0,0,1-.35.52,1.94,1.94,0,0,0-.24.66c-.07.28-.29.66-.18.94a1.43,1.43,0,0,0-.56-.11,1.88,1.88,0,0,0-1.09.53s0,0,0,0,0,.07,0,.08a1.62,1.62,0,0,1,.33.13,3.2,3.2,0,0,0-1.52.95s0,.1.07.07l0,0a2.7,2.7,0,0,1,1.23.1H46a7.27,7.27,0,0,0-1.23,1.37c-.58.78-1.1,1.61-1.62,2.44A41.55,41.55,0,0,0,40,26.34a34.41,34.41,0,0,1-2.25,5.21c-.9,1.41-2.32,2.41-4,1.86a12.75,12.75,0,0,1-2.89-3.28l0,0c.37-.25.44-.77.58-1.16A8.45,8.45,0,0,0,32,26.86a4.69,4.69,0,0,0-.38-2.36c.37.26.77.51.82,1a0,0,0,0,0,.08,0,.86.86,0,0,0,0-.42,3.65,3.65,0,0,0-.23-1.37,3,3,0,0,0-.26-.54l.15.06a1.47,1.47,0,0,1,.74.48l0,.1a0,0,0,0,0,0,0,.06.06,0,0,0,.09,0,1.35,1.35,0,0,0-.08-.24,3.74,3.74,0,0,0-.63-1.65,3.46,3.46,0,0,0-1.07-1A7.08,7.08,0,0,0,32.8,19a1.88,1.88,0,0,0,.22-.84,1.43,1.43,0,0,0,1.28.52A6.35,6.35,0,0,0,35.92,18a2.35,2.35,0,0,0,1-1,1.59,1.59,0,0,0-.31-1.56l.25.12c.19.11.37.33.58.39a2,2,0,0,1,.1.21s.06,0,.07,0a2.08,2.08,0,0,0-.5-1.54l.21.07a2.54,2.54,0,0,1,.82.52c.06.06.15,0,.13-.09a.7.7,0,0,0-.13-.24,6.92,6.92,0,0,0-1.41-2.63,3.4,3.4,0,0,0-2-1.45c-.95,0-1.73.8-2.47,1.34a10,10,0,0,0-1,.79,1.28,1.28,0,0,0-.15-.85,4.76,4.76,0,0,0-.8-1,5.1,5.1,0,0,0-1-.89,2.43,2.43,0,0,0-1.47-1.81,1.25,1.25,0,0,0-.9.22c-2.54-1.63-5.4-3.34-8.44-3.68a8,8,0,0,0-4.22.84A14.08,14.08,0,0,0,10.77,8a1,1,0,0,0-.9-.16C9.39,8,9.13,8.61,8.94,9l-.09.22c-.46.23-.9.55-1.35.81a5.58,5.58,0,0,0-1.41,1.2L5.84,11a3.32,3.32,0,0,0-2.27-1.2,2.94,2.94,0,0,0-2,1.19,5.58,5.58,0,0,0-1.1,2.22l0,0a.07.07,0,0,0,0,.09s0,0,.07,0h0l.25-.1-.17.16a2.79,2.79,0,0,0-.5,1.67.46.46,0,0,0-.09.15.05.05,0,0,0,.06.07c.24-.08.45-.23.69-.32A.79.79,0,0,1,1,14.9a1.05,1.05,0,0,0-.2.47,1.77,1.77,0,0,0,.5,1.38,3.35,3.35,0,0,0,1.27,1.1c.48.13.66-.18,1.27-.5l.08,0a1.9,1.9,0,0,0-.53,1.49,1.64,1.64,0,0,0,.87,1.11,7.85,7.85,0,0,0,3,1.27,4,4,0,0,0-1.09,2.15,1,1,0,0,0,0,.32s.06,0,.07,0a1.76,1.76,0,0,1,1.13-.77,3.63,3.63,0,0,0-.59,2.5s0,0,0,0a.34.34,0,0,0,0,.1s.06,0,.08,0c.18-.41.73-.51,1.06-.79a5.85,5.85,0,0,0,.19,3.75,2.29,2.29,0,0,0,.07.28,0,0,0,0,0,.08,0,5.6,5.6,0,0,1,.1-.81,2.67,2.67,0,0,1,.13-.4A5.44,5.44,0,0,0,9,30.47s0,0,0,0,0,.08,0,.11.06,0,.06,0a3.8,3.8,0,0,1,.2-.9,5.15,5.15,0,0,0,1.07,3.16,0,0,0,0,0,0,0,.74.74,0,0,0,0,.14s.06,0,.06,0c0-.41,0-.82,0-1.24a21.19,21.19,0,0,0,1.83,5.92c1,2.21,2,4.4,3.21,6.5C17.8,48.2,21,52,25.24,54a3.39,3.39,0,0,0,.91,2.17,1.66,1.66,0,0,0,.2.4c0,.05.11,0,.09,0a3.11,3.11,0,0,1-.07-1.76c.17.95,1.12,1.61,1.93,2.13a.84.84,0,0,0,.28.15c.05,0,.11,0,.05-.09A2.16,2.16,0,0,1,28,55.37a4.37,4.37,0,0,0,1,.57,16.67,16.67,0,0,0,2.26.76,40.18,40.18,0,0,0,5.25.73,22.16,22.16,0,0,0,5,.28,10.31,10.31,0,0,0,4.18-1.83C46.45,58.4,49,60.16,51,61.55a3.84,3.84,0,0,0,1.32.71A1.86,1.86,0,0,0,52,63.84v0l0,0s0,.1.06.07a5.48,5.48,0,0,1,1.18-.47,1.83,1.83,0,0,0,.25,1.15.17.17,0,0,0,0,.07.07.07,0,0,0,.13,0,1.1,1.1,0,0,1,.32-.47,1.11,1.11,0,0,1,.52-.23l0,0a11.28,11.28,0,0,1,1.12.93,4,4,0,0,1,1,1.67,30.82,30.82,0,0,1,.91,4c.29,1.51.56,3,.86,4.52s.6,2.71.84,4.08a2.16,2.16,0,0,1-.1.86c-.08.24-.31.36-.32.63,0,.43.46.82.9,1.06.38,1.21.16,2.84.07,4.93-.08,1.81-.3,3.5-.4,5.31-.06,1-.23,2-.27,2.91s-.17,2-.22,3c-.1,1.86-.58,1.69-.34,2.44a1.64,1.64,0,0,0,.74.8,5.66,5.66,0,0,1-.87.48c-.33.14-.69.15-1,.28l0,0h-.17a0,0,0,0,0,0,.09,7.83,7.83,0,0,0,.78.36,4.82,4.82,0,0,0,.93.11,2.16,2.16,0,0,0,1-.18,3.22,3.22,0,0,0-.38.85v0s0,0,0,0a.11.11,0,0,0,.17,0l.12-.17c.48-.26,1.18-.4,1.48-.84.34.55,1.2.7,1.77.81h0l.17.05a.06.06,0,0,0,0-.1,1.27,1.27,0,0,1-.38-.48.36.36,0,0,1,0-.09,2.44,2.44,0,0,0,1.05-.3l0,0h0a.06.06,0,0,0,0-.11,4.12,4.12,0,0,0-.47-.22.92.92,0,0,0,.47-.21v0l.09,0c.06,0,0-.12,0-.12a1.47,1.47,0,0,1-.89-.25c-.24-.2-.08-.47,0-.72a1,1,0,0,0,.53-.59,3.41,3.41,0,0,0-.4-1.92,21.31,21.31,0,0,1-1.14-6c-.16-2.12-.14-4.24-.09-6.36,0-.9.07-1.79,0-2.69a5.73,5.73,0,0,1,.09-2,3,3,0,0,0,.8-1.82c0-.52-.41-.9-.62-1.36a6,6,0,0,1-.12-2.28A26.56,26.56,0,0,1,63,68a57.78,57.78,0,0,1,3.36-6.49l.1-.17a20.41,20.41,0,0,0,5.27.66,9,9,0,0,0,2.91-.55,8.58,8.58,0,0,0,2.76-1.83C79.31,58,80.93,56,82.66,54.24s3.47-3.69,5.77-4.64c0,.26,0,.52.06.77A9.7,9.7,0,0,0,89.81,54a52,52,0,0,0,5.07,7.27c.93,1.15,1.9,2.29,2.79,3.48s1.57,2.25,2.39,3.35a22.17,22.17,0,0,1,1.74,2.63,13,13,0,0,1,1,2.94,2.45,2.45,0,0,1,0,.27,15.33,15.33,0,0,1-.59,1.73,2.05,2.05,0,0,0,1.06,1.9,11.55,11.55,0,0,1-.53,4.91c-.5,1.75-1.07,3.5-1.68,5.21A45.89,45.89,0,0,1,98.89,93a5.64,5.64,0,0,1-3.14,3.18.17.17,0,0,0-.12.17c-.37.5-.11,1.31.07,1.84a2.08,2.08,0,0,1,.2,1.38,2.61,2.61,0,0,1-1.06,1.26.05.05,0,0,0,0,0l-.13,0-.3,0s0,.07,0,.08a3.19,3.19,0,0,0,2.5-.58,3.07,3.07,0,0,1-.71.9s0,.08,0,.06l.09,0h0c.67-.25,1.7-.31,2.27-.84.11.54.85.89,1.29,1.09h0a.45.45,0,0,0,.28.12s.05,0,0,0a1,1,0,0,1-.26-.75c.34-.67,1.09-1,1.42-1.62s-.19-1.33-.54-1.93a18.49,18.49,0,0,1,1.34-4.75c.82-2.11,1.61-4.23,2.43-6.35S106.26,82,107.18,80a22.64,22.64,0,0,1,1.61-3,4.08,4.08,0,0,0,.56-1.1,2,2,0,0,0,.05-.55.29.29,0,0,0,0-.09,8.52,8.52,0,0,0-1.12-3.59A17.31,17.31,0,0,1,106.76,68c-.68-2.84,0-5.94.45-8.78.22-1.54.44-3.09.75-4.62A37.47,37.47,0,0,1,109.31,50q.78-2.22,1.58-4.43l.42-1.17a11.34,11.34,0,0,1,1.41,2.1q1.17,2,2.14,4.16a31,31,0,0,1,1.56,4.19c.22.73.4,1.47.56,2.22a3.17,3.17,0,0,1-.06,1.95,3.22,3.22,0,0,1-1,.48c-.46.15-1.13.33-1.38.79s.13.88.49,1.18a.76.76,0,0,1-.21,1.37l-.92.35c-1.08.43-2.24,1.37-1.59,2.65.37.74,1,1.26,1.42,2a1.26,1.26,0,0,1-1.52,1.86.09.09,0,0,0-.09.15,1.06,1.06,0,0,0,.26.17,2,2,0,0,0,.89.43,1.73,1.73,0,0,0,.6,0,4.68,4.68,0,0,0-.9,1.56,2.13,2.13,0,0,0-.12,1.69c.58,1.06,2.1.83,2.83,1.7.47.9-.85,2.13-.58,3.14.22.82,1,1.25,1.7,1.7.37.26,1,.54.81,1.08a1.68,1.68,0,0,1-.81.91c-.06,0-.05.11,0,.11h.12a1.62,1.62,0,0,0,.66-.07c-.26.61.26,1.31.83,1.6a1.68,1.68,0,0,0,.83.43s.07-.06,0-.09c-.46-.23-.71-.4-.74-1a1.86,1.86,0,0,1,.42-1.19,10.56,10.56,0,0,1,1.8-1.53c1.16-1,.3-2.43-.44-3.43a2.94,2.94,0,0,0,1.49.08c.06,0,0-.09,0-.1l-.2,0a1.62,1.62,0,0,1-.92-.74,2.27,2.27,0,0,1,.09-1.77c.46-1,1.68-1.15,2.28-2C123.86,71.23,122.49,69.49,121.43,68.68Z"/><path class="cls-7" d="M37.75,31.55c-.9,1.41-2.32,2.41-4,1.86L33.31,33a5.23,5.23,0,0,0,2,2,14.69,14.69,0,0,0,4.31,1.53,11.6,11.6,0,0,0,3.37.25,14.85,14.85,0,0,0,2.78-.61,11.45,11.45,0,0,1-1.66.24,7.83,7.83,0,0,1-3.86-.59,3.67,3.67,0,0,1-2.21-3,7.15,7.15,0,0,1,.34-2.38A9.06,9.06,0,0,1,37.75,31.55Z"/><path class="cls-7" d="M121.43,68.68a2.25,2.25,0,0,0,1.06-.52h0a.06.06,0,0,0,0-.07s0-.09,0-.08h0c-.49,0-1,.07-1.28-.36a1.13,1.13,0,0,1,.07-1.46c.53-.6,1.22-.92,1.18-1.83a7.14,7.14,0,0,0-1-2.71,3.25,3.25,0,0,0-1.64-1.59,2.15,2.15,0,0,0,1.34-.61c.05-.05,0-.12-.07-.11a2.19,2.19,0,0,0-.33.12,2,2,0,0,1-1.81-.89A6.8,6.8,0,0,1,118,56a57.63,57.63,0,0,0-1.67-5.58c-.64-1.82-1.5-3.52-2.29-5.27a13.64,13.64,0,0,1-1.31-5.06c.11-1,.18-1.93.29-2.9.12-1.16.34-2.31.49-3.47a13.86,13.86,0,0,0-.07-4.37c0-.22-.1-.44-.16-.66a20.61,20.61,0,0,1-.06,2.36,42,42,0,0,1-3,11.46C108.44,47.08,107.31,53,103.08,56c-5.41,3.82-11.89-1.25-12.92-7.14a9.58,9.58,0,0,1,.92-5.69,6.48,6.48,0,0,1,3.13-3.09c-.73.11-1.45.19-2.18.31-.08,0-.17-.09-.09-.16A7,7,0,0,1,94.8,38.7q-.94.07-1.89.21a.1.1,0,0,1-.09-.17A9.28,9.28,0,0,1,95.41,37a8.16,8.16,0,0,1,1-.4,17,17,0,0,0-4.77.27c-5,.89-10.22,6.38-15.34,5.19-2.28-.52-4.25-3.65-6.89-5.07a9.22,9.22,0,0,0-6.1-1.12,12.2,12.2,0,0,1,3.24.41c.08,0,.1.18,0,.19-.5.07-1,.15-1.48.25a6,6,0,0,1,2.28.55.1.1,0,0,1-.07.18,3.25,3.25,0,0,0-1.2-.11c1.27.83,2.55,1.34,2.81,4.46.44,5.24-1.45,11.45-6.49,13.65-9.23,4-15.2,1.5-15.47-4.4a20.65,20.65,0,0,1,.47-4.21,22.78,22.78,0,0,1,.94-4.08,31.13,31.13,0,0,1,3.94-7c-.61.46-1.17,1-1.77,1.47a18.59,18.59,0,0,1-2.28,1.54,14.69,14.69,0,0,1-4.89,1.79,14.2,14.2,0,0,1-5.66-.19,13.16,13.16,0,0,1-2.62-1.05,6.86,6.86,0,0,1-1.51-.92c-3.34-2.35-5.61-7-4.64-11a.1.1,0,0,1,.18,0c.39.63.68,1.31,1.07,1.94a5,5,0,0,0,.87,1.19l-.22-.33,0,0c.37-.25.44-.77.58-1.16A8.45,8.45,0,0,0,32,26.86a4.69,4.69,0,0,0-.38-2.36c.37.26.77.51.82,1a0,0,0,0,0,.08,0,.86.86,0,0,0,0-.42,3.65,3.65,0,0,0-.23-1.37,3,3,0,0,0-.26-.54l.15.06a1.47,1.47,0,0,1,.74.48l0,.1a0,0,0,0,0,0,0,.06.06,0,0,0,.09,0,1.35,1.35,0,0,0-.08-.24,3.74,3.74,0,0,0-.63-1.65,3.46,3.46,0,0,0-1.07-1A7.08,7.08,0,0,0,32.8,19a1.88,1.88,0,0,0,.22-.84,1.43,1.43,0,0,0,1.28.52A6.35,6.35,0,0,0,35.92,18a2.35,2.35,0,0,0,1-1,1.59,1.59,0,0,0-.31-1.56l.25.12c.19.11.37.33.58.39a2,2,0,0,1,.1.21s.06,0,.07,0a2.08,2.08,0,0,0-.5-1.54l.21.07a2.54,2.54,0,0,1,.82.52c.06.06.15,0,.13-.09a.7.7,0,0,0-.13-.24A6.61,6.61,0,0,0,37,12.41c.22.55.35,1.14.62,1.67,0,.07-.44-.21-1.31-1-.29-.27-1-.79-2.53-.14a8.8,8.8,0,0,0-1.61,1,2,2,0,0,1-1.13.49.1.1,0,0,1-.09-.13,5.31,5.31,0,0,1,1.54-2.38l-.19.15a10,10,0,0,0-1,.79,1.28,1.28,0,0,0-.15-.85,4.76,4.76,0,0,0-.8-1,5.1,5.1,0,0,0-1-.89,2.43,2.43,0,0,0-1.47-1.81,1.25,1.25,0,0,0-.9.22,27.63,27.63,0,0,0-6-3.12c.68.33,1.41.67,2.11,1.08l1.66,1a2.31,2.31,0,0,1,.9,1c.27.74-.2,1.46-.47,2.16a9.63,9.63,0,0,1,1.06-1.15c.4-.34,1-.78,1.52-.64,1.33.33,1.23,2.46,1.11,3.48,0,.1-.16.14-.19,0-.14-.73-.35-2.14-1.25-2.31-1.16-.22-1.41,1.29-1.71,2.08a.11.11,0,0,1-.12.07,4.2,4.2,0,0,1-1.28-.74,6.83,6.83,0,0,0-1.55-.78,15,15,0,0,0-3.68-.91,11.55,11.55,0,0,0-7,1.57.1.1,0,0,1-.14-.05c-.28-.72-1.23-2.45-2.15-1.53a7.6,7.6,0,0,0-1.08,1.71.1.1,0,0,1-.18,0A4.18,4.18,0,0,1,9,9.67a2.66,2.66,0,0,1,.86-1.33c1-.52,1.54.75,2.07,1.46a2.7,2.7,0,0,1-.22-1.58A3.07,3.07,0,0,1,12.79,7,18,18,0,0,1,14.4,5.71l.22-.14-.27.12A14.08,14.08,0,0,0,10.77,8a1,1,0,0,0-.9-.16C9.39,8,9.13,8.61,8.94,9l-.09.22c-.46.23-.9.55-1.35.81a5.58,5.58,0,0,0-1.41,1.2L5.84,11c-.12-.12-.24-.24-.37-.35a11.19,11.19,0,0,1,1.59,2.76c0,.09-.1.15-.16.09-.75-.73-1.49-2.07-2.75-1.64-1,.34-1.31,1.13-2.09,1.73-1.07.83-1,.38-.93.3.21-.62.77-.8,1.12-1.32-.11,0,.34-.27.23-.25s-.16-.06-.11-.14a1.14,1.14,0,0,1,.27-.31c-.58.18-1.09.54-1.69.68a.1.1,0,0,1-.12-.12,3.76,3.76,0,0,1,.24-.74,5.9,5.9,0,0,0-.61,1.52l0,0a.07.07,0,0,0,0,.09s0,0,.07,0h0l.25-.1-.17.16a2.79,2.79,0,0,0-.5,1.67.46.46,0,0,0-.09.15.05.05,0,0,0,.06.07c.24-.08.45-.23.69-.32A.79.79,0,0,1,1,14.9a1.05,1.05,0,0,0-.2.47,1.77,1.77,0,0,0,.5,1.38,3.35,3.35,0,0,0,1.27,1.1c.48.13.66-.18,1.27-.5l.08,0a1.9,1.9,0,0,0-.53,1.49,1.64,1.64,0,0,0,.87,1.11,7.85,7.85,0,0,0,3,1.27,4,4,0,0,0-1.09,2.15,1,1,0,0,0,0,.32s.06,0,.07,0a1.76,1.76,0,0,1,1.13-.77,3.63,3.63,0,0,0-.59,2.5s0,0,0,0a.34.34,0,0,0,0,.1s.06,0,.08,0c.18-.41.73-.51,1.06-.79a5.85,5.85,0,0,0,.19,3.75,2.29,2.29,0,0,0,.07.28,0,0,0,0,0,.08,0,5.6,5.6,0,0,1,.1-.81,2.67,2.67,0,0,1,.13-.4A5.44,5.44,0,0,0,9,30.47s0,0,0,0,0,.08,0,.11.06,0,.06,0a3.8,3.8,0,0,1,.2-.9,5.15,5.15,0,0,0,1.07,3.16,0,0,0,0,0,0,0,.74.74,0,0,0,0,.14s.06,0,.06,0c0-.41,0-.82,0-1.24a21.19,21.19,0,0,0,1.83,5.92c1,2.21,2,4.4,3.21,6.5C17.8,48.2,21,52,25.24,54a3.39,3.39,0,0,0,.91,2.17,1.66,1.66,0,0,0,.2.4c0,.05.11,0,.09,0a3.11,3.11,0,0,1-.07-1.76c.17.95,1.12,1.61,1.93,2.13a.84.84,0,0,0,.28.15c.05,0,.11,0,.05-.09A2.16,2.16,0,0,1,28,55.37a4.37,4.37,0,0,0,1,.57,16.67,16.67,0,0,0,2.26.76,40.18,40.18,0,0,0,5.25.73,22.16,22.16,0,0,0,5,.28,10.31,10.31,0,0,0,4.18-1.83C46.45,58.4,49,60.16,51,61.55a3.84,3.84,0,0,0,1.32.71A1.86,1.86,0,0,0,52,63.84v0l0,0s0,.1.06.07a5.48,5.48,0,0,1,1.18-.47,1.83,1.83,0,0,0,.25,1.15.17.17,0,0,0,0,.07.07.07,0,0,0,.13,0,1.1,1.1,0,0,1,.32-.47,1.11,1.11,0,0,1,.52-.23l0,0a11.28,11.28,0,0,1,1.12.93,4,4,0,0,1,1,1.67,30.82,30.82,0,0,1,.91,4c.29,1.51.56,3,.86,4.52s.6,2.71.84,4.08a2.16,2.16,0,0,1-.1.86c-.08.24-.31.36-.32.63,0,.43.46.82.9,1.06.38,1.21.16,2.84.07,4.93-.08,1.81-.3,3.5-.4,5.31-.06,1-.23,2-.27,2.91s-.17,2-.22,3c-.1,1.86-.58,1.69-.34,2.44a1.64,1.64,0,0,0,.74.8,5.66,5.66,0,0,1-.87.48c-.33.14-.69.15-1,.28l0,0h-.17a0,0,0,0,0,0,.09,7.83,7.83,0,0,0,.78.36,4.82,4.82,0,0,0,.93.11,2.16,2.16,0,0,0,1-.18,3.22,3.22,0,0,0-.38.85v0s0,0,0,0a.11.11,0,0,0,.17,0l.12-.17c.48-.26,1.18-.4,1.48-.84.34.55,1.2.7,1.77.81h0l.17.05a.06.06,0,0,0,0-.1,1.27,1.27,0,0,1-.38-.48.36.36,0,0,1,0-.09,2.44,2.44,0,0,0,1.05-.3l0,0h0a.06.06,0,0,0,0-.11,4.12,4.12,0,0,0-.47-.22.92.92,0,0,0,.47-.21v0l.09,0c.06,0,0-.12,0-.12a1.47,1.47,0,0,1-.89-.25c-.24-.2-.08-.47,0-.72a1,1,0,0,0,.53-.59,3.41,3.41,0,0,0-.4-1.92,21.31,21.31,0,0,1-1.14-6c-.16-2.12-.14-4.24-.09-6.36,0-.9.07-1.79,0-2.69a5.73,5.73,0,0,1,.09-2,3,3,0,0,0,.8-1.82c0-.52-.41-.9-.62-1.36a6,6,0,0,1-.12-2.28A26.56,26.56,0,0,1,63,68a57.78,57.78,0,0,1,3.36-6.49l.1-.17a20.41,20.41,0,0,0,5.27.66,9,9,0,0,0,2.91-.55,8.58,8.58,0,0,0,2.76-1.83C79.31,58,80.93,56,82.66,54.24s3.47-3.69,5.77-4.64c0,.26,0,.52.06.77A9.7,9.7,0,0,0,89.81,54a52,52,0,0,0,5.07,7.27c.93,1.15,1.9,2.29,2.79,3.48s1.57,2.25,2.39,3.35a22.17,22.17,0,0,1,1.74,2.63,13,13,0,0,1,1,2.94,2.45,2.45,0,0,1,0,.27,15.33,15.33,0,0,1-.59,1.73,2.05,2.05,0,0,0,1.06,1.9,11.55,11.55,0,0,1-.53,4.91c-.5,1.75-1.07,3.5-1.68,5.21A45.89,45.89,0,0,1,98.89,93a5.64,5.64,0,0,1-3.14,3.18.17.17,0,0,0-.12.17c-.37.5-.11,1.31.07,1.84a2.08,2.08,0,0,1,.2,1.38,2.61,2.61,0,0,1-1.06,1.26.05.05,0,0,0,0,0l-.13,0-.3,0s0,.07,0,.08a3.19,3.19,0,0,0,2.5-.58,3.07,3.07,0,0,1-.71.9s0,.08,0,.06l.09,0h0c.67-.25,1.7-.31,2.27-.84.11.54.85.89,1.29,1.09h0a.45.45,0,0,0,.28.12s.05,0,0,0a1,1,0,0,1-.26-.75c.34-.67,1.09-1,1.42-1.62s-.19-1.33-.54-1.93a18.49,18.49,0,0,1,1.34-4.75c.82-2.11,1.61-4.23,2.43-6.35S106.26,82,107.18,80a22.64,22.64,0,0,1,1.61-3,4.08,4.08,0,0,0,.56-1.1,2,2,0,0,0,.05-.55.29.29,0,0,0,0-.09,8.52,8.52,0,0,0-1.12-3.59A17.31,17.31,0,0,1,106.76,68c-.68-2.84,0-5.94.45-8.78.22-1.54.44-3.09.75-4.62A37.47,37.47,0,0,1,109.31,50q.78-2.22,1.58-4.43l.42-1.17a11.34,11.34,0,0,1,1.41,2.1q1.17,2,2.14,4.16a31,31,0,0,1,1.56,4.19c.22.73.4,1.47.56,2.22a3.17,3.17,0,0,1-.06,1.95,3.22,3.22,0,0,1-1,.48c-.46.15-1.13.33-1.38.79s.13.88.49,1.18a.76.76,0,0,1-.21,1.37l-.92.35c-1.08.43-2.24,1.37-1.59,2.65.37.74,1,1.26,1.42,2a1.26,1.26,0,0,1-1.52,1.86.09.09,0,0,0-.09.15,1.06,1.06,0,0,0,.26.17,2,2,0,0,0,.89.43,1.73,1.73,0,0,0,.6,0,4.68,4.68,0,0,0-.9,1.56,2.13,2.13,0,0,0-.12,1.69c.58,1.06,2.1.83,2.83,1.7.47.9-.85,2.13-.58,3.14.22.82,1,1.25,1.7,1.7.37.26,1,.54.81,1.08a1.68,1.68,0,0,1-.81.91c-.06,0-.05.11,0,.11h.12a1.62,1.62,0,0,0,.66-.07c-.26.61.26,1.31.83,1.6a1.68,1.68,0,0,0,.83.43s.07-.06,0-.09c-.46-.23-.71-.4-.74-1a1.86,1.86,0,0,1,.42-1.19,10.56,10.56,0,0,1,1.8-1.53c1.16-1,.3-2.43-.44-3.43a2.94,2.94,0,0,0,1.49.08c.06,0,0-.09,0-.1l-.2,0a1.62,1.62,0,0,1-.92-.74,2.27,2.27,0,0,1,.09-1.77c.46-1,1.68-1.15,2.28-2C123.86,71.23,122.49,69.49,121.43,68.68ZM9.7,18.48a8.33,8.33,0,0,1-2.54,0A4.69,4.69,0,0,1,5,17.9c-.51-.37-.4-.91,0-1.29a9.87,9.87,0,0,1,2.31-1.18,14.51,14.51,0,0,0,2.89-1.95,21.7,21.7,0,0,1,3.09-1.9,15.89,15.89,0,0,1,2.9-1,9.69,9.69,0,0,0-2.11,3,6.17,6.17,0,0,1-1.57,2.78c-.54.49-1.14.92-1.68,1.41A2.56,2.56,0,0,1,9.7,18.48Zm6.88,4.78c-.53.34-1.61.93-2.23.52-.38-.24-.53-.64-.79-1a2.09,2.09,0,0,0-1.75-.8c-.23,0-1.45.1-1.15-.5s1.08-1,1.57-1.43a10.07,10.07,0,0,0,1.09-1.63.06.06,0,0,1,0,0c.1-.24.23-.49.51-.52s.58.28.75.47a4.6,4.6,0,0,0,1.13.93c.71.39,1.27.62,1.41,1.49S17.43,22.73,16.58,23.26Zm7.6-.22a1.94,1.94,0,0,1-1.65-1.34,1.54,1.54,0,0,0-.29.83,3.43,3.43,0,0,0,.14.71c.05.34-.18.54-.47.69-.73.4-1.86-.3-2.5-.61s-1.57-.61-1.61-1.57.26-1.94,1.19-2.13a.08.08,0,0,1,.07,0c.18-.08.37-.15.55-.21.56-.19,1.13-.33,1.68-.53A2,2,0,0,0,22.51,18l0-.18c0-.06,0-.13.09-.12,1.05.11,1.62,1.39,2,2.23a4.51,4.51,0,0,1,.28.88,2,2,0,0,0,.3,1c.26.29.68.59.79,1C26.12,23.4,24.4,23.09,24.18,23Zm2.06-4.47c-.4-.37-.69-.83-1.1-1.18s-1.11-.59-1.61-1c-.8-.6-.93-1.54-1.27-2.42a7.27,7.27,0,0,0-1-2,15.19,15.19,0,0,0-1-1.27,8.72,8.72,0,0,1,2.32.71A18.7,18.7,0,0,1,25,12.79a36.33,36.33,0,0,1,3.63,3.27c-.08-.21-.3-.65-.38-.85a.09.09,0,0,1,.07-.12,3.85,3.85,0,0,1,3,.84c.53.39,1.33,1.19,1.21,1.94s-1.06,1.1-2,1.23a7.37,7.37,0,0,1-2.24.12A3.54,3.54,0,0,1,26.24,18.57Z"/><path class="cls-7" d="M3.89,17.31A2.74,2.74,0,0,0,3.5,18c1.16-1.6,3-2.62,4.62-3.75a3.79,3.79,0,0,0-1.29.21.08.08,0,0,1-.11,0c-.44-.74-1.19-2.72-2.36-2.38-.63.19-.93.8-1.21,1.34a3.06,3.06,0,0,0-.25,1.81c0,.34,0,.68-.4.82a.65.65,0,0,1-.7-.13,1.21,1.21,0,0,1-.19-1.52A2.5,2.5,0,0,0,.5,14.7a1.63,1.63,0,0,0-.48.57h0c.24-.08.45-.23.69-.32A.79.79,0,0,1,1,14.9a1.05,1.05,0,0,0-.2.47,1.77,1.77,0,0,0,.5,1.38,3.35,3.35,0,0,0,1.27,1.1c.48.13.66-.18,1.27-.5Z"/><path class="cls-7" d="M3.11,13.41a2,2,0,0,0-.06.47A1.07,1.07,0,0,0,3.74,15l.54.15a.11.11,0,0,1,0,.17,2.26,2.26,0,0,0-.27.36c.14-.09.28-.18.43-.26s.17,0,.14.11c-.08.28-.16.55-.23.82.28-.31.59-.59.85-.92a2.46,2.46,0,0,1,.58-.58c-.06-.13-.13-.24-.19-.36a.1.1,0,0,1,.08-.15,5.43,5.43,0,0,1,1,0c-.45-.76-1.19-2.68-2.34-2.34-.63.19-.93.8-1.21,1.34Z"/><path class="cls-7" d="M37.88,14.9a1.54,1.54,0,0,0-.17-.19A3.26,3.26,0,0,0,36,14a5.09,5.09,0,0,1,.67.79c0,.08-.06.18-.14.13a3.37,3.37,0,0,1-.66-.39c-.24-.24-.31-.73-.55-1-.84-.89-1.87,0-2.55.72-.25.26-.66.92-1.08.92s-.9,0-1.35-.07A5.31,5.31,0,0,1,33,18.55a1.64,1.64,0,0,0,.05-.37,1.43,1.43,0,0,0,1.28.52A6.35,6.35,0,0,0,35.92,18a2.35,2.35,0,0,0,1-1,1.59,1.59,0,0,0-.31-1.56l.25.12c.19.11.37.33.58.39a2,2,0,0,1,.1.21s.06,0,.07,0a2.08,2.08,0,0,0-.5-1.54l.21.07A1.75,1.75,0,0,1,37.88,14.9Z"/><path class="cls-7" d="M32.47,15.62a5.05,5.05,0,0,1,.51.43,10.67,10.67,0,0,0,1.5,1.18,1.91,1.91,0,0,1-.11-.41c0-.07,0-.15.12-.12s.65.53.85.29a2.1,2.1,0,0,0,.39-1.39.1.1,0,0,1,.17-.07,1.61,1.61,0,0,1,.21.3,8.54,8.54,0,0,0-.2-1.33h0c-.24-.24-.31-.73-.55-1-.84-.89-1.87,0-2.55.72a9.67,9.67,0,0,1-.66.73A.59.59,0,0,0,32.47,15.62Z"/><path class="cls-7" d="M122.53,68h0c-.49,0-1,.07-1.28-.36a1.13,1.13,0,0,1,.07-1.46c.38-.44.85-.73,1.06-1.2a.34.34,0,0,1-.49.05c-.21-.17-1,.65-1.32.76a.09.09,0,0,1-.12-.12,4.74,4.74,0,0,0,.14-1.06,5.56,5.56,0,0,0-.84,1.09.1.1,0,0,1-.18,0,10.38,10.38,0,0,1-.05-1.12,2.38,2.38,0,0,0-.18,2.09,4.07,4.07,0,0,1,.18,1.83c0,.11-.16.09-.19,0-.32-1-1.24-1.72-1.47-2.71a2,2,0,0,0,.23,1.47.09.09,0,0,1-.13.13c-.67-.35-1.93-.63-2.06-1.54a2.66,2.66,0,0,1,.31-1.53,2.26,2.26,0,0,0-.84,2.09c.21.66,1.1,1.42.32,2a.1.1,0,0,1-.17-.07,2.24,2.24,0,0,0-.16-.94,2.46,2.46,0,0,1-.48,1.28.1.1,0,0,1-.17-.1c.59-1.38-.76-2-1.16-3.11a1.3,1.3,0,0,1,.09-1.22.08.08,0,0,1,0-.1,3,3,0,0,1,1.67-.91c.44-.14,1.72-.33,1.85-.89.09-.38-.37-.75-.63-1s-.82-.44-1-.79.23-.49.42-.58c.49-.25,1-.36,1.53-.62a.9.9,0,0,0,.48-.76,5.32,5.32,0,0,0-.19-1.31c-.24-.92-.58-1.8-.87-2.7-.37-1.13-.71-2.26-1.1-3.38a24.6,24.6,0,0,0-1.59-3.6,14.22,14.22,0,0,1-1.47-3,9.55,9.55,0,0,1-.12-3,8.14,8.14,0,0,1,.13-1.45v-.11c.11-1,.18-1.93.29-2.9,0-.24.06-.49.09-.73,0,.23-.1.47-.16.7-.28,1.21-.67,2.4-1,3.59s-.76,2.61-1.2,3.9-.93,2.56-1.41,3.84c-1,2.55-1.85,5.11-2.61,7.72a53.52,53.52,0,0,0-1.58,6.47l0,.32a11.85,11.85,0,0,1-.5,2.77c-.22.61-.62,1.38-1.35,1.49a2.74,2.74,0,0,1-2.16-1.06c-.84-.83-1.61-1.73-2.43-2.58-3.74-3.82-8-7.84-9.35-13.23a9.44,9.44,0,0,1,.59-6.59,8.14,8.14,0,0,1,3-3.57l-.84.12c-.08,0-.17-.09-.09-.16A7,7,0,0,1,94.8,38.7q-.94.07-1.89.21a.1.1,0,0,1-.09-.17A9.28,9.28,0,0,1,95.41,37l.16-.07a9.34,9.34,0,0,0-1.48.44,7.09,7.09,0,0,0-3,2.47,1.29,1.29,0,0,1,.48-.1l0,0c.1-.07.2.1.1.17h0s0,0-.09,0c-.61.41-1.23.81-1.81,1.28a5.53,5.53,0,0,0-1.28,1.32,3.55,3.55,0,0,1,2.36-1,.1.1,0,0,1,.07.17c-1.33,1.33-1.76,3.18-2.58,4.81a6.72,6.72,0,0,1-1.49,2.08,21.52,21.52,0,0,1-2.16,1.52,20,20,0,0,0-3.16,3A21.81,21.81,0,0,1,78.76,56a4.6,4.6,0,0,1-3,1c-.53,0-1-.09-1.58-.16a3,3,0,0,1-1.17-.33c-.81-.51-.57-1.54-.38-2.32a17.93,17.93,0,0,0,.49-4,15.29,15.29,0,0,0-1.91-8A.1.1,0,0,1,71.4,42a6.55,6.55,0,0,1,1.29.94,23.12,23.12,0,0,0-2.35-3.78c0-.07,0-.16.11-.14a3.25,3.25,0,0,1,1.3.65c-1.42-1.77-3.08-3.64-5.38-3.83a13.6,13.6,0,0,1,1.76.85.1.1,0,0,1,0,.18h-.73A5.17,5.17,0,0,1,69.22,38a.1.1,0,0,1-.11.16,4.2,4.2,0,0,0-1.64-.39h0l.13.07a.09.09,0,0,1,0,.1,12.06,12.06,0,0,1,3,6.1,14.21,14.21,0,0,1,.19,6.45,19.71,19.71,0,0,1-3.16,6.79,47.65,47.65,0,0,0-4.6,6.79c-.53,1.11-.82,2.37-1.4,3.45a1.86,1.86,0,0,1-1.59,1.18c-1.83-.08-1.89-2.38-2.86-3.49-1.54-1.78-3.89-2.68-5.85-3.93s-3.88-2.53-4.8-4.59c-1.1-2.43-.52-4.94-.18-7.48A22.75,22.75,0,0,1,48.08,42a37.54,37.54,0,0,1,3.4-5.55c-.3.27-.6.53-.92.77l-.49.37A23.05,23.05,0,0,0,45,47.15c0,.14-.07.29-.11.43,0-.14.07-.29.11-.43a17.06,17.06,0,0,0,.19-2.56,9.58,9.58,0,0,1-2.51,4.54,7.69,7.69,0,0,1-3.87,2,11.27,11.27,0,0,1-3.33,0c.17.08.33.17.49.26a.1.1,0,0,1,0,.19,21.62,21.62,0,0,1-11.65-3.09,6.71,6.71,0,0,0,1.86,1.82l.35.17a.1.1,0,0,1-.08.18h0l-.27-.13A28.67,28.67,0,0,1,23,49a20.7,20.7,0,0,1-2.44-1.83,25.31,25.31,0,0,1-4.27-4.85c-.34-.51-.66-1-1-1.58a26.56,26.56,0,0,1-4.53-10.6c-.23,3.14,1.12,6.29,2.4,9.42.73,1.57,1.51,3.12,2.36,4.63C17.8,48.2,21,52,25.24,54a3.39,3.39,0,0,0,.91,2.17,1.66,1.66,0,0,0,.2.4c0,.05.11,0,.09,0a3.11,3.11,0,0,1-.07-1.76c.17.95,1.12,1.61,1.93,2.13a.84.84,0,0,0,.28.15c.05,0,.11,0,.05-.09A2.16,2.16,0,0,1,28,55.37a4.37,4.37,0,0,0,1,.57,16.67,16.67,0,0,0,2.26.76,40.18,40.18,0,0,0,5.25.73,22.16,22.16,0,0,0,5,.28,10.31,10.31,0,0,0,4.18-1.83C46.45,58.4,49,60.16,51,61.55a3.84,3.84,0,0,0,1.32.71A1.86,1.86,0,0,0,52,63.84v0l0,0s0,.1.06.07a5.48,5.48,0,0,1,1.18-.47,1.83,1.83,0,0,0,.25,1.15.17.17,0,0,0,0,.07.07.07,0,0,0,.13,0,1.1,1.1,0,0,1,.32-.47,1.11,1.11,0,0,1,.52-.23l0,0a11.28,11.28,0,0,1,1.12.93,4,4,0,0,1,1,1.67,30.82,30.82,0,0,1,.91,4c.29,1.51.56,3,.86,4.52s.6,2.71.84,4.08a2.16,2.16,0,0,1-.1.86c-.08.24-.31.36-.32.63,0,.43.46.82.9,1.06.38,1.21.16,2.84.07,4.93-.08,1.81-.3,3.5-.4,5.31-.06,1-.23,2-.27,2.91s-.17,2-.22,3c-.1,1.86-.58,1.69-.34,2.44a1.64,1.64,0,0,0,.74.8,5.66,5.66,0,0,1-.87.48c-.33.14-.69.15-1,.28l0,0h-.17a0,0,0,0,0,0,.09,7.83,7.83,0,0,0,.78.36,4.82,4.82,0,0,0,.93.11,2.16,2.16,0,0,0,1-.18,3.22,3.22,0,0,0-.38.85v0s0,0,0,0a.11.11,0,0,0,.17,0l.12-.17c.48-.26,1.18-.4,1.48-.84.34.55,1.2.7,1.77.81h0l.17.05a.06.06,0,0,0,0-.1,1.27,1.27,0,0,1-.38-.48.36.36,0,0,1,0-.09,2.44,2.44,0,0,0,1.05-.3l0,0h0a.06.06,0,0,0,0-.11,4.12,4.12,0,0,0-.47-.22.92.92,0,0,0,.47-.21v0l.09,0c.06,0,0-.12,0-.12a1.47,1.47,0,0,1-.89-.25c-.24-.2-.08-.47,0-.72a1,1,0,0,0,.53-.59,3.41,3.41,0,0,0-.4-1.92,21.31,21.31,0,0,1-1.14-6c-.16-2.12-.14-4.24-.09-6.36,0-.9.07-1.79,0-2.69a5.73,5.73,0,0,1,.09-2,3,3,0,0,0,.8-1.82c0-.52-.41-.9-.62-1.36a6,6,0,0,1-.12-2.28A26.56,26.56,0,0,1,63,68a57.78,57.78,0,0,1,3.36-6.49l.1-.17a20.41,20.41,0,0,0,5.27.66,9,9,0,0,0,2.91-.55,8.58,8.58,0,0,0,2.76-1.83C79.31,58,80.93,56,82.66,54.24s3.47-3.69,5.77-4.64c0,.26,0,.52.06.77A9.7,9.7,0,0,0,89.81,54a52,52,0,0,0,5.07,7.27c.93,1.15,1.9,2.29,2.79,3.48s1.57,2.25,2.39,3.35a22.17,22.17,0,0,1,1.74,2.63,13,13,0,0,1,1,2.94,2.45,2.45,0,0,1,0,.27,15.33,15.33,0,0,1-.59,1.73,2.05,2.05,0,0,0,1.06,1.9,11.55,11.55,0,0,1-.53,4.91c-.5,1.75-1.07,3.5-1.68,5.21A45.89,45.89,0,0,1,98.89,93a5.64,5.64,0,0,1-3.14,3.18.17.17,0,0,0-.12.17c-.37.5-.11,1.31.07,1.84a2.08,2.08,0,0,1,.2,1.38,2.61,2.61,0,0,1-1.06,1.26.05.05,0,0,0,0,0l-.13,0-.3,0s0,.07,0,.08a3.19,3.19,0,0,0,2.5-.58,3.07,3.07,0,0,1-.71.9s0,.08,0,.06l.09,0h0c.67-.25,1.7-.31,2.27-.84.11.54.85.89,1.29,1.09h0a.45.45,0,0,0,.28.12s.05,0,0,0a1,1,0,0,1-.26-.75c.34-.67,1.09-1,1.42-1.62s-.19-1.33-.54-1.93a18.49,18.49,0,0,1,1.34-4.75c.82-2.11,1.61-4.23,2.43-6.35S106.26,82,107.18,80a22.64,22.64,0,0,1,1.61-3,4.08,4.08,0,0,0,.56-1.1,2,2,0,0,0,.05-.55.29.29,0,0,0,0-.09,8.52,8.52,0,0,0-1.12-3.59A17.31,17.31,0,0,1,106.76,68c-.68-2.84,0-5.94.45-8.78.22-1.54.44-3.09.75-4.62A37.47,37.47,0,0,1,109.31,50q.78-2.22,1.58-4.43l.42-1.17a11.34,11.34,0,0,1,1.41,2.1q1.17,2,2.14,4.16a31,31,0,0,1,1.56,4.19c.22.73.4,1.47.56,2.22a3.17,3.17,0,0,1-.06,1.95,3.22,3.22,0,0,1-1,.48c-.46.15-1.13.33-1.38.79s.13.88.49,1.18a.76.76,0,0,1-.21,1.37l-.92.35c-1.08.43-2.24,1.37-1.59,2.65.37.74,1,1.26,1.42,2a1.26,1.26,0,0,1-1.52,1.86.09.09,0,0,0-.09.15,1.06,1.06,0,0,0,.26.17,2,2,0,0,0,.89.43,1.73,1.73,0,0,0,.6,0,4.68,4.68,0,0,0-.9,1.56,2.13,2.13,0,0,0-.12,1.69c.58,1.06,2.1.83,2.83,1.7.47.9-.85,2.13-.58,3.14a1.76,1.76,0,0,0,.22.48,2.12,2.12,0,0,1,.9-2,.09.09,0,0,1,.14.06c.07.43-.18,1.35.41,1.39,0-.15,0-.3-.06-.46s.09-.18.16-.1a1.37,1.37,0,0,0,2.37-.64.1.1,0,0,1,.18,0,1.94,1.94,0,0,1,.19,1.69,2.22,2.22,0,0,0,.46-.79.1.1,0,0,1,.14-.06c.5.32.44,1,.52,1.47.38-.14.46-.58.43-1a6.62,6.62,0,0,0-.83-1.41,2.94,2.94,0,0,0,1.49.08c.06,0,0-.09,0-.1l-.2,0a1.62,1.62,0,0,1-.92-.74.32.32,0,0,0,0-.09,1.82,1.82,0,0,1-.66-1,2.88,2.88,0,0,1,.29-2,3,3,0,0,0-.86,1.67c0,.1-.17.15-.19,0a3.2,3.2,0,0,1,.14-1.87c-.86.72-1.63,2-1,3,0,.08,0,.2-.14.13a1.65,1.65,0,0,1-.73-1.59c.08-.71.79-1.13,1-1.8.11-.45-.19-.38-.47-.23s-.4.23-.61.32a1,1,0,0,1-1,0,2.64,2.64,0,0,0-.18,1.12A.1.1,0,0,1,116,74a2.72,2.72,0,0,1-1.11-.62,2.18,2.18,0,0,0,.77,1.14c.08.07,0,.18-.09.16-.84-.12-1.75-.52-1.83-1.48a2.07,2.07,0,0,1,0-.61.1.1,0,0,1-.06-.15,4.32,4.32,0,0,0,.22-.43,5.38,5.38,0,0,1,.75-1.27.11.11,0,0,1,.14,0c.25-.18.59-.35.84-.2.53.33.83,1.39,1.62.93a3.79,3.79,0,0,0,1.3-1.58.1.1,0,0,1,.18.05c0,.36,0,.72.07,1.08.27-.29.51-.78,1-.68a.2.2,0,0,1,.08.08c.08.14.28.19.43.25.4.17.42,0,.57-.41a.09.09,0,0,1,.14-.06c.31.22,1.4,1.3,1.54.37a2.11,2.11,0,0,0-.18-1,5.71,5.71,0,0,0-.88-.84,2.25,2.25,0,0,0,1.06-.52h0a.06.06,0,0,0,0-.07S122.57,68,122.53,68Z"/><path class="cls-7" d="M118.51,83.23v-.11a1,1,0,0,1,0-.77,12,12,0,0,1,.64-1.23,2.29,2.29,0,0,0,.36-1,1.93,1.93,0,0,1-.49.71.1.1,0,0,1-.17-.06,2.44,2.44,0,0,0-.34-1.29,5.31,5.31,0,0,1,0,.68c0,.09-.14.09-.18,0a1.45,1.45,0,0,0-.52-.6,2.21,2.21,0,0,1-.8,2.68,1.73,1.73,0,0,0,.55-.07c-.26.61.26,1.31.83,1.6a1.68,1.68,0,0,0,.83.43s.07-.06,0-.09C118.79,84,118.54,83.78,118.51,83.23Z"/><path class="cls-7" d="M120.61,61.48a3.87,3.87,0,0,1,1.31,1.12c-.16-.34-.33-.66-.49-1a3.25,3.25,0,0,0-1.64-1.59,2.15,2.15,0,0,0,1.34-.61c.05-.05,0-.12-.07-.11a2.19,2.19,0,0,0-.33.12h0c-.75.22-1.53.26-2.3.43a2.33,2.33,0,0,1,.5.34.11.11,0,0,1-.1.17,2.39,2.39,0,0,0-1.27-.06A3,3,0,0,1,119.15,62a3.88,3.88,0,0,0-.1-1.07c0-.06,0-.15.12-.12a3.54,3.54,0,0,1,1.38,1,1.43,1.43,0,0,1-.08-.22C120.44,61.51,120.54,61.45,120.61,61.48Z"/><path class="cls-7" d="M30.61,22.25a5.28,5.28,0,0,1,1.48.25,8.6,8.6,0,0,1-.83-1,.1.1,0,0,1,.08-.15,2.16,2.16,0,0,1,.57,0,2.44,2.44,0,0,0-.66-.52,8.12,8.12,0,0,0,1.28-1.41A5.58,5.58,0,0,1,30.3,20.7c-1.23.42-2.69.79-3.81-.1a6,6,0,0,1-1.22-1.44A6.28,6.28,0,0,0,24,17.71a4.69,4.69,0,0,1-1.17-1.18c-.13-.22-.24-.45-.35-.68a1.81,1.81,0,0,1-.22,1.36c1.77.31,3,2.52,3.19,4.16a4.83,4.83,0,0,0,.75,1.15c.34.44.43.93-.21,1.06a4.5,4.5,0,0,1-2.27-.24,1.57,1.57,0,0,1-1-.89,2,2,0,0,0,.06.95.83.83,0,0,1-.12.63,1.17,1.17,0,0,1-1.1.44A6.11,6.11,0,0,1,19.65,24c-.59-.26-1.28-.91-1.95-.83-1.17.14-1.83,1.4-3,1.56a1.33,1.33,0,0,1-1.14-.3,6.27,6.27,0,0,0-1-1,1.94,1.94,0,0,1,.34.87.1.1,0,0,1-.15.08c-.4-.26-.89-.4-1.31-.66A10,10,0,0,1,10.17,23c-.71-.62-.26-1.3.34-1.88.8-.76,1.51-1,2.25-2.34.59-1.09,1.57-1.41,2.31-2.41-.31-.11-.83-.82-1.08-.62a2.32,2.32,0,0,0-.67,1.06A7.45,7.45,0,0,1,10,20.4c-.39.2-.8.35-1.2.54-.15.07-.39.22-.56.17C7.74,21,7.93,20,7.92,19.53A3,3,0,0,1,5.15,20a9.54,9.54,0,0,1-1.41-.51,2.93,2.93,0,0,0,.49.38,7.85,7.85,0,0,0,3,1.27,4,4,0,0,0-1.09,2.15,1,1,0,0,0,0,.32s.06,0,.07,0a1.76,1.76,0,0,1,1.13-.77A3.58,3.58,0,0,0,6.71,25a4.38,4.38,0,0,1,1.18-1.58c.08-.07.21,0,.15.11a3.53,3.53,0,0,0-.28.5c1.68-1.61,3.21.69,3.49,2.09a4.64,4.64,0,0,0,1.24,2.33c.09.13-.75.37-.72,1.11a1.59,1.59,0,0,1,1.34-.51s-1,.49-.84,1.39c.44-.71,1.16-.75,1.29-.57a10,10,0,0,0,2.09,2.4,6.62,6.62,0,0,0,5.61.6A5.06,5.06,0,0,0,24.17,30a.84.84,0,0,1,.95.07,1.84,1.84,0,0,0-.45-.55,2,2,0,0,1,.95.15c-.14-.3-.24-.58-.61-.69-.07,0,.45-.77.83-1.71.65-1.59.94-1.85,1.9-2.14.68.93,3.53,6.35,2.58,3.61-.28-.83-.15-2.49-1.6-4.41,0-.06.08-.09.14-.06l.26.14a3.3,3.3,0,0,0-.57-.62c-.1-.08,0-.2.11-.16a16.71,16.71,0,0,1,2,1.13,2.93,2.93,0,0,0-1.25-1.49.1.1,0,0,1,0-.19,11.12,11.12,0,0,1,1.91.27,11.17,11.17,0,0,0-.86-1C30.49,22.35,30.52,22.24,30.61,22.25Z"/><path class="cls-7" d="M54.4,12.22a20.37,20.37,0,0,1,4.48,2,8.42,8.42,0,0,0,2.38.93,12,12,0,0,0,2.87.16,23.72,23.72,0,0,0,5.15-.94c-1,0-2.07.15-3.11.18-1.25,0-2.87.07-3.9-.79-1.19-1-.82-2.71-.38-4,.86-2.51,2.64-5.52,5.12-7l-.72.33a14.28,14.28,0,0,0-3.56,2.4A15.87,15.87,0,0,0,60,9.09c-.43.72-.83,1.45-1.25,2.17s-.88,1.23-1.25,1.88A14.28,14.28,0,0,0,54.93,12,4.6,4.6,0,0,0,52,12,8,8,0,0,1,54.4,12.22Z"/><path class="cls-7" d="M97.6,20a21,21,0,0,0,5.27,2.68l-.58-.31a11.24,11.24,0,0,1-3.84-2.92c0-.07,0-.14.09-.15a7.58,7.58,0,0,1,3.52.93c1.34.51,2.69,1,4,1.45l-.46-.25c-2.13-1.12-4.34-2.09-6.5-3.13a21.67,21.67,0,0,1-5.56-3.4L93,14.16A18.28,18.28,0,0,0,97.6,20Z"/><path class="cls-9" d="M7.51,13.49c0,.06.11,0,.08-.06a10.29,10.29,0,0,0-1.44-2.12c.53-.31,1-.72,1.52-1a7.55,7.55,0,0,0,1-.58,3,3,0,0,0-.13.93.06.06,0,0,0,.1,0,7.74,7.74,0,0,1,1-2.18c.66-.9,1.53.37,2,.84,0,0,.11,0,.08,0a4.27,4.27,0,0,0-.75-1.13c.45-.26.88-.55,1.31-.83l.49-.46A11,11,0,0,1,13.82,6,13.59,13.59,0,0,0,10.77,8a1,1,0,0,0-.9-.16C9.39,8,9.13,8.61,8.94,9l-.09.22c-.46.23-.9.55-1.35.81a5.58,5.58,0,0,0-1.41,1.2L5.84,11a6.78,6.78,0,0,0-.81-.7,15.9,15.9,0,0,1,1.9,2.43C7.13,13,7.32,13.22,7.51,13.49Z"/><path class="cls-9" d="M26.73,8.71l-.17.13a3.24,3.24,0,0,0-1,1.31s0,.06.05,0c.51-.58,1.33-1.65,2.21-1.53a1.43,1.43,0,0,1,.88.72h0c.29.58.58,1.16.82,1.76,0,0,0,0,0,0a2.74,2.74,0,0,0-.1-.69c.4.42.79.84,1.15,1.3a1.68,1.68,0,0,1,.42,1.1,1,1,0,0,1-.12.37,5.47,5.47,0,0,0-.78,1.12s0,.07.07,0l.35-.39c.11-.11.21-.21.3-.32l.33-.34a14.74,14.74,0,0,1,1.22-1.4l-.17.13a10,10,0,0,0-1,.79,1.28,1.28,0,0,0-.15-.85,4.76,4.76,0,0,0-.8-1,5.1,5.1,0,0,0-1-.89,2.43,2.43,0,0,0-1.47-1.81,1.25,1.25,0,0,0-.9.22c-.92-.6-1.89-1.2-2.9-1.74a16.72,16.72,0,0,1,2,1.54Z"/><path class="cls-9" d="M3.89,17.31a2.24,2.24,0,0,0-.52,1.05A5.55,5.55,0,0,1,4.8,16.68l.08-.09a8.67,8.67,0,0,1,2.37-1.75s0-.08,0-.07a6.54,6.54,0,0,0-3,2.09L4,17l-.12.08c-.3.11-.55.31-.84.43-.46.19-.9-.4-1.18-.67-.67-.63-1.09-1.46-.29-2.17,0,0,0-.08,0-.08H1.45l0,0c-.22-.11-.54,0-.75.1a2.25,2.25,0,0,0-.38.19c.13-.33.19-.69.34-1a2.22,2.22,0,0,1,1.21-1c.06,0,0-.09,0-.09H1.64l0,0c-.16-.16-.42-.07-.6,0A1.73,1.73,0,0,0,.69,13l.16-.3a.09.09,0,0,1,0-.13,15.86,15.86,0,0,1,1.08-1.93L1.56,11a5.58,5.58,0,0,0-1.1,2.22l0,0a.07.07,0,0,0,0,.09s0,0,.07,0h0l.25-.1-.17.16a2.79,2.79,0,0,0-.5,1.67.46.46,0,0,0-.09.15.05.05,0,0,0,.06.07c.24-.08.45-.23.69-.32A.79.79,0,0,1,1,14.9a1.05,1.05,0,0,0-.2.47,1.77,1.77,0,0,0,.5,1.38,3.35,3.35,0,0,0,1.27,1.1c.48.13.66-.18,1.27-.5Z"/><path class="cls-9" d="M31.83,16.43a3.47,3.47,0,0,1,1,2.45,1.8,1.8,0,0,0,.15-.7,1.43,1.43,0,0,0,1.28.52A6.35,6.35,0,0,0,35.92,18a2.35,2.35,0,0,0,1-1,1.59,1.59,0,0,0-.31-1.56l.25.12c.19.11.37.33.58.39a2,2,0,0,1,.1.21s.06,0,.07,0a2.08,2.08,0,0,0-.5-1.54l.21.07a2.54,2.54,0,0,1,.82.52c.06.06.15,0,.13-.09a.7.7,0,0,0-.13-.24,6.71,6.71,0,0,0-1.28-2.47A18,18,0,0,1,37.71,14a.09.09,0,0,1,0,.1l.27.52a2.21,2.21,0,0,0-1.48-.34s-.06.07,0,.08l.1,0a.07.07,0,0,0,0,.06,2.62,2.62,0,0,1,.61.79,1,1,0,0,1,.07.15l-.13-.08a1.73,1.73,0,0,0-.9-.14s0,0,0,0l.23.1a2.28,2.28,0,0,1,.13,1.6,2.2,2.2,0,0,1-1,.84c-.35.19-.71.36-1.07.53-.65.31-1-.05-1.54-.34a4.24,4.24,0,0,0-2.15-2.64s-.07,0,0,.07C31.13,15.69,31.51,16.05,31.83,16.43Z"/><path class="cls-9" d="M31,21.11h.06a1.66,1.66,0,0,1,1.08.56,2.93,2.93,0,0,0-.9-.79A11.36,11.36,0,0,0,32.1,20c-.4.33-.84.61-1.23.9s-.75.67-1.2.93c-.26.18-1.19.68-1.46.87-.07.05.55-.24.63-.27A7.52,7.52,0,0,0,31,21.11Z"/><path class="cls-10" d="M34.18,34.15a13.72,13.72,0,0,0,6.72,2.64,29.59,29.59,0,0,1-3.44-1.09,14.44,14.44,0,0,1-2.11-1.16c-1.36-.91-.37-.73.15-.86a4.18,4.18,0,0,0,1.79-1.35,11.68,11.68,0,0,0,1.79-3.51c.29-.8.65-1.61.9-2.45a32.1,32.1,0,0,1-2.23,5.18c-.9,1.41-2.32,2.41-4,1.86a12.89,12.89,0,0,1-2.67-2.94,5.62,5.62,0,0,1-.8-1A16.22,16.22,0,0,0,34.18,34.15Z"/><path class="cls-10" d="M121.43,68.68a2.25,2.25,0,0,0,1.06-.52h0a.06.06,0,0,0,0-.07s0-.09,0-.08h0c-.49,0-1,.07-1.28-.36a1.13,1.13,0,0,1,.07-1.46c.53-.6,1.22-.92,1.18-1.83a7.14,7.14,0,0,0-1-2.71,3.25,3.25,0,0,0-1.64-1.59,2.41,2.41,0,0,0,1.2-.47,3.05,3.05,0,0,1-1.37.27l-.63.19a0,0,0,0,0,0,.08l.54,0a4.35,4.35,0,0,1,2,2.38,10.25,10.25,0,0,1,.56,1.52,1.34,1.34,0,0,1-.57,1.52c-.64.55-1.05,1-.79,1.89a1.16,1.16,0,0,0,1.21.84l-.3.11a1,1,0,0,1-1.25-.4s-.13,0-.1,0a1,1,0,0,0,.88.69,9.14,9.14,0,0,1,1.58,2.08,1.67,1.67,0,0,1,.07,1.43c-.24.52-.9.78-1.37,1a2.6,2.6,0,0,0-1.22,2.55,1.39,1.39,0,0,0,.74,1.11c-.73-.12-1.48-.29-1.79-1,0,0-.08,0-.07,0A1.5,1.5,0,0,0,120,77a6.09,6.09,0,0,1,1,2.35c0,.89-1.21,1.45-1.8,2a2.53,2.53,0,0,0-1,1.81,1.17,1.17,0,0,0,0,.27c-.29-.34-.58-.68-.29-1.16a.09.09,0,0,0,0-.11,1.52,1.52,0,0,0,.79-1.76s-.08,0-.08,0a1.64,1.64,0,0,1-.66,1.31,1.38,1.38,0,0,1-.43.26,1.7,1.7,0,0,0,.4-1c0-.36-.44-.64-.69-.81a8,8,0,0,1-1.6-1.23c-.63-.76.12-1.74.35-2.51a1.13,1.13,0,0,0-.32-1.31c-.46-.59-1.38-.72-2-1.08-1.34-.73-.09-2.72.55-3.67a1.24,1.24,0,0,0,.66-.69,0,0,0,0,0-.06-.05,1.67,1.67,0,0,1-1.48.49l-.2,0a1.48,1.48,0,0,0,.67-.39,1.77,1.77,0,0,0,.19-2.12c-.4-.8-1.31-1.39-1.51-2.29s.87-1.49,1.54-1.79,1.2-.46,1.48-1.08-.29-1.1-.66-1.62,1.44-1.1,1.77-1.26l.21-.11a.09.09,0,0,0,.13,0l.15-.21a1.17,1.17,0,0,0,.4-.91s-.06,0-.06,0a1,1,0,0,0,0,.1,7,7,0,0,0-.43-2.78,31.53,31.53,0,0,0-1.65-4.73,49,49,0,0,0-2.21-4.41,8.5,8.5,0,0,0-1.66-2.33,11.91,11.91,0,0,0,.65-2.71c0-.06,0-.12,0-.18s0-.05,0,0a29.21,29.21,0,0,1-1.48,4.34C110,47,109.47,48.5,109,50a35.38,35.38,0,0,0-1.28,4.38c-.32,1.53-.53,3.07-.75,4.62-.38,2.78-1,5.65-.59,8.46.39,2.65,2.24,4.78,2.74,7.4a2.07,2.07,0,0,1,0,.43.14.14,0,0,0,0,.12,2.18,2.18,0,0,1-.17.69,12,12,0,0,1-.91,1.44,18.66,18.66,0,0,0-1.41,2.83c-.9,2.08-1.69,4.2-2.52,6.3s-1.58,4.13-2.39,6.19c-.31.82-.62,1.64-.87,2.49a9.57,9.57,0,0,0-.34,1.54.11.11,0,0,0-.07.11,1.24,1.24,0,0,0,0,.33,3.59,3.59,0,0,0,0,.47.17.17,0,0,0,.24.12c.29.51.61,1,.14,1.56-.26.31-.61.53-.85.83a2,2,0,0,0,0-.43.06.06,0,0,0-.1,0,1.9,1.9,0,0,0-.24,1.43c-.35-.3-.81-.51-1-1,0,0,.07-.1.1-.16s-.06-.13-.12-.09a5,5,0,0,1-1.27.63,5.27,5.27,0,0,0-.6.2,2,2,0,0,0,.48-1l0,0a.11.11,0,0,0,0-.13,0,0,0,0,0-.05,0,.08.08,0,0,0-.09,0,5.3,5.3,0,0,1-2,1.1,2.24,2.24,0,0,0,1-1.62A3.4,3.4,0,0,0,96,97.91a2.59,2.59,0,0,1-.14-1.42h0a5.57,5.57,0,0,0,3.07-2.85A33.4,33.4,0,0,0,101.31,88c.6-1.81,1.19-3.64,1.72-5.47a9.3,9.3,0,0,0,.45-4.84,1.49,1.49,0,0,0,.39.13.15.15,0,0,0,.09-.29,3.51,3.51,0,0,1-1.27-1.09c-.39-.63.11-1.29.32-1.89a2.62,2.62,0,0,0,.12-.57.14.14,0,0,0,0-.07v0a3.25,3.25,0,0,0-.37-1.71v0a9.35,9.35,0,0,0-.78-1.74,29.93,29.93,0,0,0-2.22-3.24c-.84-1.14-1.61-2.33-2.49-3.45s-1.88-2.3-2.8-3.46a39.89,39.89,0,0,1-5-7.47,10,10,0,0,1,.14-8,11.85,11.85,0,0,1,2.92-4l.51-.07a.08.08,0,0,0,0-.16,2.52,2.52,0,0,0-2,.54,5.8,5.8,0,0,1,1.33-1.24A8.59,8.59,0,0,1,94.33,39a.06.06,0,0,0,0-.11l-.5.06a.13.13,0,0,0-.09,0,2.92,2.92,0,0,0-1.39.26,7.06,7.06,0,0,1,3-1.87,0,0,0,0,0,0-.09,4.54,4.54,0,0,0-3.54,2.35.08.08,0,0,0,0,.07,1.47,1.47,0,0,0-.1.13s0,.12.08.08a1.57,1.57,0,0,1,.47-.3A2.58,2.58,0,0,0,90.94,41c0,.05,0,.07.06.07l-.2.18s0,.09.06.06a5.17,5.17,0,0,1,1.06-.51l.31-.08a7.76,7.76,0,0,0-2.08,2.34,11.85,11.85,0,0,0-1.4,3.39,11.5,11.5,0,0,0-.33,2.75h0a16.2,16.2,0,0,0-5.22,4C81.41,55,79.76,56.93,78,58.71A11.56,11.56,0,0,1,75.1,61a8.09,8.09,0,0,1-3,.74,24.54,24.54,0,0,1-5.47-.44,66.05,66.05,0,0,0,3.84-6.61,13.92,13.92,0,0,0,1.4-7.58A25.2,25.2,0,0,0,69.49,40a5.36,5.36,0,0,0-1.25-2,3.77,3.77,0,0,1,1.19.68c0,.05.12,0,.08-.08s-.07-.11-.1-.16a0,0,0,0,0,0-.05,2.72,2.72,0,0,0-2-1.59,3.25,3.25,0,0,1,1.31.42s.1,0,.07-.08l0,0s0,0,0,0A6.15,6.15,0,0,0,66.94,36a7.31,7.31,0,0,0-2.41-.33,0,0,0,0,0,0,0,13.62,13.62,0,0,1,2.29.54,7.85,7.85,0,0,1,1,.46,6.42,6.42,0,0,0-1,0h-.12c-.05,0-.06.06,0,.07A4.57,4.57,0,0,1,69,38.1a3.31,3.31,0,0,0-1.28-.36,1.47,1.47,0,0,0-.42-.05s0,0,0,0h-.07s0,.06,0,.06l.12,0c.93.26,1.46,1.3,1.83,2.1s.77,1.82,1.13,2.73A18.85,18.85,0,0,1,71.5,47.1a11.42,11.42,0,0,1-.23,4.16,24.83,24.83,0,0,1-3.44,7.33c-.54.87-1.08,1.74-1.61,2.62h0l-.06.09h0a47.19,47.19,0,0,0-2.48,4.6c-.19.41-.37.83-.54,1.25l0,.14a10.47,10.47,0,0,0-.84,3.17A32.5,32.5,0,0,0,62,74.65c0,.71,0,1.43,0,2.15a2.78,2.78,0,0,0,.5,1.6c.72,1.14-.65,2.08-.94,3.13,0,.08.08,0,.13,0s.2-.15.3-.28a15.22,15.22,0,0,0-.06,3c-.08,2.06-.13,4.13-.06,6.2a31.35,31.35,0,0,0,.75,6,23.41,23.41,0,0,0,.73,2.29c.12.36.3.88.06,1.23a.67.67,0,0,1-.14.15.15.15,0,0,0-.11,0,.86.86,0,0,0-.07.1,4.65,4.65,0,0,0-.62.38.08.08,0,0,0,.08.14l.34-.12a.77.77,0,0,0,.09.68,1,1,0,0,0,.54.3,1.72,1.72,0,0,1-.39,0,1.94,1.94,0,0,0-.33-.07c-.06,0-.08.06,0,.1a1.5,1.5,0,0,0,.82.42,2.61,2.61,0,0,1-.27.06,1.76,1.76,0,0,1-.51,0,.91.91,0,0,0-.09-.17.1.1,0,0,0-.17,0,.74.74,0,0,0,0,.21,1.31,1.31,0,0,0,.18.49l0,0A3,3,0,0,1,61.4,102c0-.07-.08-.13-.15-.07a5.29,5.29,0,0,1-.92.62,2.69,2.69,0,0,0-.29.16,4,4,0,0,0,.23-.72l0,0a.12.12,0,0,0,0-.1h0c0-.07-.08-.09-.12,0l0,0a3,3,0,0,1-1.49.29,2.73,2.73,0,0,1-.5-.06,2.33,2.33,0,0,0,1.23-.84l.28.2c.1.07.25-.06.17-.16a3.93,3.93,0,0,0-.57-.5c-.37-.29-.54-.44-.34-1.22a13,13,0,0,0,.31-2.51c.12-1.94.31-3.86.44-5.8.11-1.72.28-3.43.41-5.15A21.53,21.53,0,0,0,60,82c.06,0,.37.08.42.1s-.18-.14-.25-.22a3.75,3.75,0,0,0-.71-.55,1.09,1.09,0,0,1-.38-.47c-.06-.12.09-.25.14-.35a1.25,1.25,0,0,0,.19-.61.09.09,0,0,0,0-.06,8.92,8.92,0,0,0-.33-2.24c-.19-.85-.36-1.72-.53-2.58-.34-1.63-.68-3.26-1-4.89a21.8,21.8,0,0,0-.88-4,5.22,5.22,0,0,0-2.66-2.47s-.11.06-.06.1l.18.12a.73.73,0,0,0-.62.44,5.17,5.17,0,0,0-.15-.89.66.66,0,0,0,.17-.12s0-.08,0-.08a2.21,2.21,0,0,0-1.42.51,3.49,3.49,0,0,0,.12-.54,3.81,3.81,0,0,1,.27-.87h0c.09,0,.78.22.71.16A13.34,13.34,0,0,0,52,61.74a10,10,0,0,1-.89-.54c-2-1.34-4.48-3.22-5.13-5.69A9.63,9.63,0,0,1,46,52c.13-1.14.27-2.28.48-3.41a31.86,31.86,0,0,1,1.84-6.74,34.56,34.56,0,0,1,3.35-5.52s0-.08-.06,0a24.51,24.51,0,0,0-3.65,5.58,31.46,31.46,0,0,0-1.88,7c-.22,1.17-.35,2.36-.47,3.54a9.58,9.58,0,0,0,.08,3.07l-.06,0a7.41,7.41,0,0,1-4.06,2,55.08,55.08,0,0,1-10.37-1l-.73-.1c.29.09.57.17.86.24a40.18,40.18,0,0,0,5.25.73,22.16,22.16,0,0,0,5,.28,10.31,10.31,0,0,0,4.18-1.83C46.45,58.4,49,60.16,51,61.55a3.84,3.84,0,0,0,1.32.71A1.86,1.86,0,0,0,52,63.84v0l0,0s0,.1.06.07a5.48,5.48,0,0,1,1.18-.47,1.83,1.83,0,0,0,.25,1.15.17.17,0,0,0,0,.07.07.07,0,0,0,.13,0,1.1,1.1,0,0,1,.32-.47,1.11,1.11,0,0,1,.52-.23l0,0a11.28,11.28,0,0,1,1.12.93,4,4,0,0,1,1,1.67,30.82,30.82,0,0,1,.91,4c.29,1.51.56,3,.86,4.52s.6,2.71.84,4.08a2.16,2.16,0,0,1-.1.86c-.08.24-.31.36-.32.63,0,.43.46.82.9,1.06.38,1.21.16,2.84.07,4.93-.08,1.81-.3,3.5-.4,5.31-.06,1-.23,2-.27,2.91s-.17,2-.22,3c-.1,1.86-.58,1.69-.34,2.44a1.64,1.64,0,0,0,.74.8,5.66,5.66,0,0,1-.87.48c-.33.14-.69.15-1,.28l0,0h-.17a0,0,0,0,0,0,.09,7.83,7.83,0,0,0,.78.36,4.82,4.82,0,0,0,.93.11,2.16,2.16,0,0,0,1-.18,3.22,3.22,0,0,0-.38.85v0s0,0,0,0a.11.11,0,0,0,.17,0l.12-.17c.48-.26,1.18-.4,1.48-.84.34.55,1.2.7,1.77.81h0l.17.05a.06.06,0,0,0,0-.1,1.27,1.27,0,0,1-.38-.48.36.36,0,0,1,0-.09,2.44,2.44,0,0,0,1.05-.3l0,0h0a.06.06,0,0,0,0-.11,4.12,4.12,0,0,0-.47-.22.92.92,0,0,0,.47-.21v0l.09,0c.06,0,0-.12,0-.12a1.47,1.47,0,0,1-.89-.25c-.24-.2-.08-.47,0-.72a1,1,0,0,0,.53-.59,3.41,3.41,0,0,0-.4-1.92,21.31,21.31,0,0,1-1.14-6c-.16-2.12-.14-4.24-.09-6.36,0-.9.07-1.79,0-2.69a5.73,5.73,0,0,1,.09-2,3,3,0,0,0,.8-1.82c0-.52-.41-.9-.62-1.36a6,6,0,0,1-.12-2.28A26.56,26.56,0,0,1,63,68a57.78,57.78,0,0,1,3.36-6.49l.1-.17a20.41,20.41,0,0,0,5.27.66,9,9,0,0,0,2.91-.55,8.58,8.58,0,0,0,2.76-1.83C79.31,58,80.93,56,82.66,54.24s3.47-3.69,5.77-4.64c0,.26,0,.52.06.77A9.7,9.7,0,0,0,89.81,54a52,52,0,0,0,5.07,7.27c.93,1.15,1.9,2.29,2.79,3.48s1.57,2.25,2.39,3.35a22.17,22.17,0,0,1,1.74,2.63,13,13,0,0,1,1,2.94,2.45,2.45,0,0,1,0,.27,15.33,15.33,0,0,1-.59,1.73,2.05,2.05,0,0,0,1.06,1.9,11.55,11.55,0,0,1-.53,4.91c-.5,1.75-1.07,3.5-1.68,5.21A45.89,45.89,0,0,1,98.89,93a5.64,5.64,0,0,1-3.14,3.18.17.17,0,0,0-.12.17c-.37.5-.11,1.31.07,1.84a2.08,2.08,0,0,1,.2,1.38,2.61,2.61,0,0,1-1.06,1.26.05.05,0,0,0,0,0l-.13,0-.3,0s0,.07,0,.08a3.19,3.19,0,0,0,2.5-.58,3.07,3.07,0,0,1-.71.9s0,.08,0,.06l.09,0h0c.67-.25,1.7-.31,2.27-.84.11.54.85.89,1.29,1.09h0a.45.45,0,0,0,.28.12s.05,0,0,0a1,1,0,0,1-.26-.75c.34-.67,1.09-1,1.42-1.62s-.19-1.33-.54-1.93a18.49,18.49,0,0,1,1.34-4.75c.82-2.11,1.61-4.23,2.43-6.35S106.26,82,107.18,80a22.64,22.64,0,0,1,1.61-3,4.08,4.08,0,0,0,.56-1.1,2,2,0,0,0,.05-.55.29.29,0,0,0,0-.09,8.52,8.52,0,0,0-1.12-3.59A17.31,17.31,0,0,1,106.76,68c-.68-2.84,0-5.94.45-8.78.22-1.54.44-3.09.75-4.62A37.47,37.47,0,0,1,109.31,50q.78-2.22,1.58-4.43l.42-1.17a11.34,11.34,0,0,1,1.41,2.1q1.17,2,2.14,4.16a31,31,0,0,1,1.56,4.19c.22.73.4,1.47.56,2.22a3.17,3.17,0,0,1-.06,1.95,3.22,3.22,0,0,1-1,.48c-.46.15-1.13.33-1.38.79s.13.88.49,1.18a.76.76,0,0,1-.21,1.37l-.92.35c-1.08.43-2.24,1.37-1.59,2.65.37.74,1,1.26,1.42,2a1.26,1.26,0,0,1-1.52,1.86.09.09,0,0,0-.09.15,1.06,1.06,0,0,0,.26.17,2,2,0,0,0,.89.43,1.73,1.73,0,0,0,.6,0,4.68,4.68,0,0,0-.9,1.56,2.13,2.13,0,0,0-.12,1.69c.58,1.06,2.1.83,2.83,1.7.47.9-.85,2.13-.58,3.14.22.82,1,1.25,1.7,1.7.37.26,1,.54.81,1.08a1.68,1.68,0,0,1-.81.91c-.06,0-.05.11,0,.11h.12a1.62,1.62,0,0,0,.66-.07c-.26.61.26,1.31.83,1.6a1.68,1.68,0,0,0,.83.43s.07-.06,0-.09c-.46-.23-.71-.4-.74-1a1.86,1.86,0,0,1,.42-1.19,10.56,10.56,0,0,1,1.8-1.53c1.16-1,.3-2.43-.44-3.43a2.94,2.94,0,0,0,1.49.08c.06,0,0-.09,0-.1l-.2,0a1.62,1.62,0,0,1-.92-.74,2.27,2.27,0,0,1,.09-1.77c.46-1,1.68-1.15,2.28-2C123.86,71.23,122.49,69.49,121.43,68.68Z"/><path class="cls-9" d="M28.31,15.64A12.6,12.6,0,0,0,24,11.73a12.74,12.74,0,0,0-5.71-1.61c-4.13-.15-7.8,2.34-10.53,5.23,0,0,0,.1.07.06C10.69,12.86,14,10.51,18,10.46A12.24,12.24,0,0,1,23.72,12a13.12,13.12,0,0,1,2.44,1.66c.74.65,1.38,1.4,2.09,2.08C28.28,15.74,28.34,15.68,28.31,15.64Z"/><path class="cls-9" d="M13.86,17.41a7.51,7.51,0,0,0-1.71,1.93A11.72,11.72,0,0,1,10.33,21a1.82,1.82,0,0,0-.74,1.55c.05.7.87,1.25,1.38,1.6,0,0,.07,0,0,0-.53-.55-1.41-1.06-1.11-2a3.25,3.25,0,0,1,1.3-1.4,6.2,6.2,0,0,0,1.39-1.41c.44-.62,1-1.48,1.53-2.06C14.15,17.22,13.9,17.39,13.86,17.41Z"/><path class="cls-9" d="M26.46,22.25a3.41,3.41,0,0,1-.85-1.14c-.16-.39-.28-.79-.48-1.17-.55-1-1.34-2.44-2.63-2.64a0,0,0,0,0,0,.08A5,5,0,0,1,24.8,20,11,11,0,0,0,25.69,22a7.81,7.81,0,0,0,.67.62,1.81,1.81,0,0,1,.46,1.22c0,.06.11.07.11,0A1.86,1.86,0,0,0,26.46,22.25Z"/><path class="cls-7" d="M24.46,26.32a2.48,2.48,0,0,0,.28-1.53s0,0,0,0,0,.18-.06.27a4.49,4.49,0,0,1-1,1.21c-.28.24-.64.39-.93.62a.85.85,0,0,0-.42-.06.07.07,0,0,0,0,.12,5.52,5.52,0,0,1,.69.46l.34.31a2.07,2.07,0,0,0-1.18.11.85.85,0,0,0-.39-.16.1.1,0,0,0-.06.19,1.9,1.9,0,0,1,.65.47,3.4,3.4,0,0,1,.21.28,2.27,2.27,0,0,0-1-.19.11.11,0,0,0-.08,0l-.06,0a3.26,3.26,0,0,0-.61.11c-.05,0,0,.09,0,.09h.25a2.65,2.65,0,0,1-.67.48,2.81,2.81,0,0,1-1.6.06,3.92,3.92,0,0,1-1.51-.58,1,1,0,0,1-.15-.11.12.12,0,0,0-.05,0,.83.83,0,0,0-.57-.27c-.05,0-.05.08,0,.09a.4.4,0,0,1,.26.13,2.19,2.19,0,0,0-1.46.45,1.72,1.72,0,0,1,1.15-1.18c.15-.05.1-.29-.05-.27a18.57,18.57,0,0,0-2.11.35A4,4,0,0,1,15.43,27c.05,0,0-.1,0-.09A1.64,1.64,0,0,0,15,27l0,0c-.33-.35-.54-.78-.84-1.15a2.3,2.3,0,0,0-.56-.47l0,0c-.35-.33-.85-.35-1.25-.59a0,0,0,0,0,0,0l.26.15a3.36,3.36,0,0,1,.93,1.43A3.83,3.83,0,0,0,14,27.46c-.05.09-.09.19-.13.27s-.24.44-.33.66c0,0,0,0,0,0s0,0,0,0a0,0,0,0,0,0,0,1.43,1.43,0,0,1,.92-.36h.23a2.72,2.72,0,0,0-.16,1.47,0,0,0,1,0,0,0v0h0c.37-.26.49-.33.84-.06a5.35,5.35,0,0,0,1.12.75,7.71,7.71,0,0,0,2.65.47c1.35.08,2.84-.29,3.36-1.62a4.54,4.54,0,0,1,.72.13h0l0,0s.05,0,.05,0a4.41,4.41,0,0,0-.3-.91h.1a2,2,0,0,1,.56.08h.1l0,0s0,0,.05,0,0,0,0-.06l0,0a4.43,4.43,0,0,0-.26-.69l0-.08A4,4,0,0,0,24.46,26.32Z"/><path class="cls-9" d="M24.64,25.06a4.49,4.49,0,0,1-1,1.21c-.28.24-.64.39-.93.62a.85.85,0,0,0-.42-.06.07.07,0,0,0,0,.12,5.52,5.52,0,0,1,.69.46l.34.31a2.07,2.07,0,0,0-1.18.11.85.85,0,0,0-.39-.16.1.1,0,0,0-.06.19,1.9,1.9,0,0,1,.65.47,1.86,1.86,0,0,1,.21.28,2.27,2.27,0,0,0-1-.19.11.11,0,0,0-.08,0l-.06,0a3.26,3.26,0,0,0-.61.11c-.05,0,0,.09,0,.09h.25a2.65,2.65,0,0,1-.67.48,2.81,2.81,0,0,1-1.6.06,3.92,3.92,0,0,1-1.51-.58,1,1,0,0,1-.15-.11.12.12,0,0,0-.05,0h0a.83.83,0,0,0-.57-.27c-.05,0-.05.08,0,.09a.4.4,0,0,1,.26.13,2.19,2.19,0,0,0-1.46.45,1.72,1.72,0,0,1,1.15-1.18c.15-.05.1-.29-.05-.27a18.57,18.57,0,0,0-2.11.35A4,4,0,0,1,15.43,27c.05,0,0-.1,0-.09a2.68,2.68,0,0,0-1.64,1.05c-.07.07,0,.22.12.17a5,5,0,0,1,1.81-.38,2.32,2.32,0,0,0-.78,1.49.14.14,0,0,0,.24.11,2.18,2.18,0,0,1,1.81-.7l.06.07a2.55,2.55,0,0,0,.61.42,4.75,4.75,0,0,0,1.38.4,3.18,3.18,0,0,0,1.34-.08,2.46,2.46,0,0,0,1.07-.78,5.61,5.61,0,0,1,1.38.31c.08,0,.18-.06.12-.14-.23-.27-.4-.61-.64-.86l.53,0c.25,0,.49,0,.73,0l.05,0s.1,0,.08-.05l0,0a.08.08,0,0,0,0-.07h0a2.41,2.41,0,0,0-.68-.82,2.87,2.87,0,0,0,.85-.59,3.25,3.25,0,0,0,.9-1.35S24.66,25,24.64,25.06Z"/><path class="cls-9" d="M24.05,23.42a3.76,3.76,0,0,1-.75-.29,1.74,1.74,0,0,1-.59-.73s-.05,0-.05,0a1.47,1.47,0,0,0,.43,1l.12.08a.7.7,0,0,0-.17.27c-.29.68-.52,1.1-1.34,1.1a5.71,5.71,0,0,1-2.35-.66c-.5-.22-.88-.63-1.4-.8a14.12,14.12,0,0,1-.3-2.75,2,2,0,0,1,1.58-2.08c.21,0-3.2-.26-3-.22,1.22.24,1.11,1.35,1.11,2.33a7.42,7.42,0,0,0,.43,2.68l-.07,0c-.53-.07-1,.38-1.33.68a4.27,4.27,0,0,1-1.84,1c-1.34.23-.87-1.65-1.89-1.65a0,0,0,0,0,0,.09c.44.09.53.91.7,1.25a1.07,1.07,0,0,0,.95.6,2.67,2.67,0,0,0,1.49-.53c.26-.17.52-.36.76-.55a2.58,2.58,0,0,1,1-.65c.59-.1,1.3.67,1.82.91a6.49,6.49,0,0,0,2.14.62,1.51,1.51,0,0,0,1.22-.31,1.8,1.8,0,0,0,.42-.61c.08-.18.1-.58.32-.6a.69.69,0,0,0,.58-.05A.08.08,0,0,0,24.05,23.42Z"/><path class="cls-9" d="M35.81,14.62c-.21-.7-.57-1.74-1.49-1.43a3.5,3.5,0,0,0-1.08.75,5.59,5.59,0,0,0-1.18,1.2c-.17.29.68.6.87.66a2.33,2.33,0,0,0-.23-.35,2,2,0,0,0-.14-.16h0a8.77,8.77,0,0,1,.81-.94,5,5,0,0,1,.62-.55c.31-.25.67-.47,1-.16a5.49,5.49,0,0,1,.83,1.24S35.82,14.65,35.81,14.62Z"/><path class="cls-9" d="M6.63,14.26a.46.46,0,0,0-.17-.17v0a3.17,3.17,0,0,0-1.57-2c-.82-.36-1.54.85-1.81,1.45,0,0,0,.07,0,0C3.58,13,4.25,12,5,12.51A4.34,4.34,0,0,1,6.1,14a2.32,2.32,0,0,0-.8.09c-.14,0-.11.23,0,.29a1.21,1.21,0,0,1,.25.21c.13.13,0,.17-.12.26a4.18,4.18,0,0,0-.49.85s0,.06,0,0c.19-.17.36-.37.54-.55s.35-.24.41-.43-.06-.31-.19-.44a2.19,2.19,0,0,1,.85.05A0,0,0,0,0,6.63,14.26Z"/><path class="cls-10" d="M118.71,77.43a.84.84,0,0,1-.69.44,1.15,1.15,0,0,0,.09-1.5c-.31-.38-.76-.64-.92-1.12-.24-.72.49-1.75.77-2.38a.06.06,0,0,0-.1-.06c-.49.71-1.38,1.84-.9,2.76a4.12,4.12,0,0,0,.79.88.77.77,0,0,1-.39,1.39,1.89,1.89,0,0,1-.49-.15s-.06,0,0,.06c.46.5,1.91.64,2-.29C118.82,77.4,118.73,77.37,118.71,77.43Z"/><path class="cls-10" d="M118.48,69.28a1.06,1.06,0,0,1-1.3.69l-.18,0a.77.77,0,0,0,.69-.62,1.92,1.92,0,0,0-.61-1.66c-.48-.58-1.2-1.08-1.29-1.87-.12-1,.89-2,1.49-2.7,0,0,0-.09-.06-.06-1,.78-2.3,2.18-1.52,3.53A14.39,14.39,0,0,0,117,68a2,2,0,0,1,.46.92.82.82,0,0,1-.21.6c-.19.26-.61.2-.91.14a4.16,4.16,0,0,1-.42-.23s0,0,0,0a2.34,2.34,0,0,0,1.61.83,1.1,1.1,0,0,0,1.09-1A0,0,0,1,0,118.48,69.28Z"/><path d="M26.75,13.8c.35-.1.55-.45.71-1,.39-1.41.17-2.12-.25-2.22s-1,.62-1.21,1.6a3.34,3.34,0,0,0-.12.85A7.39,7.39,0,0,1,26.75,13.8Z"/><path d="M10.39,9.93c-.43,0-.47.85-.5,1.34-.05.69.23,1.69.62,1.62.16-.1.74-.52,1.05-.73C11.47,10.55,10.8,9.94,10.39,9.93Z"/><path class="cls-11" d="M10.17,10.41a2.61,2.61,0,0,0-.1.92c.15.29.37-.27.44-.75S10.25,10.05,10.17,10.41Z"/><path class="cls-11" d="M26.62,11.1c-.16.29-.27.58-.11.69s.37-.5.46-.78S26.92,10.58,26.62,11.1Z"/><path class="cls-8" d="M22.57,15.51c-.11-.43-.25-.86-.34-1.17a8.91,8.91,0,0,0-.68-1.66,5.6,5.6,0,0,0-2.11-2.61,3.52,3.52,0,0,0-2-.27,3.26,3.26,0,0,0-2,1.26,10.8,10.8,0,0,0-1.34,2.3,4.83,4.83,0,0,0-.6,2.87s0,0,0,0a2.18,2.18,0,0,0,.76,1.27c.92.8,2.46.91,3.61,1.06a7.2,7.2,0,0,0,3.68-.64,1.74,1.74,0,0,0,1-1.32A2.79,2.79,0,0,0,22.57,15.51Z"/><path class="cls-7" d="M22.57,15.51c-.11-.43-.25-.86-.34-1.17a8.4,8.4,0,0,0-.5-1.29c.18.73.4,1.8-.14,2.38a1,1,0,0,1-1,.25c-.72-.13-1.05.85-1.78.68-.37-.09-.44-.65-.45-.95,0-.51-.07-2.24-.07-2.76C18.18,14,18,17,16.92,16.2c-.32-.23-.43-.66-.8-.83a5.2,5.2,0,0,1-.94-.48,1.49,1.49,0,0,1-.56-1.11,6.16,6.16,0,0,1,.67-2.41,12.88,12.88,0,0,0-1.1,2,4.83,4.83,0,0,0-.6,2.87s0,0,0,0a2.18,2.18,0,0,0,.76,1.27c.92.8,2.46.91,3.61,1.06a7.2,7.2,0,0,0,3.68-.64,1.74,1.74,0,0,0,1-1.32A2.79,2.79,0,0,0,22.57,15.51Z"/><path class="cls-7" d="M22.41,16.42A1.9,1.9,0,0,0,21,16.07a4.32,4.32,0,0,0-3,1.43.1.1,0,0,1-.15,0,6.69,6.69,0,0,0-2.65-2c-.63-.21-1.45-.3-1.65.33,0,.11,0,.23,0,.35s0,0,0,0a2.18,2.18,0,0,0,.76,1.27c.92.8,2.46.91,3.61,1.06a7.2,7.2,0,0,0,3.68-.64,1.71,1.71,0,0,0,1-1.2A.82.82,0,0,0,22.41,16.42Z"/><path class="cls-12" d="M22.57,15.51c-.11-.43-.25-.86-.34-1.17a8.91,8.91,0,0,0-.68-1.66c-.18-.33-.36-.68-.57-1,.69,1.13,1.89,4,1.27,5.34a1.62,1.62,0,0,1-.94.74,5.72,5.72,0,0,1-2.18.45c-.28-.11.24-.36.36-.46a2.45,2.45,0,0,1,1.4-.34,2.1,2.1,0,0,0,.86-.1c.55-.19.07-.72-.3-.89a.12.12,0,0,0-.12-.1,2.73,2.73,0,0,0-1.83.89A4.63,4.63,0,0,1,18,18.25c-.9-.12-1.37-1.35-2.09-1.82-.41-.26-1.14-.76-1.66-.55a.07.07,0,0,0-.06,0c-.28.2-.07.94.23,1.1a3.68,3.68,0,0,0,1.1.12c.27,0,1,.27,1,.55.08.53-1.41,0-1.62-.09a2,2,0,0,1-1.19-2,11.59,11.59,0,0,1,.86-2.71,6.47,6.47,0,0,1,1.22-2.11,3.65,3.65,0,0,0-.27.3,10.8,10.8,0,0,0-1.34,2.3,4.83,4.83,0,0,0-.6,2.87s0,0,0,0a2.18,2.18,0,0,0,.76,1.27c.92.8,2.46.91,3.61,1.06a7.2,7.2,0,0,0,3.68-.64,1.74,1.74,0,0,0,1-1.32A2.79,2.79,0,0,0,22.57,15.51Z"/><path class="cls-13" d="M14.25,15.88a.07.07,0,0,0-.06,0l-.06.06a.84.84,0,0,0,.66,1l.15,0,.33,0a3.41,3.41,0,0,1,.78.05,2,2,0,0,1,.75.35,4.67,4.67,0,0,0-.89-.93C15.5,16.17,14.77,15.67,14.25,15.88Z"/><path class="cls-13" d="M21.45,16.4a.12.12,0,0,0-.12-.1,2.73,2.73,0,0,0-1.83.89c-.16.14-.4.37-.67.58a2.92,2.92,0,0,1,1.57-.56c.55,0,1.38.09,1.46-.49A1.27,1.27,0,0,0,21.45,16.4Z"/><path class="cls-14" d="M19.75,24.65l-.37-.16c-.52-.24-1.23-1-1.82-.91a2.58,2.58,0,0,0-1,.65l-.56.41-.2.14-.08,0a2.31,2.31,0,0,1,1.45.69c.49.56.31,1.45,1.13,1.75.56.2,1-.36,1.16-.79a10.7,10.7,0,0,0,.3-1.11,2.66,2.66,0,0,1,.3-.61Z"/><path class="cls-15" d="M19.75,24.65l-.36-.16,0,.15a.82.82,0,0,1-.94.89,2.33,2.33,0,0,1-1.68-.84.66.66,0,0,1-.1-.59l-.16.13-.56.41-.2.14-.08,0a2.31,2.31,0,0,1,1.45.69c.49.56.31,1.45,1.13,1.75.56.2,1-.36,1.16-.79a10.7,10.7,0,0,0,.3-1.11,2.66,2.66,0,0,1,.3-.61Z"/><path class="cls-16" d="M6.47,12.49A4.51,4.51,0,0,0,4.06,10C2.77,9.6,2,10.86,1.37,11.8v0l-.18.26s0,.07,0,0c.36-.29.68-.62,1-.89a3.21,3.21,0,0,1,1.44-.49,0,0,0,0,0,0-.07,1.73,1.73,0,0,0-1.33.18,1.57,1.57,0,0,1,1.86-.42,6.17,6.17,0,0,1,2.17,2.08A0,0,0,0,0,6.47,12.49Z"/><path class="cls-16" d="M3.63,11A2.17,2.17,0,0,0,2,11.7a0,0,0,0,0,0,.05l.73-.36a8.63,8.63,0,0,1,.86-.28S3.66,11,3.63,11Z"/><path class="cls-16" d="M3.23,11.47a1,1,0,0,0-.34.13s0,.06,0,.05a3.05,3.05,0,0,1,.32-.13S3.26,11.47,3.23,11.47Z"/><path class="cls-16" d="M10.08,8.23a1.34,1.34,0,0,0-.83.86,6.61,6.61,0,0,0-.52,1.78s0,.05,0,0c.13-.37.27-.73.43-1.09a2.81,2.81,0,0,1,.73-1.22c.68-.5,1.48,1,1.79,1.4a0,0,0,0,0,0,0C11.54,9.37,10.93,8,10.08,8.23Z"/><path class="cls-16" d="M27.72,8.74a1.47,1.47,0,0,0-1.09.59,16.44,16.44,0,0,0-1.36,1.73,0,0,0,0,0,0,0,8,8,0,0,1,2-2c1-.48,1.43,1.09,1.59,1.73,0,.05.08,0,.08,0C29,10,28.77,8.73,27.72,8.74Z"/><path class="cls-16" d="M37.13,13.1c-.59-1.11-1.42-2.25-2.83-2a4.55,4.55,0,0,0-2.72,2.22s0,0,0,0a5.34,5.34,0,0,1,2.52-1.91c1.41-.4,2.13.89,3,1.73C37.12,13.16,37.14,13.13,37.13,13.1Z"/><path class="cls-16" d="M37.35,13.75a4,4,0,0,0-1.13-1.27s-.06,0,0,0c.21.21.4.43.59.65s.32.44.51.63C37.31,13.83,37.36,13.79,37.35,13.75Z"/><path class="cls-16" d="M24,7.11A11,11,0,0,0,18.13,5c-1.94-.16-3.58.87-5,2,0,0,0,0,0,0a8.58,8.58,0,0,1,5.26-1.48,12.14,12.14,0,0,1,4.8,1.24S24.06,7.14,24,7.11Z"/><path class="cls-16" d="M18.23,9.74c-2.17,0-3.05,1.64-3.42,3.56,0,0,0,0,0,0,.76-1.48,1.4-3,3.36-2.87S21,12.37,21.71,14a0,0,0,0,0,.07,0C21.23,12.05,20.67,9.75,18.23,9.74Z"/><path class="cls-16" d="M16.74,22.53a7.87,7.87,0,0,1-1.45.45c-.59.12-1-.44-1.43-.8a2.93,2.93,0,0,0-2.3-.54s0,0,0,0a2.93,2.93,0,0,1,2.22,1,3.57,3.57,0,0,0,.85.84c.7.42,1.78-.31,2.23-.79A.11.11,0,0,0,16.74,22.53Z"/><path class="cls-16" d="M22.07,22.28s-.07,0-.07,0c.2,1.81-3,.36-3.7-.16,0,0,0,0,0,0A5.06,5.06,0,0,0,21,23.68C22,23.82,22.31,23.15,22.07,22.28Z"/><path class="cls-16" d="M25.49,22.53a3.64,3.64,0,0,1-2.76-.93s0,0,0,0c.78.72,1.68,1.61,2.82,1.12C25.65,22.69,25.62,22.51,25.49,22.53Z"/><path class="cls-16" d="M29,15.24s0,.07,0,.08a5,5,0,0,1,2.11,1c.53.42.93,1,1.42,1.42,0,0,.1,0,.08-.06A4,4,0,0,0,29,15.24Z"/><path class="cls-16" d="M7.16,15.48a4.06,4.06,0,0,0-2.73,2.15c0,.09.07.14.12.08a10.05,10.05,0,0,1,2.64-2.14C7.25,15.54,7.22,15.47,7.16,15.48Z"/><path class="cls-8" d="M115.45,63.45c-.73.14-1.9.34-1.87,1.34,0,.85.86,1.54,1.33,2.18a0,0,0,0,0,.07,0,15.12,15.12,0,0,0-.73-1.52c-.38-1,.6-1.37,1.26-1.81A.08.08,0,0,0,115.45,63.45Z"/><path class="cls-8" d="M121,62c-.06-.08-.16,0-.14.07a10,10,0,0,1,.24,1.38c-.5.57-.84-.47-1.22-.58s-.58.22-.78.46-1,1.45-1.23.92a1.86,1.86,0,0,1,0-1.12c0-.09-.1-.11-.14,0s-.11.2-.16.31a3.16,3.16,0,0,0-1.25,1.78c-.13.7.46,1.14,1,1.47,0,0,.07,0,0-.05a1.4,1.4,0,0,1-.44-1.63,4.87,4.87,0,0,1,.49-.93,1,1,0,0,0,.08.48c.24.54.86.35,1.25.12a2.26,2.26,0,0,0,.62-.78c.13-.23.4-.69.68-.37a1.15,1.15,0,0,0,.33.29.86.86,0,0,0,.82,0,2.27,2.27,0,0,1-.37,1.17s0,.1,0,.07a2,2,0,0,0,.82-1.43A2.74,2.74,0,0,0,121,62Z"/><path class="cls-8" d="M118,57.21s-.07,0-.06,0c.2.74.41,1.49-.25,2a10.89,10.89,0,0,1-1.2.68c-.51.33-.48.71.14.83,0,0,0,0,0,0-.76-.46.18-.67.6-.78a1.87,1.87,0,0,0,1-.55C118.8,58.82,118.31,57.77,118,57.21Z"/><path class="cls-16" d="M49.11,35.11a20.17,20.17,0,0,1-5.79,1.94,12.42,12.42,0,0,1-5.81-.85c-3.81-1.49-6.3-4.89-8.36-8.26,0,0-.08,0-.07,0,1.78,3.64,4.3,7.2,8.15,8.82a12.4,12.4,0,0,0,11.94-1.57C49.23,35.19,49.18,35.08,49.11,35.11Z"/><path class="cls-16" d="M54.16,35.19a16.28,16.28,0,0,0-6.41,12.26s0,0,0,0a22.34,22.34,0,0,1,6.46-12.18C54.29,35.23,54.22,35.15,54.16,35.19Z"/><path class="cls-16" d="M64.55,35.33a6.52,6.52,0,0,0-4.25.18,0,0,0,0,0,0,.05,16,16,0,0,1,4.21-.14S64.6,35.35,64.55,35.33Z"/><path class="cls-16" d="M66.22,35.73a13.4,13.4,0,0,0-3.29,0h0c1.1.07,2.19,0,3.29.09C66.26,35.8,66.26,35.73,66.22,35.73Z"/><path class="cls-16" d="M66.38,36.34a3.51,3.51,0,0,0-2.31-.2s0,.08,0,.08a22.14,22.14,0,0,0,2.29.21C66.4,36.43,66.42,36.36,66.38,36.34Z"/><path class="cls-16" d="M67.66,37.46a3.25,3.25,0,0,0-2.23-.63s0,.07,0,.07a9.44,9.44,0,0,1,2.15.68C67.65,37.6,67.72,37.51,67.66,37.46Z"/><path class="cls-16" d="M66,37.24c-.06,0-.1.06,0,.09,1.52.87,2.08,2.51,2.52,4.1,0,0,.08,0,.07,0C68.21,39.65,67.92,37.86,66,37.24Z"/><path class="cls-16" d="M60.8,34.83a5.28,5.28,0,0,0-2.46.53s0,.09,0,.08c.41-.06.8-.15,1.21-.24a6.7,6.7,0,0,0,1.24-.27A.05.05,0,0,0,60.8,34.83Z"/><path class="cls-16" d="M46.7,16.26c-1.49.75-2.49,2.64-3.34,4a26.61,26.61,0,0,0-2.93,5.87,0,0,0,1,0,0,0c1-1.79,1.91-3.65,3-5.39,1-1.53,2.23-2.89,3.27-4.38C46.83,16.33,46.78,16.22,46.7,16.26Z"/><path class="cls-16" d="M47.31,15.41c-.94-.44-1.74.33-2.55.73a0,0,0,0,0,0,.07c.38-.1.73-.27,1.11-.38a8.16,8.16,0,0,1,1.38-.25A.09.09,0,0,0,47.31,15.41Z"/><path class="cls-16" d="M48.22,12.94s0-.07-.06,0a3.08,3.08,0,0,0-.61,1.84c-.46-.32-1.25,0-1.66.29,0,0,0,.08,0,.06a3.31,3.31,0,0,1,.89-.14c.26,0,.53,0,.79,0h0a.94.94,0,0,0,.13.24.06.06,0,0,0,.11,0A4.71,4.71,0,0,1,48.22,12.94Z"/><path class="cls-16" d="M58.15,14A9.38,9.38,0,0,0,53.46,12c-1.78-.07-3.39,1.06-4.67,2.2,0,0,0,.07,0,.05,1.38-.81,2.69-1.74,4.36-1.79a10,10,0,0,1,4.93,1.66S58.18,14.06,58.15,14Z"/><path class="cls-16" d="M71.32,2A6.36,6.36,0,0,0,66,3.77s0,0,0,0A10.16,10.16,0,0,1,68.59,2.5,10,10,0,0,1,71.74,2C71.85,2,71.4,2,71.32,2Z"/><path class="cls-16" d="M72,1.59c-.77-.87-1.9-.69-2.89-.41,0,0,0,0,0,0a4.18,4.18,0,0,1,2.79.49C71.94,1.73,72,1.65,72,1.59Z"/><path class="cls-16" d="M75.68.24c-.8.1-2.22.38-2.5,1.3a1,1,0,0,0-.32-.47A2.52,2.52,0,0,0,72.15.7a0,0,0,0,0,0,0c.17.14.32.31.49.45s.29.37.45.54h0a.06.06,0,0,0,.1,0c.39-.25.68-.62,1.08-.86A6.56,6.56,0,0,1,75.69.26S75.69.24,75.68.24Z"/><path class="cls-16" d="M78.19,1.7a3.84,3.84,0,0,0-1.62-.18,3.59,3.59,0,0,0-1.48.69,0,0,0,0,0,0,0,9.9,9.9,0,0,1,1.5-.44,9.15,9.15,0,0,1,1.57,0A.06.06,0,0,0,78.19,1.7Z"/><path class="cls-16" d="M101.65,22.31a20.88,20.88,0,0,1-5.87-3.77,21,21,0,0,1-2.28-3.18,19.43,19.43,0,0,0-2.09-3c-.86-1.12-1.76-2.21-2.72-3.24A36.16,36.16,0,0,0,83,4a11.36,11.36,0,0,0-3.45-1.58,10.2,10.2,0,0,0-3.93.06s0,.06,0,.06A10.12,10.12,0,0,1,83.43,4.8a44.32,44.32,0,0,1,5.88,5.66,45.72,45.72,0,0,1,4.29,5.91A11.2,11.2,0,0,0,98.5,21C99.71,21.56,101.79,22.37,101.65,22.31Z"/><path class="cls-16" d="M94.38,40c-1.85.71-3,2.66-3.57,4.46a9.29,9.29,0,0,0,.28,6,0,0,0,0,0,.08,0c-.94-3.82,0-7.88,3.29-10.25A.09.09,0,0,0,94.38,40Z"/><path class="cls-16" d="M95,38.6a5,5,0,0,0-1.51.53c-.53.33-1,.77-1.5,1.1,0,0,0,0,0,0,.43-.22.83-.49,1.25-.73.57-.34,1.22-.51,1.79-.83C95.16,38.66,95.1,38.58,95,38.6Z"/><path class="cls-16" d="M98.16,36.91a6.71,6.71,0,0,0-4.52,1.42s0,.08,0,.07A15.06,15.06,0,0,1,98.15,37C98.21,37,98.22,36.91,98.16,36.91Z"/><path class="cls-16" d="M100.93,36.2a6,6,0,0,0-4.27.38c-.07,0,0,.14,0,.12a10.58,10.58,0,0,1,4.19-.41S101,36.22,100.93,36.2Z"/><path class="cls-16" d="M101.89,36.49l-.42-.14s0,0,0,0,.27.1.42.13A0,0,0,0,0,101.89,36.49Z"/><path class="cls-16" d="M112.43,27a9.4,9.4,0,0,0-3-2.85,13.27,13.27,0,0,0-4-2.2s0,0,0,0A18.29,18.29,0,0,1,109,24.22a11.64,11.64,0,0,1,2.83,2.9c1.53,2.53.83,6.05.63,8.81,0,.06.08.07.09,0C113,33,113.91,29.77,112.43,27Z"/></g></g></svg>