<svg id="Layer_1" data-name="Layer 1" xmlns="http://www.w3.org/2000/svg" viewBox="0 0 220.77 174.07"><defs><style>.cls-1{fill:#fff;}.cls-2{fill:#d22333;}.cls-3{fill:#af1a28;}.cls-4{fill:#be1e2d;}.cls-5{fill:#594a42;}.cls-6{fill:#9b8579;}</style></defs><title>coffee</title><path class="cls-1" d="M96.74,174c-6.38-.11-12.42-.5-17.76-.85l-6.09-.39c-2.28-.15-4.55-.31-6.8-.5L62.65,172a80.67,80.67,0,0,1-17.45-3.61c-.57-.2-1.15-.4-1.72-.62-1.21-.45-2.36-.94-3.46-1.44a47.93,47.93,0,0,1-8.28-4.88c-1.06-.78-2.11-1.63-3.12-2.52s-2-1.87-3-2.87-1.89-2.08-2.78-3.21l-.57-.72,0,0c-.63-.81-1.31-1.74-2.07-2.81l-.67-1c-.65-1-1.29-1.93-1.91-2.92l-.53-.84c-1.58-2.59-3.06-5.32-4.4-8.11C-1.68,106.4-1,68.52,1.21,38.87A23.64,23.64,0,0,1,12.62,20.19,143.71,143.71,0,0,1,88,0a141.47,141.47,0,0,1,58.41,13.71l.08,0c2.89,1.37,5.72,2.82,8.43,4.32l.45.26c1.33.74,2.53,1.43,3.72,2.14,1.4.83,2.8,1.7,4.19,2.59a21.84,21.84,0,0,1,2.43,1.81A24,24,0,0,1,174,41.25c.12,1.59.23,3.2.32,4.83,1.41-.24,2.8-.41,4.19-.52a39.43,39.43,0,0,1,4.07-.12c10,.16,19.16,3.7,25.77,10,8.11,7.69,11,17.93,11.94,25.16a58.31,58.31,0,0,1-19.4,51.27,58.83,58.83,0,0,1-39.1,14h0a58.3,58.3,0,0,1-6.48-.47c-.53.92-1.08,1.83-1.64,2.72-1.45,2.31-3,4.5-4.49,6.5-.51.66-1,1.31-1.55,1.95-1.1,1.33-2.23,2.59-3.35,3.73a45.83,45.83,0,0,1-4.79,4.28,33.68,33.68,0,0,1-5.26,3.39C125.54,172.38,113.64,174.32,96.74,174Zm77.15-93.86A195,195,0,0,1,169.55,108a35.18,35.18,0,0,0,10.91-4.43c5.28-3.37,10.32-9.84,9.67-16.71-.45-4.76-4.88-9.34-9.12-9.41a5.62,5.62,0,0,0-1.16.1A23.07,23.07,0,0,0,173.89,80.18Z"/><path class="cls-2" d="M143.7,149c-3.5,4.73-7.57,8.89-12,11.26-14,7.49-38.39,5.8-53.66,5.09-17.72-.82-35.49-1.41-47.72-16.31C7.57,121.34,6.49,77.52,8.59,41.19a15.49,15.49,0,0,1,7.19-12.37c44.22-27.09,98-27,142.12.33a15.53,15.53,0,0,1,7.15,11.79c2.86,30.7.34,64.38-12.23,92.3A87.9,87.9,0,0,1,143.7,149Z"/><path class="cls-3" d="M212,79.94c-1.13-7.53-4.19-15-9.8-20.14-6.27-5.75-15.22-8-23.69-7.23A43.23,43.23,0,0,0,166,55.83c.2,6.06.16,12.18-.13,18.3.61-.31,1.21-.62,1.79-.95,3.33-1.86,6.6-4,10.33-4.84,9.55-2,19.21,6.55,20.29,16.25s-4.87,19.21-13,24.59c-7.73,5.11-17.1,7-26.36,7.74a131,131,0,0,1-6.06,16.32c-.33.73-.72,1.51-1.08,2.27A49.48,49.48,0,0,0,212,79.94Z"/><path class="cls-4" d="M157.9,29.15a139.85,139.85,0,0,0-16.09-8.56c4.9,23,12.71,79.51-22.07,101.92-30.17,19.44-74,16-98.87,11.86a78.29,78.29,0,0,0,9.45,14.71c12.23,14.9,30,15.49,47.72,16.31,15.27.71,39.65,2.4,53.66-5.09,4.43-2.37,8.49-6.53,12-11.26a87.9,87.9,0,0,0,9.12-15.8c12.57-27.92,15.09-61.6,12.23-92.3A15.53,15.53,0,0,0,157.9,29.15Z"/><path class="cls-5" d="M157,37.89c-43.57-27.66-96.88-27.67-140,0A208.88,208.88,0,0,0,157,37.89Z"/><path class="cls-6" d="M66.71,29.89a91.3,91.3,0,0,1-21.34,7.85c-2.28.53-4.87.89-7,.08a1.49,1.49,0,0,1-.53-2.41,18.24,18.24,0,0,1,5.74-3.65,76.64,76.64,0,0,1,25.1-6.53,1.5,1.5,0,0,1,1.1,2.62A14.65,14.65,0,0,1,66.71,29.89Z"/><path class="cls-1" d="M20.65,93.51c-1.27,1.8-2.34,1-3,.08a8.73,8.73,0,0,1-1.1-3.18c-1.91-9.77-1.71-19.8-1.5-29.75a5.24,5.24,0,0,1,.73-3.13c.66-.87,2.17-1.16,2.8-.27A2.66,2.66,0,0,1,19,58.65Q19.75,72,20.54,85.26C20.74,88.56,21.08,90.23,20.65,93.51Z"/></svg>