<svg id="Layer_1" data-name="Layer 1" xmlns="http://www.w3.org/2000/svg" viewBox="0 0 389.67 386.65"><defs><style>.cls-1{fill:#e9e6e4;}.cls-2{fill:#93572e;}.cls-3{fill:#85d651;}.cls-4{fill:#9eed6b;}.cls-5{fill:#9ad449;}.cls-6{fill:#81b731;}</style></defs><title>green apple</title><path class="cls-1" d="M202.18,24h-.8a18.6,18.6,0,0,0-18.6,18.6V63.24A86,86,0,0,0,60.58,66c.07.26.17.51.25.77a86.43,86.43,0,0,0,31.05,44.74,146,146,0,0,0,110,269.08A146,146,0,1,0,220.78,96.43V42.6A18.6,18.6,0,0,0,202.18,24"/><rect class="cls-2" x="168.78" width="38" height="108" rx="18.6" ry="18.6"/><path class="cls-3" d="M229.66,70.61a146.15,146.15,0,0,0-41.82,6.11,146,146,0,1,0,0,279.82A146,146,0,1,0,229.66,70.61Z"/><path class="cls-4" d="M310.05,157.34a38.52,38.52,0,1,1-38.52-38.52A38.53,38.53,0,0,1,310.05,157.34Z"/><path class="cls-5" d="M191.83,77.73A86.06,86.06,0,0,0,46.58,42c.07.26.17.51.25.77L191.26,78.29C191.45,78.1,191.65,77.92,191.83,77.73Z"/><path class="cls-6" d="M108.81,102.07a86,86,0,0,0,82.45-23.78L46.83,42.72A86,86,0,0,0,108.81,102.07Z"/></svg>