<svg id="Layer_1" data-name="Layer 1" xmlns="http://www.w3.org/2000/svg" xmlns:xlink="http://www.w3.org/1999/xlink" viewBox="0 0 137.11 143.8"><defs><style>.cls-1{fill:none;clip-rule:evenodd;}.cls-10,.cls-11,.cls-12,.cls-13,.cls-2,.cls-3,.cls-5,.cls-6,.cls-7,.cls-8,.cls-9{fill-rule:evenodd;}.cls-3{fill:#d1af73;}.cls-4{clip-path:url(#clip-path);}.cls-5{fill:#e7c787;}.cls-6{fill:#f5dcad;}.cls-7{fill:#735728;}.cls-8{fill:#cb353a;}.cls-9{fill:#8c6c36;}.cls-10{fill:#b0b0b0;}.cls-11{fill:#979797;}.cls-12{fill:#7f7f7f;}.cls-13{fill:#ad373b;}</style><clipPath id="clip-path"><path class="cls-1" d="M58.88,106.35a91.16,91.16,0,0,1,21.64.24c23.68,1.82,25.16,24.71,27.75,36.95L31.68,144C31.68,129,39.35,108,58.88,106.35Z"/></clipPath></defs><path class="cls-2" d="M94.91,112.46,98,115.73l-1.47,16.49,3.52,4.94c1.09,3.79-4.12,6.59-2.56,7.14l31.92-.26C127.11,141.23,125,114.19,94.91,112.46Z"/><path class="cls-3" d="M58.88,106.35a91.16,91.16,0,0,1,21.64.24c23.68,1.82,25.16,24.71,27.75,36.95L31.68,144C31.68,129,39.35,108,58.88,106.35Z"/><g class="cls-4"><path class="cls-5" d="M42.37,110.05l-2.85,2.39-6.87,15,.3,5.42c-.73,3.78-1.88,10.35-1.16,11.23l13.12,1.8C44.58,142.76,49.46,116.33,42.37,110.05Z"/><path class="cls-5" d="M105.53,130.45c.85,2.87,3.55,12.17,2.79,13.28L96,145.13c-7.25-8.43-4.21-33.54,2.11-38.27,1.47-1.09-4.15.91.84,3l6.87,15Z"/></g><path class="cls-3" d="M78.27,95l-19.2-.58c-.09.26,1,12.55,1.47,14,.79,2,5,15.28,8.9,15.38,4.1.1,8-13,8.71-16.06Z"/><path class="cls-2" d="M40.27,113.57l-3,3.13,1.42,15.78-3.39,4.73c-1.05,3.62,4,6.31,2.46,6.83L7.12,143.8C9.31,141.1,11.32,115.22,40.27,113.57Z"/><path class="cls-2" d="M60.27,106.6H55.63c-3.73,0-14.34,4.55-17.65,7.11-6.73,5.19-10.79,30.52-8.55,30.52,2.44,0,21.14,1.16,21.61-.74,2.07-8.49,3.89-24.61,7.41-32.12C58.63,111,60.27,106.9,60.27,106.6Z"/><path class="cls-2" d="M77.28,106.08h4.77c3.83,0,14.73,4.68,18.13,7.31,6.91,5.33,11.09,31.35,8.78,31.35-2.5,0-20.42,1.12-21.13-.76-3.19-8.46-5.06-25.29-8.67-33C79,110.59,77.28,106.4,77.28,106.08Z"/><path class="cls-2" d="M77.35,105c3.48-2.82,2.83-3.46,7.76-6,6.34-3.31-.17,7.22,2.53,9.29,0,0-9,2.94-10-2.17C77.57,105.49,77,105.25,77.35,105Z"/><path class="cls-2" d="M60.26,106.15c-3.48-2.82-2.84-3.46-7.76-6-6.34-3.31.17,7.22-2.53,9.29,0,0,9,2.94,10-2.17C60,106.65,60.59,106.41,60.26,106.15Z"/><path class="cls-6" d="M44.4,78.26,39,57.51c-1.3-.38-3.09-3.9-4.78-4.09,0-.35-4.13-2-2.12,5.53,1,3.79,4,14.35,6.1,17S41.1,78.31,44.4,78.26Z"/><path class="cls-7" d="M30.49,60.94,100,55.29c7.63-3.46,5.58-15.95,3.42-21.7C97.21,17.12,97.16,5.6,72.7,4.64,50.87,3.78,45.91,6.75,29.81,19.75c-4.19,3.39-.73,5.69-1.19,6.44-5,.57-4.42,16.42-1.75,21.55C27.25,48.47,31,60.63,30.49,60.94Z"/><path class="cls-6" d="M36.86,78.25c.69,3.57,1,6.75,2.84,9.66,4.61,7.37,12.79,13,16.13,18.48,5.27,8.71,21.22,7.33,24.25,2.45C87.15,97.46,101.26,89.7,96.75,73.4c7.43-.09,7.62-5.35,9.59-11.61,3.23-10.31-4.21-16.09-5.4-8,0,.08-2.33-13.32-4.76-19.15C89.62,18.84,78,28.5,73.4,29.45c-18.91.24-14.62-9.3-33.67-5C29,26.84,28.17,45.83,31.81,51.37c1.6,2.44-1.4,13.1,4.59,20,.55.64-2.53,1.45-1.85,2.22C34.35,74.28,36.67,77.9,36.86,78.25Z"/><path class="cls-2" d="M93.09,52.24c-.47.22,3.93-.86,5.28-.18s2,3.68,1.29,4.85a20.38,20.38,0,0,1-3.2,3.24Z"/><path class="cls-2" d="M40.25,52.24c.47.22-3.93-.86-5.28-.18s-2,3.68-1.29,4.85a20.32,20.32,0,0,0,3.21,3.24Z"/><path class="cls-2" d="M90.4,70.88h0c-4.93,3-12.23,1.3-15.72-2.78s-3.91-7.82-2.8-10.8,14-7.86,19.75-3.43C97.58,58.42,95.33,67.87,90.4,70.88Z"/><path class="cls-2" d="M58.66,68.1h0c-3.48,4.08-10.79,5.79-15.72,2.78s-7.18-12.46-1.23-17c5.78-4.43,18.65.46,19.76,3.43S62.15,64,58.66,68.1Z"/><path class="cls-2" d="M92.78,51.78c-5.24-3.18-14.19-1.53-18.78.68a15.89,15.89,0,0,1-7.3,1.88h-.06a15.89,15.89,0,0,1-7.3-1.88c-4.59-2.21-13.54-3.86-18.78-.68-5.82,3.53-5.11,12.2-2.91,16.61s6.47,5.6,11.49,5.66S60.21,72,62.23,66.57c.86-2.28,2.15-7.75,4.44-8,2.29.23,3.59,5.7,4.44,8,2,5.39,8.06,7.54,13.09,7.48s9.28-1.24,11.49-5.66S98.6,55.31,92.78,51.78Z"/><path class="cls-8" d="M84.22,64.67A3.17,3.17,0,1,0,81,61.51,3.22,3.22,0,0,0,84.22,64.67Z"/><path class="cls-6" d="M37.54,78.87,34.69,60.4c-1.49-1.18-2.12-2.89-2.89-3.5-2-1.62-2.73-.82-3.35-.25C23.51,61.23,28.78,80.32,37.54,78.87Z"/><path class="cls-9" d="M66.72,143.91l5.55-.13c-.63-12-2.68-25.52-3.75-22.67Z"/><path class="cls-10" d="M53,35.52c-.71-5.16-4.45-8.42-9.39-8.42-10.85,0-.07,1.54-7.46,5.67-.8.45-3.25,5.56.52,7.56,3,1.59-3.12,4.46-.8,8.77,2.43,4.54,4.53-4.45,14.38-1.34.51.17,3-1,5.78-1,3.23,0-2.82-6.32-2.21-9.16C54,36.91,53,35.8,53,35.52Z"/><path class="cls-10" d="M55.77,75.63c-8.69,4.3-11.59-2.15-9.12,5.63.78,2.46-4.38-3,2.32,8.83,4.62,8.13,2.52,8.45,10.25,17,1.11,1.24-.38-2.9-2.25-4.78-1.63-1.64-6-18.76-5.67-17.09.24,1.26,10.23,21.27,11,21.65.19,1.18,2.76,2.56-1.1-5-1.4-2.7-5.29-13.62-3.84-16.65,1.34-2.82-1.72-9.39-1.71-9.46Z"/><path class="cls-11" d="M52.52,36.1c-2.61-3.15-6.86-5.62-11-5.62-1.05,0-2.18,0-1.79,1.84,1.36.71,5.35-.34,2.83,2.73-1.27,1.54,3.93,1.51-1.83,1.78-3.07.14-.44,4.84-.44,4.81.43-1.5,4.58-2.57,4.58-1.16,0,4.72-1.11-.63-5.1,4.71,0,0-.32,2.18.51,1.53,1.52-1.18,12.46-1.35,12.46-1.59,0-.79,0-4.51-.83-4.51-5.2,0-3.26.56-3.26-2.27-2,0-4.94.73-3.25-2.13,0-.07,4.76-1,4.86,1.58,0,1.17,2.23,1.78,2.23.48C52.5,38,52.59,36.19,52.52,36.1Z"/><path class="cls-12" d="M51.79,81.48C49.46,80,48.52,83.22,50,85c0,0,2.54,7.71,2.13,7.71-1.63,0-2.22-3.06-2.73-4.4S46.87,83.69,48,82.49c1.89-2-4.49-3.84,5.95-3.84,1.88,0,1.16,1.4,1.85,3.12.38.94-.4,5.18.67,7.71.1.24,1.14,5.26,1,5.26-1.32,2.18-3.1-10.37-5.2-10.34-1.87,0-1.81-2-.31-1.91C53.05,82.57,51.83,81.51,51.79,81.48Z"/><path class="cls-13" d="M81.78,57.48a7.59,7.59,0,0,0,1.41-.75c0-.43-.41-3.65-.59-3.5-2.38,2-3.49-.23-1.81,3A15.8,15.8,0,0,0,81.78,57.48Z"/><path class="cls-13" d="M87.38,58.08a8,8,0,0,0,1.14,1.21c.42-.16,3.53-1.42,3.34-1.56-2.62-1.83-.72-3.55-3.51-1A15,15,0,0,0,87.38,58.08Z"/><path class="cls-13" d="M85.09,66.36a8.57,8.57,0,0,0-1.75.18c-.14.45-1.08,3.89-.84,3.81C85.73,69.33,86,72,85.58,68,85.58,68,85.15,66.39,85.09,66.36Z"/><path class="cls-13" d="M89.86,62.78a8.47,8.47,0,0,0-1,1.32c.22.38,2,3.26,2.07,3,1.39-2.87,3.39-1.27.4-3.62C91.31,63.52,89.92,62.76,89.86,62.78Z"/><path class="cls-13" d="M79.51,59.94a7.76,7.76,0,0,1-.81,1.46c-.44-.06-3.77-.52-3.61-.71,2.1-2.41-.17-3.62,3.16-1.8C78.27,58.9,79.51,59.88,79.51,59.94Z"/><path class="cls-13" d="M79.41,63.64a8,8,0,0,1,1,1.32c-.22.38-2,3.26-2.07,3C77,65.13,75,66.73,78,64.38,78,64.37,79.34,63.62,79.41,63.64Z"/><path class="cls-12" d="M80.91,73.5c-2-1.31.16,2.53-1,6-.22.64.12,28,2.07,20.7.39-1.45-1.63-6.91-1-11.92,0-.43.35-13.63.6-7.67.3,7.11,1.36,7.29,1.29,5.92-.05-1-2.5-12.69.35-9.27.75.91.87,29.33,3.3,20,.1-.39-1.64-7.33-1.64-12,0-12.25,1.06-8.8.83-7.8-.36,1.61.78,6.29.78-1.47,6.33,0,1.25,14.89,4,14.24.21-.06.19-16-2.73-16-2.64,0-.19-1.93-3.34,0A8.69,8.69,0,0,1,80.91,73.5Z"/><path class="cls-11" d="M61.26,34.36c-1.54-2.22-6.16-1.72-1.28.8,0,0-6.08,1.66-2.85,3,4.6,1.85,1.49-3,2,2,0,.09,1.91,1.64,1.77-1.54,0-.45.5-.11-.22,3.86-1.08,6,1.7,6.07,1.82,4.35.1-1.26.17-9.4.76-8.93,1.94,1.54,1.48-2.76-.69-1.43-.76.47,4.44-1.81.83-3.22C62.77,33,61,34,61.26,34.36Z"/></svg>